<?xml version="1.0" encoding="UTF-8"?>
<svg width="64px" height="64px" viewBox="0 0 64 64" version="1.1" xmlns="http://www.w3.org/2000/svg" xmlns:xlink="http://www.w3.org/1999/xlink">
    <!-- Generator: Sketch 49.1 (51147) - http://www.bohemiancoding.com/sketch -->
    <title>default_avatar copy</title>
    <desc>Created with Sketch.</desc>
    <defs>
        <linearGradient x1="50%" y1="0%" x2="50%" y2="100%" id="linearGradient-1">
            <stop stop-color="#07B3FF" offset="0%"></stop>
            <stop stop-color="#007DE8" offset="100%"></stop>
        </linearGradient>
    </defs>
    <g id="Page-1" stroke="none" stroke-width="1" fill="none" fill-rule="evenodd">
        <g id="default_avatar-copy">
            <circle id="Oval" fill="#FFFFFF" cx="32" cy="32" r="32"></circle>
            <path d="M42.9356911,8.00455536 C39.6043517,6.48377233 35.9011157,5.63636364 32,5.63636364 C30.903429,5.63636364 29.822493,5.70331952 28.7610568,5.83336603 C24.8379668,11.259762 22.8050122,20.0714287 22.9672255,25.4692978 C22.9672255,25.4692978 22.7079403,33.4903607 28.2061466,36.3353943 C28.2061466,36.3353943 33.1472859,38.5019437 36.5145976,31.4963072 C36.5145976,31.4963072 38.8289167,27.5426994 37.8868847,18.6074079 C37.8868847,18.6074079 38.7881557,18.7661042 38.8900582,18.9087008 C38.9919607,19.0501475 40.8805539,25.7878404 39.5535568,31.461808 C39.5535568,31.461808 38.331859,38.1293524 32.3252724,39.6542169 C26.3209502,41.1790813 21.6413607,37.4899673 18.464267,34.0147484 C16.1064452,31.4358097 12.6099998,24.5252228 10.8737194,16.2271509 C7.58433044,20.6258974 5.63636364,26.0861151 5.63636364,32.0011977 C5.63636364,36.106163 6.5745401,39.9919964 8.2481736,43.4559784 C14.0121891,45.169656 28.9359898,48.5990305 38.4115717,41.6544847 C44.6502928,37.0813078 43.8464555,29.7576981 43.8464555,29.7576981 C43.7431691,24.1869066 40.3515591,18.6534091 40.3515591,18.6534091 C53.5396566,30.5839934 45.7449038,43.8385147 45.7449038,43.8385147 C42.1259782,51.2301377 34.6972322,55.96493 28.184339,58.0907349 C29.4301374,58.2713419 30.7041501,58.364834 32,58.364834 C46.5602853,58.364834 58.3636364,46.561483 58.3636364,32.0011977 C58.3636364,25.7509221 56.1886414,20.0085242 52.5542638,15.4896891 C51.2601219,15.5792938 49.7548682,15.6320094 48.1928608,15.5807465 C48.1928608,15.5807465 41.1762768,15.9084095 37.2417887,17.8708515 C37.2417887,17.8708515 34.3077779,19.1791462 31.374971,21.3973539 C31.374971,21.3973539 30.7525321,21.7085159 30.7826307,22.8518004 C30.8091174,23.991549 30.1854746,27.0300929 28.1074677,28.8110237 C28.1074677,28.8110237 26.6242091,29.5736063 27.3658384,30.6650305 C27.3658384,30.6650305 28.3675196,32.119477 29.7785416,30.5919546 C29.7785416,30.5919546 33.4168595,26.8485817 33.6395891,20.8162825 C33.6395891,20.8162825 34.7905593,19.8332935 36.6085143,19.5433471 C36.6085143,19.5433471 36.9432107,28.5929746 32.4525006,33.1366467 C32.4525006,33.1366467 28.1809083,37.788754 26.8084125,30.8830796 C26.8084125,30.8830796 25.1373386,24.3038897 33.7515559,16.4906596 C33.7515559,16.4906596 39.517894,10.7319609 42.9356911,8.00455536 Z M32,61.0011977 C15.9836913,61.0011977 3,48.0175064 3,32.0011977 C3,15.9846781 15.9839021,3 32,3 C48.0160979,3 61,15.9846781 61,32.0011977 C61,48.0175064 48.0163087,61.0011977 32,61.0011977 Z" id="Combined-Shape" fill="url(#linearGradient-1)" fill-rule="nonzero"></path>
        </g>
    </g>
</svg>