<?xml version="1.0" encoding="UTF-8"?>
<svg width="24px" height="24px" viewBox="0 0 24 24" version="1.1" xmlns="http://www.w3.org/2000/svg" xmlns:xlink="http://www.w3.org/1999/xlink">
    <title>ICON / Device / set</title>
    <defs>
        <linearGradient x1="50%" y1="0%" x2="50%" y2="100%" id="linearGradient-1">
            <stop stop-color="#1568FA" offset="0%"></stop>
            <stop stop-color="#0B3BC6" offset="100%"></stop>
        </linearGradient>
        <linearGradient x1="50%" y1="0%" x2="50%" y2="100%" id="linearGradient-2">
            <stop stop-color="#FFFFFF" stop-opacity="0.1" offset="0%"></stop>
            <stop stop-color="#000000" stop-opacity="0.1" offset="100%"></stop>
        </linearGradient>
        <linearGradient x1="50%" y1="9.81626553%" x2="50%" y2="100.392679%" id="linearGradient-3">
            <stop stop-color="#D6E1FF" offset="0%"></stop>
            <stop stop-color="#BAC5E6" offset="48.4048274%"></stop>
            <stop stop-color="#A8B5EE" offset="100%"></stop>
        </linearGradient>
        <path d="M13.6764997,3.01123493 L14.2412242,3.1394451 C14.4641516,3.19005659 14.6137133,3.3997632 14.58896,3.62701942 L14.4639645,4.77458038 C14.443285,4.96443549 14.5446919,5.14666592 14.7169309,5.22916643 L15.3673428,5.54070621 C15.5407644,5.62377319 15.7478048,5.58747283 15.8826228,5.45036228 L16.6801474,4.63927583 C16.8414718,4.47520808 17.100576,4.45926367 17.2807994,4.60231368 L17.7366113,4.96410844 C17.9149073,5.10562863 17.9594454,5.35800419 17.8403604,5.55200478 L17.2423504,6.52621938 C17.1423891,6.68906573 17.1561661,6.89728326 17.2767119,7.04553946 L17.7616761,7.64198444 C17.881828,7.78975625 18.0819933,7.8458894 18.2614625,7.78214159 L19.33172,7.40198417 C19.546519,7.32568717 19.7844421,7.42204853 19.8856098,7.62631538 L20.1432126,8.14643907 C20.2449021,8.35175963 20.176089,8.60070521 19.9833844,8.72464981 L19.0418483,9.33023145 C18.8799692,9.43434959 18.8022271,9.62989131 18.8484273,9.81673609 L19.0478997,10.6234518 C19.0929412,10.8056109 19.2462849,10.9407019 19.4326687,10.9624213 L20.5805705,11.0961869 C20.7996357,11.1217147 20.9679191,11.3022422 20.9780235,11.5225583 L21.0001326,12.0109864 L20.9938882,12.2605459 C20.9901374,12.4037542 20.8816764,12.5224228 20.7393819,12.5390044 L19.4921434,12.6843459 C19.2981891,12.7069475 19.1409423,12.8520513 19.1028593,13.0435683 L18.9300498,13.912617 C18.8939944,14.0939375 18.9724999,14.2788625 19.1279859,14.3788687 L20.1092313,15.0099907 C20.2967134,15.1305763 20.3676621,15.3702442 20.2760331,15.5734548 L20.052406,16.069405 C19.9561412,16.2828966 19.7122256,16.3868699 19.4915425,16.3084828 L18.4604912,15.9422515 C18.2752258,15.8764449 18.0686861,15.938525 17.9504036,16.0955698 L17.3957376,16.8320049 C17.2844611,16.9797478 17.2749168,17.180532 17.3716772,17.3381639 L17.9885898,18.3431726 C18.1054102,18.533484 18.0650027,18.7806753 17.8936634,18.9238823 L17.4971703,19.2552749 C17.3172748,19.4056332 17.052078,19.3926772 16.8876955,19.2254994 L16.1081988,18.4327474 C15.9709287,18.293143 15.7591473,18.2583111 15.5843959,18.346597 L14.7456192,18.7703538 C14.5782671,18.8549015 14.4808731,19.034352 14.5011757,19.2207464 L14.6281485,20.3864608 C14.6527301,20.6121402 14.5053707,20.8207915 14.284464,20.8730956 L13.79992,20.9878211 C13.5749096,21.0410968 13.3461442,20.9151752 13.2707897,20.6965667 L12.9035011,19.6310372 C12.8379255,19.440798 12.6540255,19.3172141 12.4531108,19.3283674 L12.0249431,19.3521362 L11.9750569,19.3521362 L11.5468892,19.3283674 C11.3459745,19.3172141 11.1620745,19.440798 11.0964989,19.6310372 L10.7292103,20.6965667 C10.6538558,20.9151752 10.4250904,21.0410968 10.20008,20.9878211 L9.71553597,20.8730956 C9.49462932,20.8207915 9.34726993,20.6121402 9.37185154,20.3864608 L9.49882431,19.2207464 C9.51912689,19.034352 9.42173292,18.8549015 9.25438078,18.7703538 L8.41560412,18.346597 C8.2408527,18.2583111 8.02907127,18.293143 7.89180119,18.4327474 L7.11230451,19.2254994 C6.94792203,19.3926772 6.6827252,19.4056332 6.5028297,19.2552749 L6.10633659,18.9238823 C5.93499727,18.7806753 5.89458984,18.533484 6.01141019,18.3431726 L6.62832278,17.3381639 C6.72508325,17.180532 6.71553894,16.9797478 6.60426242,16.8320049 L6.04959638,16.0955698 C5.93131388,15.938525 5.72477424,15.8764449 5.53950878,15.9422515 L4.50845746,16.3084828 C4.28777437,16.3868699 4.04385875,16.2828966 3.94759403,16.069405 L3.7239669,15.5734548 C3.63233792,15.3702442 3.70328659,15.1305763 3.8907687,15.0099907 L4.87201414,14.3788687 C5.0275001,14.2788625 5.10600559,14.0939375 5.06995018,13.912617 L4.89714069,13.0435683 C4.85905771,12.8520513 4.70181086,12.7069475 4.50785659,12.6843459 L3.26061808,12.5390044 C3.11832358,12.5224228 3.00986256,12.4037542 3.00611181,12.2605459 L3.00031828,11.9947894 L3.02197645,11.5225583 C3.03208092,11.3022422 3.20036428,11.1217147 3.41942954,11.0961869 L4.56733125,10.9624213 C4.75371509,10.9407019 4.90705878,10.8056109 4.95210031,10.6234518 L5.15157274,9.81673609 C5.19777289,9.62989131 5.12003083,9.43434959 4.95815174,9.33023145 L4.01661555,8.72464981 C3.82391102,8.60070521 3.75509787,8.35175963 3.85678743,8.14643907 L4.11439021,7.62631538 C4.2155579,7.42204853 4.45348096,7.32568717 4.66827997,7.40198417 L5.73853748,7.78214159 C5.91800674,7.8458894 6.11817197,7.78975625 6.23832393,7.64198444 L6.72328807,7.04553946 C6.84383388,6.89728326 6.85761087,6.68906573 6.75764959,6.52621938 L6.15963958,5.55200478 C6.04055464,5.35800419 6.08509268,5.10562863 6.26338875,4.96410844 L6.7192006,4.60231368 C6.89942404,4.45926367 7.15852822,4.47520808 7.31985264,4.63927583 L8.11737718,5.45036228 C8.25219515,5.58747283 8.4592356,5.62377319 8.63265724,5.54070621 L9.28306906,5.22916643 C9.45530807,5.14666592 9.556715,4.96443549 9.53603547,4.77458038 L9.41104002,3.62701942 C9.38628666,3.3997632 9.53584844,3.19005659 9.75877578,3.1394451 L10.3235003,3.01123493 C10.5474423,2.96039309 10.7737432,3.08632419 10.8485794,3.30342885 L11.2170718,4.37245068 C11.282296,4.56037602 11.4634241,4.68279948 11.6621307,4.67354357 L12,4.66285138 L12.2087757,4.66760346 C12.2490619,4.66918749 12.292093,4.67116753 12.3378693,4.67354357 C12.5365759,4.68279948 12.717704,4.56037602 12.7829282,4.37245068 L13.1514206,3.30342885 C13.2262568,3.08632419 13.4525577,2.96039309 13.6764997,3.01123493 Z M17.723633,10.7857391 C16.0135026,10.6102691 14.2795458,11.428024 13.3643243,13.0132341 C12.4994319,14.5112718 12.5936877,16.299899 13.4579927,17.6680203 C15.9837152,17.0202473 17.8505461,14.7284702 17.8505461,12.00066 C17.8505461,11.5844154 17.8070777,11.1783237 17.723633,10.7857391 Z M10.6362161,13.0132341 C9.73241706,11.4478082 8.03019163,10.6308006 6.34094673,10.779633 L6.27610767,10.7866768 C6.19346272,11.1783237 6.14999431,11.5844154 6.14999431,12.00066 C6.14999431,14.7288284 8.01731552,17.0208492 10.5439991,17.6679549 C11.4068527,16.299899 11.5011086,14.5112717 10.6362161,13.0132341 Z M12.0002702,6.15023069 C10.3757694,6.15023069 8.90591597,6.81237198 7.84541727,7.88223131 C8.5238719,9.50796117 10.1286403,10.6505609 12.0002702,10.6505609 C13.8719001,10.6505609 15.4766685,9.50796117 16.15468,7.8814973 C15.0946244,6.81237198 13.624771,6.15023069 12.0002702,6.15023069 Z" id="path-4"></path>
        <filter x="-8.3%" y="-8.3%" width="116.7%" height="116.7%" filterUnits="objectBoundingBox" id="filter-5">
            <feOffset dx="0" dy="0" in="SourceAlpha" result="shadowOffsetOuter1"></feOffset>
            <feGaussianBlur stdDeviation="0.5" in="shadowOffsetOuter1" result="shadowBlurOuter1"></feGaussianBlur>
            <feColorMatrix values="0 0 0 0 0   0 0 0 0 0   0 0 0 0 0  0 0 0 0.2 0" type="matrix" in="shadowBlurOuter1"></feColorMatrix>
        </filter>
        <filter x="-6.9%" y="-6.9%" width="113.9%" height="113.9%" filterUnits="objectBoundingBox" id="filter-6">
            <feGaussianBlur stdDeviation="0.25" in="SourceAlpha" result="shadowBlurInner1"></feGaussianBlur>
            <feOffset dx="0" dy="0" in="shadowBlurInner1" result="shadowOffsetInner1"></feOffset>
            <feComposite in="shadowOffsetInner1" in2="SourceAlpha" operator="arithmetic" k2="-1" k3="1" result="shadowInnerInner1"></feComposite>
            <feColorMatrix values="0 0 0 0 0.61215463   0 0 0 0 0.734118583   0 0 0 0 1  0 0 0 1 0" type="matrix" in="shadowInnerInner1"></feColorMatrix>
        </filter>
    </defs>
    <g id="ICON-/-Device-/-set" stroke="none" stroke-width="1" fill="none" fill-rule="evenodd">
        <circle id="椭圆形" stroke="url(#linearGradient-2)" fill="url(#linearGradient-1)" cx="12" cy="12" r="10.5"></circle>
        <path d="M12.9273962,7.00612625 L13.2490617,7.07914262 C13.3706641,7.10674574 13.4522481,7.22113581 13.4387436,7.34509837 L13.368524,7.98966805 C13.3572417,8.09323236 13.4125612,8.19263747 13.5065191,8.23763496 L13.8736918,8.41347813 C13.9682766,8.45877587 14.0811919,8.4389795 14.1547259,8.36420707 L14.6029573,7.90842689 C14.6909492,7.81895312 14.8322587,7.81025755 14.9305568,7.88826785 L15.1901227,8.0942617 C15.2873921,8.17145564 15.3116894,8.3091336 15.246719,8.41495943 L14.9107542,8.96218946 C14.8562164,9.0510224 14.8637326,9.16461264 14.9294998,9.245485 L15.2029573,9.58174908 C15.2684937,9.66233766 15.377661,9.69295024 15.4755441,9.65818759 L16.0769977,9.44458458 C16.1941528,9.40297759 16.3239159,9.45553203 16.3791007,9.56693714 L16.5257808,9.86305009 C16.5812607,9.97505111 16.543721,10.1108562 16.4385937,10.1784616 L15.909425,10.51876 C15.8211147,10.5755506 15.7787034,10.6822207 15.8039097,10.7841448 L15.9162475,11.2383936 C15.940819,11.3377506 16.0244615,11.4114328 16.1261239,11.4232777 L16.7708143,11.4983917 C16.8903057,11.5123139 16.9820988,11.6107832 16.9876113,11.7309566 L17,12.0149238 L16.9966003,12.1447063 C16.9945166,12.2242532 16.9342696,12.2901688 16.85523,12.2993778 L16.1590098,12.3804957 C16.0532175,12.3928218 15.9674455,12.4719662 15.94667,12.5764283 L15.8494296,13.065366 C15.8297581,13.1642766 15.872586,13.2651545 15.9574083,13.3197022 L16.5083876,13.6740265 C16.6106659,13.7397997 16.6493707,13.8705433 16.5993794,13.9813938 L16.4718366,14.264207 C16.4193258,14.3806443 16.2862938,14.4373507 16.1659289,14.3946038 L15.5859945,14.1886432 C15.4849497,14.1527577 15.3723054,14.1866138 15.3077881,14.2722603 L14.995793,14.6864323 C14.9350824,14.7670253 14.9298753,14.8765606 14.982667,14.9625492 L15.3290161,15.5266937 C15.3927511,15.6305073 15.3707072,15.7653574 15.2772323,15.8434719 L15.0507479,16.0327393 C14.9526281,16.1147354 14.8079958,16.1076696 14.7183359,16.0164997 L14.2799943,15.5707759 C14.2051228,15.4946435 14.089622,15.4756479 13.9943117,15.5237917 L13.5225511,15.7620906 C13.4312586,15.8082049 13.3781278,15.9060939 13.3892045,16.0077707 L13.4605109,16.6623161 C13.4739217,16.7854188 13.3935389,16.8992333 13.2730385,16.9277596 L12.9959343,16.993359 C12.8732081,17.0224122 12.748436,16.9537338 12.7073303,16.8345024 L12.5008302,16.2355281 C12.4650583,16.131768 12.3647535,16.0643645 12.2551689,16.0704469 L12,16.0842319 L11.7448311,16.0704469 C11.6352465,16.0643645 11.5349417,16.131768 11.4991698,16.2355281 L11.2926697,16.8345024 C11.251564,16.9537338 11.1267919,17.0224122 11.0040657,16.993359 L10.7269615,16.9277596 C10.6064611,16.8992333 10.5260783,16.7854188 10.5394891,16.6623161 L10.6107955,16.0077707 C10.6218722,15.9060939 10.5687414,15.8082049 10.4774489,15.7620906 L10.0056883,15.5237917 C9.910378,15.4756479 9.79487721,15.4946435 9.72000572,15.5707759 L9.28166413,16.0164997 C9.19200419,16.1076696 9.04737188,16.1147354 8.94925212,16.0327393 L8.72276766,15.8434719 C8.62929285,15.7653574 8.6072489,15.6305073 8.67098391,15.5266937 L9.01733305,14.9625492 C9.07012466,14.8765606 9.06491758,14.7670253 9.00420701,14.6864323 L8.69221194,14.2722603 C8.62769458,14.1866138 8.51505029,14.1527577 8.41400553,14.1886432 L7.83407109,14.3946038 C7.7137062,14.4373507 7.58067418,14.3806443 7.52816343,14.264207 L7.40062057,13.9813938 C7.35062931,13.8705433 7.38933415,13.7397997 7.49161241,13.6740265 L8.04259166,13.3197022 C8.12741403,13.2651545 8.17024189,13.1642766 8.15057043,13.065366 L8.05332999,12.5764283 C8.03255445,12.4719662 7.94678253,12.3928218 7.84099017,12.3804957 L7.14477003,12.2993778 C7.06573043,12.2901688 7.0054834,12.2242532 7.00339966,12.1447063 L7.00017367,11.9972484 L7.0123887,11.7309566 C7.01790116,11.6107832 7.1096943,11.5123139 7.22918573,11.4983917 L7.87387612,11.4232777 C7.97553855,11.4114328 8.05918102,11.3377506 8.08375245,11.2383936 L8.19609032,10.7841448 C8.22129662,10.6822207 8.17888529,10.5755506 8.09057503,10.51876 L7.56140634,10.1784616 C7.45627899,10.1108562 7.41873928,9.97505111 7.47421921,9.86305009 L7.62089934,9.56693714 C7.67608408,9.45553203 7.80584722,9.40297759 7.92300229,9.44458458 L8.52445592,9.65818759 C8.62233901,9.69295024 8.73150633,9.66233766 8.79704274,9.58174908 L9.07050015,9.245485 C9.13626736,9.16461264 9.14378361,9.0510224 9.08924579,8.96218946 L8.75328104,8.41495943 C8.68831065,8.3091336 8.71260787,8.17145564 8.80987735,8.0942617 L9.06944321,7.88826785 C9.16774134,7.81025755 9.30905077,7.81895312 9.39704265,7.90842689 L9.84527409,8.36420707 C9.91880812,8.4389795 10.0317234,8.45877587 10.1263082,8.41347813 L10.4934809,8.23763496 C10.5874388,8.19263747 10.6427583,8.09323236 10.631476,7.98966805 L10.5612564,7.34509837 C10.5477519,7.22113581 10.6293359,7.10674574 10.7509383,7.07914262 L11.0726038,7.00612625 C11.1947472,6.97840034 11.3181752,7.04708391 11.3589982,7.16549512 L11.5670292,7.76890986 C11.6046685,7.86992735 11.7030863,7.93564962 11.810757,7.93046757 L12,7.92444844 L12.189243,7.93046757 C12.2969137,7.93564962 12.3953315,7.86992735 12.4329708,7.76890986 L12.6410018,7.16549512 C12.6818248,7.04708391 12.8052528,6.97840034 12.9273962,7.00612625 Z M9.11204753,11.3127698 L8.92940825,11.3167344 L8.82010815,11.3258064 C8.77416469,11.5434195 8.74999958,11.7690624 8.74999958,12.0003485 C8.74999958,13.5155373 9.78710512,14.7885297 11.1913157,15.1480008 C11.6704796,14.3881353 11.7227582,13.3947915 11.2423412,12.5627997 C10.7859191,11.7723576 9.96294546,11.3254401 9.11204753,11.3127698 L9.11204753,11.3127698 Z M15.1794232,11.3254579 C14.2294703,11.228142 13.2663384,11.6823767 12.757962,12.5627943 C12.2775429,13.3947899 12.3298209,14.3881348 12.8110391,15.1481043 C14.2136876,14.7879251 15.2503006,13.5151775 15.2503006,12.0003485 C15.2503006,11.7690624 15.2261355,11.5434195 15.1794232,11.3254579 Z M12.0001562,11.5000357 C11.724001,11.5000357 11.500133,11.7238735 11.500133,11.9999914 C11.500133,12.2761093 11.724001,12.4999471 12.0001562,12.4999471 C12.2763114,12.4999471 12.5001794,12.2761093 12.5001794,11.9999914 C12.5001794,11.7238735 12.2763114,11.5000357 12.0001562,11.5000357 Z M12.0001501,8.75063645 C11.0975723,8.75063645 10.2809245,9.11849683 9.6923856,9.71386474 C10.069584,10.6162844 10.9608025,11.250415 12.0001501,11.250415 C13.0394977,11.250415 13.9307162,10.6162844 14.3083065,9.7124497 C13.7193757,9.11849683 12.9027279,8.75063645 12.0001501,8.75063645 Z" id="形状" fill="url(#linearGradient-3)"></path>
        <g id="形状">
            <use fill="black" fill-opacity="1" filter="url(#filter-5)" xlink:href="#path-4"></use>
            <use fill="#FFFFFF" fill-rule="evenodd" xlink:href="#path-4"></use>
            <use fill="black" fill-opacity="1" filter="url(#filter-6)" xlink:href="#path-4"></use>
        </g>
    </g>
</svg>