<?xml version="1.0" encoding="UTF-8"?>
<svg width="26px" height="26px" viewBox="0 0 26 26" version="1.1" xmlns="http://www.w3.org/2000/svg" xmlns:xlink="http://www.w3.org/1999/xlink">
    <title>ICON</title>
    <defs>
        <filter x="-16.7%" y="-11.9%" width="133.3%" height="133.3%" filterUnits="objectBoundingBox" id="filter-1">
            <feOffset dx="0" dy="1" in="SourceAlpha" result="shadowOffsetOuter1"></feOffset>
            <feGaussianBlur stdDeviation="1" in="shadowOffsetOuter1" result="shadowBlurOuter1"></feGaussianBlur>
            <feColorMatrix values="0 0 0 0 0   0 0 0 0 0   0 0 0 0 0  0 0 0 0.2 0" type="matrix" in="shadowBlurOuter1" result="shadowMatrixOuter1"></feColorMatrix>
            <feMerge>
                <feMergeNode in="shadowMatrixOuter1"></feMergeNode>
                <feMergeNode in="SourceGraphic"></feMergeNode>
            </feMerge>
        </filter>
        <linearGradient x1="91.2656134%" y1="3.09581106%" x2="76.278956%" y2="100%" id="linearGradient-2">
            <stop stop-color="#00CF4A" offset="0%"></stop>
            <stop stop-color="#009275" offset="100%"></stop>
        </linearGradient>
        <linearGradient x1="50%" y1="0%" x2="50%" y2="99.1887019%" id="linearGradient-3">
            <stop stop-color="#FFFFFF" stop-opacity="0.3" offset="0%"></stop>
            <stop stop-color="#000000" stop-opacity="0.4" offset="100%"></stop>
        </linearGradient>
        <path d="M7.6916556,0 L13.3083444,4.5341707e-16 C15.9829006,-2.63448375e-16 16.9527593,0.278476833 17.9305371,0.801398111 C18.9083149,1.32431939 19.6756806,2.09168511 20.1986019,3.06946289 C20.7215232,4.04724067 21,5.01709938 21,7.6916556 L21,13.3083444 C21,15.9829006 20.7215232,16.9527593 20.1986019,17.9305371 C19.6756806,18.9083149 18.9083149,19.6756806 17.9305371,20.1986019 C16.9527593,20.7215232 15.9829006,21 13.3083444,21 L7.6916556,21 C5.01709938,21 4.04724067,20.7215232 3.06946289,20.1986019 C2.09168511,19.6756806 1.32431939,18.9083149 0.801398111,17.9305371 C0.278476833,16.9527593 0,15.9829006 0,13.3083444 L0,7.6916556 C0,5.01709938 0.278476833,4.04724067 0.801398111,3.06946289 C1.32431939,2.09168511 2.09168511,1.32431939 3.06946289,0.801398111 C4.04724067,0.278476833 5.01709938,0 7.6916556,0 Z" id="path-4"></path>
        <filter x="-21.4%" y="-21.4%" width="142.9%" height="142.9%" filterUnits="objectBoundingBox" id="filter-5">
            <feGaussianBlur stdDeviation="3" in="SourceAlpha" result="shadowBlurInner1"></feGaussianBlur>
            <feOffset dx="0" dy="-3" in="shadowBlurInner1" result="shadowOffsetInner1"></feOffset>
            <feComposite in="shadowOffsetInner1" in2="SourceAlpha" operator="arithmetic" k2="-1" k3="1" result="shadowInnerInner1"></feComposite>
            <feColorMatrix values="0 0 0 0 0   0 0 0 0 0.215381567   0 0 0 0 0.0659888455  0 0 0 0.5 0" type="matrix" in="shadowInnerInner1"></feColorMatrix>
        </filter>
    </defs>
    <g id="页面-1" stroke="none" stroke-width="1" fill="none" fill-rule="evenodd">
        <g id="控制中心-UOS-ID-系统配置展开" transform="translate(-1275, -514)">
            <g id="控制中心" transform="translate(1032, 90)">
                <g id="账号与安全" transform="translate(230, 340)">
                    <g id="DTK/列表/信息列表/单行Light" transform="translate(0, 76)">
                        <g id="编组" transform="translate(15.5, 9.5)" filter="url(#filter-1)">
                            <g id="矩形">
                                <use fill="url(#linearGradient-2)" fill-rule="evenodd" xlink:href="#path-4"></use>
                                <use fill="black" fill-opacity="1" filter="url(#filter-5)" xlink:href="#path-4"></use>
                                <path stroke="url(#linearGradient-3)" stroke-width="0.5" d="M13.3083444,0.25 C15.9121013,0.25 16.8598001,0.51226845 17.8126374,1.02185141 C18.7462036,1.5211281 19.4788719,2.25379636 19.9781486,3.1873626 C20.4877316,4.1401999 20.75,5.08789869 20.75,7.6916556 L20.75,13.3083444 C20.75,15.9121013 20.4877316,16.8598001 19.9781486,17.8126374 C19.4788719,18.7462036 18.7462036,19.4788719 17.8126374,19.9781486 C16.8598001,20.4877316 15.9121013,20.75 13.3083444,20.75 L7.6916556,20.75 C5.08789869,20.75 4.1401999,20.4877316 3.1873626,19.9781486 C2.25379636,19.4788719 1.5211281,18.7462036 1.02185141,17.8126374 C0.51226845,16.8598001 0.25,15.9121013 0.25,13.3083444 L0.25,7.6916556 C0.25,5.08789869 0.51226845,4.1401999 1.02185141,3.1873626 C1.5211281,2.25379636 2.25379636,1.5211281 3.1873626,1.02185141 C4.1401999,0.51226845 5.08789869,0.25 7.6916556,0.25 Z" stroke-linejoin="square"></path>
                            </g>
                            <path d="M8.28515625,3.984375 C11.0546985,3.984375 13.3596543,5.6399249 13.8493309,7.82684552 C13.76128,7.82218261 13.6734376,7.8203125 13.5851092,7.8203125 C10.7301752,7.8203125 8.3828125,9.77401812 8.3828125,12.2340253 C8.3828125,12.6384553 8.44625704,13.0292011 8.56497108,13.399831 C8.47266215,13.404342 8.37917691,13.40625 8.28515625,13.40625 C7.59892766,13.40625 6.9412216,13.3046102 6.33258463,13.1184314 C6.01908078,13.0225322 4.80815728,14.0974196 4.52349937,13.9589978 C4.26216701,13.8319187 4.92461271,12.4946885 4.69213193,12.3355481 C3.42994581,11.4715423 2.625,10.1616656 2.625,8.6953125 C2.625,6.09353356 5.15913827,3.984375 8.28515625,3.984375 Z M6.421875,6.421875 C5.98177309,6.421875 5.625,6.77864809 5.625,7.21875 C5.625,7.65885191 5.98177309,8.015625 6.421875,8.015625 C6.86197691,8.015625 7.21875,7.65885191 7.21875,7.21875 C7.21875,6.77864809 6.86197691,6.421875 6.421875,6.421875 Z M10.21875,6.421875 C9.77864809,6.421875 9.421875,6.77864809 9.421875,7.21875 C9.421875,7.65885191 9.77864809,8.015625 10.21875,8.015625 C10.6588519,8.015625 11.015625,7.65885191 11.015625,7.21875 C11.015625,6.77864809 10.6588519,6.421875 10.21875,6.421875 Z" id="形状结合" fill="#FFFFFF"></path>
                            <path d="M13.5851092,8.3203125 C16.182116,8.3203125 18.287406,10.0725414 18.287406,12.2340253 C18.287406,13.4522297 17.6186799,14.5404381 16.5700916,15.2582295 C16.3769532,15.3904387 16.9272942,16.5013716 16.7101867,16.6069453 C16.473701,16.7219422 15.4677003,15.8289563 15.2072502,15.9086266 C14.7016119,16.0632987 14.1552084,16.1477381 13.5851092,16.1477381 C10.9881025,16.1477381 8.8828125,14.3955092 8.8828125,12.2340253 C8.8828125,10.0725414 10.9881025,8.3203125 13.5851092,8.3203125 Z M11.9765625,10.3125 C11.6011815,10.3125 11.296875,10.6168065 11.296875,10.9921875 C11.296875,11.3675685 11.6011815,11.671875 11.9765625,11.671875 C12.3519435,11.671875 12.65625,11.3675685 12.65625,10.9921875 C12.65625,10.6168065 12.3519435,10.3125 11.9765625,10.3125 Z M15.1171875,10.3125 C14.7418065,10.3125 14.4375,10.6168065 14.4375,10.9921875 C14.4375,11.3675685 14.7418065,11.671875 15.1171875,11.671875 C15.4925685,11.671875 15.796875,11.3675685 15.796875,10.9921875 C15.796875,10.6168065 15.4925685,10.3125 15.1171875,10.3125 Z" id="形状结合" fill="#FFFFFF"></path>
                        </g>
                    </g>
                </g>
            </g>
        </g>
    </g>
</svg>