<?xml version="1.0" encoding="UTF-8"?>
<svg width="40px" height="40px" viewBox="0 0 40 40" version="1.1" xmlns="http://www.w3.org/2000/svg" xmlns:xlink="http://www.w3.org/1999/xlink">
    <title>插图-等待</title>
    <g id="插图-等待" stroke="none" stroke-width="1" fill="none" fill-rule="evenodd">
        <g id="编组" transform="translate(3, 2)" fill="#D8D8D8">
            <path d="M29,26.2 L21.4687497,18.346039 L21.1369702,18 L21.4687497,17.653961 L29,9.799 L29,2 L5,2 L5,9.789 L13.0790548,17.6414605 L13.4479274,18 L13.0790548,18.3585395 L5,26.21 L5,34 L4,34 L4,25.7887205 L4.15150408,25.6414605 L12.013,18 L4.15150408,10.3585395 L4,10.2112795 L4,2 L1,2 C0.44771525,2 0,1.55228475 0,1 C0,0.44771525 0.44771525,1.11022302e-16 1,0 L33,0 C33.5522847,0 34,0.44771525 34,1 C34,1.55228475 33.5522847,2 33,2 L30,2 L30,10.2009725 L29.8609113,10.346039 L22.523,18 L29.8609113,25.653961 L30,25.7990275 L30,34 L33,34 C33.5522847,34 34,34.4477153 34,35 C34,35.5522847 33.5522847,36 33,36 L1,36 C0.44771525,36 0,35.5522847 0,35 C0,34.4477153 0.44771525,34 1,34 L29,34 L29,26.2 Z M22.5,28 C23.3284271,28 24,28.6715729 24,29.5 C24,30.3284271 23.3284271,31 22.5,31 L11.5,31 C10.6715729,31 10,30.3284271 10,29.5 C10,28.6715729 10.6715729,28 11.5,28 L22.5,28 Z M17.5,12 C18.3284271,12 19,12.6715729 19,13.5 L19,19.5 C19,20.3284271 18.3284271,21 17.5,21 C16.6715729,21 16,20.3284271 16,19.5 L16,13.5 C16,12.6715729 16.6715729,12 17.5,12 Z" id="形状结合"></path>
        </g>
    </g>
</svg>