<?xml version="1.0" encoding="utf-8"?>
<!-- Generator: Adobe Illustrator 17.0.2, SVG Export Plug-In . SVG Version: 6.00 Build 0)  -->
<!DOCTYPE svg PUBLIC "-//W3C//DTD SVG 1.1//EN" "http://www.w3.org/Graphics/SVG/1.1/DTD/svg11.dtd">
<svg version="1.1"
	 id="svg3978" xmlns:cc="http://creativecommons.org/ns#" xmlns:rdf="http://www.w3.org/1999/02/22-rdf-syntax-ns#" xmlns:svg="http://www.w3.org/2000/svg" xmlns:dc="http://purl.org/dc/elements/1.1/"
	 xmlns="http://www.w3.org/2000/svg" xmlns:xlink="http://www.w3.org/1999/xlink" x="0px" y="0px" width="22px" height="22px"
	 viewBox="0 0 22 22" enable-background="new 0 0 22 22" xml:space="preserve">
<g id="path3883">
	<g opacity="0.4">
		<path d="M19.031,4L19,20h2.031V4H19.031z M15,9v11h2l0.031-11H15z M0.469,12L0,13l3,3v4h1v-4l3-3l-0.375-1H0.469z M1.375,13H3
			v1.625L1.375,13z M4,13h1.625L4,14.625V13z M11.031,13L11,20h2.062v-7H11.031z M7,17v3h2.062v-3H7z"/>
	</g>
	<g>
		<path fill="#DCDCDC" d="M19.031,3L19,19h2.031V3H19.031z M15,8v11h2l0.031-11H15z M0.469,11L0,12l3,3v4h1v-4l3-3l-0.375-1H0.469z
			 M1.375,12H3v1.625L1.375,12z M4,12h1.625L4,13.625V12z M11.031,12L11,19h2.062v-7H11.031z M7,16v3h2.062v-3H7z"/>
	</g>
</g>
</svg>
