<?xml version="1.0" encoding="UTF-8"?>
<svg width="24px" height="24px" viewBox="0 0 24 24" version="1.1" xmlns="http://www.w3.org/2000/svg" xmlns:xlink="http://www.w3.org/1999/xlink">
    <!-- Generator: Sketch 46.2 (44496) - http://www.bohemiancoding.com/sketch -->
    <title>nav_keyboard</title>
    <desc>Created with Sketch.</desc>
    <defs></defs>
    <g id="UI" stroke="none" stroke-width="1" fill="none" fill-rule="evenodd">
        <g id="nav_keyboard" fill="#FFFFFF">
            <path d="M21.5,5 C22.327,5 23,5.673 23,6.5 L23,18.5 C23,19.327 22.327,20 21.5,20 L2.5,20 C1.673,20 1,19.327 1,18.5 L1,6.5 C1,5.673 1.673,5 2.5,5 L21.5,5 Z M22,11 L22,10 L18,10 L18,6 L17,6 L17,10 L14,10 L14,6 L13,6 L13,10 L10,10 L10,6 L9,6 L9,10 L6,10 L6,6 L5,6 L5,10 L2,10 L2,11 L6,11 L6,15 L2,15 L2,16 L5,16 L5,19 L6,19 L6,16 L18,16 L18,19 L19,19 L19,16 L22,16 L22,15 L17,15 L17,11 L22,11 Z M12,14.9999 L12,10.9999 L16,10.9999 L16,14.9999 L12,14.9999 Z M7,14.9999 L7,10.9999 L11,10.9999 L11,14.9999 L7,14.9999 Z" id="Combined-Shape"></path>
        </g>
    </g>
</svg>