<?xml version="1.0" encoding="UTF-8" standalone="no"?>
<svg width="48px" height="48px" viewBox="0 0 48 48" version="1.1" xmlns="http://www.w3.org/2000/svg" xmlns:xlink="http://www.w3.org/1999/xlink">
    <!-- Generator: Sketch 40.2 (33826) - http://www.bohemiancoding.com/sketch -->
    <title>中雪</title>
    <desc>Created with Sketch.</desc>
    <defs></defs>
    <g id="Page-1" stroke="none" stroke-width="1" fill="none" fill-rule="evenodd">
        <g id="中雪" fill="#FFFFFF">
            <path d="M33.2513237,9.88487547 C32.7710498,9.88487547 32.2920498,9.93831437 31.8238783,10.0445324 C30.3263665,6.41860465 26.8319599,4 23.0509176,4 C18.3328954,4 14.4091723,7.47484744 13.6282495,12.3008412 L13.5951272,12.3008412 C10.509654,12.3008412 8,14.9252845 8,18.1507505 C8,21.3762164 10.509654,24 13.5951272,24 L33.2513237,24 C36.9724909,24 40,20.8339106 40,16.9427676 C40,13.0509649 36.9724909,9.88487547 33.2513237,9.88487547 L33.2513237,9.88487547 Z" id="Fill-2"></path>
            <polyline id="Fill-1" points="34.1324483 36.6878926 34.0588799 36.225313 31.8207354 36.5136485 30.0192817 35.5780494 31.8204578 34.642699 34.0588799 34.9310345 34.1324483 34.4687034 32.5489236 34.2643829 35 32.991481 34.7404285 32.586817 32.2890745 33.8599675 32.884562 32.52393 32.4023421 32.350183 31.5608864 34.238035 29.8013527 35.1517603 29.8013527 33.3026845 31.1980415 31.7031681 30.7896676 31.4143354 29.8013527 32.5463009 29.8013527 30 29.2819322 30 29.2819322 32.5463009 28.2933397 31.4143354 27.8852434 31.7031681 29.2819322 33.3026845 29.2819322 35.1950106 27.4391136 34.238035 26.5973803 32.350183 26.1151604 32.5241786 26.7106479 33.8599675 24.2595715 32.586817 24 32.991481 26.4510764 34.2643829 24.8672741 34.4687034 24.9411201 34.9310345 27.1792646 34.642699 28.9807183 35.5780494 27.178987 36.5136485 24.9411201 36.225313 24.8672741 36.6878926 26.4510764 36.8919646 24 38.1648665 24.2595715 38.5695304 26.7109255 37.29638 26.1151604 38.6324174 26.5973803 38.8061644 27.438836 36.9183125 29.2819322 35.9613368 29.2819322 37.846206 27.8852434 39.4462196 28.2936173 39.7345551 29.2819322 38.6028382 29.2819322 41 29.8013527 41 29.8013527 38.6028382 30.7896676 39.7345551 31.1980415 39.4462196 29.8013527 37.8464546 29.8013527 36.0045872 31.5608864 36.9183125 32.4023421 38.8061644 32.884562 38.6324174 32.2890745 37.29638 34.7404285 38.5695304 35 38.1648665 32.5489236 36.8919646 34.1324483 36.6878926"></polyline>
            <polyline id="Fill-1" points="23.1324483 30.6878926 23.0588799 30.225313 20.8207354 30.5136485 19.0192817 29.5780494 20.8204578 28.642699 23.0588799 28.9310345 23.1324483 28.4687034 21.5489236 28.2643829 24 26.991481 23.7404285 26.586817 21.2890745 27.8599675 21.884562 26.52393 21.4023421 26.350183 20.5608864 28.238035 18.8013527 29.1517603 18.8013527 27.3026845 20.1980415 25.7031681 19.7896676 25.4143354 18.8013527 26.5463009 18.8013527 24 18.2819322 24 18.2819322 26.5463009 17.2933397 25.4143354 16.8852434 25.7031681 18.2819322 27.3026845 18.2819322 29.1950106 16.4391136 28.238035 15.5973803 26.350183 15.1151604 26.5241786 15.7106479 27.8599675 13.2595715 26.586817 13 26.991481 15.4510764 28.2643829 13.8672741 28.4687034 13.9411201 28.9310345 16.1792646 28.642699 17.9807183 29.5780494 16.178987 30.5136485 13.9411201 30.225313 13.8672741 30.6878926 15.4510764 30.8919646 13 32.1648665 13.2595715 32.5695304 15.7109255 31.29638 15.1151604 32.6324174 15.5973803 32.8061644 16.438836 30.9183125 18.2819322 29.9613368 18.2819322 31.846206 16.8852434 33.4462196 17.2936173 33.7345551 18.2819322 32.6028382 18.2819322 35 18.8013527 35 18.8013527 32.6028382 19.7896676 33.7345551 20.1980415 33.4462196 18.8013527 31.8464546 18.8013527 30.0045872 20.5608864 30.9183125 21.4023421 32.8061644 21.884562 32.6324174 21.2890745 31.29638 23.7404285 32.5695304 24 32.1648665 21.5489236 30.8919646 23.1324483 30.6878926"></polyline>
        </g>
    </g>
</svg>