<svg xmlns="http://www.w3.org/2000/svg" width="84" height="102" viewBox="0 0 84 102">
  <path fill-opacity=".2" d="M56.9776038,77.1937197 C57.5001301,77.3725624 57.7787407,77.9411343 57.599898,78.4636606 C57.207356,79.6105541 56.7828555,80.7390817 56.3266884,81.8484395 C55.9873775,82.6736134 55.6305865,83.4880824 55.2564483,84.2915226 C52.7049933,89.7706256 49.3540158,94.7214268 45.2577089,99.0517308 C44.2401929,100.127078 43.0851853,101.066781 41.8236425,101.849679 C41.3543777,102.140899 40.7378831,101.996565 40.4466633,101.5273 C40.1554434,101.058035 40.2997773,100.441541 40.7690421,100.150321 C41.8851687,99.4576667 42.9062363,98.6269355 43.804878,97.6772192 C47.7525341,93.5040574 50.9822236,88.7324494 53.4433903,83.4472355 C53.804648,82.6714554 54.1492161,81.8848883 54.4769642,81.0878343 C54.9177862,80.0157944 55.3281165,78.9249379 55.7076629,77.8160139 C55.8865056,77.2934876 56.4550775,77.014877 56.9776038,77.1937197 Z M63.3313067,52.3116586 C63.8832521,52.2923011 64.3463846,52.724049 64.365742,53.2759944 C64.4069579,54.4511968 64.4231975,55.6260733 64.4131644,56.7989134 C64.3314147,66.2760058 62.6202767,75.1362215 59.3419338,83.1009777 C58.8648949,84.2599467 58.3550133,85.3991124 57.8126257,86.5176704 C55.1684927,91.9706272 51.7589662,96.9192525 47.6340826,101.279888 C47.2545546,101.681108 46.6216339,101.698692 46.2204145,101.319164 C45.8191951,100.939636 45.8016108,100.306715 46.1811387,99.9054959 C50.1649107,95.6940369 53.4577503,90.9147723 56.0130331,85.6450499 C56.5376307,84.5631801 57.0308876,83.461157 57.4924744,82.3397287 C60.6712636,74.6168388 62.3336426,66.0090956 62.4132382,56.7817334 C62.4230187,55.638429 62.4071806,54.4926086 62.3669709,53.3460939 C62.3476135,52.7941484 62.7793613,52.331016 63.3313067,52.3116586 Z M41.7928408,25.9974827 C47.9780087,25.9974827 53.5160915,30.1179793 55.2700055,36.0272573 L55.3979771,36.4784616 C55.4943571,36.8306511 55.611928,37.2846651 55.7450494,37.8348104 C56.0623724,39.1461978 56.3742372,40.6268117 56.6606032,42.2539371 C57.4666077,46.8336372 57.9288291,51.7236754 57.8855819,56.7427517 C57.8094348,65.5868 56.1867236,73.8156062 53.0789246,81.1542032 C52.7043402,82.0387274 52.3084119,82.9097637 51.8913287,83.7668622 C49.5401039,88.5985881 46.5226661,92.9750076 42.8818834,96.8239516 C40.7125846,99.1155289 37.8054676,100.617336 34.6763167,101.075154 C34.1298498,101.155107 33.6220368,100.776922 33.5420846,100.230455 C33.4621323,99.6839879 33.8403172,99.1761749 34.3867841,99.0962227 C37.0729977,98.7032094 39.570031,97.4132501 41.4291878,95.4492969 C44.9290761,91.7493029 47.8303194,87.541409 50.0929545,82.8917335 C50.4947488,82.0660534 50.8762461,81.2267652 51.2372611,80.374283 C54.240081,73.2835784 55.8117112,65.3138051 55.8856561,56.7255258 C55.927779,51.8369212 55.476878,47.0666459 54.690876,42.6005993 C54.4468869,41.2142582 54.1842464,39.938846 53.9162796,38.789835 L53.8011494,38.3051856 C53.6096465,37.5137693 53.4537553,36.9373919 53.3525619,36.5959487 C51.8510286,31.5369906 47.0938136,27.9974827 41.7928408,27.9974827 C40.6411775,27.9974827 39.4960325,28.1618171 38.3888695,28.4859752 C36.0287012,29.1769688 33.9820248,30.5442684 32.4571162,32.4039325 C32.1069259,32.8309983 31.4768354,32.8933182 31.0497696,32.5431279 C30.6227037,32.1929377 30.5603838,31.5628471 30.9105741,31.1357813 C32.6886856,28.9673299 35.0773966,27.3715312 37.8269042,26.5665495 C39.1165206,26.1889722 40.4508928,25.9974827 41.7928408,25.9974827 Z M41.7928408,16.2480553 C50.5297889,16.2480553 58.6343467,21.1172387 62.7841181,28.744673 C63.5644763,30.1790005 64.1937947,31.6918942 64.6605551,33.2646888 L64.7911204,33.7229879 C64.904864,34.1352801 65.0459808,34.6767082 65.2069345,35.3392137 C65.5726351,36.8444828 65.9321644,38.5399994 66.2624042,40.3982663 C67.1921409,45.6299152 67.7258602,51.1791258 67.677105,56.8265251 C67.6206936,63.3779059 66.8164682,69.6577601 65.2792085,75.5811172 C64.9495611,76.8513121 64.5863626,78.104502 64.1898576,79.3398694 C63.5381274,81.3704269 62.7966524,83.352087 61.9667234,85.2813069 C61.6860047,85.9338542 61.3951956,86.5803335 61.0943522,87.2206113 C58.8867024,91.9191003 56.1423955,96.2758567 52.8885991,100.242081 C52.5383105,100.669066 51.9082057,100.731241 51.4812204,100.380952 C51.0542352,100.030664 50.9920603,99.400559 51.3423489,98.9735737 C54.4907913,95.1357711 57.1466085,90.9194976 59.2842099,86.370091 C59.5756893,85.7497423 59.8574746,85.1233233 60.129511,84.4909584 C60.9341281,82.6205777 61.6532333,80.698703 62.2855413,78.7286577 C62.6704711,77.5293546 63.023154,76.3124481 63.3433398,75.0787108 C64.8387882,69.3164606 65.6221558,63.1994754 65.6771793,56.8092819 C65.7247929,51.2941203 65.2026731,45.8655127 64.2932575,40.748211 C64.0108718,39.1592201 63.7069001,37.69355 63.3967312,36.3699014 L63.2634672,35.8113732 C63.0415783,34.8980511 62.8607543,34.2305555 62.7430577,33.8331985 C62.3164291,32.3956325 61.7410171,31.0123307 61.027297,29.7004867 C57.2259445,22.7134593 49.7934612,18.2480553 41.7928408,18.2480553 C39.705372,18.2480553 37.6308652,18.5457995 35.6264232,19.1331542 C24.4504922,22.4041957 17.7963149,33.9406222 20.5641889,45.1533754 C20.6965477,45.6895653 20.3691779,46.2315311 19.832988,46.3638898 C19.2967981,46.4962486 18.7548323,46.1688788 18.6224736,45.6326889 C15.5975986,33.3788161 22.8614564,20.7853794 35.064319,17.2137692 C37.2511145,16.5729801 39.5149994,16.2480553 41.7928408,16.2480553 Z M67.783344,74.9358225 C68.318408,75.0726615 68.6412333,75.6173465 68.5043943,76.1524106 C68.0477987,77.9377783 67.5278582,79.6916281 66.9452009,81.4119055 C66.6097221,82.4023963 66.2534979,83.3816206 65.8766659,84.3491939 C63.9881847,89.1981561 61.5850689,93.7470092 58.6892744,97.9502802 C58.3759451,98.4050803 57.7532531,98.5197652 57.2984529,98.2064359 C56.8436528,97.8931066 56.7289679,97.2704146 57.0422972,96.8156145 C59.8497915,92.740512 62.1803847,88.3289369 64.0130169,83.6233755 C64.3789862,82.6836939 64.7249949,81.7325508 65.050906,80.7703085 C65.6172071,79.0983223 66.1227032,77.3931957 66.5667559,75.6568728 C66.7035949,75.1218088 67.2482799,74.7989836 67.783344,74.9358225 Z M34.6277818,49.370531 C34.9175084,51.7807984 35.0656973,54.2444833 35.0364746,56.7150094 C34.9164053,66.9223328 31.96528,75.1845787 26.2488688,81.2270657 C24.6383578,82.9297541 23.7923334,85.1491788 23.8627853,87.4854865 C23.933246,89.8231542 24.9111365,91.9880832 26.6211683,93.5910869 C28.2594783,95.1274805 30.399108,95.9727281 32.6502866,95.9727281 C35.0631114,95.9727281 37.3986944,94.9687302 39.0529229,93.2209949 C41.3927147,90.747465 43.4482487,88.0267963 45.2054664,85.0807356 C45.7153553,84.2258822 46.1999504,83.3523449 46.6589478,82.460709 C47.9420748,79.9681419 49.0240985,77.3361995 49.8992974,74.5785452 C50.0663644,74.0521356 50.6285383,73.7608309 51.1549479,73.927898 C51.6813575,74.094965 51.9726622,74.6571388 51.8055952,75.1835484 C50.8967397,78.0472509 49.7720179,80.7830533 48.4371649,83.376102 C47.9591602,84.3046607 47.4543745,85.2145939 46.9231264,86.1052571 C45.0910035,89.1769 42.9467822,92.0149537 40.5056644,94.595601 C38.4732715,96.7428769 35.6122899,97.9727281 32.6502866,97.9727281 C29.8911858,97.9727281 27.2623089,96.9342064 25.2532071,95.0500873 C23.1554266,93.0836034 21.9501874,90.4153526 21.8636936,87.5457558 C21.7771952,84.6773171 22.8199851,81.941706 24.7959349,79.8526629 C30.1442117,74.1993094 32.9221533,66.4219249 33.0366138,56.6914195 C33.0647473,54.3129722 32.9217812,51.9361184 32.6420763,49.6092231 C32.5761633,49.0608856 32.9672456,48.5629373 33.515583,48.4970243 C34.0639204,48.4311113 34.5618688,48.8221935 34.6277818,49.370531 Z M30.6406777,33.1647675 C31.1311319,33.4186832 31.3228842,34.0221141 31.0689686,34.5125683 C29.7243324,37.1098187 29.3665649,40.0947199 30.1099815,42.9702743 L30.2086522,43.3291131 C30.4430249,44.1906252 30.7595767,45.6118659 31.0573298,47.4425606 C31.5390058,50.4040811 31.8099947,53.5243487 31.7728325,56.6769892 C31.7049328,62.4471634 30.6733535,67.5221408 28.6826081,71.8439183 C28.0498879,73.2175123 27.3208199,74.5137637 26.4961671,75.7307524 C25.8394492,76.6999098 25.1224254,77.6183372 24.3457776,78.485056 L23.8726396,78.9988744 C21.6643645,81.3338199 20.503615,84.3788663 20.6000361,87.5829992 C20.6669389,89.7972057 21.3284828,91.9104432 22.5196832,93.7377248 C22.8212889,94.2003829 22.6907301,94.819941 22.228072,95.1215467 C21.765414,95.4231523 21.1458558,95.2925936 20.8442502,94.8299355 C19.4522493,92.6946293 18.6789322,90.2243433 18.6009448,87.6432797 C18.4923859,84.0358017 19.7541195,80.5916233 22.1578202,77.9089462 L22.4197189,77.6244577 C23.3059573,76.687815 24.1130184,75.6823924 24.8404821,74.6088313 C25.6033329,73.4830473 26.278733,72.2822152 26.8660627,71.0071609 C28.732675,66.9548684 29.7082261,62.1555281 29.7729712,56.6534358 C29.808668,53.6251157 29.5474924,50.6178434 29.0832696,47.7636313 L28.9683205,47.0824308 C28.7185319,45.6549017 28.4674961,44.5476864 28.2836997,43.8715434 C27.2729221,40.4049839 27.6585903,36.749787 29.2928769,33.5930585 C29.5467925,33.1026043 30.1502235,32.9108519 30.6406777,33.1647675 Z M41.7928408,32.4967048 C45.1057404,32.4967048 48.0694601,34.7022092 49.0102951,37.8711506 L49.1432548,38.3422535 C49.2869961,38.8709185 49.4621193,39.573621 49.6599612,40.4625207 C50.0839135,42.3673302 50.463293,44.4931291 50.7588307,46.7978123 C50.8290769,47.3456115 50.4419438,47.8466362 49.8941447,47.9168825 C49.3463455,47.9871287 48.8453207,47.5999956 48.7750745,47.0521964 C48.5195382,45.0594547 48.1998136,43.2056034 47.8431555,41.5208322 L47.7077307,40.8970275 C47.4541845,39.7578494 47.2420327,38.9466767 47.0923473,38.4381346 C46.4044634,36.1211958 44.2214998,34.4967048 41.7928408,34.4967048 C41.2657068,34.4967048 40.7398642,34.5723376 40.2301443,34.7214042 C37.3832573,35.5548748 35.7139469,38.4883356 36.4261165,41.3245016 L36.5722545,41.854537 C36.8061319,42.7288691 37.1344436,44.1959692 37.441894,46.0116318 C38.0178434,49.4129272 38.3441508,53.0412341 38.3004152,56.753029 C38.1704941,67.8024905 34.9196009,76.8014761 28.6252232,83.4545602 C27.6123834,84.5256318 27.0810316,85.919357 27.1252354,87.3882756 C27.1694501,88.8575587 27.7835924,90.2171672 28.8589641,91.2254009 C29.8897405,92.1919803 31.2343041,92.7232953 32.6502866,92.7232953 C34.1674151,92.7232953 35.6370515,92.0915039 36.6766735,90.9928546 C38.5466605,89.0161043 40.2225745,86.8667038 41.696107,84.5572225 C42.4116617,83.4357269 43.0791516,82.2770139 43.6977267,81.0826736 C47.3570016,74.0173729 49.2798529,65.7532294 49.3580733,56.6700098 C49.369736,55.3108914 49.3399514,53.9551619 49.2715969,52.6071372 C49.243628,52.0555611 49.6680955,51.5857471 50.2196716,51.5577782 C50.7712477,51.5298093 51.2410617,51.9542769 51.2690306,52.505853 C51.3393553,53.8927304 51.3700068,55.2879199 51.3579994,56.6872018 C51.277153,66.075354 49.2823656,74.6486689 45.4736685,82.002473 C44.8275655,83.2499638 44.1300946,84.4607217 43.3821515,85.6329798 C41.8407252,88.0488718 40.0868038,90.2983186 38.1294757,92.3673967 C36.711764,93.8656026 34.7166492,94.7232953 32.6502866,94.7232953 C30.7263243,94.7232953 28.8925594,93.9986686 27.4909702,92.6843706 C26.0278472,91.3125939 25.1863636,89.4496895 25.1261403,87.4484338 C25.065925,85.4474412 25.7940163,83.5376723 27.1722227,82.0802278 C33.1006226,75.813978 36.1762628,67.3001202 36.3005537,56.7294896 C36.3427755,53.1461672 36.0270327,49.6353307 35.4699652,46.3455432 C35.2744979,45.1912018 35.0626108,44.146627 34.8491174,43.2305884 L34.6900642,42.5744436 L34.5642565,42.0978201 C33.4000589,38.1379797 35.6911035,33.9663294 39.6684814,32.80189 C40.3604574,32.599523 41.0753079,32.4967048 41.7928408,32.4967048 Z M68.7212804,26.0218987 C69.6278369,27.7428901 70.3650477,29.549766 70.9208988,31.4225261 L71.0020989,31.7028349 C71.134014,32.1681075 71.3102705,32.8332029 71.515003,33.6735612 C71.91291,35.306836 72.3042117,37.1448341 72.6636848,39.1567257 C73.6757943,44.8212786 74.2571135,50.81119 74.2046876,56.8823648 C74.1579276,62.3184912 73.6342544,67.5893973 72.6399594,72.6541532 C72.4238713,73.7548664 72.1856145,74.8455361 71.9252914,75.9257467 C70.3577773,82.430145 67.9934771,88.5416706 64.8650441,94.1736253 C64.5968592,94.6564247 63.988066,94.8304041 63.5052666,94.5622191 C63.0224672,94.2940342 62.8484878,93.6852411 63.1166728,93.2024416 C66.1565081,87.7299846 68.4553575,81.7876444 69.9809557,75.4571755 C70.2346047,74.4046591 70.4667951,73.3417598 70.6774201,72.2688744 C71.6476169,67.3268705 72.1590522,62.1791418 72.2047619,56.8651285 C72.2560378,50.9271254 71.6864697,45.0582966 70.6948647,39.5085031 C70.3869075,37.7849347 70.0554072,36.1932008 69.7171638,34.7542455 L69.4441871,33.6308456 C69.2596507,32.896261 69.1075181,32.3416767 69.003603,31.9917155 C68.4851225,30.2448636 67.797506,28.5595417 66.951771,26.9540128 C66.6943748,26.4653763 66.8818322,25.8605973 67.3704687,25.6032011 C67.8591052,25.3458049 68.4638842,25.5332622 68.7212804,26.0218987 Z M45.8789354,38.7890778 L45.9870893,39.1704939 C46.0691766,39.4710798 46.1701194,39.8623524 46.2832338,40.332731 C46.552152,41.4510098 46.816362,42.7176447 47.0588349,44.1142512 C47.7409053,48.0428702 48.1314982,52.2725771 48.0937605,56.6589814 C48.0473534,62.0473612 47.3381762,67.1511297 45.981385,71.8823807 C45.6242097,73.1278825 45.2224282,74.3465991 44.7765308,75.5369879 C42.6955345,81.0925143 39.6630181,86.0062588 35.7533234,90.1391241 C34.9373015,91.0017747 33.8159906,91.4735357 32.6502866,91.4735357 C31.5723899,91.4735357 30.5297654,91.0700883 29.7290576,90.3189456 C28.0126837,88.7095756 27.9315137,86.0173492 29.5481567,84.3087128 C36.0566082,77.4285926 39.4300676,68.1777032 39.5641959,56.7672119 C39.6092133,52.9483128 39.2744193,49.2260954 38.6826062,45.7525993 C38.5898449,45.2081603 38.956002,44.6916074 39.5004409,44.5988461 C40.0448799,44.5060848 40.5614328,44.8722419 40.6541941,45.4166808 C41.2651544,49.0025567 41.6105923,52.8431128 41.5640573,56.7907531 C41.424281,68.6817346 37.8738748,78.4178572 31.0010039,85.6832073 C30.1460075,86.5868563 30.1888671,88.0084104 31.097233,88.8601461 C31.5233713,89.2599058 32.0754527,89.4735357 32.6502866,89.4735357 C33.2721989,89.4735357 33.8663494,89.223563 34.300407,88.7647028 C38.0241547,84.8283987 40.9151122,80.1440294 42.9036148,74.8354286 C43.3309149,73.694688 43.716173,72.5260913 44.0588752,71.3310583 C45.364714,66.777483 46.0489514,61.8531999 46.0938346,56.6417663 C46.13047,52.383492 45.7508236,48.2723252 45.0883126,44.456365 L44.9446617,43.6561021 C44.5847961,41.7164206 44.2238365,40.2399294 43.9617868,39.358763 C43.6084733,38.1688153 42.3508499,37.4876171 41.1509074,37.8391255 C39.9530029,38.1897946 39.2680311,39.4392789 39.6206891,40.6387161 L39.767276,41.1815048 C39.7901038,41.2704007 39.8151998,41.3698484 39.8437104,41.4845786 C39.9769033,42.0205619 39.650377,42.5630363 39.1143937,42.6962291 C38.5784104,42.8294219 38.035936,42.5028957 37.9027431,41.9669124 L37.7482427,41.3692981 L37.6993131,41.1938969 C37.0370189,38.9416405 38.3313648,36.5805726 40.5888383,35.9197302 C42.8440095,35.2591055 45.2116029,36.5415245 45.8789354,38.7890778 Z M41.7928408,22.7475745 C44.2462908,22.7475745 46.6583991,23.2747254 48.885253,24.2791632 C49.388694,24.5062438 49.6127284,25.0984485 49.3856479,25.6018896 C49.1585673,26.1053306 48.5663626,26.329365 48.0629215,26.1022845 C46.0925249,25.2135235 43.9604611,24.7475745 41.7928408,24.7475745 C40.3293138,24.7475745 38.8742419,24.9564855 37.4679956,25.3685834 C29.507595,27.6984171 24.8603135,35.9521217 26.9795733,43.8968062 L27.0655732,44.2061694 C27.1396427,44.4822521 27.2412772,44.8976621 27.3581006,45.4309303 C27.5361362,46.2436169 27.7088069,47.1485709 27.8655054,48.1317394 C28.3002034,50.8591515 28.5432384,53.7313765 28.5088924,56.6386372 C28.4408756,62.4337361 27.333206,67.4293383 25.1904856,71.5545811 C24.7136231,72.4726541 24.1858444,73.3468892 23.6074858,74.1764601 C23.093909,74.913111 22.5406421,75.6142645 21.9480934,76.2793232 L21.4963229,76.7713401 C18.690427,79.7377868 17.2149186,83.6086475 17.337592,87.6806436 C17.3610508,88.4608399 17.4427089,89.2327672 17.5816018,89.991925 C17.6809962,90.5351921 17.3211661,91.0561722 16.777899,91.1555665 C16.2346318,91.2549608 15.7136517,90.8951308 15.6142574,90.3518636 C15.4572376,89.4936285 15.3649768,88.6214721 15.3384972,87.7408103 C15.2039982,83.2762765 16.7723734,79.0158071 19.7592822,75.704502 L20.043452,75.3968707 C20.7403364,74.660359 21.3815515,73.8721697 21.9668498,73.0326447 C22.4954017,72.2745144 22.9784124,71.4744348 23.4156285,70.6326905 C25.4046126,66.8034264 26.4444959,62.1135408 26.509031,56.615088 C26.5419396,53.8294964 26.3083047,51.0683633 25.8904338,48.4465286 L25.7773382,47.7651278 C25.5498194,46.4478568 25.3175842,45.4090227 25.1391209,44.7431997 C22.5119882,35.662284 27.7869497,26.1181115 36.9058797,23.4492018 C38.4944401,22.9836771 40.1389021,22.7475745 41.7928408,22.7475745 Z M41.7925424,6.49922213 C51.4437234,6.49922213 60.6412915,10.7122122 67.0247279,17.8975027 C67.8052469,18.7760664 68.5390023,19.6942582 69.2225942,20.6483728 C71.239743,23.463783 72.8061455,26.5718369 73.859439,29.8792785 L74.0509032,30.5017376 C74.1927078,30.9795166 74.4085089,31.7744474 74.6688345,32.8420151 C75.0829078,34.5400861 75.490132,36.4498433 75.8642609,38.5388743 C76.9176942,44.4209504 77.5228893,50.6304835 77.4686279,56.9106056 C77.4315128,61.2157091 77.1059681,65.4233231 76.4945692,69.5146543 C76.3286584,70.6248883 76.141732,71.7263295 75.9338681,72.8186038 C74.8926505,78.2899495 73.3274532,83.5240413 71.2524412,88.4750693 C71.0389652,88.9844282 70.4529918,89.2242886 69.943633,89.0108126 C69.4342741,88.7973366 69.1944137,88.2113632 69.4078897,87.7020043 C71.4285462,82.8806696 72.9537276,77.7803928 73.9691287,72.4447066 C74.1720316,71.3785013 74.3545274,70.3031666 74.5165336,69.2190613 C75.1140332,65.2207408 75.4323833,61.106116 75.4687024,56.8933448 C75.5218092,50.7468524 74.9284343,44.6585983 73.8955834,38.8914489 C73.5697073,37.0718482 73.2185255,35.3925413 72.8603696,33.8766035 L72.72577,33.3158298 C72.4734411,32.2810555 72.2662373,31.517794 72.1335681,31.0707947 C71.146611,27.7453777 69.611194,24.6247527 67.5968063,21.8131964 C66.9539377,20.9159206 66.2637874,20.0522946 65.5295489,19.2258248 C59.5221776,12.4638388 50.8668446,8.49922213 41.7925424,8.49922213 C38.7696223,8.49922213 35.7656295,8.93006389 32.8646659,9.77971204 C27.7856243,11.266367 23.2430245,13.9697749 19.5481401,17.6351796 C19.1560548,18.0241366 18.5228949,18.0216006 18.1339379,17.6295153 C17.7449809,17.23743 17.7475168,16.6042701 18.1396021,16.2153131 C22.0689526,12.317313 26.9018705,9.44113003 32.3026715,7.86029488 C35.3860749,6.95721285 38.5793606,6.49922213 41.7925424,6.49922213 Z M42.7488337,39.7105432 L42.8431303,40.0473029 L42.956928,40.479978 C42.9966677,40.6352701 43.0381312,40.8015373 43.0810685,40.978504 C43.3251566,41.9845159 43.5687642,43.1350484 43.7958654,44.4124853 C45.3767045,53.3046528 45.3520902,62.8013808 42.6382091,71.7382244 C42.2683952,72.9560261 41.8503191,74.150428 41.3824605,75.319757 C40.8052203,76.7624656 40.1531577,78.1646321 39.42376,79.52339 C37.793386,82.5605303 35.7853313,85.3655834 33.3773228,87.9109769 C32.9977758,88.3121783 32.3648542,88.3297327 31.9636528,87.9501857 C31.5624514,87.5706388 31.5448971,86.9377172 31.924444,86.5365158 C34.2090222,84.1215948 36.113722,81.4609182 37.661606,78.5774443 C38.3552263,77.2853343 38.9757716,75.9509412 39.5255767,74.5768018 C39.9719331,73.4612137 40.3711157,72.3207884 40.7245022,71.1570826 C43.333262,62.5664046 43.357096,53.3707514 41.8267407,44.762554 C41.6384686,43.7035293 41.4388788,42.7366257 41.2379748,41.8731483 L41.077386,41.2056716 L40.8314772,40.2795283 C40.6743563,39.7500649 40.9761995,39.1934784 41.5056628,39.0363575 C42.0351262,38.8792366 42.5917127,39.1810798 42.7488337,39.7105432 Z M19.0807037,73.1299433 C19.4819501,73.5094427 19.4995796,74.1423622 19.1200803,74.5436086 C16.0044141,77.8378171 14.2347705,82.0592981 14.0779711,86.5546174 C14.0587188,87.1065665 13.5956686,87.5384026 13.0437195,87.5191503 C12.4917704,87.499898 12.0599343,87.0368477 12.0791866,86.4848987 C12.2529844,81.5022479 14.2170236,76.8170368 17.6670384,73.1693199 C18.0465378,72.7680735 18.6794573,72.750444 19.0807037,73.1299433 Z M21.214925,47.987958 C21.7137812,50.6642739 22.016359,53.5872811 21.9810119,56.5625509 C21.9402512,60.0464678 21.4667898,63.1345317 20.5592586,65.8047154 C19.9249775,67.6709287 19.0791521,69.3313896 18.0234238,70.7769485 C17.7255037,71.1848764 17.4110221,71.5754733 17.080138,71.948486 L16.7437924,72.3156279 C13.8720825,75.3517454 11.9632664,79.0686729 11.1899947,83.1034668 C11.0860407,83.64588 10.5620567,84.0013214 10.0196435,83.8973674 C9.47723036,83.7934135 9.12178895,83.2694294 9.22574289,82.7270163 C10.0396234,78.4803331 12.0046044,74.5554513 14.9470474,71.3123516 L15.290888,70.9411939 C15.6882849,70.5211713 16.0607792,70.0732267 16.4083001,69.5973827 C17.3412263,68.319971 18.0948685,66.8404771 18.6656415,65.1611204 C19.5010696,62.7030825 19.9427359,59.8223957 19.9811509,56.5389725 C20.0147907,53.7074134 19.7253102,50.9109309 19.2487888,48.3544391 C19.1475879,47.8115056 19.5056829,47.2893314 20.0486164,47.1881305 C20.5915499,47.0869295 21.1137241,47.4450245 21.214925,47.987958 Z M66.4823831,12.7506774 C67.6154888,13.7657579 68.6850524,14.8486679 69.6842176,15.9929941 C70.4695299,16.8923985 71.2105125,17.8287771 71.904222,18.7988983 C74.2456226,22.0732403 76.0316672,25.7076321 77.1812033,29.5806431 L77.3182616,30.0593632 C77.4371923,30.4871783 77.5837879,31.042809 77.7503153,31.7148371 L77.822882,32.0099423 C78.253058,33.7726328 78.6761457,35.7539987 79.0648815,37.9200618 C80.1594934,44.0193151 80.7885326,50.4485367 80.7325683,56.9382458 C80.6863061,62.2962543 80.2087207,67.5099097 79.3047763,72.5457563 C78.8347933,75.1640168 78.2498741,77.7324243 77.551199,80.2463348 C77.4033113,80.778451 76.8520592,81.0899298 76.319943,80.9420421 C75.7878267,80.7941544 75.476348,80.2429023 75.6242356,79.7107861 C76.3061442,77.2572039 76.8772175,74.7495944 77.336239,72.1923999 C78.2200545,67.2686907 78.6873438,62.1674344 78.7326427,56.9209886 C78.7874512,50.5653209 78.1702937,44.2575396 77.0963321,38.2733505 C76.7574685,36.3851793 76.3922986,34.6415781 76.0198692,33.0667278 L75.8799051,32.4841164 C75.6413358,31.506554 75.4416729,30.7622604 75.3034432,30.2848029 L75.2638398,30.1496044 C74.1779204,26.4909308 72.4904511,23.0571283 70.2773627,19.9622249 C69.6213381,19.0448043 68.9205179,18.159179 68.1776816,17.3084216 C67.2323218,16.2257176 66.2202199,15.2009863 65.1478816,14.2403438 C64.7365216,13.8718314 64.7017868,13.2396199 65.0702992,12.8282599 C65.4388116,12.4168998 66.0710231,12.382165 66.4823831,12.7506774 Z M37.6543412,14.3081694 C37.7621958,14.8498204 37.4105344,15.3763487 36.8688833,15.4842033 C36.1417684,15.6289879 35.4201934,15.8061235 34.7059528,16.0151374 C30.6031398,17.2160723 26.9442651,19.4117753 23.9870185,22.389942 C22.9663582,23.4178227 22.0360352,24.5325643 21.2064717,25.7204165 C16.9379025,31.8325818 15.5602237,39.5100589 17.6201815,46.7803723 L17.725214,47.2215093 C17.7641564,47.3929568 17.8067209,47.5883757 17.8519783,47.8064743 C17.9875268,48.459693 18.118244,49.1799072 18.2363942,49.9556912 C18.5620012,52.0936521 18.7432931,54.3134074 18.7170708,56.5245763 C18.6844735,59.2989078 18.357604,61.7676934 17.7346199,63.9175617 C17.056188,66.2587757 16.0263972,68.2214451 14.6478795,69.7813227 L14.367527,70.0879205 C11.7714008,72.8327173 9.85470218,76.0673178 8.72271976,79.593426 C8.55390608,80.1192781 7.99076824,80.4087149 7.46491618,80.2399012 C6.93906412,80.0710875 6.64962733,79.5079497 6.818441,78.9820976 C8.04205253,75.1705662 10.1131732,71.6753646 12.9146338,68.7134747 C14.2045478,67.3501839 15.1748956,65.5651881 15.8136475,63.3609065 C16.3832526,61.3952449 16.6866266,59.1039171 16.7172102,56.5009693 C16.7420385,54.407339 16.5694214,52.293799 16.259193,50.2568148 L16.1598463,49.6339929 C15.9930363,48.6344989 15.8226998,47.8323582 15.6883341,47.2971841 C13.4700901,39.4699434 14.9588726,31.1733116 19.5667553,24.5752834 C20.4619951,23.2933892 21.4660737,22.0902713 22.5678292,20.9807218 C25.7614183,17.7645406 29.7145502,15.3922528 34.144171,14.095658 C34.9148113,13.8701394 35.6934873,13.6789864 36.4783072,13.5227115 C37.0199583,13.4148569 37.5464866,13.7665183 37.6543412,14.3081694 Z M41.7928408,9.7488332 C51.4381352,9.7488332 60.5451887,14.4104157 66.2635222,22.1170718 C66.5926177,22.560597 66.499854,23.1869299 66.0563287,23.5160253 C65.6128035,23.8451207 64.9864707,23.752357 64.6573752,23.3088318 C59.313316,16.1065889 50.7998306,11.7488332 41.7928408,11.7488332 C39.0820315,11.7488332 36.3877331,12.1353256 33.7854595,12.8974245 C29.8098748,14.0611101 26.1991969,16.0540431 23.1361867,18.732669 C21.9707501,19.7518522 20.8906789,20.865286 19.9063306,22.0607626 C14.0593849,29.161793 11.9450874,38.656104 14.4654823,47.6168221 L14.599425,48.2039525 C14.6245999,48.3210322 14.6510323,48.4474563 14.67847,48.5828227 C14.8005677,49.185202 14.9180099,49.8461149 15.0239586,50.5547925 C15.3149442,52.5011585 15.476764,54.5064667 15.4534287,56.4862611 C15.4210357,59.2417013 15.0794133,61.6168028 14.424322,63.5959587 C13.8531882,65.3214627 13.042626,66.7490029 11.9912677,67.8602697 C9.70835152,70.2735783 7.88760741,73.0250942 6.58846471,76.012151 C6.36819414,76.5186087 5.77906454,76.7506091 5.27260692,76.5303385 C4.7661493,76.310068 4.53414886,75.7209384 4.75441943,75.2144807 C6.14633424,72.0141174 8.09616758,69.0675213 10.5383916,66.4858058 C11.3768818,65.5995368 12.0423834,64.4274733 12.5256278,62.9674998 C13.1106278,61.2001033 13.4234417,59.0252909 13.4535672,56.46272 C13.4755346,54.5989838 13.3221196,52.6978294 13.0459416,50.85051 C12.8697895,49.6722506 12.6774395,48.7232755 12.5315885,48.125647 C9.8400591,38.5587683 12.1047052,28.3893124 18.3623675,20.7894727 C19.4158478,19.5100363 20.5719342,18.3182393 21.8195974,17.2271483 C25.0997968,14.3585888 28.9676033,12.2237322 33.2234843,10.9780017 C36.0081866,10.162477 38.8917612,9.7488332 41.7928408,9.7488332 Z M53.8473049,27.6414149 C55.9810632,29.698635 57.555361,32.2606605 58.3997867,35.1057166 L58.5182304,35.5211832 C58.6221076,35.8978785 58.7521083,36.3973254 58.8991096,37.0040596 C59.2325546,38.3803227 59.5603427,39.9330543 59.8613371,41.6375513 C60.708495,46.4349083 61.194441,51.5441792 61.1492239,56.7706947 C61.0961584,62.920578 60.3278042,68.7977821 58.8586985,74.3174557 C58.7166488,74.85116 58.1688419,75.1686588 57.6351375,75.0266091 C57.1014332,74.8845594 56.7839344,74.3367525 56.9259841,73.8030482 C58.3511261,68.4485534 59.097657,62.738278 59.1492985,56.7534152 C59.1933813,51.6580138 58.7188546,46.6688067 57.8918098,41.9853471 C57.6350155,40.5311507 57.3585668,39.1918935 57.0765237,37.9843874 L56.8387172,37.0017398 C56.6894381,36.4065623 56.5661941,35.9566502 56.4825308,35.6750404 C55.7372698,33.1640922 54.3466874,30.9010467 52.45915,29.0812156 C52.06156,28.6978872 52.0499987,28.0648278 52.4333271,27.6672378 C52.8166554,27.2696478 53.4497149,27.2580865 53.8473049,27.6414149 Z M70.4891825,47.1692175 C70.8094253,50.3816863 70.9690429,53.6210064 70.9410455,56.8544467 C70.8944137,62.2717732 70.3560346,67.5153704 69.3327507,72.5411893 C69.2225632,73.0823706 68.6945246,73.4317601 68.1533433,73.3215727 C67.612162,73.2113853 67.2627725,72.6833466 67.3729599,72.1421653 C68.3703219,67.2436608 68.8955783,62.1278741 68.94112,56.8371807 C68.9684702,53.6784837 68.8123818,50.5107849 68.4990466,47.3676091 C68.4442623,46.8180482 68.8453579,46.3281297 69.3949187,46.2733454 C69.9444796,46.218561 70.4343981,46.6196567 70.4891825,47.1692175 Z M9.19427967,36.7203602 L9.31108034,36.7221911 C9.8618821,36.7626368 10.2756074,37.2419377 10.2351616,37.7927394 C9.9744439,41.3432659 10.3254933,44.9207559 11.3074477,48.439918 L11.4185108,48.9288862 C11.5509993,49.5427456 11.6917046,50.3054938 11.8197847,51.1856433 C12.0716789,52.9166285 12.2105171,54.6940758 12.1897564,56.4482666 C12.1396279,60.701466 11.2828745,63.8694053 9.61524966,65.6316305 C7.68591587,67.6714197 6.05140996,69.9289151 4.74110013,72.3565436 C4.47877713,72.842553 3.87213389,73.0238866 3.38612455,72.7615636 C2.9001152,72.4992406 2.71878159,71.8925973 2.9811046,71.406588 C4.37483274,68.8244092 6.11261167,66.4242784 8.16241267,64.2571252 C9.41075816,62.9379641 10.1451338,60.2225301 10.1898958,56.4246473 C10.2093192,54.7834517 10.0784318,53.1077921 9.84063045,51.4736513 L9.74559687,50.8564906 C9.61704281,50.0660429 9.48338484,49.4098313 9.37182179,48.9418896 C8.33675367,45.2350751 7.96298198,41.4260256 8.24053197,37.6462724 C8.27519978,37.1741566 8.6322917,36.80275 9.08047105,36.7317391 L9.19427967,36.7203602 Z M52.1394895,36.9473275 L52.2600455,37.3723224 C52.3517557,37.7077865 52.4648361,38.1450838 52.5914346,38.6696016 C52.8925889,39.9173322 53.1885805,41.3274674 53.4603104,42.8782987 C54.2248857,47.2419222 54.6632197,51.9107763 54.6219396,56.7148533 C54.5757532,62.0630876 53.9375314,67.1742275 52.7186737,71.9797746 C52.582894,72.5151085 52.038849,72.8390111 51.5035151,72.7032314 C50.9681813,72.5674517 50.6442787,72.0234066 50.7800584,71.4880728 C51.9588392,66.8405355 52.5771857,61.8885642 52.6220138,56.6976254 C52.6621787,52.0233361 52.2350478,47.4738115 51.4903217,43.2234716 C51.2260971,41.7154753 50.9387613,40.346577 50.6472623,39.1388502 L50.4770342,38.4534215 C50.3717822,38.0423334 50.2843026,37.7254144 50.2224281,37.517306 C50.0650329,36.9879241 50.3665877,36.4311813 50.8959695,36.273786 C51.4253514,36.1163908 51.9820943,36.4179456 52.1394895,36.9473275 Z M23.5352497,63.5598723 C24.0709054,63.6943767 24.3961027,64.2376488 24.2615983,64.7733045 C23.806096,66.5873145 23.1930787,68.2637942 22.4231227,69.7978889 C21.9997279,70.6414796 21.5290663,71.4416303 21.0114267,72.1974888 C20.6993661,72.6531604 20.0769962,72.7695801 19.6213245,72.4575195 C19.1656529,72.1454589 19.0492332,71.523089 19.3612938,71.0674174 C19.8275169,70.3866374 20.2523844,69.6643393 20.635626,68.9007515 C21.3384003,67.5005126 21.901149,65.9615077 22.3218175,64.2862209 C22.4563219,63.7505652 22.999594,63.4253678 23.5352497,63.5598723 Z M74.3758851,16.6585538 C77.018398,20.2906718 79.0289716,24.3386998 80.3115182,28.6595982 L80.4410746,29.1107675 C80.568263,29.5658384 80.7265194,30.1638332 80.9078096,30.8954702 L80.9768574,31.1760804 C81.4232202,33.0026286 81.8622219,35.0548479 82.2656085,37.2974685 C83.4015701,43.6128273 84.0544395,50.2628003 83.9965088,56.9661599 C83.957715,61.4644528 83.6249729,65.8668888 83.0008782,70.154387 C82.9213252,70.7009122 82.4137885,71.0794679 81.8672633,70.9999149 C81.3207382,70.9203619 80.9421825,70.4128252 81.0217355,69.8663001 C81.6326604,65.6692775 81.9585646,61.3573122 81.9965834,56.9488944 C82.0533525,50.3799403 81.4124274,43.8516293 80.2971982,37.651532 C79.9013345,35.4507345 79.4709077,33.4386008 79.0340283,31.6508593 L78.779274,30.6360426 C78.6219134,30.0270326 78.4908448,29.5546689 78.3941121,29.2284161 C77.1768232,25.1273709 75.268165,21.2845362 72.758619,17.8351804 C72.4337025,17.3885846 72.532343,16.7631504 72.9789387,16.438234 C73.4255345,16.1133175 74.0509687,16.211958 74.3758851,16.6585538 Z M10.3135668,22.8859434 C10.8048546,23.1382423 10.9985935,23.7410384 10.7462947,24.2323262 C6.79110467,31.9340535 5.80286271,40.7965185 8.14663,49.2529101 L8.24578624,49.7000929 C8.36380659,50.2596026 8.48829006,50.9486682 8.60117544,51.7386079 C8.82229557,53.2859434 8.94396576,54.8645081 8.92557939,56.4106485 C8.88589489,59.8322387 8.24588124,62.3402352 7.23898919,63.404278 C5.70475427,65.0261136 4.33850611,66.7742101 3.15278445,68.6292653 C2.85534274,69.0946113 2.23698115,69.2307246 1.77163517,68.9332829 C1.3062892,68.6358412 1.1701759,68.0174796 1.4676176,67.5521336 C2.72129295,65.5907652 4.16532701,63.7431426 5.78619156,62.0297312 C6.36357668,61.4195739 6.89133655,59.3514619 6.92571735,56.3871601 C6.94277981,54.9523453 6.82881416,53.4737402 6.62128939,52.0215411 C6.48498308,51.0677085 6.33159109,50.2752327 6.20919688,49.7475536 C3.73956374,40.8403478 4.78536431,31.4617024 8.96718398,23.3186713 C9.21948281,22.8273835 9.82227891,22.6336446 10.3135668,22.8859434 Z M5.22047736,51.2590951 C5.50774396,52.9091264 5.68224799,54.6597224 5.6619069,56.3729691 C5.63748875,58.4696047 5.35603594,60.0842076 4.98930784,60.9160352 L4.92742636,61.0473736 L4.86251171,61.1759205 L4.76396351,61.2809275 C3.70167481,62.4128377 2.71444982,63.5987704 1.80548205,64.8342283 C1.47818697,65.2790837 0.852235282,65.3743852 0.40737983,65.0470901 C-0.0374756231,64.7197951 -0.132777133,64.0938434 0.19451795,63.6489879 C0.991376862,62.5659071 1.84515825,61.5193055 2.75383434,60.5119541 L3.189,60.038 L3.21783614,59.9666273 C3.41988285,59.4097248 3.61723974,58.2298766 3.65656173,56.65026 L3.66204519,56.3494516 C3.6807518,54.7738687 3.51792186,53.1403854 3.25011529,51.6021305 C3.15538867,51.0580301 3.51967815,50.5401584 4.06377861,50.4454318 C4.60787908,50.3507052 5.12575075,50.7149947 5.22047736,51.2590951 Z M41.7925424,19.4979635 C50.8497329,19.4979635 58.9624013,25.5337906 61.5301552,34.1851493 L61.6704465,34.6778235 C61.8410997,35.298408 62.0587301,36.1596628 62.3006424,37.2293326 C62.8052443,39.4605434 63.2614948,41.9420221 63.623915,44.6202399 C63.6979759,45.1675364 63.3143427,45.671246 62.7670462,45.7453069 C62.2197497,45.8193679 61.71604,45.4357346 61.6419791,44.8884382 C61.3271022,42.5615562 60.9399513,40.3876425 60.5121685,38.4049674 L60.3499071,37.6705033 C60.0454544,36.3242973 59.7831724,35.3283538 59.6127983,34.7541331 C57.2973395,26.952815 49.9655521,21.4979635 41.7925424,21.4979635 C40.0171119,21.4979635 38.2522806,21.7511657 36.5472424,22.2505621 C26.7842685,25.1083743 21.1222094,35.3336323 23.920236,45.0747941 L23.9860387,45.3338707 C24.045172,45.5737453 24.1146556,45.8732273 24.1915356,46.2297953 C24.3550757,46.9882907 24.5134019,47.8303927 24.6569431,48.743316 C25.054521,51.2719144 25.2765439,53.9252127 25.2449502,56.6007622 C25.2247789,58.2977489 25.1093779,59.9148084 24.8985583,61.4500598 C24.8234241,61.9972099 24.3189629,62.3798544 23.7718127,62.3047202 C23.2246626,62.2295859 22.8420181,61.7251247 22.9171524,61.1779746 C23.1163912,59.7270582 23.2258855,58.192765 23.2450905,56.577069 C23.275261,54.0220429 23.0624114,51.4783701 22.681216,49.0539646 L22.5698444,48.3755406 C22.3645384,47.1768374 22.1559471,46.2302375 21.9919214,45.6049648 C18.8954325,34.8257702 25.1682748,23.4974832 35.9852256,20.3311515 C37.8726867,19.7783245 39.8268155,19.4979635 41.7925424,19.4979635 Z M14.7037579,11.8679739 C15.0966096,12.2561568 15.1003943,12.8893105 14.7122114,13.2821622 C5.76384262,22.3381542 1.7994459,35.3154909 4.43333973,47.7956702 C4.54738516,48.3360516 4.20177154,48.8665694 3.66139011,48.9806148 C3.12100868,49.0946602 2.5904909,48.7490466 2.47644548,48.2086652 C-0.297915018,35.0629127 3.87445618,21.4047776 13.2895696,11.8764274 C13.6777526,11.4835757 14.3109062,11.4797909 14.7037579,11.8679739 Z M41.7928408,29.2470937 C45.26415,29.2470937 48.534245,30.9447988 50.5578952,33.7403323 C50.881742,34.1877043 50.781605,34.8129007 50.3342329,35.1367474 C49.8868609,35.4605942 49.2616646,35.3604572 48.9378178,34.9130852 C47.2873874,32.6331291 44.6176261,31.2470937 41.7928408,31.2470937 C40.9533003,31.2470937 40.1176399,31.3671591 39.3092708,31.6040122 C34.7529094,32.9375272 32.0899613,37.6498762 33.2788759,42.1892852 L33.4281118,42.7401007 L33.5210142,43.1118111 C33.5533692,43.2446797 33.5870512,43.3864505 33.6218785,43.5369346 C33.8186476,44.3871485 34.0146838,45.3520991 34.197477,46.4163202 L34.3124648,47.1111009 C34.399346,47.6565091 34.0276364,48.169081 33.4822282,48.2559622 C32.93682,48.3428434 32.4242482,47.9711338 32.337367,47.4257257 L32.2263421,46.754887 C32.0502172,45.7294883 31.8617664,44.8018753 31.6733806,43.9878849 L31.5781316,43.5863715 L31.4250417,42.9875489 C29.7605777,37.3264446 33.0483434,31.3525076 38.7472024,29.6846167 C39.7378165,29.3943655 40.762835,29.2470937 41.7928408,29.2470937 Z M41.7925424,12.9987413 C49.5682331,12.9987413 56.977659,16.3911605 62.1216619,22.1777273 C63.1278475,23.3096006 64.0371589,24.5225554 64.8388442,25.8043494 C66.1110003,27.8383672 67.1049284,30.0339219 67.7904414,32.3437988 L67.9852788,33.0345395 C68.1314761,33.5744493 68.3085878,34.2714454 68.506433,35.1150547 C68.981321,37.1399713 69.4284011,39.4028943 69.8108666,41.859785 C69.8958179,42.4054972 69.5222975,42.9167509 68.9765853,43.0017022 C68.4308732,43.0866535 67.9196195,42.713133 67.8346682,42.1674209 C67.4602806,39.7624211 67.0229678,37.5489361 66.5592641,35.5717091 L66.2887119,34.4559141 C66.1205838,33.786743 65.9786316,33.2687383 65.873028,32.9125921 C65.2392211,30.7769422 64.3200878,28.7466067 63.143183,26.8648838 C62.4010138,25.6782486 61.558944,24.5549892 60.6268931,23.5065109 C55.8589494,18.142979 48.9915799,14.9987413 41.7925424,14.9987413 C40.9644766,14.9987413 40.1385527,15.0393451 39.3173282,15.1204502 C38.7677173,15.1747304 38.2781669,14.7731855 38.2238866,14.2235747 C38.1696064,13.6739638 38.5711513,13.1844134 39.1207622,13.1301332 C40.0073759,13.0425702 40.8989013,12.9987413 41.7925424,12.9987413 Z M17.1439822,18.7218212 C17.5722398,19.0705531 17.6367081,19.7004275 17.2879762,20.128685 C13.9528484,24.2243635 11.6777771,29.0980906 10.697327,34.2691032 C10.594444,34.8117205 10.0711626,35.1681956 9.52854534,35.0653126 C8.98592804,34.9624297 8.62945294,34.4391483 8.73233592,33.896531 C9.77487853,28.3980351 12.192692,23.2185213 15.7371185,18.8658152 C16.0858503,18.4375576 16.7157247,18.3730893 17.1439822,18.7218212 Z M16.353857,14.8003232 C16.7564844,15.1783571 16.7764214,15.8112081 16.3983875,16.2138355 C14.9941148,17.7094652 13.72284,19.3267601 12.5996971,21.0448414 C12.2975007,21.5071138 11.6777763,21.636881 11.2155039,21.3346846 C10.7532315,21.0324882 10.6234642,20.4127638 10.9256606,19.9504914 C12.1125541,18.1348904 13.456077,16.4256825 14.9403447,14.8448537 C15.3183786,14.4422263 15.9512296,14.4222894 16.353857,14.8003232 Z M41.7925424,-1.42108547e-14 C53.1851637,-1.42108547e-14 64.05276,4.91623584 71.668523,13.3278714 C72.0391983,13.7372835 72.0077959,14.3696693 71.5983838,14.7403446 C71.1889717,15.1110199 70.5565859,15.0796175 70.1859106,14.6702054 C62.9457847,6.67346223 52.6148521,2 41.7925424,2 C38.1459096,2 34.5224656,2.5196106 31.0233901,3.5442834 C26.2358267,4.9456513 21.8361747,7.24869905 18.0025115,10.317898 C17.5713741,10.6630631 16.9420565,10.5933687 16.5968914,10.1622313 C16.2517264,9.73109379 16.3214207,9.10177624 16.7525582,8.75661116 C20.7888046,5.52522568 25.4219093,3.09997452 30.4614288,1.62485652 C34.1429647,0.546751831 37.955675,-1.42108547e-14 41.7925424,-1.42108547e-14 Z M41.7928408,3.24961107 C49.7570026,3.24961107 57.4794292,5.85997483 63.8492939,10.5991856 C64.2923935,10.9288539 64.3843477,11.5553061 64.0546794,11.9984057 C63.7250112,12.4415053 63.098559,12.5334595 62.6554594,12.2037912 C56.6272823,7.71879773 49.3225101,5.24961107 41.7928408,5.24961107 C38.4579515,5.24961107 35.1445389,5.72476236 31.9441572,6.66200357 C26.995616,8.11036418 22.5043163,10.6090021 18.7062101,13.9721572 C18.2927287,14.3382877 17.6607283,14.2999021 17.2945979,13.8864206 C16.9284674,13.4729391 16.966853,12.8409388 17.3803345,12.4748083 C21.3974534,8.91772135 26.1491872,6.27419649 31.3822081,4.74257312 C34.765027,3.75190465 38.2677132,3.24961107 41.7928408,3.24961107 Z"/>
</svg>
