<?xml version="1.0" encoding="UTF-8"?>
<svg width="16px" height="16px" viewBox="0 0 16 16" version="1.1" xmlns="http://www.w3.org/2000/svg" xmlns:xlink="http://www.w3.org/1999/xlink">
    <title>buletooth_icon/microphone</title>
    <g id="buletooth_icon/microphone" stroke="none" stroke-width="1" fill="none" fill-rule="evenodd">
        <g id="ICON-/-Device-/-PC" transform="translate(0.5754, 1.0754)" fill="#000000" fill-rule="nonzero">
            <path d="M7.4246212,5.9246212 C9.08147545,5.9246212 10.4246212,4.58147545 10.4246212,2.9246212 C10.4246212,1.26776695 9.08147545,-0.0753787976 7.4246212,-0.0753787976 C5.76776695,-0.0753787976 4.4246212,1.26776695 4.4246212,2.9246212 C4.4246212,4.58147545 5.76776695,5.9246212 7.4246212,5.9246212 Z M9.39591897,6.3170857 L8.85645012,13.5949309 C8.80091362,14.3446736 8.17641804,14.9246212 7.4246212,14.9246212 C6.67282437,14.9246212 6.04832879,14.3446736 5.99279229,13.5949309 L5.45332344,6.3170857 C6.01474017,6.70044741 6.69350139,6.9246212 7.4246212,6.9246212 C8.15574101,6.9246212 8.83450223,6.70044741 9.39591897,6.3170857 Z M6.9246212,7.9246212 C6.64847883,7.9246212 6.4246212,8.14847883 6.4246212,8.4246212 L6.4246212,9.4246212 C6.4246212,9.70076358 6.64847883,9.9246212 6.9246212,9.9246212 C7.20076358,9.9246212 7.4246212,9.70076358 7.4246212,9.4246212 L7.4246212,8.4246212 C7.4246212,8.14847883 7.20076358,7.9246212 6.9246212,7.9246212 Z" id="形状结合" transform="translate(7.4246, 7.4246) rotate(45) translate(-7.4246, -7.4246)"></path>
        </g>
    </g>
</svg>