<?xml version="1.0" encoding="UTF-8"?>
<svg width="16px" height="16px" viewBox="0 0 16 16" version="1.1" xmlns="http://www.w3.org/2000/svg" xmlns:xlink="http://www.w3.org/1999/xlink">
    <title>buletooth_icon/scaner</title>
    <g id="buletooth_icon/scaner" stroke="none" stroke-width="1" fill="none" fill-rule="evenodd">
        <g id="ICON-/-Device-/-PC" transform="translate(2, 2)" fill="#000000" fill-rule="nonzero">
            <path d="M11.5,8 C11.7761424,8 12,8.22385763 12,8.5 L12,10 C12,11.1045695 11.1045695,12 10,12 L8.5,12 C8.22385763,12 8,11.7761424 8,11.5 C8,11.2238576 8.22385763,11 8.5,11 L10,11 C10.5522847,11 11,10.5522847 11,10 L11,8.5 C11,8.22385763 11.2238576,8 11.5,8 Z M0.5,8 C0.776142375,8 1,8.22385763 1,8.5 L1,10 C1,10.5522847 1.44771525,11 2,11 L3.5,11 C3.77614237,11 4,11.2238576 4,11.5 C4,11.7761424 3.77614237,12 3.5,12 L2,12 C0.8954305,12 -1.3527075e-16,11.1045695 0,10 L0,8.5 C3.38176876e-17,8.22385763 0.223857625,8 0.5,8 Z M10,8 L10,9 C10,9.55228475 9.55228475,10 9,10 L3,10 C2.44771525,10 2,9.55228475 2,9 L2,8 L10,8 Z M11.5,6 C11.7761424,6 12,6.22385763 12,6.5 C12,6.77614237 11.7761424,7 11.5,7 L0.5,7 C0.223857625,7 3.38176876e-17,6.77614237 0,6.5 C-3.38176876e-17,6.22385763 0.223857625,6 0.5,6 L11.5,6 Z M9,2 C9.55228475,2 10,2.44771525 10,3 L10,5 L2,5 L2,3 C2,2.44771525 2.44771525,2 3,2 L9,2 Z M3.5,0 C3.77614237,-5.07265313e-17 4,0.223857625 4,0.5 C4,0.776142375 3.77614237,1 3.5,1 L2,1 C1.44771525,1 1,1.44771525 1,2 L1,3.5 C1,3.77614237 0.776142375,4 0.5,4 C0.223857625,4 3.38176876e-17,3.77614237 0,3.5 L0,2 C-1.3527075e-16,0.8954305 0.8954305,2.02906125e-16 2,0 L3.5,0 Z M10,0 C11.1045695,2.02906125e-16 12,0.8954305 12,2 L12,3.5 C12,3.77614237 11.7761424,4 11.5,4 C11.2238576,4 11,3.77614237 11,3.5 L11,2 C11,1.44771525 10.5522847,1 10,1 L8.5,1 C8.22385763,1 8,0.776142375 8,0.5 C8,0.223857625 8.22385763,-5.07265313e-17 8.5,0 Z" id="形状结合"></path>
        </g>
    </g>
</svg>