<?xml version="1.0" encoding="UTF-8"?>
<svg width="16px" height="16px" viewBox="0 0 16 16" version="1.1" xmlns="http://www.w3.org/2000/svg" xmlns:xlink="http://www.w3.org/1999/xlink">
    <title>buletooth_icon/lan</title>
    <g id="buletooth_icon/lan" stroke="none" stroke-width="1" fill="none" fill-rule="evenodd">
        <g id="ICON-/-Device-/-PC" transform="translate(1.5795, 1.4)" fill="#000000" fill-rule="nonzero">
            <path d="M6.4204961,7.6 C6.97278085,7.6 7.4204961,8.04771525 7.4204961,8.6 C7.4204961,8.9541537 7.23639374,9.265308 6.95867156,9.44298033 L6.958,10.6 L10.4204961,10.6 C10.9727808,10.6 11.4204961,11.0477153 11.4204961,11.6 L11.4204961,12.6 C11.4204961,13.1522847 10.9727808,13.6 10.4204961,13.6 L2.4204961,13.6 C1.86821135,13.6 1.4204961,13.1522847 1.4204961,12.6 L1.4204961,11.6 C1.4204961,11.0477153 1.86821135,10.6 2.4204961,10.6 L5.882,10.6 L5.88232064,9.44298033 C5.60459846,9.265308 5.4204961,8.9541537 5.4204961,8.6 C5.4204961,8.04771525 5.86821135,7.6 6.4204961,7.6 Z M9.9204961,11.6 C9.64435373,11.6 9.4204961,11.8238576 9.4204961,12.1 C9.4204961,12.3761424 9.64435373,12.6 9.9204961,12.6 C10.1966385,12.6 10.4204961,12.3761424 10.4204961,12.1 C10.4204961,11.8238576 10.1966385,11.6 9.9204961,11.6 Z M7.9204961,11.6 C7.64435373,11.6 7.4204961,11.8238576 7.4204961,12.1 C7.4204961,12.3761424 7.64435373,12.6 7.9204961,12.6 C8.19663847,12.6 8.4204961,12.3761424 8.4204961,12.1 C8.4204961,11.8238576 8.19663847,11.6 7.9204961,11.6 Z M5.9204961,11.6 C5.64435373,11.6 5.4204961,11.8238576 5.4204961,12.1 C5.4204961,12.3761424 5.64435373,12.6 5.9204961,12.6 C6.19663847,12.6 6.4204961,12.3761424 6.4204961,12.1 C6.4204961,11.8238576 6.19663847,11.6 5.9204961,11.6 Z M6.4204961,5 C7.59288961,5 8.63438806,5.56042834 9.29170925,6.42800283 L8.43095578,7.28874913 C8.00251443,6.63318448 7.26209309,6.2 6.4204961,6.2 C5.57889911,6.2 4.83847777,6.63318448 4.41003642,7.28874913 L3.54928295,6.42800283 C4.20660414,5.56042834 5.24810259,5 6.4204961,5 Z M6.4204961,2.5 C8.28306762,2.5 9.95066591,3.33477968 11.0695636,4.65061165 L10.2174581,5.50249163 C9.31891071,4.40236122 7.95172603,3.7 6.4204961,3.7 C4.88926617,3.7 3.52208149,4.40236122 2.6235341,5.50249163 L1.77142863,4.65061165 C2.89032629,3.33477968 4.55792458,2.5 6.4204961,2.5 Z M6.4204961,-2.22044605e-16 C8.97358312,-2.22044605e-16 11.2668267,1.1125219 12.8418852,2.87922395 L11.9914192,3.72903261 C10.635,2.17896382 8.64207268,1.2 6.4204961,1.2 C4.199392,1.2 2.2068399,2.17854746 0.85043849,3.7280437 L1.11022302e-15,2.87822249 C1.57503217,1.11210149 3.86789152,-2.22044605e-16 6.4204961,-2.22044605e-16 Z" id="形状结合"></path>
        </g>
    </g>
</svg>