<?xml version="1.0" encoding="UTF-8"?>
<svg width="16px" height="16px" viewBox="0 0 16 16" version="1.1" xmlns="http://www.w3.org/2000/svg" xmlns:xlink="http://www.w3.org/1999/xlink">
    <title>buletooth_icon/phone</title>
    <g id="buletooth_icon/phone" stroke="none" stroke-width="1" fill="none" fill-rule="evenodd">
        <g id="ICON-/-Device-/-PC" transform="translate(3, 1)" fill="#000000" fill-rule="nonzero">
            <path d="M8,0 C9.1045695,-2.02906125e-16 10,0.8954305 10,2 L10,12 C10,13.1045695 9.1045695,14 8,14 L2,14 C0.8954305,14 1.3527075e-16,13.1045695 0,12 L0,2 C-1.3527075e-16,0.8954305 0.8954305,2.02906125e-16 2,0 L8,0 Z M8,1 L2,1 C1.44771525,1 1,1.44771525 1,2 L1,12 C1,12.5522847 1.44771525,13 2,13 L8,13 C8.55228475,13 9,12.5522847 9,12 L9,2 C9,1.44771525 8.55228475,1 8,1 Z M6.5,2 C6.77614237,2 7,2.22385763 7,2.5 C7,2.77614237 6.77614237,3 6.5,3 L3.5,3 C3.22385763,3 3,2.77614237 3,2.5 C3,2.22385763 3.22385763,2 3.5,2 L6.5,2 Z" id="形状结合"></path>
        </g>
    </g>
</svg>