<?xml version="1.0" encoding="UTF-8"?>
<svg width="16px" height="16px" viewBox="0 0 16 16" version="1.1" xmlns="http://www.w3.org/2000/svg" xmlns:xlink="http://www.w3.org/1999/xlink">
    <title>buletooth_icon/camera</title>
    <g id="buletooth_icon/camera" stroke="none" stroke-width="1" fill="none" fill-rule="evenodd">
        <g id="ICON-/-Device-/-PC" transform="translate(1, 2)" fill="#000000" fill-rule="nonzero">
            <path d="M8.38196601,0 C8.76073807,0 9.10700119,0.214002376 9.2763932,0.552786405 L9.7236068,1.4472136 C9.89299881,1.78599762 10.2392619,2 10.618034,2 L13,2 C13.5522847,2 14,2.44771525 14,3 L14,10 C14,10.5522847 13.5522847,11 13,11 L1,11 C0.44771525,11 0,10.5522847 0,10 L0,3 C0,2.44771525 0.44771525,2 1,2 L1,1.5 C1,1.22385763 1.22385763,1 1.5,1 L2.5,1 C2.77614237,1 3,1.22385763 3,1.5 L3,2 L3.38196601,2 C3.76073807,2 4.10700119,1.78599762 4.2763932,1.4472136 L4.7236068,0.552786405 C4.89299881,0.214002376 5.23926193,0 5.61803399,0 L8.38196601,0 Z M8.38196601,1 L5.61803399,1 L5.17082039,1.89442719 C4.83203636,2.57199525 4.13951013,3 3.38196601,3 L1,3 L1,10 L13,10 L13,3 L10.618034,3 C9.86048987,3 9.16796364,2.57199525 8.82917961,1.89442719 L8.38196601,1 Z M7,3 C8.65685425,3 10,4.34314575 10,6 C10,7.65685425 8.65685425,9 7,9 C5.34314575,9 4,7.65685425 4,6 C4,4.34314575 5.34314575,3 7,3 Z M7,4 C5.8954305,4 5,4.8954305 5,6 C5,7.1045695 5.8954305,8 7,8 C8.1045695,8 9,7.1045695 9,6 C9,4.8954305 8.1045695,4 7,4 Z M7,4.5 C7.82842712,4.5 8.5,5.17157288 8.5,6 C8.5,6.82842712 7.82842712,7.5 7,7.5 C6.17157288,7.5 5.5,6.82842712 5.5,6 C5.5,5.17157288 6.17157288,4.5 7,4.5 Z M11.5,4 C11.7761424,4 12,4.22385763 12,4.5 C12,4.77614237 11.7761424,5 11.5,5 C11.2238576,5 11,4.77614237 11,4.5 C11,4.22385763 11.2238576,4 11.5,4 Z" id="形状结合"></path>
        </g>
    </g>
</svg>