<?xml version="1.0" encoding="UTF-8"?>
<svg width="16px" height="16px" viewBox="0 0 16 16" version="1.1" xmlns="http://www.w3.org/2000/svg" xmlns:xlink="http://www.w3.org/1999/xlink">
    <title>buletooth_icon/pen</title>
    <g id="buletooth_icon/pen" stroke="none" stroke-width="1" fill="none" fill-rule="evenodd">
        <g id="ICON-/-Device-/-PC" transform="translate(2.5, 2)" fill="#000000" fill-rule="nonzero">
            <path d="M2.90009062,10.9559896 L0.29944555,11.4807164 C0.164101822,11.5080244 0.0322465255,11.4204441 0.00493850241,11.2851004 C-0.0016457147,11.2524678 -0.00164617191,11.2188488 0.00493715761,11.186216 L0.529673951,8.58515627 L0.529673951,8.58515627 L7.20543524,1.90974952 C7.40070318,1.71449316 7.71728567,1.71450254 7.91254202,1.90977047 C7.91254889,1.90977734 7.91255575,1.9097842 7.91256261,1.90979106 L9.57633108,3.57389237 C9.77157607,3.76917167 9.77154825,4.08575416 9.57626895,4.28099914 C9.57626882,4.28099927 9.5762687,4.28099939 9.57626858,4.28099952 L2.90009062,10.9559896 L2.90009062,10.9559896 Z M11.3391542,1.80981928 L9.67513585,0.146384479 C9.47983939,-0.0488433471 9.1632569,-0.0487877087 8.96802908,0.146508751 C8.96802887,0.14650896 8.96802866,0.14650917 8.96802845,0.14650938 L8.50180192,0.613152599 C8.3066232,0.808400626 8.30662349,1.1248868 8.50180256,1.32013448 L10.1652782,2.98494517 C10.360506,3.18024162 10.6770885,3.18029725 10.872385,2.98506942 C10.8724684,2.984986 10.8725518,2.98490256 10.8726352,2.98481909 L11.3392784,2.51692605 C11.5343874,2.32160925 11.5342754,2.00512397 11.3390282,1.80994535 Z" id="形状"></path>
        </g>
    </g>
</svg>