<?xml version="1.0" encoding="UTF-8"?>
<svg width="16px" height="16px" viewBox="0 0 16 16" version="1.1" xmlns="http://www.w3.org/2000/svg" xmlns:xlink="http://www.w3.org/1999/xlink">
    <title>buletooth_icon/other</title>
    <g id="buletooth_icon/other" stroke="none" stroke-width="1" fill="none" fill-rule="evenodd">
        <g id="ICON-/-Device-/-PC" transform="translate(2, 1)" fill="#000000" fill-rule="nonzero">
            <path d="M6,0 C9.3137085,0 12,2.6862915 12,6 L12,8 C12,11.3137085 9.3137085,14 6,14 C2.6862915,14 0,11.3137085 0,8 L0,6 C0,2.6862915 2.6862915,0 6,0 Z M6,1 C3.23857625,1 1,3.23857625 1,6 L1,8 C1,10.7614237 3.23857625,13 6,13 C8.76142375,13 11,10.7614237 11,8 L11,6 C11,3.23857625 8.76142375,1 6,1 Z M5.51500817,1.99929697 C5.53733026,1.99989951 5.55975024,2.00203256 5.58212549,2.00576949 C5.59467782,2.00804578 5.59945612,2.008986 5.60420946,2.00999374 C5.62288276,2.01396443 5.64233982,2.01936976 5.66163286,2.02606795 L5.69513369,2.0386275 C5.70714083,2.04423822 5.71979685,2.05030114 5.73232683,2.0569691 C5.75084332,2.06603234 5.76795166,2.0764334 5.78434816,2.08778962 L9.2906191,4.59313326 C9.5857979,4.80397527 9.56526811,5.2491121 9.25193551,5.43188945 L6.56091861,6.99911849 L9.25193551,8.56722904 C9.53678333,8.73339027 9.57964535,9.11637752 9.36331213,9.34304705 L9.2906191,9.40598523 L5.7906191,11.9059852 C5.76795166,11.9226851 5.75084332,11.9330862 5.73310361,11.9424516 C5.71979685,11.9488174 5.70714083,11.9548803 5.69438725,11.9603528 C5.68425673,11.9651059 5.6731826,11.9693467 5.66192747,11.9731972 C5.64233982,11.9797487 5.62288276,11.9851541 5.603357,11.9893156 L5.58987563,11.9919443 C5.55975024,11.9970859 5.53733026,11.999219 5.51500817,11.9998215 L5.5,12 L5.42933084,11.9946576 L5.447,11.996 C5.41790713,11.9937156 5.39802202,11.9900048 5.37858701,11.9851568 L5.34050799,11.9731399 L5.3255338,11.9687187 C5.31160605,11.9635324 5.29797185,11.9577431 5.28466293,11.9513825 C5.27853378,11.947452 5.27222885,11.9442802 5.26599191,11.9409794 C5.24925347,11.9330887 5.23314578,11.9233265 5.21766524,11.9127161 C5.21151964,11.9077107 5.20552715,11.9034438 5.1996275,11.8990471 C5.18397333,11.8879864 5.1688722,11.8751651 5.15457983,11.8615048 L5.14062034,11.8475132 C5.12888984,11.835495 5.1179067,11.8229429 5.10756371,11.8098615 C5.09563342,11.7953182 5.08423449,11.7792359 5.07379379,11.762413 C5.07144145,11.7577503 5.06899434,11.7536462 5.0666049,11.7495046 L5.069,11.755 L5.05283171,11.7250671 C5.04636212,11.7122495 5.04042241,11.6990691 5.03504894,11.6855447 C5.03353455,11.6804634 5.03184603,11.6760397 5.03021902,11.6715864 C5.01071045,11.6193094 5,11.5611959 5,11.4991185 L5,7.911 L3.25193551,8.93188945 C3.03991244,9.05556958 2.77445102,9.00565305 2.62035459,8.82550917 L2.56811055,8.75193551 C2.42897041,8.51340956 2.50953853,8.20725069 2.74806449,8.06811055 L4.57891861,6.99911849 L2.74806449,5.93100794 C2.53604141,5.80732782 2.44882453,5.55168228 2.52978314,5.32887467 L2.56811055,5.24718298 L2.62035459,5.17360932 C2.77445102,4.99346544 3.03991244,4.94354892 3.25193551,5.06722904 L5,6.08811849 L5,2.5 C5,2.40604458 5.02453493,2.32116926 5.06634899,2.24910801 L5.07,2.243 L5.08605309,2.21792799 C5.09298484,2.20782415 5.10027243,2.19801387 5.10789225,2.18850929 C5.1179067,2.17617555 5.12888984,2.1636235 5.14046584,2.15164815 L5.15474972,2.13773831 C5.1688722,2.12395338 5.18397333,2.11113214 5.19980412,2.09922908 L5.21759959,2.08727355 C5.23314578,2.07579195 5.24925347,2.06602984 5.2659213,2.05718308 C5.27287214,2.05449789 5.27983512,2.05101352 5.28687444,2.04768928 C5.299336,2.04079794 5.31230244,2.03532674 5.3255338,2.03039976 L5.34050799,2.02597857 C5.3881097,2.00978161 5.4382305,2.00058798 5.48915486,1.99928056 L5.51500817,1.99929697 Z M6,7.82811849 L6,10.5281185 L8.081,9.04211849 L6,7.82811849 Z M6,3.471 L6,6.171 L8.081,4.957 L6,3.471 Z" id="形状结合"></path>
        </g>
    </g>
</svg>