<?xml version="1.0" encoding="UTF-8"?>
<svg width="16px" height="16px" viewBox="0 0 16 16" version="1.1" xmlns="http://www.w3.org/2000/svg" xmlns:xlink="http://www.w3.org/1999/xlink">
    <title>buletooth_icon/pad</title>
    <g id="buletooth_icon/pad" stroke="none" stroke-width="1" fill="none" fill-rule="evenodd">
        <g id="ICON-/-Device-/-PC" transform="translate(1, 3)" fill="#000000" fill-rule="nonzero">
            <path d="M12,0 C13.1045695,-2.02906125e-16 14,0.8954305 14,2 L14,8 C14,9.1045695 13.1045695,10 12,10 L2,10 C0.8954305,10 1.3527075e-16,9.1045695 0,8 L0,2 C-1.3527075e-16,0.8954305 0.8954305,2.02906125e-16 2,0 L12,0 Z M11,1 L2,1 C1.44771525,1 1,1.44771525 1,2 L1,8 C1,8.55228475 1.44771525,9 2,9 L11,9 C11.5522847,9 12,8.55228475 12,8 L12,2 C12,1.44771525 11.5522847,1 11,1 Z M13,4.5 C12.7238576,4.5 12.5,4.72385763 12.5,5 C12.5,5.27614237 12.7238576,5.5 13,5.5 C13.2761424,5.5 13.5,5.27614237 13.5,5 C13.5,4.72385763 13.2761424,4.5 13,4.5 Z" id="形状结合"></path>
        </g>
    </g>
</svg>