<?xml version="1.0" encoding="UTF-8"?>
<svg width="16px" height="16px" viewBox="0 0 16 16" version="1.1" xmlns="http://www.w3.org/2000/svg" xmlns:xlink="http://www.w3.org/1999/xlink">
    <title>buletooth_icon/video</title>
    <g id="buletooth_icon/video" stroke="none" stroke-width="1" fill="none" fill-rule="evenodd">
        <g id="ICON-/-Device-/-PC" transform="translate(3, 1)" fill="#000000" fill-rule="nonzero">
            <path d="M5,6.66133815e-16 C7.76142375,6.66133815e-16 10,2.23857625 10,5 C10,7.76142375 7.76142375,10 5,10 C2.23857625,10 0,7.76142375 0,5 C0,2.23857625 2.23857625,6.66133815e-16 5,6.66133815e-16 Z M5,1 C2.790861,1 1,2.790861 1,5 C1,7.209139 2.790861,9 5,9 C7.209139,9 9,7.209139 9,5 C9,2.790861 7.209139,1 5,1 Z" id="形状结合"></path>
            <path d="M8.26706281,10.0333629 L8.78157109,12.8182444 C8.88195194,13.3613301 8.52306871,13.8829629 7.97998296,13.9833437 C7.92003216,13.9944247 7.85919362,14 7.79822736,14 L2.20177264,14 C1.64948789,14 1.20177264,13.5522847 1.20177264,13 C1.20177264,12.9390337 1.20734795,12.8781952 1.21842891,12.8182444 L1.73293719,10.0333629 C2.67299441,10.6447879 3.79501509,11 5,11 C6.20498491,11 7.32700559,10.6447879 8.26706281,10.0333629 Z" id="路径"></path>
            <path d="M5,3 C5,3.55228475 5.44771525,4 6,4 C6.22516906,4 6.43295626,3.92557939 6.60010663,3.79999313 C6.85101996,4.13369998 7,4.54945191 7,5 C7,6.1045695 6.1045695,7 5,7 C3.8954305,7 3,6.1045695 3,5 C3,3.8954305 3.8954305,3 5,3 Z" id="形状结合"></path>
        </g>
    </g>
</svg>