<?xml version="1.0" encoding="UTF-8"?>
<svg width="16px" height="16px" viewBox="0 0 16 16" version="1.1" xmlns="http://www.w3.org/2000/svg" xmlns:xlink="http://www.w3.org/1999/xlink">
    <title>buletooth_icon/tv</title>
    <g id="buletooth_icon/tv" stroke="none" stroke-width="1" fill="none" fill-rule="evenodd">
        <g id="ICON-/-Device-/-PC" transform="translate(1, 1)" fill="#000000" fill-rule="nonzero">
            <path d="M5.66298516,0.0885911588 L5.73223305,0.146446609 L7.5,1.91421356 L9.26776695,0.146446609 C9.4413333,-0.0271197425 9.71075771,-0.0464048927 9.90562585,0.0885911588 L9.97487373,0.146446609 C10.1484401,0.320012961 10.1677252,0.589437362 10.0327292,0.784305503 L9.97487373,0.853553391 L8.827,2 L11,2 C12.6568542,2 14,3.34314575 14,5 L14,11 C14,12.6568542 12.6568542,14 11,14 L3,14 C1.34314575,14 2.02906125e-16,12.6568542 0,11 L0,5 C-2.02906125e-16,3.34314575 1.34314575,2 3,2 L6.172,2 L5.02512627,0.853553391 C4.82986412,0.658291245 4.82986412,0.341708755 5.02512627,0.146446609 C5.19869262,-0.0271197425 5.46811702,-0.0464048927 5.66298516,0.0885911588 Z M11,3 L3,3 C1.8954305,3 1,3.8954305 1,5 L1,11 C1,12.1045695 1.8954305,13 3,13 L11,13 C12.1045695,13 13,12.1045695 13,11 L13,5 C13,3.8954305 12.1045695,3 11,3 Z M11,4 C11.5522847,4 12,4.44771525 12,5 L12,11 C12,11.5522847 11.5522847,12 11,12 L3,12 C2.44771525,12 2,11.5522847 2,11 L2,5 C2,4.44771525 2.44771525,4 3,4 L11,4 Z M8.14917766,6 L3,6 L3,6.8 L4.82352941,6.8 L4.82352941,10 L5.64705882,10 L5.64705882,6.8 L7.47058824,6.8 L7.47,6.57 L8.66165358,10 L9.60819381,10 L11,6 L10.1234701,6 L9.34775522,8.38030096 C9.22827085,8.7998176 9.15826048,9.09347925 9.13772411,9.26128591 C9.12652245,9.18832649 9.09805156,9.05836753 9.05231145,8.87140903 C9.00657134,8.68445052 8.96223144,8.52074783 8.91929175,8.38030096 L8.14917766,6 Z" id="形状结合"></path>
        </g>
    </g>
</svg>