<?xml version="1.0" encoding="UTF-8"?>
<svg width="16px" height="16px" viewBox="0 0 16 16" version="1.1" xmlns="http://www.w3.org/2000/svg" xmlns:xlink="http://www.w3.org/1999/xlink">
    <title>buletooth_icon/mouse</title>
    <g id="buletooth_icon/mouse" stroke="none" stroke-width="1" fill="none" fill-rule="evenodd">
        <g id="ICON-/-Device-/-PC" transform="translate(-0.1317, -0.1)" fill="#000000" fill-rule="nonzero">
            <path d="M13.131728,8.63172798 L13.131728,9.63172798 C13.131728,12.3931517 10.8931517,14.631728 8.13172798,14.631728 C5.37030423,14.631728 3.13172798,12.3931517 3.13172798,9.63172798 L3.13172798,8.63172798 L13.131728,8.63172798 Z M8.13172798,1.63172798 C10.8931517,1.63172798 13.131728,3.87030423 13.131728,6.63172798 L13.131728,7.63172798 L3.13172798,7.63172798 L3.13172798,6.63172798 C3.13172798,3.87030423 5.37030423,1.63172798 8.13172798,1.63172798 Z M8.13172798,3.63172798 C7.85558561,3.63172798 7.63172798,3.8555856 7.63172798,4.13172798 L7.63172798,6.13172798 C7.63172798,6.40787035 7.85558561,6.63172798 8.13172798,6.63172798 C8.40787036,6.63172798 8.63172798,6.40787035 8.63172798,6.13172798 L8.63172798,4.13172798 C8.63172798,3.8555856 8.40787036,3.63172798 8.13172798,3.63172798 Z" id="形状结合" transform="translate(8.1317, 8.1317) rotate(45) translate(-8.1317, -8.1317)"></path>
        </g>
    </g>
</svg>