<?xml version="1.0" encoding="UTF-8"?>
<svg width="16px" height="16px" viewBox="0 0 16 16" version="1.1" xmlns="http://www.w3.org/2000/svg" xmlns:xlink="http://www.w3.org/1999/xlink">
    <title>buletooth_icon/clang</title>
    <g id="buletooth_icon/clang" stroke="none" stroke-width="1" fill="none" fill-rule="evenodd">
        <g id="ICON-/-Device-/-PC" transform="translate(3, 2)" fill="#000000" fill-rule="nonzero">
            <path d="M8,0 C9.1045695,-2.02906125e-16 10,0.8954305 10,2 L10,11 C10,12.1045695 9.1045695,13 8,13 L2,13 C0.8954305,13 1.3527075e-16,12.1045695 0,11 L0,2 C-1.3527075e-16,0.8954305 0.8954305,2.02906125e-16 2,0 L8,0 Z M4,6 C2.34314575,6 1,7.34314575 1,9 C1,10.6568542 2.34314575,12 4,12 C5.65685425,12 7,10.6568542 7,9 C7,7.34314575 5.65685425,6 4,6 Z M4,7.5 C4.82842712,7.5 5.5,8.17157288 5.5,9 C5.5,9.82842712 4.82842712,10.5 4,10.5 C3.17157288,10.5 2.5,9.82842712 2.5,9 C2.5,8.17157288 3.17157288,7.5 4,7.5 Z M6,1 C4.8954305,1 4,1.8954305 4,3 C4,4.1045695 4.8954305,5 6,5 C7.1045695,5 8,4.1045695 8,3 C8,1.8954305 7.1045695,1 6,1 Z M6,2 C6.55228475,2 7,2.44771525 7,3 C7,3.55228475 6.55228475,4 6,4 C5.44771525,4 5,3.55228475 5,3 C5,2.44771525 5.44771525,2 6,2 Z" id="形状结合"></path>
        </g>
    </g>
</svg>