<?xml version="1.0" encoding="UTF-8"?>
<svg width="16px" height="16px" viewBox="0 0 16 16" version="1.1" xmlns="http://www.w3.org/2000/svg" xmlns:xlink="http://www.w3.org/1999/xlink">
    <title>buletooth_icon/touchpad</title>
    <g id="buletooth_icon/touchpad" stroke="none" stroke-width="1" fill="none" fill-rule="evenodd">
        <g id="ICON-/-Device-/-PC" transform="translate(1, 3)" fill="#000000" fill-rule="nonzero">
            <path d="M13,0 C13.5522847,-1.01453063e-16 14,0.44771525 14,1 L14,9 C14,9.55228475 13.5522847,10 13,10 L1,10 C0.44771525,10 6.76353751e-17,9.55228475 0,9 L0,1 C-6.76353751e-17,0.44771525 0.44771525,1.01453063e-16 1,0 L13,0 Z M6,2 L2,2 L2,4 L6,4 L6,2 Z M12,2 L8,2 L8,4 L12,4 L12,2 Z" id="形状结合"></path>
        </g>
    </g>
</svg>