<?xml version="1.0" encoding="UTF-8"?>
<svg width="16px" height="16px" viewBox="0 0 16 16" version="1.1" xmlns="http://www.w3.org/2000/svg" xmlns:xlink="http://www.w3.org/1999/xlink">
    <title>buletooth_icon/laptop</title>
    <g id="buletooth_icon/laptop" stroke="none" stroke-width="1" fill="none" fill-rule="evenodd">
        <g id="ICON-/-Device-/-PC" transform="translate(0, 2)" fill="#000000" fill-rule="nonzero">
            <path d="M14,0 C14.5522847,-1.01453063e-16 15,0.44771525 15,1 L15,10 L15.5,10 C15.7761424,10 16,10.2238576 16,10.5 C16,10.7761424 15.7761424,11 15.5,11 L0.5,11 C0.223857625,11 3.38176876e-17,10.7761424 0,10.5 C-3.38176876e-17,10.2238576 0.223857625,10 0.5,10 L1,10 L1,1 C1,0.44771525 1.44771525,1.01453063e-16 2,0 L14,0 Z M14,0.999999998 L2,0.999999998 L2,9 L14,9 L14,0.999999998 Z" id="形状结合"></path>
        </g>
    </g>
</svg>