<svg xmlns="http://www.w3.org/2000/svg" width="16" height="16" viewBox="0 0 16 16">
  <path fill="#536076" fill-rule="evenodd" d="M15,0 L15,6 L9,6 L12.0692732,2.93027904 C10.9431015,2.02647545 9.5199506,1.5 8,1.5 C4.41014912,1.5 1.5,4.41014912 1.5,8 C1.5,11.5898508 4.41014914,14.5 8,14.5 C10.6572393,14.5 13.0163846,12.8908134 14.012065,10.4756735 L14.012065,10.4756735 L14.9365798,10.8568197 C13.7878061,13.6433054 11.0658021,15.5 8,15.5 C3.85786439,15.5 0.5,12.1421356 0.5,8 C0.5,3.85786438 3.85786438,0.5 8,0.5 C9.7921585,0.5 11.4677532,1.13445568 12.7801646,2.21961165 L15,0 Z"/>
</svg>
