<svg xmlns="http://www.w3.org/2000/svg" xmlns:xlink="http://www.w3.org/1999/xlink" width="128" height="128" viewBox="0 0 128 128">
  <defs>
    <linearGradient id="icon_face-enter_fail_dark-c" x1="50%" x2="50%" y1="0%" y2="100%">
      <stop offset="0%" stop-color="#FF674A"/>
      <stop offset="100%" stop-color="#EC5783"/>
    </linearGradient>
    <path id="icon_face-enter_fail_dark-b" d="M15.9851429,0 C24.8298505,0 32,7.16520112 32,16 C32,24.8347989 24.8298505,32 15.9851429,32 C7.15529543,32 0,24.834808 0,16 C0,7.16519211 7.15529543,0 15.9851429,0 Z"/>
    <filter id="icon_face-enter_fail_dark-a" width="146.9%" height="146.9%" x="-23.4%" y="-20.3%" filterUnits="objectBoundingBox">
      <feMorphology in="SourceAlpha" operator="dilate" radius="1" result="shadowSpreadOuter1"/>
      <feOffset dy="1" in="shadowSpreadOuter1" result="shadowOffsetOuter1"/>
      <feGaussianBlur in="shadowOffsetOuter1" result="shadowBlurOuter1" stdDeviation="2"/>
      <feComposite in="shadowBlurOuter1" in2="SourceAlpha" operator="out" result="shadowBlurOuter1"/>
      <feColorMatrix in="shadowBlurOuter1" values="0 0 0 0 1   0 0 0 0 0.443137255   0 0 0 0 0.443137255  0 0 0 0.3 0"/>
    </filter>
  </defs>
  <g fill="none" fill-rule="evenodd">
    <rect width="128" height="128"/>
    <path fill="#FFF" fill-opacity=".15" fill-rule="nonzero" d="M64,8 C94.927946,8 120,33.072054 120,64 C120,94.927946 94.927946,120 64,120 C33.072054,120 8,94.927946 8,64 C8,33.072054 33.072054,8 64,8 Z M64,14.4424779 C36.6301363,14.4424779 14.4424779,36.6301363 14.4424779,64 C14.4424779,91.3698637 36.6301363,113.557522 64,113.557522 C91.3698637,113.557522 113.557522,91.3698637 113.557522,64 C113.557522,36.6301363 91.3698637,14.4424779 64,14.4424779 Z M64.3014528,81.5469518 C72.6964122,81.5469518 79.5615685,85.1216142 84.6043895,92.0926218 C85.656426,93.5469177 85.3303303,95.5787015 83.8760344,96.630738 C82.4217384,97.6827744 80.3899546,97.3566787 79.3379182,95.9023828 C75.5065118,90.6059897 70.5918673,88.0469518 64.3014528,88.0469518 C57.921212,88.0469518 52.4167303,90.6932202 47.5996688,96.1486401 C46.4116282,97.4941203 44.3578038,97.6217502 43.0123237,96.4337096 C41.6668436,95.245669 41.5392136,93.1918446 42.7272542,91.8463644 C48.7421404,85.0343837 55.9963196,81.5469518 64.3014528,81.5469518 Z M62.8380446,40.1402583 C64.5562236,40.3666632 65.7830922,41.8965084 65.6546008,43.6034726 L65.6356082,43.786988 L62.799,65.308 L68.9631888,66.1329087 C70.680916,66.3627158 71.9047524,67.8949878 71.7728808,69.6016942 L71.7535248,69.7851717 C71.5237176,71.5028989 69.9914457,72.7267353 68.2847393,72.5948637 L68.1012618,72.5755077 L58.7228826,71.3208155 C57.0075604,71.0913301 55.7842861,69.5628201 55.9127265,67.8581942 L55.9316995,67.6749329 L59.1913149,42.9378219 C59.4258056,41.1582794 61.0585022,39.9057675 62.8380446,40.1402583 Z M39.6634615,39.5961538 C42.7010277,39.5961538 45.1634615,42.7301606 45.1634615,46.5961538 C45.1634615,50.4621471 42.7010277,53.5961538 39.6634615,53.5961538 C36.6258954,53.5961538 34.1634615,50.4621471 34.1634615,46.5961538 C34.1634615,42.7301606 36.6258954,39.5961538 39.6634615,39.5961538 Z M87.4711538,39.5961538 C90.50872,39.5961538 92.9711538,42.7301606 92.9711538,46.5961538 C92.9711538,50.4621471 90.50872,53.5961538 87.4711538,53.5961538 C84.4335877,53.5961538 81.9711538,50.4621471 81.9711538,46.5961538 C81.9711538,42.7301606 84.4335877,39.5961538 87.4711538,39.5961538 Z"/>
    <g transform="translate(85 90)">
      <use fill="#000" filter="url(#icon_face-enter_fail_dark-a)" xlink:href="#icon_face-enter_fail_dark-b"/>
      <path fill="url(#icon_face-enter_fail_dark-c)" stroke="#000" stroke-opacity=".08" d="M15.9851429,-0.5 C20.5452958,-0.5 24.6737714,1.3470512 27.662307,4.33281431 C30.6512972,7.31903156 32.5,11.4442859 32.5,16 C32.5,20.555714 30.6512972,24.6809684 27.662307,27.6671857 C24.6737714,30.6529488 20.5452958,32.5 15.9851429,32.5 C11.4324863,32.5 7.31146819,30.6530226 4.32845806,27.6672399 C1.34507103,24.68108 -0.5,20.5558098 -0.5,16 C-0.5,11.4441902 1.34507105,7.31892 4.32845809,4.3327601 C7.31146821,1.34697746 11.4324864,-0.5 15.9851429,-0.5 Z"/>
      <path fill="#FFF" fill-rule="nonzero" d="M14,6 L18,6 L18,18 L14,18 L14,6 Z M14,21 L18,21 L18,25 L14,25 L14,21 Z" opacity=".9"/>
    </g>
  </g>
</svg>
