<?xml version="1.0" encoding="UTF-8"?>
<svg width="108px" height="75px" viewBox="0 0 108 75" version="1.1" xmlns="http://www.w3.org/2000/svg" xmlns:xlink="http://www.w3.org/1999/xlink">
    <title>light_big</title>
    <defs>
        <rect id="path-1" x="0" y="0" width="108" height="75" rx="4"></rect>
        <path d="M0,0 L102.744459,4.14336123e-16 C106.310534,-2.4074122e-16 107.603679,0.371302445 108.907383,1.06853082 C110.211087,1.76575919 111.234241,2.78891348 111.931469,4.09261719 C112.628698,5.39632089 113,6.68946584 113,10.2555408 L113,85 L113,85 L0,85 L0,0 Z" id="path-3"></path>
        <polygon id="path-5" points="-1 0 28.8 0 28.8 79 -1 79"></polygon>
        <filter x="-1.7%" y="-0.6%" width="103.4%" height="101.3%" filterUnits="objectBoundingBox" id="filter-6">
            <feOffset dx="-1" dy="0" in="SourceAlpha" result="shadowOffsetInner1"></feOffset>
            <feComposite in="shadowOffsetInner1" in2="SourceAlpha" operator="arithmetic" k2="-1" k3="1" result="shadowInnerInner1"></feComposite>
            <feColorMatrix values="0 0 0 0 0   0 0 0 0 0   0 0 0 0 0  0 0 0 0.05 0" type="matrix" in="shadowInnerInner1"></feColorMatrix>
        </filter>
        <rect id="path-7" x="0" y="0" width="108" height="75" rx="4"></rect>
    </defs>
    <g id="个性化" stroke="none" stroke-width="1" fill="none" fill-rule="evenodd">
        <g id="画板" transform="translate(-487, -812)">
            <g id="light_big" transform="translate(487, 812)">
                <g id="编组-3">
                    <mask id="mask-2" fill="white">
                        <use xlink:href="#path-1"></use>
                    </mask>
                    <use id="矩形" fill-opacity="0.1" fill="#000000" xlink:href="#path-1"></use>
                    <g id="矩形" mask="url(#mask-2)">
                        <g transform="translate(-15, 10)">
                            <g id="编组" stroke-width="1" fill="none">
                                <mask id="mask-4" fill="white">
                                    <use xlink:href="#path-3"></use>
                                </mask>
                                <path stroke-opacity="0.05" stroke="#000000" stroke-width="0.99" d="M-0.495,-0.495 L102.744459,-0.495 C106.450717,-0.495 107.787738,-0.0916049551 109.140824,0.632033282 C110.532067,1.37607793 111.623922,2.46793322 112.367967,3.85917575 C113.091605,5.21226161 113.495,6.54928322 113.495,10.2555408 L113.495,85.495 L-0.495,85.495 L-0.495,-0.495 Z"></path>
                                <path d="M29,0 L108.87223,2.07168062e-16 C110.655267,-1.2037061e-16 111.30184,0.185651222 111.953691,0.534265408 C112.605543,0.882879593 113.11712,1.39445674 113.465735,2.04630859 C113.814349,2.69816044 114,3.34473292 114,5.1277704 L114,79 L114,79 L29,79 L29,0 Z" id="蒙版" fill-opacity="0.95" fill="#F8F8F8" mask="url(#mask-4)"></path>
                                <rect id="矩形" fill-opacity="0.05" fill="#000000" mask="url(#mask-4)" x="98" y="7" width="7" height="7" rx="1"></rect>
                                <rect id="矩形" fill-opacity="0.05" fill="#000000" mask="url(#mask-4)" x="86" y="7" width="7" height="7" rx="1"></rect>
                                <rect id="矩形" fill-opacity="0.05" fill="#000000" mask="url(#mask-4)" x="74" y="7" width="7" height="7" rx="1"></rect>
                                <g id="矩形" mask="url(#mask-4)">
                                    <use fill-opacity="0.8" fill="#FFFFFF" fill-rule="evenodd" xlink:href="#path-5"></use>
                                    <use fill="black" fill-opacity="1" filter="url(#filter-6)" xlink:href="#path-5"></use>
                                </g>
                            </g>
                            <rect id="矩形" fill-opacity="0.05" fill="#000000" x="42" y="20" width="63" height="20" rx="1.98000002"></rect>
                            <rect id="矩形" fill-opacity="0.05" fill="#000000" x="42" y="45" width="63" height="6" rx="0.99000001"></rect>
                            <rect id="矩形" fill-opacity="0.05" fill="#000000" x="3.95454545" y="19.8125" width="19.8181818" height="3.95" rx="0.99"></rect>
                            <rect id="矩形" fill-opacity="0.05" fill="#000000" x="3.95454545" y="29.6875" width="19.8181818" height="3.95" rx="0.99"></rect>
                            <rect id="矩形" fill-opacity="0.05" fill="#000000" x="3.95454545" y="39.5625" width="19.8181818" height="3.95" rx="0.99"></rect>
                        </g>
                    </g>
                </g>
                <mask id="mask-8" fill="white">
                    <use xlink:href="#path-7"></use>
                </mask>
                <rect stroke-opacity="0.09" stroke="#000000" x="0.5" y="0.5" width="107" height="74" rx="4"></rect>
            </g>
        </g>
    </g>
</svg>