<?xml version="1.0" encoding="UTF-8"?>
<svg width="32px" height="32px" viewBox="0 0 32 32" version="1.1" xmlns="http://www.w3.org/2000/svg" xmlns:xlink="http://www.w3.org/1999/xlink">
    <title>icon/privacy/camera</title>
    <defs>
        <linearGradient x1="50%" y1="99.5586043%" x2="50%" y2="0.530734698%" id="linearGradient-1">
            <stop stop-color="#D6D6D6" offset="0%"></stop>
            <stop stop-color="#E5E5E5" offset="100%"></stop>
        </linearGradient>
        <rect id="path-2" x="2" y="3" width="28" height="26" rx="6"></rect>
        <filter x="-7.1%" y="-3.8%" width="114.3%" height="115.4%" filterUnits="objectBoundingBox" id="filter-3">
            <feOffset dx="0" dy="1" in="SourceAlpha" result="shadowOffsetOuter1"></feOffset>
            <feGaussianBlur stdDeviation="0.5" in="shadowOffsetOuter1" result="shadowBlurOuter1"></feGaussianBlur>
            <feColorMatrix values="0 0 0 0 0   0 0 0 0 0   0 0 0 0 0  0 0 0 0.298974951 0" type="matrix" in="shadowBlurOuter1"></feColorMatrix>
        </filter>
        <filter x="-6.2%" y="-2.9%" width="112.5%" height="113.5%" filterUnits="objectBoundingBox" id="filter-4">
            <feOffset dx="0" dy="1" in="SourceAlpha" result="shadowOffsetInner1"></feOffset>
            <feComposite in="shadowOffsetInner1" in2="SourceAlpha" operator="arithmetic" k2="-1" k3="1" result="shadowInnerInner1"></feComposite>
            <feColorMatrix values="0 0 0 0 1   0 0 0 0 1   0 0 0 0 1  0 0 0 0.298992024 0" type="matrix" in="shadowInnerInner1" result="shadowMatrixInner1"></feColorMatrix>
            <feMorphology radius="0.5" operator="erode" in="SourceAlpha" result="shadowSpreadInner2"></feMorphology>
            <feOffset dx="0" dy="-1" in="shadowSpreadInner2" result="shadowOffsetInner2"></feOffset>
            <feComposite in="shadowOffsetInner2" in2="SourceAlpha" operator="arithmetic" k2="-1" k3="1" result="shadowInnerInner2"></feComposite>
            <feColorMatrix values="0 0 0 0 0   0 0 0 0 0   0 0 0 0 0  0 0 0 0.060688579 0" type="matrix" in="shadowInnerInner2" result="shadowMatrixInner2"></feColorMatrix>
            <feMerge>
                <feMergeNode in="shadowMatrixInner1"></feMergeNode>
                <feMergeNode in="shadowMatrixInner2"></feMergeNode>
            </feMerge>
        </filter>
        <linearGradient x1="50%" y1="0%" x2="50%" y2="100%" id="linearGradient-5">
            <stop stop-color="#555555" offset="0%"></stop>
            <stop stop-color="#333333" offset="100%"></stop>
        </linearGradient>
        <path d="M10.6,0 C11.9254834,-2.4348735e-16 13,1.0745166 13,2.4 L13,9.6 C13,10.9254834 11.9254834,12 10.6,12 L2.4,12 C1.0745166,12 6.0641411e-16,10.9254834 0,9.6 L0,2.4 C-1.623249e-16,1.0745166 1.0745166,-2.00601859e-16 2.4,0 L10.6,0 Z M3,2 C2.44771525,2 2,2.44771525 2,3 C2,3.55228475 2.44771525,4 3,4 C3.55228475,4 4,3.55228475 4,3 C4,2.44771525 3.55228475,2 3,2 Z M14,4.16 L16.5545003,1.50331972 C16.8760467,1.16891144 17.407803,1.15848484 17.7422113,1.48003127 C17.9069175,1.63840255 18,1.85703687 18,2.08553102 L18,9.97206067 C18,10.4359798 17.6239192,10.8120606 17.16,10.8120606 C16.9372182,10.8120606 16.7235609,10.7235609 16.5660303,10.5660303 L14,8 L14,8 L14,4.16 Z" id="path-6"></path>
        <filter x="-38.9%" y="-41.7%" width="177.8%" height="216.7%" filterUnits="objectBoundingBox" id="filter-7">
            <feOffset dx="0" dy="2" in="SourceAlpha" result="shadowOffsetOuter1"></feOffset>
            <feGaussianBlur stdDeviation="2" in="shadowOffsetOuter1" result="shadowBlurOuter1"></feGaussianBlur>
            <feColorMatrix values="0 0 0 0 0   0 0 0 0 0   0 0 0 0 0  0 0 0 0.160393562 0" type="matrix" in="shadowBlurOuter1"></feColorMatrix>
        </filter>
        <filter x="-25.0%" y="-20.8%" width="150.0%" height="175.0%" filterUnits="objectBoundingBox" id="filter-8">
            <feOffset dx="0" dy="-1" in="SourceAlpha" result="shadowOffsetInner1"></feOffset>
            <feComposite in="shadowOffsetInner1" in2="SourceAlpha" operator="arithmetic" k2="-1" k3="1" result="shadowInnerInner1"></feComposite>
            <feColorMatrix values="0 0 0 0 0.025901905   0 0 0 0 0.025901905   0 0 0 0 0.025901905  0 0 0 0.5 0" type="matrix" in="shadowInnerInner1"></feColorMatrix>
        </filter>
    </defs>
    <g id="icon/privacy/camera" stroke="none" stroke-width="1" fill="none" fill-rule="evenodd">
        <g id="矩形" fill-rule="nonzero">
            <use fill="black" fill-opacity="1" filter="url(#filter-3)" xlink:href="#path-2"></use>
            <use fill="url(#linearGradient-1)" xlink:href="#path-2"></use>
            <use fill="black" fill-opacity="1" filter="url(#filter-4)" xlink:href="#path-2"></use>
        </g>
        <g id="形状结合" transform="translate(8.000000, 10.000000)">
            <use fill="black" fill-opacity="1" filter="url(#filter-7)" xlink:href="#path-6"></use>
            <use fill="url(#linearGradient-5)" fill-rule="evenodd" xlink:href="#path-6"></use>
            <use fill="black" fill-opacity="1" filter="url(#filter-8)" xlink:href="#path-6"></use>
        </g>
    </g>
</svg>