<?xml version="1.0" encoding="UTF-8"?>
<svg width="32px" height="32px" viewBox="0 0 32 32" version="1.1" xmlns="http://www.w3.org/2000/svg" xmlns:xlink="http://www.w3.org/1999/xlink">
    <title>ICON/Nav-small/privacy</title>
    <defs>
        <filter x="-49.3%" y="-43.3%" width="198.6%" height="186.6%" filterUnits="objectBoundingBox" id="filter-1">
            <feOffset dx="0" dy="2" in="SourceAlpha" result="shadowOffsetOuter1"></feOffset>
            <feGaussianBlur stdDeviation="1.5" in="shadowOffsetOuter1" result="shadowBlurOuter1"></feGaussianBlur>
            <feColorMatrix values="0 0 0 0 0   0 0 0 0 0.353354473   0 0 0 0 0.75611413  0 0 0 0.295072115 0" type="matrix" in="shadowBlurOuter1" result="shadowMatrixOuter1"></feColorMatrix>
            <feMerge>
                <feMergeNode in="shadowMatrixOuter1"></feMergeNode>
                <feMergeNode in="SourceGraphic"></feMergeNode>
            </feMerge>
        </filter>
        <linearGradient x1="50%" y1="-7.22999659%" x2="50%" y2="105.246241%" id="linearGradient-2">
            <stop stop-color="#FFFFFF" offset="0%"></stop>
            <stop stop-color="#D4EAFF" offset="99.9317089%"></stop>
        </linearGradient>
        <path d="M10.6525844,0 C11.2712176,-0.00194799914 11.890466,0.186931466 12.4173311,0.566984329 C13.6009083,1.4207548 14.7340748,2.0403978 15.8115222,2.43484438 C16.9750321,2.86079792 18.1746088,3.11205731 19.4148645,3.18944624 C19.9419444,3.22233093 20.4108086,3.45730775 20.7479029,3.81608939 C21.0849979,4.17487175 21.2903226,4.65745937 21.2903226,5.18556456 L21.2903226,5.18556456 L21.2903226,12.4502485 C21.2903226,14.8723093 20.4909257,17.2266568 19.0161703,19.1479781 C18.6066118,19.6815537 18.1482519,20.2080342 17.6416165,20.7279097 C16.3256421,22.0782749 14.8416947,23.0911023 13.1796183,23.7599044 L13.1796183,23.7599044 L12.9149816,23.8625293 C11.5427906,24.3755472 10.0302804,24.3688289 8.6626548,23.8435777 C6.5775059,23.042754 4.89974421,22.0116416 3.64870609,20.7279097 C2.81473355,19.8721427 2.08177611,18.8885839 1.4489341,17.780926 C0.499429009,16.1190154 0,14.2381114 0,12.3240825 L0,12.3240825 L0,5.20371081 C0,4.67208393 0.207979834,4.18692116 0.548678596,3.82759903 C0.889376344,3.46827797 1.36279223,3.23479696 1.89366531,3.2065319 C3.03831839,3.14558759 4.23274428,2.89101755 5.47880041,2.43484438 C6.55103035,2.04230787 7.60249687,1.48652225 8.6253439,0.768981139 L8.6253439,0.768981139 L8.89152941,0.578349688 C9.4159334,0.194908078 10.0339513,0.00204030683 10.6525844,0 Z" id="path-3"></path>
        <filter x="-7.0%" y="-6.2%" width="114.1%" height="112.4%" filterUnits="objectBoundingBox" id="filter-4">
            <feGaussianBlur stdDeviation="1" in="SourceAlpha" result="shadowBlurInner1"></feGaussianBlur>
            <feOffset dx="0" dy="-1" in="shadowBlurInner1" result="shadowOffsetInner1"></feOffset>
            <feComposite in="shadowOffsetInner1" in2="SourceAlpha" operator="arithmetic" k2="-1" k3="1" result="shadowInnerInner1"></feComposite>
            <feColorMatrix values="0 0 0 0 0.44378811   0 0 0 0 0.621676244   0 0 0 0 1  0 0 0 0.5 0" type="matrix" in="shadowInnerInner1"></feColorMatrix>
        </filter>
        <linearGradient x1="50%" y1="0%" x2="50%" y2="100%" id="linearGradient-5">
            <stop stop-color="#46CEFB" offset="0%"></stop>
            <stop stop-color="#294CC3" offset="100%"></stop>
        </linearGradient>
        <path d="M11.8306404,1.37679788 C13.0791332,2.27758114 14.2915004,2.94328002 15.4677419,3.37389451 C16.7223291,3.83319085 18.0180147,4.10444033 19.3547985,4.18764294 C19.8796739,4.22169945 20.2885733,4.65641978 20.2903226,5.18239597 L20.2903226,12.4537851 C20.2901251,14.6581541 19.5615627,16.8006875 18.2166513,18.5472436 C17.8338456,19.0452479 17.4034448,19.5394938 16.9254489,20.0299814 C15.6327666,21.3564457 14.179299,22.321703 12.5650462,22.9257532 L12.565051,22.925766 C11.4214656,23.3534121 10.1609272,23.3478496 9.02116043,22.9101275 C7.05057006,22.1532243 5.49846584,21.1931981 4.36487365,20.0299814 C3.59193818,19.2368465 2.90887571,18.3209117 2.31568626,17.2821768 C1.45379982,15.7721286 1.00023333,14.0635292 1,12.3248246 L1,5.20223605 C1.0006578,4.66954356 1.41877744,4.23087396 1.95083694,4.20490361 C3.20186229,4.13785223 4.49244352,3.8608492 5.82258065,3.37389451 C7.07742868,2.91450268 8.29707201,2.25179588 9.48151065,1.3857741 L9.48089261,1.38492869 C10.1798207,0.873973858 11.1281539,0.870746423 11.8305436,1.37693219 Z" id="path-6"></path>
        <filter x="-10.4%" y="-8.7%" width="120.7%" height="117.4%" filterUnits="objectBoundingBox" id="filter-7">
            <feMorphology radius="1" operator="erode" in="SourceAlpha" result="shadowSpreadInner1"></feMorphology>
            <feGaussianBlur stdDeviation="1" in="shadowSpreadInner1" result="shadowBlurInner1"></feGaussianBlur>
            <feOffset dx="0" dy="-1" in="shadowBlurInner1" result="shadowOffsetInner1"></feOffset>
            <feComposite in="shadowOffsetInner1" in2="SourceAlpha" operator="arithmetic" k2="-1" k3="1" result="shadowInnerInner1"></feComposite>
            <feColorMatrix values="0 0 0 0 0   0 0 0 0 0.0856097028   0 0 0 0 1  0 0 0 0.5 0" type="matrix" in="shadowInnerInner1"></feColorMatrix>
        </filter>
        <linearGradient x1="50%" y1="-11.211659%" x2="50%" y2="103.545515%" id="linearGradient-8">
            <stop stop-color="#F3FFF9" offset="0%"></stop>
            <stop stop-color="#9ECDFF" offset="100%"></stop>
        </linearGradient>
        <path d="M8.14516129,12.709786 L8.14516129,7.20978602 C8.14516129,6.79557246 8.48094773,6.45978602 8.89516129,6.45978602 C9.30937485,6.45978602 9.64516129,6.79557246 9.64516129,7.20978602 L9.64516129,11.709786 C9.64516129,11.8478572 9.7570901,11.959786 9.89516129,11.959786 C10.0332325,11.959786 10.1451613,11.8478572 10.1451613,11.709786 L10.1451613,5.70978602 C10.1451613,5.29557246 10.4809477,4.95978602 10.8951613,4.95978602 C11.3093749,4.95978602 11.6451613,5.29557246 11.6451613,5.70978602 L11.6451613,11.709786 C11.6451613,11.8478572 11.7570901,11.959786 11.8951613,11.959786 C12.0332325,11.959786 12.1451613,11.8478572 12.1451613,11.709786 L12.1451613,6.70978602 C12.1451613,6.29557246 12.4809477,5.95978602 12.8951613,5.95978602 C13.3093749,5.95978602 13.6451613,6.29557246 13.6451613,6.70978602 L13.6451613,12.209786 C13.6451613,12.3478572 13.7570901,12.459786 13.8951613,12.459786 C14.0332325,12.459786 14.1451613,12.3478572 14.1451613,12.209786 L14.1451613,8.20978602 C14.1451613,7.79557246 14.4809477,7.45978602 14.8951613,7.45978602 C15.3093749,7.45978602 15.6451613,7.79557246 15.6451613,8.20978602 L15.6451613,15.209786 C15.6451613,17.2808538 13.9662291,18.959786 11.8951613,18.959786 L11.2396437,18.959786 C9.39996884,18.9602839 7.74524866,17.8409279 7.06043502,16.1334634 C6.72823754,15.3031927 6.4231463,14.5786336 6.14516129,13.959786 C5.70432775,12.9784066 5.29949798,12.0436949 4.93067197,11.1556509 C4.82413552,10.8991212 4.94572269,10.6047954 5.20225001,10.4982535 C5.26339501,10.4728585 5.3289524,10.459786 5.39516129,10.459786 C5.86045909,10.459786 6.29163936,10.7039161 6.53103311,11.1029057 L7.51653735,12.7454128 C7.59633527,12.8784093 7.74006202,12.959786 7.89516129,12.959786 C8.03323248,12.959786 8.14516129,12.8478572 8.14516129,12.709786 Z" id="path-9"></path>
        <filter x="-22.7%" y="-10.7%" width="145.5%" height="142.9%" filterUnits="objectBoundingBox" id="filter-10">
            <feOffset dx="0" dy="2" in="SourceAlpha" result="shadowOffsetOuter1"></feOffset>
            <feGaussianBlur stdDeviation="0.5" in="shadowOffsetOuter1" result="shadowBlurOuter1"></feGaussianBlur>
            <feColorMatrix values="0 0 0 0 0   0 0 0 0 0.127463782   0 0 0 0 0.859969429  0 0 0 0.5 0" type="matrix" in="shadowBlurOuter1"></feColorMatrix>
        </filter>
        <filter x="-18.2%" y="-7.1%" width="136.4%" height="135.7%" filterUnits="objectBoundingBox" id="filter-11">
            <feGaussianBlur stdDeviation="0.5" in="SourceAlpha" result="shadowBlurInner1"></feGaussianBlur>
            <feOffset dx="0" dy="1" in="shadowBlurInner1" result="shadowOffsetInner1"></feOffset>
            <feComposite in="shadowOffsetInner1" in2="SourceAlpha" operator="arithmetic" k2="-1" k3="1" result="shadowInnerInner1"></feComposite>
            <feColorMatrix values="0 0 0 0 0.899828506   0 0 0 0 0.953044612   0 0 0 0 1  0 0 0 1 0" type="matrix" in="shadowInnerInner1" result="shadowMatrixInner1"></feColorMatrix>
            <feGaussianBlur stdDeviation="0.5" in="SourceAlpha" result="shadowBlurInner2"></feGaussianBlur>
            <feOffset dx="0" dy="-1" in="shadowBlurInner2" result="shadowOffsetInner2"></feOffset>
            <feComposite in="shadowOffsetInner2" in2="SourceAlpha" operator="arithmetic" k2="-1" k3="1" result="shadowInnerInner2"></feComposite>
            <feColorMatrix values="0 0 0 0 0   0 0 0 0 0.371776661   0 0 0 0 1  0 0 0 0.714188156 0" type="matrix" in="shadowInnerInner2" result="shadowMatrixInner2"></feColorMatrix>
            <feMerge>
                <feMergeNode in="shadowMatrixInner1"></feMergeNode>
                <feMergeNode in="shadowMatrixInner2"></feMergeNode>
            </feMerge>
        </filter>
    </defs>
    <g id="ICON/Nav-small/privacy" stroke="none" stroke-width="1" fill="none" fill-rule="evenodd">
        <g id="编组" filter="url(#filter-1)" transform="translate(5.354839, 4.040214)" fill-rule="nonzero">
            <g id="路径">
                <use fill="url(#linearGradient-2)" xlink:href="#path-3"></use>
                <use fill="black" fill-opacity="1" filter="url(#filter-4)" xlink:href="#path-3"></use>
            </g>
            <g id="矩形">
                <use fill="url(#linearGradient-5)" xlink:href="#path-6"></use>
                <use fill="black" fill-opacity="1" filter="url(#filter-7)" xlink:href="#path-6"></use>
            </g>
            <g id="路径-2">
                <use fill="black" fill-opacity="1" filter="url(#filter-10)" xlink:href="#path-9"></use>
                <use fill="url(#linearGradient-8)" xlink:href="#path-9"></use>
                <use fill="black" fill-opacity="1" filter="url(#filter-11)" xlink:href="#path-9"></use>
            </g>
        </g>
    </g>
</svg>