<?xml version="1.0" encoding="UTF-8"?>
<svg width="42px" height="42px" viewBox="0 0 42 42" version="1.1" xmlns="http://www.w3.org/2000/svg" xmlns:xlink="http://www.w3.org/1999/xlink">
    <title>nav/dcc_nav_systeminfo_42px</title>
    <defs>
        <linearGradient x1="50%" y1="-6.47675357%" x2="50%" y2="98.3804729%" id="linearGradient-1">
            <stop stop-color="#4F4F4F" offset="0%"></stop>
            <stop stop-color="#393939" offset="100%"></stop>
        </linearGradient>
        <path d="M23.875,0 C26.1531746,-4.18493883e-16 28,1.84682541 28,4.125 L28,11.35 L27.8651793,11.3565475 C26.9658167,11.4295539 26.2587065,12.1825729 26.2587065,13.1007463 C26.2587065,14.0645411 27.0378311,14.8463616 28.0006003,14.8507279 L28,22.875 C28,25.1531746 26.1531746,27 23.875,27 L4.125,27 C1.84682541,27 2.78995922e-16,25.1531746 0,22.875 L0.000543245912,14.8507276 C0.97520478,14.8507463 1.75870647,14.0672446 1.75870647,13.1007463 C1.75870647,12.134248 0.97520478,11.3507463 0.00870646766,11.3507463 L0,11.35 L0,4.125 C-2.78995922e-16,1.84682541 1.84682541,4.18493883e-16 4.125,0 L23.875,0 Z M2.5,24 C2.22385763,24 2,24.2238576 2,24.5 C2,24.7761424 2.22385763,25 2.5,25 C2.77614237,25 3,24.7761424 3,24.5 C3,24.2238576 2.77614237,24 2.5,24 Z M25.5,24 C25.2238576,24 25,24.2238576 25,24.5 C25,24.7761424 25.2238576,25 25.5,25 C25.7761424,25 26,24.7761424 26,24.5 C26,24.2238576 25.7761424,24 25.5,24 Z M2.5,2 C2.22385763,2 2,2.22385763 2,2.5 C2,2.77614237 2.22385763,3 2.5,3 C2.77614237,3 3,2.77614237 3,2.5 C3,2.22385763 2.77614237,2 2.5,2 Z M25.5,2 C25.2238576,2 25,2.22385763 25,2.5 C25,2.77614237 25.2238576,3 25.5,3 C25.7761424,3 26,2.77614237 26,2.5 C26,2.22385763 25.7761424,2 25.5,2 Z" id="path-2"></path>
        <filter x="-25.0%" y="-18.5%" width="150.0%" height="151.9%" filterUnits="objectBoundingBox" id="filter-3">
            <feOffset dx="0" dy="2" in="SourceAlpha" result="shadowOffsetOuter1"></feOffset>
            <feGaussianBlur stdDeviation="2" in="shadowOffsetOuter1" result="shadowBlurOuter1"></feGaussianBlur>
            <feColorMatrix values="0 0 0 0 0   0 0 0 0 0   0 0 0 0 0  0 0 0 0.418378497 0" type="matrix" in="shadowBlurOuter1"></feColorMatrix>
        </filter>
        <linearGradient x1="25.1955489%" y1="-1.10818286%" x2="90.2645875%" y2="103.4512%" id="linearGradient-4">
            <stop stop-color="#A8E8FF" offset="0%"></stop>
            <stop stop-color="#CDBEFF" offset="100%"></stop>
        </linearGradient>
        <path d="M6,3 L22,3 C23.6568542,3 25,4.34314575 25,6 L25,21 C25,22.6568542 23.6568542,24 22,24 L6,24 C4.34314575,24 3,22.6568542 3,21 L3,6 C3,4.34314575 4.34314575,3 6,3 Z" id="path-5"></path>
        <filter x="-9.1%" y="-4.8%" width="118.2%" height="119.0%" filterUnits="objectBoundingBox" id="filter-6">
            <feOffset dx="0" dy="1" in="SourceAlpha" result="shadowOffsetOuter1"></feOffset>
            <feGaussianBlur stdDeviation="0.5" in="shadowOffsetOuter1" result="shadowBlurOuter1"></feGaussianBlur>
            <feColorMatrix values="0 0 0 0 0   0 0 0 0 0   0 0 0 0 0  0 0 0 0.25 0" type="matrix" in="shadowBlurOuter1"></feColorMatrix>
        </filter>
        <filter x="-6.8%" y="-2.4%" width="113.6%" height="114.3%" filterUnits="objectBoundingBox" id="filter-7">
            <feOffset dx="0" dy="-1" in="SourceAlpha" result="shadowOffsetInner1"></feOffset>
            <feComposite in="shadowOffsetInner1" in2="SourceAlpha" operator="arithmetic" k2="-1" k3="1" result="shadowInnerInner1"></feComposite>
            <feColorMatrix values="0 0 0 0 0   0 0 0 0 0   0 0 0 0 0  0 0 0 0.15 0" type="matrix" in="shadowInnerInner1" result="shadowMatrixInner1"></feColorMatrix>
            <feOffset dx="0" dy="1" in="SourceAlpha" result="shadowOffsetInner2"></feOffset>
            <feComposite in="shadowOffsetInner2" in2="SourceAlpha" operator="arithmetic" k2="-1" k3="1" result="shadowInnerInner2"></feComposite>
            <feColorMatrix values="0 0 0 0 1   0 0 0 0 1   0 0 0 0 1  0 0 0 0.25 0" type="matrix" in="shadowInnerInner2" result="shadowMatrixInner2"></feColorMatrix>
            <feMerge>
                <feMergeNode in="shadowMatrixInner1"></feMergeNode>
                <feMergeNode in="shadowMatrixInner2"></feMergeNode>
            </feMerge>
        </filter>
        <linearGradient x1="42.8823737%" y1="38.6612862%" x2="54.3020741%" y2="62.109223%" id="linearGradient-8">
            <stop stop-color="#000000" stop-opacity="0.25" offset="0%"></stop>
            <stop stop-color="#000000" stop-opacity="0.2" offset="100%"></stop>
        </linearGradient>
    </defs>
    <g id="nav/dcc_nav_systeminfo_42px" stroke="none" stroke-width="1" fill="none" fill-rule="evenodd">
        <g id="编组" transform="translate(7.000000, 8.000000)">
            <g id="形状结合">
                <use fill="black" fill-opacity="1" filter="url(#filter-3)" xlink:href="#path-2"></use>
                <use fill="url(#linearGradient-1)" fill-rule="evenodd" xlink:href="#path-2"></use>
            </g>
            <g id="矩形">
                <use fill="black" fill-opacity="1" filter="url(#filter-6)" xlink:href="#path-5"></use>
                <use fill="url(#linearGradient-4)" fill-rule="evenodd" xlink:href="#path-5"></use>
                <use fill="black" fill-opacity="1" filter="url(#filter-7)" xlink:href="#path-5"></use>
            </g>
            <path d="M6,19 L20,19 L20,20 L6,20 Z M6,17 L22.5,17 L22.5,18 L6,18 Z M6,15 L14.5,15 L14.5,16 L6,16 Z M6,13 L9,13 L9,14 L6,14 Z" id="形状结合" fill="url(#linearGradient-8)"></path>
            <g id="uos_logo" transform="translate(8.000000, 6.000000)" fill="#000000" fill-opacity="0.4">
                <path d="M0.25,1.63636364 L0.75,1.63636364 C0.888071187,1.63636364 1,1.74829245 1,1.88636364 L1,5.75 C1,5.88807119 0.888071187,6 0.75,6 L0.25,6 C0.111928813,6 1.69088438e-17,5.88807119 0,5.75 L0,1.88636364 C-1.69088438e-17,1.74829245 0.111928813,1.63636364 0.25,1.63636364 Z M0.25,0 L0.75,0 C0.888071187,-2.53632657e-17 1,0.111928813 1,0.25 L1,0.840909091 C1,0.978980278 0.888071187,1.09090909 0.75,1.09090909 L0.25,1.09090909 C0.111928813,1.09090909 1.69088438e-17,0.978980278 0,0.840909091 L0,0.25 C-1.69088438e-17,0.111928813 0.111928813,2.53632657e-17 0.25,0 Z M7.75,0 C7.88807119,-2.53632657e-17 8,0.111928813 8,0.25 L8,0.840909091 C8,0.978980278 7.88807119,1.09090909 7.75,1.09090909 L7,1.09090909 L7,2.181 L7.75,2.18181818 C7.86834673,2.18181818 7.96748682,2.2640516 7.99339732,2.37449548 L8,2.43181818 L8,3.02272727 C8,3.16079846 7.88807119,3.27272727 7.75,3.27272727 L7,3.272 L7,5.75 C7,5.88807119 6.88807119,6 6.75,6 L6.25,6 C6.11192881,6 6,5.88807119 6,5.75 L6,3.272 L5.75,3.27272727 C5.63165327,3.27272727 5.53251318,3.19049386 5.50660268,3.08004998 L5.5,3.02272727 L5.5,2.43181818 C5.5,2.29374699 5.61192881,2.18181818 5.75,2.18181818 L6,2.181 L6,1.09090909 C6,0.488416637 6.44771525,0 7,0 L7.75,0 Z M10.5,1.63636364 C11.3284271,1.63636364 12,2.36898859 12,3.27272727 L12,4.36363636 C12,5.26737505 11.3284271,6 10.5,6 L10,6 C9.17157288,6 8.5,5.26737505 8.5,4.36363636 L8.5,3.27272727 C8.5,2.36898859 9.17157288,1.63636364 10,1.63636364 L10.5,1.63636364 Z M10.5,2.72727273 L10,2.72727273 C9.72385763,2.72727273 9.5,2.97148105 9.5,3.27272727 L9.5,4.36363636 C9.5,4.66488259 9.72385763,4.90909091 10,4.90909091 L10.5,4.90909091 C10.7761424,4.90909091 11,4.66488259 11,4.36363636 L11,3.27272727 C11,2.97148105 10.7761424,2.72727273 10.5,2.72727273 Z M2.25,6 L1.75,6 C1.61192881,6 1.5,5.88807119 1.5,5.75 L1.5,1.88636364 C1.5,1.74829245 1.61192881,1.63636364 1.75,1.63636364 L3.75,1.63636364 L3.75,1.63636364 C4.44035594,1.63636364 5,2.24688443 5,3 L5,5.75 C5,5.88807119 4.88807119,6 4.75,6 L4.25,6 C4.11192881,6 4,5.88807119 4,5.75 L4,3 L4,3 C4,2.84937689 3.88807119,2.72727273 3.75,2.72727273 L2.75,2.72727273 C2.61192881,2.72727273 2.5,2.83920154 2.5,2.97727273 L2.5,5.75 C2.5,5.88807119 2.38807119,6 2.25,6 Z" id="形状结合"></path>
            </g>
        </g>
    </g>
</svg>