<?xml version="1.0" encoding="UTF-8"?>
<svg width="100px" height="100px" viewBox="0 0 100 100" version="1.1" xmlns="http://www.w3.org/2000/svg" xmlns:xlink="http://www.w3.org/1999/xlink">
    <!-- Generator: Sketch 46.2 (44496) - http://www.bohemiancoding.com/sketch -->
    <title>weather_loading</title>
    <desc>Created with Sketch.</desc>
    <defs></defs>
    <g id="详细设置" stroke="none" stroke-width="1" fill="none" fill-rule="evenodd">
        <g id="1-控制中心首页" transform="translate(-3019.000000, -295.000000)">
            <g id="2" transform="translate(2889.000000, 0.000000)">
                <g id="天气" transform="translate(0.000000, 140.000000)">
                    <g id="Group-11" transform="translate(128.000000, 153.000000)">
                        <circle id="Oval-3" stroke="#FFFFFF" fill="#000000" opacity="0" cx="52" cy="52" r="40"></circle>
                        <rect id="Rectangle" stroke="#FFFFFF" fill="#000000" opacity="0" x="40" y="0" width="24" height="24"></rect>
                        <rect id="Rectangle" stroke="#FFFFFF" fill="#000000" opacity="0" x="41" y="80" width="24" height="24"></rect>
                        <rect id="Rectangle" stroke="#FFFFFF" fill="#000000" opacity="0" x="0" y="37" width="24" height="24"></rect>
                        <g id="Group" opacity="0.5" transform="translate(4.000000, 41.000000)">
                            <path d="M3,12.3243243 L4,13.8648649" id="Path-3" stroke="#FFFFFF" stroke-linecap="round" stroke-linejoin="round"></path>
                            <path d="M5.5,16.4324324 L6.5,17.972973" id="Path-3" stroke="#FFFFFF" stroke-linecap="round" stroke-linejoin="round"></path>
                            <path d="M12,16.4324324 L13,17.972973" id="Path-3" stroke="#FFFFFF" stroke-linecap="round" stroke-linejoin="round"></path>
                            <path d="M12.6256618,3.02196308 C12.3855249,3.02196308 12.1460249,3.04940467 11.9119392,3.10394908 C11.1631832,1.24198617 9.41597994,0 7.52545882,0 C5.16644771,0 3.20458617,1.78438112 2.81412477,4.26259411 L2.7975636,4.26259411 C1.25482702,4.26259411 0,5.61028124 0,7.26660158 C0,8.92292193 1.25482702,10.2702703 2.7975636,10.2702703 L12.6256618,10.2702703 C14.4862455,10.2702703 16,8.64444058 16,6.64628607 C16,4.64779277 14.4862455,3.02196308 12.6256618,3.02196308 L12.6256618,3.02196308 Z" id="Fill-2" fill="#FFFFFF"></path>
                            <path d="M12,12.3243243 L13,13.8648649" id="Path-3" stroke="#FFFFFF" stroke-linecap="round" stroke-linejoin="round"></path>
                            <polygon id="Path-4" fill="#FFFFFF" points="6.5 7.18918919 8 12.3243243 5.5 12.3243243 10 19 8.5 13.8648649 11 13.8648649"></polygon>
                        </g>
                        <rect id="Rectangle" stroke="#FFFFFF" fill="#000000" opacity="0" x="80" y="41" width="24" height="24"></rect>
                        <g id="Group" opacity="0.5" transform="translate(42.000000, 4.000000)">
                            <path d="M9.99981834,6.47058824 C8.05390971,6.47058824 6.47058824,8.05390971 6.47058824,9.99981834 C6.47058824,11.9460903 8.05390971,13.5294118 9.99981834,13.5294118 C11.9460903,13.5294118 13.5294118,11.9460903 13.5294118,9.99981834 C13.5294118,8.05390971 11.9460903,6.47058824 9.99981834,6.47058824 L9.99981834,6.47058824 Z" id="Fill-1" fill="#FFFFFF"></path>
                            <path d="M10,0 L10,4.11764706" id="Path-2" stroke="#FFFFFF" stroke-linecap="round" stroke-linejoin="round"></path>
                            <path d="M10,15.8823529 L10,20" id="Path-2" stroke="#FFFFFF" stroke-linecap="round" stroke-linejoin="round"></path>
                            <path d="M17.9411765,7.94117647 L17.9411765,12.0588235" id="Path-2" stroke="#FFFFFF" stroke-linecap="round" stroke-linejoin="round" transform="translate(17.941176, 10.000000) rotate(-270.000000) translate(-17.941176, -10.000000) "></path>
                            <path d="M2.05882353,7.94117647 L2.05882353,12.0588235" id="Path-2" stroke="#FFFFFF" stroke-linecap="round" stroke-linejoin="round" transform="translate(2.058824, 10.000000) rotate(-270.000000) translate(-2.058824, -10.000000) "></path>
                            <path d="M15.6152597,2.32591674 L15.6152597,6.4435638" id="Path-2" stroke="#FFFFFF" stroke-linecap="round" stroke-linejoin="round" transform="translate(15.615260, 4.384740) rotate(-315.000000) translate(-15.615260, -4.384740) "></path>
                            <path d="M4.38474027,13.5564362 L4.38474027,17.6740833" id="Path-2" stroke="#FFFFFF" stroke-linecap="round" stroke-linejoin="round" transform="translate(4.384740, 15.615260) rotate(-315.000000) translate(-4.384740, -15.615260) "></path>
                            <path d="M15.6152597,13.5564362 L15.6152597,17.6740833" id="Path-2" stroke="#FFFFFF" stroke-linecap="round" stroke-linejoin="round" transform="translate(15.615260, 15.615260) rotate(-225.000000) translate(-15.615260, -15.615260) "></path>
                            <path d="M4.38474027,2.32591674 L4.38474027,6.4435638" id="Path-2" stroke="#FFFFFF" stroke-linecap="round" stroke-linejoin="round" transform="translate(4.384740, 4.384740) rotate(-225.000000) translate(-4.384740, -4.384740) "></path>
                        </g>
                        <g id="Group-6" opacity="0.5" transform="translate(42.000000, 88.000000)" fill="#FFFFFF">
                            <path d="M17.5202138,4.26736656 C17.2725726,4.26736656 17.0255882,4.29664178 16.7841873,4.3548308 C16.0120327,2.36845298 14.2102293,1.04347826 12.2606294,1.04347826 C9.8278992,1.04347826 7.80472949,2.94709033 7.40206617,5.5908956 L7.38498746,5.5908956 C5.79404037,5.5908956 4.5,7.02863412 4.5,8.79562851 C4.5,10.5626229 5.79404037,12 7.38498746,12 L17.5202138,12 C19.4389406,12 21,10.2655336 21,8.13386399 C21,6.00183293 19.4389406,4.26736656 17.5202138,4.26736656 L17.5202138,4.26736656 Z" id="Fill-2"></path>
                            <path d="M8.79438069,1.16410507 C8.08274015,0.435842942 7.12372483,0 6.11443529,0 C4.19773876,0 2.60372626,1.4503711 2.28647637,3.46469892 L2.27302042,3.46469892 C1.01954696,3.46469892 0,4.56011875 0,5.90640019 C0,7.25268163 1.01954696,8.34782609 2.27302042,8.34782609 L3.5005473,8.34782609 C3.52720594,6.43835169 4.5281172,4.94961748 6.58209199,4.44525806 C6.96343468,3.09144144 7.75272914,1.9508734 8.79438069,1.16410507 L8.79438069,1.16410507 Z" id="Combined-Shape"></path>
                        </g>
                        <polyline id="Fill-1" fill="#FFFFFF" opacity="0.5" points="99.5015017 52.5518145 99.374429 51.7528133 95.508543 52.2508474 92.3969412 50.6348127 95.5080635 49.0192073 99.374429 49.5172414 99.5015017 48.7186695 96.7663226 48.3657522 101 46.1671035 100.551649 45.4681385 96.3174924 47.6672165 97.3460616 45.3595155 96.5131363 45.0594071 95.0597128 48.3202422 92.0205184 49.8984951 92.0205184 46.7046369 94.4329808 43.9418358 93.7276077 43.442943 92.0205184 45.3981561 92.0205184 41 91.1233375 41 91.1233375 45.3981561 89.4157686 43.442943 88.710875 43.9418358 91.1233375 46.7046369 91.1233375 49.9732002 87.9402872 48.3202422 86.4863842 45.0594071 85.6534588 45.3599449 86.6820281 47.6672165 82.4483507 45.4681385 82 46.1671035 86.2336774 48.3657522 83.4980188 48.7186695 83.625571 49.5172414 87.491457 49.0192073 90.6030588 50.6348127 87.4909775 52.2508474 83.625571 51.7528133 83.4980188 52.5518145 86.2336774 52.9043024 82 55.1029511 82.4483507 55.8019162 86.6825076 53.6028382 85.6534588 55.9105392 86.4863842 56.2106476 87.9398077 52.9498124 91.1233375 51.2968545 91.1233375 54.5525376 88.710875 57.3161974 89.4162481 57.8142315 91.1233375 55.8594477 91.1233375 60 92.0205184 60 92.0205184 55.8594477 93.7276077 57.8142315 94.4329808 57.3161974 92.0205184 54.552967 92.0205184 51.3715596 95.0597128 52.9498124 96.5131363 56.2106476 97.3460616 55.9105392 96.3174924 53.6028382 100.551649 55.8019162 101 55.1029511 96.7663226 52.9043024 99.5015017 52.5518145"></polyline>
                    </g>
                </g>
            </g>
        </g>
    </g>
</svg>