<?xml version="1.0" encoding="UTF-8"?>
<svg width="16px" height="16px" viewBox="0 0 16 16" version="1.1" xmlns="http://www.w3.org/2000/svg" xmlns:xlink="http://www.w3.org/1999/xlink">
    <title>-mockplus-</title>
    <g id="6UID" stroke="none" stroke-width="1" fill="none" fill-rule="evenodd" fill-opacity="0.15">
        <g id="帐号管理/dark" transform="translate(-74.000000, -768.000000)" fill="#FFFFFF" fill-rule="nonzero">
            <g id="编组-2" transform="translate(44.000000, 689.000000)">
                <g id="-mockplus-" transform="translate(30.000000, 79.000000)">
                    <g id="icon/操作框/勾选" transform="translate(1.000000, 1.000000)">
                        <path d="M12,0 C13.1045695,0 14,0.8954305 14,2 L14,12 C14,13.1045695 13.1045695,14 12,14 L2,14 C0.8954305,14 0,13.1045695 0,12 L0,2 C0,0.8954305 0.8954305,0 2,0 L12,0 Z M12,1 L2,1 C1.48716416,1 1.06449284,1.38604019 1.00672773,1.88337887 L1,2 L1,12 C1,12.5128358 1.38604019,12.9355072 1.88337887,12.9932723 L2,13 L12,13 C12.5128358,13 12.9355072,12.6139598 12.9932723,12.1166211 L13,12 L13,2 C13,1.48716416 12.6139598,1.06449284 12.1166211,1.00672773 L12,1 Z" id="矩形"></path>
                    </g>
                </g>
            </g>
        </g>
    </g>
</svg>