<?xml version="1.0" encoding="UTF-8"?>
<svg width="20px" height="49px" viewBox="0 0 20 49" version="1.1" xmlns="http://www.w3.org/2000/svg" xmlns:xlink="http://www.w3.org/1999/xlink">
    <title>-mockplus-</title>
    <g id="页面-1" stroke="none" stroke-width="1" fill="none" fill-rule="evenodd" fill-opacity="0.45">
        <g id="开机引导" transform="translate(-619.000000, -358.000000)" fill="#FFFFFF" fill-rule="nonzero">
            <g id="编组备份-2" transform="translate(611.000000, 150.000000)">
                <g id="-mockplus-" transform="translate(8.000000, 208.000000)">
                    <g id="翻页备份-3" transform="translate(10.000000, 24.500000) scale(-1, 1) translate(-10.000000, -24.500000) ">
                        <path d="M4.74648994,7.56903289 C4.95806021,7.44457979 5.22370204,7.49352715 5.3784549,7.67310744 L5.43096711,7.74648994 L15.4309671,24.7464899 C15.5076703,24.8768854 15.5204542,25.0333895 15.4693187,25.1724879 L15.4309671,25.2535101 L5.43096711,42.2535101 C5.29095737,42.4915266 4.9845065,42.5709768 4.74648994,42.4309671 C4.53491966,42.306514 4.44863637,42.0505519 4.5304076,41.8280412 L4.56903289,41.7464899 L14.42,25 L4.56903289,8.25351006 C4.44457979,8.04193979 4.49352715,7.77629796 4.67310744,7.6215451 L4.74648994,7.56903289 Z" id="路径"></path>
                    </g>
                </g>
            </g>
        </g>
    </g>
</svg>