<?xml version="1.0" encoding="UTF-8"?>
<svg width="24px" height="24px" viewBox="0 0 24 24" version="1.1" xmlns="http://www.w3.org/2000/svg" xmlns:xlink="http://www.w3.org/1999/xlink">
    <title>-mockplus-</title>
    <g id="6UID" stroke="none" stroke-width="1" fill="none" fill-rule="evenodd">
        <g id="帐号管理/dark" transform="translate(-1292.000000, -621.000000)" fill="#C5CFE0" fill-rule="nonzero">
            <g id="UID备份-2" transform="translate(960.000000, 47.000000)">
                <g id="自动同步配置备份-14" transform="translate(332.000000, 557.000000)">
                    <g id="-mockplus-" transform="translate(0.000000, 17.000000)">
                        <g id="编组" transform="translate(4.000000, 4.000000)">
                            <path d="M2.33296495,8.5785652 C1.94924644,6.17899672 3.26736602,3.75420108 5.62112727,2.83672877 C7.36545323,2.15659102 9.24620506,2.48188872 10.577934,3.45346666 L9.44470305,5.28907514 L14.5266499,5.26949089 L12.7102937,0 L11.7798759,1.50665947 C9.81779961,0.236006797 7.14305583,-0.179577609 4.80091234,0.733579516 C1.55590177,1.99858927 -0.311904547,5.27015477 0.0568768281,8.5785652 L2.33296495,8.5785652 Z" id="路径"></path>
                            <path d="M12.9794941,7.26509273 C13.3628807,9.66466122 12.045425,12.0897888 9.69166377,13.0069292 C8.08708305,13.6322974 6.31885766,13.3966225 4.95924603,12.553504 C5.21815645,12.1332725 5.98326994,10.8941538 5.98326994,10.8941538 L0.518268469,10.5735032 L2.83086961,16 L3.80045594,14.4299407 C5.76220027,15.7005933 8.16907134,16.0235675 10.5112148,15.1104104 C13.7555615,13.8450687 15.6240317,10.5738351 15.2552503,7.26575661 L12.9794941,7.26575661 L12.9794941,7.26509273 Z" id="路径"></path>
                        </g>
                    </g>
                </g>
            </g>
        </g>
    </g>
</svg>