<?xml version="1.0" encoding="UTF-8"?>
<svg width="24px" height="24px" viewBox="0 0 24 24" version="1.1" xmlns="http://www.w3.org/2000/svg" xmlns:xlink="http://www.w3.org/1999/xlink">
    <title>-mockplus-</title>
    <g id="6UID" stroke="none" stroke-width="1" fill="none" fill-rule="evenodd">
        <g id="帐号管理/dark" transform="translate(-1292.000000, -452.000000)" fill="#C5CFE0" fill-rule="nonzero">
            <g id="UID备份-2" transform="translate(960.000000, 47.000000)">
                <g id="自动同步配置备份-11" transform="translate(332.000000, 389.000000)">
                    <g id="-mockplus-" transform="translate(0.000000, 16.000000)">
                        <g id="形状" transform="translate(4.000000, 4.000000)">
                            <path d="M14.1142857,13.1589286 C14.1178571,13.1535714 14.1232143,13.1482143 14.1267857,13.1428571 C15.2964286,11.7517857 16,9.95892857 16,8 C16,6.04107143 15.2964286,4.24821429 14.1285714,2.85714286 C14.125,2.85178571 14.1196429,2.84821429 14.1160714,2.84285714 C14.0964286,2.81964286 14.0785714,2.79821429 14.0589286,2.77678571 C14.0517857,2.76785714 14.0446429,2.76071429 14.0375,2.75178571 C14.0125,2.72321429 13.9892857,2.69642857 13.9642857,2.66785714 L13.9625,2.66607143 C13.9357143,2.63571429 13.9071429,2.60535714 13.8803571,2.575 L13.8785714,2.57321429 C13.8214286,2.5125 13.7642857,2.45178571 13.7053571,2.39285714 L13.7035714,2.39107143 L13.6178571,2.30535714 L13.6125,2.3 C13.5857143,2.27321429 13.5589286,2.24821429 13.5321429,2.22321429 C13.5232143,2.21428571 13.5142857,2.20535714 13.5035714,2.19642857 C13.4857143,2.17857143 13.4678571,2.1625 13.45,2.14642857 C13.4446429,2.14107143 13.4375,2.13571429 13.4321429,2.12857143 C12.0071429,0.807142857 10.0982143,0 8,0 C5.90178571,0 3.99285714,0.807142857 2.56607143,2.12857143 C2.56071429,2.13392857 2.55357143,2.13928571 2.54821429,2.14642857 C2.53035714,2.1625 2.5125,2.18035714 2.49464286,2.19821429 C2.48571429,2.20714286 2.47678571,2.21607143 2.46607143,2.225 C2.43928571,2.25 2.4125,2.27678571 2.38571429,2.30178571 L2.38035714,2.30714286 L2.29464286,2.39285714 L2.29285714,2.39464286 C2.23392857,2.45357143 2.17678571,2.51428571 2.11964286,2.575 L2.11785714,2.57678571 C2.08928571,2.60714286 2.0625,2.6375 2.03571429,2.66785714 L2.03392857,2.66964286 C2.00892857,2.69642857 1.98392857,2.725 1.96071429,2.75357143 C1.95357143,2.7625 1.94642857,2.76964286 1.93928571,2.77857143 C1.91964286,2.8 1.90178571,2.82321429 1.88214286,2.84464286 C1.87857143,2.85 1.87321429,2.85357143 1.86964286,2.85892857 C0.703571429,4.24821429 0,6.04107143 0,8 C0,9.95892857 0.703571429,11.7517857 1.87142857,13.1428571 C1.875,13.1482143 1.88035714,13.1535714 1.88392857,13.1589286 C1.90178571,13.1803571 1.92142857,13.2035714 1.93928571,13.225 C1.94642857,13.2339286 1.95357143,13.2410714 1.96071429,13.25 C1.98571429,13.2785714 2.00892857,13.3053571 2.03392857,13.3339286 C2.03392857,13.3357143 2.03571429,13.3357143 2.03571429,13.3375 C2.0625,13.3678571 2.08928571,13.3982143 2.11785714,13.4267857 L2.11964286,13.4285714 C2.17678571,13.4892857 2.23392857,13.55 2.29107143,13.6089286 L2.29285714,13.6107143 C2.32142857,13.6392857 2.34821429,13.6678571 2.37678571,13.6946429 L2.38214286,13.7 C2.44107143,13.7589286 2.50178571,13.8160714 2.5625,13.8714286 C3.99285714,15.1928571 5.90178571,16 8,16 C10.0982143,16 12.0071429,15.1928571 13.4339286,13.8714286 C13.4946429,13.8160714 13.5535714,13.7589286 13.6125,13.7 L13.6178571,13.6946429 C13.6464286,13.6660714 13.675,13.6392857 13.7017857,13.6107143 L13.7035714,13.6089286 C13.7625,13.55 13.8196429,13.4892857 13.875,13.4285714 L13.8767857,13.4267857 C13.9035714,13.3964286 13.9321429,13.3678571 13.9589286,13.3375 C13.9589286,13.3357143 13.9607143,13.3357143 13.9607143,13.3339286 C13.9857143,13.3071429 14.0107143,13.2785714 14.0339286,13.25 C14.0410714,13.2410714 14.0482143,13.2339286 14.0553571,13.225 C14.0767857,13.2017857 14.0964286,13.1803571 14.1142857,13.1589286 Z M14.1875,10.6125 C13.9410714,11.1946429 13.6160714,11.7339286 13.2196429,12.2232143 C12.775,11.8392857 12.2875,11.5035714 11.7642857,11.225 C11.9714286,10.3875 12.1,9.46785714 12.1339286,8.5 L14.6964286,8.5 C14.6428571,9.23035714 14.4714286,9.93928571 14.1875,10.6125 Z M14.6964286,7.5 L12.1339286,7.5 C12.1,6.53214286 11.9714286,5.6125 11.7642857,4.775 C12.2875,4.49642857 12.775,4.16071429 13.2196429,3.77678571 C13.6160714,4.26607143 13.9410714,4.80535714 14.1875,5.3875 C14.4714286,6.06071429 14.6428571,6.76964286 14.6964286,7.5 Z M10.6125,1.8125 C11.3214286,2.1125 11.9660714,2.52678571 12.5339286,3.04821429 C12.2035714,3.33035714 11.8482143,3.57857143 11.4732143,3.79464286 C11.1928571,2.99107143 10.8339286,2.29285714 10.4160714,1.73392857 C10.4821429,1.75892857 10.5482143,1.78571429 10.6125,1.8125 Z M8.99464286,14.3232143 C8.83035714,14.4517857 8.66607143,14.55 8.5,14.6160714 L8.5,11.3035714 C9.2125,11.3535714 9.90357143,11.5107143 10.5660714,11.7714286 C10.4178571,12.2107143 10.2464286,12.6160714 10.0482143,12.9821429 C9.7375,13.5607143 9.37321429,14.0232143 8.99464286,14.3232143 Z M10.0482143,3.01785714 C10.2446429,3.38571429 10.4178571,3.79107143 10.5660714,4.22857143 C9.90357143,4.48928571 9.2125,4.64642857 8.5,4.69642857 L8.5,1.38571429 C8.66428571,1.45178571 8.83035714,1.54821429 8.99464286,1.67857143 C9.37321429,1.97678571 9.7375,2.43928571 10.0482143,3.01785714 Z M8.5,10.3017857 L8.5,8.5 L11.1339286,8.5 C11.1053571,9.28928571 11.0071429,10.0553571 10.8428571,10.7821429 L10.8375,10.8035714 C10.1035714,10.525 9.31785714,10.3517857 8.5,10.3017857 L8.5,10.3017857 Z M8.5,7.5 L8.5,5.69821429 C9.31785714,5.64821429 10.1035714,5.475 10.8375,5.19642857 L10.8428571,5.21785714 C11.0071429,5.94464286 11.1053571,6.70892857 11.1339286,7.5 L8.5,7.5 Z M7.5,8.5 L7.5,10.3017857 C6.68214286,10.3517857 5.89642857,10.525 5.1625,10.8035714 L5.15714286,10.7821429 C4.99285714,10.0553571 4.89464286,9.29107143 4.86607143,8.5 L7.5,8.5 Z M4.86607143,7.5 C4.89464286,6.71071429 4.99285714,5.94464286 5.15714286,5.21785714 L5.1625,5.19642857 C5.89642857,5.475 6.68035714,5.64821429 7.5,5.69821429 L7.5,7.5 L4.86607143,7.5 Z M7.5,11.3035714 L7.5,14.6142857 C7.33571429,14.5482143 7.16964286,14.4517857 7.00535714,14.3214286 C6.62678571,14.0232143 6.26071429,13.5589286 5.95,12.9803571 C5.75357143,12.6125 5.58035714,12.2071429 5.43214286,11.7696429 C6.09642857,11.5089286 6.7875,11.3535714 7.5,11.3035714 Z M7.5,4.69642857 C6.7875,4.64642857 6.09642857,4.48928571 5.43392857,4.22857143 C5.58214286,3.78928571 5.75357143,3.38392857 5.95178571,3.01785714 C6.2625,2.43928571 6.62678571,1.975 7.00714286,1.67678571 C7.17142857,1.54821429 7.33571429,1.45 7.50178571,1.38392857 L7.50178571,4.69642857 L7.5,4.69642857 Z M5.3875,1.8125 C5.45357143,1.78571429 5.51785714,1.75892857 5.58392857,1.73392857 C5.16607143,2.29285714 4.80714286,2.99107143 4.52678571,3.79464286 C4.15178571,3.58035714 3.79642857,3.33035714 3.46607143,3.04821429 C4.03392857,2.52678571 4.67857143,2.1125 5.3875,1.8125 L5.3875,1.8125 Z M1.8125,5.3875 C2.05892857,4.80535714 2.38392857,4.26607143 2.78035714,3.77678571 C3.225,4.16071429 3.7125,4.49642857 4.23571429,4.775 C4.02857143,5.6125 3.9,6.53214286 3.86607143,7.5 L1.30357143,7.5 C1.35714286,6.76964286 1.52857143,6.06071429 1.8125,5.3875 Z M1.30357143,8.5 L3.86607143,8.5 C3.9,9.46785714 4.02857143,10.3875 4.23571429,11.225 C3.7125,11.5035714 3.225,11.8392857 2.78035714,12.2232143 C2.38392857,11.7339286 2.05892857,11.1946429 1.8125,10.6125 C1.52857143,9.93928571 1.35714286,9.23035714 1.30357143,8.5 Z M5.3875,14.1875 C4.67857143,13.8875 4.03392857,13.4732143 3.46607143,12.9517857 C3.79642857,12.6696429 4.15178571,12.4214286 4.52678571,12.2053571 C4.80714286,13.0089286 5.16607143,13.7071429 5.58392857,14.2660714 C5.51785714,14.2410714 5.45178571,14.2142857 5.3875,14.1875 Z M10.6125,14.1875 C10.5464286,14.2142857 10.4821429,14.2410714 10.4160714,14.2660714 C10.8339286,13.7071429 11.1928571,13.0089286 11.4732143,12.2053571 C11.8482143,12.4196429 12.2035714,12.6696429 12.5339286,12.9517857 C11.9660714,13.4732143 11.3214286,13.8875 10.6125,14.1875 Z"></path>
                        </g>
                    </g>
                </g>
            </g>
        </g>
    </g>
</svg>