<?xml version="1.0" encoding="iso-8859-1"?>
<!-- Generator: Adobe Illustrator 18.0.0, SVG Export Plug-In . SVG Version: 6.00 Build 0)  -->
<!DOCTYPE svg PUBLIC "-//W3C//DTD SVG 1.1//EN" "http://www.w3.org/Graphics/SVG/1.1/DTD/svg11.dtd">
<svg version="1.1" id="&#x56FE;&#x5C42;_1" xmlns="http://www.w3.org/2000/svg" xmlns:xlink="http://www.w3.org/1999/xlink" x="0px"
	 y="0px" viewBox="0 0 32 16" style="enable-background:new 0 0 32 16;" xml:space="preserve">
<path style="fill:#143241;" d="M30,16H2c-1.105,0-2-0.895-2-2V2c0-1.105,0.895-2,2-2h28c1.105,0,2,0.895,2,2v12
	C32,15.105,31.105,16,30,16z"/>
<g>
	<path style="fill:#FFFFFF;" d="M4.415,11.722v-0.574h1.934v-6.29L4.62,6.007V5.39l1.805-1.236h0.596v6.994h1.648v0.574H4.415z"/>
	<path style="fill:#FFFFFF;" d="M10.211,11.722v-0.574h1.934v-6.29l-1.729,1.149V5.39l1.805-1.236h0.596v6.994h1.648v0.574H10.211z"
		/>
	<path style="fill:#FFFFFF;" d="M15.99,7.231V6.335h0.779v0.896H15.99z M15.99,11.722v-0.896h0.779v0.896H15.99z"/>
	<path style="fill:#FFFFFF;" d="M22.774,9.638c0,0.694-0.204,1.233-0.612,1.617c-0.408,0.383-0.984,0.574-1.729,0.574
		c-1.429,0-2.226-0.653-2.39-1.961l0.692-0.074c0.125,0.97,0.691,1.455,1.697,1.455c0.533,0,0.94-0.136,1.222-0.408
		s0.422-0.673,0.422-1.203c0-0.473-0.167-0.832-0.502-1.08c-0.335-0.246-0.805-0.37-1.41-0.37h-0.516V7.56h0.5
		c0.336,0,0.634-0.056,0.894-0.167s0.465-0.274,0.615-0.491s0.226-0.484,0.226-0.803c0-0.473-0.124-0.838-0.373-1.096
		s-0.615-0.387-1.099-0.387c-0.434,0-0.787,0.111-1.061,0.335c-0.274,0.224-0.435,0.567-0.481,1.028l-0.676-0.059
		c0.067-0.598,0.298-1.061,0.689-1.389c0.393-0.327,0.903-0.491,1.533-0.491c0.685,0,1.215,0.175,1.593,0.523
		c0.378,0.35,0.567,0.841,0.567,1.475c0,0.462-0.133,0.852-0.398,1.168c-0.265,0.317-0.637,0.527-1.117,0.632V7.86
		c0.537,0.067,0.957,0.262,1.26,0.582S22.774,9.161,22.774,9.638z"/>
	<path style="fill:#FFFFFF;" d="M27.705,9.911v1.811h-0.672V9.911h-3.41V9.374l3.346-5.221h0.736v5.194h1.025v0.563H27.705z
		 M27.033,5.056l-2.729,4.292h2.729V5.056z"/>
</g>
</svg>
