<?xml version="1.0" encoding="iso-8859-1"?>
<!-- Generator: Adobe Illustrator 18.0.0, SVG Export Plug-In . SVG Version: 6.00 Build 0)  -->
<!DOCTYPE svg PUBLIC "-//W3C//DTD SVG 1.1//EN" "http://www.w3.org/Graphics/SVG/1.1/DTD/svg11.dtd">
<svg version="1.1" id="&#x56FE;&#x5C42;_1" xmlns="http://www.w3.org/2000/svg" xmlns:xlink="http://www.w3.org/1999/xlink" x="0px"
	 y="0px" viewBox="0 0 32 16" style="enable-background:new 0 0 32 16;" xml:space="preserve">
<path style="fill:#143241;" d="M30,16H2c-1.105,0-2-0.895-2-2V2c0-1.105,0.895-2,2-2h28c1.105,0,2,0.895,2,2v12
	C32,15.105,31.105,16,30,16z"/>
<g>
	<path style="fill:#F9F9F9;" d="M4.165,11.597v-0.574h1.934v-6.29L4.37,5.882V5.265l1.805-1.236h0.596v6.994h1.648v0.574H4.165z"/>
	<path style="fill:#F9F9F9;" d="M14.468,7.81c0,1.265-0.204,2.229-0.612,2.896s-1.012,0.999-1.811,0.999
		c-0.791,0-1.388-0.326-1.791-0.978C9.852,10.075,9.65,9.103,9.65,7.81c0-1.313,0.195-2.291,0.588-2.932
		c0.392-0.642,1.007-0.962,1.845-0.962c0.806,0,1.404,0.322,1.797,0.967C14.271,5.527,14.468,6.503,14.468,7.81z M13.78,7.81
		c0-1.156-0.134-1.999-0.4-2.529s-0.7-0.795-1.302-0.795c-0.623,0-1.07,0.266-1.341,0.798c-0.271,0.531-0.405,1.374-0.405,2.526
		c0,1.129,0.14,1.964,0.419,2.506c0.279,0.543,0.714,0.814,1.306,0.814c0.587,0,1.021-0.279,1.302-0.836S13.78,8.909,13.78,7.81z"/>
	<path style="fill:#F9F9F9;" d="M15.74,7.106V6.21h0.779v0.896H15.74z M15.74,11.597V10.7h0.779v0.896H15.74z"/>
	<path style="fill:#F9F9F9;" d="M18.168,11.597v-0.574h1.934v-6.29l-1.729,1.149V5.265l1.805-1.236h0.596v6.994h1.648v0.574H18.168z
		"/>
	<path style="fill:#F9F9F9;" d="M28.309,7.649c0,1.32-0.215,2.327-0.645,3.018c-0.43,0.691-1.06,1.037-1.891,1.037
		c-1.049,0-1.71-0.466-1.982-1.396l0.645-0.14c0.098,0.329,0.263,0.574,0.497,0.733s0.521,0.238,0.856,0.238
		c1.193,0,1.809-1.099,1.848-3.297C27.49,8.15,27.253,8.402,26.926,8.6c-0.328,0.197-0.703,0.296-1.125,0.296
		c-0.645,0-1.158-0.227-1.539-0.68c-0.382-0.453-0.572-1.06-0.572-1.818c0-0.77,0.2-1.376,0.602-1.818s0.958-0.663,1.67-0.663
		c0.767,0,1.35,0.31,1.749,0.929C28.109,5.465,28.309,6.399,28.309,7.649z M27.551,6.64c0-0.652-0.147-1.173-0.442-1.563
		c-0.296-0.391-0.684-0.585-1.163-0.585c-0.498,0-0.884,0.168-1.157,0.504c-0.274,0.337-0.411,0.803-0.411,1.396
		c0,0.613,0.138,1.09,0.414,1.432c0.275,0.342,0.656,0.514,1.144,0.514s0.878-0.159,1.174-0.476
		C27.403,7.544,27.551,7.137,27.551,6.64z"/>
</g>
</svg>
