<?xml version="1.0" encoding="iso-8859-1"?>
<!-- Generator: Adobe Illustrator 18.1.1, SVG Export Plug-In . SVG Version: 6.00 Build 0)  -->
<!DOCTYPE svg PUBLIC "-//W3C//DTD SVG 1.1//EN" "http://www.w3.org/Graphics/SVG/1.1/DTD/svg11.dtd" [
	<!ENTITY ns_extend "http://ns.adobe.com/Extensibility/1.0/">
	<!ENTITY ns_ai "http://ns.adobe.com/AdobeIllustrator/10.0/">
	<!ENTITY ns_graphs "http://ns.adobe.com/Graphs/1.0/">
	<!ENTITY ns_vars "http://ns.adobe.com/Variables/1.0/">
	<!ENTITY ns_imrep "http://ns.adobe.com/ImageReplacement/1.0/">
	<!ENTITY ns_sfw "http://ns.adobe.com/SaveForWeb/1.0/">
	<!ENTITY ns_custom "http://ns.adobe.com/GenericCustomNamespace/1.0/">
	<!ENTITY ns_adobe_xpath "http://ns.adobe.com/XPath/1.0/">
]>
<svg version="1.1" id="&#x56FE;&#x5C42;_1" xmlns:x="&ns_extend;" xmlns:i="&ns_ai;" xmlns:graph="&ns_graphs;"
	 xmlns="http://www.w3.org/2000/svg" xmlns:xlink="http://www.w3.org/1999/xlink" x="0px" y="0px" viewBox="0 0 24 24"
	 enable-background="new 0 0 24 24" xml:space="preserve">
<metadata>
	<sfw  xmlns="&ns_sfw;">
		<slices></slices>
		<sliceSourceBounds  width="921" height="16845" y="-8451" x="-57" bottomLeftOrigin="true"></sliceSourceBounds>
	</sfw>
</metadata>
<path fill="none" stroke="#B4B4B4" stroke-linecap="round" stroke-linejoin="round" stroke-miterlimit="10" d="M10.349,22.318
	c0.559,0.092,1.134,0.139,1.719,0.139c5.142,0,9.423-3.678,10.343-8.54c0,0,1.045-4.658-2.761-3.559
	c-0.54,0.156-1.23,0.476-1.971,0.614"/>
<path fill="none" stroke="#B4B4B4" stroke-linejoin="round" stroke-miterlimit="10" d="M14.169,9.637
	c-0.224-0.422-0.313-0.944-0.202-1.569c0.201-1.128,1.286-1.947,1.333-3.716c0.081-3.027-3.232-2.893-3.232-2.893
	c-5.813,0-10.526,4.701-10.526,10.5c0,4.111,2.369,7.671,5.819,9.394"/>
<path fill="none" stroke="#B4B4B4" stroke-linejoin="round" stroke-miterlimit="10" d="M10.624,13.89c0,0-3.747,0.37-2.633,4.983
	c0,0,0.371,2.636-2.262,3.355c0,0,8.844,1.999,8.743-5.813L10.624,13.89z"/>
<path fill="none" stroke="#B4B4B4" stroke-linejoin="round" stroke-miterlimit="10" d="M10.624,13.89l9.427-10.759
	c0,0,0.866-1.097,1.476-0.704c0.49,0.281,0.49,0.691-0.052,1.722l-7.003,12.266L10.624,13.89z"/>
<line fill="none" stroke="#B4B4B4" stroke-linejoin="round" stroke-miterlimit="10" x1="12.799" y1="11.702" x2="15.81" y2="13.577"/>
<ellipse fill="none" stroke="#B4B4B4" stroke-linejoin="round" stroke-miterlimit="10" cx="9.34" cy="6.393" rx="1.55" ry="1.559"/>
<ellipse fill="none" stroke="#B4B4B4" stroke-linejoin="round" stroke-miterlimit="10" cx="5.946" cy="10.626" rx="1.55" ry="1.559"/>
</svg>
