<?xml version="1.0" encoding="iso-8859-1"?>
<!-- Generator: Adobe Illustrator 18.0.0, SVG Export Plug-In . SVG Version: 6.00 Build 0)  -->
<!DOCTYPE svg PUBLIC "-//W3C//DTD SVG 1.1//EN" "http://www.w3.org/Graphics/SVG/1.1/DTD/svg11.dtd">
<svg version="1.1" id="&#x56FE;&#x5C42;_1" xmlns="http://www.w3.org/2000/svg" xmlns:xlink="http://www.w3.org/1999/xlink" x="0px"
	 y="0px" viewBox="0 0 50 20" style="enable-background:new 0 0 50 20;" xml:space="preserve">
<path style="fill:#0D73D7;" d="M25.983,0H2C0.895,0,0,0.895,0,2v16c0,1.105,0.895,2,2,2h23.983H48c1.105,0,2-0.895,2-2V2
	c0-1.105-0.895-2-2-2H25.983z"/>
<g>
	<path style="fill:#FFFFFF;" d="M7.753,14.101c-1.075,0-1.916-0.305-2.522-0.912c-0.606-0.609-0.909-1.469-0.909-2.581V4.332h0.916
		v6.187c0,0.897,0.219,1.592,0.656,2.082c0.438,0.489,1.064,0.734,1.88,0.734c0.866,0,1.53-0.251,1.992-0.752
		c0.463-0.501,0.694-1.219,0.694-2.153V4.332h0.923v6.139c0,1.14-0.319,2.029-0.957,2.669C9.788,13.78,8.896,14.101,7.753,14.101z"
		/>
	<path style="fill:#FFFFFF;" d="M19.88,10.457c0,1.126-0.27,2.015-0.811,2.666c-0.539,0.651-1.283,0.978-2.231,0.978
		c-0.552,0-1.013-0.104-1.384-0.311c-0.372-0.208-0.683-0.542-0.934-1.002h-0.027c0.009,0.187,0.016,0.374,0.021,0.561
		s0.007,0.378,0.007,0.574v2.741h-0.868V8.481c0-0.492-0.016-0.984-0.048-1.477h0.813c0.05,0.492,0.075,0.921,0.075,1.285h0.027
		c0.273-0.506,0.606-0.869,0.998-1.09c0.392-0.222,0.877-0.332,1.456-0.332c0.93,0,1.646,0.31,2.149,0.93
		C19.628,8.418,19.88,9.304,19.88,10.457z M18.984,10.471c0-0.921-0.178-1.632-0.533-2.133s-0.894-0.752-1.613-0.752
		c-0.774,0-1.356,0.249-1.747,0.749c-0.389,0.498-0.584,1.218-0.584,2.156c0,0.943,0.189,1.661,0.567,2.153s0.941,0.738,1.688,0.738
		c0.733,0,1.287-0.251,1.661-0.752S18.984,11.409,18.984,10.471z"/>
	<path style="fill:#FFFFFF;" d="M21.233,10.498c0-1.116,0.268-2.001,0.804-2.652c0.535-0.651,1.281-0.978,2.238-0.978
		c0.538,0,0.996,0.104,1.374,0.311c0.378,0.208,0.692,0.544,0.943,1.009h0.027C26.606,7.978,26.6,7.766,26.6,7.552V4.031h0.868
		v8.463c0,0.569,0.019,1.06,0.055,1.47h-0.834c-0.046-0.588-0.068-1.012-0.068-1.271h-0.027c-0.282,0.506-0.616,0.867-1.001,1.084
		c-0.386,0.216-0.845,0.324-1.378,0.324c-0.948,0-1.682-0.314-2.201-0.943S21.233,11.642,21.233,10.498z M22.129,10.484
		c0,0.921,0.179,1.634,0.537,2.14c0.357,0.506,0.896,0.759,1.616,0.759c0.779,0,1.362-0.248,1.75-0.745s0.581-1.215,0.581-2.153
		c0-0.952-0.19-1.674-0.57-2.163c-0.381-0.49-0.945-0.735-1.692-0.735S23.046,7.84,22.68,8.349
		C22.313,8.856,22.129,9.568,22.129,10.484z"/>
	<path style="fill:#FFFFFF;" d="M34.557,13.964h-0.827l-0.041-1.237h-0.027c-0.47,0.916-1.198,1.374-2.188,1.374
		c-0.725,0-1.284-0.179-1.679-0.537c-0.394-0.357-0.591-0.853-0.591-1.486c0-0.72,0.272-1.27,0.817-1.647
		c0.544-0.378,1.384-0.583,2.519-0.615l1.142-0.027v-0.28c0-0.656-0.131-1.141-0.393-1.453c-0.263-0.312-0.669-0.468-1.221-0.468
		c-0.506,0-0.888,0.081-1.145,0.243c-0.258,0.161-0.435,0.434-0.53,0.816l-0.82-0.171c0.146-0.588,0.423-1.003,0.831-1.244
		c0.407-0.241,0.967-0.362,1.678-0.362c0.87,0,1.5,0.217,1.891,0.649c0.389,0.433,0.584,1.121,0.584,2.064V13.964z M31.617,13.383
		c0.401,0,0.758-0.095,1.07-0.284c0.312-0.188,0.557-0.448,0.734-0.779c0.178-0.33,0.267-0.678,0.267-1.042v-0.841l-0.998,0.027
		c-0.93,0.022-1.592,0.164-1.985,0.424c-0.395,0.26-0.592,0.651-0.592,1.176C30.113,12.943,30.614,13.383,31.617,13.383z"/>
	<path style="fill:#FFFFFF;" d="M38.494,14.073c-0.506,0-0.89-0.135-1.152-0.403c-0.262-0.269-0.393-0.665-0.393-1.189V7.723h-1.025
		V7.005h1.039l0.232-1.606h0.629v1.606h1.853v0.718h-1.853v4.601c0,0.328,0.066,0.583,0.198,0.766s0.369,0.273,0.711,0.273
		c0.296,0,0.638-0.041,1.025-0.123v0.677C39.362,14.021,38.94,14.073,38.494,14.073z"/>
	<path style="fill:#FFFFFF;" d="M41.646,10.621c0,0.87,0.192,1.548,0.578,2.034c0.385,0.484,0.921,0.728,1.609,0.728
		c0.46,0,0.855-0.095,1.186-0.284c0.331-0.188,0.617-0.507,0.858-0.953l0.69,0.376c-0.319,0.569-0.702,0.976-1.148,1.217
		s-0.982,0.362-1.606,0.362c-0.989,0-1.748-0.314-2.276-0.943s-0.793-1.538-0.793-2.728c0-0.761,0.125-1.408,0.376-1.941
		s0.604-0.937,1.063-1.21c0.457-0.273,0.992-0.41,1.603-0.41c0.948,0,1.673,0.303,2.174,0.909s0.752,1.477,0.752,2.611v0.232H41.646
		z M43.751,7.586c-0.638,0-1.137,0.199-1.497,0.599c-0.36,0.398-0.559,0.985-0.595,1.76h4.143
		C45.72,8.372,45.036,7.586,43.751,7.586z"/>
</g>
</svg>
