<?xml version="1.0" encoding="iso-8859-1"?>
<!-- Generator: Adobe Illustrator 18.0.0, SVG Export Plug-In . SVG Version: 6.00 Build 0)  -->
<!DOCTYPE svg PUBLIC "-//W3C//DTD SVG 1.1//EN" "http://www.w3.org/Graphics/SVG/1.1/DTD/svg11.dtd">
<svg version="1.1" id="&#x56FE;&#x5C42;_1" xmlns="http://www.w3.org/2000/svg" xmlns:xlink="http://www.w3.org/1999/xlink" x="0px"
	 y="0px" viewBox="0 0 24 24" style="enable-background:new 0 0 24 24;" xml:space="preserve">
<g>
	<g>
		<path style="fill:#8E8E8E;" d="M12.042,23.011c6.065,0,11-4.935,11-11.001s-4.935-11.001-11-11.001s-11,4.935-11,11.001
			S5.976,23.011,12.042,23.011z M12.042,2.511c5.238,0,9.5,4.262,9.5,9.5s-4.262,9.5-9.5,9.5s-9.5-4.262-9.5-9.5
			S6.803,2.511,12.042,2.511z"/>
		<path style="fill:#8E8E8E;" d="M11,8v9c0,0.552,0.448,1,1,1s1-0.448,1-1V8H11z"/>
		<g>
			<path style="fill:#8E8E8E;" d="M15.953,12.341c-0.27,0-0.538-0.108-0.735-0.322l-3.235-3.511L8.69,11.961
				c-0.381,0.4-1.013,0.414-1.414,0.033c-0.399-0.381-0.414-1.014-0.033-1.414l4.028-4.225c0.19-0.199,0.476-0.313,0.732-0.31
				c0.276,0.002,0.539,0.119,0.727,0.322l3.958,4.295c0.374,0.406,0.349,1.039-0.058,1.413
				C16.438,12.253,16.195,12.341,15.953,12.341z"/>
		</g>
	</g>
</g>
</svg>
