<svg xmlns="http://www.w3.org/2000/svg" width="145" height="15" viewBox="0 0 145 15">
  <path fill="#FF8567" fill-rule="evenodd" d="M72.5,0 C76.3065483,0 79.4507576,2.83581058 79.9352465,6.5100504 L79.992095,6.50790501 L79.992095,6.50790501 L79.9999685,6.50793626 L141.500016,6.99603187 C141.776789,6.99822848 142,7.22321806 142,7.5 C142,7.77678194 141.776789,8.00177152 141.500016,8.00396813 L79.9999685,8.49206374 L79.9352465,8.4899496 C79.4507576,12.1641894 76.3065483,15 72.5,15 C69.2348735,15 66.4570708,12.9135184 65.4271621,10.0011254 L56,10 C54.8954305,10 54,9.1045695 54,8 L54,7 C54,5.8954305 54.8954305,5 56,5 L65.4268097,4.99987158 C66.4564369,2.08695773 69.2345009,0 72.5,0 Z"/>
</svg>
