<svg xmlns="http://www.w3.org/2000/svg" xmlns:xlink="http://www.w3.org/1999/xlink" width="224" height="224" viewBox="0 0 224 224">
  <defs>
    <linearGradient id="clock_1-c" x1="50%" x2="50%" y1="0%" y2="100%">
      <stop offset="0%" stop-color="#EAEDEE"/>
      <stop offset="100%" stop-color="#ADB9C5"/>
    </linearGradient>
    <path id="clock_1-b" d="M82,164 C127.287352,164 164,127.287352 164,82 C164,36.7126483 127.287352,0 82,0 C36.7126483,0 0,36.7126483 0,82 C0,127.287352 36.7126483,164 82,164 Z"/>
    <filter id="clock_1-a" width="136.6%" height="137.2%" x="-18.3%" y="-9.8%" filterUnits="objectBoundingBox">
      <feOffset dy="3" in="SourceAlpha" result="shadowOffsetOuter1"/>
      <feGaussianBlur in="shadowOffsetOuter1" result="shadowBlurOuter1" stdDeviation="2"/>
      <feColorMatrix in="shadowBlurOuter1" result="shadowMatrixOuter1" values="0 0 0 0 0   0 0 0 0 0   0 0 0 0 0  0 0 0 0.1 0"/>
      <feOffset dy="15" in="SourceAlpha" result="shadowOffsetOuter2"/>
      <feGaussianBlur in="shadowOffsetOuter2" result="shadowBlurOuter2" stdDeviation="7.5"/>
      <feColorMatrix in="shadowBlurOuter2" result="shadowMatrixOuter2" values="0 0 0 0 0.22745098   0 0 0 0 0.298039216   0 0 0 0 0.341176471  0 0 0 0.1 0"/>
      <feMerge>
        <feMergeNode in="shadowMatrixOuter1"/>
        <feMergeNode in="shadowMatrixOuter2"/>
      </feMerge>
    </filter>
    <radialGradient id="clock_1-f" cx="50%" cy="50%" r="50.02%" fx="50%" fy="50%">
      <stop offset="0%" stop-color="#6F7680"/>
      <stop offset="100%" stop-color="#4D545D"/>
    </radialGradient>
    <linearGradient id="clock_1-g" x1="50%" x2="50%" y1="0%" y2="100%">
      <stop offset="0%" stop-color="#626D75"/>
      <stop offset="100%" stop-color="#7C8489"/>
    </linearGradient>
    <circle id="clock_1-e" cx="82" cy="82" r="76"/>
    <filter id="clock_1-d" width="100.7%" height="101.3%" x="-.3%" y="-1%" filterUnits="objectBoundingBox">
      <feOffset dy="-1" in="SourceAlpha" result="shadowOffsetOuter1"/>
      <feColorMatrix in="shadowOffsetOuter1" values="0 0 0 0 0   0 0 0 0 0   0 0 0 0 0  0 0 0 0.1 0"/>
    </filter>
    <filter id="clock_1-h" width="107.9%" height="108.6%" x="-3.9%" y="-4.6%" filterUnits="objectBoundingBox">
      <feGaussianBlur in="SourceAlpha" result="shadowBlurInner1" stdDeviation="4"/>
      <feOffset dy="4" in="shadowBlurInner1" result="shadowOffsetInner1"/>
      <feComposite in="shadowOffsetInner1" in2="SourceAlpha" k2="-1" k3="1" operator="arithmetic" result="shadowInnerInner1"/>
      <feColorMatrix in="shadowInnerInner1" values="0 0 0 0 0   0 0 0 0 0   0 0 0 0 0  0 0 0 0.25 0"/>
    </filter>
    <polygon id="clock_1-j" points="81.377 21.63 81.377 13.664 79.504 14.648 79.511 13.613 81.567 12.553 82.456 12.553 82.456 21.63 84.125 21.63 84.125 22.5 79.574 22.5 79.574 21.63"/>
    <filter id="clock_1-i" width="424.6%" height="250.8%" x="-162.3%" y="-75.4%" filterUnits="objectBoundingBox">
      <feOffset in="SourceAlpha" result="shadowOffsetOuter1"/>
      <feGaussianBlur in="shadowOffsetOuter1" result="shadowBlurOuter1" stdDeviation="2.5"/>
      <feColorMatrix in="shadowBlurOuter1" values="0 0 0 0 1   0 0 0 0 1   0 0 0 0 1  0 0 0 0.15 0"/>
    </filter>
    <path id="clock_1-l" d="M102.703125,40.5 L96.9140625,40.5 L96.9140625,39.9160156 C96.9140625,39.5309226 96.9828281,39.1796891 97.1203613,38.8623047 C97.2578946,38.5449203 97.4398589,38.2486993 97.6662598,37.9736328 C97.8926606,37.6985663 98.1507961,37.439373 98.4406738,37.1960449 C98.7305516,36.9527169 99.0257146,36.7146822 99.3261719,36.4819336 C99.6266291,36.249185 99.9217922,36.015382 100.21167,35.7805176 C100.501548,35.5456531 100.759683,35.2991549 100.986084,35.0410156 C101.212485,34.7828763 101.394449,34.507814 101.531982,34.2158203 C101.669516,33.9238267 101.738281,33.6022153 101.738281,33.2509766 C101.738281,32.5696581 101.583823,32.0607927 101.274902,31.7243652 C100.965982,31.3879378 100.475101,31.2197266 99.8022461,31.2197266 C99.6541334,31.2197266 99.4996753,31.2345376 99.3388672,31.2641602 C99.1780591,31.2937827 99.0183113,31.3382158 98.8596191,31.3974609 C98.7009269,31.456706 98.5475268,31.5297033 98.3994141,31.6164551 C98.2513013,31.7032068 98.1137702,31.8037104 97.9868164,31.9179688 L97.4091797,31.175293 C97.7265641,30.9044583 98.0915507,30.6896981 98.5041504,30.5310059 C98.9167501,30.3723137 99.3917616,30.2929688 99.9291992,30.2929688 C100.348147,30.2929688 100.73535,30.351155 101.09082,30.4675293 C101.446291,30.5839036 101.754149,30.7605782 102.014404,30.9975586 C102.27466,31.2345389 102.477782,31.5328758 102.623779,31.8925781 C102.769776,32.2522804 102.842773,32.6712216 102.842773,33.1494141 C102.842773,33.5556661 102.775066,33.9291161 102.639648,34.2697754 C102.504231,34.6104346 102.324383,34.9278143 102.100098,35.2219238 C101.875813,35.5160334 101.621909,35.7889799 101.338379,36.0407715 C101.054849,36.2925631 100.764975,36.5348296 100.46875,36.7675781 C100.172525,37.0003267 99.8815932,37.2267242 99.5959473,37.4467773 C99.3103013,37.6668305 99.0553397,37.8889963 98.8310547,38.1132812 C98.6067697,38.3375662 98.4258633,38.5692534 98.2883301,38.8083496 C98.1507968,39.0474459 98.0820312,39.3024075 98.0820312,39.5732422 L102.703125,39.5732422 L102.703125,40.5 Z"/>
    <filter id="clock_1-k" width="353%" height="247%" x="-126.5%" y="-73.5%" filterUnits="objectBoundingBox">
      <feOffset in="SourceAlpha" result="shadowOffsetOuter1"/>
      <feGaussianBlur in="shadowOffsetOuter1" result="shadowBlurOuter1" stdDeviation="2.5"/>
      <feColorMatrix in="shadowBlurOuter1" values="0 0 0 0 1   0 0 0 0 1   0 0 0 0 1  0 0 0 0.15 0"/>
    </filter>
    <path id="clock_1-n" d="M106.051758,59.1474609 L106.216797,59.1474609 C106.614585,59.1474609 106.973224,59.1062016 107.292725,59.0236816 C107.612225,58.9411617 107.884113,58.8173836 108.108398,58.6523438 C108.332683,58.4873039 108.505126,58.2799492 108.625732,58.0302734 C108.746338,57.7805977 108.806641,57.4907243 108.806641,57.1606445 C108.806641,56.9405913 108.766439,56.7385263 108.686035,56.5544434 C108.605631,56.3703604 108.483969,56.2116706 108.321045,56.0783691 C108.158121,55.9450677 107.954998,55.8424483 107.71167,55.7705078 C107.468342,55.6985673 107.185874,55.6625977 106.864258,55.6625977 C106.678059,55.6625977 106.489747,55.6848142 106.299316,55.729248 C106.108886,55.7736819 105.929037,55.8286943 105.759766,55.8942871 C105.590494,55.9598799 105.437094,56.0328772 105.299561,56.1132812 C105.162027,56.1936853 105.05306,56.2698564 104.972656,56.3417969 L104.458496,55.5991211 C104.581218,55.5144853 104.727213,55.424561 104.896484,55.3293457 C105.065756,55.2341304 105.255126,55.1473799 105.4646,55.0690918 C105.674073,54.9908036 105.901529,54.9252119 106.146973,54.8723145 C106.392417,54.8194171 106.654784,54.7929688 106.934082,54.7929688 C107.327639,54.7929688 107.704263,54.8384598 108.063965,54.9294434 C108.423667,55.0204269 108.741047,55.1600739 109.016113,55.3483887 C109.29118,55.5367034 109.510172,55.7757961 109.673096,56.0656738 C109.83602,56.3555516 109.91748,56.6993795 109.91748,57.097168 C109.91748,57.4314795 109.862468,57.7287585 109.752441,57.9890137 C109.642415,58.2492689 109.497478,58.4735505 109.317627,58.6618652 C109.137776,58.85018 108.933595,59.005696 108.705078,59.128418 C108.476561,59.2511399 108.243816,59.3421221 108.006836,59.4013672 C108.349611,59.4521487 108.665933,59.5378412 108.955811,59.6584473 C109.245688,59.7790533 109.497476,59.9451487 109.711182,60.1567383 C109.924887,60.3683279 110.090982,60.630695 110.209473,60.9438477 C110.327963,61.2570003 110.387207,61.6336241 110.387207,62.0737305 C110.387207,62.6153998 110.295167,63.08089 110.111084,63.4702148 C109.927001,63.8595397 109.66675,64.1790352 109.330322,64.4287109 C108.993895,64.6783867 108.589765,64.8624669 108.11792,64.980957 C107.646075,65.0994472 107.122399,65.1586914 106.546875,65.1586914 C106.339517,65.1586914 106.126873,65.1428224 105.908936,65.111084 C105.690998,65.0793455 105.48047,65.0349124 105.277344,64.9777832 C105.074218,64.920654 104.882732,64.8508305 104.702881,64.7683105 C104.52303,64.6857906 104.367514,64.5937505 104.236328,64.4921875 L104.731445,63.6289062 C105.057293,63.8489594 105.370441,64.0139968 105.670898,64.1240234 C105.971356,64.23405 106.284504,64.2890625 106.610352,64.2890625 C107.50326,64.2890625 108.167641,64.109214 108.603516,63.7495117 C109.03939,63.3898094 109.257324,62.8312212 109.257324,62.0737305 C109.257324,61.6886374 109.199138,61.3596205 109.082764,61.0866699 C108.966389,60.8137193 108.795004,60.5904957 108.568604,60.4169922 C108.342203,60.2434887 108.065024,60.1165369 107.737061,60.0361328 C107.409097,59.9557288 107.033531,59.9155273 106.610352,59.9155273 L106.051758,59.9155273 L106.051758,59.1474609 Z"/>
    <filter id="clock_1-m" width="343.9%" height="244.7%" x="-121.9%" y="-72.4%" filterUnits="objectBoundingBox">
      <feOffset in="SourceAlpha" result="shadowOffsetOuter1"/>
      <feGaussianBlur in="shadowOffsetOuter1" result="shadowBlurOuter1" stdDeviation="2.5"/>
      <feColorMatrix in="shadowBlurOuter1" values="0 0 0 0 1   0 0 0 0 1   0 0 0 0 1  0 0 0 0.15 0"/>
    </filter>
    <path id="clock_1-p" d="M97.7138672,86.3056641 L100.98291,86.3056641 L100.98291,81.5957031 L97.7138672,86.3056641 Z M100.98291,87.2197266 L96.6157227,87.2197266 L96.609375,86.5849609 L101.128906,80.0532227 L102.055664,80.0532227 L102.055664,86.2993164 L103.058594,86.2993164 L103.064941,87.2197266 L102.062012,87.2197266 L102.055664,90 L100.98291,90 L100.98291,87.2197266 Z"/>
    <filter id="clock_1-o" width="332.4%" height="250.8%" x="-116.2%" y="-75.4%" filterUnits="objectBoundingBox">
      <feOffset in="SourceAlpha" result="shadowOffsetOuter1"/>
      <feGaussianBlur in="shadowOffsetOuter1" result="shadowBlurOuter1" stdDeviation="2.5"/>
      <feColorMatrix in="shadowBlurOuter1" values="0 0 0 0 1   0 0 0 0 1   0 0 0 0 1  0 0 0 0.15 0"/>
    </filter>
    <path id="clock_1-r" d="M84.2143555,99.5532227 L84.2143555,100.499023 L80.3359375,100.499023 L80.3359375,103.241211 C80.5686861,103.118489 80.8204739,103.034912 81.0913086,102.990479 C81.3621433,102.946045 81.6139311,102.923828 81.8466797,102.923828 C82.3460311,102.923828 82.800942,103.011636 83.2114258,103.187256 C83.6219096,103.362875 83.9943017,103.700356 84.3286133,104.199707 C84.6629248,104.699058 84.8300781,105.393062 84.8300781,106.281738 C84.8300781,107.216964 84.5211619,108.013587 83.9033203,108.671631 C83.2854787,109.329675 82.4941454,109.658691 81.5292969,109.658691 C81.2246079,109.658691 80.9336765,109.632243 80.6564941,109.579346 C80.3793118,109.526448 80.1296398,109.465088 79.9074707,109.395264 C79.6853016,109.325439 79.4969897,109.2535 79.3425293,109.179443 C79.1880689,109.105387 79.0833336,109.047201 79.0283203,109.004883 L79.4980469,108.109863 C80.3824914,108.516115 81.0976535,108.719238 81.6435547,108.719238 C82.2402374,108.719238 82.7342917,108.482261 83.1257324,108.008301 C83.5171732,107.53434 83.7128906,106.948246 83.7128906,106.25 C83.7128906,105.649086 83.6060395,105.162437 83.392334,104.790039 C83.1786285,104.417641 82.9353041,104.159506 82.6623535,104.015625 C82.3894029,103.871744 82.0815447,103.799805 81.7387695,103.799805 C81.3579083,103.799805 81.0109065,103.851643 80.6977539,103.955322 C80.3846013,104.059001 80.1201183,104.222981 79.9042969,104.447266 L79.3266602,104.447266 L79.3203125,99.5532227 L84.2143555,99.5532227 Z"/>
    <filter id="clock_1-q" width="358.5%" height="248.4%" x="-129.3%" y="-74.2%" filterUnits="objectBoundingBox">
      <feOffset in="SourceAlpha" result="shadowOffsetOuter1"/>
      <feGaussianBlur in="shadowOffsetOuter1" result="shadowBlurOuter1" stdDeviation="2.5"/>
      <feColorMatrix in="shadowBlurOuter1" values="0 0 0 0 1   0 0 0 0 1   0 0 0 0 1  0 0 0 0.15 0"/>
    </filter>
    <path id="clock_1-t" d="M57.9477539,112.807129 C57.9477539,112.447427 57.8885097,112.091961 57.7700195,111.740723 C57.6515294,111.389484 57.4251319,111.094321 57.0908203,110.855225 C56.7565087,110.616128 56.316409,110.496582 55.7705078,110.496582 C55.3007789,110.496582 54.9040544,110.559 54.5803223,110.683838 C54.2565902,110.808676 53.9741223,111.029784 53.7329102,111.347168 C53.7075194,111.419108 53.6895346,111.493164 53.6789551,111.569336 C53.6683756,111.645508 53.6609701,111.721679 53.6567383,111.797852 C53.6525065,111.874024 53.6514486,111.949137 53.6535645,112.023193 C53.6556803,112.09725 53.6567383,112.163899 53.6567383,112.223145 C53.6482747,112.769046 53.7011713,113.234536 53.8154297,113.619629 C53.9296881,114.004722 54.0830882,114.31787 54.2756348,114.559082 C54.4681813,114.800294 54.6924629,114.975911 54.9484863,115.085938 C55.2045097,115.195964 55.4700507,115.250977 55.7451172,115.250977 C56.0413426,115.250977 56.3576643,115.182211 56.6940918,115.044678 C57.0305193,114.907144 57.3235665,114.655357 57.5732422,114.289307 C57.8229179,113.923257 57.9477539,113.429202 57.9477539,112.807129 Z M58.1318359,107.100586 C58.0218093,107.049804 57.8980313,107.000082 57.760498,106.951416 C57.6229648,106.90275 57.4780281,106.861491 57.3256836,106.827637 C57.1733391,106.793782 57.018881,106.766276 56.8623047,106.745117 C56.7057284,106.723958 56.5512703,106.713379 56.3989258,106.713379 C55.9926738,106.713379 55.6393244,106.79484 55.3388672,106.957764 C55.03841,107.120688 54.7823904,107.355549 54.5708008,107.662354 C54.3592112,107.969158 54.1878262,108.344724 54.0566406,108.789062 C53.9254551,109.233401 53.8260095,109.758135 53.7583008,110.363281 C53.9741222,110.143228 54.2618797,109.957032 54.621582,109.804688 C54.9812844,109.652343 55.3896462,109.576172 55.8466797,109.576172 C56.633793,109.576172 57.2484516,109.728514 57.6906738,110.033203 C58.1328961,110.337892 58.461913,110.709226 58.6777344,111.147217 C58.8935558,111.585207 59.0014648,112.127926 59.0014648,112.775391 C59.0014648,113.824875 58.7084176,114.65112 58.1223145,115.25415 C57.5362113,115.857181 56.6930394,116.158691 55.5927734,116.158691 C54.6067659,116.158691 53.8556341,115.800052 53.3393555,115.082764 C52.8230768,114.365475 52.5649414,113.29379 52.5649414,111.867676 C52.5649414,110.898595 52.6400546,110.035323 52.7902832,109.277832 C52.9405118,108.520341 53.1774886,107.884524 53.5012207,107.370361 C53.8249528,106.856199 54.242836,106.464764 54.7548828,106.196045 C55.2669296,105.927326 55.884762,105.792969 56.6083984,105.792969 C56.9469418,105.792969 57.2791325,105.822591 57.6049805,105.881836 C57.9308285,105.941081 58.233397,106.025716 58.5126953,106.135742 L58.1318359,107.100586 Z"/>
    <filter id="clock_1-s" width="333%" height="244.7%" x="-116.5%" y="-72.4%" filterUnits="objectBoundingBox">
      <feOffset in="SourceAlpha" result="shadowOffsetOuter1"/>
      <feGaussianBlur in="shadowOffsetOuter1" result="shadowBlurOuter1" stdDeviation="2.5"/>
      <feColorMatrix in="shadowBlurOuter1" values="0 0 0 0 1   0 0 0 0 1   0 0 0 0 1  0 0 0 0.15 0"/>
    </filter>
    <polygon id="clock_1-v" points="31.827 100.967 26.622 100.967 26.622 100.053 32.881 100.053 32.881 100.771 28.926 110 27.866 110"/>
    <filter id="clock_1-u" width="339.7%" height="250.8%" x="-119.8%" y="-75.4%" filterUnits="objectBoundingBox">
      <feOffset in="SourceAlpha" result="shadowOffsetOuter1"/>
      <feGaussianBlur in="shadowOffsetOuter1" result="shadowBlurOuter1" stdDeviation="2.5"/>
      <feColorMatrix in="shadowBlurOuter1" values="0 0 0 0 1   0 0 0 0 1   0 0 0 0 1  0 0 0 0.15 0"/>
    </filter>
    <path id="clock_1-x" d="M10.3007812,85.4663086 C10.0638009,85.6017259 9.84163515,85.7371413 9.63427734,85.8725586 C9.42691954,86.0079759 9.24707107,86.162434 9.09472656,86.3359375 C8.94238205,86.509441 8.82177779,86.7093901 8.73291016,86.935791 C8.64404252,87.1621919 8.59960938,87.4467756 8.59960938,87.7895508 C8.59960938,88.1027034 8.65673771,88.3830554 8.77099609,88.6306152 C8.88525448,88.8781751 9.0439443,89.0865877 9.24707031,89.2558594 C9.45019633,89.4251311 9.69034692,89.5541988 9.9675293,89.6430664 C10.2447117,89.731934 10.5441065,89.7763672 10.8657227,89.7763672 C11.1831071,89.7763672 11.4793281,89.7372237 11.7543945,89.6589355 C12.029461,89.5806474 12.2685537,89.4600431 12.4716797,89.2971191 C12.6748057,89.1341951 12.8334955,88.9300142 12.9477539,88.6845703 C13.0620123,88.4391264 13.1191406,88.1513688 13.1191406,87.8212891 C13.1191406,87.5462226 13.0747075,87.3103037 12.9858398,87.1135254 C12.8969722,86.9167471 12.7774259,86.7411303 12.6271973,86.5866699 C12.4769686,86.4322095 12.3045257,86.2967942 12.1098633,86.1804199 C11.9152008,86.0640456 11.7131358,85.9614262 11.5036621,85.8725586 C11.2941884,85.783691 11.0857758,85.7075198 10.878418,85.644043 C10.6710602,85.5805661 10.4785165,85.5213219 10.3007812,85.4663086 Z M10.9672852,84.7299805 C11.2508152,84.6030267 11.5057769,84.4644376 11.7321777,84.314209 C11.9585786,84.1639804 12.1511223,84.0084643 12.3098145,83.8476562 C12.4685067,83.6868482 12.5912268,83.5218107 12.6779785,83.3525391 C12.7647303,83.1832674 12.8081055,83.0139982 12.8081055,82.8447266 C12.8081055,82.5527329 12.753093,82.3009451 12.6430664,82.0893555 C12.5330398,81.8777659 12.3870452,81.7032071 12.2050781,81.5656738 C12.0231111,81.4281406 11.8125826,81.3265791 11.5734863,81.2609863 C11.3343901,81.1953936 11.0836602,81.1625977 10.8212891,81.1625977 C10.5758451,81.1625977 10.3356945,81.1922198 10.1008301,81.2514648 C9.86596562,81.3107099 9.65649506,81.4048659 9.47241211,81.5339355 C9.28832916,81.6630052 9.14021866,81.8291005 9.02807617,82.0322266 C8.91593368,82.2353526 8.85986328,82.478677 8.85986328,82.762207 C8.85986328,83.0457371 8.92757094,83.2911773 9.06298828,83.4985352 C9.19840562,83.705893 9.36979063,83.8857414 9.57714844,84.0380859 C9.78450625,84.1904304 10.0119617,84.321614 10.2595215,84.4316406 C10.5070813,84.5416672 10.7430002,84.6411128 10.9672852,84.7299805 Z M11.8432617,85.1108398 C12.1987322,85.2589526 12.5203436,85.4155265 12.8081055,85.5805664 C13.0958673,85.7456063 13.3413076,85.9328603 13.5444336,86.142334 C13.7475596,86.3518077 13.9041336,86.5887845 14.0141602,86.8532715 C14.1241867,87.1177585 14.1791992,87.4340802 14.1791992,87.8022461 C14.1791992,88.170412 14.135824,88.4962551 14.0490723,88.7797852 C13.9623205,89.0633152 13.8406583,89.3108713 13.684082,89.5224609 C13.5275057,89.7340505 13.3434255,89.9117831 13.1318359,90.0556641 C12.9202463,90.199545 12.6906751,90.3169755 12.4431152,90.407959 C12.1955554,90.4989425 11.9342462,90.5634764 11.6591797,90.6015625 C11.3841132,90.6396486 11.106935,90.6586914 10.8276367,90.6586914 C10.3832986,90.6586914 9.96224157,90.6079107 9.56445312,90.5063477 C9.16666468,90.4047846 8.81754708,90.2408052 8.51708984,90.0144043 C8.21663261,89.7880034 7.97859788,89.4928404 7.80297852,89.1289062 C7.62735915,88.7649721 7.53955078,88.3185248 7.53955078,87.7895508 C7.53955078,87.4467756 7.59033152,87.1431491 7.69189453,86.8786621 C7.79345754,86.6141751 7.93416251,86.3708507 8.11401367,86.1486816 C8.29386483,85.9265126 8.50862505,85.7223317 8.75830078,85.5361328 C9.00797651,85.349934 9.28303886,85.1764331 9.58349609,85.015625 C9.30419782,84.8717441 9.05558377,84.7268074 8.83764648,84.5808105 C8.6197092,84.4348137 8.43668694,84.2718922 8.28857422,84.092041 C8.1404615,83.9121899 8.02726276,83.7111828 7.94897461,83.4890137 C7.87068646,83.2668446 7.83154297,83.0076512 7.83154297,82.7114258 C7.83154297,82.2882466 7.91723547,81.92326 8.08862305,81.6164551 C8.26001062,81.3096502 8.48535017,81.0589202 8.76464844,80.8642578 C9.04394671,80.6695954 9.36238428,80.5257166 9.7199707,80.4326172 C10.0775571,80.3395178 10.4446596,80.2929688 10.8212891,80.2929688 C11.2063821,80.2929688 11.5808901,80.3416336 11.9448242,80.4389648 C12.3087583,80.5362961 12.6303697,80.6854645 12.909668,80.8864746 C13.1889662,81.0874847 13.4132479,81.3445622 13.5825195,81.6577148 C13.7517912,81.9708675 13.8364258,82.3432596 13.8364258,82.7749023 C13.8364258,83.066896 13.785645,83.3345528 13.684082,83.5778809 C13.582519,83.8212089 13.4418141,84.0402008 13.2619629,84.2348633 C13.0821117,84.4295257 12.8705253,84.5998528 12.6271973,84.7458496 C12.3838692,84.8918464 12.12256,85.0135086 11.8432617,85.1108398 Z"/>
    <filter id="clock_1-w" width="325.9%" height="244.7%" x="-113%" y="-72.4%" filterUnits="objectBoundingBox">
      <feOffset in="SourceAlpha" result="shadowOffsetOuter1"/>
      <feGaussianBlur in="shadowOffsetOuter1" result="shadowBlurOuter1" stdDeviation="2.5"/>
      <feColorMatrix in="shadowBlurOuter1" values="0 0 0 0 1   0 0 0 0 1   0 0 0 0 1  0 0 0 0.15 0"/>
    </filter>
    <path id="clock_1-z" d="M1.625,58.1508789 C1.625,58.7348662 1.73819874,59.2045881 1.96459961,59.5600586 C2.19100048,59.9155291 2.46394697,60.1546218 2.78344727,60.2773438 C3.10294756,60.4000657 3.44042791,60.4614258 3.79589844,60.4614258 C4.12597821,60.4656576 4.41796748,60.4370934 4.671875,60.3757324 C4.92578252,60.3143714 5.15323793,60.211752 5.35424805,60.0678711 C5.55525817,59.9239902 5.71712178,59.7716479 5.83984375,59.6108398 C5.89062525,59.3569323 5.91389976,59.0649431 5.90966797,58.7348633 C5.91813155,58.1847303 5.86523495,57.7171243 5.75097656,57.3320312 C5.63671818,56.9469382 5.48331802,56.6337903 5.29077148,56.3925781 C5.09822495,56.151366 4.87394334,55.9757492 4.61791992,55.8657227 C4.36189651,55.7556961 4.09635554,55.7006836 3.82128906,55.7006836 C3.52506362,55.7006836 3.21508951,55.7609857 2.89135742,55.8815918 C2.56762533,56.0021979 2.27563607,56.2550436 2.01538086,56.6401367 C1.75512565,57.0252298 1.625,57.5288055 1.625,58.1508789 Z M1.43457031,63.8510742 C1.8662131,64.0372731 2.22591002,64.1483559 2.51367188,64.1843262 C2.80143373,64.2202964 3.01936775,64.2382812 3.16748047,64.2382812 C3.5737325,64.2382812 3.92813976,64.1568205 4.23071289,63.9938965 C4.53328602,63.8309725 4.79036353,63.5961116 5.00195312,63.2893066 C5.21354272,62.9825017 5.38492773,62.6079937 5.51611328,62.1657715 C5.64729883,61.7235492 5.74462859,61.2231473 5.80810547,60.6645508 C5.70654246,60.7661138 5.57747474,60.8602697 5.42089844,60.9470215 C5.26432213,61.0337732 5.0918792,61.1088864 4.90356445,61.1723633 C4.71524971,61.2358402 4.51953227,61.2866209 4.31640625,61.324707 C4.11328023,61.3627932 3.91650486,61.3818359 3.72607422,61.3818359 C3.23095456,61.3818359 2.78768099,61.3088386 2.39624023,61.1628418 C2.00479948,61.016845 1.67366672,60.8063165 1.40283203,60.53125 C1.13199734,60.2561835 0.924642646,59.920819 0.780761719,59.5251465 C0.636880791,59.1294739 0.564941406,58.6819686 0.564941406,58.1826172 C0.564941406,57.6621068 0.662271162,57.144778 0.856933594,56.6306152 C1.05159603,56.1164525 1.40811915,55.6816424 1.92651367,55.3261719 C2.44490819,54.9707013 3.12727441,54.7929688 3.97363281,54.7929688 C4.96387214,54.7929688 5.71606188,55.1516077 6.23022461,55.8688965 C6.74438734,56.5861852 7.00146484,57.6599863 7.00146484,59.090332 C7.00146484,60.0636442 6.92740959,60.9269168 6.77929688,61.6801758 C6.63118416,62.4334348 6.39526529,63.0671361 6.0715332,63.5812988 C5.74780112,64.0954616 5.32991792,64.4868964 4.81787109,64.7556152 C4.30582426,65.024334 3.68587604,65.1586914 2.95800781,65.1586914 C2.61946445,65.1586914 2.2883317,65.1290693 1.96459961,65.0698242 C1.64086752,65.0105791 1.33935687,64.9259446 1.06005859,64.815918 L1.43457031,63.8510742 Z"/>
    <filter id="clock_1-y" width="333%" height="244.7%" x="-116.5%" y="-72.4%" filterUnits="objectBoundingBox">
      <feOffset in="SourceAlpha" result="shadowOffsetOuter1"/>
      <feGaussianBlur in="shadowOffsetOuter1" result="shadowBlurOuter1" stdDeviation="2.5"/>
      <feColorMatrix in="shadowBlurOuter1" values="0 0 0 0 1   0 0 0 0 1   0 0 0 0 1  0 0 0 0.15 0"/>
    </filter>
    <path id="clock_1-B" d="M6.87695312,39.6303711 L6.87695312,31.6640625 L5.00439453,32.6479492 L5.01074219,31.6132812 L7.06738281,30.5532227 L7.95605469,30.5532227 L7.95605469,39.6303711 L9.62548828,39.6303711 L9.62548828,40.5 L5.07421875,40.5 L5.07421875,39.6303711 L6.87695312,39.6303711 Z M12.3876953,39.7446289 C13.0732456,39.7446289 13.5789372,39.4177279 13.9047852,38.763916 C14.2306331,38.1101042 14.3935547,36.9305098 14.3935547,35.2250977 C14.3935547,34.0444277 14.2676608,33.0795936 14.0158691,32.3305664 C13.7640775,31.5815392 13.2192425,31.2070312 12.3813477,31.2070312 C11.5646118,31.2070312 11.016603,31.584713 10.7373047,32.3400879 C10.4580064,33.0954628 10.3204752,34.0952086 10.324707,35.3393555 C10.324707,37.0870856 10.4929182,38.2582164 10.8293457,38.8527832 C11.1657732,39.44735 11.6852178,39.7446289 12.3876953,39.7446289 Z M12.3369141,40.6586914 C11.2620389,40.6586914 10.4675319,40.2090703 9.95336914,39.3098145 C9.43920641,38.4105587 9.18212891,37.0849697 9.18212891,35.3330078 C9.18212891,33.8095627 9.44661194,32.588709 9.97558594,31.6704102 C10.5045599,30.7521113 11.3085884,30.2929688 12.3876953,30.2929688 C13.3990936,30.2929688 14.1766737,30.7055623 14.720459,31.5307617 C15.2642443,32.3559612 15.5361328,33.6847239 15.5361328,35.5170898 C15.5361328,37.2732835 15.2568387,38.5692504 14.6982422,39.4050293 C14.1396456,40.2408082 13.3525441,40.6586914 12.3369141,40.6586914 Z"/>
    <filter id="clock_1-A" width="242.4%" height="244.7%" x="-71.2%" y="-72.4%" filterUnits="objectBoundingBox">
      <feOffset in="SourceAlpha" result="shadowOffsetOuter1"/>
      <feGaussianBlur in="shadowOffsetOuter1" result="shadowBlurOuter1" stdDeviation="2.5"/>
      <feColorMatrix in="shadowBlurOuter1" values="0 0 0 0 1   0 0 0 0 1   0 0 0 0 1  0 0 0 0.15 0"/>
    </filter>
    <path id="clock_1-D" d="M25.8769531,19.6303711 L25.8769531,11.6640625 L24.0043945,12.6479492 L24.0107422,11.6132812 L26.0673828,10.5532227 L26.9560547,10.5532227 L26.9560547,19.6303711 L28.6254883,19.6303711 L28.6254883,20.5 L24.0742188,20.5 L24.0742188,19.6303711 L25.8769531,19.6303711 Z M30.949707,19.6303711 L30.949707,11.6640625 L29.0771484,12.6479492 L29.0834961,11.6132812 L31.1401367,10.5532227 L32.0288086,10.5532227 L32.0288086,19.6303711 L33.6982422,19.6303711 L33.6982422,20.5 L29.1469727,20.5 L29.1469727,19.6303711 L30.949707,19.6303711 Z"/>
    <filter id="clock_1-C" width="254.7%" height="250.8%" x="-77.4%" y="-75.4%" filterUnits="objectBoundingBox">
      <feOffset in="SourceAlpha" result="shadowOffsetOuter1"/>
      <feGaussianBlur in="shadowOffsetOuter1" result="shadowBlurOuter1" stdDeviation="2.5"/>
      <feColorMatrix in="shadowBlurOuter1" values="0 0 0 0 1   0 0 0 0 1   0 0 0 0 1  0 0 0 0.15 0"/>
    </filter>
    <path id="clock_1-F" d="M51.8769531,13.1303711 L51.8769531,5.1640625 L50.0043945,6.14794922 L50.0107422,5.11328125 L52.0673828,4.05322266 L52.9560547,4.05322266 L52.9560547,13.1303711 L54.6254883,13.1303711 L54.6254883,14 L50.0742188,14 L50.0742188,13.1303711 L51.8769531,13.1303711 Z M60.2758789,14 L54.4868164,14 L54.4868164,13.4160156 C54.4868164,13.0309226 54.555582,12.6796891 54.6931152,12.3623047 C54.8306485,12.0449203 55.0126128,11.7486993 55.2390137,11.4736328 C55.4654145,11.1985663 55.72355,10.939373 56.0134277,10.6960449 C56.3033055,10.4527169 56.5984685,10.2146822 56.8989258,9.98193359 C57.199383,9.74918503 57.4945461,9.51538203 57.7844238,9.28051758 C58.0743016,9.04565312 58.332437,8.79915494 58.5588379,8.54101562 C58.7852388,8.28287631 58.9672031,8.00781396 59.1047363,7.71582031 C59.2422696,7.42382667 59.3110352,7.1022153 59.3110352,6.75097656 C59.3110352,6.06965805 59.1565771,5.5607927 58.8476562,5.22436523 C58.5387354,4.88793777 58.0478549,4.71972656 57.375,4.71972656 C57.2268873,4.71972656 57.0724292,4.73453761 56.9116211,4.76416016 C56.750813,4.7937827 56.5910652,4.83821585 56.432373,4.89746094 C56.2736808,4.95670603 56.1202807,5.02970334 55.972168,5.11645508 C55.8240552,5.20320681 55.6865241,5.30371037 55.5595703,5.41796875 L54.9819336,4.67529297 C55.299318,4.40445828 55.6643046,4.18969806 56.0769043,4.03100586 C56.489504,3.87231366 56.9645155,3.79296875 57.5019531,3.79296875 C57.9209005,3.79296875 58.3081037,3.85115502 58.6635742,3.9675293 C59.0190447,4.08390358 59.326903,4.26057824 59.5871582,4.49755859 C59.8474134,4.73453895 60.0505364,5.03287581 60.1965332,5.39257812 C60.34253,5.75228044 60.4155273,6.17122157 60.4155273,6.64941406 C60.4155273,7.05566609 60.3478197,7.42911614 60.2124023,7.76977539 C60.076985,8.11043465 59.8971365,8.42781428 59.6728516,8.72192383 C59.4485666,9.01603337 59.1946629,9.28897986 58.9111328,9.54077148 C58.6276027,9.79256311 58.3377293,10.0348296 58.0415039,10.2675781 C57.7452785,10.5003267 57.4543471,10.7267242 57.1687012,10.9467773 C56.8830552,11.1668305 56.6280936,11.3889963 56.4038086,11.6132812 C56.1795236,11.8375662 55.9986172,12.0692534 55.861084,12.3083496 C55.7235507,12.5474459 55.6547852,12.8024075 55.6547852,13.0732422 L60.2758789,13.0732422 L60.2758789,14 Z"/>
    <filter id="clock_1-E" width="244.1%" height="247%" x="-72%" y="-73.5%" filterUnits="objectBoundingBox">
      <feOffset in="SourceAlpha" result="shadowOffsetOuter1"/>
      <feGaussianBlur in="shadowOffsetOuter1" result="shadowBlurOuter1" stdDeviation="2.5"/>
      <feColorMatrix in="shadowBlurOuter1" values="0 0 0 0 1   0 0 0 0 1   0 0 0 0 1  0 0 0 0.15 0"/>
    </filter>
    <path id="clock_1-H" d="M83,142 L83,151 L81,151 L81,142 L83,142 Z M112.616025,133.528512 L117.116025,141.32274 L115.383975,142.32274 L110.883975,134.528512 L112.616025,133.528512 Z M51.3839746,133.528512 L53.1160254,134.528512 L48.6160254,142.32274 L46.8839746,141.32274 L51.3839746,133.528512 Z M134.028512,111.383975 L141.82274,115.883975 L140.82274,117.616025 L133.028512,113.116025 L134.028512,111.383975 Z M29.9714885,111.383975 L30.9714885,113.116025 L23.1772598,117.616025 L22.1772598,115.883975 L29.9714885,111.383975 Z M150.5,81.5 L150.5,83.5 L141.5,83.5 L141.5,81.5 L150.5,81.5 Z M22.5,81.5 L22.5,83.5 L13.5,83.5 L13.5,81.5 L22.5,81.5 Z M140.82274,47.3839746 L141.82274,49.1160254 L134.028512,53.6160254 L133.028512,51.8839746 L140.82274,47.3839746 Z M23.1772598,47.3839746 L30.9714885,51.8839746 L29.9714885,53.6160254 L22.1772598,49.1160254 L23.1772598,47.3839746 Z M115.383975,22.6772598 L117.116025,23.6772598 L112.616025,31.4714885 L110.883975,30.4714885 L115.383975,22.6772598 Z M48.6160254,22.6772598 L53.1160254,30.4714885 L51.3839746,31.4714885 L46.8839746,23.6772598 L48.6160254,22.6772598 Z M83,14 L83,23 L81,23 L81,14 L83,14 Z"/>
    <filter id="clock_1-G" width="110.9%" height="110.9%" x="-5.5%" y="-5.5%" filterUnits="objectBoundingBox">
      <feOffset in="SourceAlpha" result="shadowOffsetOuter1"/>
      <feGaussianBlur in="shadowOffsetOuter1" result="shadowBlurOuter1" stdDeviation="2.5"/>
      <feColorMatrix in="shadowBlurOuter1" values="0 0 0 0 0.382949375   0 0 0 0 0.481637884   0 0 0 0 0.527692522  0 0 0 1 0"/>
    </filter>
  </defs>
  <g fill="none" fill-rule="evenodd" transform="translate(30 30)">
    <use fill="#000" filter="url(#clock_1-a)" xlink:href="#clock_1-b"/>
    <use fill="url(#clock_1-c)" xlink:href="#clock_1-b"/>
    <use fill="#000" filter="url(#clock_1-d)" xlink:href="#clock_1-e"/>
    <use fill="url(#clock_1-f)" xlink:href="#clock_1-e"/>
    <use fill="url(#clock_1-g)" xlink:href="#clock_1-e" style="mix-blend-mode:overlay"/>
    <use fill="#000" filter="url(#clock_1-h)" xlink:href="#clock_1-e"/>
    <g fill-rule="nonzero" transform="translate(27 24)">
      <use fill="#000" filter="url(#clock_1-i)" xlink:href="#clock_1-j"/>
      <use fill="#9AA4B9" xlink:href="#clock_1-j"/>
      <use fill="#000" filter="url(#clock_1-k)" xlink:href="#clock_1-l"/>
      <use fill="#9AA4B9" xlink:href="#clock_1-l"/>
      <use fill="#000" filter="url(#clock_1-m)" xlink:href="#clock_1-n"/>
      <use fill="#9AA4B9" xlink:href="#clock_1-n"/>
      <use fill="#000" filter="url(#clock_1-o)" xlink:href="#clock_1-p"/>
      <use fill="#9AA4B9" xlink:href="#clock_1-p"/>
      <use fill="#000" filter="url(#clock_1-q)" xlink:href="#clock_1-r"/>
      <use fill="#9AA4B9" xlink:href="#clock_1-r"/>
      <use fill="#000" filter="url(#clock_1-s)" xlink:href="#clock_1-t"/>
      <use fill="#9AA4B9" xlink:href="#clock_1-t"/>
      <use fill="#000" filter="url(#clock_1-u)" xlink:href="#clock_1-v"/>
      <use fill="#9AA4B9" xlink:href="#clock_1-v"/>
      <use fill="#000" filter="url(#clock_1-w)" xlink:href="#clock_1-x"/>
      <use fill="#9AA4B9" xlink:href="#clock_1-x"/>
      <use fill="#000" filter="url(#clock_1-y)" xlink:href="#clock_1-z"/>
      <use fill="#9AA4B9" xlink:href="#clock_1-z"/>
      <use fill="#000" filter="url(#clock_1-A)" xlink:href="#clock_1-B"/>
      <use fill="#9AA4B9" xlink:href="#clock_1-B"/>
      <use fill="#000" filter="url(#clock_1-C)" xlink:href="#clock_1-D"/>
      <use fill="#9AA4B9" xlink:href="#clock_1-D"/>
      <use fill="#000" filter="url(#clock_1-E)" xlink:href="#clock_1-F"/>
      <use fill="#9AA4B9" xlink:href="#clock_1-F"/>
    </g>
    <path fill="#FFF" d="M82,144.231464 C82.2290854,144.231464 82.4307233,144.398456 82.4727035,144.618673 L82.4807038,144.703527 L82.4807038,149.527936 C82.4807038,149.752802 82.3106547,149.950895 82.0864071,149.99214 L82,150 L81.9156378,149.992394 C81.7229998,149.95742 81.5640292,149.80548 81.5272965,149.61279 L81.5192962,149.527936 L81.5192962,144.703527 C81.5192962,144.450553 81.7345146,144.231464 82,144.231464 Z M75.4084974,143.889342 L75.4952531,143.890553 C75.7230836,143.914491 75.9061552,144.101638 75.9248783,144.325035 L75.9239621,144.41026 L75.4194965,149.208241 C75.3959833,149.431875 75.2061521,149.611114 74.9788202,149.6287 L74.8920645,149.627489 L74.8089597,149.61111 C74.6210341,149.556198 74.478822,149.388479 74.4624392,149.193007 L74.4633555,149.107782 L74.9678211,144.309801 C74.9883951,144.114122 75.1363064,143.952432 75.3252574,143.903285 L75.4084974,143.889342 Z M88.5047469,143.890553 C88.7610562,143.863624 89.0049173,144.050516 89.0321789,144.309801 L89.0321789,144.309801 L89.5366445,149.107782 C89.5630969,149.35937 89.3719665,149.599748 89.1079355,149.627489 L89.1079355,149.627489 L89.0232402,149.62874 C88.8001089,149.611993 88.6047361,149.438717 88.5805035,149.208241 L88.5805035,149.208241 L88.0760379,144.41026 C88.0495856,144.158672 88.2407159,143.918294 88.5047469,143.890553 Z M68.9756198,142.861287 L69.0617735,142.871557 C69.2858529,142.91917 69.4483525,143.124421 69.4436135,143.348551 L69.4337908,143.433214 L68.4303864,148.152198 C68.3836177,148.37215 68.1760843,148.530571 67.9481588,148.524307 L67.862005,148.514037 L67.7810682,148.489064 C67.5999139,148.414816 67.4760184,148.233156 67.480165,148.037043 L67.4899878,147.95238 L68.4933921,143.233396 C68.5343147,143.040938 68.6983229,142.89559 68.8913778,142.866456 L68.9756198,142.861287 Z M95.4811339,143.152059 L95.5066079,143.233396 L96.5100122,147.95238 C96.5567809,148.172332 96.4316481,148.401439 96.2208791,148.48839 L96.137995,148.514037 L96.0538944,148.524131 C95.8581919,148.529959 95.671094,148.414379 95.5950875,148.233535 L95.5696136,148.152198 L94.5662092,143.433214 C94.5135945,143.185768 94.6785426,142.926735 94.9382265,142.871557 C95.1623058,142.823944 95.3942693,142.94538 95.4811339,143.152059 Z M62.7700479,141.185639 C62.9879211,141.256406 63.1280683,141.477513 63.0999191,141.699919 L63.0812974,141.783092 L61.5899479,146.371377 C61.5204361,146.585237 61.2974742,146.721105 61.0714523,146.691059 L60.9868444,146.671843 L60.9089622,146.63855 C60.736564,146.54578 60.6323426,146.352169 60.6569731,146.157563 L60.6755949,146.074391 L62.1669444,141.486105 C62.2451452,141.245512 62.5175563,141.103629 62.7700479,141.185639 Z M101.799216,141.407875 L101.833056,141.486105 L103.324405,146.074391 C103.393917,146.288251 103.293426,146.529178 103.092904,146.637676 L103.013156,146.671843 L102.930571,146.69067 C102.73655,146.716915 102.538392,146.621519 102.443891,146.449607 L102.410052,146.371377 L100.918703,141.783092 C100.840502,141.542499 100.97746,141.26765 101.229952,141.185639 C101.447825,141.114873 101.691216,141.211405 101.799216,141.407875 Z M56.6890097,138.851271 C56.8982896,138.944416 57.014549,139.178956 56.963298,139.397203 L56.9360813,139.477974 L54.9731262,143.885291 C54.8816329,144.090716 54.6456853,144.202542 54.4240433,144.149043 L54.3419083,144.121091 L54.2679341,144.079842 C54.1061808,143.969566 54.0227753,143.766126 54.0676199,143.57516 L54.0948366,143.494389 L56.0577917,139.087072 C56.1607217,138.855968 56.4464767,138.743326 56.6890097,138.851271 Z M107.900374,139.012806 L107.942208,139.087072 L109.905163,143.494389 C109.996657,143.699814 109.921909,143.949921 109.73383,144.078778 L109.658092,144.121091 L109.577928,144.148444 C109.387715,144.194819 109.180666,144.120651 109.068708,143.959556 L109.026874,143.885291 L107.063919,139.477974 C106.960989,139.24687 107.068457,138.959216 107.31099,138.851271 C107.52027,138.758126 107.772422,138.828697 107.900374,139.012806 Z M50.8852839,135.894029 C51.0836777,136.008531 51.1747755,136.253934 51.1009842,136.46563 L51.0654708,136.543115 L48.6524166,140.721176 C48.5399441,140.915915 48.293596,141.002474 48.0787623,140.926109 L48,140.889727 L47.9307443,140.840975 C47.7814082,140.714401 47.7197323,140.50336 47.7842997,140.318126 L47.8198131,140.240641 L50.2328673,136.06258 C50.3593989,135.843498 50.6553668,135.761333 50.8852839,135.894029 Z M113.717762,135.993093 L113.767133,136.06258 L116.180187,140.240641 C116.292659,140.435381 116.244474,140.691929 116.070899,140.839732 L116,140.889727 L115.923136,140.925307 C115.738813,140.991304 115.525144,140.939177 115.396954,140.790663 L115.347583,140.721176 L112.934529,136.543115 C112.807998,136.324033 112.884799,136.026725 113.114716,135.894029 C113.31311,135.779526 113.571259,135.823363 113.717762,135.993093 Z M45.4224575,132.346312 C45.6077915,132.480917 45.6727296,132.734495 45.5772064,132.937321 L45.5337854,133.01067 L42.6970701,136.913699 C42.5648508,137.09562 42.3108011,137.155963 42.1051295,137.057567 L42.0306028,137.013156 L41.9668244,136.957433 C41.8315415,136.815949 41.7922712,136.599619 41.8758539,136.422146 L41.919275,136.348797 L44.7559902,132.445768 C44.904737,132.241108 45.2076753,132.190318 45.4224575,132.346312 Z M119.187644,132.381821 L119.24401,132.445768 L122.080725,136.348797 C122.212944,136.530717 122.191849,136.790895 122.03468,136.956025 L121.969397,137.013156 L121.896675,137.056572 C121.720263,137.141467 121.502313,137.111953 121.359296,136.977647 L121.30293,136.913699 L118.466215,133.01067 C118.317468,132.80601 118.36276,132.502305 118.577542,132.346312 C118.762876,132.211706 119.024195,132.228328 119.187644,132.381821 Z M40.3603823,128.24699 C40.5279659,128.39783 40.567471,128.651132 40.4578188,128.841896 L40.4016315,128.919342 L37.1723347,132.504577 C37.024169,132.669074 36.7709156,132.704073 36.5777457,132.591287 L36.4991188,132.533848 L36.4352002,132.46341 C36.323292,132.311913 36.3076947,132.102455 36.4016823,131.938942 L36.4578696,131.861496 L39.6871663,128.276261 C39.8564986,128.088265 40.1630882,128.069408 40.3603823,128.24699 Z M124.241658,128.212306 L124.312834,128.276261 L127.54213,131.861496 C127.690296,132.025993 127.698644,132.281429 127.566244,132.461683 L127.500881,132.533848 L127.424123,132.590031 C127.261705,132.685452 127.051691,132.679064 126.898841,132.568532 L126.827665,132.504577 L123.598369,128.919342 C123.429036,128.731346 123.442324,128.424572 123.639618,128.24699 C123.807201,128.096151 124.063333,128.083353 124.241658,128.212306 Z M35.7545195,123.640977 C35.9054124,123.808502 35.9182146,124.064543 35.7892157,124.242805 L35.725238,124.313956 L32.1387406,127.542116 C31.9741859,127.690229 31.7186602,127.698574 31.538342,127.566221 L31.4661519,127.500881 L31.4099488,127.42415 C31.3144951,127.261789 31.3208852,127.051849 31.4314556,126.899053 L31.4954333,126.827902 L35.0819307,123.599742 C35.2699933,123.43047 35.5768751,123.443752 35.7545195,123.640977 Z M128.840596,123.543575 L128.918069,123.599742 L132.504567,126.827902 C132.669121,126.976016 132.704133,127.22918 132.591307,127.422282 L132.533848,127.500881 L132.463386,127.564777 C132.311835,127.676646 132.102303,127.692238 131.938733,127.598283 L131.861259,127.542116 L128.274762,124.313956 C128.086699,124.144683 128.067836,123.838202 128.245481,123.640977 C128.396373,123.473453 128.649764,123.433961 128.840596,123.543575 Z M31.6553318,118.578737 C31.7899849,118.764005 31.7733572,119.025232 31.6198105,119.188623 L31.5558405,119.244969 L27.6514369,122.080686 C27.4694526,122.212859 27.2091833,122.19177 27.0439946,122.034657 L26.9868444,121.969397 L26.9434127,121.8967 C26.8584876,121.72035 26.8880124,121.502478 27.0223657,121.359511 L27.0863357,121.303165 L30.9907393,118.467448 C31.1954717,118.318754 31.4992834,118.36403 31.6553318,118.578737 Z M132.935886,118.424042 L133.009261,118.467448 L136.913664,121.303165 C137.095649,121.435337 137.156013,121.689298 137.057583,121.894897 L137.013156,121.969397 L136.957414,122.033153 C136.815879,122.168388 136.599473,122.207645 136.421938,122.124092 L136.348563,122.080686 L132.444159,119.244969 C132.239427,119.096275 132.18862,118.793443 132.344668,118.578737 C132.479321,118.393468 132.732988,118.328553 132.935886,118.424042 Z M28.1077309,113.115732 C28.2222736,113.314056 28.1784217,113.572114 28.0086312,113.718566 L27.9391198,113.767919 L23.7595875,116.180123 C23.5647793,116.292556 23.3081409,116.244388 23.1602858,116.070874 L23.1102725,116 L23.0746804,115.923163 C23.0086606,115.738905 23.0608055,115.525311 23.2093722,115.397166 L23.2788836,115.347813 L27.458416,112.935609 C27.6775751,112.809121 27.9749882,112.885896 28.1077309,113.115732 Z M136.464072,112.900108 L136.541584,112.935609 L140.721116,115.347813 C140.915925,115.460246 141.002514,115.706507 140.926121,115.921265 L140.889727,116 L140.840957,116.069231 C140.714339,116.218515 140.503224,116.280169 140.317924,116.215624 L140.240413,116.180123 L136.06088,113.767919 C135.841721,113.641432 135.759526,113.345568 135.892269,113.115732 C136.006812,112.917408 136.252302,112.826342 136.464072,112.900108 Z M25.1505849,107.311817 C25.2437623,107.521023 25.1731668,107.773085 24.9889927,107.900993 L24.9147014,107.942812 L20.5058321,109.905076 C20.3003346,109.996538 20.0501389,109.921816 19.9212372,109.733804 L19.8789089,109.658092 L19.8515462,109.577957 C19.805155,109.38781 19.8793488,109.180835 20.0405011,109.068915 L20.1147924,109.027096 L24.5236617,107.064832 C24.7548464,106.961938 25.0426023,107.069369 25.1505849,107.311817 Z M139.395539,107.037625 L139.476338,107.064832 L143.885208,109.027096 C144.090705,109.118557 144.20257,109.354422 144.149053,109.575986 L144.121091,109.658092 L144.079827,109.73204 C143.969513,109.893736 143.766001,109.977112 143.574967,109.932283 L143.494168,109.905076 L139.085299,107.942812 C138.854114,107.839919 138.741432,107.554264 138.849415,107.311817 C138.942593,107.10261 139.177215,106.986392 139.395539,107.037625 Z M22.816293,101.23058 C22.8870843,101.448376 22.7905185,101.691681 22.5939786,101.799644 L22.5157215,101.833471 L17.9258198,103.324296 C17.7118843,103.393783 17.4708724,103.293328 17.3623365,103.092876 L17.3281569,103.013156 L17.3093234,102.9306 C17.2830692,102.736648 17.3784989,102.538559 17.5504713,102.444092 L17.6287284,102.410264 L22.2186302,100.91944 C22.4593075,100.841267 22.7342535,100.978177 22.816293,101.23058 Z M141.698168,100.900825 L141.78137,100.91944 L146.371272,102.410264 C146.585207,102.479752 146.721123,102.702635 146.691066,102.928578 L146.671843,103.013156 L146.638538,103.09101 C146.545735,103.263348 146.352056,103.367533 146.157382,103.342911 L146.07418,103.324296 L141.484279,101.833471 C141.243601,101.755298 141.101667,101.482983 141.183707,101.23058 C141.254498,101.012783 141.475683,100.872686 141.698168,100.900825 Z M21.1304302,94.9386489 C21.1780598,95.1626493 21.0565817,95.3945312 20.8498294,95.4813652 L20.7684637,95.5068302 L16.0478175,96.5098812 C15.8277881,96.5566335 15.5986006,96.4315447 15.5116195,96.2208499 L15.4859632,96.137995 L15.4758653,96.0539241 C15.4700355,95.8582904 15.5856558,95.6712584 15.766564,95.5952786 L15.8479296,95.5698137 L20.5685758,94.5667626 C20.816109,94.5141664 21.0752327,94.6790564 21.1304302,94.9386489 Z M143.346732,94.5569433 L143.431424,94.5667626 L148.15207,95.5698137 C148.3721,95.6165659 148.530577,95.8240263 148.524311,96.0518715 L148.514037,96.137995 L148.489055,96.2189033 C148.414781,96.3999939 148.233057,96.5238457 148.036875,96.5197005 L147.952182,96.5098812 L143.231536,95.5068302 C142.984003,95.4542339 142.814372,95.1982414 142.86957,94.9386489 C142.911246,94.7426485 143.073656,94.5937784 143.26381,94.5627971 L143.346732,94.5569433 Z M20.1114672,88.5049593 C20.1354131,88.7327095 19.9903537,88.9506277 19.7756542,89.0153821 L19.6920715,89.0322055 L14.8924012,89.5364936 C14.6686885,89.5599985 14.4538364,89.4116468 14.3893632,89.1930174 L14.3725111,89.1079355 L14.3712594,89.02327 C14.3859181,88.8280989 14.520462,88.6541728 14.7083241,88.5975127 L14.7919067,88.5806892 L19.5915771,88.0764012 C19.8432539,88.0499582 20.0837164,88.2410212 20.1114672,88.5049593 Z M144.323168,88.0754853 L144.408423,88.0764012 L149.208093,88.5806892 C149.431806,88.6041941 149.611108,88.7939585 149.628701,89.0212103 L149.627489,89.1079355 L149.611104,89.191011 C149.556173,89.3788705 149.388395,89.5210325 149.192854,89.5374095 L149.107599,89.5364936 L144.307928,89.0322055 C144.056252,89.0057626 143.860782,88.7688974 143.888533,88.5049593 C143.909486,88.3056778 144.05544,88.1406528 144.241312,88.0899716 L144.323168,88.0754853 Z M19.298338,81.5194654 C19.5514012,81.5194654 19.7705678,81.7346081 19.7705678,82 C19.7705678,82.2290048 19.6035164,82.4305716 19.3832219,82.472537 L19.298338,82.4805346 L14.4722298,82.4805346 C14.2472848,82.4805346 14.0491222,82.3105453 14.0078631,82.0863767 L14,82 L14.0076083,81.9156675 C14.0425948,81.7230973 14.1945882,81.5641827 14.3873459,81.527463 L14.4722298,81.5194654 L19.298338,81.5194654 Z M149.52777,81.5194654 C149.752715,81.5194654 149.950878,81.6894547 149.992137,81.9136233 L150,82 L149.992392,82.0843325 C149.957405,82.2769027 149.805412,82.4358173 149.612654,82.472537 L149.52777,82.4805346 L144.701662,82.4805346 C144.448599,82.4805346 144.229432,82.2653919 144.229432,82 C144.229432,81.7709952 144.396484,81.5694284 144.616778,81.527463 L144.701662,81.5194654 L149.52777,81.5194654 Z M14.807146,74.4625905 L14.8924012,74.4635064 L19.6920715,74.9677945 C19.9437484,74.9942374 20.139218,75.2311026 20.1114672,75.4950407 C20.0875212,75.722791 19.900308,75.9057981 19.6768322,75.9245147 L19.5915771,75.9235988 L14.7919067,75.4193108 C14.568194,75.3958059 14.3888919,75.2060415 14.3712992,74.9787897 L14.3725111,74.8920645 L14.3888959,74.808989 C14.4359797,74.6479666 14.5659712,74.5205178 14.7252905,74.4770768 L14.807146,74.4625905 Z M149.610637,74.8069826 L149.627489,74.8920645 L149.628741,74.97673 C149.614082,75.1719011 149.479538,75.3458272 149.291676,75.4024873 L149.208093,75.4193108 L144.408423,75.9235988 C144.156746,75.9500418 143.916284,75.7589788 143.888533,75.4950407 C143.864587,75.2672905 144.009646,75.0493723 144.224346,74.9846179 L144.307928,74.9677945 L149.107599,74.4635064 C149.331312,74.4400015 149.546164,74.5883532 149.610637,74.8069826 Z M15.9631252,67.4802995 L16.0478175,67.4901188 L20.7684637,68.4931698 C21.0159969,68.5457661 21.1856277,68.8017586 21.1304302,69.0613511 C21.0828007,69.2853516 20.8774769,69.447794 20.6532682,69.4430567 L20.5685758,69.4332374 L15.8479296,68.4301863 C15.6279002,68.3834341 15.4694231,68.1759737 15.4756894,67.9481285 L15.4859632,67.862005 L15.510945,67.7810967 C15.5746082,67.6258762 15.7172143,67.5127087 15.8802033,67.4861532 L15.9631252,67.4802995 Z M148.48838,67.7791501 L148.514037,67.862005 L148.524135,67.9460759 C148.529964,68.1417096 148.414344,68.3287416 148.233436,68.4047214 L148.15207,68.4301863 L143.431424,69.4332374 C143.183891,69.4858336 142.924767,69.3209436 142.86957,69.0613511 C142.82194,68.8373507 142.943418,68.6054688 143.150171,68.5186348 L143.231536,68.4931698 L147.952182,67.4901188 C148.172212,67.4433665 148.401399,67.5684553 148.48838,67.7791501 Z M17.8426181,60.6570893 L17.9258198,60.6757045 L22.5157215,62.1665289 C22.7563988,62.2447022 22.8983325,62.5170174 22.816293,62.7694201 C22.7455017,62.9872166 22.5243169,63.1273145 22.3018318,63.0991752 L22.2186302,63.08056 L17.6287284,61.5897356 C17.414793,61.5202482 17.2788773,61.2973648 17.3089339,61.0714225 L17.3281569,60.9868444 L17.3614621,60.9089897 C17.4542647,60.7366521 17.6479437,60.6324674 17.8426181,60.6570893 Z M146.637664,60.9071242 L146.671843,60.9868444 L146.690677,61.0693996 C146.716931,61.2633524 146.621501,61.4614412 146.449529,61.5559081 L146.371272,61.5897356 L141.78137,63.08056 C141.540692,63.1587333 141.265746,63.0218228 141.183707,62.7694201 C141.112916,62.5516236 141.209482,62.3083186 141.406021,62.2003564 L141.484279,62.1665289 L146.07418,60.6757045 C146.288116,60.6062171 146.529128,60.7066725 146.637664,60.9071242 Z M20.4250328,54.0677165 L20.5058321,54.0949236 L24.9147014,56.0571876 C25.1458861,56.1600814 25.2585676,56.4457357 25.1505849,56.6881833 C25.0574075,56.8973896 24.8227849,57.013608 24.604461,56.9623751 L24.5236617,56.935168 L20.1147924,54.972904 C19.9092949,54.8814428 19.7974296,54.6455783 19.8509473,54.4240144 L19.8789089,54.3419083 L19.9201726,54.2679602 C20.0304873,54.1062638 20.2339994,54.0228877 20.4250328,54.0677165 Z M144.078763,54.2661963 L144.121091,54.3419083 L144.148454,54.4220433 C144.194845,54.6121902 144.120651,54.8191655 143.959499,54.9310846 L143.885208,54.972904 L139.476338,56.935168 C139.245154,57.0380618 138.957398,56.9306309 138.849415,56.6881833 C138.756238,56.478977 138.826833,56.2269145 139.011007,56.099007 L139.085299,56.0571876 L143.494168,54.0949236 C143.699665,54.0034624 143.949861,54.0781837 144.078763,54.2661963 Z M23.6820756,47.7843757 L23.7595875,47.8198766 L27.9391198,50.2320811 C28.1582789,50.3585682 28.2404736,50.6544319 28.1077309,50.8842681 C27.9931882,51.082592 27.7476985,51.1736577 27.5359278,51.0998924 L27.458416,51.0643915 L23.2788836,48.6521869 C23.0840755,48.539754 22.9974862,48.2934926 23.0738787,48.0787346 L23.1102725,48 L23.1590426,47.9307687 C23.2856608,47.7814851 23.4967763,47.719831 23.6820756,47.7843757 Z M140.839714,47.9291258 L140.889727,48 L140.92532,48.0768369 C140.991339,48.2610947 140.939194,48.4746887 140.790628,48.6028338 L140.721116,48.6521869 L136.541584,51.0643915 C136.322425,51.1908785 136.025012,51.1141042 135.892269,50.8842681 C135.777726,50.6859441 135.821578,50.4278858 135.991369,50.2814343 L136.06088,50.2320811 L140.240413,47.8198766 C140.435221,47.7074437 140.691859,47.7556123 140.839714,47.9291258 Z M136.956005,41.9653428 L137.013156,42.0306028 L137.056587,42.1032997 C137.141512,42.2796496 137.111988,42.4975223 136.977634,42.6404894 L136.913664,42.6968355 L133.009261,45.532552 C132.804528,45.6812464 132.500717,45.6359699 132.344668,45.4212633 C132.210015,45.2359946 132.226643,44.9747678 132.380189,44.8113768 L132.444159,44.7550307 L136.348563,41.9193142 C136.530547,41.7871413 136.790817,41.8082295 136.956005,41.9653428 Z M27.5780619,41.8759084 L27.6514369,41.9193142 L31.5558405,44.7550307 C31.7605729,44.9037251 31.8113802,45.2065567 31.6553318,45.4212633 C31.5206788,45.6065321 31.2670116,45.6714473 31.0641143,45.5759578 L30.9907393,45.532552 L27.0863357,42.6968355 C26.9043513,42.5646627 26.8439868,42.3107024 26.942417,42.1051033 L26.9868444,42.0306028 L27.0425865,41.9668469 C27.1841209,41.8316116 27.4005268,41.7923551 27.5780619,41.8759084 Z M132.461658,36.4337791 L132.533848,36.4991188 L132.590051,36.5758496 C132.685505,36.7382108 132.679115,36.948151 132.568544,37.1009468 L132.504567,37.1720977 L128.918069,40.4002575 C128.730007,40.5695302 128.423125,40.5562475 128.245481,40.3590229 C128.094588,40.1914983 128.081785,39.9354565 128.210784,39.7571949 L128.274762,39.6860439 L131.861259,36.4578841 C132.025814,36.3097705 132.28134,36.3014259 132.461658,36.4337791 Z M32.061267,36.4017166 L32.1387406,36.4578841 L35.725238,39.6860439 C35.9133006,39.8553166 35.9321639,40.1617982 35.7545195,40.3590229 C35.6036265,40.5265475 35.3502359,40.5660386 35.1594043,40.4564251 L35.0819307,40.4002575 L31.4954333,37.1720977 C31.3308786,37.0239841 31.295867,36.7708199 31.4086932,36.5777181 L31.4661519,36.4991188 L31.5366144,36.4352227 C31.6881654,36.3233539 31.8976971,36.3077621 32.061267,36.4017166 Z M127.422254,31.4087134 L127.500881,31.4661519 L127.5648,31.5365896 C127.676708,31.6880873 127.692305,31.8975451 127.598318,32.0610575 L127.54213,32.1385038 L124.312834,35.7237385 C124.143501,35.9117349 123.836912,35.9305915 123.639618,35.7530097 C123.472034,35.6021698 123.432529,35.3488684 123.542181,35.158104 L123.598369,35.0806577 L126.827665,31.495423 C126.975831,31.3309262 127.229084,31.295927 127.422254,31.4087134 Z M37.1011587,31.4314678 L37.1723347,31.495423 L40.4016315,35.0806577 C40.5709638,35.2686541 40.5576764,35.5754278 40.3603823,35.7530097 C40.1927987,35.9038495 39.9366668,35.9166471 39.7583424,35.7876937 L39.6871663,35.7237385 L36.4578696,32.1385038 C36.3097038,31.974007 36.3013563,31.7185713 36.4337561,31.5383166 L36.4991188,31.4661519 L36.5758766,31.4099686 C36.738295,31.3145485 36.9483092,31.3209363 37.1011587,31.4314678 Z M42.6407042,27.0223532 L42.6970701,27.0863006 L45.5337854,30.9893296 C45.6825322,31.1939899 45.6372397,31.4976947 45.4224575,31.6536882 C45.2371235,31.7882938 44.9758047,31.7716719 44.8123562,31.6181794 L44.7559902,31.5542319 L41.919275,27.651203 C41.7870556,27.4692827 41.8081512,27.209105 41.9653198,27.0439745 L42.0306028,26.9868444 L42.1033253,26.943428 C42.2797373,26.8585328 42.4976867,26.8880472 42.6407042,27.0223532 Z M121.89487,26.9424326 L121.969397,26.9868444 L122.033176,27.0425668 C122.168458,27.1840515 122.207729,27.4003811 122.124146,27.5778537 L122.080725,27.651203 L119.24401,31.5542319 C119.095263,31.7588922 118.792325,31.8096816 118.577542,31.6536882 C118.392208,31.5190825 118.32727,31.2655047 118.422794,31.0626788 L118.466215,30.9893296 L121.30293,27.0863006 C121.435149,26.9043804 121.689199,26.8440371 121.89487,26.9424326 Z M48.6030461,23.2093373 L48.6524166,23.2788242 L51.0654708,27.4568851 C51.1920023,27.6759671 51.115201,27.9732754 50.8852839,28.1059714 C50.6868901,28.2204738 50.4287409,28.1766374 50.2822378,28.0069066 L50.2328673,27.9374197 L47.8198131,23.7593588 C47.7073406,23.5646193 47.7555262,23.3080713 47.9291008,23.1602682 L48,23.1102725 L48.0768639,23.0746929 C48.2611866,23.0086964 48.4748559,23.0608229 48.6030461,23.2093373 Z M115.921238,23.0738915 L116,23.1102725 L116.069256,23.1590254 C116.218592,23.2855991 116.280268,23.4966402 116.2157,23.6818743 L116.180187,23.7593588 L113.767133,27.9374197 C113.640601,28.1565017 113.344633,28.2386674 113.114716,28.1059714 C112.916322,27.991469 112.825225,27.7460657 112.899016,27.5343696 L112.934529,27.4568851 L115.347583,23.2788242 C115.460056,23.0840847 115.706404,22.9975259 115.921238,23.0738915 Z M109.575957,19.8509571 L109.658092,19.8789089 L109.732066,19.920158 C109.893819,20.0304339 109.977225,20.2338744 109.93238,20.4248405 L109.905163,20.5056114 L107.942208,24.9129284 C107.839278,25.1440317 107.553523,25.2566735 107.31099,25.1487289 C107.10171,25.0555843 106.985451,24.8210443 107.036702,24.6027973 L107.063919,24.5220264 L109.026874,20.1147093 C109.118367,19.9092842 109.354315,19.7974582 109.575957,19.8509571 Z M54.9312921,20.0404442 L54.9731262,20.1147093 L56.9360813,24.5220264 C57.0390114,24.7531297 56.9315426,25.0407843 56.6890097,25.1487289 C56.4797297,25.2418735 56.2275784,25.1713028 56.0996258,24.9871935 L56.0577917,24.9129284 L54.0948366,20.5056114 C54.0033432,20.3001862 54.0780909,20.0500786 54.2661697,19.9212223 L54.3419083,19.8789089 L54.4220715,19.8515558 C54.6122854,19.805181 54.8193336,19.8793486 54.9312921,20.0404442 Z M61.5561085,17.550393 L61.5899479,17.6286226 L63.0812974,22.2169083 C63.1594982,22.457501 63.0225395,22.7323502 62.7700479,22.8143608 C62.5521747,22.8851272 62.308784,22.7885953 62.2007838,22.5921246 L62.1669444,22.5138951 L60.6755949,17.9256093 C60.606083,17.7117492 60.7065738,17.4708222 60.9070962,17.3623244 L60.9868444,17.3281569 L61.0694287,17.30933 C61.2634498,17.283085 61.4616083,17.3784812 61.5561085,17.550393 Z M102.928548,17.3089407 L103.013156,17.3281569 L103.091038,17.3614504 C103.263436,17.4542203 103.367657,17.6478311 103.343027,17.842437 L103.324405,17.9256093 L101.833056,22.5138951 C101.754855,22.7544877 101.482444,22.8963714 101.229952,22.8143608 C101.012079,22.7435944 100.871932,22.5224874 100.900081,22.3000807 L100.918703,22.2169083 L102.410052,17.6286226 C102.479564,17.4147625 102.702526,17.2788946 102.928548,17.3089407 Z M67.9461056,15.4758688 C68.1418081,15.4700412 68.328906,15.5856207 68.4049125,15.7664652 L68.4303864,15.8478022 L69.4337908,20.5667864 C69.4864055,20.8142324 69.3214574,21.0732649 69.0617735,21.128443 C68.8376942,21.1760557 68.6057307,21.0546204 68.5188661,20.8479409 L68.4933921,20.7666039 L67.4899878,16.0476197 C67.4432191,15.8276677 67.5683519,15.598561 67.7791209,15.5116105 L67.862005,15.4859632 L67.9461056,15.4758688 Z M96.0518412,15.475693 L96.137995,15.4859632 L96.2189318,15.5109362 C96.4000861,15.5851838 96.5239816,15.7668437 96.519835,15.9629572 L96.5100122,16.0476197 L95.5066079,20.7666039 C95.4539931,21.0140499 95.1979104,21.183621 94.9382265,21.128443 C94.7141471,21.0808302 94.5516475,20.8755786 94.5563865,20.6514489 L94.5662092,20.5667864 L95.5696136,15.8478022 C95.6105362,15.6553442 95.7745443,15.5099957 95.9675992,15.4808622 L96.0518412,15.475693 Z M74.9767598,14.3712599 C75.1719997,14.3859134 75.345987,14.5204099 75.4026671,14.7082059 L75.4194965,14.7917591 L75.9239621,19.5897396 C75.9504144,19.8413278 75.7592841,20.0817056 75.4952531,20.1094466 C75.2674226,20.1333841 75.0494277,19.9883758 74.9846505,19.7737519 L74.9678211,19.6901987 L74.4633555,14.8922182 C74.4398423,14.6685842 74.5882463,14.4538078 74.8069526,14.3893573 L74.8920645,14.3725111 L74.9767598,14.3712599 Z M89.0211798,14.3712996 L89.1079355,14.3725111 L89.1910403,14.3888902 C89.3789659,14.4438019 89.521178,14.6115206 89.5375608,14.806993 L89.5366445,14.8922182 L89.0321789,19.6901987 C89.0057266,19.9417869 88.768778,20.1371876 88.5047469,20.1094466 C88.2769164,20.0855091 88.0938448,19.8983618 88.0751217,19.6749647 L88.0760379,19.5897396 L88.5805035,14.7917591 C88.6010776,14.5960793 88.7489888,14.4343896 88.9379398,14.385243 L89.0211798,14.3712996 Z M82,14 L82.0843622,14.0076056 C82.2770002,14.0425798 82.4359708,14.1945197 82.4727035,14.3872095 L82.4807038,14.4720635 L82.4807038,19.2964726 C82.4807038,19.5494467 82.2654854,19.7685362 82,19.7685362 C81.7709146,19.7685362 81.5692767,19.6015435 81.5272965,19.3813267 L81.5192962,19.2964726 L81.5192962,14.4720635 C81.5192962,14.2190895 81.7345146,14 82,14 Z" style="mix-blend-mode:soft-light"/>
    <circle cx="82" cy="83" r="4.25" stroke="#000" stroke-opacity=".1" stroke-width=".5"/>
    <use fill="#000" filter="url(#clock_1-G)" xlink:href="#clock_1-H"/>
    <use fill="#FFF" xlink:href="#clock_1-H"/>
  </g>
</svg>
