<svg xmlns="http://www.w3.org/2000/svg" xmlns:xlink="http://www.w3.org/1999/xlink" width="224" height="224" viewBox="0 0 224 224">
  <defs>
    <linearGradient id="clock_2-c" x1="50%" x2="50%" y1="0%" y2="100%">
      <stop offset="0%" stop-color="#E0E7E9"/>
      <stop offset="100%" stop-color="#BBC7D2"/>
    </linearGradient>
    <path id="clock_2-b" d="M82,164 C127.287352,164 164,127.287352 164,82 C164,36.7126483 127.287352,0 82,0 C36.7126483,0 0,36.7126483 0,82 C0,127.287352 36.7126483,164 82,164 Z"/>
    <filter id="clock_2-a" width="136.6%" height="137.2%" x="-18.3%" y="-9.8%" filterUnits="objectBoundingBox">
      <feOffset dy="3" in="SourceAlpha" result="shadowOffsetOuter1"/>
      <feGaussianBlur in="shadowOffsetOuter1" result="shadowBlurOuter1" stdDeviation="2"/>
      <feColorMatrix in="shadowBlurOuter1" result="shadowMatrixOuter1" values="0 0 0 0 0   0 0 0 0 0   0 0 0 0 0  0 0 0 0.1 0"/>
      <feOffset dy="15" in="SourceAlpha" result="shadowOffsetOuter2"/>
      <feGaussianBlur in="shadowOffsetOuter2" result="shadowBlurOuter2" stdDeviation="7.5"/>
      <feColorMatrix in="shadowBlurOuter2" result="shadowMatrixOuter2" values="0 0 0 0 0.22745098   0 0 0 0 0.298039216   0 0 0 0 0.341176471  0 0 0 0.1 0"/>
      <feMerge>
        <feMergeNode in="shadowMatrixOuter1"/>
        <feMergeNode in="shadowMatrixOuter2"/>
      </feMerge>
    </filter>
    <linearGradient id="clock_2-d" x1="50%" x2="50%" y1="0%" y2="99.789%">
      <stop offset="0%" stop-color="#FBFBFB"/>
      <stop offset="100%" stop-color="#DDE5EA"/>
    </linearGradient>
    <path id="clock_2-f" d="M83.6083984,129.792969 C83.9469418,129.792969 84.2791325,129.822591 84.6049805,129.881836 C84.9308285,129.941081 85.233397,130.025716 85.5126953,130.135742 L85.1318359,131.100586 C85.0218093,131.049804 84.8980313,131.000082 84.760498,130.951416 C84.6229648,130.90275 84.4780281,130.861491 84.3256836,130.827637 C84.1733391,130.793782 84.018881,130.766276 83.8623047,130.745117 C83.7057284,130.723958 83.5512703,130.713379 83.3989258,130.713379 C82.9926737,130.713379 82.6393244,130.79484 82.3388672,130.957764 C82.03841,131.120688 81.7823904,131.355549 81.5708008,131.662354 C81.3592112,131.969158 81.1878262,132.344724 81.0566406,132.789062 C80.9254551,133.233401 80.8260095,133.758135 80.7583008,134.363281 C80.9741222,134.143228 81.2618797,133.957032 81.621582,133.804688 C81.9812844,133.652343 82.3896462,133.576172 82.8466797,133.576172 C83.633793,133.576172 84.2484516,133.728514 84.6906738,134.033203 C85.1328961,134.337892 85.461913,134.709226 85.6777344,135.147217 C85.8935558,135.585207 86.0014648,136.127926 86.0014648,136.775391 C86.0014648,137.824875 85.7084176,138.65112 85.1223145,139.25415 C84.5362113,139.857181 83.6930394,140.158691 82.5927734,140.158691 C81.6067659,140.158691 80.8556341,139.800052 80.3393555,139.082764 C79.8230768,138.365475 79.5649414,137.29379 79.5649414,135.867676 C79.5649414,134.898595 79.6400546,134.035323 79.7902832,133.277832 C79.9405118,132.520341 80.1774886,131.884524 80.5012207,131.370361 C80.8249528,130.856199 81.242836,130.464764 81.7548828,130.196045 C82.2669296,129.927326 82.884762,129.792969 83.6083984,129.792969 Z M82.7705078,134.496582 C82.3007789,134.496582 81.9040544,134.559 81.5803223,134.683838 C81.2565902,134.808676 80.9741223,135.029784 80.7329102,135.347168 C80.7075194,135.419108 80.6895346,135.493164 80.6789551,135.569336 C80.6683756,135.645508 80.6609701,135.721679 80.6567383,135.797852 C80.6525065,135.874024 80.6514486,135.949137 80.6535645,136.023193 C80.6556803,136.09725 80.6567383,136.163899 80.6567383,136.223145 C80.6482747,136.769046 80.7011713,137.234536 80.8154297,137.619629 C80.9296881,138.004722 81.0830882,138.31787 81.2756348,138.559082 C81.4681813,138.800294 81.6924629,138.975911 81.9484863,139.085938 C82.2045097,139.195964 82.4700507,139.250977 82.7451172,139.250977 C83.0413426,139.250977 83.3576643,139.182211 83.6940918,139.044678 C84.0305193,138.907144 84.3235665,138.655357 84.5732422,138.289307 C84.8229179,137.923257 84.9477539,137.429202 84.9477539,136.807129 C84.9477539,136.447427 84.8885097,136.091961 84.7700195,135.740723 C84.6515294,135.389484 84.4251319,135.094321 84.0908203,134.855225 C83.7565087,134.616128 83.316409,134.496582 82.7705078,134.496582 Z M59.8808594,124.053223 L59.8808594,124.770508 L55.9262695,134 L54.8662109,134 L58.8271484,124.967285 L53.6220703,124.967285 L53.6220703,124.053223 L59.8808594,124.053223 Z M111.214355,123.553223 L111.214355,124.499023 L107.335938,124.499023 L107.335938,127.241211 C107.568686,127.118489 107.820474,127.034912 108.091309,126.990479 C108.362143,126.946045 108.613931,126.923828 108.84668,126.923828 C109.346031,126.923828 109.800942,127.011636 110.211426,127.187256 C110.62191,127.362875 110.994302,127.700356 111.328613,128.199707 C111.662925,128.699058 111.830078,129.393062 111.830078,130.281738 C111.830078,131.216964 111.521162,132.013587 110.90332,132.671631 C110.285479,133.329675 109.494145,133.658691 108.529297,133.658691 C108.224608,133.658691 107.933677,133.632243 107.656494,133.579346 C107.379312,133.526448 107.12964,133.465088 106.907471,133.395264 C106.685302,133.325439 106.49699,133.2535 106.342529,133.179443 C106.188069,133.105387 106.083334,133.047201 106.02832,133.004883 L106.498047,132.109863 C107.382491,132.516115 108.097654,132.719238 108.643555,132.719238 C109.240237,132.719238 109.734292,132.482261 110.125732,132.008301 C110.517173,131.53434 110.712891,130.948246 110.712891,130.25 C110.712891,129.649086 110.606039,129.162437 110.392334,128.790039 C110.178628,128.417641 109.935304,128.159506 109.662354,128.015625 C109.389403,127.871744 109.081545,127.799805 108.73877,127.799805 C108.357908,127.799805 108.010907,127.851643 107.697754,127.955322 C107.384601,128.059001 107.120118,128.222981 106.904297,128.447266 L106.32666,128.447266 L106.320312,123.553223 L111.214355,123.553223 Z M37.8212891,104.292969 C38.2063821,104.292969 38.5808901,104.341634 38.9448242,104.438965 C39.3087583,104.536296 39.6303697,104.685464 39.909668,104.886475 C40.1889662,105.087485 40.4132479,105.344562 40.5825195,105.657715 C40.7517912,105.970867 40.8364258,106.34326 40.8364258,106.774902 C40.8364258,107.066896 40.785645,107.334553 40.684082,107.577881 C40.582519,107.821209 40.4418141,108.040201 40.2619629,108.234863 C40.0821117,108.429526 39.8705253,108.599853 39.6271973,108.74585 C39.3838692,108.891846 39.12256,109.013509 38.8432617,109.11084 C39.1987322,109.258953 39.5203436,109.415527 39.8081055,109.580566 C40.0958673,109.745606 40.3413076,109.93286 40.5444336,110.142334 C40.7475596,110.351808 40.9041336,110.588784 41.0141602,110.853271 C41.1241867,111.117758 41.1791992,111.43408 41.1791992,111.802246 C41.1791992,112.170412 41.135824,112.496255 41.0490723,112.779785 C40.9623205,113.063315 40.8406583,113.310871 40.684082,113.522461 C40.5275057,113.734051 40.3434255,113.911783 40.1318359,114.055664 C39.9202463,114.199545 39.6906751,114.316975 39.4431152,114.407959 C39.1955554,114.498943 38.9342462,114.563476 38.6591797,114.601562 C38.3841132,114.639649 38.106935,114.658691 37.8276367,114.658691 C37.3832986,114.658691 36.9622416,114.607911 36.5644531,114.506348 C36.1666647,114.404785 35.8175471,114.240805 35.5170898,114.014404 C35.2166326,113.788003 34.9785979,113.49284 34.8029785,113.128906 C34.6273591,112.764972 34.5395508,112.318525 34.5395508,111.789551 C34.5395508,111.446776 34.5903315,111.143149 34.6918945,110.878662 C34.7934575,110.614175 34.9341625,110.370851 35.1140137,110.148682 C35.2938648,109.926513 35.5086251,109.722332 35.7583008,109.536133 C36.0079765,109.349934 36.2830389,109.176433 36.5834961,109.015625 C36.3041978,108.871744 36.0555838,108.726807 35.8376465,108.580811 C35.6197092,108.434814 35.4366869,108.271892 35.2885742,108.092041 C35.1404615,107.91219 35.0272628,107.711183 34.9489746,107.489014 C34.8706865,107.266845 34.831543,107.007651 34.831543,106.711426 C34.831543,106.288247 34.9172355,105.92326 35.088623,105.616455 C35.2600106,105.30965 35.4853502,105.05892 35.7646484,104.864258 C36.0439467,104.669595 36.3623843,104.525717 36.7199707,104.432617 C37.0775571,104.339518 37.4446596,104.292969 37.8212891,104.292969 Z M129.055664,104.053223 L129.055664,110.299316 L130.058594,110.299316 L130.064941,111.219727 L129.062012,111.219727 L129.055664,114 L127.98291,114 L127.98291,111.219727 L123.615723,111.219727 L123.609375,110.584961 L128.128906,104.053223 L129.055664,104.053223 Z M37.3007812,109.466309 C37.0638009,109.601726 36.8416352,109.737141 36.6342773,109.872559 C36.4269195,110.007976 36.2470711,110.162434 36.0947266,110.335938 C35.9423821,110.509441 35.8217778,110.70939 35.7329102,110.935791 C35.6440425,111.162192 35.5996094,111.446776 35.5996094,111.789551 C35.5996094,112.102703 35.6567377,112.383055 35.7709961,112.630615 C35.8852545,112.878175 36.0439443,113.086588 36.2470703,113.255859 C36.4501963,113.425131 36.6903469,113.554199 36.9675293,113.643066 C37.2447117,113.731934 37.5441065,113.776367 37.8657227,113.776367 C38.1831071,113.776367 38.4793281,113.737224 38.7543945,113.658936 C39.029461,113.580647 39.2685537,113.460043 39.4716797,113.297119 C39.6748057,113.134195 39.8334955,112.930014 39.9477539,112.68457 C40.0620123,112.439126 40.1191406,112.151369 40.1191406,111.821289 C40.1191406,111.546223 40.0747075,111.310304 39.9858398,111.113525 C39.8969722,110.916747 39.7774259,110.74113 39.6271973,110.58667 C39.4769686,110.43221 39.3045257,110.296794 39.1098633,110.18042 C38.9152008,110.064046 38.7131358,109.961426 38.5036621,109.872559 C38.2941884,109.783691 38.0857758,109.70752 37.878418,109.644043 C37.6710602,109.580566 37.4785165,109.521322 37.3007812,109.466309 Z M127.98291,105.595703 L124.713867,110.305664 L127.98291,110.305664 L127.98291,105.595703 Z M37.8212891,105.162598 C37.5758451,105.162598 37.3356945,105.19222 37.1008301,105.251465 C36.8659656,105.31071 36.6564951,105.404866 36.4724121,105.533936 C36.2883292,105.663005 36.1402187,105.829101 36.0280762,106.032227 C35.9159337,106.235353 35.8598633,106.478677 35.8598633,106.762207 C35.8598633,107.045737 35.9275709,107.291177 36.0629883,107.498535 C36.1984056,107.705893 36.3697906,107.885741 36.5771484,108.038086 C36.7845062,108.19043 37.0119617,108.321614 37.2595215,108.431641 C37.5070813,108.541667 37.7430002,108.641113 37.9672852,108.72998 C38.2508152,108.603027 38.5057769,108.464438 38.7321777,108.314209 C38.9585786,108.16398 39.1511223,108.008464 39.3098145,107.847656 C39.4685067,107.686848 39.5912268,107.521811 39.6779785,107.352539 C39.7647303,107.183267 39.8081055,107.013998 39.8081055,106.844727 C39.8081055,106.552733 39.753093,106.300945 39.6430664,106.089355 C39.5330398,105.877766 39.3870452,105.703207 39.2050781,105.565674 C39.0231111,105.428141 38.8125826,105.326579 38.5734863,105.260986 C38.3343901,105.195394 38.0836602,105.162598 37.8212891,105.162598 Z M133.934082,78.7929688 C134.327639,78.7929688 134.704263,78.8384598 135.063965,78.9294434 C135.423667,79.0204269 135.741047,79.1600739 136.016113,79.3483887 C136.29118,79.5367034 136.510172,79.7757961 136.673096,80.0656738 C136.83602,80.3555516 136.91748,80.6993795 136.91748,81.097168 C136.91748,81.4314795 136.862468,81.7287585 136.752441,81.9890137 C136.642415,82.2492689 136.497478,82.4735505 136.317627,82.6618652 C136.137776,82.85018 135.933595,83.005696 135.705078,83.128418 C135.476561,83.2511399 135.243816,83.3421221 135.006836,83.4013672 C135.349611,83.4521487 135.665933,83.5378412 135.955811,83.6584473 C136.245688,83.7790533 136.497476,83.9451487 136.711182,84.1567383 C136.924887,84.3683279 137.090982,84.630695 137.209473,84.9438477 C137.327963,85.2570003 137.387207,85.6336241 137.387207,86.0737305 C137.387207,86.6153998 137.295167,87.08089 137.111084,87.4702148 C136.927001,87.8595397 136.66675,88.1790352 136.330322,88.4287109 C135.993895,88.6783867 135.589765,88.8624669 135.11792,88.980957 C134.646075,89.0994472 134.122399,89.1586914 133.546875,89.1586914 C133.339517,89.1586914 133.126873,89.1428224 132.908936,89.111084 C132.690998,89.0793455 132.48047,89.0349124 132.277344,88.9777832 C132.074218,88.920654 131.882732,88.8508305 131.702881,88.7683105 C131.52303,88.6857906 131.367514,88.5937505 131.236328,88.4921875 L131.731445,87.6289062 C132.057293,87.8489594 132.370441,88.0139968 132.670898,88.1240234 C132.971356,88.23405 133.284504,88.2890625 133.610352,88.2890625 C134.50326,88.2890625 135.167641,88.109214 135.603516,87.7495117 C136.03939,87.3898094 136.257324,86.8312212 136.257324,86.0737305 C136.257324,85.6886374 136.199138,85.3596205 136.082764,85.0866699 C135.966389,84.8137193 135.795004,84.5904957 135.568604,84.4169922 C135.342203,84.2434887 135.065024,84.1165369 134.737061,84.0361328 C134.409097,83.9557288 134.033531,83.9155273 133.610352,83.9155273 L133.051758,83.9155273 L133.051758,83.1474609 L133.216797,83.1474609 C133.614585,83.1474609 133.973224,83.1062016 134.292725,83.0236816 C134.612225,82.9411617 134.884113,82.8173836 135.108398,82.6523438 C135.332683,82.4873039 135.505126,82.2799492 135.625732,82.0302734 C135.746338,81.7805977 135.806641,81.4907243 135.806641,81.1606445 C135.806641,80.9405913 135.766439,80.7385263 135.686035,80.5544434 C135.605631,80.3703604 135.483969,80.2116706 135.321045,80.0783691 C135.158121,79.9450677 134.954998,79.8424483 134.71167,79.7705078 C134.468342,79.6985673 134.185874,79.6625977 133.864258,79.6625977 C133.678059,79.6625977 133.489747,79.6848142 133.299316,79.729248 C133.108886,79.7736819 132.929037,79.8286943 132.759766,79.8942871 C132.590494,79.9598799 132.437094,80.0328772 132.299561,80.1132812 C132.162027,80.1936853 132.05306,80.2698564 131.972656,80.3417969 L131.458496,79.5991211 C131.581218,79.5144853 131.727213,79.424561 131.896484,79.3293457 C132.065756,79.2341304 132.255126,79.1473799 132.4646,79.0690918 C132.674073,78.9908036 132.901529,78.9252119 133.146973,78.8723145 C133.392417,78.8194171 133.654784,78.7929688 133.934082,78.7929688 Z M30.9736328,78.7929688 C31.9638721,78.7929688 32.7160619,79.1516077 33.2302246,79.8688965 C33.7443873,80.5861852 34.0014648,81.6599863 34.0014648,83.090332 C34.0014648,84.0636442 33.9274096,84.9269168 33.7792969,85.6801758 C33.6311842,86.4334348 33.3952653,87.0671361 33.0715332,87.5812988 C32.7478011,88.0954616 32.3299179,88.4868964 31.8178711,88.7556152 C31.3058243,89.024334 30.685876,89.1586914 29.9580078,89.1586914 C29.6194645,89.1586914 29.2883317,89.1290693 28.9645996,89.0698242 C28.6408675,89.0105791 28.3393569,88.9259446 28.0600586,88.815918 L28.4345703,87.8510742 C28.8662131,88.0372731 29.22591,88.1483559 29.5136719,88.1843262 C29.8014337,88.2202964 30.0193677,88.2382812 30.1674805,88.2382812 C30.5737325,88.2382812 30.9281398,88.1568205 31.2307129,87.9938965 C31.533286,87.8309725 31.7903635,87.5961116 32.0019531,87.2893066 C32.2135427,86.9825017 32.3849277,86.6079937 32.5161133,86.1657715 C32.6472988,85.7235492 32.7446286,85.2231473 32.8081055,84.6645508 C32.7065425,84.7661138 32.5774747,84.8602697 32.4208984,84.9470215 C32.2643221,85.0337732 32.0918792,85.1088864 31.9035645,85.1723633 C31.7152497,85.2358402 31.5195323,85.2866209 31.3164062,85.324707 C31.1132802,85.3627932 30.9165049,85.3818359 30.7260742,85.3818359 C30.2309546,85.3818359 29.787681,85.3088386 29.3962402,85.1628418 C29.0047995,85.016845 28.6736667,84.8063165 28.402832,84.53125 C28.1319973,84.2561835 27.9246426,83.920819 27.7807617,83.5251465 C27.6368808,83.1294739 27.5649414,82.6819686 27.5649414,82.1826172 C27.5649414,81.6621068 27.6622712,81.144778 27.8569336,80.6306152 C28.051596,80.1164525 28.4081192,79.6816424 28.9265137,79.3261719 C29.4449082,78.9707013 30.1272744,78.7929688 30.9736328,78.7929688 Z M30.8212891,79.7006836 C30.5250636,79.7006836 30.2150895,79.7609857 29.8913574,79.8815918 C29.5676253,80.0021979 29.2756361,80.2550436 29.0153809,80.6401367 C28.7551257,81.0252298 28.625,81.5288055 28.625,82.1508789 C28.625,82.7348662 28.7381987,83.2045881 28.9645996,83.5600586 C29.1910005,83.9155291 29.463947,84.1546218 29.7834473,84.2773438 C30.1029476,84.4000657 30.4404279,84.4614258 30.7958984,84.4614258 C31.1259782,84.4656576 31.4179675,84.4370934 31.671875,84.3757324 C31.9257825,84.3143714 32.1532379,84.211752 32.354248,84.0678711 C32.5552582,83.9239902 32.7171218,83.7716479 32.8398438,83.6108398 C32.8906253,83.3569323 32.9138998,83.0649431 32.909668,82.7348633 C32.9181316,82.1847303 32.8652349,81.7171243 32.7509766,81.3320312 C32.6367182,80.9469382 32.483318,80.6337903 32.2907715,80.3925781 C32.0982249,80.151366 31.8739433,79.9757492 31.6179199,79.8657227 C31.3618965,79.7556961 31.0963555,79.7006836 30.8212891,79.7006836 Z M39.3876953,54.2929688 C40.3990936,54.2929688 41.1766737,54.7055623 41.720459,55.5307617 C42.2642443,56.3559612 42.5361328,57.6847239 42.5361328,59.5170898 C42.5361328,61.2732835 42.2568387,62.5692504 41.6982422,63.4050293 C41.1396456,64.2408082 40.3525441,64.6586914 39.3369141,64.6586914 C38.2620389,64.6586914 37.4675319,64.2090703 36.9533691,63.3098145 C36.4392064,62.4105587 36.1821289,61.0849697 36.1821289,59.3330078 C36.1821289,57.8095627 36.4466119,56.588709 36.9755859,55.6704102 C37.5045599,54.7521113 38.3085884,54.2929688 39.3876953,54.2929688 Z M126.929199,54.2929688 C127.348147,54.2929688 127.73535,54.351155 128.09082,54.4675293 C128.446291,54.5839036 128.754149,54.7605782 129.014404,54.9975586 C129.27466,55.2345389 129.477782,55.5328758 129.623779,55.8925781 C129.769776,56.2522804 129.842773,56.6712216 129.842773,57.1494141 C129.842773,57.5556661 129.775066,57.9291161 129.639648,58.2697754 C129.504231,58.6104346 129.324383,58.9278143 129.100098,59.2219238 C128.875813,59.5160334 128.621909,59.7889799 128.338379,60.0407715 C128.054849,60.2925631 127.764975,60.5348296 127.46875,60.7675781 C127.172525,61.0003267 126.881593,61.2267242 126.595947,61.4467773 C126.310301,61.6668305 126.05534,61.8889963 125.831055,62.1132812 C125.60677,62.3375662 125.425863,62.5692534 125.28833,62.8083496 C125.150797,63.0474459 125.082031,63.3024075 125.082031,63.5732422 L129.703125,63.5732422 L129.703125,64.5 L123.914062,64.5 L123.914062,63.9160156 C123.914062,63.5309226 123.982828,63.1796891 124.120361,62.8623047 C124.257895,62.5449203 124.439859,62.2486993 124.66626,61.9736328 C124.892661,61.6985663 125.150796,61.439373 125.440674,61.1960449 C125.730552,60.9527169 126.025715,60.7146822 126.326172,60.4819336 C126.626629,60.249185 126.921792,60.015382 127.21167,59.7805176 C127.501548,59.5456531 127.759683,59.2991549 127.986084,59.0410156 C128.212485,58.7828763 128.394449,58.507814 128.531982,58.2158203 C128.669516,57.9238267 128.738281,57.6022153 128.738281,57.2509766 C128.738281,56.5696581 128.583823,56.0607927 128.274902,55.7243652 C127.965982,55.3879378 127.475101,55.2197266 126.802246,55.2197266 C126.654133,55.2197266 126.499675,55.2345376 126.338867,55.2641602 C126.178059,55.2937827 126.018311,55.3382158 125.859619,55.3974609 C125.700927,55.456706 125.547527,55.5297033 125.399414,55.6164551 C125.251301,55.7032068 125.11377,55.8037104 124.986816,55.9179688 L124.40918,55.175293 C124.726564,54.9044583 125.091551,54.6896981 125.50415,54.5310059 C125.91675,54.3723137 126.391762,54.2929688 126.929199,54.2929688 Z M34.9560547,54.5532227 L34.9560547,63.6303711 L36.6254883,63.6303711 L36.6254883,64.5 L32.0742188,64.5 L32.0742188,63.6303711 L33.8769531,63.6303711 L33.8769531,55.6640625 L32.0043945,56.6479492 L32.0107422,55.6132812 L34.0673828,54.5532227 L34.9560547,54.5532227 Z M39.3813477,55.2070312 C38.5646118,55.2070312 38.016603,55.584713 37.7373047,56.3400879 C37.4580064,57.0954628 37.3204752,58.0952086 37.324707,59.3393555 C37.324707,61.0870856 37.4929182,62.2582164 37.8293457,62.8527832 C38.1657732,63.44735 38.6852178,63.7446289 39.3876953,63.7446289 C40.0732456,63.7446289 40.5789372,63.4177279 40.9047852,62.763916 C41.2306331,62.1101042 41.3935547,60.9305098 41.3935547,59.2250977 C41.3935547,58.0444277 41.2676608,57.0795936 41.0158691,56.3305664 C40.7640775,55.5815392 40.2192425,55.2070312 39.3813477,55.2070312 Z M109.456055,36.5532227 L109.456055,45.6303711 L111.125488,45.6303711 L111.125488,46.5 L106.574219,46.5 L106.574219,45.6303711 L108.376953,45.6303711 L108.376953,37.6640625 L106.504395,38.6479492 L106.510742,37.6132812 L108.567383,36.5532227 L109.456055,36.5532227 Z M53.9560547,34.5532227 L53.9560547,43.6303711 L55.6254883,43.6303711 L55.6254883,44.5 L51.0742188,44.5 L51.0742188,43.6303711 L52.8769531,43.6303711 L52.8769531,35.6640625 L51.0043945,36.6479492 L51.0107422,35.6132812 L53.0673828,34.5532227 L53.9560547,34.5532227 Z M59.0288086,34.5532227 L59.0288086,43.6303711 L60.6982422,43.6303711 L60.6982422,44.5 L56.1469727,44.5 L56.1469727,43.6303711 L57.949707,43.6303711 L57.949707,35.6640625 L56.0771484,36.6479492 L56.0834961,35.6132812 L58.1401367,34.5532227 L59.0288086,34.5532227 Z M79.9560547,28.0532227 L79.9560547,37.1303711 L81.5009414,37.1299688 L81.4950683,37.1890229 L81.4950683,37.1890229 L81.4868164,37.4160156 L81.4868164,38 L77.0742188,38 L77.0742188,37.1303711 L78.8769531,37.1303711 L78.8769531,29.1640625 L77.0043945,30.1479492 L77.0107422,29.1132812 L79.0673828,28.0532227 L79.9560547,28.0532227 Z M84.5019531,27.7929688 C84.9209005,27.7929688 85.3081037,27.851155 85.6635742,27.9675293 C86.0190447,28.0839036 86.326903,28.2605782 86.5871582,28.4975586 C86.8474134,28.7345389 87.0505364,29.0328758 87.1965332,29.3925781 C87.34253,29.7522804 87.4155273,30.1712216 87.4155273,30.6494141 C87.4155273,31.0556661 87.3478197,31.4291161 87.2124023,31.7697754 C87.076985,32.1104346 86.8971365,32.4278143 86.6728516,32.7219238 C86.4485666,33.0160334 86.1946629,33.2889799 85.9111328,33.5407715 C85.6276027,33.7925631 85.3377293,34.0348296 85.0415039,34.2675781 C84.7452785,34.5003267 84.4543471,34.7267242 84.1687012,34.9467773 C83.8830552,35.1668305 83.6280936,35.3889963 83.4038086,35.6132812 C83.1795236,35.8375662 82.9986172,36.0692534 82.861084,36.3083496 C82.7235507,36.5474459 82.6547852,36.8024075 82.6547852,37.0732422 L87.2758789,37.0732422 L87.2758789,38 L81.6254883,38 L81.6254883,37.1303711 L81.5009414,37.1299688 L81.519824,36.9701559 C81.5528317,36.7553516 81.6105953,36.5527353 81.6931152,36.3623047 C81.8306485,36.0449203 82.0126128,35.7486993 82.2390137,35.4736328 C82.4654145,35.1985663 82.72355,34.939373 83.0134277,34.6960449 C83.3033055,34.4527169 83.5984685,34.2146822 83.8989258,33.9819336 C84.199383,33.749185 84.4945461,33.515382 84.7844238,33.2805176 C85.0743016,33.0456531 85.332437,32.7991549 85.5588379,32.5410156 C85.7852388,32.2828763 85.9672031,32.007814 86.1047363,31.7158203 C86.2422696,31.4238267 86.3110352,31.1022153 86.3110352,30.7509766 C86.3110352,30.0696581 86.1565771,29.5607927 85.8476562,29.2243652 C85.5387354,28.8879378 85.0478549,28.7197266 84.375,28.7197266 C84.2268873,28.7197266 84.0724292,28.7345376 83.9116211,28.7641602 C83.750813,28.7937827 83.5910652,28.8382158 83.432373,28.8974609 C83.2736808,28.956706 83.1202807,29.0297033 82.972168,29.1164551 C82.8240552,29.2032068 82.6865241,29.3037104 82.5595703,29.4179688 L81.9819336,28.675293 C82.299318,28.4044583 82.6643046,28.1896981 83.0769043,28.0310059 C83.489504,27.8723137 83.9645155,27.7929688 84.5019531,27.7929688 Z"/>
    <filter id="clock_2-e" width="113.7%" height="113.3%" x="-6.8%" y="-6.7%" filterUnits="objectBoundingBox">
      <feOffset in="SourceAlpha" result="shadowOffsetOuter1"/>
      <feGaussianBlur in="shadowOffsetOuter1" result="shadowBlurOuter1" stdDeviation="2.5"/>
      <feColorMatrix in="shadowBlurOuter1" values="0 0 0 0 1   0 0 0 0 1   0 0 0 0 1  0 0 0 0.15 0"/>
    </filter>
  </defs>
  <g fill="none" fill-rule="evenodd" transform="translate(30 30)">
    <use fill="#000" filter="url(#clock_2-a)" xlink:href="#clock_2-b"/>
    <use fill="url(#clock_2-c)" xlink:href="#clock_2-b"/>
    <circle cx="82" cy="82" r="76" fill="url(#clock_2-d)"/>
    <g fill-rule="nonzero">
      <use fill="#000" filter="url(#clock_2-e)" xlink:href="#clock_2-f"/>
      <use fill="#7FA5C2" xlink:href="#clock_2-f"/>
    </g>
    <path fill="#638AA1" fill-opacity=".2" d="M82,144.231464 C82.2577211,144.231464 82.4807038,144.442814 82.4807038,144.703527 L82.4807038,144.703527 L82.4807038,149.527936 C82.4807038,149.780911 82.2654854,150 82,150 L82,150 L81.9156378,149.992394 C81.69548,149.952424 81.5192962,149.759682 81.5192962,149.527936 L81.5192962,149.527936 L81.5192962,144.703527 C81.5192962,144.450553 81.7345146,144.231464 82,144.231464 Z M75.4084974,143.889342 L75.4952531,143.890553 C75.7515624,143.917483 75.9512237,144.150975 75.9239621,144.41026 L75.9239621,144.41026 L75.4194965,149.208241 C75.3930441,149.459829 75.1560955,149.65523 74.8920645,149.627489 L74.8920645,149.627489 L74.8089597,149.61111 C74.5941875,149.548354 74.4391229,149.338258 74.4633555,149.107782 L74.4633555,149.107782 L74.9678211,144.309801 C74.9942734,144.058213 75.231222,143.862812 75.4952531,143.890553 Z M88.5047469,143.890553 C88.7610562,143.863624 89.0049173,144.050516 89.0321789,144.309801 L89.0321789,144.309801 L89.5366445,149.107782 C89.5630969,149.35937 89.3719665,149.599748 89.1079355,149.627489 L89.1079355,149.627489 L89.0232402,149.62874 C88.8001089,149.611993 88.6047361,149.438717 88.5805035,149.208241 L88.5805035,149.208241 L88.0760379,144.41026 C88.0495856,144.158672 88.2407159,143.918294 88.5047469,143.890553 Z M68.9756198,142.861287 L69.0617735,142.871557 C69.3138628,142.925121 69.4880152,143.178197 69.4337908,143.433214 L69.4337908,143.433214 L68.4303864,148.152198 C68.3777716,148.399644 68.1216889,148.569215 67.862005,148.514037 L67.862005,148.514037 L67.7810682,148.489064 C67.5740347,148.404209 67.4417883,148.179061 67.4899878,147.95238 L67.4899878,147.95238 L68.4933921,143.233396 C68.5460069,142.98595 68.8020896,142.816379 69.0617735,142.871557 Z M94.9382265,142.871557 C95.1903157,142.817993 95.4523834,142.97838 95.5066079,143.233396 L95.5066079,143.233396 L96.5100122,147.95238 C96.562627,148.199826 96.3976789,148.458859 96.137995,148.514037 L96.137995,148.514037 L96.0538944,148.524131 C95.8302344,148.530791 95.6178131,148.378879 95.5696136,148.152198 L95.5696136,148.152198 L94.5662092,143.433214 C94.5135945,143.185768 94.6785426,142.926735 94.9382265,142.871557 Z M62.1669444,141.486105 C62.2451452,141.245512 62.5175563,141.103629 62.7700479,141.185639 C63.0151552,141.265251 63.1618907,141.535138 63.0812974,141.783092 L63.0812974,141.783092 L61.5899479,146.371377 C61.5117471,146.61197 61.239336,146.753854 60.9868444,146.671843 L60.9868444,146.671843 L60.9089622,146.63855 C60.7119357,146.532527 60.6039564,146.294794 60.6755949,146.074391 L60.6755949,146.074391 Z M101.229952,141.185639 C101.475059,141.106027 101.752462,141.238152 101.833056,141.486105 L101.833056,141.486105 L103.324405,146.074391 C103.402606,146.314983 103.265647,146.589832 103.013156,146.671843 L103.013156,146.671843 L102.930571,146.69067 C102.708833,146.720664 102.481691,146.59178 102.410052,146.371377 L102.410052,146.371377 L100.918703,141.783092 C100.840502,141.542499 100.97746,141.26765 101.229952,141.185639 Z M56.0577917,139.087072 C56.1607217,138.855968 56.4464767,138.743326 56.6890097,138.851271 C56.9244496,138.956059 57.0421604,139.2398 56.9360813,139.477974 L56.9360813,139.477974 L54.9731262,143.885291 C54.8701962,144.116394 54.5844413,144.229036 54.3419083,144.121091 L54.3419083,144.121091 L54.2679341,144.079842 C54.0830732,143.953812 54.0005441,143.706098 54.0948366,143.494389 L54.0948366,143.494389 Z M107.31099,138.851271 C107.54643,138.746483 107.836129,138.848898 107.942208,139.087072 L107.942208,139.087072 L109.905163,143.494389 C110.008093,143.725492 109.900625,144.013146 109.658092,144.121091 L109.658092,144.121091 L109.577928,144.148444 C109.360541,144.201444 109.121166,144.097001 109.026874,143.885291 L109.026874,143.885291 L107.063919,139.477974 C106.960989,139.24687 107.068457,138.959216 107.31099,138.851271 Z M50.2328673,136.06258 C50.3593989,135.843498 50.6553668,135.761333 50.8852839,135.894029 C51.1084769,136.022844 51.1958734,136.31733 51.0654708,136.543115 L51.0654708,136.543115 L48.6524166,140.721176 C48.5258851,140.940258 48.2299171,141.022423 48,140.889727 L48,140.889727 L47.9307443,140.840975 C47.7600744,140.696319 47.7038997,140.441338 47.8198131,140.240641 L47.8198131,140.240641 Z M113.114716,135.894029 C113.337909,135.765213 113.63673,135.836796 113.767133,136.06258 L113.767133,136.06258 L116.180187,140.240641 C116.306718,140.459723 116.229917,140.757031 116,140.889727 L116,140.889727 L115.923136,140.925307 C115.712482,141.000732 115.463497,140.921873 115.347583,140.721176 L115.347583,140.721176 L112.934529,136.543115 C112.807998,136.324033 112.884799,136.026725 113.114716,135.894029 Z M44.7559902,132.445768 C44.904737,132.241108 45.2076753,132.190318 45.4224575,132.346312 C45.6309583,132.497743 45.6870829,132.799749 45.5337854,133.01067 L45.5337854,133.01067 L42.6970701,136.913699 C42.5483233,137.11836 42.245385,137.169149 42.0306028,137.013156 L42.0306028,137.013156 L41.9668244,136.957433 C41.8122154,136.795736 41.7830105,136.536283 41.919275,136.348797 L41.919275,136.348797 Z M118.577542,132.346312 C118.786043,132.19488 119.090712,132.234846 119.24401,132.445768 L119.24401,132.445768 L122.080725,136.348797 C122.229472,136.553457 122.184179,136.857162 121.969397,137.013156 L121.969397,137.013156 L121.896675,137.056572 C121.695061,137.153595 121.439194,137.101185 121.30293,136.913699 L121.30293,136.913699 L118.466215,133.01067 C118.317468,132.80601 118.36276,132.502305 118.577542,132.346312 Z M39.6871663,128.276261 C39.8564986,128.088265 40.1630882,128.069408 40.3603823,128.24699 C40.5519064,128.419379 40.5761443,128.725594 40.4016315,128.919342 L40.4016315,128.919342 L37.1723347,132.504577 C37.0030024,132.692573 36.6964129,132.71143 36.4991188,132.533848 L36.4991188,132.533848 L36.4352002,132.46341 C36.3046407,132.286663 36.3051709,132.031026 36.4578696,131.861496 L36.4578696,131.861496 Z M123.639618,128.24699 C123.831142,128.074602 124.138321,128.082514 124.312834,128.276261 L124.312834,128.276261 L127.54213,131.861496 C127.711463,132.049493 127.698175,132.356266 127.500881,132.533848 L127.500881,132.533848 L127.424123,132.590031 C127.234635,132.701355 126.980364,132.674106 126.827665,132.504577 L126.827665,132.504577 L123.598369,128.919342 C123.429036,128.731346 123.442324,128.424572 123.639618,128.24699 Z M35.0819307,123.599742 C35.2699933,123.43047 35.5768751,123.443752 35.7545195,123.640977 C35.9269686,123.832434 35.9190541,124.139505 35.725238,124.313956 L35.725238,124.313956 L32.1387406,127.542116 C31.9506781,127.711389 31.6437963,127.698106 31.4661519,127.500881 L31.4661519,127.500881 L31.4099488,127.42415 C31.2985861,127.234729 31.3258442,126.980547 31.4954333,126.827902 L31.4954333,126.827902 Z M128.245481,123.640977 C128.41793,123.44952 128.724253,123.425291 128.918069,123.599742 L128.918069,123.599742 L132.504567,126.827902 C132.692629,126.997175 132.711493,127.303657 132.533848,127.500881 L132.533848,127.500881 L132.463386,127.564777 C132.286576,127.695291 132.030848,127.694761 131.861259,127.542116 L131.861259,127.542116 L128.274762,124.313956 C128.086699,124.144683 128.067836,123.838202 128.245481,123.640977 Z M30.9907393,118.467448 C31.1954717,118.318754 31.4992834,118.36403 31.6553318,118.578737 C31.8068165,118.787164 31.7668365,119.091726 31.5558405,119.244969 L31.5558405,119.244969 L27.6514369,122.080686 C27.4467045,122.22938 27.1428928,122.184104 26.9868444,121.969397 L26.9868444,121.969397 L26.9434127,121.8967 C26.8463555,121.695158 26.8987837,121.439381 27.0863357,121.303165 L27.0863357,121.303165 Z M132.344668,118.578737 C132.496153,118.370309 132.798265,118.314204 133.009261,118.467448 L133.009261,118.467448 L136.913664,121.303165 C137.118397,121.451859 137.169204,121.754691 137.013156,121.969397 L137.013156,121.969397 L136.957414,122.033153 C136.79566,122.187708 136.536115,122.216902 136.348563,122.080686 L136.348563,122.080686 L132.444159,119.244969 C132.239427,119.096275 132.18862,118.793443 132.344668,118.578737 Z M27.458416,112.935609 C27.6775751,112.809121 27.9749882,112.885896 28.1077309,113.115732 C28.2365914,113.338846 28.1649838,113.637562 27.9391198,113.767919 L27.9391198,113.767919 L23.7595875,116.180123 C23.5404283,116.30661 23.2430152,116.229836 23.1102725,116 L23.1102725,116 L23.0746804,115.923163 C22.9992292,115.712583 23.0781156,115.463686 23.2788836,115.347813 L23.2788836,115.347813 Z M135.892269,113.115732 C136.02113,112.892617 136.31572,112.805252 136.541584,112.935609 L136.541584,112.935609 L140.721116,115.347813 C140.940276,115.4743 141.02247,115.770164 140.889727,116 L140.889727,116 L140.840957,116.069231 C140.696251,116.239841 140.441181,116.295996 140.240413,116.180123 L140.240413,116.180123 L136.06088,113.767919 C135.841721,113.641432 135.759526,113.345568 135.892269,113.115732 Z M24.5236617,107.064832 C24.7548464,106.961938 25.0426023,107.069369 25.1505849,107.311817 C25.2554095,107.547174 25.1529589,107.836771 24.9147014,107.942812 L24.9147014,107.942812 L20.5058321,109.905076 C20.2746474,110.00797 19.9868915,109.900539 19.8789089,109.658092 L19.8789089,109.658092 L19.8515462,109.577957 C19.7985277,109.360646 19.9030079,109.121355 20.1147924,109.027096 L20.1147924,109.027096 Z M138.849415,107.311817 C138.95424,107.07646 139.238081,106.95879 139.476338,107.064832 L139.476338,107.064832 L143.885208,109.027096 C144.116392,109.12999 144.229074,109.415644 144.121091,109.658092 L144.121091,109.658092 L144.079827,109.73204 C143.953753,109.916836 143.705952,109.999336 143.494168,109.905076 L143.494168,109.905076 L139.085299,107.942812 C138.854114,107.839919 138.741432,107.554264 138.849415,107.311817 Z M22.2186302,100.91944 C22.4593075,100.841267 22.7342535,100.978177 22.816293,101.23058 C22.8959332,101.475601 22.7637621,101.752906 22.5157215,101.833471 L22.5157215,101.833471 L17.9258198,103.324296 C17.6851424,103.402469 17.4101964,103.265558 17.3281569,103.013156 L17.3281569,103.013156 L17.3093234,102.9306 C17.2793185,102.70894 17.4082479,102.481878 17.6287284,102.410264 L17.6287284,102.410264 Z M141.183707,101.23058 C141.263347,100.985559 141.533329,100.838875 141.78137,100.91944 L141.78137,100.91944 L146.371272,102.410264 C146.611949,102.488438 146.753883,102.760753 146.671843,103.013156 L146.671843,103.013156 L146.638538,103.09101 C146.532478,103.287968 146.294661,103.395909 146.07418,103.324296 L146.07418,103.324296 L141.484279,101.833471 C141.243601,101.755298 141.101667,101.482983 141.183707,101.23058 Z M20.5685758,94.5667626 C20.816109,94.5141664 21.0752327,94.6790564 21.1304302,94.9386489 C21.1840135,95.1906494 21.0235698,95.4526248 20.7684637,95.5068302 L20.7684637,95.5068302 L16.0478175,96.5098812 C15.8002844,96.5624775 15.5411607,96.3975875 15.4859632,96.137995 L15.4859632,96.137995 L15.4758653,96.0539241 C15.4692027,95.8303428 15.6211687,95.6179962 15.8479296,95.5698137 L15.8479296,95.5698137 Z M143.346732,94.5569433 L143.431424,94.5667626 L148.15207,95.5698137 C148.399603,95.6224099 148.569234,95.8784025 148.514037,96.137995 L148.514037,96.137995 L148.489055,96.2189033 C148.404171,96.4258639 148.178943,96.5580638 147.952182,96.5098812 L147.952182,96.5098812 L143.231536,95.5068302 C142.984003,95.4542339 142.814372,95.1982414 142.86957,94.9386489 C142.923153,94.6866483 143.176318,94.5125572 143.431424,94.5667626 Z M19.5915771,88.0764012 C19.8432539,88.0499582 20.0837164,88.2410212 20.1114672,88.5049593 C20.1384064,88.7611783 19.9514481,89.0049536 19.6920715,89.0322055 L19.6920715,89.0322055 L14.8924012,89.5364936 C14.6407244,89.5629366 14.4002619,89.3718736 14.3725111,89.1079355 L14.3725111,89.1079355 L14.3712594,89.02327 C14.3880123,88.8002173 14.5613498,88.6049132 14.7919067,88.5806892 L14.7919067,88.5806892 Z M144.323168,88.0754853 L144.408423,88.0764012 L149.208093,88.5806892 C149.45977,88.6071322 149.65524,88.8439974 149.627489,89.1079355 L149.627489,89.1079355 L149.611104,89.191011 C149.548326,89.4057076 149.338156,89.5607176 149.107599,89.5364936 L149.107599,89.5364936 L144.307928,89.0322055 C144.056252,89.0057626 143.860782,88.7688974 143.888533,88.5049593 C143.915472,88.2487402 144.149046,88.0491492 144.408423,88.0764012 Z M19.298338,81.5194654 C19.5514012,81.5194654 19.7705678,81.7346081 19.7705678,82 C19.7705678,82.2576304 19.5591434,82.4805346 19.298338,82.4805346 L19.298338,82.4805346 L14.4722298,82.4805346 C14.2191666,82.4805346 14,82.2653919 14,82 L14,82 L14.0076083,81.9156675 C14.0475929,81.6955873 14.2404028,81.5194654 14.4722298,81.5194654 L14.4722298,81.5194654 Z M149.52777,81.5194654 C149.780833,81.5194654 150,81.7346081 150,82 L150,82 L149.992392,82.0843325 C149.952407,82.3044127 149.759597,82.4805346 149.52777,82.4805346 L149.52777,82.4805346 L144.701662,82.4805346 C144.448599,82.4805346 144.229432,82.2653919 144.229432,82 C144.229432,81.7423696 144.440857,81.5194654 144.701662,81.5194654 L144.701662,81.5194654 Z M14.807146,74.4625905 L14.8924012,74.4635064 L19.6920715,74.9677945 C19.9437484,74.9942374 20.139218,75.2311026 20.1114672,75.4950407 C20.084528,75.7512598 19.8509537,75.9508508 19.5915771,75.9235988 L19.5915771,75.9235988 L14.7919067,75.4193108 C14.5402299,75.3928678 14.3447603,75.1560026 14.3725111,74.8920645 L14.3725111,74.8920645 L14.3888959,74.808989 C14.4516743,74.5942924 14.6618442,74.4392824 14.8924012,74.4635064 Z M149.107599,74.4635064 C149.359276,74.4370634 149.599738,74.6281264 149.627489,74.8920645 L149.627489,74.8920645 L149.628741,74.97673 C149.611988,75.1997827 149.43865,75.3950868 149.208093,75.4193108 L149.208093,75.4193108 L144.408423,75.9235988 C144.156746,75.9500418 143.916284,75.7589788 143.888533,75.4950407 C143.861594,75.2388217 144.048552,74.9950464 144.307928,74.9677945 L144.307928,74.9677945 Z M15.9631252,67.4802995 L16.0478175,67.4901188 L20.7684637,68.4931698 C21.0159969,68.5457661 21.1856277,68.8017586 21.1304302,69.0613511 C21.076847,69.3133517 20.8236819,69.4874428 20.5685758,69.4332374 L20.5685758,69.4332374 L15.8479296,68.4301863 C15.6003965,68.3775901 15.4307656,68.1215975 15.4859632,67.862005 L15.4859632,67.862005 L15.510945,67.7810967 C15.5958292,67.5741361 15.8210566,67.4419362 16.0478175,67.4901188 Z M147.952182,67.4901188 C148.199716,67.4375225 148.458839,67.6024125 148.514037,67.862005 L148.514037,67.862005 L148.524135,67.9460759 C148.530797,68.1696572 148.378831,68.3820038 148.15207,68.4301863 L148.15207,68.4301863 L143.431424,69.4332374 C143.183891,69.4858336 142.924767,69.3209436 142.86957,69.0613511 C142.815987,68.8093506 142.97643,68.5473752 143.231536,68.4931698 L143.231536,68.4931698 Z M17.3614621,60.9089897 C17.4675222,60.7120325 17.7053392,60.6040912 17.9258198,60.6757045 L17.9258198,60.6757045 L22.5157215,62.1665289 C22.7563988,62.2447022 22.8983325,62.5170174 22.816293,62.7694201 C22.7366528,63.0144411 22.4666707,63.1611249 22.2186302,63.08056 L22.2186302,63.08056 L17.6287284,61.5897356 C17.3880511,61.5115623 17.2461174,61.2392471 17.3281569,60.9868444 L17.3281569,60.9868444 Z M146.07418,60.6757045 C146.314858,60.5975312 146.589804,60.7344417 146.671843,60.9868444 L146.671843,60.9868444 L146.690677,61.0693996 C146.720681,61.2910599 146.591752,61.5181224 146.371272,61.5897356 L146.371272,61.5897356 L141.78137,63.08056 C141.540692,63.1587333 141.265746,63.0218228 141.183707,62.7694201 C141.104067,62.524399 141.236238,62.2470938 141.484279,62.1665289 L141.484279,62.1665289 Z M19.9201726,54.2679602 C20.0462465,54.0831643 20.2940477,54.0006643 20.5058321,54.0949236 L20.5058321,54.0949236 L24.9147014,56.0571876 C25.1458861,56.1600814 25.2585676,56.4457357 25.1505849,56.6881833 C25.0457603,56.9235404 24.7619192,57.0412097 24.5236617,56.935168 L24.5236617,56.935168 L20.1147924,54.972904 C19.8836077,54.8700102 19.7709262,54.5843559 19.8789089,54.3419083 L19.8789089,54.3419083 Z M143.494168,54.0949236 C143.725353,53.9920298 144.013108,54.0994607 144.121091,54.3419083 L144.121091,54.3419083 L144.148454,54.4220433 C144.201472,54.6393541 144.096992,54.8786447 143.885208,54.972904 L143.885208,54.972904 L139.476338,56.935168 C139.245154,57.0380618 138.957398,56.9306309 138.849415,56.6881833 C138.74459,56.4528263 138.847041,56.1632293 139.085299,56.0571876 L139.085299,56.0571876 Z M23.1590426,47.9307687 C23.3037491,47.7601589 23.5588194,47.7040039 23.7595875,47.8198766 L23.7595875,47.8198766 L27.9391198,50.2320811 C28.1582789,50.3585682 28.2404736,50.6544319 28.1077309,50.8842681 C27.9788703,51.1073825 27.68428,51.1947482 27.458416,51.0643915 L27.458416,51.0643915 L23.2788836,48.6521869 C23.0597245,48.5256999 22.9775298,48.2298362 23.1102725,48 L23.1102725,48 Z M140.240413,47.8198766 C140.459572,47.6933896 140.756985,47.7701638 140.889727,48 L140.889727,48 L140.92532,48.0768369 C141.000771,48.2874172 140.921884,48.5363143 140.721116,48.6521869 L140.721116,48.6521869 L136.541584,51.0643915 C136.322425,51.1908785 136.025012,51.1141042 135.892269,50.8842681 C135.763409,50.6611536 135.835016,50.3624379 136.06088,50.2320811 L136.06088,50.2320811 Z M136.348563,41.9193142 C136.553295,41.7706197 136.857107,41.8158963 137.013156,42.0306028 L137.013156,42.0306028 L137.056587,42.1032997 C137.153645,42.3048425 137.101216,42.560619 136.913664,42.6968355 L136.913664,42.6968355 L133.009261,45.532552 C132.804528,45.6812464 132.500717,45.6359699 132.344668,45.4212633 C132.193184,45.212836 132.233164,44.9082742 132.444159,44.7550307 L132.444159,44.7550307 Z M27.0425865,41.9668469 C27.2043401,41.8122923 27.463885,41.7830977 27.6514369,41.9193142 L27.6514369,41.9193142 L31.5558405,44.7550307 C31.7605729,44.9037251 31.8113802,45.2065567 31.6553318,45.4212633 C31.5038472,45.6296907 31.2017352,45.6857956 30.9907393,45.532552 L30.9907393,45.532552 L27.0863357,42.6968355 C26.8816033,42.5481411 26.830796,42.2453094 26.9868444,42.0306028 L26.9868444,42.0306028 Z M131.861259,36.4578841 C132.049322,36.2886114 132.356204,36.3018941 132.533848,36.4991188 L132.533848,36.4991188 L132.590051,36.5758496 C132.701414,36.765271 132.674156,37.0194528 132.504567,37.1720977 L132.504567,37.1720977 L128.918069,40.4002575 C128.730007,40.5695302 128.423125,40.5562475 128.245481,40.3590229 C128.073031,40.1675662 128.080946,39.8604953 128.274762,39.6860439 L128.274762,39.6860439 Z M31.5366144,36.4352227 C31.7134239,36.3047091 31.9691515,36.3052392 32.1387406,36.4578841 L32.1387406,36.4578841 L35.725238,39.6860439 C35.9133006,39.8553166 35.9321639,40.1617982 35.7545195,40.3590229 C35.5820704,40.5504795 35.2757468,40.5747089 35.0819307,40.4002575 L35.0819307,40.4002575 L31.4954333,37.1720977 C31.3073708,37.002825 31.2885075,36.6963434 31.4661519,36.4991188 L31.4661519,36.4991188 Z M126.827665,31.495423 C126.996998,31.3074267 127.303587,31.28857 127.500881,31.4661519 L127.500881,31.4661519 L127.5648,31.5365896 C127.695359,31.7133369 127.694829,31.9689745 127.54213,32.1385038 L127.54213,32.1385038 L124.312834,35.7237385 C124.143501,35.9117349 123.836912,35.9305915 123.639618,35.7530097 C123.448094,35.5806213 123.423856,35.2744056 123.598369,35.0806577 L123.598369,35.0806577 Z M36.5758766,31.4099686 C36.7653647,31.2986451 37.019636,31.3258936 37.1723347,31.495423 L37.1723347,31.495423 L40.4016315,35.0806577 C40.5709638,35.2686541 40.5576764,35.5754278 40.3603823,35.7530097 C40.1688582,35.925398 39.8616792,35.9174864 39.6871663,35.7237385 L39.6871663,35.7237385 L36.4578696,32.1385038 C36.2885373,31.9505075 36.3018247,31.6437337 36.4991188,31.4661519 L36.4991188,31.4661519 Z M42.1033253,26.943428 C42.304939,26.8464049 42.5608057,26.8988147 42.6970701,27.0863006 L42.6970701,27.0863006 L45.5337854,30.9893296 C45.6825322,31.1939899 45.6372397,31.4976947 45.4224575,31.6536882 C45.2139568,31.8051195 44.9092877,31.7651535 44.7559902,31.5542319 L44.7559902,31.5542319 L41.919275,27.651203 C41.7705282,27.4465426 41.8158206,27.1428378 42.0306028,26.9868444 L42.0306028,26.9868444 Z M121.30293,27.0863006 C121.451677,26.8816403 121.754615,26.8308509 121.969397,26.9868444 L121.969397,26.9868444 L122.033176,27.0425668 C122.187785,27.2042636 122.216989,27.463717 122.080725,27.651203 L122.080725,27.651203 L119.24401,31.5542319 C119.095263,31.7588922 118.792325,31.8096816 118.577542,31.6536882 C118.369042,31.5022568 118.312917,31.2002512 118.466215,30.9893296 L118.466215,30.9893296 Z M48.0768639,23.0746929 C48.2875184,22.9992683 48.5365032,23.0781269 48.6524166,23.2788242 L48.6524166,23.2788242 L51.0654708,27.4568851 C51.1920023,27.6759671 51.115201,27.9732754 50.8852839,28.1059714 C50.6620909,28.2347866 50.3632699,28.1632042 50.2328673,27.9374197 L50.2328673,27.9374197 L47.8198131,23.7593588 C47.6932816,23.5402769 47.7700829,23.2429685 48,23.1102725 L48,23.1102725 Z M115.347583,23.2788242 C115.474115,23.0597423 115.770083,22.9775766 116,23.1102725 L116,23.1102725 L116.069256,23.1590254 C116.239926,23.303681 116.2961,23.5586615 116.180187,23.7593588 L116.180187,23.7593588 L113.767133,27.9374197 C113.640601,28.1565017 113.344633,28.2386674 113.114716,28.1059714 C112.891523,27.9771562 112.804127,27.6826696 112.934529,27.4568851 L112.934529,27.4568851 Z M109.026874,20.1147093 C109.129804,19.883606 109.415559,19.7709643 109.658092,19.8789089 L109.658092,19.8789089 L109.732066,19.920158 C109.916927,20.0461876 109.999456,20.2939015 109.905163,20.5056114 L109.905163,20.5056114 L107.942208,24.9129284 C107.839278,25.1440317 107.553523,25.2566735 107.31099,25.1487289 C107.07555,25.0439412 106.95784,24.7602 107.063919,24.5220264 L107.063919,24.5220264 Z M54.4220715,19.8515558 C54.6394588,19.798556 54.8788337,19.9029995 54.9731262,20.1147093 L54.9731262,20.1147093 L56.9360813,24.5220264 C57.0390114,24.7531297 56.9315426,25.0407843 56.6890097,25.1487289 C56.4535697,25.2535166 56.1638708,25.1511021 56.0577917,24.9129284 L56.0577917,24.9129284 L54.0948366,20.5056114 C53.9919066,20.2745081 54.0993753,19.9868535 54.3419083,19.8789089 L54.3419083,19.8789089 Z M61.0694287,17.30933 C61.2911671,17.2793357 61.5183095,17.4082197 61.5899479,17.6286226 L61.5899479,17.6286226 L63.0812974,22.2169083 C63.1594982,22.457501 63.0225395,22.7323502 62.7700479,22.8143608 C62.5249406,22.893973 62.2475376,22.7618483 62.1669444,22.5138951 L62.1669444,22.5138951 L60.6755949,17.9256093 C60.5973941,17.6850167 60.7343528,17.4101675 60.9868444,17.3281569 L60.9868444,17.3281569 Z M102.410052,17.6286226 C102.488253,17.38803 102.760664,17.2461463 103.013156,17.3281569 L103.013156,17.3281569 L103.091038,17.3614504 C103.288064,17.4674732 103.396044,17.7052064 103.324405,17.9256093 L103.324405,17.9256093 L101.833056,22.5138951 C101.754855,22.7544877 101.482444,22.8963714 101.229952,22.8143608 C100.984845,22.7347486 100.838109,22.4648616 100.918703,22.2169083 L100.918703,22.2169083 Z M67.9461056,15.4758688 C68.1697656,15.4692086 68.3821869,15.6211211 68.4303864,15.8478022 L68.4303864,15.8478022 L69.4337908,20.5667864 C69.4864055,20.8142324 69.3214574,21.0732649 69.0617735,21.128443 C68.8096843,21.1820073 68.5476166,21.0216202 68.4933921,20.7666039 L68.4933921,20.7666039 L67.4899878,16.0476197 C67.437373,15.8001737 67.6023211,15.5411412 67.862005,15.4859632 L67.862005,15.4859632 Z M96.0518412,15.475693 L96.137995,15.4859632 L96.2189318,15.5109362 C96.4259653,15.5957906 96.5582117,15.8209386 96.5100122,16.0476197 L96.5100122,16.0476197 L95.5066079,20.7666039 C95.4539931,21.0140499 95.1979104,21.183621 94.9382265,21.128443 C94.6861372,21.0748786 94.5119848,20.8218027 94.5662092,20.5667864 L94.5662092,20.5667864 L95.5696136,15.8478022 C95.6222284,15.6003562 95.8783111,15.4307851 96.137995,15.4859632 Z M74.9767598,14.3712599 C75.1998911,14.3880068 75.3952639,14.5612833 75.4194965,14.7917591 L75.4194965,14.7917591 L75.9239621,19.5897396 C75.9504144,19.8413278 75.7592841,20.0817056 75.4952531,20.1094466 C75.2389438,20.1363763 74.9950827,19.9494839 74.9678211,19.6901987 L74.9678211,19.6901987 L74.4633555,14.8922182 C74.4369031,14.6406299 74.6280335,14.4002521 74.8920645,14.3725111 L74.8920645,14.3725111 Z M89.0211798,14.3712996 L89.1079355,14.3725111 L89.1910403,14.3888902 C89.4058125,14.4516464 89.5608771,14.6617424 89.5366445,14.8922182 L89.5366445,14.8922182 L89.0321789,19.6901987 C89.0057266,19.9417869 88.768778,20.1371876 88.5047469,20.1094466 C88.2484376,20.0825169 88.0487763,19.8490248 88.0760379,19.5897396 L88.0760379,19.5897396 L88.5805035,14.7917591 C88.6069559,14.5401708 88.8439045,14.3447701 89.1079355,14.3725111 Z M82,14 L82.0843622,14.0076056 C82.30452,14.0475761 82.4807038,14.2403182 82.4807038,14.4720635 L82.4807038,14.4720635 L82.4807038,19.2964726 C82.4807038,19.5494467 82.2654854,19.7685362 82,19.7685362 C81.7422789,19.7685362 81.5192962,19.5571861 81.5192962,19.2964726 L81.5192962,19.2964726 L81.5192962,14.4720635 C81.5192962,14.2190895 81.7345146,14 82,14 L82,14 Z"/>
    <path fill="#000" fill-opacity=".1" fill-rule="nonzero" d="M82,78.5 C84.4852815,78.5 86.5,80.5147185 86.5,83 C86.5,85.4852815 84.4852815,87.5 82,87.5 C79.5147185,87.5 77.5,85.4852815 77.5,83 C77.5,80.5147185 79.5147185,78.5 82,78.5 Z M82,79.5 C80.0670033,79.5 78.5,81.0670033 78.5,83 C78.5,84.9329967 80.0670033,86.5 82,86.5 C83.9329967,86.5 85.5,84.9329967 85.5,83 C85.5,81.0670033 83.9329967,79.5 82,79.5 Z"/>
    <path fill="#7FA5C2" d="M83,142 L83,151 L81,151 L81,142 L83,142 Z M112.616025,133.528512 L117.116025,141.32274 L115.383975,142.32274 L110.883975,134.528512 L112.616025,133.528512 Z M51.3839746,133.528512 L53.1160254,134.528512 L48.6160254,142.32274 L46.8839746,141.32274 L51.3839746,133.528512 Z M134.028512,111.383975 L141.82274,115.883975 L140.82274,117.616025 L133.028512,113.116025 L134.028512,111.383975 Z M29.9714885,111.383975 L30.9714885,113.116025 L23.1772598,117.616025 L22.1772598,115.883975 L29.9714885,111.383975 Z M150.5,81.5 L150.5,83.5 L141.5,83.5 L141.5,81.5 L150.5,81.5 Z M22.5,81.5 L22.5,83.5 L13.5,83.5 L13.5,81.5 L22.5,81.5 Z M140.82274,47.3839746 L141.82274,49.1160254 L134.028512,53.6160254 L133.028512,51.8839746 L140.82274,47.3839746 Z M23.1772598,47.3839746 L30.9714885,51.8839746 L29.9714885,53.6160254 L22.1772598,49.1160254 L23.1772598,47.3839746 Z M115.383975,22.6772598 L117.116025,23.6772598 L112.616025,31.4714885 L110.883975,30.4714885 L115.383975,22.6772598 Z M48.6160254,22.6772598 L53.1160254,30.4714885 L51.3839746,31.4714885 L46.8839746,23.6772598 L48.6160254,22.6772598 Z M83,14 L83,23 L81,23 L81,14 L83,14 Z"/>
  </g>
</svg>
