<svg xmlns="http://www.w3.org/2000/svg" width="24" height="24" viewBox="0 0 24 24">
  <path fill="#536076" fill-rule="evenodd" d="M13,6.45917547 L13,16.5408245 C13,16.9490877 12.5212703,17.1535467 12.2412859,16.864861 L10.5887067,15.1609234 C10.0236891,14.5783463 9.24674677,14.2495407 8.43517984,14.2495407 L7,14.2495407 C5.8954305,14.2495407 5,13.3541102 5,12.2495407 L5,10.7504593 C5,9.64588985 5.8954305,8.75045935 7,8.75045935 L8.43517984,8.75045935 C9.24674677,8.75045935 10.0236891,8.4216537 10.5887067,7.83907665 L12.2412859,6.13513899 C12.5212703,5.84645333 13,6.05091228 13,6.45917547 Z M14.5,8 C14.7761424,8 15,8.22385763 15,8.5 L15,14.5 C15,14.7761424 14.7761424,15 14.5,15 C14.2238576,15 14,14.7761424 14,14.5 L14,8.5 C14,8.22385763 14.2238576,8 14.5,8 Z"/>
</svg>
