<svg xmlns="http://www.w3.org/2000/svg" width="32" height="32" viewBox="0 0 32 32">
  <path fill="#29B2DC" fill-rule="evenodd" d="M8,8 L24,8 C25.6568542,8 27,9.34314575 27,11 L27,21 C27,22.6568542 25.6568542,24 24,24 L8,24 C6.34314575,24 5,22.6568542 5,21 L5,11 C5,9.34314575 6.34314575,8 8,8 Z M7.93210969,21.2503131 C7.88834168,21.3262482 7.86530299,21.4123542 7.86530299,21.5 C7.86530299,21.7761424 8.08916062,22 8.36530299,22 L23.2994984,22 C23.4314332,22 23.5580207,21.9478538 23.6516747,21.8549251 C23.8476944,21.6604235 23.8489251,21.3438434 23.6544235,21.1478237 L19.2622913,16.7214105 C19.2584986,16.7175882 19.2546752,16.7137967 19.2508213,16.7100362 C18.8555362,16.3243315 18.2224189,16.3320979 17.8367141,16.7273829 L15.8500386,18.7634045 C15.8496812,18.7637707 15.8493233,18.7641364 15.8489648,18.7645015 C15.6555065,18.961551 15.3389374,18.9644623 15.1418879,18.771004 L12.3720491,16.0516455 C12.3117123,15.9924084 12.244106,15.9410629 12.1708485,15.8988383 C11.6923564,15.6230417 11.0808846,15.7873589 10.8050881,16.2658511 L7.93210969,21.2503131 Z M20.5,14 C21.3284271,14 22,13.3284271 22,12.5 C22,11.6715729 21.3284271,11 20.5,11 C19.6715729,11 19,11.6715729 19,12.5 C19,13.3284271 19.6715729,14 20.5,14 Z"/>
</svg>
