<svg xmlns="http://www.w3.org/2000/svg" xmlns:xlink="http://www.w3.org/1999/xlink" width="32" height="32" viewBox="0 0 32 32">
  <defs>
    <path id="browser_32px-a" d="M14.7414679,26.9287901 C12.0996947,26.6278924 9.74198747,25.3911911 8.0079777,23.5583176 C8.0691912,21.866478 8.4806424,20.2639573 9.17199724,18.8210896 C9.42430364,18.935991 9.70467677,19 10,19 C10.9783837,19 11.792683,18.2974711 11.9659651,17.369346 C14.1286094,17.9191768 16.0567923,19.0563329 17.5707167,20.6010175 C17.217654,20.961679 17,21.4554216 17,22 C17,22.7209836 17.3815017,23.3528626 17.9536493,23.7047813 C17.0978454,24.9727808 16.0061329,26.0684358 14.7414679,26.9287901 Z M16.312376,26.99565 C17.3397789,26.1403244 18.2332371,25.1295904 18.9566589,23.9995397 C18.9710689,23.999846 18.9855165,24 19,24 C19.2953232,24 19.5756964,23.935991 19.8280028,23.8210896 C20.1576659,24.5091014 20.4236865,25.233414 20.6184391,25.9864018 C19.3030654,26.5957471 17.8470165,26.9528577 16.312376,26.99565 Z M13.5970639,5.2632418 C14.3705009,5.09090243 15.1746347,5 16,5 C20.9420426,5 25.1228844,8.25908782 26.5105262,12.7452642 C24.7976556,11.7522797 22.8371997,11.1390998 20.7443893,11.0209553 C20.401661,10.4116167 19.7488996,10 19,10 C18.9855165,10 18.9710689,10.000154 18.9566589,10.0004603 C17.6523532,7.96301607 15.7953122,6.31343387 13.5970639,5.2632418 Z M12.0902019,5.71511339 C14.4967439,6.5875457 16.5448421,8.20786316 17.9536493,10.2952187 C17.5708194,10.5306912 17.2733433,10.8915044 17.1183951,11.3204842 C14.5594892,11.8995752 12.2869304,13.2334341 10.5470447,15.075735 C10.3731799,15.0264033 10.1896734,15 10,15 C9.25110038,15 8.598339,15.4116167 8.25561069,16.0209553 C7.13207013,16.084382 6.04667621,16.2904858 5.01725868,16.6214368 C5.00580379,16.4157486 5,16.2085521 5,16 C5,11.3018826 7.9453088,7.29167887 12.0902019,5.71511339 Z M20.4794038,20.6541101 C20.8182636,19.494929 21,18.2686879 21,17 C21,15.7313121 20.8182636,14.505071 20.4794038,13.3458899 C20.794274,12.9999859 20.989479,12.5432253 20.9995873,12.0410397 C23.1606626,12.2192502 25.1593793,12.970098 26.8436578,14.1415035 C26.9464597,14.7456449 27,15.36657 27,16 C27,20.0604125 24.7999963,23.6069866 21.5269647,25.5127465 C21.3002587,24.6966179 20.9959379,23.9127914 20.6224523,23.1697168 C20.8600096,22.8407902 21,22.4367434 21,22 C21,21.4816813 20.8028306,21.009414 20.4794038,20.6541101 Z M19.5981477,20.0909797 C19.4092779,20.0318621 19.2083598,20 19,20 C18.8103266,20 18.6268201,20.0264033 18.4529553,20.075735 C16.7130696,18.2334341 14.4405108,16.8995752 11.8816049,16.3204842 C11.7833165,16.048369 11.6276782,15.8036824 11.4292833,15.6010175 C12.9432077,14.0563329 14.8713906,12.9191768 17.0340349,12.369346 C17.207317,13.2974711 18.0216163,14 19,14 C19.2083598,14 19.4092779,13.9681379 19.5981477,13.9090203 C19.8602937,14.8952056 20,15.9312877 20,17 C20,18.0687123 19.8602937,19.1047944 19.5981477,20.0909797 Z M7.09103085,22.453498 C6.07983033,21.0599666 5.38759681,19.4199416 5.12151708,17.6406097 C6.03640226,17.328321 7.0010473,17.1234512 8.00041269,17.0410397 C8.00888684,17.4620413 8.14744911,17.8511176 8.37754766,18.1697168 C7.71620342,19.4855054 7.27172573,20.9290721 7.0910305,22.4535012 Z"/>
  </defs>
  <use fill="#29B2DC" fill-rule="evenodd" xlink:href="#browser_32px-a"/>
</svg>
