<?xml version="1.0" encoding="UTF-8"?>
<svg width="98px" height="67px" viewBox="0 0 98 67" version="1.1" xmlns="http://www.w3.org/2000/svg" xmlns:xlink="http://www.w3.org/1999/xlink">
    <title>锁屏</title>
    <defs>
        <linearGradient x1="50%" y1="0%" x2="50%" y2="100%" id="linearGradient-1">
            <stop stop-color="#8EBCFA" offset="0%"></stop>
            <stop stop-color="#BAD1F3" offset="100%"></stop>
        </linearGradient>
        <rect id="path-2" x="1" y="1" width="96" height="65" rx="3"></rect>
        <rect id="path-4" x="0" y="0" width="61" height="15" rx="2"></rect>
        <filter x="-13.1%" y="-46.7%" width="126.2%" height="206.7%" filterUnits="objectBoundingBox" id="filter-5">
            <feOffset dx="0" dy="1" in="SourceAlpha" result="shadowOffsetOuter1"></feOffset>
            <feGaussianBlur stdDeviation="2.5" in="shadowOffsetOuter1" result="shadowBlurOuter1"></feGaussianBlur>
            <feComposite in="shadowBlurOuter1" in2="SourceAlpha" operator="out" result="shadowBlurOuter1"></feComposite>
            <feColorMatrix values="0 0 0 0 0   0 0 0 0 0   0 0 0 0 0  0 0 0 0.1 0" type="matrix" in="shadowBlurOuter1"></feColorMatrix>
        </filter>
    </defs>
    <g id="系统" stroke="none" stroke-width="1" fill="none" fill-rule="evenodd">
        <g id="画板" transform="translate(-61, -40)">
            <g id="锁屏" transform="translate(61, 40)">
                <path d="M94,0 C96.209139,0 98,1.790861 98,4 L98,63 C98,65.209139 96.209139,67 94,67 L4,67 C1.790861,67 0,65.209139 0,63 L0,4 C0,1.790861 1.790861,0 4,0 L94,0 Z M94,1 L4,1 C2.34314575,1 1,2.34314575 1,4 L1,63 C1,64.6568542 2.34314575,66 4,66 L94,66 C95.6568542,66 97,64.6568542 97,63 L97,4 C97,2.34314575 95.6568542,1 94,1 Z" id="矩形" fill-opacity="0.1" fill="#000000" fill-rule="nonzero"></path>
                <mask id="mask-3" fill="white">
                    <use xlink:href="#path-2"></use>
                </mask>
                <use id="矩形" fill-opacity="0.89" fill="url(#linearGradient-1)" xlink:href="#path-2"></use>
                <g id="ICON-/-Lock" opacity="0.25" mask="url(#mask-3)" fill="#FFFFFF" fill-rule="nonzero">
                    <g transform="translate(6.25, 6)" id="形状结合">
                        <path d="M7.87500246,-1.77635684e-15 C9.42774034,-1.77635684e-15 10.7534125,0.502227 11.8520485,1.5066945 C12.8408253,2.41071525 13.3846446,3.48287256 13.4835207,4.72318939 L13.5,5.1428565 L13.499,6.75 L13.6319862,6.75524545 C14.8150999,6.83524303 15.75,7.82028481 15.75,9.02368421 L15.75,15.7263158 C15.75,16.9820369 14.7320369,18 13.4763158,18 L2.27368421,18 C1.0179631,18 1.85324758e-15,16.9820369 1.77635684e-15,15.7263158 L1.77635684e-15,9.02368421 C1.62352615e-15,7.77572696 1.00541429,6.7625968 2.25042006,6.75011656 L2.25,5.1428565 C2.25,3.7232055 2.79931061,2.511162 3.89795152,1.5066945 C4.9965875,0.502227 6.32225966,-1.77635684e-15 7.87500246,-1.77635684e-15 Z M7.87500246,2.25 C6.87775637,2.25 6.09515074,2.54648791 5.41617877,3.16726248 C4.85743501,3.67811178 4.57504346,4.21095123 4.51317594,4.85819335 L4.5,5.1428565 L4.5,6.75 L11.25,6.75 L11.25,5.1428565 C11.25,4.46104193 11.0374514,3.90683183 10.5565236,3.38781138 L10.3338175,3.16725909 C9.6548495,2.54648813 8.87224401,2.25 7.87500246,2.25 Z"></path>
                    </g>
                </g>
                <g id="编组-10" mask="url(#mask-3)">
                    <g transform="translate(31, 32)" id="编组">
                        <g id="矩形">
                            <use fill="black" fill-opacity="1" filter="url(#filter-5)" xlink:href="#path-4"></use>
                            <use fill-opacity="0.713107449" fill="#FFFFFF" fill-rule="evenodd" xlink:href="#path-4"></use>
                        </g>
                        <rect id="矩形" fill="#ACCCF8" x="15" y="3.11111111" width="15" height="3" rx="1"></rect>
                        <rect id="矩形" fill="#ACCCF8" x="15" y="9.12962963" width="31" height="3" rx="1"></rect>
                        <rect id="矩形" fill="#ACCCF8" x="3" y="3" width="9" height="9" rx="1"></rect>
                    </g>
                </g>
                <circle id="椭圆形" fill-opacity="0.497976877" fill="#FFFFFF" mask="url(#mask-3)" cx="89" cy="58" r="6"></circle>
                <circle id="椭圆形" fill-opacity="0.497976877" fill="#FFFFFF" mask="url(#mask-3)" cx="75" cy="58" r="6"></circle>
                <circle id="椭圆形" fill-opacity="0.497976877" fill="#FFFFFF" mask="url(#mask-3)" cx="61" cy="58" r="6"></circle>
                <g id="status/16/dock-control-panel" mask="url(#mask-3)" fill="#000000" fill-opacity="0.3" fill-rule="nonzero">
                    <g transform="translate(57.1582, 55.4333)" id="形状">
                        <path d="M3.84175963,4.00462384 C4.24190123,4.00462384 4.61264971,4.13047076 4.91658458,4.34474412 L3.84175963,5.47597402 L2.76744356,4.34438548 C3.07128334,4.13033035 3.44184132,4.00462384 3.84175963,4.00462384 Z M3.84175963,2.66962384 C4.59839724,2.66962384 5.29374823,2.93202304 5.84177765,3.37078647 L5.49562904,3.73462158 C5.03853993,3.38043766 4.46476888,3.16962384 3.84175963,3.16962384 C3.21898078,3.16962384 2.64540372,3.38028177 2.18839738,3.73422868 L1.84223895,3.37038836 C2.39019169,2.93186432 3.08535088,2.66962384 3.84175963,2.66962384 Z M3.84175963,1.33510303 C4.95452762,1.33510303 5.97374648,1.73563448 6.76311286,2.40039403 L6.41802988,2.76362938 C5.71892195,2.18372385 4.82105316,1.83510303 3.84175963,1.83510303 C2.86253294,1.83510303 1.96471989,2.18367625 1.26563255,2.76351063 L0.920902466,2.39997633 C1.71019977,1.7354667 2.72922473,1.33510303 3.84175963,1.33510303 Z M4.57844814,0.045758503 L4.70340127,0.0627601551 L4.88038385,0.0915534511 L5.02173135,0.118575651 L5.16796913,0.150360967 C6.11458612,0.368857694 6.9736608,0.816186283 7.68380171,1.43095527 L7.33910173,1.79395646 C6.39923809,0.987362541 5.17741367,0.5 3.84175963,0.5 C2.5063402,0.5 1.28471041,0.987191341 0.344912824,1.79353145 L0,1.43071077 C0.718449968,0.808828129 1.58931403,0.358316383 2.54903107,0.142736643 L2.68925364,0.113042067 L2.84815743,0.0837006054 C2.98759749,0.0599397652 3.12871304,0.0410943275 3.27131947,0.0273488883 L3.49549814,0.00999198544 C3.55332736,0.00664526491 3.61137999,0.00413143674 3.66964422,0.00246231751 L3.84175963,0 L4.05142187,0.00365577776 L4.23660815,0.0130030491 C4.29538174,0.0168866096 4.35392012,0.0216308178 4.4122108,0.0272231872 L4.57844814,0.045758503 Z"></path>
                    </g>
                </g>
                <g id="status/16/dock-control-panel" mask="url(#mask-3)" fill="#000000" fill-opacity="0.3" fill-rule="nonzero">
                    <g transform="translate(71.5, 54.75)" id="Page-1">
                        <path d="M0,6.75 C0,6.70781229 0.00222325895,6.65214876 0.00666984258,6.58300779 C0.0111164271,6.51386682 0.0355722746,6.40253979 0.0800381109,6.24902346 C0.124503956,6.09550704 0.186755165,5.97656295 0.266793703,5.8921875 C0.344608932,5.8101561 0.499125429,5.7199221 0.730347805,5.6214846 C0.961569754,5.5230462 1.22280305,5.4193365 1.51405469,5.3103519 C1.80530548,5.2013664 2.01873874,5.1105474 2.15435958,5.0378904 C2.32555235,4.9464837 2.45839256,4.8128913 2.55288193,4.6371096 C2.64737215,4.461327 2.6946164,4.2785163 2.6946164,4.0886721 C2.6946164,3.9597651 2.62124856,3.807423 2.47451202,3.6316404 C2.32555064,3.4511706 2.2049394,3.2056659 2.11267232,2.8951173 C2.02040609,2.5845687 1.9742734,2.2265649 1.9742734,1.8210942 C1.9742734,1.5164046 2.01540403,1.2451185 2.09766528,1.0072269 C2.17992738,0.7693344 2.29220185,0.578907 2.43449211,0.4359375 C2.57678323,0.292968 2.7385251,0.1845711 2.9197237,0.1107423 C3.1009223,0.0369135 3.29490138,0 3.50166693,0 C3.70843333,0 3.90130084,0.0369135 4.0802763,0.1107423 C4.25925091,0.1845711 4.42043785,0.292968 4.56383968,0.4359375 C4.70724236,0.578907 4.82007262,0.7693344 4.90233472,1.0072269 C4.98459597,1.2451185 5.0257266,1.5164046 5.0257266,1.8210942 C5.0257266,2.2265649 4.98014969,2.5845687 4.88899418,2.8951173 C4.79783953,3.2056659 4.67778407,3.4511706 4.52882354,3.6316404 C4.37986216,3.8097666 4.3053836,3.9621087 4.3053836,4.0886721 C4.3053836,4.2761727 4.35318364,4.4583975 4.44878543,4.6353519 C4.54438636,4.8123054 4.67778236,4.9464837 4.84897598,5.0378904 C4.98459597,5.1105474 5.19802923,5.2013664 5.48928087,5.3103519 C5.78053166,5.4193365 6.04065253,5.5230462 6.26965202,5.6214846 C6.49865152,5.7199221 6.65205576,5.8101561 6.72987074,5.8921875 C6.8099097,5.97656295 6.87216099,6.09023367 6.91662633,6.23320308 C6.96109251,6.37617258 6.98554875,6.49804635 6.98999502,6.59882808 L7,6.75 L0,6.75 Z"></path>
                    </g>
                </g>
                <g id="status/16/dock-control-panel" mask="url(#mask-3)" fill-opacity="0.3">
                    <g transform="translate(85.5, 54.5)" id="ICON-/-TrayICON-/-Shutdown">
                        <path d="M5.30947313,0.503472886 C6.35032976,1.13325437 7,2.26064507 7,3.5 C7,5.43299662 5.43299662,7 3.5,7 C1.56700338,7 6.66133815e-16,5.43299662 6.66133815e-16,3.5 C6.66133815e-16,2.30302585 0.605786802,1.20894077 1.58954011,0.566950898 C1.70516785,0.491493116 1.86007328,0.524057307 1.93553106,0.639685054 C2.01098885,0.755312801 1.97842466,0.910218229 1.86279691,0.985676011 C1.01905159,1.53629774 0.5,2.47373415 0.5,3.5 C0.5,5.15685425 1.84314575,6.5 3.5,6.5 C5.15685425,6.5 6.5,5.15685425 6.5,3.5 C6.5,2.43743677 5.94329808,1.47137657 5.05063517,0.931261279 C4.93250466,0.859785149 4.89468382,0.706078604 4.96615995,0.587948101 C5.03763608,0.469817598 5.19134263,0.431996756 5.30947313,0.503472886 Z M3.50000009,6.10622664e-16 C3.85000008,6.10622664e-16 3.85000008,0.349999905 3.85000008,0.349999905 L3.85000008,3.1500001 C3.85000008,3.1500001 3.85000008,3.5 3.50000009,3.5 C3.18500009,3.5 3.1535001,3.21650008 3.1503501,3.15980009 L3.1500001,0.349999905 C3.1500001,0.349999905 3.1500001,6.10622664e-16 3.50000009,6.10622664e-16 Z" id="形状结合" fill="#000000" fill-rule="nonzero"></path>
                    </g>
                </g>
            </g>
        </g>
    </g>
</svg>