<?xml version="1.0" encoding="UTF-8"?>
<svg width="98px" height="67px" viewBox="0 0 98 67" version="1.1" xmlns="http://www.w3.org/2000/svg" xmlns:xlink="http://www.w3.org/1999/xlink">
    <title>桌面</title>
    <defs>
        <linearGradient x1="50%" y1="0%" x2="50%" y2="100%" id="linearGradient-1">
            <stop stop-color="#8EBCFA" offset="0%"></stop>
            <stop stop-color="#BAD1F3" offset="100%"></stop>
        </linearGradient>
        <rect id="path-2" x="0" y="0" width="61" height="15" rx="2"></rect>
        <filter x="-13.1%" y="-46.7%" width="126.2%" height="206.7%" filterUnits="objectBoundingBox" id="filter-3">
            <feOffset dx="0" dy="1" in="SourceAlpha" result="shadowOffsetOuter1"></feOffset>
            <feGaussianBlur stdDeviation="2.5" in="shadowOffsetOuter1" result="shadowBlurOuter1"></feGaussianBlur>
            <feComposite in="shadowBlurOuter1" in2="SourceAlpha" operator="out" result="shadowBlurOuter1"></feComposite>
            <feColorMatrix values="0 0 0 0 0   0 0 0 0 0   0 0 0 0 0  0 0 0 0.1 0" type="matrix" in="shadowBlurOuter1"></feColorMatrix>
        </filter>
    </defs>
    <g id="系统" stroke="none" stroke-width="1" fill="none" fill-rule="evenodd">
        <g id="画板" transform="translate(-67, -136)">
            <g id="桌面" transform="translate(68, 137)">
                <rect id="矩形" fill-opacity="0.89" fill="url(#linearGradient-1)" x="0" y="0" width="96" height="65" rx="3"></rect>
                <path d="M93,-1 C95.209139,-1 97,0.790861001 97,3 L97,62 C97,64.209139 95.209139,66 93,66 L3,66 C0.790861001,66 -1,64.209139 -1,62 L-1,3 C-1,0.790861001 0.790861001,-1 3,-1 L93,-1 Z M93,0 L3,0 C1.34314575,0 0,1.34314575 0,3 L0,62 C0,63.6568542 1.34314575,65 3,65 L93,65 C94.6568542,65 96,63.6568542 96,62 L96,3 C96,1.34314575 94.6568542,0 93,0 Z" id="矩形" fill-opacity="0.1" fill="#000000" fill-rule="nonzero"></path>
                <g id="编组" transform="translate(30, 30)">
                    <g id="矩形">
                        <use fill="black" fill-opacity="1" filter="url(#filter-3)" xlink:href="#path-2"></use>
                        <use fill-opacity="0.713107449" fill="#FFFFFF" fill-rule="evenodd" xlink:href="#path-2"></use>
                    </g>
                    <rect id="矩形" fill="#ACCCF8" x="15" y="3.11111111" width="15" height="3" rx="1"></rect>
                    <rect id="矩形" fill="#ACCCF8" x="15" y="9.12962963" width="31" height="3" rx="1"></rect>
                    <rect id="矩形" fill="#ACCCF8" x="3" y="3" width="9" height="9" rx="1"></rect>
                </g>
                <path d="M0,51 L96,51 L96,62 C96,63.6568542 94.6568542,65 93,65 L3,65 C1.34314575,65 1.01453063e-16,63.6568542 0,62 L0,51 L0,51 Z" id="形状结合" fill-opacity="0.497976877" fill="#FFFFFF"></path>
                <g id="status/16/dock-control-panel" opacity="0.294001988" transform="translate(66.1978, 54.7917)" fill="#000000" fill-rule="nonzero">
                    <path d="M4.80219953,5.00577981 C5.30237653,5.00577981 5.76581213,5.16308845 6.14573072,5.43093015 L4.80219953,6.84496753 L3.45930445,5.43048186 C3.83910418,5.16291293 4.30230165,5.00577981 4.80219953,5.00577981 Z M4.80219953,3.33702981 C5.74799655,3.33702981 6.61718529,3.6650288 7.30222206,4.21348308 L6.86953631,4.66827697 C6.29817491,4.22554708 5.5809611,3.96202981 4.80219953,3.96202981 C4.02372597,3.96202981 3.30675465,4.22535221 2.73549673,4.66778585 L2.30279868,4.21298545 C2.98773961,3.6648304 3.85668861,3.33702981 4.80219953,3.33702981 Z M4.80219953,1.66887879 C6.19315952,1.66887879 7.4671831,2.1695431 8.45389107,3.00049254 L8.02253734,3.45453673 C7.14865243,2.72965481 6.02631645,2.29387879 4.80219953,2.29387879 C3.57816617,2.29387879 2.45589986,2.72959532 1.58204069,3.45438828 L1.15112808,2.99997041 C2.13774971,2.16933338 3.41153091,1.66887879 4.80219953,1.66887879 Z M5.72306018,0.0571981287 L5.87925159,0.0784501939 L6.10047982,0.114441814 L6.27716418,0.148219564 L6.45996142,0.187951209 C7.64323265,0.461072117 8.717076,1.02023285 9.60475214,1.78869409 L9.17387716,2.24244558 C7.99904761,1.23420318 6.47176709,0.625 4.80219953,0.625 C3.13292525,0.625 1.60588801,1.23398918 0.43114103,2.24191431 L0,1.78838846 C0.89806246,1.01103516 1.98664254,0.447895478 3.18628884,0.178420804 L3.36156704,0.141302583 L3.56019679,0.104625757 C3.73449686,0.0749247065 3.91089129,0.0513679093 4.08914934,0.0341861104 L4.36937267,0.0124899818 C4.4416592,0.00830658114 4.51422499,0.00516429593 4.58705528,0.00307789688 L4.80219953,0 L5.06427734,0.0045697222 L5.29576018,0.0162538113 C5.36922718,0.021108262 5.44240015,0.0270385223 5.5152635,0.0340289839 L5.72306018,0.0571981287 Z" id="形状"></path>
                </g>
                <g id="status/16/dock-control-panel" opacity="0.294001988" transform="translate(82.5923, 54.25)" fill="#000000">
                    <path d="M7.16538462,-7.10542736e-15 C8.02567432,-7.10542736e-15 8.72307692,0.699555078 8.72307692,1.5625 C8.72307692,2.42544492 8.02567432,3.125 7.16538462,3.125 L1.55769231,3.125 C0.697402601,3.125 1.42108547e-14,2.42544492 1.42108547e-14,1.5625 C1.42108547e-14,0.699555078 0.697402601,-7.10542736e-15 1.55769231,-7.10542736e-15 L7.16538462,-7.10542736e-15 Z M7.16538462,0.625 C6.64921079,0.625 6.23076923,1.04473305 6.23076923,1.5625 C6.23076923,2.08026695 6.64921079,2.5 7.16538462,2.5 C7.68155844,2.5 8.1,2.08026695 8.1,1.5625 C8.1,1.04473305 7.68155844,0.625 7.16538462,0.625 Z M7.16538462,4.375 C8.02567432,4.375 8.72307692,5.07455508 8.72307692,5.9375 C8.72307692,6.80044492 8.02567432,7.5 7.16538462,7.5 L1.55769231,7.5 C0.697402601,7.5 1.42108547e-14,6.80044492 1.42108547e-14,5.9375 C1.42108547e-14,5.07455508 0.697402601,4.375 1.55769231,4.375 L7.16538462,4.375 Z M6.34075993,5.00030877 L1.55769231,5 C1.04151848,5 0.623076923,5.41973305 0.623076923,5.9375 C0.623076923,6.45526695 1.04151848,6.875 1.55769231,6.875 L6.34139946,6.87525747 C6.08252289,6.64620603 5.91923077,6.31098133 5.91923077,5.9375 C5.91923077,5.60164368 6.05127957,5.29672421 6.26614017,5.07213054 L6.34075993,5.00030877 Z" id="形状"></path>
                </g>
            </g>
        </g>
    </g>
</svg>