<?xml version="1.0" encoding="utf-8"?>
<!-- Generator: Adobe Illustrator 17.0.2, SVG Export Plug-In . SVG Version: 6.00 Build 0)  -->
<!DOCTYPE svg PUBLIC "-//W3C//DTD SVG 1.1//EN" "http://www.w3.org/Graphics/SVG/1.1/DTD/svg11.dtd">
<svg version="1.1" id="图层_1" xmlns="http://www.w3.org/2000/svg" xmlns:xlink="http://www.w3.org/1999/xlink" x="0px" y="0px"
	 width="16px" height="16px" viewBox="0 0 16 16" enable-background="new 0 0 16 16" xml:space="preserve">
<path opacity="0.2" fill="#FF0000" enable-background="new    " d="M6.979,20.009c-0.385-0.263-0.735-0.563-1.074-0.881"/>
<path fill="#DCDCDC" d="M5.844,7C5.735,7.036,5.637,7.101,5.562,7.188L3.187,9.562C3.07,9.678,3.003,9.835,3,10v1.875l-2.75,2.75
	c-0.314,0.314-0.314,0.811,0,1.125c0.314,0.314,0.811,0.314,1.125,0L4.125,13H6c0.165-0.003,0.322-0.071,0.438-0.188l2.374-2.374
	c0.236-0.245,0.236-0.631,0-0.876L6.438,7.188C6.286,7.026,6.061,6.954,5.844,7z"/>
<path fill="#DCDCDC" d="M10.16,8.972c0.109-0.036,0.206-0.1,0.281-0.187l2.375-2.375C12.933,6.294,13,6.137,13.003,5.972V4.097
	l2.75-2.75c0.315-0.314,0.315-0.81,0-1.125c-0.314-0.314-0.81-0.314-1.125,0l-2.75,2.75h-1.875C9.839,2.976,9.682,3.043,9.566,3.16
	L7.191,5.535c-0.236,0.244-0.236,0.63,0,0.875l2.375,2.375C9.717,8.947,9.942,9.018,10.16,8.972z"/>
<path opacity="0.4" enable-background="new    " d="M15.812,1.281c-0.018,0.024-0.04,0.041-0.062,0.063L13,4.094v1l2.75-2.75
	c0.146-0.146,0.239-0.342,0.25-0.532C16.011,1.623,15.938,1.438,15.812,1.281z M13,6.125c-0.036,0.109-0.101,0.206-0.188,0.281
	l-2.374,2.375c-0.075,0.087-0.173,0.152-0.282,0.188C9.939,9.014,9.714,8.943,9.562,8.781L7.25,6.469L7.188,6.531
	c-0.236,0.245-0.236,0.631,0,0.875l2.374,2.375c0.152,0.162,0.377,0.233,0.594,0.188c0.109-0.036,0.207-0.101,0.282-0.188
	l2.374-2.375C12.93,7.29,12.997,7.133,13,6.969V6.125z M8.75,10.5l-2.312,2.312C6.322,12.929,6.165,12.997,6,13H4.125l-2.75,2.75
	C1.218,15.907,1.015,16,0.813,16h1.312l2-2H6c0.165-0.003,0.322-0.071,0.438-0.188l2.374-2.374c0.236-0.245,0.236-0.631,0-0.876
	L8.75,10.5z M0.813,16c-0.203,0-0.406-0.093-0.563-0.25c-0.022-0.022-0.044-0.039-0.062-0.062C0.111,15.783,0.089,15.887,0.063,16
	H0.813z"/>
<g>
	<g opacity="0.4">
		<path d="M12.625,9C12.279,9,12,9.279,12,9.625V12h-0.375C11.279,12,11,12.279,11,12.625v2.75C11,15.721,11.279,16,11.625,16h3.75
			C15.721,16,16,15.721,16,15.375v-2.75C16,12.279,15.721,12,15.375,12H15V9.625C15,9.279,14.721,9,14.375,9H12.625z M13,10h1v2h-1
			V10z"/>
	</g>
	<g>
		<path fill="#DCDCDC" d="M12.625,8C12.279,8,12,8.279,12,8.625V11h-0.375C11.279,11,11,11.279,11,11.625v2.75
			C11,14.721,11.279,15,11.625,15h3.75C15.721,15,16,14.721,16,14.375v-2.75C16,11.279,15.721,11,15.375,11H15V8.625
			C15,8.279,14.721,8,14.375,8H12.625z M13,9h1v2h-1V9z"/>
	</g>
</g>
</svg>
