<?xml version="1.0" encoding="utf-8"?>
<!-- Generator: Adobe Illustrator 17.0.2, SVG Export Plug-In . SVG Version: 6.00 Build 0)  -->
<!DOCTYPE svg PUBLIC "-//W3C//DTD SVG 1.1//EN" "http://www.w3.org/Graphics/SVG/1.1/DTD/svg11.dtd">
<svg version="1.1"
	 id="svg3167" xmlns:inkscape="http://www.inkscape.org/namespaces/inkscape" xmlns:cc="http://creativecommons.org/ns#" xmlns:rdf="http://www.w3.org/1999/02/22-rdf-syntax-ns#" xmlns:svg="http://www.w3.org/2000/svg" xmlns:dc="http://purl.org/dc/elements/1.1/"
	 xmlns="http://www.w3.org/2000/svg" xmlns:xlink="http://www.w3.org/1999/xlink" x="0px" y="0px" width="22px" height="16px"
	 viewBox="0 0 22 16" enable-background="new 0 0 22 16" xml:space="preserve">
<g id="path3375" inkscape:connector-curvature="0">
	<g opacity="0.4">
		<path d="M13.147,13.709C13.053,13.79,10.972,16,10.972,16s-2.06-2.228-2.138-2.291c0.138-0.104,0.702-0.512,2.142-0.506
			C12.394,13.209,13.039,13.608,13.147,13.709L13.147,13.709z"/>
	</g>
	<g>
		<path fill="#DCDCDC" d="M13.147,12.709C13.053,12.79,10.972,15,10.972,15s-2.06-2.228-2.138-2.291
			c0.138-0.104,0.702-0.512,2.142-0.506C12.394,12.209,13.039,12.608,13.147,12.709L13.147,12.709z"/>
	</g>
</g>
<g opacity="0.8" enable-background="new    ">
	<g opacity="0.4">
		<path fill="none" stroke="#000000" stroke-width="1.7" stroke-linecap="round" stroke-linejoin="round" d="M6.771,11.449
			c0,0,1.019-1.291,4.139-1.324c3.082-0.033,4.261,1.324,4.261,1.324"/>
	</g>
	<g>
		<path fill="none" stroke="#DCDCDC" stroke-width="1.7" stroke-linecap="round" stroke-linejoin="round" d="M6.771,10.449
			c0,0,1.019-1.291,4.139-1.324c3.082-0.033,4.261,1.324,4.261,1.324"/>
	</g>
</g>
<g opacity="0.8" enable-background="new    ">
	<g opacity="0.4">
		<path fill="none" stroke="#000000" stroke-width="1.7" stroke-linecap="round" stroke-linejoin="round" d="M4.056,8.453
			c0,0,2.235-2.422,6.924-2.336c4.728,0.087,6.924,2.375,6.924,2.375"/>
	</g>
	<g>
		<path fill="none" stroke="#DCDCDC" stroke-width="1.7" stroke-linecap="round" stroke-linejoin="round" d="M4.056,7.453
			c0,0,2.235-2.422,6.924-2.336c4.728,0.087,6.924,2.375,6.924,2.375"/>
	</g>
</g>
<g>
	<path fill="none" stroke="#3C3C3C" stroke-width="1.7" stroke-linecap="round" stroke-linejoin="round" d="M1.199,4.414
		c0,0,3.104-3.431,9.782-3.431c6.645,0,9.82,3.437,9.82,3.437"/>
</g>
<g id="rect2822" inkscape:connector-curvature="0">
	<g opacity="0.4">
		<path d="M19,8c-1.108,0-2,0.911-2,2.031V11c-0.554,0-1,0.446-1,1v3c0,0.554,0.446,1,1,1h4c0.554,0,1-0.446,1-1v-3
			c0-0.554-0.446-1-1-1v-0.969C21,8.911,20.108,8,19,8z M19,9c0.554,0,1,0.442,1,1v1h-2v-1C18,9.442,18.446,9,19,9z"/>
	</g>
	<g>
		<path fill="#DCDCDC" d="M19,7c-1.108,0-2,0.911-2,2.031V10c-0.554,0-1,0.446-1,1v3c0,0.554,0.446,1,1,1h4c0.554,0,1-0.446,1-1v-3
			c0-0.554-0.446-1-1-1V9.031C21,7.911,20.108,7,19,7z M19,8c0.554,0,1,0.442,1,1v1h-2V9C18,8.442,18.446,8,19,8z"/>
	</g>
</g>
</svg>
