<?xml version="1.0" encoding="iso-8859-1"?>
<!-- Generator: Adobe Illustrator 18.0.0, SVG Export Plug-In . SVG Version: 6.00 Build 0)  -->
<!DOCTYPE svg PUBLIC "-//W3C//DTD SVG 1.1//EN" "http://www.w3.org/Graphics/SVG/1.1/DTD/svg11.dtd">
<svg version="1.1" id="&#x56FE;&#x5C42;_1" xmlns="http://www.w3.org/2000/svg" xmlns:xlink="http://www.w3.org/1999/xlink" x="0px"
	 y="0px" viewBox="0 0 24 24" style="enable-background:new 0 0 24 24;" xml:space="preserve">
<g>
	<rect x="11" y="6" style="fill:#B5B5B6;" width="3" height="3"/>
	<rect x="14" y="10" style="fill:#B5B5B6;" width="3" height="3"/>
	<rect x="7" y="6" style="fill:#B5B5B6;" width="3" height="3"/>
	<rect x="10" y="10" style="fill:#B5B5B6;" width="3" height="3"/>
	<rect x="3" y="6" style="fill:#B5B5B6;" width="3" height="3"/>
	<rect x="6" y="10" style="fill:#B5B5B6;" width="3" height="3"/>
	<rect x="3" y="10" style="fill:#B5B5B6;" width="2" height="3"/>
	<rect x="3" y="14" style="fill:#B5B5B6;" width="3" height="3"/>
	<rect x="18" y="14" style="fill:#B5B5B6;" width="3" height="3"/>
	<rect x="7" y="14" style="fill:#B5B5B6;" width="10" height="3"/>
	<rect x="18" y="10" style="fill:#B5B5B6;" width="3" height="3"/>
	<rect x="15" y="6" style="fill:#B5B5B6;" width="6" height="3"/>
	<path style="fill:#B5B5B6;" d="M1,5v13c0,0.552,0.448,1,1,1h20c0.552,0,1-0.448,1-1V5c0-0.552-0.448-1-1-1H2C1.448,4,1,4.448,1,5z
		 M22,17.5c0,0.276-0.224,0.5-0.5,0.5h-19C2.224,18,2,17.776,2,17.5v-12C2,5.224,2.224,5,2.5,5h19C21.776,5,22,5.224,22,5.5V17.5z"
		/>
</g>
</svg>
