<?xml version="1.0" encoding="iso-8859-1"?>
<!-- Generator: Adobe Illustrator 18.0.0, SVG Export Plug-In . SVG Version: 6.00 Build 0)  -->
<!DOCTYPE svg PUBLIC "-//W3C//DTD SVG 1.1//EN" "http://www.w3.org/Graphics/SVG/1.1/DTD/svg11.dtd">
<svg version="1.1" id="&#x56FE;&#x5C42;_1" xmlns="http://www.w3.org/2000/svg" xmlns:xlink="http://www.w3.org/1999/xlink" x="0px"
	 y="0px" viewBox="0 0 64 64" style="enable-background:new 0 0 64 64;" xml:space="preserve">
<g>
	<path style="fill:#B5B5B6;" d="M10,13v27h44V13H10z M20,33h-4v-2h4V33z M20,27h-4v-2h4V27z M20,21h-4v-2h4V21z M48,33H24v-2h24V33z
		 M48,27H24v-2h24V27z M48,21H24v-2h24V21z"/>
	<path style="fill:#B5B5B6;" d="M55,9.002H9c-1.654,0-3,1.347-3,3.001v34.034c0,1.635,1.346,2.965,3,2.965h17v5h-9.081
		c-0.552,0-1,0.447-1,1s0.448,1,1,1h30.028c0.553,0,1-0.447,1-1s-0.447-1-1-1H38v-5h17c1.654,0,3-1.33,3-2.965V12.003
		C58,10.349,56.654,9.002,55,9.002z M56,40.002v1v5c0,0.552-0.448,1-1,1H9c-0.552,0-1-0.448-1-1v-5v-1V12.003
		c0-0.551,0.45-1.001,1.001-1.001H55c0.552,0,1,0.448,1,1V40.002z"/>
</g>
</svg>
