<?xml version="1.0" encoding="iso-8859-1"?>
<!-- Generator: Adobe Illustrator 18.0.0, SVG Export Plug-In . SVG Version: 6.00 Build 0)  -->
<!DOCTYPE svg PUBLIC "-//W3C//DTD SVG 1.1//EN" "http://www.w3.org/Graphics/SVG/1.1/DTD/svg11.dtd">
<svg version="1.1" id="&#x56FE;&#x5C42;_1" xmlns="http://www.w3.org/2000/svg" xmlns:xlink="http://www.w3.org/1999/xlink" x="0px"
	 y="0px" viewBox="0 0 64 64" style="enable-background:new 0 0 64 64;" xml:space="preserve">
<path style="fill:#B5B5B6;" d="M37.956,39.663c-0.022-0.882-0.006-0.882,0.02-1.65c0.926-1.029,3.17-3.805,4.009-7.408
	c0.858-0.401,1.581-1.264,2.029-2.475c0.63-1.704,0.675-4.049-0.548-5.57c0.003-0.026,0.009-0.047,0.009-0.071
	c0.234-2.134,0.851-7.8-2.509-11.518c-1.997-2.206-5.011-3.952-8.963-3.952c-3.952,0-6.965,1.744-8.962,3.95
	c-3.359,3.713-2.748,9.38-2.52,11.513c0.003,0.028,0.009,0.049,0.012,0.078c-1.224,1.522-1.175,3.87-0.546,5.575
	c0.448,1.208,1.167,2.072,2.021,2.471c0.839,3.604,3.078,6.381,4,7.408c0.012,0.905,0.041,0.905,0.055,1.683
	C26.065,45.616,7,44.057,7,51.772v3.244l50,0.015v-3.237C57,44.077,37.794,45.814,37.956,39.663z"/>
</svg>
