<?xml version="1.0" encoding="iso-8859-1"?>
<!-- Generator: Adobe Illustrator 18.0.0, SVG Export Plug-In . SVG Version: 6.00 Build 0)  -->
<!DOCTYPE svg PUBLIC "-//W3C//DTD SVG 1.1//EN" "http://www.w3.org/Graphics/SVG/1.1/DTD/svg11.dtd">
<svg version="1.1" id="&#x56FE;&#x5C42;_1" xmlns="http://www.w3.org/2000/svg" xmlns:xlink="http://www.w3.org/1999/xlink" x="0px"
	 y="0px" viewBox="0 0 64 64" style="enable-background:new 0 0 64 64;" xml:space="preserve">
<g>
	<rect x="30" y="17" style="fill:#B5B5B6;" width="8" height="8"/>
	<rect x="37" y="27" style="fill:#B5B5B6;" width="7" height="8"/>
	<rect x="20" y="17" style="fill:#B5B5B6;" width="8" height="8"/>
	<rect x="28" y="27" style="fill:#B5B5B6;" width="7" height="8"/>
	<rect x="10" y="17" style="fill:#B5B5B6;" width="8" height="8"/>
	<rect x="19" y="27" style="fill:#B5B5B6;" width="7" height="8"/>
	<rect x="10" y="27" style="fill:#B5B5B6;" width="7" height="8"/>
	<rect x="10" y="37" style="fill:#B5B5B6;" width="8" height="8"/>
	<rect x="46" y="37" style="fill:#B5B5B6;" width="8" height="8"/>
	<rect x="20" y="37" style="fill:#B5B5B6;" width="24" height="8"/>
	<rect x="46" y="27" style="fill:#B5B5B6;" width="8" height="8"/>
	<rect x="40" y="17" style="fill:#B5B5B6;" width="14" height="8"/>
	<path style="fill:#B5B5B6;" d="M6,15.977v30.048c0,1.656,1.342,2.999,2.999,3l46,0.019c1.657,0.001,3.001-1.343,3.001-3V15.996
		c0-1.656-1.342-2.999-2.999-3l-46-0.019C7.344,12.977,6,14.32,6,15.977z M55,47H9c-0.552,0-1-0.448-1-1V16c0-0.552,0.448-1,1-1h46
		c0.552,0,1,0.448,1,1v30C56,46.552,55.552,47,55,47z"/>
</g>
</svg>
