<?xml version="1.0" encoding="iso-8859-1"?>
<!-- Generator: Adobe Illustrator 18.1.1, SVG Export Plug-In . SVG Version: 6.00 Build 0)  -->
<!DOCTYPE svg PUBLIC "-//W3C//DTD SVG 1.1//EN" "http://www.w3.org/Graphics/SVG/1.1/DTD/svg11.dtd" [
	<!ENTITY ns_extend "http://ns.adobe.com/Extensibility/1.0/">
	<!ENTITY ns_ai "http://ns.adobe.com/AdobeIllustrator/10.0/">
	<!ENTITY ns_graphs "http://ns.adobe.com/Graphs/1.0/">
	<!ENTITY ns_vars "http://ns.adobe.com/Variables/1.0/">
	<!ENTITY ns_imrep "http://ns.adobe.com/ImageReplacement/1.0/">
	<!ENTITY ns_sfw "http://ns.adobe.com/SaveForWeb/1.0/">
	<!ENTITY ns_custom "http://ns.adobe.com/GenericCustomNamespace/1.0/">
	<!ENTITY ns_adobe_xpath "http://ns.adobe.com/XPath/1.0/">
]>
<svg version="1.1" id="&#x56FE;&#x5C42;_1" xmlns:x="&ns_extend;" xmlns:i="&ns_ai;" xmlns:graph="&ns_graphs;"
	 xmlns="http://www.w3.org/2000/svg" xmlns:xlink="http://www.w3.org/1999/xlink" x="0px" y="0px" viewBox="0 0 24 24"
	 style="enable-background:new 0 0 24 24;" xml:space="preserve">
<metadata>
	<sfw  xmlns="&ns_sfw;">
		<slices></slices>
		<sliceSourceBounds  height="1496.04" width="1491.037" x="21" y="-1504.04" bottomLeftOrigin="true"></sliceSourceBounds>
	</sfw>
</metadata>
<g>
	<path style="fill:#B4B4B4;" d="M18.021,12.007c-2.757,0-5,2.243-5,5c0,2.757,2.243,5,5,5s5-2.243,5-5
		C23.021,14.249,20.778,12.007,18.021,12.007z M18.306,18.566l-2.4,1.601c-0.08,0.053-0.17,0.079-0.26,0.079
		c-0.151,0-0.3-0.073-0.39-0.209c-0.144-0.215-0.086-0.506,0.13-0.65l1.807-1.205l-1.801-1.165
		c-0.217-0.141-0.279-0.431-0.139-0.648c0.141-0.217,0.431-0.28,0.648-0.139l2.4,1.553c0.133,0.086,0.213,0.233,0.214,0.39
		C18.516,18.33,18.437,18.478,18.306,18.566z M20.814,17.657c-0.09,0.139-0.24,0.214-0.394,0.214c-0.087,0-0.176-0.024-0.254-0.075
		l-2.4-1.553c-0.133-0.086-0.213-0.233-0.214-0.39c-0.001-0.158,0.077-0.305,0.208-0.393l2.4-1.601
		c0.216-0.143,0.506-0.085,0.65,0.13c0.144,0.215,0.086,0.506-0.13,0.65l-1.807,1.205l1.801,1.165
		C20.892,17.149,20.955,17.44,20.814,17.657z"/>
	<path style="fill:#B4B4B4;" d="M12.373,15c0.826-2.317,3.032-3.983,5.627-3.992V6H4v9H12.373z"/>
	<path style="fill:#B4B4B4;" d="M3.2,17C3.09,17,3,16.91,3,16.8V5.2C3,5.09,3.09,5,3.2,5h15.6C18.91,5,19,5.09,19,5.2v5.894
		c0.344,0.057,0.678,0.142,1,0.255V5c0-0.552-0.448-1-1-1H3C2.448,4,2,4.448,2,5v12c0,0.552,0.448,1,1,1h6v2H6.5
		C6.225,20,6,20.225,6,20.5C6,20.775,6.225,21,6.5,21h3.172h3.883c-0.952-1.064-1.557-2.463-1.555-4H3.2z"/>
</g>
</svg>
