<?xml version="1.0" encoding="iso-8859-1"?>
<!-- Generator: Adobe Illustrator 18.0.0, SVG Export Plug-In . SVG Version: 6.00 Build 0)  -->
<!DOCTYPE svg PUBLIC "-//W3C//DTD SVG 1.1//EN" "http://www.w3.org/Graphics/SVG/1.1/DTD/svg11.dtd">
<svg version="1.1" id="&#x56FE;&#x5C42;_1" xmlns="http://www.w3.org/2000/svg" xmlns:xlink="http://www.w3.org/1999/xlink" x="0px"
	 y="0px" viewBox="0 0 24 24" style="enable-background:new 0 0 24 24;" xml:space="preserve">
<g>
	<path style="fill:#B4B4B4;" d="M20,3H4C3.448,3,3,3.448,3,4v16c0,0.552,0.448,1,1,1h16c0.552,0,1-0.448,1-1V4
		C21,3.448,20.552,3,20,3z M12,8.675c-1-0.721-2.188-0.659-2.188-0.659S8.031,7.797,8,10.047V11h3v1H8v6H7v-6H5v-1h2V9.873
		c0-1.326,0.309-1.818,0.766-2.232c0.455-0.413,1.176-0.625,1.922-0.625c0.455,0,1.531,0.078,2.313,0.531V8.675z M18,18h-1v-3.797
		C17,13.375,16.781,12,15.406,12S13,13.938,13,15.091V18h-1v-7h1v1.453c0.375-0.656,0.938-1.438,2.5-1.438s2.5,1.531,2.5,2.594V18z"
		/>
</g>
</svg>
