<?xml version="1.0" encoding="iso-8859-1"?>
<!-- Generator: Adobe Illustrator 18.0.0, SVG Export Plug-In . SVG Version: 6.00 Build 0)  -->
<!DOCTYPE svg PUBLIC "-//W3C//DTD SVG 1.1//EN" "http://www.w3.org/Graphics/SVG/1.1/DTD/svg11.dtd">
<svg version="1.1" id="&#x56FE;&#x5C42;_1" xmlns="http://www.w3.org/2000/svg" xmlns:xlink="http://www.w3.org/1999/xlink" x="0px"
	 y="0px" viewBox="0 0 64 64" style="enable-background:new 0 0 64 64;" xml:space="preserve">
<path style="opacity:0.1;fill:#B4B4B4;" d="M50.813,50.813c-3.35,3.348-7.803,5.194-12.544,5.194c-4.737,0-9.19-1.846-12.54-5.194
	L13.187,38.269c-6.917-6.915-6.917-18.168,0-25.084c3.348-3.348,7.803-5.195,12.542-5.191c4.737-0.004,9.192,1.843,12.54,5.191
	l12.544,12.544C57.728,32.644,57.728,43.897,50.813,50.813z"/>
<path style="fill:#B4B4B4;" d="M25.729,7.994c4.737-0.004,9.192,1.843,12.54,5.191l0,0L26.512,24.943L14.008,12.44
	C17.248,9.575,21.362,7.991,25.729,7.994z M13.187,38.269c-6.652-6.65-6.887-17.301-0.745-24.26L24.945,26.51L13.187,38.269
	L13.187,38.269z M50.813,50.813c-3.35,3.348-7.803,5.194-12.544,5.194c-4.737,0-9.19-1.846-12.54-5.194L14.754,39.837l25.083-25.084
	l10.976,10.976C57.728,32.644,57.728,43.897,50.813,50.813z"/>
</svg>
