<?xml version="1.0" encoding="iso-8859-1"?>
<!-- Generator: Adobe Illustrator 18.0.0, SVG Export Plug-In . SVG Version: 6.00 Build 0)  -->
<!DOCTYPE svg PUBLIC "-//W3C//DTD SVG 1.1//EN" "http://www.w3.org/Graphics/SVG/1.1/DTD/svg11.dtd">
<svg version="1.1" id="&#x56FE;&#x5C42;_1" xmlns="http://www.w3.org/2000/svg" xmlns:xlink="http://www.w3.org/1999/xlink" x="0px"
	 y="0px" viewBox="0 0 64 64" style="enable-background:new 0 0 64 64;" xml:space="preserve">
<path style="fill:#B5B5B6;" d="M32,7C18.193,7,7,18.193,7,32c0,13.807,11.193,25,25,25c13.807,0,25-11.193,25-25
	C57,18.193,45.807,7,32,7z M52.216,35.732c-0.419-2.66-2.835-1.118-2.835-1.118c-3.812,2.029-5.073-2.098-5.073-2.098
	c-1.816-1.751-0.347-4.409-0.347-4.409c1.33-0.141,2.519-2.169,2.519-2.169c-0.351-1.12,1.33-2.09,1.33-2.09
	c1.678,0.776,2.239-0.081,2.239-0.081c1.395-1.396,2.797,0,2.797,0c0.32,0.258,0.59,0.425,0.832,0.543
	C54.531,26.715,55,29.302,55,32c0,2.234-0.325,4.39-0.918,6.432C52.512,37.963,52.216,35.732,52.216,35.732z M52.146,20.9
	c-0.61-0.207-1.229-0.22-1.678,0.28c0,0-0.141,2.395-2.45,1.969c0,0-2.868-0.896,0.488-2.446c0,0,1.328-0.712,0.28-1.133
	c0,0,0.631-1.679-1.12-1.328c0,0-2.699,0-0.789-1.822c0,0,0.04-0.854,0.982-1.069C49.554,16.966,51.005,18.835,52.146,20.9z
	 M44.103,12.443c-1.428,1.591-4.061,1.039-4.061,1.039c-1.122,0.421-2.031,1.122-2.031,1.122c-2.38,0.699-1.328-2.029-1.328-2.029
	c1.328-1.33-0.562-2.237-0.562-2.237c-1.818,0.909-2.851-0.139-2.851-0.139c-0.687-1.26-1.556-0.278-1.556-0.278
	c-1.258,1.33,0.28,1.486,0.28,1.486c1.469,0.432,1.258,1.957,1.258,1.957c0.21,2.729-1.888,1.075-1.888,1.075
	c0.21-1.118-1.12-1.838-1.12-1.838c-1.747-0.768-1.191-2.077-1.191-2.077c0.463-0.631,0.626-1.081,0.624-1.409
	C30.443,9.04,31.217,9,32,9C36.442,9,40.587,10.262,44.103,12.443z M23.598,11.034c0,0,1.608,1.398-1.189,1.469
	c0,0-0.028-0.852-0.447-1.201c0.415-0.202,0.838-0.389,1.266-0.566C23.313,10.846,23.428,10.949,23.598,11.034z M20.38,12.154
	c0.009,0.266,0.23,0.56,0.981,0.771c0,0,1.957,1.33,4.057-0.421c0,0,3.567-1.399,1.818,1.61c0,0-2.799-0.419-2.308,1.61
	c0,0-0.07,1.679,1.959,0.979c0,0,1.82-2.724,3.428-1.781c0,0,1.61-0.037,1.818,1.571c0,0,2.66,0.629,1.401,2.449
	c0,0-0.492,1.33-1.61,0c0,0-1.469-1.679-1.122-0.071c0,0,1.262,0.909-1.187,1.401c0,0-1.834-0.558-2.492,1.608
	c0,0-0.166,0.981-2.127,1.961c0,0-1.12,0.069-0.979,1.538c0,0-0.141,1.89-1.749,1.82c0,0-0.909,0.069-0.981-1.749
	c0,0-0.558-2.241-4.337,0.768c0,0-1.61,1.679,0.49,2.938c0,0,1.05,0.629,1.818,0c0,0,2.31-0.49,0.629,1.258
	c0,0,3.115,2.158,0.097,1.886c0.002,0.002,0.004,0.004,0.004,0.004c1.409,0.697,3.843,0.174,3.843,0.174
	c3.337-2.137,5.559,1.11,5.559,1.11c1.967,0.174,3.171,2.228,3.171,2.228c0.774,1.367,3.924,1.621,3.924,1.621
	c2.226,0.942,0.6,2.48,0.6,2.48c-0.853,0.085-1.025,1.712-1.025,1.712c1.797,1.538-2.48,3.932-2.48,3.932
	c0.342,2.565-3.677,4.789-3.677,4.789c-0.84,1.296,0.028,3.56,0.502,4.589c-0.793-0.054-1.575-0.149-2.345-0.282
	c-0.198-0.135-0.403-0.277-0.635-0.459c-2.619-2.038-1.37-8.379-1.37-8.379c0.6-2.739-0.599-3.679-0.599-3.679
	c-5.389-2.737-3.079-5.727-3.079-5.727c1.712-2.311-0.598-2.911-0.598-2.911c-0.674-0.156-1.301-0.681-1.791-1.199
	c-0.004-0.002-0.008-0.002-0.011-0.004c-3.023-0.278-0.373-2.272-2.816-1.45c0,0-2.172,0.336-2.799-1.343
	c-0.631-1.68,0.154-1.191-1.6-1.82c-1.76-0.627,0.621-1.4-0.78-2.237c-1.009-0.605-1.436-0.074-1.831-0.64
	C11.916,19.449,15.594,14.962,20.38,12.154z"/>
</svg>
