<?xml version="1.0" encoding="iso-8859-1"?>
<!-- Generator: Adobe Illustrator 18.0.0, SVG Export Plug-In . SVG Version: 6.00 Build 0)  -->
<!DOCTYPE svg PUBLIC "-//W3C//DTD SVG 1.1//EN" "http://www.w3.org/Graphics/SVG/1.1/DTD/svg11.dtd">
<svg version="1.1" id="&#x56FE;&#x5C42;_1" xmlns="http://www.w3.org/2000/svg" xmlns:xlink="http://www.w3.org/1999/xlink" x="0px"
	 y="0px" viewBox="0 0 24 24" style="enable-background:new 0 0 24 24;" xml:space="preserve">
<path style="fill:#B5B5B6;" d="M12,2C6.477,2,2,6.477,2,12c0,5.523,4.477,10,10,10c5.523,0,10-4.477,10-10C22,6.477,17.523,2,12,2z
	 M20.087,13.493c-0.168-1.064-1.134-0.447-1.134-0.447c-1.525,0.812-2.029-0.839-2.029-0.839c-0.727-0.7-0.139-1.764-0.139-1.764
	c0.532-0.056,1.008-0.868,1.008-0.868c-0.14-0.448,0.532-0.836,0.532-0.836c0.671,0.31,0.896-0.032,0.896-0.032
	c0.558-0.558,1.119,0,1.119,0c0.128,0.103,0.236,0.17,0.333,0.217C21.013,9.886,21.2,10.921,21.2,12c0,0.893-0.13,1.756-0.367,2.573
	C20.205,14.385,20.087,13.493,20.087,13.493z M20.058,7.56c-0.244-0.083-0.492-0.088-0.671,0.112c0,0-0.056,0.958-0.98,0.788
	c0,0-1.147-0.358,0.195-0.978c0,0,0.531-0.285,0.112-0.453c0,0,0.252-0.672-0.448-0.531c0,0-1.079,0-0.316-0.729
	c0,0,0.016-0.342,0.393-0.428C19.022,5.987,19.602,6.734,20.058,7.56z M16.841,4.177c-0.571,0.636-1.624,0.416-1.624,0.416
	c-0.449,0.168-0.812,0.449-0.812,0.449c-0.952,0.279-0.531-0.812-0.531-0.812c0.531-0.532-0.225-0.895-0.225-0.895
	c-0.727,0.364-1.14-0.056-1.14-0.056c-0.275-0.504-0.622-0.111-0.622-0.111c-0.503,0.532,0.112,0.594,0.112,0.594
	c0.587,0.173,0.503,0.783,0.503,0.783c0.084,1.092-0.755,0.43-0.755,0.43c0.084-0.447-0.448-0.735-0.448-0.735
	C10.6,3.933,10.822,3.41,10.822,3.41c0.185-0.252,0.251-0.432,0.25-0.563C11.377,2.816,11.687,2.8,12,2.8
	C13.777,2.8,15.435,3.305,16.841,4.177z M8.639,3.614c0,0,0.643,0.559-0.476,0.588c0,0-0.011-0.341-0.179-0.481
	C8.151,3.64,8.32,3.565,8.492,3.494C8.525,3.538,8.571,3.579,8.639,3.614z M7.352,4.061C7.356,4.168,7.444,4.285,7.745,4.37
	c0,0,0.783,0.532,1.623-0.168c0,0,1.427-0.56,0.727,0.644c0,0-1.12-0.168-0.923,0.644c0,0-0.028,0.672,0.784,0.391
	c0,0,0.728-1.089,1.371-0.713c0,0,0.644-0.015,0.727,0.628c0,0,1.064,0.252,0.561,0.98c0,0-0.197,0.532-0.644,0
	c0,0-0.588-0.672-0.449-0.029c0,0,0.505,0.364-0.475,0.561c0,0-0.733-0.223-0.997,0.643c0,0-0.066,0.392-0.851,0.784
	c0,0-0.448,0.028-0.391,0.615c0,0-0.056,0.756-0.699,0.728c0,0-0.364,0.028-0.392-0.7c0,0-0.223-0.896-1.735,0.307
	c0,0-0.644,0.672,0.196,1.175c0,0,0.42,0.252,0.727,0c0,0,0.924-0.196,0.252,0.503c0,0,1.246,0.863,0.039,0.754
	c0.001,0.001,0.001,0.002,0.001,0.002c0.564,0.279,1.537,0.07,1.537,0.07c1.335-0.855,2.224,0.444,2.224,0.444
	c0.787,0.069,1.269,0.891,1.269,0.891c0.31,0.547,1.57,0.649,1.57,0.649c0.89,0.377,0.24,0.992,0.24,0.992
	c-0.341,0.034-0.41,0.685-0.41,0.685c0.719,0.615-0.992,1.573-0.992,1.573c0.137,1.026-1.471,1.916-1.471,1.916
	c-0.336,0.518,0.011,1.424,0.201,1.836c-0.317-0.022-0.63-0.06-0.938-0.113c-0.079-0.054-0.161-0.111-0.254-0.183
	c-1.048-0.815-0.548-3.352-0.548-3.352c0.24-1.096-0.239-1.472-0.239-1.472c-2.156-1.095-1.231-2.291-1.231-2.291
	c0.685-0.924-0.239-1.164-0.239-1.164c-0.269-0.063-0.52-0.273-0.717-0.479c-0.001-0.001-0.003-0.001-0.005-0.002
	c-1.209-0.111-0.149-0.909-1.126-0.58c0,0-0.869,0.134-1.12-0.537c-0.253-0.672,0.062-0.476-0.64-0.728
	c-0.704-0.251,0.249-0.56-0.312-0.895C3.59,9.138,3.419,9.35,3.261,9.124C3.966,6.98,5.438,5.185,7.352,4.061z"/>
</svg>
