<?xml version="1.0" encoding="iso-8859-1"?>
<!-- Generator: Adobe Illustrator 18.0.0, SVG Export Plug-In . SVG Version: 6.00 Build 0)  -->
<!DOCTYPE svg PUBLIC "-//W3C//DTD SVG 1.1//EN" "http://www.w3.org/Graphics/SVG/1.1/DTD/svg11.dtd">
<svg version="1.1" id="&#x56FE;&#x5C42;_1" xmlns="http://www.w3.org/2000/svg" xmlns:xlink="http://www.w3.org/1999/xlink" x="0px"
	 y="0px" viewBox="0 0 24 24" style="enable-background:new 0 0 24 24;" xml:space="preserve">
<path style="fill:#B4B4B4;" d="M12.008,2.002c-5.523,0-10,4.478-10,10c0,5.523,4.477,10.001,10,10.001c5.523,0,10-4.478,10-10.001
	C22.008,6.48,17.532,2.002,12.008,2.002z M13,18.102c0,0.442-0.558,0.8-1,0.8c-0.442,0-1-0.358-1-0.8v-8.8c0-0.442,0.558-0.8,1-0.8
	c0.442,0,1,0.358,1,0.8V18.102z M12.008,7.514c-0.828,0-1.5-0.671-1.5-1.5c0-0.831,0.672-1.5,1.5-1.5c0.828,0,1.5,0.669,1.5,1.5
	C13.508,6.843,12.837,7.514,12.008,7.514z"/>
</svg>
