<?xml version="1.0" encoding="iso-8859-1"?>
<!-- Generator: Adobe Illustrator 18.0.0, SVG Export Plug-In . SVG Version: 6.00 Build 0)  -->
<!DOCTYPE svg PUBLIC "-//W3C//DTD SVG 1.1//EN" "http://www.w3.org/Graphics/SVG/1.1/DTD/svg11.dtd">
<svg version="1.1" id="&#x56FE;&#x5C42;_1" xmlns="http://www.w3.org/2000/svg" xmlns:xlink="http://www.w3.org/1999/xlink" x="0px"
	 y="0px" viewBox="0 0 24 24" style="enable-background:new 0 0 24 24;" xml:space="preserve">
<g>
	<g>
		<path style="fill:#B5B5B6;" d="M14.891,11.98c0-1.059-0.79-2.063-1.914-2.438c-0.023-0.01-0.069-0.022-0.152-0.022
			c-0.253,0-0.458,0.181-0.458,0.403c0,0.193,0.116,0.272,0.476,0.467c0.479,0.26,1.134,0.615,1.134,1.59
			c0,0.969-0.655,1.327-1.134,1.589c-0.36,0.196-0.476,0.275-0.476,0.468c0,0.222,0.206,0.402,0.458,0.402
			c0.091,0,0.13-0.012,0.179-0.031C14.116,14.028,14.891,13.03,14.891,11.98z"/>
		<path style="fill:#B5B5B6;" d="M18.443,11.98c0-2.247-1.616-4.328-4.024-5.18c-0.074-0.023-0.144-0.035-0.207-0.035
			c-0.248,0-0.457,0.184-0.457,0.401c0,0.167,0.101,0.289,0.318,0.384l0.169,0.075c0.325,0.141,0.631,0.274,0.939,0.469
			c1.471,0.902,2.348,2.355,2.348,3.886s-0.876,2.983-2.344,3.883c-0.316,0.2-0.623,0.332-0.98,0.486l-0.133,0.059
			c-0.22,0.098-0.318,0.216-0.318,0.384c0,0.222,0.211,0.403,0.47,0.403c0.055,0,0.128-0.012,0.174-0.028
			C16.817,16.311,18.443,14.227,18.443,11.98z"/>
		<path style="fill:#B5B5B6;" d="M15.821,4.053c-0.075-0.023-0.149-0.036-0.21-0.036c-0.247,0-0.455,0.184-0.455,0.403
			c0,0.157,0.049,0.255,0.327,0.391c0.088,0.04,0.18,0.074,0.274,0.107c0.138,0.048,0.248,0.092,0.345,0.137
			c0.445,0.201,0.844,0.41,1.188,0.622c2.372,1.474,3.789,3.831,3.789,6.304c0,2.472-1.417,4.829-3.79,6.306
			c-0.349,0.213-0.738,0.417-1.189,0.623c-0.092,0.041-0.196,0.081-0.33,0.126l-0.054,0.02c-0.078,0.029-0.156,0.058-0.224,0.091
			c-0.285,0.14-0.335,0.238-0.335,0.394c0,0.218,0.208,0.402,0.455,0.402c0.063,0,0.135-0.011,0.188-0.03
			c3.762-1.359,6.194-4.472,6.194-7.932C21.993,8.523,19.572,5.412,15.821,4.053z"/>
	</g>
	<path style="fill:#B4B4B4;" d="M11.344,3.237L6.086,8H3C2.448,8,2,8.448,2,9v6c0,0.552,0.448,1,1,1h3.099l5.213,4.771
		C11.558,21.016,12,20.858,12,20.517V3.5C12,3.215,11.602,2.979,11.344,3.237z"/>
</g>
</svg>
