<?xml version="1.0" encoding="iso-8859-1"?>
<!-- Generator: Adobe Illustrator 18.0.0, SVG Export Plug-In . SVG Version: 6.00 Build 0)  -->
<!DOCTYPE svg PUBLIC "-//W3C//DTD SVG 1.1//EN" "http://www.w3.org/Graphics/SVG/1.1/DTD/svg11.dtd">
<svg version="1.1" id="&#x56FE;&#x5C42;_1" xmlns="http://www.w3.org/2000/svg" xmlns:xlink="http://www.w3.org/1999/xlink" x="0px"
	 y="0px" viewBox="0 0 24 24" style="enable-background:new 0 0 24 24;" xml:space="preserve">
<g>
	<path style="fill:#B4B4B4;" d="M22.5,9H21V6c0-0.552-0.448-1-1-1H3C2.448,5,2,5.448,2,6v12c0,0.552,0.448,1,1,1h17
		c0.552,0,1-0.448,1-1v-3h1.5c0.276,0,0.5-0.224,0.5-0.5v-5C23,9.224,22.776,9,22.5,9z M13.086,12.434l-2.328,3.6
		c-0.116,0-7.529-7.195-7.534-7.346C3.475,8.775,9.83,11.84,9.83,11.84l2.392-3.569c0.115,0,7.344,7.111,7.334,7.247
		C19.336,15.461,13.086,12.434,13.086,12.434z"/>
</g>
</svg>
