<?xml version="1.0" encoding="iso-8859-1"?>
<!-- Generator: Adobe Illustrator 18.0.0, SVG Export Plug-In . SVG Version: 6.00 Build 0)  -->
<!DOCTYPE svg PUBLIC "-//W3C//DTD SVG 1.1//EN" "http://www.w3.org/Graphics/SVG/1.1/DTD/svg11.dtd">
<svg version="1.1" id="&#x56FE;&#x5C42;_1" xmlns="http://www.w3.org/2000/svg" xmlns:xlink="http://www.w3.org/1999/xlink" x="0px"
	 y="0px" viewBox="0 0 64 64" style="enable-background:new 0 0 64 64;" xml:space="preserve">
<g>
	<rect x="10" y="13" style="fill:#B5B5B6;" width="44" height="27"/>
	<path style="fill:#B5B5B6;" d="M55,9H9c-1.654,0-3,1.347-3,3.001v34.034C6,47.67,7.346,49,9,49h17v5h-9.081c-0.552,0-1,0.447-1,1
		s0.448,1,1,1h30.028c0.553,0,1-0.447,1-1s-0.447-1-1-1H38v-5h17c1.654,0,3-1.33,3-2.965V12.001C58,10.347,56.654,9,55,9z M56,40v1
		v5c0,0.552-0.448,1-1,1H9c-0.552,0-1-0.448-1-1v-5v-1V12.001C8,11.45,8.45,11,9.001,11H55c0.552,0,1,0.448,1,1V40z"/>
</g>
</svg>
