<?xml version="1.0" encoding="iso-8859-1"?>
<!-- Generator: Adobe Illustrator 18.1.1, SVG Export Plug-In . SVG Version: 6.00 Build 0)  -->
<!DOCTYPE svg PUBLIC "-//W3C//DTD SVG 1.1//EN" "http://www.w3.org/Graphics/SVG/1.1/DTD/svg11.dtd" [
	<!ENTITY ns_extend "http://ns.adobe.com/Extensibility/1.0/">
	<!ENTITY ns_ai "http://ns.adobe.com/AdobeIllustrator/10.0/">
	<!ENTITY ns_graphs "http://ns.adobe.com/Graphs/1.0/">
	<!ENTITY ns_vars "http://ns.adobe.com/Variables/1.0/">
	<!ENTITY ns_imrep "http://ns.adobe.com/ImageReplacement/1.0/">
	<!ENTITY ns_sfw "http://ns.adobe.com/SaveForWeb/1.0/">
	<!ENTITY ns_custom "http://ns.adobe.com/GenericCustomNamespace/1.0/">
	<!ENTITY ns_adobe_xpath "http://ns.adobe.com/XPath/1.0/">
]>
<svg version="1.1" id="&#x56FE;&#x5C42;_1" xmlns:x="&ns_extend;" xmlns:i="&ns_ai;" xmlns:graph="&ns_graphs;"
	 xmlns="http://www.w3.org/2000/svg" xmlns:xlink="http://www.w3.org/1999/xlink" x="0px" y="0px" viewBox="0 0 64 64"
	 style="enable-background:new 0 0 64 64;" xml:space="preserve">
<metadata>
	<sfw  xmlns="&ns_sfw;">
		<slices></slices>
		<sliceSourceBounds  height="16383" width="1507.058" x="4.979" y="-8700" bottomLeftOrigin="true"></sliceSourceBounds>
	</sfw>
</metadata>
<g>
	<path style="fill:#B5B5B6;" d="M48.949,34.018c-6.065,0-11,4.934-11,11s4.935,11,11,11s11-4.934,11-11S55.015,34.018,48.949,34.018
		z M49.558,48.344l-5.12,3.416c-0.171,0.113-0.364,0.168-0.554,0.168c-0.323,0-0.64-0.156-0.833-0.445
		c-0.306-0.459-0.183-1.08,0.277-1.387l3.854-2.571l-3.843-2.486c-0.463-0.301-0.596-0.92-0.296-1.383s0.919-0.597,1.383-0.297
		l5.12,3.313c0.283,0.184,0.454,0.496,0.457,0.833S49.838,48.156,49.558,48.344z M54.908,46.404
		c-0.191,0.296-0.512,0.457-0.84,0.457c-0.186,0-0.375-0.052-0.542-0.16l-5.12-3.313c-0.283-0.184-0.454-0.496-0.457-0.833
		s0.165-0.651,0.445-0.839l5.12-3.416c0.46-0.306,1.08-0.182,1.387,0.277c0.306,0.459,0.183,1.08-0.277,1.387l-3.854,2.571
		l3.842,2.486C55.076,45.322,55.208,45.941,54.908,46.404z"/>
	<path style="fill:#B5B5B6;" d="M37.42,51H34v-5h1.999c-0.025-0.325-0.05-0.651-0.05-0.982c0-0.344,0.025-0.681,0.052-1.018H8
		c-0.552,0-1-0.948-1-1.5V13.001C7,12.45,7.45,12,8.001,12H48c0.552,0,1,0.448,1,1v6v11.02v2c0.682,0.003,1.347,0.071,2,0.175
		V13.001C51,11.347,49.654,10,48,10H8c-1.654,0-3,1.347-3,3.001v29.534C5,44.17,6.346,46,8,46h14v5h-8.083c-0.552,0-1,0.447-1,1
		s0.448,1,1,1H38.71C38.222,52.375,37.789,51.708,37.42,51z"/>
	<path style="fill:#B5B5B6;" d="M47,32.18V14H9v24h29.023C40.003,34.928,43.238,32.75,47,32.18z"/>
</g>
</svg>
