<?xml version="1.0" encoding="iso-8859-1"?>
<!-- Generator: Adobe Illustrator 18.0.0, SVG Export Plug-In . SVG Version: 6.00 Build 0)  -->
<!DOCTYPE svg PUBLIC "-//W3C//DTD SVG 1.1//EN" "http://www.w3.org/Graphics/SVG/1.1/DTD/svg11.dtd">
<svg version="1.1" id="&#x56FE;&#x5C42;_1" xmlns="http://www.w3.org/2000/svg" xmlns:xlink="http://www.w3.org/1999/xlink" x="0px"
	 y="0px" viewBox="0 0 64 64" style="enable-background:new 0 0 64 64;" xml:space="preserve">
<g>
	<path style="fill:#B4B4B4;" d="M10,21v30h44V21H10z M28.182,46.063l-9.164-9.164l3.055-3.055l6.109,6.107l13.744-13.744
		l3.057,3.055L28.182,46.063z"/>
	<rect x="16" y="15" style="fill:#B4B4B4;" width="4" height="4"/>
	<rect x="10" y="15" style="fill:#B4B4B4;" width="4" height="4"/>
	<rect x="22" y="15" style="fill:#B4B4B4;" width="32" height="4"/>
	<path style="fill:#B4B4B4;" d="M58,14c0-1.657-1.343-3-3-3H9c-1.657,0-3,1.343-3,3v38c0,1.657,1.343,3,3,3h46c1.657,0,3-1.343,3-3
		V14z M56,18.917v0.833v2v1.167V52c0,0.552-0.448,1-1,1H9c-0.552,0-1-0.448-1-1V22.917V21.75v-2v-0.833V14c0-0.552,0.448-1,1-1
		h2.675h2.333h2h6h2h4.542H55c0.552,0,1,0.448,1,1V18.917z"/>
</g>
</svg>
