<?xml version="1.0" encoding="iso-8859-1"?>
<!-- Generator: Adobe Illustrator 18.0.0, SVG Export Plug-In . SVG Version: 6.00 Build 0)  -->
<!DOCTYPE svg PUBLIC "-//W3C//DTD SVG 1.1//EN" "http://www.w3.org/Graphics/SVG/1.1/DTD/svg11.dtd">
<svg version="1.1" id="&#x56FE;&#x5C42;_1" xmlns="http://www.w3.org/2000/svg" xmlns:xlink="http://www.w3.org/1999/xlink" x="0px"
	 y="0px" viewBox="0 0 24 24" style="enable-background:new 0 0 24 24;" xml:space="preserve">
<path style="fill:#B4B4B4;" d="M4,8v11h16V8H4z M10.531,17.066l-3.525-3.525l1.175-1.175l2.35,2.349l5.286-5.286l1.176,1.175
	L10.531,17.066z"/>
<rect x="6.006" y="6" style="fill:#B4B4B4;" width="1" height="1"/>
<rect x="3.998" y="6" style="fill:#B4B4B4;" width="1" height="1"/>
<rect x="8" y="6" style="fill:#B4B4B4;" width="12" height="1"/>
<path style="fill:#B4B4B4;" d="M21,4H3C2.448,4,2,4.448,2,5v15c0,0.552,0.448,1,1,1h18c0.552,0,1-0.448,1-1V5
	C22,4.448,21.552,4,21,4z M20.7,20H3.3C3.134,20,3,19.866,3,19.7L2.985,5.3c0-0.166,0.134-0.3,0.3-0.3H20.7
	C20.866,5,21,5.134,21,5.3v14.4C21,19.866,20.866,20,20.7,20z"/>
</svg>
