<?xml version="1.0" encoding="iso-8859-1"?>
<!-- Generator: Adobe Illustrator 18.0.0, SVG Export Plug-In . SVG Version: 6.00 Build 0)  -->
<!DOCTYPE svg PUBLIC "-//W3C//DTD SVG 1.1//EN" "http://www.w3.org/Graphics/SVG/1.1/DTD/svg11.dtd">
<svg version="1.1" id="&#x56FE;&#x5C42;_1" xmlns="http://www.w3.org/2000/svg" xmlns:xlink="http://www.w3.org/1999/xlink" x="0px"
	 y="0px" viewBox="0 0 64 64" style="enable-background:new 0 0 64 64;" xml:space="preserve">
<g>
	<g>
		<path style="fill:#B5B5B6;" d="M40.172,31.924c0-2.806-2.094-5.464-5.071-6.458c-0.062-0.027-0.182-0.059-0.402-0.059
			c-0.669,0-1.214,0.479-1.214,1.067c0,0.512,0.308,0.722,1.261,1.238c1.268,0.688,3.004,1.63,3.004,4.211
			c0,2.568-1.736,3.517-3.004,4.209c-0.953,0.519-1.261,0.729-1.261,1.239c0,0.587,0.544,1.064,1.214,1.064
			c0.241,0,0.344-0.032,0.475-0.083C38.117,37.351,40.172,34.707,40.172,31.924z"/>
		<path style="fill:#B5B5B6;" d="M49.58,31.924c0-5.952-4.281-11.465-10.661-13.723c-0.196-0.062-0.381-0.094-0.549-0.094
			c-0.656,0-1.21,0.487-1.21,1.063c0,0.443,0.268,0.766,0.841,1.017l0.447,0.198c0.86,0.374,1.673,0.727,2.488,1.243
			c3.896,2.389,6.222,6.238,6.222,10.296s-2.32,7.902-6.209,10.288c-0.838,0.53-1.651,0.88-2.596,1.287l-0.351,0.156
			c-0.582,0.26-0.842,0.573-0.842,1.017c0,0.588,0.559,1.066,1.246,1.066c0.145,0,0.339-0.031,0.461-0.075
			C45.274,43.399,49.58,37.877,49.58,31.924z"/>
		<path style="fill:#B5B5B6;" d="M42.636,10.923c-0.198-0.062-0.396-0.095-0.558-0.095c-0.654,0-1.206,0.488-1.206,1.066
			c0,0.416,0.129,0.676,0.866,1.036c0.233,0.107,0.476,0.197,0.727,0.282c0.366,0.128,0.656,0.243,0.914,0.362
			c1.178,0.532,2.237,1.086,3.148,1.647c6.285,3.906,10.037,10.149,10.037,16.702c0,6.548-3.754,12.793-10.041,16.705
			c-0.923,0.564-1.955,1.104-3.151,1.65c-0.243,0.108-0.518,0.215-0.875,0.335l-0.143,0.054c-0.207,0.076-0.413,0.152-0.594,0.24
			c-0.754,0.37-0.887,0.631-0.887,1.043c0,0.577,0.552,1.065,1.206,1.065c0.167,0,0.357-0.03,0.498-0.08
			c9.968-3.601,16.409-11.849,16.409-21.013C58.985,22.767,52.572,14.525,42.636,10.923z"/>
	</g>
	<path style="fill:#B4B4B4;" d="M30.518,9.072L16.844,22H9c-1.657,0-3,1.343-3,3v14c0,1.657,1.343,3,3,3h7.879l13.555,12.926
		C31.085,55.577,32,55.444,32,54.541V9.459C32,8.703,31.201,8.389,30.518,9.072z"/>
</g>
</svg>
