<?xml version="1.0" encoding="iso-8859-1"?>
<!-- Generator: Adobe Illustrator 18.0.0, SVG Export Plug-In . SVG Version: 6.00 Build 0)  -->
<!DOCTYPE svg PUBLIC "-//W3C//DTD SVG 1.1//EN" "http://www.w3.org/Graphics/SVG/1.1/DTD/svg11.dtd">
<svg version="1.1" id="&#x56FE;&#x5C42;_1" xmlns="http://www.w3.org/2000/svg" xmlns:xlink="http://www.w3.org/1999/xlink" x="0px"
	 y="0px" viewBox="0 0 64 64" style="enable-background:new 0 0 64 64;" xml:space="preserve">
<g>
	<path style="fill:#B5B5B6;" d="M52.232,19c-1.225-0.819-2.475-1.551-3.746-2.212c-3.208,3.699-6.383,6.915-6.448,6.975
		c-1.583,1.488-2.572,2.168-3.294,2.664l-0.377,0.263c-0.251,0.178-0.496,0.291-0.721,0.361c-0.024,1.24-0.553,2.406-1.497,3.291
		c-2.65,2.489-6.724,3.393-8.815,3.393c-1.612,0-2.661-0.529-3.116-1.572c-0.385-0.881-0.191-1.864,0.518-2.631
		c1.072-1.155,1.194-1.996,1.35-3.062c0.176-1.208,0.394-2.712,1.914-4.138c0.894-0.842,2.001-1.308,3.212-1.354
		c0.085-0.322,0.242-0.632,0.466-0.909l0.275-0.349c0.531-0.682,1.258-1.617,2.848-3.109c0.512-0.481,1.926-1.696,3.76-3.182
		c-4.902-0.804-10.16-0.481-15.868,1.162c-8.887,2.559-17.034,12.711-17.665,21.41C4.281,46.28,12.253,55.085,26.291,55.071
		c15.135-0.018,20.804-7.316,20.928-9.535c0.124-2.218-5.905-6.321-2.024-10.538c4.863-5.281,9.192-0.78,11.814-1.415
		C59.63,32.95,60.959,24.832,52.232,19z M34.595,45.47c-2.755,0-4.999-2.252-4.999-5.019c0-2.767,2.244-5.018,4.999-5.018
		c2.757,0,5.001,2.251,5.001,5.018C39.596,43.218,37.352,45.47,34.595,45.47z"/>
	<path style="fill:#B5B5B6;" d="M29.478,23.949c-2.07,1.943-0.324,3.939-3.074,6.901c-1.237,1.336,5.113,0.925,8.261-2.03
		c1.334-1.251,0.958-3.085-0.475-4.428C32.76,23.047,30.815,22.691,29.478,23.949z M52.417,7.083
		c-1.063-0.993-12.822,8.01-16.327,11.305c-1.734,1.629-2.316,2.502-2.848,3.16c-0.231,0.285,0.074,0.374,0.212,0.439
		c0.689,0.335,1.168,0.646,1.792,1.23c0.623,0.586,0.954,1.037,1.311,1.682c0.073,0.133,0.165,0.419,0.467,0.203
		c0.698-0.501,1.627-1.044,3.365-2.678C43.891,19.132,53.478,8.081,52.417,7.083z"/>
</g>
</svg>
