<?xml version="1.0" encoding="iso-8859-1"?>
<!-- Generator: Adobe Illustrator 18.0.0, SVG Export Plug-In . SVG Version: 6.00 Build 0)  -->
<!DOCTYPE svg PUBLIC "-//W3C//DTD SVG 1.1//EN" "http://www.w3.org/Graphics/SVG/1.1/DTD/svg11.dtd">
<svg version="1.1" id="&#x56FE;&#x5C42;_1" xmlns="http://www.w3.org/2000/svg" xmlns:xlink="http://www.w3.org/1999/xlink" x="0px"
	 y="0px" viewBox="0 0 24 24" style="enable-background:new 0 0 24 24;" xml:space="preserve">
<g>
	<path style="fill:#B5B5B6;" d="M4,5v10h16V5H4z M18,12h-8v-1h8V12z M18,8h-8V7h8V8z M18,10h-8V9h8V10z M8,8H6V7h2V8z M8,10H6.016V9
		H8V10z M8,12H6v-1h2V12z"/>
	<path style="fill:#B5B5B6;" d="M21,3H3C2.448,3,2,3.448,2,4v14c0,0.552,0.448,1,1,1h7v2H6.2c-0.212,0-0.385,0.287-0.385,0.5
		S5.987,22,6.2,22h11.549c0.213,0,0.385-0.287,0.385-0.5S17.962,21,17.749,21H14v-2h7c0.552,0,1-0.448,1-1V4C22,3.448,21.552,3,21,3
		z M21,17.7c0,0.166-0.134,0.3-0.3,0.3H3.3C3.134,18,3,17.866,3,17.7V4.3C3,4.134,3.134,4,3.3,4h17.4C20.866,4,21,4.134,21,4.3V17.7
		z"/>
</g>
</svg>
