<?xml version="1.0" encoding="iso-8859-1"?>
<!-- Generator: Adobe Illustrator 18.0.0, SVG Export Plug-In . SVG Version: 6.00 Build 0)  -->
<!DOCTYPE svg PUBLIC "-//W3C//DTD SVG 1.1//EN" "http://www.w3.org/Graphics/SVG/1.1/DTD/svg11.dtd">
<svg version="1.1" id="&#x56FE;&#x5C42;_1" xmlns="http://www.w3.org/2000/svg" xmlns:xlink="http://www.w3.org/1999/xlink" x="0px"
	 y="0px" viewBox="0 0 64 64" style="enable-background:new 0 0 64 64;" xml:space="preserve">
<path style="fill:#B5B5B6;" d="M32,7C18.194,7,7,18.194,7,32s11.194,25,25,25c13.808,0,25-11.194,25-25S45.808,7,32,7z M30,33V14
	c0-0.552,0.448-1,1-1h2c0.552,0,1,0.448,1,1v16h15c0.552,0,1,0.448,1,1v2c0,0.552-0.448,1-1,1H31C30.448,34,30,33.552,30,33z"/>
</svg>
