<svg xmlns="http://www.w3.org/2000/svg" width="200" height="200" viewBox="0 0 200 200">
  <g fill="none" fill-rule="evenodd">
    <circle cx="100" cy="100" r="100" fill="#F7F7F7"/>
    <g transform="translate(20.83 38.297)">
      <path fill="#EAEAEA" d="M45.3957324,69.2963867 C22.8320717,70.5973675 0,70.7949219 0,80 C0,89.2050781 23.5587801,90.8574219 28.2824643,90.8574219 C33.0061485,90.8574219 30.0808556,95.7597656 24.7990481,96.9511719 C19.5172405,98.1425781 12.3464383,102.203125 37.8398268,102.203125 C63.3332153,102.203125 122.042436,105.620117 129.83263,102.203125 C137.622823,98.7861328 134.111526,97.1425781 129.83263,94 C125.553733,90.8574219 131.148767,90.8134766 139.10995,89.605957 C147.071134,88.3984375 158.417748,83.6928711 147.476991,80 C136.536235,76.3071289 128.27456,74.8584246 102.554372,72.0361328 C76.8341847,69.2138411 67.9593931,67.9954059 45.3957324,69.2963867 Z"/>
      <path fill="#CDCDCD" d="M27.9969727,84 C27.5069821,84 27.0287502,83.9496554 26.5671675,83.8538567 C16.6676227,82.6551219 8.99697266,74.2233491 8.99697266,64 C8.99697266,52.954305 17.9512777,44 28.9969727,44 C29.7544465,44 30.5020852,44.0421096 31.2376754,44.1241155 C33.6829488,19.3520627 54.5800025,7.10542736e-15 79.9969727,7.10542736e-15 C100.474871,7.10542736e-15 118.018813,12.5617593 125.343398,30.3998771 C126.854552,30.1369549 128.409768,30 129.996973,30 C144.908661,30 156.996973,42.0883118 156.996973,57 C156.996973,71.9116882 144.908661,84 129.996973,84 C129.662385,84 129.329219,83.993914 128.99758,83.9818467 L128.996973,84 L27.9969727,84 Z"/>
      <g stroke="#F7F7F7" stroke-linecap="round" stroke-width="2" transform="translate(53.394 39.2)">
        <line x1="1.4" x2="7" y1="1.4" y2="7"/>
        <line x1="1.4" x2="7" y1="1.4" y2="7" transform="matrix(-1 0 0 1 8.4 0)"/>
      </g>
      <g stroke="#F7F7F7" stroke-linecap="round" stroke-width="2" transform="translate(100.882 39.2)">
        <line x1="1.4" x2="7" y1="1.4" y2="7"/>
        <line x1="1.4" x2="7" y1="1.4" y2="7" transform="matrix(-1 0 0 1 8.4 0)"/>
      </g>
      <path stroke="#F7F7F7" stroke-linecap="round" stroke-linejoin="round" stroke-width="2" d="M78.1851562,60.334668 C79.2924554,58.3782227 80.6924554,57.4 82.3851562,57.4 C84.0778571,57.4 85.4778571,58.3782227 86.5851562,60.334668"/>
    </g>
    <g transform="translate(145.31 71.557)">
      <path fill="#F7F7F7" d="M2.44823225,2.77111667e-13 C10.2346906,4.06022135 14.9693911,7.48193359 16.6523338,10.2651367 C19.1767479,14.4399414 16.6523338,24.3383789 8.03856428,23.4355469 C-0.575205248,22.5327148 -1.03614275,14.0073242 1.01707991,10.2651367 C2.38589501,7.77034505 2.86294579,4.34863281 2.44823225,2.77111667e-13 Z"/>
      <path fill="#CDCDCD" d="M13.0811498,11.6641209 C13.6739791,11.4365551 14.3743831,11.8247296 14.645546,12.531133 C14.9167088,13.2375364 14.6559467,13.9946681 14.0631174,14.222234 C13.4702881,14.4497998 12.7698841,14.0616252 12.4987213,13.3552218 C12.2275584,12.6488184 12.4883206,11.8916868 13.0811498,11.6641209 Z M11.8977597,8.69455341 C12.2663561,8.51477692 12.756145,8.76061131 12.9917337,9.24363988 C13.2273225,9.72666846 13.1194985,10.2639781 12.7509021,10.4437546 C12.3823057,10.6235311 11.8925168,10.3776967 11.656928,9.89466813 C11.4213393,9.41163956 11.5291633,8.87432989 11.8977597,8.69455341 Z"/>
    </g>
    <path stroke="#EAEAEA" stroke-linecap="round" stroke-linejoin="round" stroke-width="2" d="M15.0091278 114.297363C13.0584383 119.104906 13.6996299 122.657052 16.9327029 124.953802M34.0435997 139.424072C35.5000476 142.539958 38.6754557 144.419027 43.5698242 145.061279 48.4641927 145.703532 52.8837077 146.011263 56.8283691 145.984474M160.062932 134.057129C163.069537 138.759277 160.418543 142.641113 152.109949 145.702637M175.705164 117.48584C177.826762 118.922563 178.533961 120.526404 177.826762 122.297363 177.119562 124.068322 175.453905 125.600549 172.829789 126.894043"/>
  </g>
</svg>
