<svg xmlns="http://www.w3.org/2000/svg" xmlns:xlink="http://www.w3.org/1999/xlink" width="42" height="42" viewBox="0 0 42 42">
  <defs>
    <linearGradient id="dcc_nav_cloudsync_42px-c" x1="50%" x2="50%" y1="0%" y2="96.184%">
      <stop offset="0%" stop-color="#4BDEFA"/>
      <stop offset="100%" stop-color="#3978FF"/>
    </linearGradient>
    <path id="dcc_nav_cloudsync_42px-b" d="M23.6,10 C28.3384976,10 32.2751528,13.3568045 33.0583355,17.7710419 C35.9408039,18.793681 38,21.4950422 38,24.6666667 C38,28.7167548 34.6421356,32 30.5,32 C27.9041085,32 15.5044802,32 12.5,32 C8.35786438,32 5,28.7167548 5,24.6666667 C5,20.6165785 8.35786438,17.3333333 12.5,17.3333333 C13.0810624,17.3333333 13.6466913,17.3979434 14.1897822,17.5202169 C15.0749551,13.2302698 18.9516691,10 23.6,10 Z"/>
    <filter id="dcc_nav_cloudsync_42px-a" width="142.4%" height="163.6%" x="-21.2%" y="-22.7%" filterUnits="objectBoundingBox">
      <feOffset dy="2" in="SourceAlpha" result="shadowOffsetOuter1"/>
      <feGaussianBlur in="shadowOffsetOuter1" result="shadowBlurOuter1" stdDeviation="2"/>
      <feColorMatrix in="shadowBlurOuter1" values="0 0 0 0 0.196078431   0 0 0 0 0.458823529   0 0 0 0 0.996078431  0 0 0 0.5 0"/>
    </filter>
  </defs>
  <g fill="none" fill-rule="evenodd">
    <use fill="#000" filter="url(#dcc_nav_cloudsync_42px-a)" xlink:href="#dcc_nav_cloudsync_42px-b"/>
    <use fill="url(#dcc_nav_cloudsync_42px-c)" xlink:href="#dcc_nav_cloudsync_42px-b"/>
  </g>
</svg>
