<?xml version="1.0" encoding="UTF-8"?>
<svg width="84px" height="84px" viewBox="0 0 84 84" version="1.1" xmlns="http://www.w3.org/2000/svg" xmlns:xlink="http://www.w3.org/1999/xlink">
    <title>dcc_nav_update_84px</title>
    <defs>
        <filter x="-12.2%" y="-8.7%" width="122.7%" height="117.3%" filterUnits="objectBoundingBox" id="filter-1">
            <feOffset dx="0" dy="1" in="SourceAlpha" result="shadowOffsetOuter1"></feOffset>
            <feGaussianBlur stdDeviation="1" in="shadowOffsetOuter1" result="shadowBlurOuter1"></feGaussianBlur>
            <feColorMatrix values="0 0 0 0 0   0 0 0 0 0   0 0 0 0 0  0 0 0 0.2 0" type="matrix" in="shadowBlurOuter1" result="shadowMatrixOuter1"></feColorMatrix>
            <feMerge>
                <feMergeNode in="shadowMatrixOuter1"></feMergeNode>
                <feMergeNode in="SourceGraphic"></feMergeNode>
            </feMerge>
        </filter>
        <linearGradient x1="50%" y1="0%" x2="50%" y2="100%" id="linearGradient-2">
            <stop stop-color="#EEEEEE" offset="0%"></stop>
            <stop stop-color="#D8D8D8" offset="100%"></stop>
        </linearGradient>
        <linearGradient x1="-7.74904036%" y1="0%" x2="112.505759%" y2="0%" id="linearGradient-3">
            <stop stop-color="#00E6FF" offset="0%"></stop>
            <stop stop-color="#A4FFCE" offset="100%"></stop>
        </linearGradient>
        <radialGradient cx="30.9269098%" cy="25.9943283%" fx="30.9269098%" fy="25.9943283%" r="76.3969601%" id="radialGradient-4">
            <stop stop-color="#FFF5C5" offset="0%"></stop>
            <stop stop-color="#FAC743" offset="100%"></stop>
        </radialGradient>
        <circle id="path-5" cx="17.6899772" cy="22.1124715" r="16.2158124"></circle>
        <filter x="-23.1%" y="-20.0%" width="152.4%" height="152.4%" filterUnits="objectBoundingBox" id="filter-6">
            <feOffset dx="1" dy="2" in="SourceAlpha" result="shadowOffsetOuter1"></feOffset>
            <feGaussianBlur stdDeviation="2.5" in="shadowOffsetOuter1" result="shadowBlurOuter1"></feGaussianBlur>
            <feColorMatrix values="0 0 0 0 0.921568627   0 0 0 0 0.921568627   0 0 0 0 0.921568627  0 0 0 1 0" type="matrix" in="shadowBlurOuter1"></feColorMatrix>
        </filter>
        <filter x="-20.5%" y="-17.4%" width="147.2%" height="147.2%" filterUnits="objectBoundingBox" id="filter-7">
            <feGaussianBlur stdDeviation="0.25" in="SourceAlpha" result="shadowBlurInner1"></feGaussianBlur>
            <feOffset dx="0.3" dy="0.3" in="shadowBlurInner1" result="shadowOffsetInner1"></feOffset>
            <feComposite in="shadowOffsetInner1" in2="SourceAlpha" operator="arithmetic" k2="-1" k3="1" result="shadowInnerInner1"></feComposite>
            <feColorMatrix values="0 0 0 0 1   0 0 0 0 1   0 0 0 0 1  0 0 0 1 0" type="matrix" in="shadowInnerInner1" result="shadowMatrixInner1"></feColorMatrix>
            <feGaussianBlur stdDeviation="1.5" in="SourceAlpha" result="shadowBlurInner2"></feGaussianBlur>
            <feOffset dx="-1.3" dy="-2.3" in="shadowBlurInner2" result="shadowOffsetInner2"></feOffset>
            <feComposite in="shadowOffsetInner2" in2="SourceAlpha" operator="arithmetic" k2="-1" k3="1" result="shadowInnerInner2"></feComposite>
            <feColorMatrix values="0 0 0 0 0.94094539   0 0 0 0 0.686881714   0 0 0 0 0.00373271853  0 0 0 1 0" type="matrix" in="shadowInnerInner2" result="shadowMatrixInner2"></feColorMatrix>
            <feGaussianBlur stdDeviation="0.25" in="SourceAlpha" result="shadowBlurInner3"></feGaussianBlur>
            <feOffset dx="-0.3" dy="-0.3" in="shadowBlurInner3" result="shadowOffsetInner3"></feOffset>
            <feComposite in="shadowOffsetInner3" in2="SourceAlpha" operator="arithmetic" k2="-1" k3="1" result="shadowInnerInner3"></feComposite>
            <feColorMatrix values="0 0 0 0 1   0 0 0 0 1   0 0 0 0 1  0 0 0 0.543535566 0" type="matrix" in="shadowInnerInner3" result="shadowMatrixInner3"></feColorMatrix>
            <feMerge>
                <feMergeNode in="shadowMatrixInner1"></feMergeNode>
                <feMergeNode in="shadowMatrixInner2"></feMergeNode>
                <feMergeNode in="shadowMatrixInner3"></feMergeNode>
            </feMerge>
        </filter>
        <radialGradient cx="30.9269098%" cy="25.9943283%" fx="30.9269098%" fy="25.9943283%" r="76.3969601%" id="radialGradient-8">
            <stop stop-color="#92F171" offset="0%"></stop>
            <stop stop-color="#1ADD32" offset="99.8111752%"></stop>
        </radialGradient>
        <circle id="path-9" cx="45.6991077" cy="38.3282839" r="23.5866362"></circle>
        <filter x="-15.9%" y="-13.8%" width="136.0%" height="136.0%" filterUnits="objectBoundingBox" id="filter-10">
            <feOffset dx="1" dy="2" in="SourceAlpha" result="shadowOffsetOuter1"></feOffset>
            <feGaussianBlur stdDeviation="2.5" in="shadowOffsetOuter1" result="shadowBlurOuter1"></feGaussianBlur>
            <feColorMatrix values="0 0 0 0 0.921568627   0 0 0 0 0.921568627   0 0 0 0 0.921568627  0 0 0 1 0" type="matrix" in="shadowBlurOuter1"></feColorMatrix>
        </filter>
        <filter x="-14.1%" y="-12.0%" width="132.4%" height="132.4%" filterUnits="objectBoundingBox" id="filter-11">
            <feGaussianBlur stdDeviation="0.25" in="SourceAlpha" result="shadowBlurInner1"></feGaussianBlur>
            <feOffset dx="0.3" dy="0.3" in="shadowBlurInner1" result="shadowOffsetInner1"></feOffset>
            <feComposite in="shadowOffsetInner1" in2="SourceAlpha" operator="arithmetic" k2="-1" k3="1" result="shadowInnerInner1"></feComposite>
            <feColorMatrix values="0 0 0 0 1   0 0 0 0 1   0 0 0 0 1  0 0 0 1 0" type="matrix" in="shadowInnerInner1" result="shadowMatrixInner1"></feColorMatrix>
            <feGaussianBlur stdDeviation="1.5" in="SourceAlpha" result="shadowBlurInner2"></feGaussianBlur>
            <feOffset dx="-1.3" dy="-2.3" in="shadowBlurInner2" result="shadowOffsetInner2"></feOffset>
            <feComposite in="shadowOffsetInner2" in2="SourceAlpha" operator="arithmetic" k2="-1" k3="1" result="shadowInnerInner2"></feComposite>
            <feColorMatrix values="0 0 0 0 0.0603341886   0 0 0 0 0.823414678   0 0 0 0 0.147770495  0 0 0 1 0" type="matrix" in="shadowInnerInner2" result="shadowMatrixInner2"></feColorMatrix>
            <feGaussianBlur stdDeviation="0.25" in="SourceAlpha" result="shadowBlurInner3"></feGaussianBlur>
            <feOffset dx="-0.3" dy="-0.3" in="shadowBlurInner3" result="shadowOffsetInner3"></feOffset>
            <feComposite in="shadowOffsetInner3" in2="SourceAlpha" operator="arithmetic" k2="-1" k3="1" result="shadowInnerInner3"></feComposite>
            <feColorMatrix values="0 0 0 0 1   0 0 0 0 1   0 0 0 0 1  0 0 0 0.543535566 0" type="matrix" in="shadowInnerInner3" result="shadowMatrixInner3"></feColorMatrix>
            <feMerge>
                <feMergeNode in="shadowMatrixInner1"></feMergeNode>
                <feMergeNode in="shadowMatrixInner2"></feMergeNode>
                <feMergeNode in="shadowMatrixInner3"></feMergeNode>
            </feMerge>
        </filter>
        <radialGradient cx="30.9269098%" cy="25.9943283%" fx="30.9269098%" fy="25.9943283%" r="76.3969601%" id="radialGradient-12">
            <stop stop-color="#FFB2BF" offset="0%"></stop>
            <stop stop-color="#FF3255" offset="100%"></stop>
        </radialGradient>
        <circle id="path-13" cx="19.9012243" cy="49.3845196" r="15.47873"></circle>
        <filter x="-24.2%" y="-21.0%" width="154.9%" height="154.9%" filterUnits="objectBoundingBox" id="filter-14">
            <feOffset dx="1" dy="2" in="SourceAlpha" result="shadowOffsetOuter1"></feOffset>
            <feGaussianBlur stdDeviation="2.5" in="shadowOffsetOuter1" result="shadowBlurOuter1"></feGaussianBlur>
            <feColorMatrix values="0 0 0 0 0.921568627   0 0 0 0 0.921568627   0 0 0 0 0.921568627  0 0 0 1 0" type="matrix" in="shadowBlurOuter1"></feColorMatrix>
        </filter>
        <filter x="-21.5%" y="-18.3%" width="149.4%" height="149.4%" filterUnits="objectBoundingBox" id="filter-15">
            <feGaussianBlur stdDeviation="0.25" in="SourceAlpha" result="shadowBlurInner1"></feGaussianBlur>
            <feOffset dx="0.3" dy="0.3" in="shadowBlurInner1" result="shadowOffsetInner1"></feOffset>
            <feComposite in="shadowOffsetInner1" in2="SourceAlpha" operator="arithmetic" k2="-1" k3="1" result="shadowInnerInner1"></feComposite>
            <feColorMatrix values="0 0 0 0 1   0 0 0 0 1   0 0 0 0 1  0 0 0 1 0" type="matrix" in="shadowInnerInner1" result="shadowMatrixInner1"></feColorMatrix>
            <feGaussianBlur stdDeviation="1.5" in="SourceAlpha" result="shadowBlurInner2"></feGaussianBlur>
            <feOffset dx="-1.3" dy="-2.3" in="shadowBlurInner2" result="shadowOffsetInner2"></feOffset>
            <feComposite in="shadowOffsetInner2" in2="SourceAlpha" operator="arithmetic" k2="-1" k3="1" result="shadowInnerInner2"></feComposite>
            <feColorMatrix values="0 0 0 0 1   0 0 0 0 0.466666667   0 0 0 0 0.552941176  0 0 0 1 0" type="matrix" in="shadowInnerInner2" result="shadowMatrixInner2"></feColorMatrix>
            <feGaussianBlur stdDeviation="0.25" in="SourceAlpha" result="shadowBlurInner3"></feGaussianBlur>
            <feOffset dx="-0.3" dy="-0.3" in="shadowBlurInner3" result="shadowOffsetInner3"></feOffset>
            <feComposite in="shadowOffsetInner3" in2="SourceAlpha" operator="arithmetic" k2="-1" k3="1" result="shadowInnerInner3"></feComposite>
            <feColorMatrix values="0 0 0 0 1   0 0 0 0 1   0 0 0 0 1  0 0 0 0.543535566 0" type="matrix" in="shadowInnerInner3" result="shadowMatrixInner3"></feColorMatrix>
            <feMerge>
                <feMergeNode in="shadowMatrixInner1"></feMergeNode>
                <feMergeNode in="shadowMatrixInner2"></feMergeNode>
                <feMergeNode in="shadowMatrixInner3"></feMergeNode>
            </feMerge>
        </filter>
        <linearGradient x1="50%" y1="0%" x2="50%" y2="100%" id="linearGradient-16">
            <stop stop-color="#EEEEEE" stop-opacity="0" offset="0%"></stop>
            <stop stop-color="#B3B0A9" stop-opacity="0.527833739" offset="100%"></stop>
        </linearGradient>
        <linearGradient x1="58.1486582%" y1="3.9668944%" x2="58.1486582%" y2="87.9759316%" id="linearGradient-17">
            <stop stop-color="#F7F8F7" stop-opacity="0.4" offset="0%"></stop>
            <stop stop-color="#E9E9E9" stop-opacity="0.7" offset="100%"></stop>
        </linearGradient>
        <path d="M0,4.81753915 C4.05812251e-16,8.13124765 2.6862915,10.8175392 6,10.8175392 L6,10.8175392 L67.7082382,10.8175392 C71.0219467,10.8175392 73.7082382,8.13124765 73.7082382,4.81753915 L73.7082382,4.81753915 L73.7082382,60.8358002 C73.7082382,64.1495087 71.0219467,66.8358002 67.7082382,66.8358002 L6,66.8358002 C2.6862915,66.8358002 4.05812251e-16,64.1495087 0,60.8358002 Z" id="path-18"></path>
        <filter x="-0.5%" y="6.2%" width="100.9%" height="94.4%" filterUnits="objectBoundingBox" id="filter-19">
            <feOffset dx="0" dy="0.5" in="SourceAlpha" result="shadowOffsetInner1"></feOffset>
            <feComposite in="shadowOffsetInner1" in2="SourceAlpha" operator="arithmetic" k2="-1" k3="1" result="shadowInnerInner1"></feComposite>
            <feColorMatrix values="0 0 0 0 0.770670573   0 0 0 0 0.770670573   0 0 0 0 0.770670573  0 0 0 0.5 0" type="matrix" in="shadowInnerInner1" result="shadowMatrixInner1"></feColorMatrix>
            <feOffset dx="0" dy="0.7" in="SourceAlpha" result="shadowOffsetInner2"></feOffset>
            <feComposite in="shadowOffsetInner2" in2="SourceAlpha" operator="arithmetic" k2="-1" k3="1" result="shadowInnerInner2"></feComposite>
            <feColorMatrix values="0 0 0 0 1   0 0 0 0 1   0 0 0 0 1  0 0 0 0.848847929 0" type="matrix" in="shadowInnerInner2" result="shadowMatrixInner2"></feColorMatrix>
            <feMerge>
                <feMergeNode in="shadowMatrixInner1"></feMergeNode>
                <feMergeNode in="shadowMatrixInner2"></feMergeNode>
            </feMerge>
        </filter>
        <linearGradient x1="6.32667449%" y1="45.971413%" x2="0%" y2="45.971413%" id="linearGradient-20">
            <stop stop-color="#FFFFFF" stop-opacity="0" offset="0%"></stop>
            <stop stop-color="#FFFFFF" stop-opacity="0.769401497" offset="100%"></stop>
        </linearGradient>
        <path d="M29.3570824,14.3667592 C29.0153487,16.0070137 28.5273351,17.4794326 27.883169,18.7840369 C25.6871814,23.2313959 21.9341941,25.5647589 16.6245648,25.7800002 C14.1062311,25.8790218 11.7296303,25.5518971 9.48960514,24.8026889 L9.48960514,24.7725867 L8.49896887,27.0844572 C8.29972595,27.4511358 8.13673197,27.5701974 7.92081708,27.7177614 C7.75047647,27.8341916 7.45334876,27.9146887 7.25421106,27.9352761 C7.05071594,27.9563266 6.90336249,27.9422859 6.63673694,27.8651148 C6.42578993,27.8040473 6.33803043,27.7061415 6.26483784,27.6546099 C6.19166634,27.6028678 6.02322026,27.4126134 5.98417161,27.3739436 L0.978385199,19.4944069 C0.851598061,19.2791235 0.778426555,19.0724708 0.753881687,18.8700493 C0.729589404,18.6720062 0.744114244,18.5040654 0.788193967,18.366332 C0.832021104,18.2286407 0.905213662,18.0993696 1.01269751,17.9788976 C1.11101618,17.870542 1.21876167,17.7711301 1.33466481,17.6818331 C1.44210653,17.6000519 1.55914727,17.53549 1.68612384,17.4751804 C1.81291098,17.4148707 1.90083889,17.380411 1.9399086,17.3717804 C1.98377784,17.3631707 2.01308011,17.3503089 2.03739344,17.3288163 L10.8023981,15.1675621 C11.270919,15.0685405 11.7193366,15.035786 11.9976031,15.087486 C12.2757433,15.139186 12.3364318,15.156258 12.5168556,15.2207988 C12.697511,15.2897181 12.9027743,15.459364 12.9935862,15.6281469 C13.0803774,15.7894779 13.1155948,15.9381996 13.1401397,16.0586927 C13.164432,16.179312 13.164432,16.3170454 13.1401397,16.471977 C13.1156159,16.6269507 13.096081,16.7345819 13.0765462,16.7820718 C13.0522118,16.8336034 13.0424444,16.8638109 13.0424444,16.8853034 L12.017559,19.1973634 C13.833122,19.812922 15.5410538,20.1917887 17.1515218,20.3382581 C18.7621794,20.4846011 20.1333664,20.4501414 21.2607888,20.234858 C22.3882111,20.0195746 23.4422094,19.6622004 24.4132897,19.1670928 C25.3845805,18.6720273 26.1507764,18.1811718 26.7169505,17.6990734 C27.2829562,17.2168276 27.7905257,16.6830503 28.2347122,16.0973624 C28.683635,15.511885 28.9617752,15.1115888 29.0838049,14.8963264 C29.2009509,14.6853163 29.2936573,14.5044926 29.3570824,14.3667592 Z M0.0170722805,13.0242639 C0.48559314,11.0868607 1.14449463,9.38629649 1.99853425,7.92248725 C4.45325339,3.83252363 8.34283737,1.83493698 13.676801,1.93395851 C16.0438238,1.97267038 18.1959421,2.35589462 20.1383344,3.09192513 L21.1923747,0.810304204 C21.340507,0.561782077 21.4938809,0.39005214 21.6597798,0.260928391 C21.8306257,0.131678364 22.0025871,0.0827149041 22.1488881,0.0524653566 C22.300199,0.0223631374 22.4604143,0.00865927051 22.6166932,0.0302570682 C22.7775821,0.0517285574 22.85088,0.0618328228 22.985961,0.106565139 C23.1075907,0.146855798 23.1336091,0.152518374 23.2508393,0.217080233 C23.367859,0.286020596 23.4745008,0.366180885 23.5823846,0.471433348 L23.7788489,0.702988766 L28.5175466,8.55109709 C28.6249673,8.78780989 28.6883924,9.00309329 28.7079273,9.20549381 C28.732409,9.40353687 28.7176947,9.57147771 28.6738255,9.70921107 C28.6299984,9.84690237 28.5518168,9.97617344 28.4346077,10.0924353 C28.3175459,10.2128862 28.2053467,10.3077187 28.0978629,10.3722595 C27.9857066,10.445372 27.8682965,10.5100894 27.7465934,10.565882 L27.4928086,10.6865013 C27.4489394,10.7079728 27.4196371,10.7166035 27.3951343,10.7166035 L18.5667255,12.6755204 C17.9664707,12.7572595 17.4883718,12.7444397 17.1271454,12.6454182 C16.7660662,12.5463967 16.5206596,12.3083367 16.4181647,12.1403747 C16.3109125,11.9725812 16.2657171,11.8622977 16.2462453,11.6263848 C16.2292155,11.4200479 16.242751,11.325447 16.2672958,11.2264254 C16.2915881,11.1274039 16.3511821,10.9577159 16.3950513,10.8974062 L17.4833618,8.61557478 C15.6922805,7.96553552 13.9891482,7.54785163 12.3639659,7.37144847 C10.7437304,7.19487693 9.37248019,7.19487693 8.25488841,7.37144847 C7.13723347,7.5478516 6.07824628,7.87512364 5.08761004,8.34875977 C4.0969738,8.82222749 3.31107466,9.29586359 2.73530152,9.77373086 C2.15936,10.2515771 1.63724459,10.7725136 1.16872376,11.3451713 C0.700202901,11.9177868 0.402591037,12.3138729 0.270793885,12.5291563 C0.148848381,12.7400612 0.0609415208,12.9080231 0.0170722805,13.0242639 L0.0170722805,13.0242639 Z" id="path-21"></path>
        <filter x="-0.9%" y="-2.7%" width="101.7%" height="105.4%" filterUnits="objectBoundingBox" id="filter-22">
            <feOffset dx="0" dy="0.5" in="SourceAlpha" result="shadowOffsetOuter1"></feOffset>
            <feComposite in="shadowOffsetOuter1" in2="SourceAlpha" operator="out" result="shadowOffsetOuter1"></feComposite>
            <feColorMatrix values="0 0 0 0 1   0 0 0 0 1   0 0 0 0 1  0 0 0 0.99737933 0" type="matrix" in="shadowOffsetOuter1" result="shadowMatrixOuter1"></feColorMatrix>
            <feOffset dx="0" dy="-0.5" in="SourceAlpha" result="shadowOffsetOuter2"></feOffset>
            <feComposite in="shadowOffsetOuter2" in2="SourceAlpha" operator="out" result="shadowOffsetOuter2"></feComposite>
            <feColorMatrix values="0 0 0 0 0   0 0 0 0 0   0 0 0 0 0  0 0 0 0.0708280977 0" type="matrix" in="shadowOffsetOuter2" result="shadowMatrixOuter2"></feColorMatrix>
            <feMerge>
                <feMergeNode in="shadowMatrixOuter1"></feMergeNode>
                <feMergeNode in="shadowMatrixOuter2"></feMergeNode>
            </feMerge>
        </filter>
        <linearGradient x1="100%" y1="35.3435954%" x2="0%" y2="35.3435954%" id="linearGradient-23">
            <stop stop-color="#E9E9E9" offset="0%"></stop>
            <stop stop-color="#B7B7B7" stop-opacity="0.130180917" offset="7.69227124%"></stop>
            <stop stop-color="#E5E5E5" stop-opacity="0.667997774" offset="17.5497506%"></stop>
            <stop stop-color="#DDDDDD" offset="82.3456386%"></stop>
            <stop stop-color="#B7B7B7" stop-opacity="0" offset="87.2079069%"></stop>
            <stop stop-color="#E9E9E9" offset="100%"></stop>
        </linearGradient>
        <path d="M0,61.2857439 C-3.47095419e-16,65.7040219 3.581722,69.2857439 8,69.2857439 L8,69.2857439 L65.7082382,69.2857439 C70.1265162,69.2857439 73.7082382,65.7040219 73.7082382,61.2857439 L73.7082382,61.2857439 L73.7082382,65.7082382 C73.7082382,70.1265162 70.1265162,73.7082382 65.7082382,73.7082382 L8,73.7082382 C3.581722,73.7082382 -3.47095419e-16,70.1265162 0,65.7082382 Z" id="path-24"></path>
        <filter x="-0.3%" y="-26.2%" width="100.7%" height="128.7%" filterUnits="objectBoundingBox" id="filter-25">
            <feOffset dx="0" dy="-0.5" in="SourceAlpha" result="shadowOffsetInner1"></feOffset>
            <feComposite in="shadowOffsetInner1" in2="SourceAlpha" operator="arithmetic" k2="-1" k3="1" result="shadowInnerInner1"></feComposite>
            <feColorMatrix values="0 0 0 0 0.579070603   0 0 0 0 0.579070603   0 0 0 0 0.579070603  0 0 0 1 0" type="matrix" in="shadowInnerInner1" result="shadowMatrixInner1"></feColorMatrix>
            <feOffset dx="0" dy="0.5" in="SourceAlpha" result="shadowOffsetInner2"></feOffset>
            <feComposite in="shadowOffsetInner2" in2="SourceAlpha" operator="arithmetic" k2="-1" k3="1" result="shadowInnerInner2"></feComposite>
            <feColorMatrix values="0 0 0 0 1   0 0 0 0 1   0 0 0 0 1  0 0 0 0.7434543 0" type="matrix" in="shadowInnerInner2" result="shadowMatrixInner2"></feColorMatrix>
            <feMerge>
                <feMergeNode in="shadowMatrixInner1"></feMergeNode>
                <feMergeNode in="shadowMatrixInner2"></feMergeNode>
            </feMerge>
        </filter>
    </defs>
    <g id="dcc_nav_update_84px" stroke="none" stroke-width="1" fill="none" fill-rule="evenodd">
        <g id="编组-2" filter="url(#filter-1)" transform="translate(5.000000, 4.000000)">
            <path d="M8,0 L65.7082382,0 C70.1265162,-1.69980292e-15 73.7082382,3.581722 73.7082382,8 L73.7082382,65.7082382 C73.7082382,70.1265162 70.1265162,73.7082382 65.7082382,73.7082382 L8,73.7082382 C3.581722,73.7082382 5.41083001e-16,70.1265162 0,65.7082382 L0,8 C-1.42926142e-15,3.581722 3.581722,8.11624501e-16 8,0 Z" id="矩形备份-35" fill="url(#linearGradient-2)"></path>
            <path d="M24.9984865,6.11254549 L61.6459237,6.11254549 C64.9596322,6.11254549 67.6459237,8.79883699 67.6459237,12.1125455 L67.6459237,48.7599827 C67.6459237,52.0736912 64.9596322,54.7599827 61.6459237,54.7599827 L24.9984865,54.7599827 C21.684778,54.7599827 18.9984865,52.0736912 18.9984865,48.7599827 L18.9984865,12.1125455 C18.9984865,8.79883699 21.684778,6.11254549 24.9984865,6.11254549 Z" id="矩形备份-35" fill="url(#linearGradient-3)" transform="translate(43.322205, 30.436264) rotate(-15.000000) translate(-43.322205, -30.436264) "></path>
            <g id="椭圆形备份-4">
                <use fill="black" fill-opacity="1" filter="url(#filter-6)" xlink:href="#path-5"></use>
                <use fill="url(#radialGradient-4)" fill-rule="evenodd" xlink:href="#path-5"></use>
                <use fill="black" fill-opacity="1" filter="url(#filter-7)" xlink:href="#path-5"></use>
            </g>
            <g id="椭圆形备份-6">
                <use fill="black" fill-opacity="1" filter="url(#filter-10)" xlink:href="#path-9"></use>
                <use fill="url(#radialGradient-8)" fill-rule="evenodd" xlink:href="#path-9"></use>
                <use fill="black" fill-opacity="1" filter="url(#filter-11)" xlink:href="#path-9"></use>
            </g>
            <g id="椭圆形备份-5">
                <use fill="black" fill-opacity="1" filter="url(#filter-14)" xlink:href="#path-13"></use>
                <use fill="url(#radialGradient-12)" fill-rule="evenodd" xlink:href="#path-13"></use>
                <use fill="black" fill-opacity="1" filter="url(#filter-15)" xlink:href="#path-13"></use>
            </g>
            <path d="M73.7082382,8.84498859 L73.7082382,9.69050908 C73.7082382,14.1087871 70.1265162,17.6905091 65.7082382,17.6905091 L8,17.6905091 C3.581722,17.6905091 1.40110146e-13,14.1087871 1.39555034e-13,9.69050908 L1.39555034e-13,8.84498859 L73.7082382,8.84498859 Z" id="形状结合" fill="url(#linearGradient-16)" style="mix-blend-mode: multiply;"></path>
            <g id="编组-14" transform="translate(0.000000, 6.872970)">
                <g id="形状结合" fill-rule="nonzero">
                    <use fill="url(#linearGradient-17)" xlink:href="#path-18"></use>
                    <use fill="black" fill-opacity="1" filter="url(#filter-19)" xlink:href="#path-18"></use>
                </g>
                <path d="M0,2.81700724 C8.23122849e-15,7.1519215 3.44783777,10.6815501 7.75082067,10.8132004 L8,10.8170072 L44.224,10.8165506 L44.224,66.8345506 L8,66.8352683 C3.581722,66.8352683 5.41083001e-16,63.2535463 0,58.8352683 L0,2.81700724 Z" id="形状结合" fill="url(#linearGradient-20)" fill-rule="nonzero"></path>
                <g id="形状" transform="translate(23.586636, 24.084490)">
                    <use fill="black" fill-opacity="1" filter="url(#filter-22)" xlink:href="#path-21"></use>
                    <use fill-opacity="0.356610918" fill="#FFFFFF" fill-rule="evenodd" xlink:href="#path-21"></use>
                </g>
            </g>
            <g id="形状结合" fill-rule="nonzero">
                <use fill="url(#linearGradient-23)" xlink:href="#path-24"></use>
                <use fill="black" fill-opacity="1" filter="url(#filter-25)" xlink:href="#path-24"></use>
            </g>
        </g>
    </g>
</svg>