<?xml version="1.0" encoding="UTF-8"?>
<svg width="84px" height="84px" viewBox="0 0 84 84" version="1.1" xmlns="http://www.w3.org/2000/svg" xmlns:xlink="http://www.w3.org/1999/xlink">
    <title>dcc_nav_power_84px</title>
    <defs>
        <path d="M70.6909091,0 L70.6909091,47.1272727 L8.83636364,47.1272727 L8.83738156,47.0106031 C8.59485734,47.0877652 8.34887046,47.1272727 8.1,47.1272727 C4.03317593,47.1272727 0.736363636,36.5774734 0.736363636,23.5636364 C0.736363636,10.5497994 4.03317593,0 8.1,0 C8.34887046,0 8.59485734,0.0395075538 8.83738156,0.116669664 L8.83636364,0 L70.6909091,0 Z" id="path-1"></path>
        <filter x="-11.4%" y="-12.7%" width="125.7%" height="138.2%" filterUnits="objectBoundingBox" id="filter-2">
            <feOffset dx="1" dy="3" in="SourceAlpha" result="shadowOffsetOuter1"></feOffset>
            <feGaussianBlur stdDeviation="2.5" in="shadowOffsetOuter1" result="shadowBlurOuter1"></feGaussianBlur>
            <feColorMatrix values="0 0 0 0 0   0 0 0 0 0   0 0 0 0 0  0 0 0 0.155058321 0" type="matrix" in="shadowBlurOuter1"></feColorMatrix>
        </filter>
        <linearGradient x1="50%" y1="9.90198262%" x2="50.0147027%" y2="90.0980174%" id="linearGradient-3">
            <stop stop-color="#41C144" offset="0%"></stop>
            <stop stop-color="#65FB67" offset="67.5387099%"></stop>
            <stop stop-color="#41C144" offset="100%"></stop>
        </linearGradient>
        <linearGradient x1="50%" y1="10.2958189%" x2="50%" y2="96.5531284%" id="linearGradient-4">
            <stop stop-color="#A7CFA9" stop-opacity="0.392969091" offset="0%"></stop>
            <stop stop-color="#CAE2CB" stop-opacity="0" offset="45.7567248%"></stop>
            <stop stop-color="#85A785" stop-opacity="0.190025063" offset="100%"></stop>
        </linearGradient>
        <path d="M69.9545455,0 L69.9545455,47.1272727 L8.1,47.1272727 L8.10001712,47.0109213 C7.85781698,47.0878738 7.6121645,47.1272727 7.36363636,47.1272727 C3.2968123,47.1272727 0,36.5774734 0,23.5636364 C0,10.5497994 3.2968123,0 7.36363636,0 C7.6121645,0 7.85781698,0.039398942 8.10001712,0.116351464 L8.1,0 L69.9545455,0 Z" id="path-5"></path>
        <filter x="-2.5%" y="-3.7%" width="105.0%" height="107.4%" filterUnits="objectBoundingBox" id="filter-6">
            <feGaussianBlur stdDeviation="1.5" in="SourceAlpha" result="shadowBlurInner1"></feGaussianBlur>
            <feOffset dx="0" dy="-0.5" in="shadowBlurInner1" result="shadowOffsetInner1"></feOffset>
            <feComposite in="shadowOffsetInner1" in2="SourceAlpha" operator="arithmetic" k2="-1" k3="1" result="shadowInnerInner1"></feComposite>
            <feColorMatrix values="0 0 0 0 0.419607843   0 0 0 0 0.843137255   0 0 0 0 0.443137255  0 0 0 1 0" type="matrix" in="shadowInnerInner1" result="shadowMatrixInner1"></feColorMatrix>
            <feGaussianBlur stdDeviation="0.5" in="SourceAlpha" result="shadowBlurInner2"></feGaussianBlur>
            <feOffset dx="0" dy="0" in="shadowBlurInner2" result="shadowOffsetInner2"></feOffset>
            <feComposite in="shadowOffsetInner2" in2="SourceAlpha" operator="arithmetic" k2="-1" k3="1" result="shadowInnerInner2"></feComposite>
            <feColorMatrix values="0 0 0 0 0.986577131   0 0 0 0 0.986577131   0 0 0 0 0.986577131  0 0 0 1 0" type="matrix" in="shadowInnerInner2" result="shadowMatrixInner2"></feColorMatrix>
            <feMerge>
                <feMergeNode in="shadowMatrixInner1"></feMergeNode>
                <feMergeNode in="shadowMatrixInner2"></feMergeNode>
            </feMerge>
        </filter>
        <path d="M69.9545455,47.1272727 C73.2080047,47.1272727 75.8454545,36.5774734 75.8454545,23.5636364 C75.8454545,10.5497994 73.2080047,0 69.9545455,0 C66.7010862,0 64.0636364,10.5497994 64.0636364,23.5636364 C64.0636364,36.5774734 66.7010862,47.1272727 69.9545455,47.1272727 Z" id="path-7"></path>
        <filter x="-6.4%" y="-0.5%" width="108.5%" height="101.1%" filterUnits="objectBoundingBox" id="filter-8">
            <feOffset dx="-0.5" dy="0" in="SourceAlpha" result="shadowOffsetOuter1"></feOffset>
            <feColorMatrix values="0 0 0 0 1   0 0 0 0 1   0 0 0 0 1  0 0 0 0.897124604 0" type="matrix" in="shadowOffsetOuter1"></feColorMatrix>
        </filter>
        <linearGradient x1="50%" y1="3.5537781%" x2="50%" y2="100%" id="linearGradient-9">
            <stop stop-color="#DEDEDE" offset="0%"></stop>
            <stop stop-color="#FAFAFA" offset="51.4066256%"></stop>
            <stop stop-color="#DEDEDE" offset="100%"></stop>
        </linearGradient>
        <path d="M79.5272727,32.4 C80.3406375,32.4 81,28.114144 81,22.8272727 C81,17.5404014 80.3406375,13.2545455 79.5272727,13.2545455 C78.7139079,13.2545455 78.0545455,17.5404014 78.0545455,22.8272727 C78.0545455,28.114144 78.7139079,32.4 79.5272727,32.4 Z" id="path-10"></path>
        <filter x="-5.1%" y="-0.8%" width="110.2%" height="101.6%" filterUnits="objectBoundingBox" id="filter-11">
            <feOffset dx="0.3" dy="0" in="SourceAlpha" result="shadowOffsetInner1"></feOffset>
            <feComposite in="shadowOffsetInner1" in2="SourceAlpha" operator="arithmetic" k2="-1" k3="1" result="shadowInnerInner1"></feComposite>
            <feColorMatrix values="0 0 0 0 1   0 0 0 0 1   0 0 0 0 1  0 0 0 0.825774079 0" type="matrix" in="shadowInnerInner1"></feColorMatrix>
        </filter>
        <radialGradient cx="38.1382507%" cy="11.6526507%" fx="38.1382507%" fy="11.6526507%" r="74.3165801%" gradientTransform="translate(0.381383,0.116527),scale(1.000000,0.896854),rotate(66.430254),translate(-0.381383,-0.116527)" id="radialGradient-12">
            <stop stop-color="#FFFFFF" stop-opacity="0.828673036" offset="0%"></stop>
            <stop stop-color="#FFFFFF" stop-opacity="0" offset="100%"></stop>
        </radialGradient>
        <path d="M21.9253915,10.5040593 C22.0307484,10.5988806 22.0909091,10.7339631 22.0909091,10.8757064 L22.0904032,20.6172902 L30.5409552,20.6181818 C30.8170975,20.6181818 31.0409552,20.8420394 31.0409552,21.1181818 C31.0409552,21.2417027 30.9952334,21.3608518 30.9126022,21.4526642 L19.280738,34.3769578 C19.0960085,34.5822128 18.7798636,34.598852 18.5746085,34.4141225 C18.4692516,34.3193013 18.4090909,34.1842187 18.4090909,34.0424754 L18.4084032,24.2992902 L9.95904484,24.3 C9.68290246,24.3 9.45904484,24.0761424 9.45904484,23.8 C9.45904484,23.6764791 9.50476665,23.55733 9.58739777,23.4655176 L21.219262,10.541224 C21.4039915,10.335969 21.7201364,10.3193298 21.9253915,10.5040593 Z" id="path-13"></path>
        <filter x="-25.2%" y="-18.7%" width="150.4%" height="146.0%" filterUnits="objectBoundingBox" id="filter-14">
            <feOffset dx="0" dy="1" in="SourceAlpha" result="shadowOffsetOuter1"></feOffset>
            <feGaussianBlur stdDeviation="1.5" in="shadowOffsetOuter1" result="shadowBlurOuter1"></feGaussianBlur>
            <feComposite in="shadowBlurOuter1" in2="SourceAlpha" operator="out" result="shadowBlurOuter1"></feComposite>
            <feColorMatrix values="0 0 0 0 0.14008932   0 0 0 0 0.724502342   0 0 0 0 0.150079286  0 0 0 0.645629029 0" type="matrix" in="shadowBlurOuter1"></feColorMatrix>
        </filter>
        <filter x="-16.4%" y="-10.8%" width="132.8%" height="130.2%" filterUnits="objectBoundingBox" id="filter-15">
            <feOffset dx="-0.3" dy="-0.3" in="SourceAlpha" result="shadowOffsetInner1"></feOffset>
            <feComposite in="shadowOffsetInner1" in2="SourceAlpha" operator="arithmetic" k2="-1" k3="1" result="shadowInnerInner1"></feComposite>
            <feColorMatrix values="0 0 0 0 0.833093559   0 0 0 0 1   0 0 0 0 0.837197816  0 0 0 0.396509984 0" type="matrix" in="shadowInnerInner1" result="shadowMatrixInner1"></feColorMatrix>
            <feOffset dx="0.3" dy="0" in="SourceAlpha" result="shadowOffsetInner2"></feOffset>
            <feComposite in="shadowOffsetInner2" in2="SourceAlpha" operator="arithmetic" k2="-1" k3="1" result="shadowInnerInner2"></feComposite>
            <feColorMatrix values="0 0 0 0 0.915839367   0 0 0 0 1   0 0 0 0 0.917328936  0 0 0 0.851533476 0" type="matrix" in="shadowInnerInner2" result="shadowMatrixInner2"></feColorMatrix>
            <feMerge>
                <feMergeNode in="shadowMatrixInner1"></feMergeNode>
                <feMergeNode in="shadowMatrixInner2"></feMergeNode>
            </feMerge>
        </filter>
    </defs>
    <g id="dcc_nav_power_84px" stroke="none" stroke-width="1" fill="none" fill-rule="evenodd">
        <g id="编组-2" transform="translate(1.000000, 18.000000)">
            <g id="形状结合" fill-rule="nonzero">
                <use fill="black" fill-opacity="1" filter="url(#filter-2)" xlink:href="#path-1"></use>
                <use fill="#FFFFFF" xlink:href="#path-1"></use>
            </g>
            <g id="编组">
                <path d="M7.97110999,45.650451 C4.37045417,45.4215096 1.47272727,35.6205736 1.47272727,23.5636364 C1.47272727,11.3631642 4.43985834,1.47272727 8.1,1.47272727 L8.1,1.47272727 L50.8090909,1.47272727 L50.8090909,45.6545455 L8.1,45.6545455 Z" id="形状结合" fill="url(#linearGradient-3)" fill-rule="nonzero"></path>
                <path d="M50.8090909,45.6545455 C53.6558678,45.6545455 55.9636364,35.7641086 55.9636364,23.5636364 C55.9636364,11.3631642 53.6558678,1.47272727 50.8090909,1.47272727 C47.9623141,1.47272727 45.6545455,11.3631642 45.6545455,23.5636364 C45.6545455,35.7641086 47.9623141,45.6545455 50.8090909,45.6545455 Z" id="椭圆形备份-2" fill="#9AFF9A"></path>
                <g id="形状结合" fill-rule="nonzero">
                    <use fill="url(#linearGradient-4)" xlink:href="#path-5"></use>
                    <use fill="black" fill-opacity="1" filter="url(#filter-6)" xlink:href="#path-5"></use>
                </g>
                <g id="椭圆形">
                    <use fill="black" fill-opacity="1" filter="url(#filter-8)" xlink:href="#path-7"></use>
                    <use fill="#ECECEC" fill-rule="evenodd" xlink:href="#path-7"></use>
                </g>
                <path d="M69.9749194,11.7818182 C70.0632624,11.7818182 70.150697,11.7964029 70.2370613,11.8249654 L79.5272727,13.2545455 L79.5272727,32.4 L70.2370613,33.8295801 C70.150697,33.8581425 70.0632624,33.8727273 69.9749194,33.8727273 C69.9698986,33.8727273 69.9648808,33.8726802 69.9598659,33.8725861 L69.9545455,33.8727273 C68.3373584,33.8320063 67.0294649,28.902405 67.0294649,22.8272727 C67.0294649,16.7270366 68.3481898,11.7818182 69.9749194,11.7818182 L69.9544649,11.7828182 L69.9545455,11.7818182 L69.9594649,11.7828182 Z" id="形状结合" fill="url(#linearGradient-9)" fill-rule="nonzero"></path>
                <g id="椭圆形">
                    <use fill="#DEDEDE" fill-rule="evenodd" xlink:href="#path-10"></use>
                    <use fill="black" fill-opacity="1" filter="url(#filter-11)" xlink:href="#path-10"></use>
                </g>
                <g id="形状结合" fill-rule="nonzero">
                    <use fill="black" fill-opacity="1" filter="url(#filter-14)" xlink:href="#path-13"></use>
                    <use fill="url(#radialGradient-12)" xlink:href="#path-13"></use>
                    <use fill="black" fill-opacity="1" filter="url(#filter-15)" xlink:href="#path-13"></use>
                </g>
            </g>
        </g>
    </g>
</svg>