<svg xmlns="http://www.w3.org/2000/svg" xmlns:xlink="http://www.w3.org/1999/xlink" width="42" height="42" viewBox="0 0 42 42">
  <defs>
    <linearGradient id="nav_network_42px-c" x1="38.951%" x2="66.366%" y1="100%" y2="0%">
      <stop offset="0%" stop-color="#11B4DD"/>
      <stop offset="100%" stop-color="#40EA98"/>
    </linearGradient>
    <linearGradient id="nav_network_42px-d" x1="50%" x2="50%" y1="0%" y2="98.156%">
      <stop offset="0%" stop-color="#27EC95"/>
      <stop offset="100%" stop-color="#18E"/>
    </linearGradient>
    <path id="nav_network_42px-b" d="M14.0000912,2.5 C12.0677776,2.5 10.2494248,2.86458337 8.54497666,3.59375712 C6.84053206,4.32293087 5.35485988,5.32097638 4.08791813,6.58791813 C2.82097568,7.85485988 1.82293227,9.34053206 1.09375712,11.0449767 C0.364581975,12.7494248 0,14.5677776 0,16.5000912 C0,18.4324048 0.364581975,20.2507576 1.09375712,21.9552057 C1.82293227,23.6596503 2.82097568,25.1453225 4.08791813,26.4122643 C5.35485988,27.6792067 6.84053206,28.6772501 8.54497666,29.4064253 C10.2494248,30.1356004 12.0677776,30.5001824 14.0000912,30.5001824 C15.9324048,30.5001824 17.7507576,30.1356004 19.4552057,29.4064253 C21.1596503,28.6772501 22.6453225,27.6792067 23.9122643,26.4122643 C25.179206,25.1453225 26.1772515,23.6596503 26.9064253,21.9552057 C27.635599,20.2507576 28.0001824,18.4324048 28.0001824,16.5000912 C28.0001824,14.5677776 27.635599,12.7494248 26.9064253,11.0449767 C26.1772515,9.34053206 25.179206,7.85485988 23.9122643,6.58791813 C22.6453225,5.32097638 21.1596503,4.32293087 19.4552057,3.59375712 C17.7507576,2.86458337 15.9324048,2.5 14.0000912,2.5 L14.0000912,2.5 Z"/>
    <filter id="nav_network_42px-a" width="153.6%" height="153.6%" x="-26.8%" y="-19.6%" filterUnits="objectBoundingBox">
      <feMorphology in="SourceAlpha" operator="dilate" radius=".5" result="shadowSpreadOuter1"/>
      <feOffset dy="2" in="shadowSpreadOuter1" result="shadowOffsetOuter1"/>
      <feGaussianBlur in="shadowOffsetOuter1" result="shadowBlurOuter1" stdDeviation="2"/>
      <feComposite in="shadowBlurOuter1" in2="SourceAlpha" operator="out" result="shadowBlurOuter1"/>
      <feColorMatrix in="shadowBlurOuter1" values="0 0 0 0 0   0 0 0 0 0.878431373   0 0 0 0 1  0 0 0 0.6 0"/>
    </filter>
    <linearGradient id="nav_network_42px-e" x1="50%" x2="50%" y1="100%" y2="0%">
      <stop offset="0%" stop-color="#FFF" stop-opacity=".176"/>
      <stop offset="100%" stop-color="#FFF"/>
    </linearGradient>
    <linearGradient id="nav_network_42px-f" x1="50%" x2="50%" y1="39.476%" y2="100%">
      <stop offset="0%" stop-color="#FFF" stop-opacity=".161"/>
      <stop offset="100%" stop-color="#FFF"/>
    </linearGradient>
    <linearGradient id="nav_network_42px-g" x1="50%" x2="50%" y1="39.476%" y2="100%">
      <stop offset="0%" stop-color="#FFF" stop-opacity=".161"/>
      <stop offset="100%" stop-color="#FFF"/>
    </linearGradient>
    <linearGradient id="nav_network_42px-h" x1="50%" x2="50%" y1="100%" y2="39.476%">
      <stop offset="0%" stop-color="#FFF" stop-opacity=".161"/>
      <stop offset="100%" stop-color="#FFF"/>
    </linearGradient>
    <linearGradient id="nav_network_42px-i" x1="50%" x2="50%" y1="100%" y2="0%">
      <stop offset="0%" stop-color="#FFF" stop-opacity=".176"/>
      <stop offset="100%" stop-color="#FFF"/>
    </linearGradient>
    <linearGradient id="nav_network_42px-j" x1="50%" x2="50%" y1="0%" y2="100%">
      <stop offset="0%" stop-color="#FFF" stop-opacity=".176"/>
      <stop offset="100%" stop-color="#FFF"/>
    </linearGradient>
    <radialGradient id="nav_network_42px-k" cx="50%" cy="50%" r="50%" fx="50%" fy="50%">
      <stop offset="0%" stop-color="#FFF"/>
      <stop offset="44.575%" stop-color="#FFF"/>
      <stop offset="100%" stop-color="#FFF" stop-opacity="0"/>
    </radialGradient>
    <linearGradient id="nav_network_42px-l" x1="25.613%" x2="50%" y1="12.611%" y2="100%">
      <stop offset="0%" stop-color="#FFF"/>
      <stop offset="100%" stop-color="#FFF" stop-opacity=".163"/>
    </linearGradient>
  </defs>
  <g fill="none" fill-rule="evenodd" transform="translate(8 5)">
    <g fill-rule="nonzero">
      <use fill="#000" filter="url(#nav_network_42px-a)" xlink:href="#nav_network_42px-b"/>
      <use fill="url(#nav_network_42px-c)" stroke="url(#nav_network_42px-d)" xlink:href="#nav_network_42px-b"/>
    </g>
    <g transform="translate(0 4.5)">
      <ellipse cx="15.726" cy="5.748" stroke="url(#nav_network_42px-e)" rx="12.248" ry="2.5" transform="rotate(15 15.726 5.748)"/>
      <ellipse cx="17.786" cy="16.868" stroke="url(#nav_network_42px-e)" rx="12.248" ry="2.5" transform="rotate(-37 17.786 16.868)"/>
      <ellipse cx="14.495" cy="16.43" stroke="url(#nav_network_42px-f)" opacity=".8" rx="13" ry="2.5" transform="rotate(-8 14.495 16.43)"/>
      <ellipse cx="14" cy="11" stroke="url(#nav_network_42px-g)" opacity=".8" rx="14" ry="1"/>
    </g>
    <g opacity=".8" transform="rotate(-90 17 13.5)">
      <ellipse cx="14.969" cy="8.594" stroke="url(#nav_network_42px-h)" rx="13.429" ry="2.5" transform="rotate(28 14.97 8.594)"/>
      <ellipse cx="15.154" cy="12.872" stroke="url(#nav_network_42px-h)" rx="13.429" ry="2.5" transform="rotate(-27 15.154 12.872)"/>
      <ellipse cx="18.636" cy="16.674" stroke="url(#nav_network_42px-i)" rx="11.402" ry="2.25" transform="rotate(-38 18.636 16.674)"/>
      <ellipse cx="14" cy="9.75" stroke="url(#nav_network_42px-j)" rx="14" ry="1.25"/>
    </g>
    <circle cx="14" cy="7" r="1" fill="url(#nav_network_42px-k)"/>
    <circle cx="21" cy="16.5" r="1" fill="url(#nav_network_42px-k)"/>
    <circle cx="14.5" cy="16.5" r="1" fill="url(#nav_network_42px-k)"/>
    <circle cx="14.25" cy="23.75" r="1" fill="url(#nav_network_42px-k)"/>
    <circle cx="14.25" cy="20.75" r="1" fill="url(#nav_network_42px-k)"/>
    <circle cx="15.75" cy="19.75" r="1" fill="url(#nav_network_42px-k)"/>
    <circle cx="5.75" cy="23.75" r="1" fill="url(#nav_network_42px-k)"/>
    <circle cx="10.25" cy="6.75" r="1" fill="url(#nav_network_42px-k)"/>
    <circle cx="8.75" cy="16.25" r="1" fill="url(#nav_network_42px-k)"/>
    <circle cx="11.75" cy="11.25" r="1" fill="url(#nav_network_42px-k)"/>
    <circle cx="11.25" cy="23.75" r="1" fill="url(#nav_network_42px-k)"/>
    <circle cx="25.75" cy="20.75" r="1" fill="url(#nav_network_42px-k)" opacity=".8"/>
    <circle cx="18.25" cy="22.75" r="1" fill="url(#nav_network_42px-k)"/>
    <circle cx="12.25" cy="14.75" r="9.25" fill="url(#nav_network_42px-l)" opacity=".4"/>
  </g>
</svg>
