<svg xmlns="http://www.w3.org/2000/svg" xmlns:xlink="http://www.w3.org/1999/xlink" width="84" height="84" viewBox="0 0 84 84">
  <defs>
    <linearGradient id="dcc_nav_systeminfo_84px-c" x1="50%" x2="50%" y1="-6.477%" y2="98.38%">
      <stop offset="0%" stop-color="#4F4F4F"/>
      <stop offset="100%" stop-color="#393939"/>
    </linearGradient>
    <path id="dcc_nav_systeminfo_84px-b" d="M47.75,0 C52.3063492,-8.36987767e-16 56,3.69365081 56,8.25 L56,22.701 L55.8253777,22.7066714 C53.9816905,22.8063661 52.5174129,24.3329291 52.5174129,26.2014925 C52.5174129,28.1287841 54.0751803,29.6922397 56.0003075,29.7014516 L56,45.75 C56,50.3063492 52.3063492,54 47.75,54 L8.25,54 C3.69365081,54 5.57991845e-16,50.3063492 0,45.75 L0.00021794927,29.7014512 C0.00594636885,29.7014787 0.0116780413,29.7014925 0.0174129353,29.7014925 C1.95040956,29.7014925 3.51741294,28.1344892 3.51741294,26.2014925 C3.51741294,24.2684959 1.95040956,22.7014925 0.0174129353,22.7014925 L0,22.701 L0,8.25 C-5.57991845e-16,3.69365081 3.69365081,8.36987767e-16 8.25,0 L47.75,0 Z M5,48 C4.44771525,48 4,48.4477153 4,49 C4,49.5522847 4.44771525,50 5,50 C5.55228475,50 6,49.5522847 6,49 C6,48.4477153 5.55228475,48 5,48 Z M51,48 C50.4477153,48 50,48.4477153 50,49 C50,49.5522847 50.4477153,50 51,50 C51.5522847,50 52,49.5522847 52,49 C52,48.4477153 51.5522847,48 51,48 Z M5,4 C4.44771525,4 4,4.44771525 4,5 C4,5.55228475 4.44771525,6 5,6 C5.55228475,6 6,5.55228475 6,5 C6,4.44771525 5.55228475,4 5,4 Z M51,4 C50.4477153,4 50,4.44771525 50,5 C50,5.55228475 50.4477153,6 51,6 C51.5522847,6 52,5.55228475 52,5 C52,4.44771525 51.5522847,4 51,4 Z"/>
    <filter id="dcc_nav_systeminfo_84px-a" width="150%" height="151.9%" x="-25%" y="-18.5%" filterUnits="objectBoundingBox">
      <feOffset dy="4" in="SourceAlpha" result="shadowOffsetOuter1"/>
      <feGaussianBlur in="shadowOffsetOuter1" result="shadowBlurOuter1" stdDeviation="4"/>
      <feColorMatrix in="shadowBlurOuter1" values="0 0 0 0 0   0 0 0 0 0   0 0 0 0 0  0 0 0 0.418378497 0"/>
    </filter>
    <filter id="dcc_nav_systeminfo_84px-d" width="130.4%" height="131.5%" x="-15.2%" y="-8.3%" filterUnits="objectBoundingBox">
      <feOffset dy="-1" in="SourceAlpha" result="shadowOffsetInner1"/>
      <feComposite in="shadowOffsetInner1" in2="SourceAlpha" k2="-1" k3="1" operator="arithmetic" result="shadowInnerInner1"/>
      <feColorMatrix in="shadowInnerInner1" values="0 0 0 0 0   0 0 0 0 0   0 0 0 0 0  0 0 0 0.3 0"/>
    </filter>
    <linearGradient id="dcc_nav_systeminfo_84px-g" x1="25.196%" x2="90.265%" y1="-1.108%" y2="103.451%">
      <stop offset="0%" stop-color="#A8E8FF"/>
      <stop offset="100%" stop-color="#CDBEFF"/>
    </linearGradient>
    <path id="dcc_nav_systeminfo_84px-f" d="M12,6 L44,6 C47.3137085,6 50,8.6862915 50,12 L50,42 C50,45.3137085 47.3137085,48 44,48 L12,48 C8.6862915,48 6,45.3137085 6,42 L6,12 C6,8.6862915 8.6862915,6 12,6 Z"/>
    <filter id="dcc_nav_systeminfo_84px-e" width="109.1%" height="109.5%" x="-4.5%" y="-2.4%" filterUnits="objectBoundingBox">
      <feOffset dy="1" in="SourceAlpha" result="shadowOffsetOuter1"/>
      <feGaussianBlur in="shadowOffsetOuter1" result="shadowBlurOuter1" stdDeviation=".5"/>
      <feColorMatrix in="shadowBlurOuter1" values="0 0 0 0 0   0 0 0 0 0   0 0 0 0 0  0 0 0 0.25 0"/>
    </filter>
    <filter id="dcc_nav_systeminfo_84px-h" width="106.8%" height="107.1%" x="-3.4%" y="-1.2%" filterUnits="objectBoundingBox">
      <feOffset dy="-1" in="SourceAlpha" result="shadowOffsetInner1"/>
      <feComposite in="shadowOffsetInner1" in2="SourceAlpha" k2="-1" k3="1" operator="arithmetic" result="shadowInnerInner1"/>
      <feColorMatrix in="shadowInnerInner1" result="shadowMatrixInner1" values="0 0 0 0 0   0 0 0 0 0   0 0 0 0 0  0 0 0 0.15 0"/>
      <feOffset dy="1" in="SourceAlpha" result="shadowOffsetInner2"/>
      <feComposite in="shadowOffsetInner2" in2="SourceAlpha" k2="-1" k3="1" operator="arithmetic" result="shadowInnerInner2"/>
      <feColorMatrix in="shadowInnerInner2" result="shadowMatrixInner2" values="0 0 0 0 1   0 0 0 0 1   0 0 0 0 1  0 0 0 0.25 0"/>
      <feMerge>
        <feMergeNode in="shadowMatrixInner1"/>
        <feMergeNode in="shadowMatrixInner2"/>
      </feMerge>
    </filter>
    <linearGradient id="dcc_nav_systeminfo_84px-i" x1="42.882%" x2="54.302%" y1="40.223%" y2="60.441%">
      <stop offset="0%" stop-opacity=".25"/>
      <stop offset="100%" stop-opacity=".2"/>
    </linearGradient>
  </defs>
  <g fill="none" fill-rule="evenodd" transform="translate(14 15)">
    <use fill="#000" filter="url(#dcc_nav_systeminfo_84px-a)" xlink:href="#dcc_nav_systeminfo_84px-b"/>
    <use fill="url(#dcc_nav_systeminfo_84px-c)" xlink:href="#dcc_nav_systeminfo_84px-b"/>
    <use fill="#000" filter="url(#dcc_nav_systeminfo_84px-d)" xlink:href="#dcc_nav_systeminfo_84px-b"/>
    <use fill="#000" filter="url(#dcc_nav_systeminfo_84px-e)" xlink:href="#dcc_nav_systeminfo_84px-f"/>
    <use fill="url(#dcc_nav_systeminfo_84px-g)" xlink:href="#dcc_nav_systeminfo_84px-f"/>
    <use fill="#000" filter="url(#dcc_nav_systeminfo_84px-h)" xlink:href="#dcc_nav_systeminfo_84px-f"/>
    <path fill="#000" fill-opacity=".4" d="M8.5,0.5 C9.05228475,0.5 9.5,0.94771525 9.5,1.5 L9.5,1.5 L9.5,6.7 C9.5,8.79868205 7.79868205,10.5 5.7,10.5 L5.7,10.5 L4.3,10.5 C2.20131795,10.5 0.5,8.79868205 0.5,6.7 L0.5,6.7 L0.5,1.5 C0.5,0.94771525 0.94771525,0.5 1.5,0.5 C2.05228475,0.5 2.5,0.94771525 2.5,1.5 L2.5,1.5 L2.5,6.7 C2.5,7.69411255 3.30588745,8.5 4.3,8.5 L4.3,8.5 L5.7,8.5 C6.69411255,8.5 7.5,7.69411255 7.5,6.7 L7.5,6.7 L7.5,1.5 C7.5,0.94771525 7.94771525,0.5 8.5,0.5 Z M16.6333333,0.5 C18.2165496,0.5 19.5,1.78345038 19.5,3.36666667 L19.5,7.63333333 C19.5,9.21654962 18.2165496,10.5 16.6333333,10.5 L13.3666667,10.5 C11.7834504,10.5 10.5,9.21654962 10.5,7.63333333 L10.5,3.36666667 C10.5,1.78345038 11.7834504,0.5 13.3666667,0.5 L16.6333333,0.5 Z M28.5,0.5 C29.0522847,0.5 29.5,0.94771525 29.5,1.5 C29.5,2.05228475 29.0522847,2.5 28.5,2.5 L28.5,2.5 L22.9,2.5 C22.6790861,2.5 22.5,2.6790861 22.5,2.9 L22.5,2.9 L22.5,4.1 C22.5,4.3209139 22.6790861,4.5 22.9,4.5 L22.9,4.5 L27.1,4.5 C28.4254834,4.5 29.5,5.5745166 29.5,6.9 L29.5,6.9 L29.5,8.1 C29.5,9.4254834 28.4254834,10.5 27.1,10.5 L27.1,10.5 L21.5,10.5 C20.9477153,10.5 20.5,10.0522847 20.5,9.5 C20.5,8.94771525 20.9477153,8.5 21.5,8.5 L21.5,8.5 L27.1,8.5 C27.3209139,8.5 27.5,8.3209139 27.5,8.1 L27.5,8.1 L27.5,6.9 C27.5,6.6790861 27.3209139,6.5 27.1,6.5 L27.1,6.5 L22.9,6.5 C21.5745166,6.5 20.5,5.4254834 20.5,4.1 L20.5,4.1 L20.5,2.9 C20.5,1.5745166 21.5745166,0.5 22.9,0.5 L22.9,0.5 Z M16.6333333,2.5 L13.3666667,2.5 C12.8880199,2.5 12.5,2.88801988 12.5,3.36666667 L12.5,7.63333333 C12.5,8.11198012 12.8880199,8.5 13.3666667,8.5 L16.6333333,8.5 C17.1119801,8.5 17.5,8.11198012 17.5,7.63333333 L17.5,3.36666667 C17.5,2.88801988 17.1119801,2.5 16.6333333,2.5 Z" transform="translate(12.5 13.5)"/>
    <path fill="url(#dcc_nav_systeminfo_84px-i)" d="M28,39 L28,40 L12,40 L12,39 L28,39 Z M23,37 L23,38 L12,38 L12,37 L23,37 Z M40,35 L40,36 L12,36 L12,35 L40,35 Z M45,33 L45,34 L12,34 L12,33 L45,33 Z M45,31 L45,32 L12,32 L12,31 L45,31 Z M29,29 L29,30 L12,30 L12,29 L29,29 Z M18,27 L18,28 L12,28 L12,27 L18,27 Z"/>
  </g>
</svg>
