<?xml version="1.0" encoding="UTF-8"?>
<svg width="42px" height="42px" viewBox="0 0 42 42" version="1.1" xmlns="http://www.w3.org/2000/svg" xmlns:xlink="http://www.w3.org/1999/xlink">
    <title>dcc_nav_sound_42px</title>
    <defs>
        <filter x="-24.1%" y="-20.4%" width="148.5%" height="141.3%" filterUnits="objectBoundingBox" id="filter-1">
            <feOffset dx="0" dy="1" in="SourceAlpha" result="shadowOffsetOuter1"></feOffset>
            <feGaussianBlur stdDeviation="1" in="shadowOffsetOuter1" result="shadowBlurOuter1"></feGaussianBlur>
            <feColorMatrix values="0 0 0 0 0   0 0 0 0 0   0 0 0 0 0  0 0 0 0.2 0" type="matrix" in="shadowBlurOuter1" result="shadowMatrixOuter1"></feColorMatrix>
            <feMerge>
                <feMergeNode in="shadowMatrixOuter1"></feMergeNode>
                <feMergeNode in="SourceGraphic"></feMergeNode>
            </feMerge>
        </filter>
        <linearGradient x1="56.7915086%" y1="100%" x2="56.7915086%" y2="0%" id="linearGradient-2">
            <stop stop-color="#B8B8B8" offset="0%"></stop>
            <stop stop-color="#C2C2C2" offset="34.6339528%"></stop>
            <stop stop-color="#E7E7E7" offset="73.1037819%"></stop>
            <stop stop-color="#EDEDED" offset="100%"></stop>
        </linearGradient>
        <path d="M4,9.16837432 L7.63062672,9.16837432 L7.63062672,9.16837432 L7.63062672,23.1581994 L4,23.1581994 C1.790861,23.1581994 -1.73547709e-16,21.3673384 0,19.1581994 L0,13.1683743 C-7.1463071e-16,10.9592353 1.790861,9.16837432 4,9.16837432 Z" id="path-3"></path>
        <filter x="-13.1%" y="-7.1%" width="126.2%" height="114.3%" filterUnits="objectBoundingBox" id="filter-4">
            <feGaussianBlur stdDeviation="0.5" in="SourceAlpha" result="shadowBlurInner1"></feGaussianBlur>
            <feOffset dx="1" dy="-1" in="shadowBlurInner1" result="shadowOffsetInner1"></feOffset>
            <feComposite in="shadowOffsetInner1" in2="SourceAlpha" operator="arithmetic" k2="-1" k3="1" result="shadowInnerInner1"></feComposite>
            <feColorMatrix values="0 0 0 0 0.562748563   0 0 0 0 0.562748563   0 0 0 0 0.562748563  0 0 0 0.57969228 0" type="matrix" in="shadowInnerInner1"></feColorMatrix>
        </filter>
        <path d="M4,0.0150959826 L5.99797366,0.0150959826 L5.99797366,0.0150959826 L5.99797366,14.0049211 L4,14.0049211 C1.790861,14.0049211 2.705415e-16,12.2140601 0,10.0049211 L0,4.01509598 C-2.705415e-16,1.80595698 1.790861,0.0150959826 4,0.0150959826 Z" id="path-5"></path>
        <linearGradient x1="51.9168608%" y1="76.4362948%" x2="51.6583848%" y2="22.7165832%" id="linearGradient-7">
            <stop stop-color="#6D6D6D" offset="0%"></stop>
            <stop stop-color="#C0C0C0" offset="69.768132%"></stop>
            <stop stop-color="#F4F4F4" offset="100%"></stop>
        </linearGradient>
        <linearGradient x1="56.7915086%" y1="100%" x2="56.7915086%" y2="0%" id="linearGradient-8">
            <stop stop-color="#A8A8A8" offset="0%"></stop>
            <stop stop-color="#CDCDCD" offset="31.9970412%"></stop>
            <stop stop-color="#EFEFEF" offset="60.0902316%"></stop>
            <stop stop-color="#E4E4E4" offset="100%"></stop>
        </linearGradient>
        <linearGradient x1="50%" y1="0%" x2="50%" y2="100%" id="linearGradient-9">
            <stop stop-color="#F6F3F3" offset="0%"></stop>
            <stop stop-color="#E1E1E1" offset="100%"></stop>
        </linearGradient>
        <linearGradient x1="50%" y1="0%" x2="50%" y2="100%" id="linearGradient-10">
            <stop stop-color="#343434" offset="0%"></stop>
            <stop stop-color="#717171" offset="57.5673463%"></stop>
            <stop stop-color="#3D3D3D" offset="100%"></stop>
        </linearGradient>
        <path d="M3.70531191,31.4951513 C5.49590077,31.4951513 8.3369518,24.4216319 8.3369518,15.7244861 C8.3369518,7.02734021 5.49590077,-1.05311299e-13 3.70531191,-1.05311299e-13 C1.91472306,-1.05311299e-13 0.463163989,7.05042976 0.463163989,15.7475756 C0.463163989,24.4447215 1.91472306,31.4951513 3.70531191,31.4951513 Z" id="path-11"></path>
        <radialGradient cx="95.0459416%" cy="34.8561048%" fx="95.0459416%" fy="34.8561048%" r="80.2235141%" id="radialGradient-13">
            <stop stop-color="#8E8E8E" stop-opacity="0.757692991" offset="0%"></stop>
            <stop stop-color="#1E1E1E" stop-opacity="0.737318498" offset="57.6276567%"></stop>
            <stop stop-color="#000000" offset="100%"></stop>
        </radialGradient>
        <circle id="path-14" cx="-7.41062382" cy="16.6739036" r="12.0422637"></circle>
        <filter x="-0.6%" y="-0.6%" width="101.2%" height="101.2%" filterUnits="objectBoundingBox" id="filter-15">
            <feOffset dx="-0.3" dy="0" in="SourceAlpha" result="shadowOffsetInner1"></feOffset>
            <feComposite in="shadowOffsetInner1" in2="SourceAlpha" operator="arithmetic" k2="-1" k3="1" result="shadowInnerInner1"></feComposite>
            <feColorMatrix values="0 0 0 0 0.392960258   0 0 0 0 0.392960258   0 0 0 0 0.392960258  0 0 0 0.5 0" type="matrix" in="shadowInnerInner1"></feColorMatrix>
        </filter>
        <linearGradient x1="50%" y1="-8.77734886%" x2="50.0000252%" y2="110.298451%" id="linearGradient-16">
            <stop stop-color="#97D4FF" offset="0%"></stop>
            <stop stop-color="#8CC6FF" offset="65.848159%"></stop>
            <stop stop-color="#BDD9FF" offset="100%"></stop>
        </linearGradient>
        <path d="M23.171821,9.50401819 C23.6869188,9.00176519 24.5116446,9.01217801 25.0138976,9.52727586 C26.6989787,11.255452 27.6602425,13.5698929 27.6602425,16.0325996 C27.6602425,18.2679632 26.8688502,20.3847098 25.4526607,22.0554213 C24.9874681,22.6042198 24.165466,22.6719957 23.6166675,22.2068032 C23.0678691,21.7416106 23.0000931,20.9196084 23.4652857,20.37081 C24.4861691,19.1664502 25.0549451,17.6451382 25.0549451,16.0325996 C25.0549451,14.2563847 24.3638725,12.592485 23.1485633,11.3460949 C22.6463103,10.830997 22.6567231,10.0062712 23.171821,9.50401819 Z" id="path-17"></path>
        <filter x="-15.4%" y="-5.6%" width="130.7%" height="111.2%" filterUnits="objectBoundingBox" id="filter-18">
            <feGaussianBlur stdDeviation="0.5" in="SourceAlpha" result="shadowBlurInner1"></feGaussianBlur>
            <feOffset dx="-0.5" dy="0" in="shadowBlurInner1" result="shadowOffsetInner1"></feOffset>
            <feComposite in="shadowOffsetInner1" in2="SourceAlpha" operator="arithmetic" k2="-1" k3="1" result="shadowInnerInner1"></feComposite>
            <feColorMatrix values="0 0 0 0 0.881235709   0 0 0 0 0.94401112   0 0 0 0 1  0 0 0 1 0" type="matrix" in="shadowInnerInner1"></feColorMatrix>
        </filter>
        <linearGradient x1="50%" y1="-8.77734886%" x2="50.0000176%" y2="110.298451%" id="linearGradient-19">
            <stop stop-color="#97D4FF" stop-opacity="0.344202428" offset="0%"></stop>
            <stop stop-color="#2B97FF" stop-opacity="0.476808348" offset="65.848159%"></stop>
            <stop stop-color="#006AFF" stop-opacity="0.220689467" offset="100%"></stop>
        </linearGradient>
        <path d="M27.4731352,5.31313771 C27.9547656,4.83840694 28.7300494,4.84400016 29.2047802,5.32563053 C31.9987199,8.16017647 33.5943084,11.9719096 33.5943084,16.0325996 C33.5943084,19.6609053 32.321698,23.0965075 30.039389,25.8213298 C29.6051495,26.3397632 28.8328556,26.4080159 28.3144221,25.9737765 C27.7959887,25.5395371 27.727736,24.7672431 28.1619754,24.2488097 C30.0784068,21.9608045 31.1453288,19.0804889 31.1453288,16.0325996 C31.1453288,12.6218751 29.8073833,9.42563048 27.4606424,7.04478272 C26.9859116,6.56315235 26.9915048,5.78786847 27.4731352,5.31313771 Z" id="path-20"></path>
        <filter x="-11.6%" y="-3.5%" width="123.1%" height="107.0%" filterUnits="objectBoundingBox" id="filter-21">
            <feGaussianBlur stdDeviation="0.5" in="SourceAlpha" result="shadowBlurInner1"></feGaussianBlur>
            <feOffset dx="-0.5" dy="0" in="shadowBlurInner1" result="shadowOffsetInner1"></feOffset>
            <feComposite in="shadowOffsetInner1" in2="SourceAlpha" operator="arithmetic" k2="-1" k3="1" result="shadowInnerInner1"></feComposite>
            <feColorMatrix values="0 0 0 0 0.881235709   0 0 0 0 0.94401112   0 0 0 0 1  0 0 0 1 0" type="matrix" in="shadowInnerInner1"></feColorMatrix>
        </filter>
        <linearGradient x1="50%" y1="-8.77734886%" x2="50.000015%" y2="110.298451%" id="linearGradient-22">
            <stop stop-color="#97D4FF" stop-opacity="0.344202428" offset="0%"></stop>
            <stop stop-color="#2B97FF" stop-opacity="0.476808348" offset="65.848159%"></stop>
            <stop stop-color="#006AFF" stop-opacity="0.220689467" offset="100%"></stop>
        </linearGradient>
        <path d="M31.7234678,1.06440224 C32.2040966,0.588657476 32.9793905,0.592616758 33.4551353,1.07324554 C37.3698812,5.02818046 39.6065333,10.3551508 39.6065333,16.0325996 C39.6065333,21.074161 37.8447971,25.8478943 34.6825871,29.641198 C34.2495607,30.1606451 33.4774284,30.2307028 32.9579813,29.7976764 C32.4385343,29.36465 32.3684765,28.5925177 32.8015029,28.0730707 C35.6000956,24.7159527 37.1575537,20.4957467 37.1575537,16.0325996 C37.1575537,11.0069331 35.1799788,6.29699962 31.7146245,2.79606974 C31.2388797,2.31544095 31.242839,1.540147 31.7234678,1.06440224 Z" id="path-23"></path>
        <filter x="-9.1%" y="-2.6%" width="118.2%" height="105.1%" filterUnits="objectBoundingBox" id="filter-24">
            <feGaussianBlur stdDeviation="0.5" in="SourceAlpha" result="shadowBlurInner1"></feGaussianBlur>
            <feOffset dx="-0.5" dy="0" in="shadowBlurInner1" result="shadowOffsetInner1"></feOffset>
            <feComposite in="shadowOffsetInner1" in2="SourceAlpha" operator="arithmetic" k2="-1" k3="1" result="shadowInnerInner1"></feComposite>
            <feColorMatrix values="0 0 0 0 0.881235709   0 0 0 0 0.94401112   0 0 0 0 1  0 0 0 1 0" type="matrix" in="shadowInnerInner1"></feColorMatrix>
        </filter>
    </defs>
    <g id="dcc_nav_sound_42px" stroke="none" stroke-width="1" fill="none" fill-rule="evenodd">
        <g id="编组-2" transform="translate(1.000000, 5.000000)">
            <g id="编组" filter="url(#filter-1)">
                <g id="形状结合备份">
                    <use fill="url(#linearGradient-2)" fill-rule="evenodd" xlink:href="#path-3"></use>
                    <use fill="black" fill-opacity="1" filter="url(#filter-4)" xlink:href="#path-3"></use>
                </g>
                <g id="形状结合" transform="translate(1.632653, 9.153278)">
                    <mask id="mask-6" fill="white">
                        <use xlink:href="#path-5"></use>
                    </mask>
                    <g id="蒙版"></g>
                    <path d="M4.56448136,0.0150959826 L11.7624926,-8.44894855 C12.1424906,-8.89578316 12.6994877,-9.15327833 13.2860537,-9.15327833 L20.312057,-9.15327833 L20.312057,-9.15327833 L20.312057,22.3418729 L13.2293695,22.3418729 C12.6757116,22.3418729 12.1468248,22.1123627 11.7686436,21.7079914 L4.56448136,14.0049211 L4.56448136,14.0049211 C3.90799276,12.6294735 3.57974845,10.2919641 3.57974845,6.99239295 C3.57974845,3.69282174 3.90799276,1.36705609 4.56448136,0.0150959826 Z" fill="url(#linearGradient-7)" mask="url(#mask-6)"></path>
                </g>
                <path d="M6.70429874,9.16837432 L13.9023099,0.704329779 C14.282308,0.25749517 14.8393051,3.08643598e-17 15.4258711,0 L20.5992184,0 L20.5992184,0 L20.5992184,31.4951513 L15.3691869,31.4951513 C14.8155289,31.4951513 14.2866422,31.265641 13.908461,30.8612697 L6.70429874,23.1581994 L6.70429874,23.1581994 C6.04781013,21.7827519 5.71956583,19.4452425 5.71956583,16.1456713 C5.71956583,12.8461001 6.04781013,10.5203344 6.70429874,9.16837432 Z" id="形状结合" fill="url(#linearGradient-8)"></path>
                <path d="M20.5992184,31.4951513 L20.5172115,31.490008 C18.7652971,31.2744233 17.3587449,24.3088286 17.3587449,15.7475756 C17.3587449,7.05042976 18.8103039,0 20.6008928,0 L20.5992184,0 L21.5255464,0 L21.5254464,0.649564439 C22.8655917,2.58274279 23.8430407,8.61072738 23.8430407,15.7475756 C23.8430407,22.8844239 22.8655917,28.9124085 21.5254464,30.8455868 L21.5255464,31.4951513 L20.5992184,31.4951513 Z" id="形状结合" fill="url(#linearGradient-9)"></path>
                <path d="M21.5255464,31.4951513 C23.3161352,31.4951513 24.7676943,24.4447215 24.7676943,15.7475756 C24.7676943,7.05042976 23.3161352,0 21.5255464,0 C19.7349575,0 18.2833985,7.05042976 18.2833985,15.7475756 C18.2833985,24.4447215 19.7349575,31.4951513 21.5255464,31.4951513 Z" id="椭圆形" fill="url(#linearGradient-10)"></path>
                <g id="椭圆形" transform="translate(17.820234, 0.000000)">
                    <mask id="mask-12" fill="white">
                        <use xlink:href="#path-11"></use>
                    </mask>
                    <g id="蒙版"></g>
                    <g mask="url(#mask-12)">
                        <use fill="url(#radialGradient-13)" fill-rule="evenodd" xlink:href="#path-14"></use>
                        <use fill="black" fill-opacity="1" filter="url(#filter-15)" xlink:href="#path-14"></use>
                    </g>
                </g>
            </g>
            <g id="路径" fill-rule="nonzero">
                <use fill="url(#linearGradient-16)" xlink:href="#path-17"></use>
                <use fill="black" fill-opacity="1" filter="url(#filter-18)" xlink:href="#path-17"></use>
            </g>
            <g id="路径" fill-rule="nonzero">
                <use fill="url(#linearGradient-19)" xlink:href="#path-20"></use>
                <use fill="black" fill-opacity="1" filter="url(#filter-21)" xlink:href="#path-20"></use>
            </g>
            <g id="路径" fill-rule="nonzero">
                <use fill="url(#linearGradient-22)" xlink:href="#path-23"></use>
                <use fill="black" fill-opacity="1" filter="url(#filter-24)" xlink:href="#path-23"></use>
            </g>
        </g>
    </g>
</svg>