<?xml version="1.0" encoding="UTF-8"?>
<svg width="84px" height="84px" viewBox="0 0 84 84" version="1.1" xmlns="http://www.w3.org/2000/svg" xmlns:xlink="http://www.w3.org/1999/xlink">
    <title>dcc_nav_sound_84px</title>
    <defs>
        <filter x="-12.3%" y="-10.3%" width="124.5%" height="120.6%" filterUnits="objectBoundingBox" id="filter-1">
            <feOffset dx="0" dy="1" in="SourceAlpha" result="shadowOffsetOuter1"></feOffset>
            <feGaussianBlur stdDeviation="1" in="shadowOffsetOuter1" result="shadowBlurOuter1"></feGaussianBlur>
            <feColorMatrix values="0 0 0 0 0   0 0 0 0 0   0 0 0 0 0  0 0 0 0.2 0" type="matrix" in="shadowBlurOuter1" result="shadowMatrixOuter1"></feColorMatrix>
            <feMerge>
                <feMergeNode in="shadowMatrixOuter1"></feMergeNode>
                <feMergeNode in="SourceGraphic"></feMergeNode>
            </feMerge>
        </filter>
        <linearGradient x1="56.7915086%" y1="100%" x2="56.7915086%" y2="0%" id="linearGradient-2">
            <stop stop-color="#B8B8B8" offset="0%"></stop>
            <stop stop-color="#C2C2C2" offset="34.6339528%"></stop>
            <stop stop-color="#E7E7E7" offset="73.1037819%"></stop>
            <stop stop-color="#EDEDED" offset="100%"></stop>
        </linearGradient>
        <path d="M8,18.3367486 L15.2612534,18.3367486 L15.2612534,18.3367486 L15.2612534,46.3163989 L8,46.3163989 C3.581722,46.3163989 5.41083001e-16,42.7346769 0,38.3163989 L0,26.3367486 C-5.41083001e-16,21.9184706 3.581722,18.3367486 8,18.3367486 Z" id="path-3"></path>
        <filter x="-6.6%" y="-3.6%" width="113.1%" height="107.1%" filterUnits="objectBoundingBox" id="filter-4">
            <feGaussianBlur stdDeviation="0.5" in="SourceAlpha" result="shadowBlurInner1"></feGaussianBlur>
            <feOffset dx="1" dy="-1" in="shadowBlurInner1" result="shadowOffsetInner1"></feOffset>
            <feComposite in="shadowOffsetInner1" in2="SourceAlpha" operator="arithmetic" k2="-1" k3="1" result="shadowInnerInner1"></feComposite>
            <feColorMatrix values="0 0 0 0 0.562748563   0 0 0 0 0.562748563   0 0 0 0 0.562748563  0 0 0 0.57969228 0" type="matrix" in="shadowInnerInner1"></feColorMatrix>
        </filter>
        <path d="M4,0.0301919652 L11.9959473,0.0301919652 L11.9959473,0.0301919652 L11.9959473,28.0098422 L4,28.0098422 C1.790861,28.0098422 2.705415e-16,26.2189812 0,24.0098422 L0,4.03019197 C-2.705415e-16,1.82105297 1.790861,0.0301919652 4,0.0301919652 Z" id="path-5"></path>
        <linearGradient x1="51.9168608%" y1="76.4362948%" x2="51.6583848%" y2="22.7165832%" id="linearGradient-7">
            <stop stop-color="#6D6D6D" offset="0%"></stop>
            <stop stop-color="#C0C0C0" offset="69.768132%"></stop>
            <stop stop-color="#F4F4F4" offset="100%"></stop>
        </linearGradient>
        <linearGradient x1="56.7915086%" y1="100%" x2="56.7915086%" y2="0%" id="linearGradient-8">
            <stop stop-color="#A8A8A8" offset="0%"></stop>
            <stop stop-color="#CDCDCD" offset="31.9970412%"></stop>
            <stop stop-color="#EFEFEF" offset="60.0902316%"></stop>
            <stop stop-color="#E4E4E4" offset="100%"></stop>
        </linearGradient>
        <linearGradient x1="50%" y1="0%" x2="50%" y2="100%" id="linearGradient-9">
            <stop stop-color="#F6F3F3" offset="0%"></stop>
            <stop stop-color="#E1E1E1" offset="100%"></stop>
        </linearGradient>
        <linearGradient x1="50%" y1="0%" x2="50%" y2="100%" id="linearGradient-10">
            <stop stop-color="#343434" offset="0%"></stop>
            <stop stop-color="#717171" offset="57.5673463%"></stop>
            <stop stop-color="#3D3D3D" offset="100%"></stop>
        </linearGradient>
        <path d="M7.41062382,62.9903025 C10.9918015,62.9903025 16.6739036,48.8432639 16.6739036,31.4489721 C16.6739036,14.0546804 10.9918015,-2.10622597e-13 7.41062382,-2.10622597e-13 C3.82944612,-2.10622597e-13 0.926327978,14.1008595 0.926327978,31.4951513 C0.926327978,48.889443 3.82944612,62.9903025 7.41062382,62.9903025 Z" id="path-11"></path>
        <radialGradient cx="95.0459416%" cy="34.8561048%" fx="95.0459416%" fy="34.8561048%" r="80.2235141%" id="radialGradient-13">
            <stop stop-color="#8E8E8E" stop-opacity="0.757692991" offset="0%"></stop>
            <stop stop-color="#1E1E1E" stop-opacity="0.737318498" offset="57.6276567%"></stop>
            <stop stop-color="#000000" offset="100%"></stop>
        </radialGradient>
        <circle id="path-14" cx="-14.8212476" cy="33.3478072" r="24.0845274"></circle>
        <filter x="-0.3%" y="-0.3%" width="100.6%" height="100.6%" filterUnits="objectBoundingBox" id="filter-15">
            <feOffset dx="-0.3" dy="0" in="SourceAlpha" result="shadowOffsetInner1"></feOffset>
            <feComposite in="shadowOffsetInner1" in2="SourceAlpha" operator="arithmetic" k2="-1" k3="1" result="shadowInnerInner1"></feComposite>
            <feColorMatrix values="0 0 0 0 0.392960258   0 0 0 0 0.392960258   0 0 0 0 0.392960258  0 0 0 0.5 0" type="matrix" in="shadowInnerInner1"></feColorMatrix>
        </filter>
        <linearGradient x1="50%" y1="-8.77734886%" x2="50.0000252%" y2="110.298451%" id="linearGradient-16">
            <stop stop-color="#97D4FF" offset="0%"></stop>
            <stop stop-color="#8CC6FF" offset="65.848159%"></stop>
            <stop stop-color="#BDD9FF" offset="100%"></stop>
        </linearGradient>
        <path d="M46.3436419,19.0080364 C47.3738376,18.0035304 49.0232893,18.024356 50.0277953,19.0545517 C53.3979574,22.510904 55.320485,27.1397858 55.320485,32.0651992 C55.320485,36.5359264 53.7377004,40.7694196 50.9053214,44.1108427 C49.9749362,45.2084396 48.3309319,45.3439915 47.233335,44.4136063 C46.1357381,43.4832211 46.0001862,41.8392169 46.9305714,40.74162 C48.9723381,38.3329005 50.1098901,35.2902764 50.1098901,32.0651992 C50.1098901,28.5127693 48.7277451,25.18497 46.2971266,22.6921897 C45.2926206,21.661994 45.3134462,20.0125424 46.3436419,19.0080364 Z" id="path-17"></path>
        <filter x="-7.7%" y="-2.8%" width="115.4%" height="105.6%" filterUnits="objectBoundingBox" id="filter-18">
            <feGaussianBlur stdDeviation="0.5" in="SourceAlpha" result="shadowBlurInner1"></feGaussianBlur>
            <feOffset dx="-0.5" dy="0" in="shadowBlurInner1" result="shadowOffsetInner1"></feOffset>
            <feComposite in="shadowOffsetInner1" in2="SourceAlpha" operator="arithmetic" k2="-1" k3="1" result="shadowInnerInner1"></feComposite>
            <feColorMatrix values="0 0 0 0 0.881235709   0 0 0 0 0.94401112   0 0 0 0 1  0 0 0 1 0" type="matrix" in="shadowInnerInner1"></feColorMatrix>
        </filter>
        <linearGradient x1="50%" y1="-8.77734886%" x2="50.0000176%" y2="110.298451%" id="linearGradient-19">
            <stop stop-color="#97D4FF" stop-opacity="0.344202428" offset="0%"></stop>
            <stop stop-color="#2B97FF" stop-opacity="0.476808348" offset="65.848159%"></stop>
            <stop stop-color="#006AFF" stop-opacity="0.220689467" offset="100%"></stop>
        </linearGradient>
        <path d="M54.9462704,10.6262754 C55.9095311,9.67681387 57.4600989,9.68800032 58.4095604,10.6512611 C63.9974398,16.3203529 67.1886169,23.9438192 67.1886169,32.0651992 C67.1886169,39.3218105 64.643396,46.193015 60.0787779,51.6426596 C59.2102991,52.6795264 57.6657112,52.8160319 56.6288443,51.947553 C55.5919774,51.0790741 55.455472,49.5344862 56.3239509,48.4976193 C60.1568137,43.9216089 62.2906577,38.1609778 62.2906577,32.0651992 C62.2906577,25.2437501 59.6147666,18.851261 54.9212847,14.0895654 C53.9718232,13.1263047 53.9830097,11.5757369 54.9462704,10.6262754 Z" id="path-20"></path>
        <filter x="-5.8%" y="-1.8%" width="111.6%" height="103.5%" filterUnits="objectBoundingBox" id="filter-21">
            <feGaussianBlur stdDeviation="0.5" in="SourceAlpha" result="shadowBlurInner1"></feGaussianBlur>
            <feOffset dx="-0.5" dy="0" in="shadowBlurInner1" result="shadowOffsetInner1"></feOffset>
            <feComposite in="shadowOffsetInner1" in2="SourceAlpha" operator="arithmetic" k2="-1" k3="1" result="shadowInnerInner1"></feComposite>
            <feColorMatrix values="0 0 0 0 0.881235709   0 0 0 0 0.94401112   0 0 0 0 1  0 0 0 1 0" type="matrix" in="shadowInnerInner1"></feColorMatrix>
        </filter>
        <linearGradient x1="50%" y1="-8.77734886%" x2="50.000015%" y2="110.298451%" id="linearGradient-22">
            <stop stop-color="#97D4FF" stop-opacity="0.344202428" offset="0%"></stop>
            <stop stop-color="#2B97FF" stop-opacity="0.476808348" offset="65.848159%"></stop>
            <stop stop-color="#006AFF" stop-opacity="0.220689467" offset="100%"></stop>
        </linearGradient>
        <path d="M63.4469356,2.12880448 C64.4081931,1.17731495 65.958781,1.18523352 66.9102706,2.14649109 C74.7397624,10.0563609 79.2130666,20.7103016 79.2130666,32.0651992 C79.2130666,42.1483219 75.6895941,51.6957886 69.3651742,59.282396 C68.4991214,60.3212901 66.9548568,60.4614057 65.9159627,59.5953529 C64.8770685,58.7293001 64.736953,57.1850355 65.6030058,56.1461414 C71.2001912,49.4319054 74.3151074,40.9914934 74.3151074,32.0651992 C74.3151074,22.0138663 70.3599577,12.5939992 63.429249,5.59213947 C62.4777594,4.6308819 62.485678,3.08029401 63.4469356,2.12880448 Z" id="path-23"></path>
        <filter x="-4.5%" y="-1.3%" width="109.1%" height="102.6%" filterUnits="objectBoundingBox" id="filter-24">
            <feGaussianBlur stdDeviation="0.5" in="SourceAlpha" result="shadowBlurInner1"></feGaussianBlur>
            <feOffset dx="-0.5" dy="0" in="shadowBlurInner1" result="shadowOffsetInner1"></feOffset>
            <feComposite in="shadowOffsetInner1" in2="SourceAlpha" operator="arithmetic" k2="-1" k3="1" result="shadowInnerInner1"></feComposite>
            <feColorMatrix values="0 0 0 0 0.881235709   0 0 0 0 0.94401112   0 0 0 0 1  0 0 0 1 0" type="matrix" in="shadowInnerInner1"></feColorMatrix>
        </filter>
    </defs>
    <g id="dcc_nav_sound_84px" stroke="none" stroke-width="1" fill="none" fill-rule="evenodd">
        <g id="编组-2" transform="translate(2.000000, 10.000000)">
            <g id="编组" filter="url(#filter-1)">
                <g id="形状结合备份">
                    <use fill="url(#linearGradient-2)" fill-rule="evenodd" xlink:href="#path-3"></use>
                    <use fill="black" fill-opacity="1" filter="url(#filter-4)" xlink:href="#path-3"></use>
                </g>
                <g id="形状结合" transform="translate(3.265306, 18.306557)">
                    <mask id="mask-6" fill="white">
                        <use xlink:href="#path-5"></use>
                    </mask>
                    <g id="蒙版"></g>
                    <path d="M9.12896273,0.0301919652 L24.1239628,-17.6022269 C24.5039609,-18.0490615 25.060958,-18.3065567 25.647524,-18.3065567 L40.624114,-18.3065567 L40.624114,-18.3065567 L40.624114,44.6837458 L25.5908398,44.6837458 C25.0371818,44.6837458 24.508295,44.4542356 24.1301138,44.0498643 L9.12896273,28.0098422 L9.12896273,28.0098422 C7.81598551,25.2589471 7.1594969,20.5839283 7.1594969,13.9847859 C7.1594969,7.38564349 7.81598551,2.73411218 9.12896273,0.0301919652 Z" fill="url(#linearGradient-7)" mask="url(#mask-6)"></path>
                </g>
                <path d="M13.4085975,18.3367486 L28.4035975,0.704329779 C28.7835956,0.25749517 29.3405927,2.03787941e-15 29.9271587,0 L41.1984368,0 L41.1984368,0 L41.1984368,62.9903025 L29.8704745,62.9903025 C29.3168166,62.9903025 28.7879298,62.7607923 28.4097486,62.356421 L13.4085975,46.3163989 L13.4085975,46.3163989 C12.0956203,43.5655037 11.4391317,38.890485 11.4391317,32.2913426 C11.4391317,25.6922002 12.0956203,21.0406688 13.4085975,18.3367486 Z" id="形状结合" fill="url(#linearGradient-8)"></path>
                <path d="M41.1984368,62.9903025 L41.0945559,62.9860831 C37.5628358,62.707956 34.7174897,48.7155001 34.7174897,31.4951513 L34.7183584,30.9743213 C34.7756199,13.8202524 37.6564196,0 41.2017856,0 L41.1984368,0 L43.0510928,0 L43.0510583,1.2993675 C45.7312637,5.16598159 47.6860814,17.2217484 47.6860814,31.4951513 C47.6860814,45.7685541 45.7312637,57.8243209 43.0510583,61.690935 L43.0510928,62.9903025 L41.1984368,62.9903025 Z" id="形状结合" fill="url(#linearGradient-9)"></path>
                <path d="M43.0510928,62.9903025 C46.6322705,62.9903025 49.5353886,48.889443 49.5353886,31.4951513 C49.5353886,14.1008595 46.6322705,0 43.0510928,0 C39.4699151,0 36.5667969,14.1008595 36.5667969,31.4951513 C36.5667969,48.889443 39.4699151,62.9903025 43.0510928,62.9903025 Z" id="椭圆形" fill="url(#linearGradient-10)"></path>
                <g id="椭圆形" transform="translate(35.640469, 0.000000)">
                    <mask id="mask-12" fill="white">
                        <use xlink:href="#path-11"></use>
                    </mask>
                    <g id="蒙版"></g>
                    <g mask="url(#mask-12)">
                        <use fill="url(#radialGradient-13)" fill-rule="evenodd" xlink:href="#path-14"></use>
                        <use fill="black" fill-opacity="1" filter="url(#filter-15)" xlink:href="#path-14"></use>
                    </g>
                </g>
            </g>
            <g id="路径" fill-rule="nonzero">
                <use fill="url(#linearGradient-16)" xlink:href="#path-17"></use>
                <use fill="black" fill-opacity="1" filter="url(#filter-18)" xlink:href="#path-17"></use>
            </g>
            <g id="路径" fill-rule="nonzero">
                <use fill="url(#linearGradient-19)" xlink:href="#path-20"></use>
                <use fill="black" fill-opacity="1" filter="url(#filter-21)" xlink:href="#path-20"></use>
            </g>
            <g id="路径" fill-rule="nonzero">
                <use fill="url(#linearGradient-22)" xlink:href="#path-23"></use>
                <use fill="black" fill-opacity="1" filter="url(#filter-24)" xlink:href="#path-23"></use>
            </g>
        </g>
    </g>
</svg>