<svg xmlns="http://www.w3.org/2000/svg" xmlns:xlink="http://www.w3.org/1999/xlink" width="32" height="32" viewBox="0 0 32 32">
  <defs>
    <path id="sync_mouse_32px-b" d="M17.6644234,15.0878187 L13.0360881,19.7345204 C10.0539026,22.7285399 5.21882463,22.7285399 2.23663913,19.7345204 C-0.745546375,16.7405008 -0.745546375,11.886236 2.23663913,8.89221638 L6.86497442,4.24551468 C9.84715992,1.25149511 14.6822379,1.25149511 17.6644234,4.24551468 C20.6466089,7.23953425 20.6466089,12.0937991 17.6644234,15.0878187 Z"/>
    <filter id="sync_mouse_32px-a" width="120.1%" height="120%" x="-5%" y="-5%" filterUnits="objectBoundingBox">
      <feOffset dx="2" dy="2" in="SourceAlpha" result="shadowOffsetOuter1"/>
      <feComposite in="shadowOffsetOuter1" in2="SourceAlpha" operator="out" result="shadowOffsetOuter1"/>
      <feColorMatrix in="shadowOffsetOuter1" values="0 0 0 0 0   0 0 0 0 0.41176792   0 0 0 0 1  0 0 0 0.2 0"/>
    </filter>
  </defs>
  <g fill="none" fill-rule="evenodd" transform="translate(4 5)">
    <use fill="#000" filter="url(#sync_mouse_32px-a)" xlink:href="#sync_mouse_32px-b"/>
    <path fill="#E1DFB6" stroke="#4F89CA" stroke-linejoin="square" stroke-width="1.091" d="M17.2779658,14.7028886 C20.0481554,11.9217062 20.0481554,7.41162717 17.2779658,4.63044478 C14.508967,1.8504578 10.0204309,1.8504578 7.25143202,4.63044478 L2.62309673,9.27714648 C-0.147092849,12.0583289 -0.147092849,16.5684079 2.62309673,19.3495903 C5.39209561,22.1295772 9.88063166,22.1295772 12.6496305,19.3495903 L17.2779658,14.7028886 Z"/>
    <path fill="#E1DFB6" stroke="#4F89CA" stroke-width="1.091" d="M10.3492118,5.58980644 L10.8968298,5.58872204 L10.3502962,5.04218846 L10.3492118,5.58980644 Z M10.325398,17.615774 L10.3243222,18.1590716 L10.8686956,17.6146982 L10.325398,17.615774 Z M10.32324,17.6157783 L9.77562198,17.6168627 L10.3221556,18.1633963 L10.32324,17.6157783 Z M10.3470537,5.58981071 L10.3481296,5.04651318 L9.80375621,5.59088655 L10.3470537,5.58981071 Z" transform="rotate(135 10.336 11.603)"/>
    <path fill="#4663FF" d="M12.7100897,7.02686984 L14.9027155,7.022528 C15.5040172,7.02133731 15.9924339,7.50782344 15.9936245,8.1091252 C15.9936274,8.1105625 15.9936274,8.1119998 15.9936245,8.11343709 L15.9936117,8.11991562 C15.992422,8.72072036 15.5056697,9.20747265 14.904865,9.20866236 L12.7122393,9.21300419 C12.1109375,9.21419489 11.6225209,8.72770875 11.6213302,8.126407 C11.6213273,8.1249697 11.6213273,8.1235324 11.6213302,8.1220951 L11.621343,8.11561658 C11.6225327,7.51481184 12.109285,7.02805955 12.7100897,7.02686984 Z" transform="rotate(135 13.807 8.118)"/>
    <path stroke="#4F89CA" stroke-linecap="round" stroke-width="1.091" d="M17.9075626,2.1095609 C17.9039591,3.93135022 19.5417677,4.83899813 22.8209885,4.83250462" transform="rotate(135 20.364 3.471)"/>
  </g>
</svg>
