<svg xmlns="http://www.w3.org/2000/svg" xmlns:xlink="http://www.w3.org/1999/xlink" width="84" height="84" viewBox="0 0 84 84">
  <defs>
    <filter id="nav_general-a" width="182.1%" height="182.1%" x="-41.1%" y="-41.1%" filterUnits="objectBoundingBox">
      <feOffset dy="4" in="SourceAlpha" result="shadowOffsetOuter1"/>
      <feGaussianBlur in="shadowOffsetOuter1" result="shadowBlurOuter1" stdDeviation="4"/>
      <feColorMatrix in="shadowBlurOuter1" result="shadowMatrixOuter1" values="0 0 0 0 0   0 0 0 0 0   0 0 0 0 0  0 0 0 0.2 0"/>
      <feMerge>
        <feMergeNode in="shadowMatrixOuter1"/>
        <feMergeNode in="SourceGraphic"/>
      </feMerge>
    </filter>
    <linearGradient id="nav_general-c" x1="50%" x2="50%" y1="98.643%" y2="-.015%">
      <stop offset="0%" stop-color="#474747"/>
      <stop offset="100%" stop-color="#6F6F6F"/>
    </linearGradient>
    <circle id="nav_general-b" cx="28" cy="28" r="28"/>
    <linearGradient id="nav_general-g" x1="50%" x2="50%" y1="0%" y2="100%">
      <stop offset="0%" stop-color="#F7F7F7"/>
      <stop offset="21.223%" stop-color="#E4E4E4"/>
      <stop offset="61.994%" stop-color="#BCBCBC"/>
      <stop offset="100%" stop-color="#EBEBEB"/>
    </linearGradient>
    <path id="nav_general-f" d="M20.9682269,0.0234712406 C20.323142,-0.00782374687 19.676858,-0.00782374687 19.0317731,0.0234712406 C19.0823727,1.06783653 18.9387274,2.08474377 18.6009571,3.07419295 C18.0544335,3.11939682 17.510308,3.19109951 16.970619,3.28894131 C16.388244,2.42047544 15.9863249,1.47539079 15.7649817,0.453567486 C15.1336858,0.590258236 14.5094642,0.757524549 13.8943554,0.954766903 C14.2135405,1.9504511 14.338121,2.96987633 14.267977,4.01304258 C13.7516693,4.19817461 13.2445942,4.4081268 12.7486702,4.64241955 C11.9613788,3.95428953 11.3286441,3.14541603 10.8502261,2.21567912 C10.2758847,2.51112298 9.71617164,2.83426471 9.17312526,3.18390526 C9.73919325,4.06304261 10.1232466,5.01556131 10.3255251,6.04134146 C9.87480497,6.35381172 9.43931271,6.68786472 9.02084685,7.04242134 C8.08235624,6.58162963 7.26173151,5.96400327 6.55909256,5.18978207 C6.08079449,5.62383515 5.62383936,6.08078993 5.18978596,6.55908765 C5.96400774,7.26172607 6.58151466,8.08235018 7.04242662,9.02096 C6.68786974,9.43942554 6.35381648,9.87479757 6.04134599,10.3255173 C5.01556507,10.1233589 4.06304566,9.73918596 3.18390765,9.17311839 C2.83426684,9.71628426 2.51112487,10.275877 2.21568078,10.850218 C3.14541838,11.3286356 3.9542925,11.9613699 4.64230312,12.7486606 C4.40813011,13.2447042 4.19817776,13.751659 4.01304558,14.2679663 C2.96987855,14.3381103 1.95033266,14.2135298 0.954767618,13.8943449 C0.757525116,14.5094533 0.590258678,15.1336744 0.453447922,15.7649698 C1.4753919,15.9863129 2.42047725,16.3882317 3.28882387,16.9706062 C3.190982,17.5102949 3.11939916,18.05442 3.07419526,18.6010631 C2.08474533,18.9387132 1.06771743,19.0823584 0.0234712582,19.0317589 C-0.00782375273,19.6768433 -0.00782375273,20.3231267 0.0234712582,20.9683311 C1.06771743,20.9176116 2.08474533,21.0612568 3.07419526,21.3990268 C3.11939916,21.94555 3.190982,22.4896751 3.28882387,23.0293638 C2.42047725,23.6117383 1.4753919,24.0136571 0.453447922,24.2350002 C0.590258678,24.8662956 0.757525116,25.4905167 0.954767618,26.1056251 C1.95033266,25.7864402 2.96987855,25.6618598 4.01304558,25.7320037 C4.19817776,26.248311 4.40813011,26.7553858 4.64230312,27.2513094 C3.9542925,28.0386001 3.14541838,28.6713344 2.21568078,29.1497521 C2.51112487,29.724093 2.83426684,30.2838057 3.18390765,30.8268516 C4.06304566,30.2607841 5.01556507,29.876731 6.04134599,29.6744527 C6.35381648,30.1251725 6.68786974,30.5606644 7.04242662,30.9791299 C6.58151466,31.9176198 5.96400774,32.738244 5.18978596,33.4408824 C5.62383936,33.9191801 6.08079449,34.3761349 6.55909256,34.810188 C7.26173151,34.0359668 8.08235624,33.4184603 9.02084685,32.9575487 C9.43931271,33.3121053 9.87480497,33.6461583 10.3255251,33.9586286 C10.1232466,34.9845286 9.73919325,35.9369274 9.17312526,36.8160648 C9.71617164,37.1657053 10.2758847,37.488847 10.8502261,37.7842909 C11.3286441,36.854554 11.9613788,36.0456805 12.7486702,35.3576704 C13.2445942,35.5918432 13.7516693,35.8017954 14.267977,35.9869274 C14.338121,37.0302136 14.2135405,38.0496388 13.8943554,39.045323 C14.5094642,39.2424455 15.1336858,39.4097118 15.7649817,39.5465224 C15.9863249,38.5245792 16.388244,37.5794946 16.970619,36.7111486 C17.510308,36.8089904 18.0544335,36.8805732 18.6009571,36.9257771 C18.9387274,37.9152263 19.0823727,38.9322534 19.0317731,39.9766187 C19.676858,40.0077938 20.323142,40.0077938 20.9682269,39.9766187 C20.9176273,38.9322534 21.0612726,37.9152263 21.3990429,36.9257771 C21.9455665,36.8805732 22.489692,36.8089904 23.029381,36.7111486 C23.611756,37.5794946 24.0136751,38.5245792 24.2350183,39.5465224 C24.8663142,39.4097118 25.4905358,39.2424455 26.1056446,39.045323 C25.7864595,38.0496388 25.661879,37.0302136 25.732023,35.9869274 C26.2483307,35.8017954 26.7554058,35.5918432 27.2513298,35.3576704 C28.0386212,36.0456805 28.6713559,36.854554 29.1497739,37.7842909 C29.7241153,37.488847 30.2838284,37.1657053 30.8268747,36.8160648 C30.2608067,35.9369274 29.8767534,34.9845286 29.6744749,33.9586286 C30.125195,33.6461583 30.5606873,33.3121053 30.9791531,32.9575487 C31.9176438,33.4184603 32.7382685,34.0359668 33.4409074,34.810188 C33.9192055,34.3761349 34.3761606,33.9191801 34.810214,33.4408824 C34.0359923,32.738244 33.4184853,31.9176198 32.9575734,30.9791299 C33.3121303,30.5606644 33.6461835,30.1251725 33.958654,29.6744527 C34.9844349,29.876731 35.9369543,30.2607841 36.8160924,30.8268516 C37.1657332,30.2838057 37.4888751,29.724093 37.7843192,29.1497521 C36.8545816,28.6713344 36.0457075,28.0386001 35.3576969,27.2513094 C35.5918699,26.7553858 35.8018222,26.248311 35.9869544,25.7320037 C37.0301214,25.6618598 38.0496673,25.7864402 39.0452324,26.1056251 C39.2424749,25.4905167 39.4097413,24.8662956 39.5465521,24.2350002 C38.5246081,24.0136571 37.5795228,23.6117383 36.7111761,23.0293638 C36.809018,22.4896751 36.8806008,21.94555 36.9258047,21.3990268 C37.9152547,21.0612568 38.9322826,20.9176116 39.9765287,20.9683311 C40.0078238,20.3231267 40.0078238,19.6768433 39.9765287,19.0317589 C38.9322826,19.0823584 37.9152547,18.9387132 36.9258047,18.6010631 C36.8806008,18.05442 36.809018,17.5102949 36.7111761,16.9706062 C37.5795228,16.3882317 38.5246081,15.9863129 39.5465521,15.7649698 C39.4097413,15.1336744 39.2424749,14.5094533 39.0452324,13.8943449 C38.0496673,14.2135298 37.0301214,14.3381103 35.9869544,14.2679663 C35.8018222,13.751659 35.5918699,13.2447042 35.3576969,12.7486606 C36.0457075,11.9613699 36.8545816,11.3286356 37.7843192,10.850218 C37.4888751,10.275877 37.1657332,9.71628426 36.8160924,9.17311839 C35.9369543,9.73918596 34.9844349,10.1233589 33.958654,10.3255173 C33.6461835,9.87479757 33.3121303,9.43942554 32.9575734,9.02096 C33.4184853,8.08235018 34.0359923,7.26172607 34.810214,6.55908765 C34.3761606,6.08078993 33.9192055,5.62383515 33.4409074,5.18978207 C32.7382685,5.96400327 31.9176438,6.58162963 30.9791531,7.04242134 C30.5606873,6.68786472 30.125195,6.35381172 29.6744749,6.04134146 C29.8767534,5.01556131 30.2608067,4.06304261 30.8268747,3.18390526 C30.2838284,2.83426471 29.7241153,2.51112298 29.1497739,2.21567912 C28.6713559,3.14541603 28.0386212,3.95428953 27.2513298,4.64241955 C26.7554058,4.4081268 26.2483307,4.19817461 25.732023,4.01304258 C25.661879,2.96987633 25.7864595,1.9504511 26.1056446,0.954766903 C25.4905358,0.757524549 24.8663142,0.590258236 24.2350183,0.453567486 C24.0136751,1.47539079 23.611756,2.42047544 23.029381,3.28894131 C22.489692,3.19109951 21.9455665,3.11939682 21.3990429,3.07419295 C21.0612726,2.08474377 20.9176273,1.06783653 20.9682269,0.0234712406 Z M20,8 C26.6229881,8 32,13.3770119 32,20 C32,26.6229881 26.6229881,32 20,32 C13.3770119,32 8,26.6229881 8,20 C8,13.3770119 13.3770119,8 20,8 Z"/>
    <filter id="nav_general-e" width="110%" height="110%" x="-5%" y="-2.5%" filterUnits="objectBoundingBox">
      <feOffset dy="1" in="SourceAlpha" result="shadowOffsetOuter1"/>
      <feGaussianBlur in="shadowOffsetOuter1" result="shadowBlurOuter1" stdDeviation=".5"/>
      <feComposite in="shadowBlurOuter1" in2="SourceAlpha" operator="out" result="shadowBlurOuter1"/>
      <feColorMatrix in="shadowBlurOuter1" values="0 0 0 0 0   0 0 0 0 0   0 0 0 0 0  0 0 0 0.1 0"/>
    </filter>
  </defs>
  <g fill="none" fill-rule="evenodd" filter="url(#nav_general-a)" transform="translate(14 14)">
    <mask id="nav_general-d" fill="#fff">
      <use xlink:href="#nav_general-b"/>
    </mask>
    <use fill="url(#nav_general-c)" fill-rule="nonzero" xlink:href="#nav_general-b"/>
    <g mask="url(#nav_general-d)">
      <g transform="translate(8 8)">
        <use fill="#000" filter="url(#nav_general-e)" xlink:href="#nav_general-f"/>
        <path fill="url(#nav_general-g)" stroke="#FFF" stroke-linejoin="square" stroke-opacity=".2" d="M20.4586628,0.505399684 C20.1529323,0.498200105 19.8470677,0.498200105 19.5413372,0.505399684 C19.5333734,1.43618935 19.3775403,2.3469744 19.0741453,3.23572616 L18.9683941,3.54550902 L18.6421722,3.57249137 C18.1119738,3.61634496 17.5838569,3.68591597 17.0598115,3.78092169 L16.7376801,3.83932183 L16.5553452,3.56741518 C16.0322391,2.78733401 15.6460126,1.94789589 15.3974766,1.05093241 C15.1002902,1.12309425 14.8048206,1.20226208 14.5112965,1.28837327 C14.7445739,2.18960955 14.8298487,3.10969175 14.7668505,4.04658754 L14.744888,4.3732083 L14.4367405,4.48370052 C13.9349354,4.66363235 13.4428499,4.86745457 12.9622527,5.09450641 L12.6661742,5.23438475 L12.419621,5.01888555 C11.7125416,4.4008646 11.1222519,3.69000468 10.6499019,2.88780906 C10.3815204,3.03443862 10.1166141,3.18737502 9.85541183,3.34648557 C10.3139118,4.15648753 10.6343755,5.02316887 10.8160783,5.94460693 L10.8794072,6.26575619 L10.610397,6.45225261 C10.1724039,6.75589965 9.74974903,7.08017846 9.34406766,7.42390307 L9.09431635,7.63551169 L8.80048015,7.49124037 C7.95760294,7.07739411 7.20337978,6.54349833 6.53954586,5.89088597 C6.31826563,6.10198708 6.10198787,6.31826473 5.89088665,6.53954485 C6.5434018,7.20330646 7.07724623,7.95751707 7.49123397,8.80056951 L7.63552932,9.09441529 L7.42390811,9.34418109 C7.07993299,9.75015751 6.75568234,10.1727168 6.45225694,10.6103896 L6.26578342,10.8793663 L5.9446668,10.8160814 C5.02336227,10.634513 4.15664992,10.3140229 3.34650772,9.8554229 C3.18733409,10.116737 3.03439806,10.3816271 2.88781833,10.6498982 C3.6900489,11.1222706 4.40089462,11.7125775 5.01879729,12.4196437 L5.234187,12.6661142 L5.094452,12.9621118 C4.86721413,13.4434648 4.66342861,13.935502 4.48370345,14.43673 L4.37321112,14.7448774 L4.0465905,14.7668398 C3.10968769,14.8298384 2.18953081,14.7445608 1.28836916,14.5112949 C1.20227487,14.8047484 1.12309299,15.1002156 1.05088227,15.3974709 C1.94791624,15.6460091 2.7873414,16.0322387 3.56732398,16.5553501 L3.83920045,16.7376896 L3.78080422,17.0597989 C3.68590434,17.5832598 3.61639679,18.1113654 3.57249441,18.6422693 L3.54551417,18.9685368 L3.23567688,19.0742689 C2.34692419,19.377556 1.43608201,19.533358 0.505399725,19.5413231 C0.498199922,19.8470654 0.498200087,20.1529493 0.505400245,20.4587202 C1.43610042,20.4666151 2.34696068,20.6224387 3.23572824,20.9258386 L3.54551127,21.0315897 L3.57249367,21.3578117 C3.61639938,21.8886394 3.68591108,22.4167474 3.78080422,22.9401711 L3.83920045,23.2622804 L3.56732398,23.44462 C2.7873414,23.9677313 1.94791624,24.3539609 1.05088227,24.6024991 C1.12309299,24.8997544 1.20227487,25.1952217 1.28836916,25.4886751 C2.18953081,25.2554093 3.10968769,25.1701316 4.0465905,25.2331302 L4.37321112,25.2550926 L4.48370345,25.56324 C4.66354729,26.064799 4.86735836,26.5569271 5.09443207,27.037816 L5.23420893,27.3338307 L5.01879729,27.5803263 C4.40089275,28.2873947 3.69004458,28.877703 2.88781103,29.3500762 C3.03444068,29.6184574 3.18737718,29.8833635 3.34648783,30.1445655 C4.15649053,29.6860657 5.02317268,29.3656021 5.9446116,29.1838995 L6.26576053,29.1205707 L6.45225694,29.3895805 C6.75590419,29.8275732 7.08018325,30.2502278 7.42390811,30.6559088 L7.63554099,30.9056884 L7.49122283,31.1995431 C7.07722166,32.0425152 6.54337267,32.796696 5.89088686,33.4604254 C6.10198918,33.6817067 6.3182681,33.8979854 6.53954954,34.1090876 C7.20327957,33.456602 7.95746106,32.9227533 8.80043395,32.5087523 L9.0942883,32.3644346 L9.34406766,32.576067 C9.74974903,32.9197916 10.1724039,33.2440704 10.610397,33.5477174 L10.8794007,33.7342093 L10.8160804,34.0553522 C10.6343904,34.9768332 10.3139451,35.8434534 9.85541483,36.6534863 C10.1166162,36.8125962 10.3815215,36.965532 10.6499021,37.1121611 C11.1222756,36.3099279 11.7125845,35.5990802 12.4196535,34.981176 L12.6661489,34.7657648 L12.9621633,34.9055413 C13.4430526,35.1326149 13.9351811,35.3364258 14.4367405,35.5162695 L14.7448906,35.6267627 L14.7668507,35.9533863 C14.8298465,36.8903526 14.7445795,37.8104281 14.511313,38.7116528 C14.8048336,38.7977344 15.1002995,38.876901 15.3974823,38.9490902 C15.6460207,38.0520561 16.0322508,37.2126308 16.555363,36.4326482 L16.7377025,36.1607722 L17.0598115,36.2191682 C17.5832356,36.3140613 18.111344,36.383573 18.6421722,36.4274787 L18.9683941,36.454461 L19.0741453,36.7642439 C19.3775288,37.6529619 19.5333664,38.5638119 19.5413367,39.4946215 C19.8470675,39.5017928 20.1529325,39.5017928 20.4586633,39.4946215 C20.4666336,38.5638119 20.6224712,37.6529619 20.9258547,36.7642439 L21.0316059,36.454461 L21.3578278,36.4274787 C21.888656,36.383573 22.4167644,36.3140613 22.9401885,36.2191682 L23.2622975,36.1607722 L23.444637,36.4326482 C23.9677492,37.2126308 24.3539793,38.0520561 24.6025177,38.9490902 C24.8997005,38.876901 25.1951664,38.7977344 25.488687,38.7116528 C25.2554205,37.8104281 25.1701535,36.8903526 25.2331493,35.9533863 L25.2551094,35.6267627 L25.5632595,35.5162695 C26.0648189,35.3364258 26.5569474,35.1326149 27.0378367,34.9055413 L27.3338511,34.7657648 L27.5803465,34.981176 C28.2874155,35.5990802 28.8777244,36.3099279 29.3500979,37.1121611 C29.6184785,36.965532 29.8833838,36.8125962 30.1445852,36.6534863 C29.6860549,35.8434534 29.3656096,34.9768332 29.1839196,34.0553522 L29.1205993,33.7342093 L29.389603,33.5477174 C29.8275961,33.2440704 30.250251,32.9197916 30.6559323,32.576067 L30.9057117,32.3644346 L31.1995661,32.5087523 C32.0425389,32.9227533 32.7967204,33.456602 33.4604505,34.1090876 C33.6817319,33.8979854 33.8980108,33.6817067 34.1091131,33.4604254 C33.4566273,32.796696 32.9227783,32.0425152 32.5087772,31.1995431 L32.364459,30.9056884 L32.5760919,30.6559088 C32.9198168,30.2502278 33.2440958,29.8275732 33.5477431,29.3895805 L33.7342395,29.1205707 L34.0553884,29.1838995 C34.9768273,29.3656021 35.8435095,29.6860657 36.6535122,30.1445655 C36.8126228,29.8833635 36.9655593,29.6184574 37.112189,29.3500762 C36.3099554,28.877703 35.5991073,28.2873947 34.9812027,27.5803263 L34.7657911,27.3338307 L34.9055679,27.037816 C35.1326416,26.5569271 35.3364527,26.064799 35.5162965,25.56324 L35.6267889,25.2550926 L35.9534095,25.2331302 C36.8903123,25.1701316 37.8104692,25.2554093 38.7116308,25.4886751 C38.7977251,25.1952217 38.876907,24.8997544 38.9491177,24.6024991 C38.0520838,24.3539609 37.2126586,23.9677313 36.432676,23.44462 L36.1607996,23.2622804 L36.2191958,22.9401711 C36.3140889,22.4167474 36.3836006,21.8886394 36.4275063,21.3578117 L36.4544887,21.0315897 L36.7642718,20.9258386 C37.6530393,20.6224387 38.5638996,20.4666151 39.4945998,20.4587202 C39.5017999,20.1529493 39.5018001,19.8470654 39.4946003,19.5413231 C38.563918,19.533358 37.6530758,19.377556 36.7643231,19.0742689 L36.4544858,18.9685368 L36.4275056,18.6422693 C36.3836032,18.1113654 36.3140957,17.5832598 36.2191958,17.0597989 L36.1607996,16.7376896 L36.432676,16.5553501 C37.2126586,16.0322387 38.0520838,15.6460091 38.9491177,15.3974709 C38.876907,15.1002156 38.7977251,14.8047484 38.7116308,14.5112949 C37.8104692,14.7445608 36.8903123,14.8298384 35.9534095,14.7668398 L35.6267889,14.7448774 L35.5162965,14.43673 C35.3365714,13.935502 35.1327859,13.4434648 34.905548,12.9621118 L34.765813,12.6661142 L34.9812027,12.4196437 C35.5991054,11.7125775 36.3099511,11.1222706 37.1121817,10.6498982 C36.9656019,10.3816271 36.8126659,10.116737 36.6534923,9.8554229 C35.8433501,10.3140229 34.9766377,10.634513 34.0553332,10.8160814 L33.7342166,10.8793663 L33.5477431,10.6103896 C33.2443177,10.1727168 32.920067,9.75015751 32.5760919,9.34418109 L32.3644707,9.09441529 L32.508766,8.80056951 C32.9227538,7.95751707 33.4565982,7.20330646 34.1091134,6.53954485 C33.8980121,6.31826473 33.6817344,6.10198708 33.4604541,5.89088597 C32.7966202,6.54349833 32.0423971,7.07739411 31.1995199,7.49124037 L30.9056837,7.63551169 L30.6559323,7.42390307 C30.250251,7.08017846 29.8275961,6.75589965 29.389603,6.45225261 L29.1205928,6.26575619 L29.1839217,5.94460693 C29.3656245,5.02316887 29.6860882,4.15648753 30.1445882,3.34648557 C29.8833859,3.18737502 29.6184796,3.03443862 29.3500981,2.88780906 C28.8777481,3.69000468 28.2874584,4.4008646 27.580379,5.01888555 L27.3338258,5.23438475 L27.0377473,5.09450641 C26.5571501,4.86745457 26.0650646,4.66363235 25.5632595,4.48370052 L25.255112,4.3732083 L25.2331495,4.04658754 C25.1701513,3.10969175 25.2554261,2.18960955 25.4887035,1.28837327 C25.1951794,1.20226208 24.8997098,1.12309425 24.6025234,1.05093241 C24.3539874,1.94789589 23.9677609,2.78733401 23.4446548,3.56741518 L23.2623199,3.83932183 L22.9401885,3.78092169 C22.4161431,3.68591597 21.8880262,3.61634496 21.3578278,3.57249137 L21.0316059,3.54550902 L20.9258547,3.23572616 C20.6224597,2.3469744 20.4666266,1.43618935 20.4586628,0.505399685 Z M20,7.5 C26.8991305,7.5 32.5,13.1008695 32.5,20 C32.5,26.8991305 26.8991305,32.5 20,32.5 C13.1008695,32.5 7.5,26.8991305 7.5,20 C7.5,13.1008695 13.1008695,7.5 20,7.5 Z"/>
        <path fill="#B4B4B4" d="M40.5712,32.036675 C40.0684,31.987775 39.5622,31.987775 39.0594,32.036675 C39.1034,32.489375 38.9922,32.900175 38.7257,33.268775 C38.3026,33.339275 37.8873,33.450475 37.4857,33.601075 C37.0706,33.415075 36.7688,33.114975 36.5806,32.700875 C36.1208,32.909875 35.6823,33.163075 35.2714,33.456675 C35.5359,33.826775 35.6449,34.238175 35.5984,34.690675 C35.2672,34.963175 34.9632,35.267175 34.6907,35.598375 C34.2382,35.644875 33.8268,35.535875 33.4567,35.271375 C33.1631,35.682275 32.9099,36.120775 32.7009,36.580575 C33.115,36.768875 33.4151,37.070575 33.6011,37.485675 C33.4505,37.887275 33.3392,38.302575 33.2688,38.725675 C32.9002,38.992175 32.4894,39.103475 32.0366,39.059475 C31.9878,39.562175 31.9878,40.068375 32.0366,40.571175 C32.4894,40.527175 32.9002,40.638375 33.2688,40.904875 C33.3392,41.327975 33.4505,41.743275 33.6011,42.144875 C33.4151,42.559975 33.115,42.861775 32.7009,43.050075 C32.9099,43.509775 33.1631,43.948275 33.4567,44.359175 C33.8268,44.094675 34.2382,43.985675 34.6907,44.032175 C34.9632,44.363375 35.2672,44.667375 35.5984,44.939875 C35.6449,45.392375 35.5359,45.803775 35.2714,46.173875 C35.6823,46.467575 36.1208,46.720675 36.5806,46.929675 C36.7688,46.515575 37.0706,46.215575 37.4857,46.029475 C37.8873,46.180075 38.3026,46.291375 38.7257,46.361775 C38.9922,46.730475 39.1034,47.141175 39.0594,47.593975 C39.5622,47.642775 40.0684,47.642775 40.5712,47.593975 C40.5272,47.141175 40.6384,46.730475 40.9049,46.361775 C41.328,46.291375 41.7433,46.180075 42.1449,46.029475 C42.56,46.215575 42.8618,46.515575 43.05,46.929675 C43.5098,46.720675 43.9483,46.467575 44.3592,46.173875 C44.0947,45.803775 43.9857,45.392375 44.0322,44.939875 C44.3634,44.667375 44.6674,44.363375 44.9399,44.032175 C45.3924,43.985675 45.8038,44.094675 46.1739,44.359175 C46.4675,43.948275 46.7207,43.509775 46.9297,43.050075 C46.5156,42.861775 46.2155,42.559975 46.0295,42.144875 C46.1801,41.743275 46.2914,41.327975 46.3618,40.904875 C46.7304,40.638375 47.1412,40.527175 47.594,40.571175 C47.6428,40.068375 47.6428,39.562175 47.594,39.059475 C47.1412,39.103475 46.7304,38.992175 46.3618,38.725675 C46.2914,38.302575 46.1801,37.887275 46.0295,37.485675 C46.2155,37.070575 46.5156,36.768875 46.9297,36.580575 C46.7207,36.120775 46.4675,35.682275 46.1739,35.271375 C45.8038,35.535875 45.3924,35.644875 44.9399,35.598375 C44.6674,35.267175 44.3634,34.963175 44.0322,34.690675 C43.9857,34.238175 44.0947,33.826775 44.3592,33.456675 C43.9483,33.163075 43.5098,32.909875 43.05,32.700875 C42.8618,33.114975 42.56,33.415075 42.1449,33.601075 C41.7433,33.450475 41.328,33.339275 40.9049,33.268775 C40.6384,32.900175 40.5272,32.489375 40.5712,32.036675 Z M39.8153,35.032475 C42.455,35.032475 44.5981,37.175575 44.5981,39.815275 C44.5981,42.454975 42.455,44.598075 39.8153,44.598075 C37.1756,44.598075 35.0325,42.454975 35.0325,39.815275 C35.0325,37.175575 37.1756,35.032475 39.8153,35.032475 Z"/>
      </g>
    </g>
  </g>
</svg>
