<svg xmlns="http://www.w3.org/2000/svg" xmlns:xlink="http://www.w3.org/1999/xlink" width="84" height="84" viewBox="0 0 84 84">
  <defs>
    <linearGradient id="dcc_nav_systeminfo_84px-c" x1="50%" x2="50%" y1="-6.477%" y2="98.38%">
      <stop offset="0%" stop-color="#4F4F4F"/>
      <stop offset="100%" stop-color="#393939"/>
    </linearGradient>
    <path id="dcc_nav_systeminfo_84px-b" d="M47.75,0 C52.3063492,-8.36987767e-16 56,3.69365081 56,8.25 L56,22.701 L55.8253777,22.7066714 C53.9816905,22.8063661 52.5174129,24.3329291 52.5174129,26.2014925 C52.5174129,28.1287841 54.0751803,29.6922397 56.0003075,29.7014516 L56,45.75 C56,50.3063492 52.3063492,54 47.75,54 L8.25,54 C3.69365081,54 5.57991845e-16,50.3063492 0,45.75 L0.00021794927,29.7014512 L0.0174129353,29.7014925 L0.0174129353,29.7014925 C1.95040956,29.7014925 3.51741294,28.1344892 3.51741294,26.2014925 C3.51741294,24.2684959 1.95040956,22.7014925 0.0174129353,22.7014925 L0,22.701 L0,8.25 C-5.57991845e-16,3.69365081 3.69365081,8.36987767e-16 8.25,0 L47.75,0 Z M5,48 C4.44771525,48 4,48.4477153 4,49 C4,49.5522847 4.44771525,50 5,50 C5.55228475,50 6,49.5522847 6,49 C6,48.4477153 5.55228475,48 5,48 Z M51,48 C50.4477153,48 50,48.4477153 50,49 C50,49.5522847 50.4477153,50 51,50 C51.5522847,50 52,49.5522847 52,49 C52,48.4477153 51.5522847,48 51,48 Z M5,4 C4.44771525,4 4,4.44771525 4,5 C4,5.55228475 4.44771525,6 5,6 C5.55228475,6 6,5.55228475 6,5 C6,4.44771525 5.55228475,4 5,4 Z M51,4 C50.4477153,4 50,4.44771525 50,5 C50,5.55228475 50.4477153,6 51,6 C51.5522847,6 52,5.55228475 52,5 C52,4.44771525 51.5522847,4 51,4 Z"/>
    <filter id="dcc_nav_systeminfo_84px-a" width="150%" height="151.9%" x="-25%" y="-18.5%" filterUnits="objectBoundingBox">
      <feOffset dy="4" in="SourceAlpha" result="shadowOffsetOuter1"/>
      <feGaussianBlur in="shadowOffsetOuter1" result="shadowBlurOuter1" stdDeviation="4"/>
      <feColorMatrix in="shadowBlurOuter1" values="0 0 0 0 0   0 0 0 0 0   0 0 0 0 0  0 0 0 0.418378497 0"/>
    </filter>
    <filter id="dcc_nav_systeminfo_84px-d" width="130.4%" height="131.5%" x="-15.2%" y="-8.3%" filterUnits="objectBoundingBox">
      <feOffset dy="-1" in="SourceAlpha" result="shadowOffsetInner1"/>
      <feComposite in="shadowOffsetInner1" in2="SourceAlpha" k2="-1" k3="1" operator="arithmetic" result="shadowInnerInner1"/>
      <feColorMatrix in="shadowInnerInner1" values="0 0 0 0 0   0 0 0 0 0   0 0 0 0 0  0 0 0 0.3 0"/>
    </filter>
    <linearGradient id="dcc_nav_systeminfo_84px-g" x1="25.196%" x2="90.265%" y1="-1.108%" y2="103.451%">
      <stop offset="0%" stop-color="#A8E8FF"/>
      <stop offset="100%" stop-color="#CDBEFF"/>
    </linearGradient>
    <path id="dcc_nav_systeminfo_84px-f" d="M12,6 L44,6 C47.3137085,6 50,8.6862915 50,12 L50,42 C50,45.3137085 47.3137085,48 44,48 L12,48 C8.6862915,48 6,45.3137085 6,42 L6,12 C6,8.6862915 8.6862915,6 12,6 Z"/>
    <filter id="dcc_nav_systeminfo_84px-e" width="109.1%" height="109.5%" x="-4.5%" y="-2.4%" filterUnits="objectBoundingBox">
      <feOffset dy="1" in="SourceAlpha" result="shadowOffsetOuter1"/>
      <feGaussianBlur in="shadowOffsetOuter1" result="shadowBlurOuter1" stdDeviation=".5"/>
      <feColorMatrix in="shadowBlurOuter1" values="0 0 0 0 0   0 0 0 0 0   0 0 0 0 0  0 0 0 0.25 0"/>
    </filter>
    <filter id="dcc_nav_systeminfo_84px-h" width="106.8%" height="107.1%" x="-3.4%" y="-1.2%" filterUnits="objectBoundingBox">
      <feOffset dy="-1" in="SourceAlpha" result="shadowOffsetInner1"/>
      <feComposite in="shadowOffsetInner1" in2="SourceAlpha" k2="-1" k3="1" operator="arithmetic" result="shadowInnerInner1"/>
      <feColorMatrix in="shadowInnerInner1" result="shadowMatrixInner1" values="0 0 0 0 0   0 0 0 0 0   0 0 0 0 0  0 0 0 0.15 0"/>
      <feOffset dy="1" in="SourceAlpha" result="shadowOffsetInner2"/>
      <feComposite in="shadowOffsetInner2" in2="SourceAlpha" k2="-1" k3="1" operator="arithmetic" result="shadowInnerInner2"/>
      <feColorMatrix in="shadowInnerInner2" result="shadowMatrixInner2" values="0 0 0 0 1   0 0 0 0 1   0 0 0 0 1  0 0 0 0.25 0"/>
      <feMerge>
        <feMergeNode in="shadowMatrixInner1"/>
        <feMergeNode in="shadowMatrixInner2"/>
      </feMerge>
    </filter>
    <linearGradient id="dcc_nav_systeminfo_84px-i" x1="42.882%" x2="54.302%" y1="40.223%" y2="60.441%">
      <stop offset="0%" stop-opacity=".25"/>
      <stop offset="100%" stop-opacity=".2"/>
    </linearGradient>
  </defs>
  <g fill="none" fill-rule="evenodd" transform="translate(14 15)">
    <use fill="#000" filter="url(#dcc_nav_systeminfo_84px-a)" xlink:href="#dcc_nav_systeminfo_84px-b"/>
    <use fill="url(#dcc_nav_systeminfo_84px-c)" xlink:href="#dcc_nav_systeminfo_84px-b"/>
    <use fill="#000" filter="url(#dcc_nav_systeminfo_84px-d)" xlink:href="#dcc_nav_systeminfo_84px-b"/>
    <use fill="#000" filter="url(#dcc_nav_systeminfo_84px-e)" xlink:href="#dcc_nav_systeminfo_84px-f"/>
    <use fill="url(#dcc_nav_systeminfo_84px-g)" xlink:href="#dcc_nav_systeminfo_84px-f"/>
    <use fill="#000" filter="url(#dcc_nav_systeminfo_84px-h)" xlink:href="#dcc_nav_systeminfo_84px-f"/>
    <path fill="#000" fill-opacity=".4" d="M23.5069797,21.9756752 C23.7506279,21.9756752 23.7520445,21.7680002 23.7518084,21.7470752 C23.7515723,21.6690002 23.7503918,21.1578002 23.7503918,21.0792752 C23.7503918,20.8542752 23.5107572,20.8506752 23.5107572,20.8506752 C23.5107572,20.8506752 19.7935132,20.8470752 19.4934387,20.8470752 C19.017711,20.8470752 19.0250299,20.4083252 19.0250299,20.4083252 C19.0188915,20.3797502 19.025266,19.9506752 19.0250299,19.9506752 L22.8043664,19.9506752 C24.115628,19.9506752 23.9829436,19.0506752 23.9829436,19.0506752 C23.9829436,18.4843502 23.9829436,18.9735002 23.9829436,18.3837752 C23.9829436,18.3837752 24.1109061,16.8006752 22.3340688,16.8006752 L19.298898,16.8006752 C17.4904242,16.8006752 17.6129566,18.3628502 17.6129566,18.3628502 C17.6129566,19.2086252 17.6134288,19.2860252 17.6134288,20.3988752 C17.6134288,21.9756752 19.2684419,21.9684752 19.2684419,21.9684752 M32.7379736,16.8008325 C33.0057274,16.8012312 33.02286,16.8023039 33.2162497,16.8030637 L34.7981113,16.8033761 C37.0447739,16.8011254 37.4418827,18.6249083 37.4442436,19.4952734 C37.4462976,20.3368439 37.0808054,21.8687552 35.0494274,21.9691343 L34.8332891,21.9743248 L32.7200621,21.9743248 L32.7200048,22.0822284 L32.7199905,22.1090046 L32.7191178,23.7679476 C32.7191178,23.9709935 32.5385397,23.9963742 32.4933952,23.9995468 L31.5324904,23.9995604 C31.4936401,23.9969228 31.3548893,23.9784596 31.3160391,23.8492173 L31.305864,23.774925 L31.305864,17.9195232 C31.305864,17.9195232 31.3053918,16.8006752 32.4834968,16.8006752 L32.7379736,16.8008325 Z M39.0975414,16.8006752 C39.2278649,16.8006752 39.3336346,16.9014752 39.3336346,17.0256752 L39.3336346,21.7506752 C39.3336346,21.8748752 39.2278649,21.9756752 39.0975414,21.9756752 L38.1531687,21.9756752 C38.0228453,21.9756752 37.9170755,21.8748752 37.9170755,21.7506752 L37.9170755,17.0256752 C37.9170755,16.9014752 38.0228453,16.8006752 38.1531687,16.8006752 L39.0975414,16.8006752 Z M42.4065504,16.8019666 L42.6390682,16.8022502 C44.3040351,16.80441 44.9481003,17.4233739 44.9969616,18.5761854 L45,18.7230612 L45,21.7503241 C45,21.8538126 44.9267127,21.9408966 44.826865,21.9671802 L44.7641429,21.975299 L43.8202424,21.975749 C43.711246,21.9759365 43.6196288,21.9058193 43.592254,21.8103143 L43.5839131,21.7503241 L43.5907598,18.8254248 C43.5907598,17.719223 42.676607,17.9273499 42.6371795,17.9273499 L41.9715425,17.9278395 C41.64976,17.9282566 41.3727536,17.9288233 41.2675231,17.92905 L41.2223161,17.9291497 L41.2291628,21.7431249 C41.2291628,21.7431249 41.2386065,22.0144447 40.9132701,21.9703496 C40.682371,21.9710245 40.3194958,21.9721494 40.0885966,21.9730493 C39.9012272,21.9958843 39.8253859,21.8835058 39.8093533,21.7866294 L39.8059931,21.7464995 L39.8059931,16.8015753 L42.4065504,16.8019666 Z M26.1462242,16.8006752 L29.1813951,16.8006752 C30.8924235,16.8006752 30.8371356,18.2686802 30.8306931,18.3774213 L30.8309442,19.0560847 C30.8389485,19.1270839 30.897382,19.8742665 29.8216991,19.9452658 L29.6516927,19.9506752 L25.8723561,19.9506752 C25.8725922,19.9506752 25.8662177,20.3797502 25.8723561,20.4083252 C25.8723561,20.4083252 25.8650372,20.8470752 26.340765,20.8470752 L27.4314497,20.8479333 C28.1724834,20.8485937 29.1199663,20.8494895 29.7328415,20.8500748 L30.3580835,20.8506752 C30.3580835,20.8506752 30.597718,20.8542752 30.597718,21.0792752 L30.5979576,21.23235 C30.5983155,21.4145574 30.598966,21.6913074 30.5991346,21.7470752 C30.5993412,21.7653846 30.5982825,21.9266744 30.4347893,21.9667108 L30.354306,21.9756752 L26.1157682,21.9684752 C26.1157682,21.9684752 24.590508,21.9751107 24.4684872,20.5805899 L24.460755,20.3988752 L24.4602828,18.3628502 C24.4602828,18.3628502 24.3463465,16.9102666 25.9597547,16.8065106 L26.1462242,16.8006752 L29.1813951,16.8006752 Z M16.9108677,15.0004396 C16.949973,15.0030772 17.0896349,15.0215404 17.1287403,15.1507827 L17.1389821,15.225075 L17.1388264,20.8638119 C17.1359236,20.9647676 17.0789329,21.9743248 15.9604161,21.9743248 L15.7059245,21.9741675 C15.4380716,21.9737688 15.4205567,21.9726961 15.2269069,21.9719363 L13.6450562,21.9716239 C11.3993145,21.9738746 11.0023685,20.1500917 11.0000086,19.2797266 C10.9979554,18.4383736 11.3632978,16.9064697 13.393843,16.8058875 L13.6098927,16.8006752 L15.7222958,16.8006752 L15.7229458,15.7286369 C15.7229689,15.6903399 15.7229913,15.6531047 15.7230128,15.6173744 L15.7232398,15.2320524 C15.7232398,15.0290065 15.9042859,15.0036258 15.9495474,15.0004532 L16.9108677,15.0004396 Z M14.8326727,17.931869 L13.9575165,17.9314069 C13.3040281,17.9358203 12.419687,18.0155739 12.4203363,19.2941314 C12.4208084,20.6886962 13.3677782,20.8505252 14.1402751,20.8525509 C14.5906228,20.8538638 14.8845393,20.8534918 15.1023654,20.8529538 L15.4819496,20.8521007 C15.7218202,20.8521007 15.7180427,20.6326526 15.7180427,20.6326526 L15.7180125,20.4951292 C15.7180061,20.4723623 15.7179987,20.4473185 15.7179904,20.4202163 L15.7170984,17.9337029 L15.4940915,17.9331586 C15.3291108,17.9327784 15.0893062,17.9322691 14.8326727,17.931869 Z M33.3363736,17.9220462 L32.9567723,17.9228993 C32.7470921,17.9228993 32.7235934,18.0910866 32.720995,18.1331334 L32.7209852,18.9310298 L32.7210233,19.0178364 L32.7218596,20.8415222 L32.8688799,20.8418549 C33.0073084,20.8421555 33.2302265,20.8426094 33.4796394,20.8430003 L34.4814414,20.8435931 C35.1349299,20.8391797 36.019271,20.7594261 36.0186217,19.4808686 C36.0181495,18.0863038 35.0711798,17.9246999 34.2986829,17.9224491 C33.8481974,17.9211362 33.5542236,17.9215082 33.3363736,17.9220462 Z M22.1073894,17.9296516 C22.3212898,17.9296516 22.5696599,18.1581027 22.5684794,18.3798016 C22.5676924,18.5259128 22.5655938,18.4685708 22.5649161,18.5423054 L22.5647019,18.6049517 C22.5647019,18.6049517 22.5647019,18.8295765 22.3363998,18.8295765 L19.2617796,18.8299933 C19.1148584,18.8300142 19.0271247,18.8300267 19.0271247,18.8300267 L19.0278819,18.5106454 C19.027992,18.4559428 19.0280691,18.4085791 19.0280691,18.3831777 C19.0280691,18.1547266 19.255899,17.9303268 19.5030886,17.9296516 L22.1073894,17.9296516 Z M28.9540486,17.9296516 L26.3497477,17.9296516 C26.1025582,17.9303268 25.8747283,18.1547266 25.8747283,18.3831777 C25.8747283,18.446681 25.8742464,18.6474495 25.8739711,18.7569904 L25.8737839,18.8300267 C25.8737839,18.8300267 25.9615175,18.8300142 26.1084387,18.8299933 L29.1830589,18.8295765 C29.411361,18.8295765 29.411361,18.6049517 29.411361,18.6049517 C29.411361,18.4374958 29.4141942,18.555135 29.4151385,18.3798016 C29.416319,18.1581027 29.167949,17.9296516 28.9540486,17.9296516 L28.9540486,17.9296516 Z M39.0975414,15 C39.2278649,15 39.3336346,15.1008336 39.3336346,15.225075 L39.3336346,16.1253751 C39.3336346,16.2496165 39.2278649,16.3504502 39.0975414,16.3504502 L38.1531687,16.3504502 C38.0228453,16.3504502 37.9170755,16.2496165 37.9170755,16.1253751 L37.9170755,15.225075 C37.9170755,15.1008336 38.0228453,15 38.1531687,15 L39.0975414,15 Z"/>
    <path fill="url(#dcc_nav_systeminfo_84px-i)" d="M28,39 L28,40 L12,40 L12,39 L28,39 Z M23,37 L23,38 L12,38 L12,37 L23,37 Z M40,35 L40,36 L12,36 L12,35 L40,35 Z M45,33 L45,34 L12,34 L12,33 L45,33 Z M45,31 L45,32 L12,32 L12,31 L45,31 Z M29,29 L29,30 L12,30 L12,29 L29,29 Z M18,27 L18,28 L12,28 L12,27 L18,27 Z"/>
  </g>
</svg>
