<svg xmlns="http://www.w3.org/2000/svg" width="84" height="84" viewBox="0 0 84 84">
  <defs>
    <filter id="dcc_nav_keyboard_84px-a" width="188.5%" height="188.5%" x="-44.2%" y="-44.2%" filterUnits="objectBoundingBox">
      <feOffset dy="4" in="SourceAlpha" result="shadowOffsetOuter1"/>
      <feGaussianBlur in="shadowOffsetOuter1" result="shadowBlurOuter1" stdDeviation="4"/>
      <feColorMatrix in="shadowBlurOuter1" result="shadowMatrixOuter1" values="0 0 0 0 0   0 0 0 0 0   0 0 0 0 0  0 0 0 0.2 0"/>
      <feMerge>
        <feMergeNode in="shadowMatrixOuter1"/>
        <feMergeNode in="SourceGraphic"/>
      </feMerge>
    </filter>
    <linearGradient id="dcc_nav_keyboard_84px-b" x1="50%" x2="50%" y1="98.643%" y2="-.015%">
      <stop offset="0%" stop-color="#676767"/>
      <stop offset="100%" stop-color="#959494"/>
    </linearGradient>
    <linearGradient id="dcc_nav_keyboard_84px-c" x1="50%" x2="50%" y1="0%" y2="100%">
      <stop offset="0%" stop-color="#FFF"/>
      <stop offset="100%" stop-color="#DDD"/>
    </linearGradient>
    <linearGradient id="dcc_nav_keyboard_84px-d" x1="50%" x2="50%" y1="0%" y2="100%">
      <stop offset="0%" stop-color="#FBFBFB"/>
      <stop offset="14.407%" stop-color="#F5F5F5"/>
      <stop offset="15.155%" stop-color="#E6E6E6"/>
      <stop offset="89.344%" stop-color="#CACACA"/>
      <stop offset="89.64%" stop-color="#B7B7B7"/>
      <stop offset="100%" stop-color="#BEBEBE"/>
    </linearGradient>
    <linearGradient id="dcc_nav_keyboard_84px-e" x1="50%" x2="50%" y1="0%" y2="100%">
      <stop offset="0%" stop-color="#FFF"/>
      <stop offset="100%" stop-color="#DDD"/>
    </linearGradient>
    <linearGradient id="dcc_nav_keyboard_84px-f" x1="50%" x2="50%" y1="0%" y2="100%">
      <stop offset="0%" stop-color="#FBFBFB"/>
      <stop offset="14.407%" stop-color="#F5F5F5"/>
      <stop offset="15.155%" stop-color="#E6E6E6"/>
      <stop offset="89.344%" stop-color="#CACACA"/>
      <stop offset="89.64%" stop-color="#B7B7B7"/>
      <stop offset="100%" stop-color="#BEBEBE"/>
    </linearGradient>
  </defs>
  <g fill="none" fill-rule="evenodd" filter="url(#dcc_nav_keyboard_84px-a)" transform="translate(16 16)">
    <path fill="url(#dcc_nav_keyboard_84px-b)" fill-rule="nonzero" d="M8,0 L44,0 C48.418278,-8.11624501e-16 52,3.581722 52,8 L52,44 C52,48.418278 48.418278,52 44,52 L8,52 C3.581722,52 5.41083001e-16,48.418278 0,44 L0,8 C-5.41083001e-16,3.581722 3.581722,8.11624501e-16 8,0 Z"/>
    <path fill="#4C4C4C" d="M9.76389349,32 C9.28885357,31.4692435 9,30.7683544 9,30 L9,23 C9,22.4877637 9.25463116,21.821097 9.76389349,21 L8,21 C6.34314575,21 5,19.6568542 5,18 L5,11 C5,9.34314575 6.34314575,8 8,8 L39,8 C40.6568542,8 42,9.34314575 42,11 L42,18 C42,18.7683544 41.7111464,19.4692435 41.2361065,20 L43,20 C44.6568542,20 46,21.3431458 46,23 L46,30 C46,31.5800082 44.778557,32.8747331 43.2284109,32.9914347 C43.708025,33.5232048 44,34.2275052 44,35 L44,42 C44,43.6568542 42.6568542,45 41,45 L9,45 C7.34314575,45 6,43.6568542 6,42 L6,35 C6,33.3431458 7.34314575,32 9,32 L9.76389349,32 L9.76389349,32 Z"/>
    <g transform="translate(6 9)">
      <rect width="10" height="10" x="26.5" y="24.5" fill="url(#dcc_nav_keyboard_84px-c)" stroke="url(#dcc_nav_keyboard_84px-d)" rx="2"/>
      <rect width="23" height="10" x="1.5" y="24.5" fill="url(#dcc_nav_keyboard_84px-e)" stroke="url(#dcc_nav_keyboard_84px-f)" rx="2"/>
      <rect width="10" height="10" x="28.5" y="12.5" fill="url(#dcc_nav_keyboard_84px-c)" stroke="url(#dcc_nav_keyboard_84px-d)" rx="2"/>
      <rect width="10" height="10" x="16.5" y="12.5" fill="url(#dcc_nav_keyboard_84px-c)" stroke="url(#dcc_nav_keyboard_84px-d)" rx="2"/>
      <rect width="10" height="10" x="4.5" y="12.5" fill="url(#dcc_nav_keyboard_84px-c)" stroke="url(#dcc_nav_keyboard_84px-d)" rx="2"/>
      <rect width="10" height="10" x="24.5" y=".5" fill="url(#dcc_nav_keyboard_84px-c)" stroke="url(#dcc_nav_keyboard_84px-d)" rx="2"/>
      <rect width="10" height="10" x="12.5" y=".5" fill="url(#dcc_nav_keyboard_84px-c)" stroke="url(#dcc_nav_keyboard_84px-d)" rx="2"/>
      <rect width="10" height="10" x=".5" y=".5" fill="url(#dcc_nav_keyboard_84px-c)" stroke="url(#dcc_nav_keyboard_84px-d)" rx="2"/>
    </g>
    <path fill="#4C4C4C" fill-rule="nonzero" d="M9.16064453 18L9.16064453 10.8417969 11.6264648 10.8417969C12.1831083 10.8417969 12.6079087 10.8759762 12.9008789 10.9443359 13.3110372 11.0387375 13.6609686 11.2096342 13.9506836 11.4570312 14.3282896 11.7760433 14.6106761 12.183754 14.7978516 12.6801758 14.985027 13.1765975 15.0786133 13.7438119 15.0786133 14.3818359 15.0786133 14.9254584 15.0151374 15.4072245 14.8881836 15.8271484 14.7612298 16.2470724 14.598471 16.5945624 14.3999023 16.8696289 14.2013336 17.1446954 13.9840507 17.3611646 13.7480469 17.519043 13.5120431 17.6769214 13.2272152 17.7965491 12.8935547 17.8779297 12.5598942 17.9593103 12.1765972 18 11.7436523 18L9.16064453 18zM10.1079102 17.1552734L11.6362305 17.1552734C12.108238 17.1552734 12.4785143 17.1113286 12.7470703 17.0234375 13.0156263 16.9355464 13.2296542 16.8118498 13.3891602 16.6523438 13.6137707 16.4277333 13.7887364 16.1258157 13.9140625 15.746582 14.0393886 15.3673484 14.1020508 14.9075548 14.1020508 14.3671875 14.1020508 13.6184858 13.9791679 13.0431335 13.7333984 12.6411133 13.487629 12.239093 13.1889666 11.9697272 12.8374023 11.8330078 12.5834948 11.7353511 12.1749703 11.6865234 11.6118164 11.6865234L10.1079102 11.6865234 10.1079102 17.1552734zM13.4365234 30L13.4365234 22.8417969 16.1367188 22.8417969C16.6119815 22.8417969 16.9749336 22.8645831 17.2255859 22.9101562 17.5771502 22.9687503 17.8717436 23.0802401 18.109375 23.2446289 18.3470064 23.4090177 18.538248 23.6393214 18.6831055 23.9355469 18.827963 24.2317723 18.9003906 24.5572899 18.9003906 24.9121094 18.9003906 25.5208364 18.7067077 26.0359679 18.3193359 26.4575195 17.9319642 26.8790711 17.2321014 27.0898438 16.2197266 27.0898438L14.3837891 27.0898438 14.3837891 30 13.4365234 30zM14.3837891 26.2451172L16.234375 26.2451172C16.8463572 26.2451172 17.2809232 26.131186 17.5380859 25.9033203 17.7952487 25.6754546 17.9238281 25.3548198 17.9238281 24.9414062 17.9238281 24.6419256 17.8481453 24.3855805 17.6967773 24.1723633 17.5454094 23.9591461 17.3460299 23.8183597 17.0986328 23.75 16.9391268 23.7076821 16.6445334 23.6865234 16.2148438 23.6865234L14.3837891 23.6865234 14.3837891 26.2451172zM8.94433594 39.7001953L9.83789062 39.6220703C9.88020854 39.980145 9.97867761 40.2739246 10.1333008 40.503418 10.287924 40.7329113 10.5279932 40.9184563 10.8535156 41.0600586 11.1790381 41.2016609 11.5452454 41.2724609 11.9521484 41.2724609 12.3134784 41.2724609 12.6324856 41.2187505 12.9091797 41.1113281 13.1858738 41.0039057 13.3917636 40.856609 13.5268555 40.6694336 13.6619473 40.4822582 13.7294922 40.2779959 13.7294922 40.0566406 13.7294922 39.8320301 13.6643887 39.6359058 13.5341797 39.4682617 13.4039707 39.3006177 13.1891291 39.1598313 12.8896484 39.0458984 12.6975902 38.9710283 12.2727897 38.8546557 11.6152344 38.6967773 10.957679 38.538899 10.4970716 38.3899747 10.2333984 38.25 9.89159985 38.0709626 9.63688235 37.8487969 9.46923828 37.5834961 9.30159421 37.3181953 9.21777344 37.0211605 9.21777344 36.6923828 9.21777344 36.3310529 9.32031147 35.9933284 9.52539062 35.6791992 9.73046978 35.36507 10.0299459 35.1266284 10.4238281 34.9638672 10.8177103 34.801106 11.2555314 34.7197266 11.7373047 34.7197266 12.2679063 34.7197266 12.7358378 34.8051749 13.1411133 34.9760742 13.5463887 35.1469735 13.8580718 35.3984358 14.0761719 35.7304688 14.2942719 36.0625017 14.4114583 36.4384745 14.4277344 36.8583984L13.5195312 36.9267578C13.4707029 36.4742816 13.3055027 36.1324881 13.0239258 35.9013672 12.7423489 35.6702462 12.3265001 35.5546875 11.7763672 35.5546875 11.2034477 35.5546875 10.7859714 35.6596669 10.5239258 35.8696289 10.2618802 36.0795909 10.1308594 36.3326808 10.1308594 36.6289062 10.1308594 36.886069 10.2236319 37.0976554 10.4091797 37.2636719 10.5914723 37.4296883 11.0675417 37.5997713 11.8374023 37.7739258 12.607263 37.9480803 13.1354152 38.1002598 13.421875 38.2304688 13.8385437 38.422527 14.1461579 38.6658514 14.3447266 38.9604492 14.5432953 39.255047 14.6425781 39.5943991 14.6425781 39.9785156 14.6425781 40.3593769 14.5335297 40.71826 14.3154297 41.0551758 14.0973296 41.3920915 13.784019 41.6541332 13.3754883 41.8413086 12.9669576 42.028484 12.507164 42.1220703 11.9960938 42.1220703 11.3483041 42.1220703 10.8055035 42.0276702 10.3676758 41.8388672 9.92984807 41.6500642 9.58642703 41.3660501 9.33740234 40.9868164 9.08837766 40.6075827 8.95735684 40.1787133 8.94433594 39.7001953zM15.8242188 42L15.8242188 34.8417969 16.703125 34.8417969 16.703125 37.4101562C17.1132833 36.9348935 17.6308563 36.6972656 18.2558594 36.6972656 18.6399759 36.6972656 18.9736314 36.7729485 19.2568359 36.9243164 19.5400405 37.0756844 19.7426752 37.2848294 19.8647461 37.5517578 19.986817 37.8186862 20.0478516 38.2060521 20.0478516 38.7138672L20.0478516 42 19.1689453 42 19.1689453 38.7138672C19.1689453 38.2744119 19.0737314 37.9545908 18.8833008 37.7543945 18.6928701 37.5541982 18.4235043 37.4541016 18.0751953 37.4541016 17.8147773 37.4541016 17.5698254 37.5216465 17.340332 37.6567383 17.1108387 37.7918301 16.9472661 37.9749337 16.8496094 38.2060547 16.7519526 38.4371756 16.703125 38.7561829 16.703125 39.1630859L16.703125 42 15.8242188 42zM21.390625 35.8525391L21.390625 34.8417969 22.2695312 34.8417969 22.2695312 35.8525391 21.390625 35.8525391zM21.390625 42L21.390625 36.8144531 22.2695312 36.8144531 22.2695312 42 21.390625 42zM23.8173828 42L23.8173828 37.4980469 23.0410156 37.4980469 23.0410156 36.8144531 23.8173828 36.8144531 23.8173828 36.2626953C23.8173828 35.9143863 23.848307 35.6555998 23.9101562 35.4863281 23.9947921 35.2584624 24.1437164 35.0737312 24.3569336 34.9321289 24.5701508 34.7905266 24.8688132 34.7197266 25.2529297 34.7197266 25.5003268 34.7197266 25.7737615 34.7490231 26.0732422 34.8076172L25.9414062 35.5742188C25.7591137 35.5416665 25.5865894 35.5253906 25.4238281 35.5253906 25.1568997 35.5253906 24.9680995 35.5823562 24.8574219 35.6962891 24.7467442 35.8102219 24.6914062 36.0234359 24.6914062 36.3359375L24.6914062 36.8144531 25.7021484 36.8144531 25.7021484 37.4980469 24.6914062 37.4980469 24.6914062 42 23.8173828 42zM28.3046875 41.2138672L28.4316406 41.9902344C28.1842436 42.042318 27.9628916 42.0683594 27.7675781 42.0683594 27.4485661 42.0683594 27.2011728 42.0179042 27.0253906 41.9169922 26.8496085 41.8160802 26.7259118 41.6834318 26.6542969 41.519043 26.5826819 41.3546541 26.546875 41.0087917 26.546875 40.4814453L26.546875 37.4980469 25.9023438 37.4980469 25.9023438 36.8144531 26.546875 36.8144531 26.546875 35.5302734 27.4208984 35.0029297 27.4208984 36.8144531 28.3046875 36.8144531 28.3046875 37.4980469 27.4208984 37.4980469 27.4208984 40.5302734C27.4208984 40.7809257 27.4363605 40.9420569 27.4672852 41.0136719 27.4982098 41.0852868 27.548665 41.1422524 27.6186523 41.1845703 27.6886397 41.2268882 27.7887363 41.2480469 27.9189453 41.2480469 28.0166021 41.2480469 28.1451815 41.2366538 28.3046875 41.2138672z"/>
    <polygon fill="#4C4C4C" points="41.041 38.5 39 40 39 39 35 39 35 38 39 38 39 37"/>
    <polygon fill="#4C4C4C" fill-rule="nonzero" points="21.456 18 21.456 10.842 26.632 10.842 26.632 11.687 22.403 11.687 22.403 13.879 26.363 13.879 26.363 14.719 22.403 14.719 22.403 17.155 26.798 17.155 26.798 18"/>
    <polygon fill="#4C4C4C" fill-rule="nonzero" points="27.543 30 27.543 22.842 28.491 22.842 28.491 30"/>
    <polygon fill="#4C4C4C" fill-rule="nonzero" points="33.456 18 33.456 10.842 38.632 10.842 38.632 11.687 34.403 11.687 34.403 13.879 38.363 13.879 38.363 14.719 34.403 14.719 34.403 17.155 38.798 17.155 38.798 18"/>
    <polygon fill="#4C4C4C" fill-rule="nonzero" points="37.151 30 37.151 22.842 38.123 22.842 41.882 28.462 41.882 22.842 42.791 22.842 42.791 30 41.819 30 38.059 24.375 38.059 30"/>
  </g>
</svg>
