<svg xmlns="http://www.w3.org/2000/svg" width="32" height="32" viewBox="0 0 32 32">
  <path fill="#29B2DC" fill-rule="evenodd" d="M9,6 L23,6 C25.209139,6 27,7.790861 27,10 L27,22 C27,24.209139 25.209139,26 23,26 L9,26 C6.790861,26 5,24.209139 5,22 L5,10 C5,7.790861 6.790861,6 9,6 Z M9,20.5332031 C9,20.8093455 9.22385763,21.0332031 9.5,21.0332031 L10.5,21.0332031 C10.7761424,21.0332031 11,20.8093455 11,20.5332031 L11,17.0332031 L14.5,17.0332031 C14.7761424,17.0332031 15,16.8093455 15,16.5332031 L15,15.5332031 C15,15.2570608 14.7761424,15.0332031 14.5,15.0332031 L11,15.0332031 L11,13.0332031 L14.5,13.0332031 C14.7761424,13.0332031 15,12.8093455 15,12.5332031 L15,11.5 C15,11.2238576 14.7761424,11 14.5,11 L9.5,11 C9.22385763,11 9,11.2238576 9,11.5 L9,20.5332031 Z M21,21 L22.5,21 C22.7761424,21 23,20.7761424 23,20.5 L23,15 C23,14.4477153 22.5522847,14 22,14 L18,14 C17.4477153,14 17,14.4477153 17,15 L17,20.5 C17,20.7761424 17.2238576,21 17.5,21 L19,21 L19,16 L21,16 L21,21 Z"/>
</svg>
