<svg xmlns="http://www.w3.org/2000/svg" xmlns:xlink="http://www.w3.org/1999/xlink" width="42" height="42" viewBox="0 0 42 42">
  <defs>
    <filter id="dcc_nav_datetime_42px-a" width="180%" height="180%" x="-40%" y="-40%" filterUnits="objectBoundingBox">
      <feOffset dy="2" in="SourceAlpha" result="shadowOffsetOuter1"/>
      <feGaussianBlur in="shadowOffsetOuter1" result="shadowBlurOuter1" stdDeviation="2"/>
      <feColorMatrix in="shadowBlurOuter1" result="shadowMatrixOuter1" values="0 0 0 0 0   0 0 0 0 0   0 0 0 0 0  0 0 0 0.2 0"/>
      <feMerge>
        <feMergeNode in="shadowMatrixOuter1"/>
        <feMergeNode in="SourceGraphic"/>
      </feMerge>
    </filter>
    <linearGradient id="dcc_nav_datetime_42px-b" x1="31.195%" x2="74.285%" y1="4.862%" y2="92.47%">
      <stop offset="0%" stop-color="#898989"/>
      <stop offset="100%" stop-color="#545454"/>
    </linearGradient>
    <path id="dcc_nav_datetime_42px-c" d="M9.1552725,1.171875 C7.32909375,1.9531275 5.7373125,3.022455 4.37988375,4.37988375 C3.02245425,5.7373125 1.953129,7.32909375 1.171875,9.1552725 C0.390621,10.981455 0,12.9296775 0,15 C0,17.0703225 0.390621,19.018545 1.171875,20.8447275 C1.953129,22.6709062 3.02245425,24.2626875 4.37988375,25.6201163 C5.7373125,26.9775458 7.32909375,28.046871 9.1552725,28.828125 C10.981455,29.609379 12.9296775,30 15,30 C17.0703225,30 19.018545,29.609379 20.8447275,28.828125 C22.6709063,28.046871 24.2626875,26.9775458 25.6201163,25.6201163 C26.977545,24.2626875 28.0468725,22.6709062 28.828125,20.8447275 C29.6093775,19.018545 30,17.0703225 30,15 C30,12.9296775 29.6093775,10.981455 28.828125,9.1552725 C28.0468725,7.32909375 26.977545,5.7373125 25.6201163,4.37988375 C24.2626875,3.022455 22.6709063,1.9531275 20.8447275,1.171875 C19.018545,0.3906225 17.0703225,0 15,0 C12.9296775,0 10.981455,0.3906225 9.1552725,1.171875 Z"/>
    <filter id="dcc_nav_datetime_42px-d" width="106.7%" height="106.7%" x="-3.3%" y="-3.3%" filterUnits="objectBoundingBox">
      <feGaussianBlur in="SourceAlpha" result="shadowBlurInner1" stdDeviation=".5"/>
      <feOffset dy="1" in="shadowBlurInner1" result="shadowOffsetInner1"/>
      <feComposite in="shadowOffsetInner1" in2="SourceAlpha" k2="-1" k3="1" operator="arithmetic" result="shadowInnerInner1"/>
      <feColorMatrix in="shadowInnerInner1" values="0 0 0 0 1   0 0 0 0 1   0 0 0 0 1  0 0 0 0.2 0"/>
    </filter>
    <path id="dcc_nav_datetime_42px-e" d="M15,2 C13.2057205,2 11.517261,2.3385395 9.9345695,3.015625 C8.35188125,3.6927105 6.9723375,4.619461 5.79589925,5.79589925 C4.61946035,6.9723375 3.6927118,8.35188125 3.015625,9.9345695 C2.3385382,11.517261 2,13.2057205 2,15 C2,16.7942795 2.3385382,18.482739 3.015625,20.0654305 C3.6927118,21.6481187 4.61946035,23.0276625 5.79589925,24.2041008 C6.9723375,25.3805397 8.35188125,26.3072882 9.9345695,26.984375 C11.517261,27.6614618 13.2057205,28 15,28 C16.7942795,28 18.482739,27.6614618 20.0654305,26.984375 C21.6481188,26.3072882 23.0276625,25.3805397 24.2041008,24.2041008 C25.380539,23.0276625 26.3072895,21.6481187 26.984375,20.0654305 C27.6614605,18.482739 28,16.7942795 28,15 C28,13.2057205 27.6614605,11.517261 26.984375,9.9345695 C26.3072895,8.35188125 25.380539,6.9723375 24.2041008,5.79589925 C23.0276625,4.619461 21.6481188,3.6927105 20.0654305,3.015625 C18.482739,2.3385395 16.7942795,2 15,2 L15,2 Z"/>
    <filter id="dcc_nav_datetime_42px-f" width="107.7%" height="107.7%" x="-3.8%" y="-3.8%" filterUnits="objectBoundingBox">
      <feGaussianBlur in="SourceAlpha" result="shadowBlurInner1" stdDeviation=".5"/>
      <feOffset dy="1" in="shadowBlurInner1" result="shadowOffsetInner1"/>
      <feComposite in="shadowOffsetInner1" in2="SourceAlpha" k2="-1" k3="1" operator="arithmetic" result="shadowInnerInner1"/>
      <feColorMatrix in="shadowInnerInner1" values="0 0 0 0 0   0 0 0 0 0   0 0 0 0 0  0 0 0 0.08 0"/>
    </filter>
    <path id="dcc_nav_datetime_42px-h" d="M11.0367876,12.4336365 L15.1107264,12.3309443 C15.76423,12.3144713 16.3073532,12.8308867 16.3238262,13.4843903 C16.324412,13.5076299 16.324313,13.5308817 16.3235294,13.5541154 C16.2999289,14.253866 15.7258343,14.8089246 15.0256858,14.8089246 L10.9870908,14.8089246 L10.9870908,14.8089246 L11.0367876,12.4336365 Z"/>
    <filter id="dcc_nav_datetime_42px-g" width="117.8%" height="178.4%" x="-9.3%" y="-18.7%" filterUnits="objectBoundingBox">
      <feOffset dy="1" in="SourceAlpha" result="shadowOffsetOuter1"/>
      <feColorMatrix in="shadowOffsetOuter1" values="0 0 0 0 0   0 0 0 0 0   0 0 0 0 0  0 0 0 0.0957987325 0"/>
    </filter>
    <path id="dcc_nav_datetime_42px-j" d="M14,15 L20.5,15 C21.0522847,15 21.5,15.4477153 21.5,16 C21.5,16.5522847 21.0522847,17 20.5,17 L14,17 L14,17 L14,15 Z"/>
    <filter id="dcc_nav_datetime_42px-i" width="113.3%" height="200%" x="-6.7%" y="-25%" filterUnits="objectBoundingBox">
      <feOffset dy="1" in="SourceAlpha" result="shadowOffsetOuter1"/>
      <feColorMatrix in="shadowOffsetOuter1" values="0 0 0 0 0   0 0 0 0 0   0 0 0 0 0  0 0 0 0.08 0"/>
    </filter>
  </defs>
  <g fill="none" fill-rule="evenodd" filter="url(#dcc_nav_datetime_42px-a)" transform="translate(6 6)">
    <use fill="url(#dcc_nav_datetime_42px-b)" xlink:href="#dcc_nav_datetime_42px-c"/>
    <use fill="#000" filter="url(#dcc_nav_datetime_42px-d)" xlink:href="#dcc_nav_datetime_42px-c"/>
    <use fill="#FFF" xlink:href="#dcc_nav_datetime_42px-e"/>
    <use fill="#000" filter="url(#dcc_nav_datetime_42px-f)" xlink:href="#dcc_nav_datetime_42px-e"/>
    <path fill="#2F2F2F" d="M15.0352941,24.5294118 C15.2789492,24.5294118 15.4764706,24.7269332 15.4764706,24.9705882 L15.4764706,26.4705882 C15.4764706,26.7142433 15.2789492,26.9117647 15.0352941,26.9117647 C14.7916391,26.9117647 14.5941176,26.7142433 14.5941176,26.4705882 L14.5941176,24.9705882 C14.5941176,24.7269332 14.7916391,24.5294118 15.0352941,24.5294118 Z M20.3979298,23.3965474 L21.1479298,24.6955855 C21.2697573,24.906597 21.1974594,25.1764163 20.986448,25.2982438 L20.9253168,25.3335379 C20.7143053,25.4553654 20.444486,25.3830676 20.3226585,25.1720561 L19.5726585,23.873018 C19.450831,23.6620065 19.5231288,23.3921872 19.7341403,23.2703597 L19.7952715,23.2350656 C20.0062829,23.1132381 20.2761022,23.185536 20.3979298,23.3965474 Z M10.2047285,23.2350656 L10.2658597,23.2703597 C10.4768712,23.3921872 10.549169,23.6620065 10.4273415,23.873018 L9.67734152,25.1720561 C9.555514,25.3830676 9.2856947,25.4553654 9.07468325,25.3335379 L9.01355204,25.2982438 C8.80254059,25.1764163 8.73024273,24.906597 8.85207025,24.6955855 L9.60207025,23.3965474 C9.72389777,23.185536 9.99371706,23.1132381 10.2047285,23.2350656 Z M23.873018,19.5726585 L25.1720561,20.3226585 C25.3830676,20.444486 25.4553654,20.7143053 25.3335379,20.9253168 L25.2982438,20.986448 C25.1764163,21.1974594 24.906597,21.2697573 24.6955855,21.1479298 L23.3965474,20.3979298 C23.185536,20.2761022 23.1132381,20.0062829 23.2350656,19.7952715 L23.2703597,19.7341403 C23.3921872,19.5231288 23.6620065,19.450831 23.873018,19.5726585 Z M6.72964027,19.7341403 L6.76493439,19.7952715 C6.88676191,20.0062829 6.81446404,20.2761022 6.60345259,20.3979298 L5.30441449,21.1479298 C5.09340303,21.2697573 4.82358374,21.1974594 4.70175622,20.986448 L4.6664621,20.9253168 C4.54463458,20.7143053 4.61693245,20.444486 4.8279439,20.3226585 L6.126982,19.5726585 C6.33799345,19.450831 6.60781275,19.5231288 6.72964027,19.7341403 Z M26.4705882,14.5235294 C26.7142433,14.5235294 26.9117647,14.7210508 26.9117647,14.9647059 L26.9117647,15.0352941 C26.9117647,15.2789492 26.7142433,15.4764706 26.4705882,15.4764706 L24.9705882,15.4764706 C24.7269332,15.4764706 24.5294118,15.2789492 24.5294118,15.0352941 L24.5294118,14.9647059 C24.5294118,14.7210508 24.7269332,14.5235294 24.9705882,14.5235294 L26.4705882,14.5235294 Z M5.02941176,14.5235294 C5.2730668,14.5235294 5.47058824,14.7210508 5.47058824,14.9647059 L5.47058824,15.0352941 C5.47058824,15.2789492 5.2730668,15.4764706 5.02941176,15.4764706 L3.52941176,15.4764706 C3.28575673,15.4764706 3.08823529,15.2789492 3.08823529,15.0352941 L3.08823529,14.9647059 C3.08823529,14.7210508 3.28575673,14.5235294 3.52941176,14.5235294 L5.02941176,14.5235294 Z M25.2982438,9.01355204 L25.3335379,9.07468325 C25.4553654,9.2856947 25.3830676,9.555514 25.1720561,9.67734152 L23.873018,10.4273415 C23.6620065,10.549169 23.3921872,10.4768712 23.2703597,10.2658597 L23.2350656,10.2047285 C23.1132381,9.99371706 23.185536,9.72389777 23.3965474,9.60207025 L24.6955855,8.85207025 C24.906597,8.73024273 25.1764163,8.80254059 25.2982438,9.01355204 Z M5.30441449,8.85207025 L6.60345259,9.60207025 C6.81446404,9.72389777 6.88676191,9.99371706 6.76493439,10.2047285 L6.72964027,10.2658597 C6.60781275,10.4768712 6.33799345,10.549169 6.126982,10.4273415 L4.8279439,9.67734152 C4.61693245,9.555514 4.54463458,9.2856947 4.6664621,9.07468325 L4.70175622,9.01355204 C4.82358374,8.80254059 5.09340303,8.73024273 5.30441449,8.85207025 Z M20.9253168,4.6664621 L20.986448,4.70175622 C21.1974594,4.82358374 21.2697573,5.09340303 21.1479298,5.30441449 L20.3979298,6.60345259 C20.2761022,6.81446404 20.0062829,6.88676191 19.7952715,6.76493439 L19.7341403,6.72964027 C19.5231288,6.60781275 19.450831,6.33799345 19.5726585,6.126982 L20.3226585,4.8279439 C20.444486,4.61693245 20.7143053,4.54463458 20.9253168,4.6664621 Z M9.67734152,4.8279439 L10.4273415,6.126982 C10.549169,6.33799345 10.4768712,6.60781275 10.2658597,6.72964027 L10.2047285,6.76493439 C9.99371706,6.88676191 9.72389777,6.81446404 9.60207025,6.60345259 L8.85207025,5.30441449 C8.73024273,5.09340303 8.80254059,4.82358374 9.01355204,4.70175622 L9.07468325,4.6664621 C9.2856947,4.54463458 9.555514,4.61693245 9.67734152,4.8279439 Z M15.0352941,3.08823529 C15.2789492,3.08823529 15.4764706,3.28575673 15.4764706,3.52941176 L15.4764706,5.02941176 C15.4764706,5.2730668 15.2789492,5.47058824 15.0352941,5.47058824 C14.7916391,5.47058824 14.5941176,5.2730668 14.5941176,5.02941176 L14.5941176,3.52941176 C14.5941176,3.28575673 14.7916391,3.08823529 15.0352941,3.08823529 Z"/>
    <g transform="rotate(-113 13.676 13.554)">
      <use fill="#000" filter="url(#dcc_nav_datetime_42px-g)" xlink:href="#dcc_nav_datetime_42px-h"/>
      <use fill="#7F7F7F" xlink:href="#dcc_nav_datetime_42px-h"/>
    </g>
    <use fill="#000" filter="url(#dcc_nav_datetime_42px-i)" xlink:href="#dcc_nav_datetime_42px-j"/>
    <use fill="#FD6C6C" xlink:href="#dcc_nav_datetime_42px-j"/>
    <circle cx="14.735" cy="15.716" r="1.5" fill="#4D4D4D"/>
  </g>
</svg>
