<svg xmlns="http://www.w3.org/2000/svg" xmlns:xlink="http://www.w3.org/1999/xlink" width="128" height="100" viewBox="0 0 128 100">
  <defs>
    <linearGradient id="cloud-b" x1="50%" x2="50%" y1="0%" y2="96.184%">
      <stop offset="0%" stop-color="#61A2FF"/>
      <stop offset="100%" stop-color="#0854F2"/>
    </linearGradient>
    <path id="cloud-a" d="M62,0 C77.7949921,0 90.9171761,11.4436518 93.5277851,26.4921883 C103.136013,29.9784579 110,39.1876439 110,50 C110,63.8071187 98.8071187,75 85,75 C76.3470283,75 35.0149339,75 25,75 C11.1928813,75 0,63.8071187 0,50 C0,36.1928813 11.1928813,25 25,25 C26.9368746,25 28.8223043,25.2202616 30.6326074,25.637103 C33.5831837,11.0122833 46.5055636,0 62,0 Z"/>
    <linearGradient id="cloud-c" x1="50%" x2="50%" y1="0%" y2="96.184%">
      <stop offset="0%" stop-color="#72ACFF"/>
      <stop offset="100%" stop-color="#3073FF"/>
    </linearGradient>
    <filter id="cloud-d" width="136.7%" height="156.2%" x="-18.4%" y="-28.1%" filterUnits="objectBoundingBox">
      <feGaussianBlur in="SourceGraphic" stdDeviation="6"/>
    </filter>
  </defs>
  <g fill="none" fill-rule="evenodd" transform="translate(9 5)">
    <mask id="cloud-e" fill="#fff">
      <use xlink:href="#cloud-a"/>
    </mask>
    <use fill="url(#cloud-b)" xlink:href="#cloud-a"/>
    <path fill="url(#cloud-c)" d="M60.2363636,4 C74.3082657,4 85.9989387,13.7652495 88.324754,26.6066673 C96.8848115,29.5816174 103,37.4401228 103,46.6666667 C103,58.4487413 93.0281603,68 80.7272727,68 C73.0182616,68 36.195123,68 27.2727273,68 C14.9718397,68 5,58.4487413 5,46.6666667 C5,34.884592 14.9718397,25.3333333 27.2727273,25.3333333 C28.9983064,25.3333333 30.6780529,25.5212899 32.2908684,25.8769946 C34.9195637,13.3971484 46.4322294,4 60.2363636,4 Z" filter="url(#cloud-d)" mask="url(#cloud-e)"/>
    <ellipse cx="58" cy="87" fill="#B3D2FF" opacity=".4" rx="52" ry="3"/>
  </g>
</svg>
