<svg xmlns="http://www.w3.org/2000/svg" xmlns:xlink="http://www.w3.org/1999/xlink" width="84" height="84" viewBox="0 0 84 84">
  <defs>
    <filter id="dcc_nav_datetime_84px-a" width="179.3%" height="179.3%" x="-39.7%" y="-39.7%" filterUnits="objectBoundingBox">
      <feOffset dy="4" in="SourceAlpha" result="shadowOffsetOuter1"/>
      <feGaussianBlur in="shadowOffsetOuter1" result="shadowBlurOuter1" stdDeviation="4"/>
      <feColorMatrix in="shadowBlurOuter1" result="shadowMatrixOuter1" values="0 0 0 0 0   0 0 0 0 0   0 0 0 0 0  0 0 0 0.2 0"/>
      <feMerge>
        <feMergeNode in="shadowMatrixOuter1"/>
        <feMergeNode in="SourceGraphic"/>
      </feMerge>
    </filter>
    <linearGradient id="dcc_nav_datetime_84px-b" x1="31.195%" x2="74.285%" y1="4.862%" y2="92.47%">
      <stop offset="0%" stop-color="#898989"/>
      <stop offset="100%" stop-color="#545454"/>
    </linearGradient>
    <path id="dcc_nav_datetime_84px-c" d="M17.7001935,2.265625 C14.1695813,3.7760465 11.0921375,5.843413 8.46777525,8.46777525 C5.84341155,11.0921375 3.7760494,14.1695812 2.265625,17.7001935 C0.7552006,21.230813 0,24.9973765 0,29 C0,33.0026235 0.7552006,36.769187 2.265625,40.2998065 C3.7760494,43.8304187 5.84341155,46.9078625 8.46777525,49.5322248 C11.0921375,52.1565885 14.1695813,54.2239506 17.7001935,55.734375 C21.230813,57.2447994 24.9973765,58 29,58 C33.0026235,58 36.769187,57.2447994 40.2998065,55.734375 C43.8304187,54.2239506 46.9078625,52.1565885 49.5322248,49.5322248 C52.156587,46.9078625 54.2239535,43.8304187 55.734375,40.2998065 C57.2447965,36.769187 58,33.0026235 58,29 C58,24.9973765 57.2447965,21.230813 55.734375,17.7001935 C54.2239535,14.1695812 52.156587,11.0921375 49.5322248,8.46777525 C46.9078625,5.843413 43.8304187,3.7760465 40.2998065,2.265625 C36.769187,0.7552035 33.0026235,0 29,0 C24.9973765,0 21.230813,0.7552035 17.7001935,2.265625 Z"/>
    <filter id="dcc_nav_datetime_84px-d" width="103.4%" height="103.4%" x="-1.7%" y="-1.7%" filterUnits="objectBoundingBox">
      <feGaussianBlur in="SourceAlpha" result="shadowBlurInner1" stdDeviation=".5"/>
      <feOffset dy="1" in="shadowBlurInner1" result="shadowOffsetInner1"/>
      <feComposite in="shadowOffsetInner1" in2="SourceAlpha" k2="-1" k3="1" operator="arithmetic" result="shadowInnerInner1"/>
      <feColorMatrix in="shadowInnerInner1" values="0 0 0 0 1   0 0 0 0 1   0 0 0 0 1  0 0 0 0.2 0"/>
    </filter>
    <path id="dcc_nav_datetime_84px-e" d="M29,3 C25.411441,3 22.034522,3.677079 18.869139,5.03125 C15.7037625,6.385421 12.944675,8.238922 10.5917985,10.5917985 C8.2389207,12.944675 6.3854236,15.7037625 5.03125,18.869139 C3.6770764,22.034522 3,25.411441 3,29 C3,32.588559 3.6770764,35.965478 5.03125,39.130861 C6.3854236,42.2962375 8.2389207,45.055325 10.5917985,47.4082015 C12.944675,49.7610793 15.7037625,51.6145764 18.869139,52.96875 C22.034522,54.3229236 25.411441,55 29,55 C32.588559,55 35.965478,54.3229236 39.130861,52.96875 C42.2962375,51.6145764 45.055325,49.7610793 47.4082015,47.4082015 C49.761078,45.055325 51.614579,42.2962375 52.96875,39.130861 C54.322921,35.965478 55,32.588559 55,29 C55,25.411441 54.322921,22.034522 52.96875,18.869139 C51.614579,15.7037625 49.761078,12.944675 47.4082015,10.5917985 C45.055325,8.238922 42.2962375,6.385421 39.130861,5.03125 C35.965478,3.677079 32.588559,3 29,3 L29,3 Z"/>
    <filter id="dcc_nav_datetime_84px-f" width="103.8%" height="103.8%" x="-1.9%" y="-1.9%" filterUnits="objectBoundingBox">
      <feGaussianBlur in="SourceAlpha" result="shadowBlurInner1" stdDeviation=".5"/>
      <feOffset dy="1" in="shadowBlurInner1" result="shadowOffsetInner1"/>
      <feComposite in="shadowOffsetInner1" in2="SourceAlpha" k2="-1" k3="1" operator="arithmetic" result="shadowInnerInner1"/>
      <feColorMatrix in="shadowInnerInner1" values="0 0 0 0 0   0 0 0 0 0   0 0 0 0 0  0 0 0 0.08 0"/>
    </filter>
    <path id="dcc_nav_datetime_84px-h" d="M20.7461608,21.9410502 L29.1285137,21.9410502 C30.3467889,21.9410502 31.3343961,22.9286574 31.3343961,24.1469326 C31.3343961,25.3652078 30.3467889,26.3528149 29.1285137,26.3528149 L20.7461608,26.3528149 L20.7461608,26.3528149 L20.7461608,21.9410502 Z"/>
    <filter id="dcc_nav_datetime_84px-g" width="137.8%" height="190.7%" x="-18.9%" y="-22.7%" filterUnits="objectBoundingBox">
      <feOffset dy="1" in="SourceAlpha" result="shadowOffsetOuter1"/>
      <feGaussianBlur in="shadowOffsetOuter1" result="shadowBlurOuter1" stdDeviation=".5"/>
      <feColorMatrix in="shadowBlurOuter1" values="0 0 0 0 0   0 0 0 0 0   0 0 0 0 0  0 0 0 0.0957987325 0"/>
    </filter>
    <path id="dcc_nav_datetime_84px-j" d="M26.545777,28.0470588 L40.0389872,28.0470588 C40.8711642,28.0470588 41.545777,28.7216716 41.545777,29.5538487 C41.545777,30.3860257 40.8711642,31.0606385 40.0389872,31.0606385 L27.2337879,31.0606385 L27.2337879,31.0606385 L26.545777,28.0470588 Z"/>
    <filter id="dcc_nav_datetime_84px-i" width="126.7%" height="232.7%" x="-13.3%" y="-33.2%" filterUnits="objectBoundingBox">
      <feOffset dy="1" in="SourceAlpha" result="shadowOffsetOuter1"/>
      <feGaussianBlur in="shadowOffsetOuter1" result="shadowBlurOuter1" stdDeviation=".5"/>
      <feColorMatrix in="shadowBlurOuter1" values="0 0 0 0 0   0 0 0 0 0   0 0 0 0 0  0 0 0 0.08 0"/>
    </filter>
  </defs>
  <g fill="none" fill-rule="evenodd" filter="url(#dcc_nav_datetime_84px-a)" transform="translate(13 13)">
    <use fill="url(#dcc_nav_datetime_84px-b)" xlink:href="#dcc_nav_datetime_84px-c"/>
    <use fill="#000" filter="url(#dcc_nav_datetime_84px-d)" xlink:href="#dcc_nav_datetime_84px-c"/>
    <use fill="#FFF" xlink:href="#dcc_nav_datetime_84px-e"/>
    <use fill="#000" filter="url(#dcc_nav_datetime_84px-f)" xlink:href="#dcc_nav_datetime_84px-e"/>
    <path fill="#2F2F2F" d="M29.0705882,48.0588235 C29.5578983,48.0588235 29.9529412,48.4538664 29.9529412,48.9411765 L29.9529412,51.9411765 C29.9529412,52.4284865 29.5578983,52.8235294 29.0705882,52.8235294 C28.5832782,52.8235294 28.1882353,52.4284865 28.1882353,51.9411765 L28.1882353,48.9411765 C28.1882353,48.4538664 28.5832782,48.0588235 29.0705882,48.0588235 Z M39.7958595,45.7930948 L41.2958595,48.391171 C41.5395145,48.8131939 41.3949188,49.3528325 40.9728959,49.5964876 L40.8506335,49.6670758 C40.4286106,49.9107308 39.888972,49.7661351 39.645317,49.3441122 L38.145317,46.746036 C37.9016619,46.3240131 38.0462577,45.7843745 38.4682806,45.5407195 L38.590543,45.4701312 C39.0125659,45.2264762 39.5522045,45.3710719 39.7958595,45.7930948 Z M19.409457,45.4701312 L19.5317194,45.5407195 C19.9537423,45.7843745 20.0983381,46.3240131 19.854683,46.746036 L18.354683,49.3441122 C18.111028,49.7661351 17.5713894,49.9107308 17.1493665,49.6670758 L17.0271041,49.5964876 C16.6050812,49.3528325 16.4604855,48.8131939 16.7041405,48.391171 L18.2041405,45.7930948 C18.4477955,45.3710719 18.9874341,45.2264762 19.409457,45.4701312 Z M46.746036,38.145317 L49.3441122,39.645317 C49.7661351,39.888972 49.9107308,40.4286106 49.6670758,40.8506335 L49.5964876,40.9728959 C49.3528325,41.3949188 48.8131939,41.5395145 48.391171,41.2958595 L45.7930948,39.7958595 C45.3710719,39.5522045 45.2264762,39.0125659 45.4701312,38.590543 L45.5407195,38.4682806 C45.7843745,38.0462577 46.3240131,37.9016619 46.746036,38.145317 Z M12.4592805,38.4682806 L12.5298688,38.590543 C12.7735238,39.0125659 12.6289281,39.5522045 12.2069052,39.7958595 L9.60882897,41.2958595 C9.18680607,41.5395145 8.64716748,41.3949188 8.40351244,40.9728959 L8.3329242,40.8506335 C8.08926917,40.4286106 8.23386489,39.888972 8.6558878,39.645317 L11.253964,38.145317 C11.6759869,37.9016619 12.2156255,38.0462577 12.4592805,38.4682806 Z M51.9411765,28.0470588 C52.4284865,28.0470588 52.8235294,28.4421017 52.8235294,28.9294118 L52.8235294,29.0705882 C52.8235294,29.5578983 52.4284865,29.9529412 51.9411765,29.9529412 L48.9411765,29.9529412 C48.4538664,29.9529412 48.0588235,29.5578983 48.0588235,29.0705882 L48.0588235,28.9294118 C48.0588235,28.4421017 48.4538664,28.0470588 48.9411765,28.0470588 L51.9411765,28.0470588 Z M9.05882353,28.0470588 C9.5461336,28.0470588 9.94117647,28.4421017 9.94117647,28.9294118 L9.94117647,29.0705882 C9.94117647,29.5578983 9.5461336,29.9529412 9.05882353,29.9529412 L6.05882353,29.9529412 C5.57151346,29.9529412 5.17647059,29.5578983 5.17647059,29.0705882 L5.17647059,28.9294118 C5.17647059,28.4421017 5.57151346,28.0470588 6.05882353,28.0470588 L9.05882353,28.0470588 Z M49.5964876,17.0271041 L49.6670758,17.1493665 C49.9107308,17.5713894 49.7661351,18.111028 49.3441122,18.354683 L46.746036,19.854683 C46.3240131,20.0983381 45.7843745,19.9537423 45.5407195,19.5317194 L45.4701312,19.409457 C45.2264762,18.9874341 45.3710719,18.4477955 45.7930948,18.2041405 L48.391171,16.7041405 C48.8131939,16.4604855 49.3528325,16.6050812 49.5964876,17.0271041 Z M9.60882897,16.7041405 L12.2069052,18.2041405 C12.6289281,18.4477955 12.7735238,18.9874341 12.5298688,19.409457 L12.4592805,19.5317194 C12.2156255,19.9537423 11.6759869,20.0983381 11.253964,19.854683 L8.6558878,18.354683 C8.23386489,18.111028 8.08926917,17.5713894 8.3329242,17.1493665 L8.40351244,17.0271041 C8.64716748,16.6050812 9.18680607,16.4604855 9.60882897,16.7041405 Z M40.8506335,8.3329242 L40.9728959,8.40351244 C41.3949188,8.64716748 41.5395145,9.18680607 41.2958595,9.60882897 L39.7958595,12.2069052 C39.5522045,12.6289281 39.0125659,12.7735238 38.590543,12.5298688 L38.4682806,12.4592805 C38.0462577,12.2156255 37.9016619,11.6759869 38.145317,11.253964 L39.645317,8.6558878 C39.888972,8.23386489 40.4286106,8.08926917 40.8506335,8.3329242 Z M18.354683,8.6558878 L19.854683,11.253964 C20.0983381,11.6759869 19.9537423,12.2156255 19.5317194,12.4592805 L19.409457,12.5298688 C18.9874341,12.7735238 18.4477955,12.6289281 18.2041405,12.2069052 L16.7041405,9.60882897 C16.4604855,9.18680607 16.6050812,8.64716748 17.0271041,8.40351244 L17.1493665,8.3329242 C17.5713894,8.08926917 18.111028,8.23386489 18.354683,8.6558878 Z M29.0705882,5.17647059 C29.5578983,5.17647059 29.9529412,5.57151346 29.9529412,6.05882353 L29.9529412,9.05882353 C29.9529412,9.5461336 29.5578983,9.94117647 29.0705882,9.94117647 C28.5832782,9.94117647 28.1882353,9.5461336 28.1882353,9.05882353 L28.1882353,6.05882353 C28.1882353,5.57151346 28.5832782,5.17647059 29.0705882,5.17647059 Z"/>
    <g transform="rotate(-113 26.04 24.147)">
      <use fill="#000" filter="url(#dcc_nav_datetime_84px-g)" xlink:href="#dcc_nav_datetime_84px-h"/>
      <use fill="#7F7F7F" xlink:href="#dcc_nav_datetime_84px-h"/>
    </g>
    <use fill="#000" filter="url(#dcc_nav_datetime_84px-i)" xlink:href="#dcc_nav_datetime_84px-j"/>
    <use fill="#FD6C6C" xlink:href="#dcc_nav_datetime_84px-j"/>
    <circle cx="28.31" cy="28.725" r="2.647" fill="#4D4D4D"/>
  </g>
</svg>
