<svg xmlns="http://www.w3.org/2000/svg" width="42" height="42" viewBox="0 0 42 42">
  <defs>
    <filter id="dcc_nav_keyboard_42px-a" width="188.9%" height="192.3%" x="-44.4%" y="-46.2%" filterUnits="objectBoundingBox">
      <feOffset dy="2" in="SourceAlpha" result="shadowOffsetOuter1"/>
      <feGaussianBlur in="shadowOffsetOuter1" result="shadowBlurOuter1" stdDeviation="2"/>
      <feColorMatrix in="shadowBlurOuter1" result="shadowMatrixOuter1" values="0 0 0 0 0   0 0 0 0 0   0 0 0 0 0  0 0 0 0.2 0"/>
      <feMerge>
        <feMergeNode in="shadowMatrixOuter1"/>
        <feMergeNode in="SourceGraphic"/>
      </feMerge>
    </filter>
    <linearGradient id="dcc_nav_keyboard_42px-b" x1="50%" x2="50%" y1="98.643%" y2="-.015%">
      <stop offset="0%" stop-color="#676767"/>
      <stop offset="100%" stop-color="#959494"/>
    </linearGradient>
    <linearGradient id="dcc_nav_keyboard_42px-c" x1="50%" x2="50%" y1="0%" y2="100%">
      <stop offset="0%" stop-color="#FFF"/>
      <stop offset="100%" stop-color="#DDD"/>
    </linearGradient>
    <linearGradient id="dcc_nav_keyboard_42px-d" x1="50%" x2="50%" y1="0%" y2="100%">
      <stop offset="0%" stop-color="#FBFBFB"/>
      <stop offset="14.407%" stop-color="#F5F5F5"/>
      <stop offset="15.155%" stop-color="#E6E6E6"/>
      <stop offset="89.344%" stop-color="#CACACA"/>
      <stop offset="89.64%" stop-color="#B7B7B7"/>
      <stop offset="100%" stop-color="#BEBEBE"/>
    </linearGradient>
    <linearGradient id="dcc_nav_keyboard_42px-e" x1="50%" x2="50%" y1="0%" y2="100%">
      <stop offset="0%" stop-color="#FFF"/>
      <stop offset="100%" stop-color="#DDD"/>
    </linearGradient>
    <linearGradient id="dcc_nav_keyboard_42px-f" x1="50%" x2="50%" y1="0%" y2="100%">
      <stop offset="0%" stop-color="#FBFBFB"/>
      <stop offset="14.407%" stop-color="#F5F5F5"/>
      <stop offset="15.155%" stop-color="#E6E6E6"/>
      <stop offset="89.344%" stop-color="#CACACA"/>
      <stop offset="89.64%" stop-color="#B7B7B7"/>
      <stop offset="100%" stop-color="#BEBEBE"/>
    </linearGradient>
  </defs>
  <g fill="none" fill-rule="evenodd" filter="url(#dcc_nav_keyboard_42px-a)" transform="translate(8 8)">
    <rect width="27" height="26" fill="url(#dcc_nav_keyboard_42px-b)" fill-rule="nonzero" rx="3"/>
    <path fill="#4C4C4C" d="M3,15 L3,10 C3,9.74388185 3.12731558,9.57721519 3.38194675,9.5 L3,9.5 C2.5,9.5 2,9.32842712 2,8.5 L2,3.5 C2,2.67157288 2.67157288,2 3.5,2 L22.5,2 C23.3284271,2 24,2.67157288 24,3.5 L24,8 C24,8.38417722 23.8555732,8.73462175 23.6180533,9 L23.5,9 C24.3284271,9 25,9.17157288 25,10 L25,15.5 C25,16.2900041 24.3892785,16.9373666 23.6142054,16.9957174 C23.8540125,17.2616024 24,17.6137526 24,18 L24,22.5 C24,23.3284271 23.3284271,24 22.5,24 L3.5,24 C2.67157288,24 2,23.3284271 2,22.5 L2,17.5 C2,16.6715729 2.5,16 3,16 L3.5,16 C3.26248004,15.7346218 3,15.3841772 3,15 Z"/>
    <g transform="translate(2.5 3)">
      <rect width="5" height="5" x="15" y="14.5" fill="url(#dcc_nav_keyboard_42px-c)" stroke="url(#dcc_nav_keyboard_42px-d)" rx="1"/>
      <rect width="12" height="5" x="1" y="14.5" fill="url(#dcc_nav_keyboard_42px-e)" stroke="url(#dcc_nav_keyboard_42px-f)" rx="1"/>
      <rect width="5" height="5" x="16" y="7.5" fill="url(#dcc_nav_keyboard_42px-c)" stroke="url(#dcc_nav_keyboard_42px-d)" rx="1"/>
      <rect width="5" height="5" x="9" y="7.5" fill="url(#dcc_nav_keyboard_42px-c)" stroke="url(#dcc_nav_keyboard_42px-d)" rx="1"/>
      <rect width="5" height="5" x="2" y="7.5" fill="url(#dcc_nav_keyboard_42px-c)" stroke="url(#dcc_nav_keyboard_42px-d)" rx="1"/>
      <rect width="5" height="5" x="15" y=".5" fill="url(#dcc_nav_keyboard_42px-c)" stroke="url(#dcc_nav_keyboard_42px-d)" rx="1"/>
      <rect width="5" height="5" x="8" y=".5" fill="url(#dcc_nav_keyboard_42px-c)" stroke="url(#dcc_nav_keyboard_42px-d)" rx="1"/>
      <rect width="5" height="5" x="1" y=".5" fill="url(#dcc_nav_keyboard_42px-c)" stroke="url(#dcc_nav_keyboard_42px-d)" rx="1"/>
    </g>
    <g fill="#4C4C4C" transform="translate(3 3)">
      <path fill-rule="nonzero" d="M2.94287109 4.50195312C3.14013771 4.50195312 3.30224546 4.48144552 3.42919922 4.44042969 3.65576285 4.36425743 3.84130787 4.21777452 3.98583984 4.00097656 4.10107479 3.82714757 4.18408178 3.60449354 4.23486328 3.33300781 4.2641603 3.17089763 4.27880859 3.02050851 4.27880859 2.88183594 4.27880859 2.34863015 4.17285262 1.93457179 3.9609375 1.63964844 3.74902238 1.34472509 3.4077172 1.19726562 2.93701172 1.19726562L1.90283203 1.19726562 1.90283203 4.50195312 2.94287109 4.50195312zM1.31689453.696289062L3.06005859.696289062C3.65185843.696289062 4.11083821.9062479 4.43701172 1.32617188 4.7280288 1.70508002 4.87353516 2.19042673 4.87353516 2.78222656 4.87353516 3.2392601 4.78759852 3.6523419 4.61572266 4.02148438 4.31298677 4.67383139 3.79248416 5 3.05419922 5L1.31689453 5 1.31689453.696289062zM2.01171875 7.69628906L3.94824219 7.69628906C4.3310566 7.69628906 4.63964727 7.80419814 4.87402344 8.02001953 5.10839961 8.23584092 5.22558594 8.53906055 5.22558594 8.9296875 5.22558594 9.26562668 5.12109479 9.55810422 4.91210938 9.80712891 4.70312396 10.0561536 4.38183811 10.1806641 3.94824219 10.1806641L2.59472656 10.1806641 2.59472656 12 2.01171875 12 2.01171875 7.69628906zM4.63671875 8.93261719C4.63671875 8.61620936 4.51953242 8.40136775 4.28515625 8.28808594 4.15624936 8.22753876 3.97949331 8.19726562 3.75488281 8.19726562L2.59472656 8.19726562 2.59472656 9.68847656 3.75488281 9.68847656C4.01660287 9.68847656 4.22900309 9.63281306 4.39208984 9.52148438 4.5551766 9.41015569 4.63671875 9.21386859 4.63671875 8.93261719zM1.33496094 17.6113281C1.34863288 17.85547 1.40624949 18.0537102 1.5078125 18.2060547 1.70117284 18.4912124 2.04198975 18.6337891 2.53027344 18.6337891 2.74902453 18.6337891 2.94824129 18.6025394 3.12792969 18.5400391 3.47558768 18.4189447 3.64941406 18.20215 3.64941406 17.8896484 3.64941406 17.6552723 3.57617261 17.4882817 3.4296875 17.3886719 3.28124926 17.2910151 3.04882971 17.206055 2.73242187 17.1337891L2.14941406 17.0019531C1.76855278 16.9160152 1.49902423 16.8212896 1.34082031 16.7177734 1.06738145 16.538085.930664062 16.269533.930664062 15.9121094.930664062 15.5253887 1.06445179 15.2080091 1.33203125 14.9599609 1.59961071 14.7119128 1.97851317 14.5878906 2.46875 14.5878906 2.91992413 14.5878906 3.30322108 14.6967763 3.61865234 14.9145508 3.93408361 15.1323253 4.09179687 15.4804664 4.09179687 15.9589844L3.54394531 15.9589844C3.51464829 15.7285145 3.45214892 15.5517584 3.35644531 15.4287109 3.17871005 15.2041004 2.87695525 15.0917969 2.45117187 15.0917969 2.10742016 15.0917969 1.86035231 15.1640618 1.70996094 15.3085938 1.55956956 15.4531257 1.484375 15.6210928 1.484375 15.8125 1.484375 16.0234386 1.57226475 16.1777339 1.74804687 16.2753906 1.86328183 16.3378909 2.12402141 16.4160152 2.53027344 16.5097656L3.13378906 16.6474609C3.42480614 16.7138675 3.64941327 16.8046869 3.80761719 16.9199219 4.08105605 17.1210948 4.21777344 17.413084 4.21777344 17.7958984 4.21777344 18.2724633 4.04443533 18.6132802 3.69775391 18.8183594 3.35107249 19.0234385 2.94824448 19.1259766 2.48925781 19.1259766 1.95409889 19.1259766 1.53515776 18.9892592 1.23242187 18.7158203.929685986 18.4443346.781249971 18.0761742.787109375 17.6113281L1.33496094 17.6113281zM4.88574219 14.6816406L5.41308594 14.6816406 5.41308594 16.2871094C5.53808656 16.1289055 5.65039013 16.0175784 5.75 15.953125 5.91992272 15.8417963 6.13183467 15.7861328 6.38574219 15.7861328 6.84082259 15.7861328 7.14941325 15.9453109 7.31152344 16.2636719 7.3994145 16.4375009 7.44335937 16.6787094 7.44335937 16.9873047L7.44335937 19 6.90136719 19 6.90136719 17.0224609C6.90136719 16.791991 6.87207061 16.6230474 6.81347656 16.515625 6.71777296 16.3437491 6.53808726 16.2578125 6.27441406 16.2578125 6.05566297 16.2578125 5.85742276 16.3330071 5.6796875 16.4833984 5.50195224 16.6337898 5.41308594 16.9179667 5.41308594 17.3359375L5.41308594 19 4.88574219 19 4.88574219 14.6816406zM8.22265625 15.8769531L8.75878906 15.8769531 8.75878906 19 8.22265625 19 8.22265625 15.8769531zM8.22265625 14.6962891L8.75878906 14.6962891 8.75878906 15.2939453 8.22265625 15.2939453 8.22265625 14.6962891zM9.6875 15.3847656C9.69531254 15.1660145 9.7333981 15.0058599 9.80175781 14.9042969 9.9248053 14.7246085 10.1621076 14.6347656 10.5136719 14.6347656 10.5468752 14.6347656 10.5810545 14.6357422 10.6162109 14.6376953 10.6513674 14.6396484 10.691406 14.6425781 10.7363281 14.6464844L10.7363281 15.1269531C10.6816404 15.1230469 10.64209 15.1206055 10.6176758 15.1196289 10.5932616 15.1186523 10.5703126 15.1181641 10.5488281 15.1181641 10.3886711 15.1181641 10.2929689 15.1596676 10.2617187 15.2426758 10.2304686 15.325684 10.2148437 15.5371077 10.2148437 15.8769531L10.7363281 15.8769531 10.7363281 16.2929688 10.2089844 16.2929688 10.2089844 19 9.6875 19 9.6875 16.2929688 9.25097656 16.2929688 9.25097656 15.8769531 9.6875 15.8769531 9.6875 15.3847656zM11.328125 14.9863281L11.8613281 14.9863281 11.8613281 15.8623047 12.3623047 15.8623047 12.3623047 16.2929688 11.8613281 16.2929688 11.8613281 18.3408203C11.8613281 18.4501959 11.8984371 18.5234373 11.9726562 18.5605469 12.0136721 18.5820314 12.0820308 18.5927734 12.1777344 18.5927734 12.2031251 18.5927734 12.2304686 18.5922852 12.2597656 18.5913086 12.2890626 18.590332 12.323242 18.5878906 12.3623047 18.5839844L12.3623047 19C12.3017575 19.0175782 12.2387699 19.0302734 12.1733398 19.0380859 12.1079098 19.0458985 12.0371098 19.0498047 11.9609375 19.0498047 11.7148425 19.0498047 11.547852 18.986817 11.4599609 18.8608398 11.3720699 18.7348627 11.328125 18.5712901 11.328125 18.3701172L11.328125 16.2929688 10.9033203 16.2929688 10.9033203 15.8623047 11.328125 15.8623047 11.328125 14.9863281z"/>
      <polygon points="19.021 16.75 18 17.5 18 17 15 17 15 16.5 18 16.5 18 16"/>
      <polygon fill-rule="nonzero" points="8.012 .696 11.149 .696 11.149 1.224 8.58 1.224 8.58 2.53 10.956 2.53 10.956 3.028 8.58 3.028 8.58 4.487 11.193 4.487 11.193 5 8.012 5"/>
      <polygon fill-rule="nonzero" points="10.755 7.696 11.344 7.696 11.344 12 10.755 12"/>
      <polygon fill-rule="nonzero" points="15.012 .696 18.149 .696 18.149 1.224 15.58 1.224 15.58 2.53 17.956 2.53 17.956 3.028 15.58 3.028 15.58 4.487 18.193 4.487 18.193 5 15.012 5"/>
      <polygon fill-rule="nonzero" points="15.791 7.696 16.479 7.696 18.653 11.183 18.653 7.696 19.207 7.696 19.207 12 18.553 12 16.347 8.517 16.347 12 15.791 12"/>
    </g>
  </g>
</svg>
