<?xml version="1.0" encoding="UTF-8"?>
<svg width="40px" height="40px" viewBox="0 0 40 40" version="1.1" xmlns="http://www.w3.org/2000/svg" xmlns:xlink="http://www.w3.org/1999/xlink">
    <title>dcc_nav_update_42px</title>
    <defs>
        <filter x="-28.9%" y="-20.1%" width="158.1%" height="146.3%" filterUnits="objectBoundingBox" id="filter-1">
            <feOffset dx="0" dy="1" in="SourceAlpha" result="shadowOffsetOuter1"></feOffset>
            <feGaussianBlur stdDeviation="1" in="shadowOffsetOuter1" result="shadowBlurOuter1"></feGaussianBlur>
            <feColorMatrix values="0 0 0 0 0   0 0 0 0 0   0 0 0 0 0  0 0 0 0.2 0" type="matrix" in="shadowBlurOuter1" result="shadowMatrixOuter1"></feColorMatrix>
            <feMerge>
                <feMergeNode in="shadowMatrixOuter1"></feMergeNode>
                <feMergeNode in="SourceGraphic"></feMergeNode>
            </feMerge>
        </filter>
        <linearGradient x1="50%" y1="0%" x2="50%" y2="100%" id="linearGradient-2">
            <stop stop-color="#EEEEEE" offset="0%"></stop>
            <stop stop-color="#D8D8D8" offset="100%"></stop>
        </linearGradient>
        <linearGradient x1="-7.74904036%" y1="0%" x2="112.505759%" y2="0%" id="linearGradient-3">
            <stop stop-color="#00E6FF" offset="0%"></stop>
            <stop stop-color="#A4FFCE" offset="100%"></stop>
        </linearGradient>
        <radialGradient cx="30.9269098%" cy="25.9943283%" fx="30.9269098%" fy="25.9943283%" r="76.3969601%" id="radialGradient-4">
            <stop stop-color="#FFF5C5" offset="0%"></stop>
            <stop stop-color="#FAC743" offset="100%"></stop>
        </radialGradient>
        <circle id="path-5" cx="8.02622951" cy="10.0327869" r="7.35737705"></circle>
        <filter x="-51.0%" y="-44.2%" width="215.5%" height="215.5%" filterUnits="objectBoundingBox" id="filter-6">
            <feOffset dx="1" dy="2" in="SourceAlpha" result="shadowOffsetOuter1"></feOffset>
            <feGaussianBlur stdDeviation="2.5" in="shadowOffsetOuter1" result="shadowBlurOuter1"></feGaussianBlur>
            <feColorMatrix values="0 0 0 0 0.921568627   0 0 0 0 0.921568627   0 0 0 0 0.921568627  0 0 0 1 0" type="matrix" in="shadowBlurOuter1"></feColorMatrix>
        </filter>
        <filter x="-45.2%" y="-38.4%" width="204.0%" height="204.0%" filterUnits="objectBoundingBox" id="filter-7">
            <feGaussianBlur stdDeviation="0.25" in="SourceAlpha" result="shadowBlurInner1"></feGaussianBlur>
            <feOffset dx="0.3" dy="0.3" in="shadowBlurInner1" result="shadowOffsetInner1"></feOffset>
            <feComposite in="shadowOffsetInner1" in2="SourceAlpha" operator="arithmetic" k2="-1" k3="1" result="shadowInnerInner1"></feComposite>
            <feColorMatrix values="0 0 0 0 1   0 0 0 0 1   0 0 0 0 1  0 0 0 1 0" type="matrix" in="shadowInnerInner1" result="shadowMatrixInner1"></feColorMatrix>
            <feGaussianBlur stdDeviation="1.5" in="SourceAlpha" result="shadowBlurInner2"></feGaussianBlur>
            <feOffset dx="-1.3" dy="-2.3" in="shadowBlurInner2" result="shadowOffsetInner2"></feOffset>
            <feComposite in="shadowOffsetInner2" in2="SourceAlpha" operator="arithmetic" k2="-1" k3="1" result="shadowInnerInner2"></feComposite>
            <feColorMatrix values="0 0 0 0 0.94094539   0 0 0 0 0.686881714   0 0 0 0 0.00373271853  0 0 0 1 0" type="matrix" in="shadowInnerInner2" result="shadowMatrixInner2"></feColorMatrix>
            <feGaussianBlur stdDeviation="0.25" in="SourceAlpha" result="shadowBlurInner3"></feGaussianBlur>
            <feOffset dx="-0.3" dy="-0.3" in="shadowBlurInner3" result="shadowOffsetInner3"></feOffset>
            <feComposite in="shadowOffsetInner3" in2="SourceAlpha" operator="arithmetic" k2="-1" k3="1" result="shadowInnerInner3"></feComposite>
            <feColorMatrix values="0 0 0 0 1   0 0 0 0 1   0 0 0 0 1  0 0 0 0.543535566 0" type="matrix" in="shadowInnerInner3" result="shadowMatrixInner3"></feColorMatrix>
            <feMerge>
                <feMergeNode in="shadowMatrixInner1"></feMergeNode>
                <feMergeNode in="shadowMatrixInner2"></feMergeNode>
                <feMergeNode in="shadowMatrixInner3"></feMergeNode>
            </feMerge>
        </filter>
        <radialGradient cx="30.9269098%" cy="25.9943283%" fx="30.9269098%" fy="25.9943283%" r="76.3969601%" id="radialGradient-8">
            <stop stop-color="#92F171" offset="0%"></stop>
            <stop stop-color="#1ADD32" offset="99.8111752%"></stop>
        </radialGradient>
        <circle id="path-9" cx="20.7344262" cy="17.3901639" r="10.7016393"></circle>
        <filter x="-35.0%" y="-30.4%" width="179.4%" height="179.4%" filterUnits="objectBoundingBox" id="filter-10">
            <feOffset dx="1" dy="2" in="SourceAlpha" result="shadowOffsetOuter1"></feOffset>
            <feGaussianBlur stdDeviation="2.5" in="shadowOffsetOuter1" result="shadowBlurOuter1"></feGaussianBlur>
            <feColorMatrix values="0 0 0 0 0.921568627   0 0 0 0 0.921568627   0 0 0 0 0.921568627  0 0 0 1 0" type="matrix" in="shadowBlurOuter1"></feColorMatrix>
        </filter>
        <filter x="-31.1%" y="-26.4%" width="171.5%" height="171.5%" filterUnits="objectBoundingBox" id="filter-11">
            <feGaussianBlur stdDeviation="0.25" in="SourceAlpha" result="shadowBlurInner1"></feGaussianBlur>
            <feOffset dx="0.3" dy="0.3" in="shadowBlurInner1" result="shadowOffsetInner1"></feOffset>
            <feComposite in="shadowOffsetInner1" in2="SourceAlpha" operator="arithmetic" k2="-1" k3="1" result="shadowInnerInner1"></feComposite>
            <feColorMatrix values="0 0 0 0 1   0 0 0 0 1   0 0 0 0 1  0 0 0 1 0" type="matrix" in="shadowInnerInner1" result="shadowMatrixInner1"></feColorMatrix>
            <feGaussianBlur stdDeviation="1.5" in="SourceAlpha" result="shadowBlurInner2"></feGaussianBlur>
            <feOffset dx="-1.3" dy="-2.3" in="shadowBlurInner2" result="shadowOffsetInner2"></feOffset>
            <feComposite in="shadowOffsetInner2" in2="SourceAlpha" operator="arithmetic" k2="-1" k3="1" result="shadowInnerInner2"></feComposite>
            <feColorMatrix values="0 0 0 0 0.0603341886   0 0 0 0 0.823414678   0 0 0 0 0.147770495  0 0 0 1 0" type="matrix" in="shadowInnerInner2" result="shadowMatrixInner2"></feColorMatrix>
            <feGaussianBlur stdDeviation="0.25" in="SourceAlpha" result="shadowBlurInner3"></feGaussianBlur>
            <feOffset dx="-0.3" dy="-0.3" in="shadowBlurInner3" result="shadowOffsetInner3"></feOffset>
            <feComposite in="shadowOffsetInner3" in2="SourceAlpha" operator="arithmetic" k2="-1" k3="1" result="shadowInnerInner3"></feComposite>
            <feColorMatrix values="0 0 0 0 1   0 0 0 0 1   0 0 0 0 1  0 0 0 0.543535566 0" type="matrix" in="shadowInnerInner3" result="shadowMatrixInner3"></feColorMatrix>
            <feMerge>
                <feMergeNode in="shadowMatrixInner1"></feMergeNode>
                <feMergeNode in="shadowMatrixInner2"></feMergeNode>
                <feMergeNode in="shadowMatrixInner3"></feMergeNode>
            </feMerge>
        </filter>
        <radialGradient cx="30.9269098%" cy="25.9943283%" fx="30.9269098%" fy="25.9943283%" r="76.3969601%" id="radialGradient-12">
            <stop stop-color="#FFB2BF" offset="0%"></stop>
            <stop stop-color="#FF3255" offset="100%"></stop>
        </radialGradient>
        <circle id="path-13" cx="9.0295082" cy="22.4065574" r="7.02295082"></circle>
        <filter x="-53.4%" y="-46.3%" width="221.0%" height="221.0%" filterUnits="objectBoundingBox" id="filter-14">
            <feOffset dx="1" dy="2" in="SourceAlpha" result="shadowOffsetOuter1"></feOffset>
            <feGaussianBlur stdDeviation="2.5" in="shadowOffsetOuter1" result="shadowBlurOuter1"></feGaussianBlur>
            <feColorMatrix values="0 0 0 0 0.921568627   0 0 0 0 0.921568627   0 0 0 0 0.921568627  0 0 0 1 0" type="matrix" in="shadowBlurOuter1"></feColorMatrix>
        </filter>
        <filter x="-47.3%" y="-40.2%" width="208.9%" height="208.9%" filterUnits="objectBoundingBox" id="filter-15">
            <feGaussianBlur stdDeviation="0.25" in="SourceAlpha" result="shadowBlurInner1"></feGaussianBlur>
            <feOffset dx="0.3" dy="0.3" in="shadowBlurInner1" result="shadowOffsetInner1"></feOffset>
            <feComposite in="shadowOffsetInner1" in2="SourceAlpha" operator="arithmetic" k2="-1" k3="1" result="shadowInnerInner1"></feComposite>
            <feColorMatrix values="0 0 0 0 1   0 0 0 0 1   0 0 0 0 1  0 0 0 1 0" type="matrix" in="shadowInnerInner1" result="shadowMatrixInner1"></feColorMatrix>
            <feGaussianBlur stdDeviation="1.5" in="SourceAlpha" result="shadowBlurInner2"></feGaussianBlur>
            <feOffset dx="-1.3" dy="-2.3" in="shadowBlurInner2" result="shadowOffsetInner2"></feOffset>
            <feComposite in="shadowOffsetInner2" in2="SourceAlpha" operator="arithmetic" k2="-1" k3="1" result="shadowInnerInner2"></feComposite>
            <feColorMatrix values="0 0 0 0 1   0 0 0 0 0.466666667   0 0 0 0 0.552941176  0 0 0 1 0" type="matrix" in="shadowInnerInner2" result="shadowMatrixInner2"></feColorMatrix>
            <feGaussianBlur stdDeviation="0.25" in="SourceAlpha" result="shadowBlurInner3"></feGaussianBlur>
            <feOffset dx="-0.3" dy="-0.3" in="shadowBlurInner3" result="shadowOffsetInner3"></feOffset>
            <feComposite in="shadowOffsetInner3" in2="SourceAlpha" operator="arithmetic" k2="-1" k3="1" result="shadowInnerInner3"></feComposite>
            <feColorMatrix values="0 0 0 0 1   0 0 0 0 1   0 0 0 0 1  0 0 0 0.543535566 0" type="matrix" in="shadowInnerInner3" result="shadowMatrixInner3"></feColorMatrix>
            <feMerge>
                <feMergeNode in="shadowMatrixInner1"></feMergeNode>
                <feMergeNode in="shadowMatrixInner2"></feMergeNode>
                <feMergeNode in="shadowMatrixInner3"></feMergeNode>
            </feMerge>
        </filter>
        <linearGradient x1="50%" y1="0%" x2="50%" y2="100%" id="linearGradient-16">
            <stop stop-color="#EEEEEE" stop-opacity="0" offset="0%"></stop>
            <stop stop-color="#B3B0A9" stop-opacity="0.527833739" offset="100%"></stop>
        </linearGradient>
        <linearGradient x1="58.1486582%" y1="3.9668944%" x2="58.1486582%" y2="87.9759316%" id="linearGradient-17">
            <stop stop-color="#F7F8F7" stop-opacity="0.4" offset="0%"></stop>
            <stop stop-color="#E9E9E9" stop-opacity="0.7" offset="100%"></stop>
        </linearGradient>
        <path d="M33.442623,2.88186342 L33.442623,24.3244864 C33.442623,27.6381949 30.7563314,30.3244864 27.442623,30.3244864 L6,30.3244864 C2.6862915,30.3244864 -4.82366169e-16,27.6381949 0,24.3244864 L0,2.88186342 C-2.71849239e-16,2.18569988 0.118562429,1.51722807 0.336596634,0.895538661 C1.15703316,3.23242294 3.38282973,4.90809293 6,4.90809293 L6,4.90809293 L27.442623,4.90809293 C30.0601679,4.90809293 32.2862271,3.23194312 33.1060263,0.894417696 C33.3239329,1.51650852 33.442623,2.18532519 33.442623,2.88186342 Z" id="path-18"></path>
        <filter x="-1.0%" y="1.3%" width="102.1%" height="99.9%" filterUnits="objectBoundingBox" id="filter-19">
            <feOffset dx="0" dy="0.5" in="SourceAlpha" result="shadowOffsetInner1"></feOffset>
            <feComposite in="shadowOffsetInner1" in2="SourceAlpha" operator="arithmetic" k2="-1" k3="1" result="shadowInnerInner1"></feComposite>
            <feColorMatrix values="0 0 0 0 0.770670573   0 0 0 0 0.770670573   0 0 0 0 0.770670573  0 0 0 0.5 0" type="matrix" in="shadowInnerInner1" result="shadowMatrixInner1"></feColorMatrix>
            <feOffset dx="0" dy="0.7" in="SourceAlpha" result="shadowOffsetInner2"></feOffset>
            <feComposite in="shadowOffsetInner2" in2="SourceAlpha" operator="arithmetic" k2="-1" k3="1" result="shadowInnerInner2"></feComposite>
            <feColorMatrix values="0 0 0 0 1   0 0 0 0 1   0 0 0 0 1  0 0 0 0.848847929 0" type="matrix" in="shadowInnerInner2" result="shadowMatrixInner2"></feColorMatrix>
            <feMerge>
                <feMergeNode in="shadowMatrixInner1"></feMergeNode>
                <feMergeNode in="shadowMatrixInner2"></feMergeNode>
            </feMerge>
        </filter>
        <linearGradient x1="6.32667449%" y1="45.971413%" x2="0%" y2="45.971413%" id="linearGradient-20">
            <stop stop-color="#FFFFFF" stop-opacity="0" offset="0%"></stop>
            <stop stop-color="#FFFFFF" stop-opacity="0.769401497" offset="100%"></stop>
        </linearGradient>
        <path d="M13.3197844,6.51843162 C13.1647342,7.26264168 12.9433145,7.93070202 12.6510459,8.52262217 C11.6546908,10.540461 9.95189955,11.5991457 7.54283465,11.6968042 C6.40022579,11.7417318 5.32192348,11.5933101 4.30558774,11.2533822 L4.30558774,11.2397243 L3.85612,12.2886575 C3.76572025,12.4550255 3.69176724,12.5090456 3.59380316,12.5759978 C3.51651686,12.6288241 3.3817052,12.6653469 3.29135319,12.6746878 C3.19902416,12.6842387 3.13216751,12.6778682 3.01119517,12.6428545 C2.91548509,12.6151471 2.87566719,12.5707257 2.84245852,12.547345 C2.80925942,12.5238687 2.73283271,12.4375472 2.7151157,12.4200021 L0.443909231,8.84492855 C0.38638385,8.74725097 0.353184751,8.65348929 0.342048346,8.56164736 C0.331026544,8.47179201 0.337616699,8.39559453 0.357616384,8.33310267 C0.377501467,8.27062989 0.410710117,8.21197751 0.459477283,8.15731741 C0.504086055,8.1081547 0.552971933,8.06304993 0.605559068,8.0225344 C0.654307117,7.98542895 0.707410401,7.95613619 0.76502173,7.92877272 C0.82254711,7.90140924 0.86244143,7.88577433 0.88016799,7.88185846 C0.900072176,7.87795212 0.913367089,7.8721165 0.924398443,7.86236497 L4.90122321,6.88176887 C5.11379872,6.8368412 5.31725307,6.82197992 5.44350708,6.84543707 C5.56970378,6.8688942 5.59723918,6.87664002 5.67910038,6.90592323 C5.76106664,6.93719304 5.85419795,7.01416415 5.89540075,7.09074367 C5.93477932,7.16394216 5.95075806,7.23141963 5.96189446,7.28608927 C5.97291626,7.34081621 5.97291626,7.40330809 5.96189446,7.47360307 C5.95076761,7.54391717 5.94190433,7.59275118 5.93304105,7.61429813 C5.92200014,7.63767885 5.91756851,7.65138448 5.91756851,7.66113599 L5.45256139,8.71015509 C6.27631177,8.98944398 7.05122812,9.16134199 7.78192359,9.22779749 C8.51270503,9.29419571 9.13483484,9.2785608 9.64636464,9.18088322 C10.1578944,9.08320565 10.6361105,8.92105917 11.0767054,8.69642081 C11.5173958,8.47180156 11.8650313,8.2490925 12.1219137,8.03035663 C12.3787197,7.8115539 12.6090122,7.56937046 12.8105468,7.30363435 C13.0142304,7.03799376 13.1404271,6.85637289 13.1957939,6.75870487 C13.248945,6.66296614 13.2910073,6.58092348 13.3197844,6.51843162 Z M0.00774597051,5.90931974 C0.220321482,5.03028846 0.519275773,4.25871493 0.906767396,3.59456094 C2.02051328,1.73887812 3.7852806,0.832540664 6.20538639,0.877468338 C7.27934302,0.895032539 8.255794,1.06890759 9.13708886,1.40285657 L9.61532405,0.367648157 C9.68253409,0.254889638 9.75212231,0.176972981 9.82739336,0.118387442 C9.90490887,0.0597446091 9.98293058,0.0375290933 10.0493097,0.0238043831 C10.1179619,0.0101465181 10.1906542,0.00392885145 10.2615605,0.0137281225 C10.3345584,0.0234700853 10.3678148,0.0280545544 10.4291032,0.0483503317 C10.4842886,0.066630857 10.4960936,0.0692000596 10.5492828,0.098492822 C10.6023766,0.129772182 10.6507617,0.166142206 10.6997103,0.213896955 L10.7888493,0.318957403 L12.9388734,3.87977142 C12.9876118,3.98717185 13.0163889,4.08484942 13.0252521,4.17668182 C13.0363599,4.26653717 13.0296838,4.34273465 13.0097796,4.40522651 C12.9898945,4.46769928 12.9544223,4.52635167 12.9012426,4.57910157 C12.8481298,4.6337521 12.7972232,4.67677914 12.748456,4.70606235 C12.6975689,4.73923468 12.644298,4.76859799 12.5890793,4.793912 L12.4739331,4.84863894 C12.4540289,4.8583809 12.440734,4.86229681 12.4296167,4.86229681 L8.42402444,5.75108915 C8.15167909,5.7881755 7.9347579,5.78235896 7.77086359,5.7374313 C7.60703614,5.69250362 7.49569115,5.58449193 7.44918759,5.50828488 C7.4005255,5.43215426 7.38001961,5.38211682 7.37118497,5.27507933 C7.36345824,5.18146091 7.36959951,5.13853894 7.38073592,5.09361127 C7.39175772,5.04868359 7.41879646,4.97169339 7.43870063,4.94432992 L7.93248477,3.90902599 C7.11984215,3.61409264 6.34710339,3.42458268 5.60973182,3.34454571 C4.87460472,3.26443234 4.25244625,3.26443234 3.74537673,3.34454571 C3.23827856,3.42458267 2.7577989,3.5730713 2.30833118,3.78796769 C1.85886345,4.00278767 1.50228827,4.21768405 1.24105066,4.43450018 C0.979736647,4.65130676 0.742844419,4.88766413 0.530268922,5.14748818 C0.317693411,5.40729313 0.182662082,5.58700383 0.122863577,5.68468139 C0.0675349242,5.78037236 0.0276501562,5.85657939 0.00774597051,5.90931974 L0.00774597051,5.90931974 Z" id="path-21"></path>
        <filter x="-1.9%" y="-5.9%" width="103.8%" height="111.8%" filterUnits="objectBoundingBox" id="filter-22">
            <feOffset dx="0" dy="0.5" in="SourceAlpha" result="shadowOffsetOuter1"></feOffset>
            <feComposite in="shadowOffsetOuter1" in2="SourceAlpha" operator="out" result="shadowOffsetOuter1"></feComposite>
            <feColorMatrix values="0 0 0 0 1   0 0 0 0 1   0 0 0 0 1  0 0 0 0.99737933 0" type="matrix" in="shadowOffsetOuter1" result="shadowMatrixOuter1"></feColorMatrix>
            <feOffset dx="0" dy="-0.5" in="SourceAlpha" result="shadowOffsetOuter2"></feOffset>
            <feComposite in="shadowOffsetOuter2" in2="SourceAlpha" operator="out" result="shadowOffsetOuter2"></feComposite>
            <feColorMatrix values="0 0 0 0 0   0 0 0 0 0   0 0 0 0 0  0 0 0 0.0708280977 0" type="matrix" in="shadowOffsetOuter2" result="shadowMatrixOuter2"></feColorMatrix>
            <feMerge>
                <feMergeNode in="shadowMatrixOuter1"></feMergeNode>
                <feMergeNode in="shadowMatrixOuter2"></feMergeNode>
            </feMerge>
        </filter>
        <linearGradient x1="100%" y1="35.3435954%" x2="0%" y2="35.3435954%" id="linearGradient-23">
            <stop stop-color="#E9E9E9" offset="0%"></stop>
            <stop stop-color="#B7B7B7" stop-opacity="0.130180917" offset="7.69227124%"></stop>
            <stop stop-color="#E5E5E5" stop-opacity="0.667997774" offset="17.5497506%"></stop>
            <stop stop-color="#DDDDDD" offset="82.3456386%"></stop>
            <stop stop-color="#B7B7B7" stop-opacity="0" offset="87.2079069%"></stop>
            <stop stop-color="#E9E9E9" offset="100%"></stop>
        </linearGradient>
        <path d="M0,25.4360656 C4.05812251e-16,28.7497741 2.6862915,31.4360656 6,31.4360656 L6,31.4360656 L27.442623,31.4360656 C30.7563314,31.4360656 33.442623,28.7497741 33.442623,25.4360656 L33.442623,25.4360656 L33.442623,27.442623 C33.442623,30.7563314 30.7563314,33.442623 27.442623,33.442623 L6,33.442623 C2.6862915,33.442623 4.05812251e-16,30.7563314 0,27.442623 Z" id="path-24"></path>
        <filter x="-0.7%" y="9.9%" width="101.5%" height="92.8%" filterUnits="objectBoundingBox" id="filter-25">
            <feOffset dx="0" dy="-0.5" in="SourceAlpha" result="shadowOffsetInner1"></feOffset>
            <feComposite in="shadowOffsetInner1" in2="SourceAlpha" operator="arithmetic" k2="-1" k3="1" result="shadowInnerInner1"></feComposite>
            <feColorMatrix values="0 0 0 0 0.579070603   0 0 0 0 0.579070603   0 0 0 0 0.579070603  0 0 0 1 0" type="matrix" in="shadowInnerInner1" result="shadowMatrixInner1"></feColorMatrix>
            <feOffset dx="0" dy="0.5" in="SourceAlpha" result="shadowOffsetInner2"></feOffset>
            <feComposite in="shadowOffsetInner2" in2="SourceAlpha" operator="arithmetic" k2="-1" k3="1" result="shadowInnerInner2"></feComposite>
            <feColorMatrix values="0 0 0 0 1   0 0 0 0 1   0 0 0 0 1  0 0 0 0.7434543 0" type="matrix" in="shadowInnerInner2" result="shadowMatrixInner2"></feColorMatrix>
            <feMerge>
                <feMergeNode in="shadowMatrixInner1"></feMergeNode>
                <feMergeNode in="shadowMatrixInner2"></feMergeNode>
            </feMerge>
        </filter>
    </defs>
    <g id="dcc_nav_update_42px" stroke="none" stroke-width="1" fill="none" fill-rule="evenodd">
        <g id="编组-2" filter="url(#filter-1)" transform="translate(3.000000, 3.000000)">
            <path d="M6,0 L27.442623,0 C30.7563314,-6.08718376e-16 33.442623,2.6862915 33.442623,6 L33.442623,25.442623 C33.442623,29.8609009 29.8609009,33.442623 25.442623,33.442623 L8,33.442623 C3.581722,33.442623 5.41083001e-16,29.8609009 0,25.442623 L0,6 C-4.05812251e-16,2.6862915 2.6862915,6.08718376e-16 6,0 Z" id="矩形备份-35" fill="url(#linearGradient-2)"></path>
            <path d="M14.6199214,2.77336101 L24.6920525,2.77336101 C28.005761,2.77336101 30.6920525,5.45965251 30.6920525,8.77336101 L30.6920525,18.8454922 C30.6920525,22.1592007 28.005761,24.8454922 24.6920525,24.8454922 L14.6199214,24.8454922 C11.3062129,24.8454922 8.61992139,22.1592007 8.61992139,18.8454922 L8.61992139,8.77336101 C8.61992139,5.45965251 11.3062129,2.77336101 14.6199214,2.77336101 Z" id="矩形备份-35" fill="url(#linearGradient-3)" transform="translate(19.655987, 13.809427) rotate(-15.000000) translate(-19.655987, -13.809427) "></path>
            <g id="椭圆形备份-4">
                <use fill="black" fill-opacity="1" filter="url(#filter-6)" xlink:href="#path-5"></use>
                <use fill="url(#radialGradient-4)" fill-rule="evenodd" xlink:href="#path-5"></use>
                <use fill="black" fill-opacity="1" filter="url(#filter-7)" xlink:href="#path-5"></use>
            </g>
            <g id="椭圆形备份-6">
                <use fill="black" fill-opacity="1" filter="url(#filter-10)" xlink:href="#path-9"></use>
                <use fill="url(#radialGradient-8)" fill-rule="evenodd" xlink:href="#path-9"></use>
                <use fill="black" fill-opacity="1" filter="url(#filter-11)" xlink:href="#path-9"></use>
            </g>
            <g id="椭圆形备份-5">
                <use fill="black" fill-opacity="1" filter="url(#filter-14)" xlink:href="#path-13"></use>
                <use fill="url(#radialGradient-12)" fill-rule="evenodd" xlink:href="#path-13"></use>
                <use fill="black" fill-opacity="1" filter="url(#filter-15)" xlink:href="#path-13"></use>
            </g>
            <path d="M27.442623,8.02647084 L6,8.02647084 C3.38254684,8.02647084 1.15655199,6.3504386 0.336682891,4.01304154 L33.1059401,4.01304154 C32.286071,6.3504386 30.0600761,8.02647084 27.442623,8.02647084 Z" id="形状结合" fill="url(#linearGradient-16)" style="mix-blend-mode: multiply;"></path>
            <g id="编组-14" transform="translate(0.000000, 3.118378)">
                <g id="形状结合" fill-rule="nonzero">
                    <use fill="url(#linearGradient-17)" xlink:href="#path-18"></use>
                    <use fill="black" fill-opacity="1" filter="url(#filter-19)" xlink:href="#path-18"></use>
                </g>
                <path d="M0.336682891,0.895051395 C1.13072443,3.15690639 3.24079011,4.79906304 5.74799024,4.90265498 L6,4.9078516 L20.065,4.90701733 L20.065,30.3240173 L6,30.324245 C2.6862915,30.324245 -4.82366169e-16,27.6379535 0,24.324245 L0,2.88162209 C-2.71885085e-16,2.18536675 0.118593699,1.51681045 0.336682891,0.895051395 Z" id="形状结合" fill="url(#linearGradient-20)" fill-rule="nonzero"></path>
                <g id="形状" transform="translate(10.701639, 10.927524)">
                    <use fill="black" fill-opacity="1" filter="url(#filter-22)" xlink:href="#path-21"></use>
                    <use fill-opacity="0.356610918" fill="#FFFFFF" fill-rule="evenodd" xlink:href="#path-21"></use>
                </g>
            </g>
            <g id="形状结合" fill-rule="nonzero">
                <use fill="url(#linearGradient-23)" xlink:href="#path-24"></use>
                <use fill="black" fill-opacity="1" filter="url(#filter-25)" xlink:href="#path-24"></use>
            </g>
        </g>
    </g>
</svg>