<?xml version="1.0" encoding="UTF-8"?>
<svg width="84px" height="84px" viewBox="0 0 84 84" version="1.1" xmlns="http://www.w3.org/2000/svg" xmlns:xlink="http://www.w3.org/1999/xlink">
    <title>设置中心/dcc_nav_defapp_84px</title>
    <defs>
        <filter x="-4.8%" y="-4.8%" width="109.5%" height="109.5%" filterUnits="objectBoundingBox" id="filter-1">
            <feOffset dx="0" dy="0" in="SourceAlpha" result="shadowOffsetOuter1"></feOffset>
            <feGaussianBlur stdDeviation="1" in="shadowOffsetOuter1" result="shadowBlurOuter1"></feGaussianBlur>
            <feColorMatrix values="0 0 0 0 0   0 0 0 0 0   0 0 0 0 0  0 0 0 0.2 0" type="matrix" in="shadowBlurOuter1" result="shadowMatrixOuter1"></feColorMatrix>
            <feMerge>
                <feMergeNode in="shadowMatrixOuter1"></feMergeNode>
                <feMergeNode in="SourceGraphic"></feMergeNode>
            </feMerge>
        </filter>
        <linearGradient x1="5.16299127%" y1="2.90150287%" x2="97.1586934%" y2="100%" id="linearGradient-2">
            <stop stop-color="#C478FF" offset="0%"></stop>
            <stop stop-color="#0080FF" offset="100%"></stop>
        </linearGradient>
        <radialGradient cx="28.3268954%" cy="11.4305777%" fx="28.3268954%" fy="11.4305777%" r="100.168755%" gradientTransform="translate(0.283269,0.114306),scale(0.885714,1.000000),rotate(46.892137),translate(-0.283269,-0.114306)" id="radialGradient-3">
            <stop stop-color="#507EFF" offset="0%"></stop>
            <stop stop-color="#9DD4FF" offset="100%"></stop>
        </radialGradient>
        <rect id="path-4" x="21" y="19.6595745" width="46.9148936" height="41.5531915" rx="7.14893617"></rect>
        <filter x="-3.2%" y="-3.6%" width="106.4%" height="107.2%" filterUnits="objectBoundingBox" id="filter-6">
            <feOffset dx="1" dy="1" in="SourceAlpha" result="shadowOffsetInner1"></feOffset>
            <feComposite in="shadowOffsetInner1" in2="SourceAlpha" operator="arithmetic" k2="-1" k3="1" result="shadowInnerInner1"></feComposite>
            <feColorMatrix values="0 0 0 0 1   0 0 0 0 1   0 0 0 0 1  0 0 0 0.670082359 0" type="matrix" in="shadowInnerInner1" result="shadowMatrixInner1"></feColorMatrix>
            <feGaussianBlur stdDeviation="1" in="SourceAlpha" result="shadowBlurInner2"></feGaussianBlur>
            <feOffset dx="1" dy="1" in="shadowBlurInner2" result="shadowOffsetInner2"></feOffset>
            <feComposite in="shadowOffsetInner2" in2="SourceAlpha" operator="arithmetic" k2="-1" k3="1" result="shadowInnerInner2"></feComposite>
            <feColorMatrix values="0 0 0 0 0.759720865   0 0 0 0 0.74715725   0 0 0 0 1  0 0 0 0.486111301 0" type="matrix" in="shadowInnerInner2" result="shadowMatrixInner2"></feColorMatrix>
            <feMerge>
                <feMergeNode in="shadowMatrixInner1"></feMergeNode>
                <feMergeNode in="shadowMatrixInner2"></feMergeNode>
            </feMerge>
        </filter>
    </defs>
    <g id="设置中心/dcc_nav_defapp_84px" stroke="none" stroke-width="1" fill="none" fill-rule="evenodd">
        <g id="编组-2" filter="url(#filter-1)">
            <rect id="矩形" x="0" y="0" width="84" height="84"></rect>
            <g id="编组" transform="translate(8.936170, 12.957447)">
                <g id="矩形备份-12">
                    <path d="M7.14893617,0 L47.3617021,0 C51.3099506,2.78146758e-15 54.5106383,3.20068775 54.5106383,7.14893617 L54.5106383,47.3617021 C54.5106383,51.3099506 51.3099506,54.5106383 47.3617021,54.5106383 L7.14893617,54.5106383 C3.20068775,54.5106383 1.3716994e-15,51.3099506 0,47.3617021 L0,7.14893617 C-4.8352098e-16,3.20068775 3.20068775,1.61345989e-15 7.14893617,0 Z" id="蒙版" fill="url(#linearGradient-2)"></path>
                    <path d="M7.14893617,0 L47.3617021,0 C51.3099506,-7.25281469e-16 54.5106383,3.20068775 54.5106383,7.14893617 L54.5106383,8.93617021 L54.5106383,8.93617021 L0,8.93617021 L0,7.14893617 C4.0465744e-16,3.20068775 3.20068775,7.25281469e-16 7.14893617,0 Z" fill="#DDC3FF"></path>
                </g>
                <path d="M4.46808511,11.6170213 L50.0425532,11.6170213 C51.0296153,11.6170213 51.8297872,12.4171932 51.8297872,13.4042553 L51.8297872,46.4680851 C51.8297872,49.4292714 49.4292714,51.8297872 46.4680851,51.8297872 L8.04255319,51.8297872 C5.08136687,51.8297872 2.68085106,49.4292714 2.68085106,46.4680851 L2.68085106,13.4042553 C2.68085106,12.4171932 3.481023,11.6170213 4.46808511,11.6170213 Z" id="矩形备份-12" fill="#387DFF" style="mix-blend-mode: multiply;" opacity="0.449999988"></path>
                <mask id="mask-5" fill="white">
                    <use xlink:href="#path-4"></use>
                </mask>
                <g id="矩形" fill-rule="nonzero">
                    <use fill="url(#radialGradient-3)" xlink:href="#path-4"></use>
                    <use fill="black" fill-opacity="1" filter="url(#filter-6)" xlink:href="#path-4"></use>
                </g>
                <path d="M45.6098571,48.7209338 C45.6096346,49.9008061 46.0783357,51.0324362 46.9128398,51.86685 C47.747344,52.7012637 48.8792843,53.1701015 50.0596183,53.1702128 C52.5179073,53.1702128 54.5106383,51.1778418 54.5106383,48.7209338 C54.5106383,46.2640258 52.5174877,44.2716548 50.0596183,44.2716548 L45.6098571,44.2716548 L45.6098571,48.7209338 Z M44.6313251,48.7140129 C44.6313251,49.891825 44.1630772,51.0213596 43.3297747,51.8540609 C42.4964722,52.6867622 41.3663409,53.1543979 40.1880679,53.1540643 C37.7348143,53.1540643 35.7460696,51.1660973 35.7460696,48.7140129 C35.7460696,46.2619286 37.7348143,44.2739618 40.1880679,44.2739618 L44.6313251,44.2739618 L44.6313251,48.7140129 Z M44.6313251,38.8461141 C44.6313251,37.0496681 43.5488989,35.4300647 41.8885742,34.7425358 C40.2282495,34.055007 38.317091,34.4349527 37.0462848,35.7052018 C35.7754787,36.9754509 35.395294,38.885844 36.0830135,40.5455517 C36.770733,42.2052594 38.3909191,43.2874236 40.1880679,43.2874236 L44.6313251,43.2874236 L44.6313251,38.8461141 Z" id="形状" fill="#FFFFFF" fill-rule="nonzero"></path>
                <path d="M45.6184592,38.8461141 C45.6184592,36.3942394 47.6069941,34.4066921 50.0600379,34.4066921 C52.5130818,34.4066921 54.501407,36.3942394 54.501407,38.8461141 C54.5016851,40.0239261 54.0338131,41.1535933 53.2007466,41.9865305 C52.3676802,42.8194678 51.2376815,43.2874236 50.0594085,43.2874236 L45.6184592,43.2874236 L45.6184592,38.8461141 Z" id="路径" fill="#FFFFFF" opacity="0.5"></path>
                <path d="M28.1489362,19.6595745 L60.7659574,19.6595745 C64.7142059,19.6595745 67.9148936,22.8602622 67.9148936,26.8085106 L67.9148936,27.7021277 L67.9148936,27.7021277 L21,27.7021277 L21,26.8085106 C21,22.8602622 24.2006877,19.6595745 28.1489362,19.6595745 Z" id="矩形" fill="#A3CAFF" fill-rule="nonzero"></path>
            </g>
        </g>
    </g>
</svg>