<?xml version="1.0" encoding="UTF-8"?>
<svg width="42px" height="42px" viewBox="0 0 42 42" version="1.1" xmlns="http://www.w3.org/2000/svg" xmlns:xlink="http://www.w3.org/1999/xlink">
    <title>设置中心/dcc_nav_power_42px</title>
    <defs>
        <filter x="-11.3%" y="-8.1%" width="119.4%" height="116.1%" filterUnits="objectBoundingBox" id="filter-1">
            <feOffset dx="0" dy="0" in="SourceAlpha" result="shadowOffsetOuter1"></feOffset>
            <feGaussianBlur stdDeviation="0.5" in="shadowOffsetOuter1" result="shadowBlurOuter1"></feGaussianBlur>
            <feColorMatrix values="0 0 0 0 0   0 0 0 0 0   0 0 0 0 0  0 0 0 0.2 0" type="matrix" in="shadowBlurOuter1" result="shadowMatrixOuter1"></feColorMatrix>
            <feMerge>
                <feMergeNode in="shadowMatrixOuter1"></feMergeNode>
                <feMergeNode in="SourceGraphic"></feMergeNode>
            </feMerge>
        </filter>
        <linearGradient x1="50%" y1="0%" x2="50%" y2="100%" id="linearGradient-2">
            <stop stop-color="#5DEA7C" offset="0%"></stop>
            <stop stop-color="#34D74E" offset="100%"></stop>
        </linearGradient>
        <path d="M2.8362557,19.0591154 C1.36166081,19.0591154 0.166265471,14.8383368 0.166265471,9.63174253 C0.166265471,4.42514824 1.36166081,0.204369623 2.8362557,0.204369623 L2.8362557,0.204369623 L25.0023159,0.204369623 L25.0023159,19.0591154 Z" id="path-3"></path>
        <filter x="-12.1%" y="-10.6%" width="132.2%" height="142.4%" filterUnits="objectBoundingBox" id="filter-4">
            <feOffset dx="1" dy="2" in="SourceAlpha" result="shadowOffsetOuter1"></feOffset>
            <feGaussianBlur stdDeviation="1" in="shadowOffsetOuter1" result="shadowBlurOuter1"></feGaussianBlur>
            <feColorMatrix values="0 0 0 0 0   0 0 0 0 0   0 0 0 0 0  0 0 0 0.155058321 0" type="matrix" in="shadowBlurOuter1"></feColorMatrix>
        </filter>
        <linearGradient x1="50%" y1="0%" x2="50.014299%" y2="100%" id="linearGradient-5">
            <stop stop-color="#41C144" offset="0%"></stop>
            <stop stop-color="#65FB67" offset="67.5387099%"></stop>
            <stop stop-color="#41C144" offset="100%"></stop>
        </linearGradient>
        <linearGradient x1="50%" y1="10.2958189%" x2="50%" y2="41.4324922%" id="linearGradient-6">
            <stop stop-color="#2BC536" stop-opacity="0.392969091" offset="0%"></stop>
            <stop stop-color="#85A785" stop-opacity="0" offset="100%"></stop>
        </linearGradient>
        <path d="M25.0023159,19.0591154 C26.1819918,19.0591154 27.1383081,14.8383368 27.1383081,9.63174253 C27.1383081,4.42514824 26.1819918,0.204369623 25.0023159,0.204369623 C23.82264,0.204369623 22.8663237,4.42514824 22.8663237,9.63174253 C22.8663237,14.8383368 23.82264,19.0591154 25.0023159,19.0591154 Z" id="path-7"></path>
        <filter x="0.0%" y="0.0%" width="100.0%" height="100.0%" filterUnits="objectBoundingBox" id="filter-8">
            <feOffset dx="0" dy="0" in="SourceAlpha" result="shadowOffsetOuter1"></feOffset>
            <feColorMatrix values="0 0 0 0 1   0 0 0 0 1   0 0 0 0 1  0 0 0 0.897124604 0" type="matrix" in="shadowOffsetOuter1"></feColorMatrix>
        </filter>
        <linearGradient x1="50%" y1="0%" x2="50%" y2="100%" id="linearGradient-9">
            <stop stop-color="#C3FFCB" offset="0%"></stop>
            <stop stop-color="#D5FFDB" offset="46.1250023%"></stop>
            <stop stop-color="#D5FFDB" offset="100%"></stop>
        </linearGradient>
        <path d="M28.110712,12.8357308 C28.4056309,12.8357308 28.64471,11.2817169 28.64471,9.36474351 C28.64471,7.44777016 28.4056309,5.89375621 28.110712,5.89375621 C27.815793,5.89375621 27.5767139,7.44777016 27.5767139,9.36474351 C27.5767139,11.2817169 27.815793,12.8357308 28.110712,12.8357308 Z" id="path-10"></path>
        <filter x="0.0%" y="0.0%" width="100.0%" height="100.0%" filterUnits="objectBoundingBox" id="filter-11">
            <feOffset dx="0" dy="0" in="SourceAlpha" result="shadowOffsetInner1"></feOffset>
            <feComposite in="shadowOffsetInner1" in2="SourceAlpha" operator="arithmetic" k2="-1" k3="1" result="shadowInnerInner1"></feComposite>
            <feColorMatrix values="0 0 0 0 1   0 0 0 0 1   0 0 0 0 1  0 0 0 0.825774079 0" type="matrix" in="shadowInnerInner1"></feColorMatrix>
        </filter>
        <radialGradient cx="27.7048929%" cy="10.6803319%" fx="27.7048929%" fy="10.6803319%" r="127.795812%" gradientTransform="translate(0.277049,0.106803),scale(1.000000,0.658701),rotate(61.360806),translate(-0.277049,-0.106803)" id="radialGradient-12">
            <stop stop-color="#FFFFFF" stop-opacity="0.978986833" offset="0%"></stop>
            <stop stop-color="#FFFFFF" stop-opacity="0.64256276" offset="100%"></stop>
        </radialGradient>
    </defs>
    <g id="设置中心/dcc_nav_power_42px" stroke="none" stroke-width="1" fill="none" fill-rule="evenodd">
        <g id="编组-3">
            <rect id="矩形" x="0" y="0" width="42" height="42"></rect>
            <g id="编组" filter="url(#filter-1)" transform="translate(5.808511, 5.808511)">
                <rect id="矩形" fill="url(#linearGradient-2)" x="-8.10018719e-13" y="9.9475983e-14" width="30.3829787" height="30.3829787" rx="3.57446809"></rect>
                <g id="编组-2" transform="translate(0.893617, 5.361702)">
                    <g id="形状结合" fill-rule="nonzero">
                        <use fill="black" fill-opacity="1" filter="url(#filter-4)" xlink:href="#path-3"></use>
                        <use fill="#D2FFDA" xlink:href="#path-3"></use>
                    </g>
                    <path d="M3.55669069,18.3339329 C2.2785653,18.1260284 1.25918058,14.309995 1.25918058,9.63174253 C1.25918058,4.95349004 2.2785653,1.13745669 3.55682133,0.937765188 L3.55669069,0.929552154 L18.4229326,0.929552154 L18.4229326,18.3339329 L3.55669069,18.3339329 Z" id="形状结合" fill="url(#linearGradient-5)" fill-rule="nonzero"></path>
                    <path d="M18.4229326,18.3339329 C19.455149,18.3339329 20.2919257,14.4378296 20.2919257,9.63174253 C20.2919257,4.8256555 19.455149,0.929552154 18.4229326,0.929552154 C17.3907162,0.929552154 16.5539394,4.8256555 16.5539394,9.63174253 C16.5539394,14.4378296 17.3907162,18.3339329 18.4229326,18.3339329 Z" id="椭圆形备份-2" fill="#9AFF9A"></path>
                    <path d="M2.57439799,19.0591154 L2.57432598,19.0125423 C1.22512827,18.5394302 0.17140678,14.5200766 0.17140678,9.63174253 C0.17140678,4.74340847 1.22512827,0.724054839 2.57432598,0.250942751 L2.57439799,0.204369623 L25.0023159,0.204369623 L25.0023159,19.0591154 L2.57439799,19.0591154 Z" id="形状结合" fill="url(#linearGradient-6)" fill-rule="nonzero"></path>
                    <g id="椭圆形">
                        <use fill="black" fill-opacity="1" filter="url(#filter-8)" xlink:href="#path-7"></use>
                        <use fill="#ADF8BB" fill-rule="evenodd" xlink:href="#path-7"></use>
                    </g>
                    <path d="M24.6397247,13.3697289 C24.0534258,13.3552616 23.579116,11.5677169 23.579116,9.36474351 C23.579116,7.15285118 24.0572741,5.35975817 24.6471121,5.35975817 L24.639116,5.36075817 L24.6397247,5.35975817 C24.6776912,5.35975817 24.7079702,5.36457751 24.737898,5.37402472 L28.110712,5.89375621 L28.110712,12.8357308 L24.737898,13.3554623 C24.7079702,13.3649095 24.6776912,13.3697289 24.6471121,13.3697289 L24.6471121,13.3697289 L24.6397247,13.3697289 Z" id="形状结合" fill="url(#linearGradient-9)" fill-rule="nonzero"></path>
                    <g id="椭圆形">
                        <use fill="#ADF8BB" fill-rule="evenodd" xlink:href="#path-10"></use>
                        <use fill="black" fill-opacity="1" filter="url(#filter-11)" xlink:href="#path-10"></use>
                    </g>
                </g>
            </g>
        </g>
        <path d="M16.4746919,15.5066675 C16.51082,15.5350538 16.5319149,15.5784559 16.5319149,15.6244017 L16.5313536,20.5526669 L18.9047052,20.5531915 C18.9873979,20.5531915 19.0544336,20.6202272 19.0544336,20.7029199 C19.0544336,20.7364686 19.0431665,20.7690453 19.0224394,20.7954253 L14.5653349,26.4681037 C14.5142456,26.5331265 14.4201181,26.5444218 14.3550953,26.4933325 C14.3189673,26.4649462 14.2978723,26.4215441 14.2978723,26.3755983 L14.2973536,21.4466669 L11.925082,21.4468085 C11.8423893,21.4468085 11.7753536,21.3797728 11.7753536,21.2970801 C11.7753536,21.2635314 11.7866207,21.2309547 11.8073478,21.2045747 L16.2644523,15.5318963 C16.3155417,15.4668735 16.4096691,15.4555782 16.4746919,15.5066675 Z" id="形状结合" fill="url(#radialGradient-12)" fill-rule="nonzero"></path>
    </g>
</svg>