<?xml version="1.0" encoding="UTF-8"?>
<svg width="153px" height="32px" viewBox="0 0 153 32" version="1.1" xmlns="http://www.w3.org/2000/svg" xmlns:xlink="http://www.w3.org/1999/xlink">
    <title>编组</title>
    <defs>
        <linearGradient x1="-29.7410192%" y1="46.0363873%" x2="1782.53968%" y2="135.867446%" id="linearGradient-1">
            <stop stop-color="#0071FF" offset="0%"></stop>
            <stop stop-color="#00DDFF" stop-opacity="0.75" offset="21%"></stop>
            <stop stop-color="#006CFF" stop-opacity="0.92" offset="46%"></stop>
            <stop stop-color="#00FCA7" offset="72%"></stop>
            <stop stop-color="#00A2FF" offset="100%"></stop>
        </linearGradient>
        <linearGradient x1="1.9182998%" y1="42.8897548%" x2="388.266659%" y2="114.10759%" id="linearGradient-2">
            <stop stop-color="#0071FF" offset="0%"></stop>
            <stop stop-color="#00DDFF" stop-opacity="0.75" offset="21%"></stop>
            <stop stop-color="#006CFF" stop-opacity="0.92" offset="46%"></stop>
            <stop stop-color="#00FCA7" offset="72%"></stop>
            <stop stop-color="#00A2FF" offset="100%"></stop>
        </linearGradient>
        <linearGradient x1="-215.806582%" y1="38.127806%" x2="600.650142%" y2="78.2925585%" id="linearGradient-3">
            <stop stop-color="#0071FF" offset="0%"></stop>
            <stop stop-color="#00DDFF" stop-opacity="0.75" offset="21%"></stop>
            <stop stop-color="#006CFF" stop-opacity="0.92" offset="46%"></stop>
            <stop stop-color="#00FCA7" offset="72%"></stop>
            <stop stop-color="#00A2FF" offset="100%"></stop>
        </linearGradient>
        <linearGradient x1="-218.479579%" y1="43.5082873%" x2="594.015366%" y2="63.1599141%" id="linearGradient-4">
            <stop stop-color="#0071FF" offset="0%"></stop>
            <stop stop-color="#00DDFF" stop-opacity="0.75" offset="21%"></stop>
            <stop stop-color="#006CFF" stop-opacity="0.92" offset="46%"></stop>
            <stop stop-color="#00FCA7" offset="72%"></stop>
            <stop stop-color="#00A2FF" offset="100%"></stop>
        </linearGradient>
        <linearGradient x1="-223.928169%" y1="29.6835897%" x2="578.859348%" y2="89.2256738%" id="linearGradient-5">
            <stop stop-color="#0071FF" offset="0%"></stop>
            <stop stop-color="#00DDFF" stop-opacity="0.75" offset="21%"></stop>
            <stop stop-color="#006CFF" stop-opacity="0.92" offset="46%"></stop>
            <stop stop-color="#00FCA7" offset="72%"></stop>
            <stop stop-color="#00A2FF" offset="100%"></stop>
        </linearGradient>
        <linearGradient x1="-3.69128763%" y1="31.8258004%" x2="223.0943%" y2="103.322166%" id="linearGradient-6">
            <stop stop-color="#0071FF" offset="0%"></stop>
            <stop stop-color="#00DDFF" stop-opacity="0.75" offset="21%"></stop>
            <stop stop-color="#006CFF" stop-opacity="0.92" offset="46%"></stop>
            <stop stop-color="#00FCA7" offset="72%"></stop>
            <stop stop-color="#00A2FF" offset="100%"></stop>
        </linearGradient>
        <linearGradient x1="-11.0019488%" y1="33.332482%" x2="331.129629%" y2="104.158863%" id="linearGradient-7">
            <stop stop-color="#0071FF" offset="0%"></stop>
            <stop stop-color="#00DDFF" stop-opacity="0.75" offset="21%"></stop>
            <stop stop-color="#006CFF" stop-opacity="0.92" offset="46%"></stop>
            <stop stop-color="#00EAB9" offset="72%"></stop>
            <stop stop-color="#00A2FF" offset="100%"></stop>
        </linearGradient>
        <linearGradient x1="-129.051442%" y1="12.671183%" x2="212.964615%" y2="84.0067552%" id="linearGradient-8">
            <stop stop-color="#0071FF" offset="0%"></stop>
            <stop stop-color="#00DDFF" stop-opacity="0.75" offset="21%"></stop>
            <stop stop-color="#006CFF" stop-opacity="0.92" offset="46%"></stop>
            <stop stop-color="#00EAB9" offset="72%"></stop>
            <stop stop-color="#00A2FF" offset="100%"></stop>
        </linearGradient>
        <linearGradient x1="34.3216395%" y1="47.018878%" x2="551.792951%" y2="145.962255%" id="linearGradient-9">
            <stop stop-color="#0071FF" offset="0%"></stop>
            <stop stop-color="#00DDFF" stop-opacity="0.75" offset="21%"></stop>
            <stop stop-color="#006CFF" stop-opacity="0.92" offset="46%"></stop>
            <stop stop-color="#00FCA7" offset="72%"></stop>
            <stop stop-color="#00A2FF" offset="100%"></stop>
        </linearGradient>
        <linearGradient x1="-253.140547%" y1="-20.9163939%" x2="104.508706%" y2="62.7789348%" id="linearGradient-10">
            <stop stop-color="#0071FF" offset="0%"></stop>
            <stop stop-color="#00DDFF" stop-opacity="0.75" offset="21%"></stop>
            <stop stop-color="#006CFF" stop-opacity="0.92" offset="46%"></stop>
            <stop stop-color="#00EAB9" offset="72%"></stop>
            <stop stop-color="#00A2FF" offset="100%"></stop>
        </linearGradient>
    </defs>
    <g id="桌面版" stroke="none" stroke-width="1" fill="none" fill-rule="evenodd">
        <g id="系统信息1" transform="translate(-1103.000000, -329.000000)">
            <g id="控制中心" transform="translate(550.000000, 223.000000)">
                <g id="编组" transform="translate(450.000000, 60.000000)">
                    <g id="信息" transform="translate(10.000000, 10.000000)">
                        <g id="编组" transform="translate(93.000000, 36.000000)">
                            <rect id="矩形" x="0" y="0" width="153" height="32"></rect>
                            <path d="M10.625,26 C10.8090949,26 10.9622063,26.1326564 10.9939582,26.3075933 L11,26.375 L11,28.625 C11,28.8090949 10.8673436,28.9622063 10.6924067,28.9939582 L10.625,29 L2.375,29 C2.19090508,29 2.03779372,28.8673436 2.00604175,28.6924067 L2,28.625 L2,26.375 C2,26.1909051 2.13265637,26.0377937 2.30759328,26.0060418 L2.375,26 L10.625,26 Z" id="路径" fill="url(#linearGradient-1)" fill-rule="nonzero"></path>
                            <path d="M20.5490661,2.48709116 L21.51275,5.06175 L21.51275,5.06175 L27.6279907,5.06245667 C27.8350806,5.06252393 28.0029474,5.23041014 28.0029907,5.4375 L28.0029907,7.54321289 C28.0029907,7.75031967 27.8350975,7.91821289 27.6279907,7.91821289 L18.827,7.91821289 L18.827,7.91821289 L15.8495,14.00075 L24.12125,14 L22.4997658,10.5339016 C22.4120069,10.3463074 22.4929394,10.1230895 22.6805336,10.0353306 C22.730275,10.012061 22.78452,10 22.8394352,10 L25.1600088,10 C25.4481803,10 25.7108677,10.1651092 25.8358273,10.424778 L27.9651489,14.8495561 C28.3243791,15.5960446 28.0104443,16.4924068 27.2639557,16.8516371 C27.0610274,16.9492916 26.8387147,17 26.6135118,17 L25.0100161,17 L25.0100161,17 L25.0107661,25.625 C25.0107661,25.8090949 25.1434225,25.9622063 25.3183594,25.9939582 L25.3857661,26 L27.5681152,26 C27.7522102,26 27.9053215,26.1326564 27.9370735,26.3075933 L27.9431152,26.375 L27.9431152,28.625 C27.9431152,28.8090949 27.8104589,28.9622063 27.635522,28.9939582 L27.5681152,29 L24.12125,29 C23.0134345,29 22.082243,28.1495001 22.0147855,27.0455666 L22.0108742,26.9170989 L22.0101242,17 L19.0403877,17 L19.0411377,23.4504485 C19.0411377,26.4630047 16.0621554,28.9026436 13.0355387,28.9971575 L12.85325,29 L12.4560547,29 C12.2719598,29 12.1188484,28.8673436 12.0870964,28.6924067 L12.0810547,28.625 L12.0810547,26.375 C12.0810547,26.1909051 12.2137111,26.0377937 12.388648,26.0060418 L12.4560547,26 L12.85325,26 C14.2735883,26 15.954767,24.9256024 16.0296949,23.5895598 L16.0335869,23.4504485 L16.0328369,17 L13.4087097,17 C12.5802826,17 11.9087097,16.3284271 11.9087097,15.5 C11.9087097,15.2705759 11.9613362,15.044209 12.0625408,14.8383133 L15.464,7.91821289 L15.464,7.91821289 L12.3862915,7.91821289 C12.1791847,7.91821289 12.0112915,7.75031967 12.0112915,7.54321289 L12.0112915,5.4375 C12.0112915,5.23039322 12.1791847,5.0625 12.3862915,5.0625 L18.146,5.0625 L18.146,5.0625 L17.1895067,2.50642618 C17.1169221,2.31245535 17.215325,2.09636942 17.4092958,2.02378474 C17.4513284,2.00805599 17.495843,2 17.540722,2 L19.8466568,2 C20.1594597,2 20.4394146,2.19413689 20.5490661,2.48709116 Z" id="路径" fill="url(#linearGradient-2)" fill-rule="nonzero"></path>
                            <path d="M52.5500701,2.48466567 L53.51275,5.02982003 L53.51275,5.02982003 L60.625,5.02982003 C60.8090949,5.02982003 60.9622063,5.15615943 60.9939582,5.32276601 L61,5.38696289 L61,7.52982003 C61,7.70514853 60.8673436,7.85096887 60.6924067,7.88120884 L60.625,7.88696289 L43.375,7.88696289 C43.1909051,7.88696289 43.0377937,7.76062349 43.0060418,7.59401691 L43,7.52982003 L43,5.38696289 C43,5.2116344 43.1326564,5.06581405 43.3075933,5.03557408 L43.375,5.02982003 L50.146,5.02982003 L49.1920202,2.50766717 C49.1187501,2.31395419 49.2163884,2.09752168 49.4101014,2.02425162 C49.4524948,2.00821673 49.497444,2 49.5427686,2 L51.8485733,2 C52.1604281,2 52.4397424,2.19297882 52.5500701,2.48466567 Z" id="路径" fill="url(#linearGradient-3)" fill-rule="nonzero"></path>
                            <path d="M43.375,13 L60.625,13 C60.8321068,13 61,12.8321068 61,12.625 L61,10.375 C61,10.1678932 60.8321068,10 60.625,10 L43.375,10 C43.1678932,10 43,10.1678932 43,10.375 L43,12.625 C43,12.8321068 43.1678932,13 43.375,13 Z" id="Stroke-15" fill="url(#linearGradient-4)" fill-rule="nonzero"></path>
                            <path d="M43.375,17 L60.7,17 C60.8656854,17 61,16.8656854 61,16.7 L61,14.3 C61,14.1343146 60.8656854,14 60.7,14 L43.375,14 C43.1678932,14 43,14.1678932 43,14.375 L43,16.625 C43,16.8321068 43.1678932,17 43.375,17 Z" id="Stroke-17" fill="url(#linearGradient-4)" fill-rule="nonzero"></path>
                            <path d="M44.125,29 L58,29 C59.6568542,29 61,27.6568542 61,26 L61,20.125 C61,19.5036797 60.4963203,19 59.875,19 L44.125,19 C43.5036797,19 43,19.5036797 43,20.125 L43,27.875 C43,28.4963203 43.5036797,29 44.125,29 Z M46,26 L46,22 L58,22 L58,24.875 C58,25.4963203 57.4963203,26 56.875,26 L46,26 L46,26 Z" id="Stroke-27" fill="url(#linearGradient-5)" fill-rule="nonzero"></path>
                            <path d="M42.2635862,2 C42.470693,2 42.6385862,2.16789322 42.6385862,2.375 C42.6385862,2.45425344 42.6134769,2.53146927 42.5668623,2.59556439 L38.999,7.5 L39,28.625 C39,28.8062184 38.8714568,28.957414 38.7005756,28.9923813 L38.625,29 L36.375,29 C36.1678932,29 36,28.8321068 36,28.625 L36,28.625 L35.999,11.625 L35.2246336,12.6911288 C35.0835004,12.885187 34.858034,13 34.6180816,13 L31.7364138,13 C31.529307,13 31.3614138,12.8321068 31.3614138,12.625 C31.3614138,12.5457466 31.3865231,12.4685307 31.4331377,12.4044356 L35.999,6.125 L36,6 L36.09,6 L38.7753664,2.30887123 C38.9164996,2.11481303 39.141966,2 39.3819184,2 L42.2635862,2 Z" id="形状结合" fill="url(#linearGradient-6)" fill-rule="nonzero"></path>
                            <path d="M67,5.52941176 L67,15.25 L67,15.25 C67,22.2914271 72.8205057,28 80,28 C87.1794943,28 93,22.2914271 93,15.25 L93,5.52941176 C93,4.68474097 92.315259,4 91.4705882,4 C90.6259174,4 89.9411765,4.68474097 89.9411765,5.52941176 L89.9411765,15.25 L89.9411765,15.25 C89.9411765,20.6345729 85.4901527,25 80,25 C74.5098473,25 70.0588235,20.6345729 70.0588235,15.25 L70.0588235,5.52941176 C70.0588235,4.68474097 69.3740826,4 68.5294118,4 C67.684741,4 67,4.68474097 67,5.52941176 Z" id="路径" fill="url(#linearGradient-7)" fill-rule="nonzero"></path>
                            <path d="M114,28 L108,28 C102.58999,28 98,23.4988248 98,18 L98,14 C98,8.50117523 102.58999,4 108,4 L114,4 C119.410671,4 124,8.50107288 124,14 L124,18 C124,23.4989271 119.410671,28 114,28 Z M114,25 C117.7611,25 121,21.8420729 121,18 L121,14 C121,10.1579271 117.7611,7 114,7 L108,7 C104.23948,7 101,10.1581108 101,14 L101,18 C101,21.8418892 104.23948,25 108,25 L114,25 Z" id="Stroke-21" fill="url(#linearGradient-8)" fill-rule="nonzero"></path>
                            <path d="M9.8832314,2.56466379 L5.43714286,10.1481481 L5.43714286,10.1481481 L7.1885,10.1481481 L9.61615053,10.1481481 C9.82325731,10.1481481 9.99115053,10.3160414 9.99115053,10.5231481 C9.99115053,10.5797376 9.9783431,10.6355933 9.95368797,10.6865295 L5.91171429,19.037037 L5.91171429,19.037037 L10.625,19.037037 C10.8321068,19.037037 11,19.2049303 11,19.412037 L11,21.625 C11,21.8321068 10.8321068,22 10.625,22 L3.92857143,22 L3.92857143,22 L3.19138483,22 C2.57006448,22 2.06638483,21.4963203 2.06638483,20.875 C2.06638483,20.709973 2.10269149,20.5469669 2.17273042,20.3975398 L5.588,13.1111111 L5.588,13.1111111 L2.35624322,13.1111111 C1.6106588,13.1111111 1.00624322,12.5066955 1.00624322,11.7611111 C1.00624322,11.5211057 1.07022655,11.2854393 1.19160238,11.0783874 L6.29612787,2.37070903 C6.43073895,2.14107947 6.67697416,2 6.94315056,2 L9.55973079,2 C9.76683757,2 9.93473079,2.16789322 9.93473079,2.375 C9.93473079,2.44167536 9.9169538,2.50714507 9.8832314,2.56466379 Z" id="路径" fill="url(#linearGradient-9)" fill-rule="nonzero"></path>
                            <path d="M145.25,13.5 C148.977927,13.5 152,16.5220729 152,20.25 C152,23.9779271 148.977927,27 145.25,27 L145.25,27 L131,27 C130.171573,27 129.5,26.3284271 129.5,25.5 C129.5,24.6715729 130.171573,24 131,24 L131,24 L145.25,24 C147.321073,24 149,22.3210729 149,20.25 C149,18.1789271 147.321073,16.5 145.25,16.5 L145.25,16.5 L134.75,16.5 C131.022073,16.5 128,13.4779271 128,9.75 C128,6.02207288 131.022073,3 134.75,3 L134.75,3 L149,3 C149.828427,3 150.5,3.67157288 150.5,4.5 C150.5,5.32842712 149.828427,6 149,6 L149,6 L134.75,6 C132.678927,6 131,7.67892712 131,9.75 C131,11.8210729 132.678927,13.5 134.75,13.5 L134.75,13.5 Z" id="形状结合备份" fill="url(#linearGradient-10)" fill-rule="nonzero" opacity="0.97"></path>
                        </g>
                    </g>
                </g>
            </g>
        </g>
    </g>
</svg>