<svg xmlns="http://www.w3.org/2000/svg" xmlns:xlink="http://www.w3.org/1999/xlink" width="42" height="42" viewBox="0 0 42 42">
  <defs>
    <linearGradient id="dcc_nav_update_42px-c" x1="50%" x2="50%" y1="0%" y2="100%">
      <stop offset="0%" stop-color="#ABEC51"/>
      <stop offset="100%" stop-color="#3D9321"/>
    </linearGradient>
    <linearGradient id="dcc_nav_update_42px-d" x1="50%" x2="50%" y1="0%" y2="100%">
      <stop offset="0%" stop-color="#97E60B"/>
      <stop offset="100%" stop-color="#2A7B09"/>
    </linearGradient>
    <path id="dcc_nav_update_42px-b" d="M14.0000912,-1.42108547e-14 C15.9324048,-1.42108547e-14 17.7507576,0.364583375 19.4552057,1.09375712 C21.1596503,1.82293087 22.6453225,2.82097638 23.9122643,4.08791813 C25.179206,5.35485988 26.1772515,6.84053206 26.9064253,8.54497666 C27.635599,10.2494248 28.0001824,12.0677776 28.0001824,14.0000912 C28.0001824,15.9324048 27.635599,17.7507576 26.9064253,19.4552057 C26.1772515,21.1596503 25.179206,22.6453225 23.9122643,23.9122643 C22.6453225,25.1792067 21.1596503,26.1772501 19.4552057,26.9064253 C17.7507576,27.6356004 15.9324048,28.0001824 14.0000912,28.0001824 C12.0677776,28.0001824 10.2494248,27.6356004 8.54497666,26.9064253 C6.84053206,26.1772501 5.35485988,25.1792067 4.08791813,23.9122643 C2.82097568,22.6453225 1.82293227,21.1596503 1.09375712,19.4552057 C0.364581975,17.7507576 0,15.9324048 0,14.0000912 C0,12.0677776 0.364581975,10.2494248 1.09375712,8.54497666 C1.82293227,6.84053206 2.82097568,5.35485988 4.08791813,4.08791813 C5.35485988,2.82097638 6.84053206,1.82293087 8.54497666,1.09375712 C10.2494248,0.364583375 12.0677776,-1.42108547e-14 14.0000912,-1.42108547e-14 Z M14.570012,7.17826795 C14.193808,6.91680829 13.6796482,6.94295425 13.3310353,7.25670585 L13.3310353,7.25670585 L8.33103527,11.7567059 L8.24301021,11.8464107 C7.91778855,12.2221279 7.91566676,12.7900324 8.25670585,13.1689647 L8.25670585,13.1689647 L8.34641068,13.2569898 C8.72212793,13.5822114 9.2900324,13.5843332 9.66896473,13.2432941 L9.66896473,13.2432941 L12.9999914,10.245 L13,20.037037 L13.0067277,20.1536582 C13.0644928,20.6509968 13.4871642,21.037037 14,21.037037 L14,21.037037 L14.1166211,21.0303093 C14.6139598,20.9725442 15,20.5498729 15,20.037037 L15,20.037037 L14.9999914,10.245 L18.3310353,13.2432941 L18.4294847,13.3214163 C18.8372654,13.6054013 19.4022551,13.5478971 19.7432941,13.1689647 C20.1127532,12.7584547 20.0794748,12.1261649 19.6689647,11.7567059 L19.6689647,11.7567059 L14.6689647,7.25670585 Z"/>
    <filter id="dcc_nav_update_42px-a" width="150%" height="150%" x="-25%" y="-17.9%" filterUnits="objectBoundingBox">
      <feOffset dy="2" in="SourceAlpha" result="shadowOffsetOuter1"/>
      <feGaussianBlur in="shadowOffsetOuter1" result="shadowBlurOuter1" stdDeviation="2"/>
      <feComposite in="shadowBlurOuter1" in2="SourceAlpha" operator="out" result="shadowBlurOuter1"/>
      <feColorMatrix in="shadowBlurOuter1" values="0 0 0 0 0.35140762   0 0 0 0 0.903306159   0 0 0 0 0.0154567251  0 0 0 0.3 0"/>
    </filter>
  </defs>
  <g fill="none" transform="translate(7 7)">
    <path fill="#FFF" d="M13.3310353,7.25670585 C13.7113402,6.91443138 14.2886598,6.91443138 14.6689647,7.25670585 L14.6689647,7.25670585 L19.6689647,11.7567059 C20.0794748,12.1261649 20.1127532,12.7584547 19.7432941,13.1689647 C19.3738351,13.5794748 18.7415453,13.6127532 18.3310353,13.2432941 L18.3310353,13.2432941 L14.9999914,10.245 L15,20.037037 C15,20.5498729 14.6139598,20.9725442 14.1166211,21.0303093 L14,21.037037 C13.4477153,21.037037 13,20.5893218 13,20.037037 L13,20.037037 L12.9999914,10.245 L9.66896473,13.2432941 C9.2900324,13.5843332 8.72212793,13.5822114 8.34641068,13.2569898 L8.25670585,13.1689647 C7.88724683,12.7584547 7.92052525,12.1261649 8.33103527,11.7567059 L8.33103527,11.7567059 Z"/>
    <use fill="#000" filter="url(#dcc_nav_update_42px-a)" xlink:href="#dcc_nav_update_42px-b"/>
    <path fill="url(#dcc_nav_update_42px-c)" fill-rule="evenodd" stroke="url(#dcc_nav_update_42px-d)" stroke-linejoin="square" stroke-width=".5" d="M14.0000912,0.25 C12.1012291,0.25 10.3163419,0.607872417 8.64330807,1.32360693 C6.9679046,2.04035668 5.50890957,3.02048008 4.26469477,4.26469487 C3.02048176,5.5089072 2.04035941,6.96790143 1.32360694,8.64330806 C0.607872,10.3163396 0.25,12.1012265 0.25,14.0000912 C0.25,15.8989559 0.607872,17.6838427 1.32360686,19.3568742 C2.04035941,21.032281 3.02048176,22.4912752 4.26469487,23.7354876 C5.5089072,24.9797006 6.96790143,25.959823 8.64330806,26.6765755 C10.3163396,27.3923104 12.1012265,27.7501824 14.0000912,27.7501824 C15.8989559,27.7501824 17.6838427,27.3923104 19.3568742,26.6765755 C21.032281,25.959823 22.4912752,24.9797006 23.7354876,23.7354876 C24.9797023,22.4912728 25.9598257,21.0322778 26.6765754,19.3568745 C27.39231,17.6838405 27.7501824,15.8989533 27.7501824,14.0000912 C27.7501824,12.1012291 27.39231,10.3163419 26.6765755,8.64330807 C25.9598257,6.9679046 24.9797023,5.50890957 23.7354876,4.26469482 C22.4912728,3.02048008 21.0322778,2.04035668 19.3568745,1.323607 C17.6838405,0.607872417 15.8989533,0.25 14.0000912,0.25 Z M15.2499919,10.8063855 L15.25,20.037037 C15.25,20.6731781 14.7724835,21.2058126 14.1310194,21.2798943 L14,21.287037 C13.363859,21.287037 12.8312245,20.8095206 12.7571427,20.1680564 L12.75,20.0370373 L12.7499919,10.8063865 L9.83620591,13.4291177 C9.36641675,13.8519279 8.65675328,13.8562727 8.17131258,13.4354293 L8.07088232,13.3362059 C7.64807207,12.8664167 7.64372734,12.1567533 8.06457072,11.6713126 L8.16379409,11.5708823 L13.1637941,7.07088232 C13.5962209,6.68169816 14.2384494,6.64338584 14.7126871,6.97297836 L14.7253099,6.98235323 L14.8362059,7.07088232 L19.8362059,11.5708823 C20.3493434,12.0327061 20.3909415,12.8230684 19.9291177,13.3362059 C19.5063074,13.8059951 18.8010208,13.8848109 18.2740852,13.5172504 L18.1637832,13.4291078 L15.2499919,10.8063855 Z"/>
  </g>
</svg>
