<svg xmlns="http://www.w3.org/2000/svg" xmlns:xlink="http://www.w3.org/1999/xlink" width="84" height="84" viewBox="0 0 84 84">
  <defs>
    <linearGradient id="dcc_nav_update_84px-c" x1="50%" x2="50%" y1="0%" y2="100%">
      <stop offset="0%" stop-color="#ABEC51"/>
      <stop offset="100%" stop-color="#3D9321"/>
    </linearGradient>
    <linearGradient id="dcc_nav_update_84px-d" x1="50%" x2="50%" y1="0%" y2="100%">
      <stop offset="0%" stop-color="#97E60B"/>
      <stop offset="100%" stop-color="#2A7B09"/>
    </linearGradient>
    <path id="dcc_nav_update_84px-b" d="M28.0001824,-1.42108547e-14 C31.8648096,-1.42108547e-14 35.5015153,0.72916675 38.9104115,2.18751425 C42.3193007,3.64586175 45.290645,5.64195275 47.8245285,8.17583626 C50.358412,10.7097198 52.354503,13.6810641 53.8128505,17.0899533 C55.271198,20.4988495 56.0003648,24.1355552 56.0003648,28.0001824 C56.0003648,31.8648096 55.271198,35.5015153 53.8128505,38.9104115 C52.354503,42.3193007 50.358412,45.290645 47.8245285,47.8245285 C45.290645,50.3584134 42.3193007,52.3545002 38.9104115,53.8128505 C35.5015153,55.2712008 31.8648096,56.0003648 28.0001824,56.0003648 C24.1355552,56.0003648 20.4988495,55.2712008 17.0899533,53.8128505 C13.6810641,52.3545002 10.7097198,50.3584134 8.17583626,47.8245285 C5.64195135,45.290645 3.64586455,42.3193007 2.18751425,38.9104115 C0.72916395,35.5015153 0,31.8648096 0,28.0001824 C0,24.1355552 0.72916395,20.4988495 2.18751425,17.0899533 C3.64586455,13.6810641 5.64195135,10.7097198 8.17583626,8.17583626 C10.7097198,5.64195275 13.6810641,3.64586175 17.0899533,2.18751425 C20.4988495,0.72916675 24.1355552,-1.42108547e-14 28.0001824,-1.42108547e-14 Z M29.1997743,14.399715 C28.4428431,13.8312314 27.3779387,13.8691303 26.6620705,14.5134117 L26.6620705,14.5134117 L16.6620705,23.5134117 L16.538713,23.63431 C15.8362757,24.3842147 15.8133841,25.560121 16.5134117,26.3379295 L16.5134117,26.3379295 L16.63431,26.461287 C17.3842147,27.1637243 18.560121,27.1866159 19.3379295,26.4865883 L19.3379295,26.4865883 L25.9999828,20.49 L26,40.0740741 L26.0054857,40.2233364 C26.0818349,41.2581963 26.9456382,42.0740741 28,42.0740741 L28,42.0740741 L28.1492623,42.0685883 C29.1841222,41.9922392 30,41.1284359 30,40.0740741 L30,40.0740741 L29.9999828,20.49 L36.6620705,26.4865883 L36.7952501,26.5965733 C37.6147481,27.2164104 38.7865607,27.1157379 39.4865883,26.3379295 C40.2255063,25.5169094 40.1589495,24.2523297 39.3379295,23.5134117 L39.3379295,23.5134117 L29.3379295,14.5134117 Z"/>
    <filter id="dcc_nav_update_84px-a" width="150%" height="150%" x="-25%" y="-17.9%" filterUnits="objectBoundingBox">
      <feOffset dy="4" in="SourceAlpha" result="shadowOffsetOuter1"/>
      <feGaussianBlur in="shadowOffsetOuter1" result="shadowBlurOuter1" stdDeviation="4"/>
      <feComposite in="shadowBlurOuter1" in2="SourceAlpha" operator="out" result="shadowBlurOuter1"/>
      <feColorMatrix in="shadowBlurOuter1" values="0 0 0 0 0.35140762   0 0 0 0 0.903306159   0 0 0 0 0.0154567251  0 0 0 0.3 0"/>
    </filter>
  </defs>
  <g fill="none" transform="translate(14 14)">
    <path fill="#FFF" d="M26.6620705,14.5134117 C27.4226805,13.8288628 28.5773195,13.8288628 29.3379295,14.5134117 L29.3379295,14.5134117 L39.3379295,23.5134117 C40.1589495,24.2523297 40.2255063,25.5169094 39.4865883,26.3379295 C38.7476703,27.1589495 37.4830906,27.2255063 36.6620705,26.4865883 L36.6620705,26.4865883 L29.9999828,20.49 L30,40.0740741 C30,41.1284359 29.1841222,41.9922392 28.1492623,42.0685883 L28,42.0740741 C26.8954305,42.0740741 26,41.1786436 26,40.0740741 L26,40.0740741 L25.9999828,20.49 L19.3379295,26.4865883 C18.560121,27.1866159 17.3842147,27.1637243 16.63431,26.461287 L16.5134117,26.3379295 C15.7744937,25.5169094 15.8410505,24.2523297 16.6620705,23.5134117 L16.6620705,23.5134117 Z"/>
    <use fill="#000" filter="url(#dcc_nav_update_84px-a)" xlink:href="#dcc_nav_update_84px-b"/>
    <path fill="url(#dcc_nav_update_84px-c)" fill-rule="evenodd" stroke="url(#dcc_nav_update_84px-d)" stroke-linejoin="square" d="M28.0001824,0.5 C24.2024582,0.5 20.6326838,1.21574483 17.2866161,2.64721386 C13.9358092,4.08071335 11.0178191,6.04096016 8.52938955,8.52938974 C6.04096351,11.0178144 4.08071881,13.9358029 2.64721387,17.2866161 C1.215744,20.6326793 0.5,24.202453 0.5,28.0001824 C0.5,31.7979117 1.215744,35.3676855 2.64721372,38.7137483 C4.08071881,42.0645619 6.04096351,44.9825504 8.52938974,47.4709752 C11.0178144,49.9594013 13.9358029,51.919646 17.2866161,53.3531509 C20.6326793,54.7846208 24.202453,55.5003648 28.0001824,55.5003648 C31.7979117,55.5003648 35.3676855,54.7846208 38.7137483,53.3531511 C42.0645619,51.919646 44.9825504,49.9594013 47.4709751,47.4709751 C49.9594046,44.9825456 51.9196514,42.0645556 53.3531508,38.713749 C54.7846199,35.367681 55.5003648,31.7979065 55.5003648,28.0001824 C55.5003648,24.2024582 54.7846199,20.6326838 53.3531509,17.2866161 C51.9196514,13.9358092 49.9594046,11.0178191 47.4709751,8.52938965 C44.9825456,6.04096016 42.0645556,4.08071335 38.713749,2.64721401 C35.367681,1.21574483 31.7979065,0.5 28.0001824,0.5 Z M30.4999838,21.6127709 L30.5,40.0740741 C30.5,41.3854093 29.4869809,42.471254 28.1676261,42.568251 L28,42.5740741 C26.6886648,42.5740741 25.60282,41.561055 25.5058231,40.2417002 L25.5,40.0740745 L25.4999838,21.612773 L19.6724118,26.8582354 C18.7057558,27.7282258 17.2359821,27.7099677 16.2772152,26.811263 L16.1417646,26.6724118 C15.2717742,25.7057558 15.2900323,24.2359821 16.188737,23.2772152 L16.3275882,23.1417646 L26.3275882,14.1417646 C27.2174402,13.3408979 28.5480148,13.2849081 29.5000396,13.9999141 L29.5174978,14.0136428 L29.6724118,14.1417646 L39.6724118,23.1417646 C40.6986869,24.0654122 40.7818829,25.6461368 39.8582354,26.6724118 C38.988245,27.6390678 37.5246749,27.7751962 36.4768659,26.9821009 L36.3275663,26.8582157 L30.4999838,21.6127709 Z"/>
  </g>
</svg>
