<?xml version="1.0" encoding="UTF-8"?>
<svg width="42px" height="42px" viewBox="0 0 42 42" version="1.1" xmlns="http://www.w3.org/2000/svg" xmlns:xlink="http://www.w3.org/1999/xlink">
    <!-- Generator: Sketch 62 (91390) - https://sketch.com -->
    <title>nav_info_42px</title>
    <desc>Created with Sketch.</desc>
    <defs>
        <linearGradient x1="50%" y1="-6.47675357%" x2="50%" y2="98.3804729%" id="linearGradient-1">
            <stop stop-color="#4F4F4F" offset="0%"></stop>
            <stop stop-color="#393939" offset="100%"></stop>
        </linearGradient>
        <path d="M23.875,0 C26.1531746,-4.18493883e-16 28,1.84682541 28,4.125 L28,11.35 L27.8651793,11.3565475 C26.9658167,11.4295539 26.2587065,12.1825729 26.2587065,13.1007463 C26.2587065,14.0645411 27.0378311,14.8463616 28.0006003,14.8507279 L28,22.875 C28,25.1531746 26.1531746,27 23.875,27 L4.125,27 C1.84682541,27 2.78995922e-16,25.1531746 0,22.875 L0.000543245912,14.8507276 C0.00326285881,14.8507401 0.0059839372,14.8507463 0.00870646766,14.8507463 C0.97520478,14.8507463 1.75870647,14.0672446 1.75870647,13.1007463 C1.75870647,12.134248 0.97520478,11.3507463 0.00870646766,11.3507463 L0,11.35 L0,4.125 C-2.78995922e-16,1.84682541 1.84682541,4.18493883e-16 4.125,0 L23.875,0 Z M2.5,24 C2.22385763,24 2,24.2238576 2,24.5 C2,24.7761424 2.22385763,25 2.5,25 C2.77614237,25 3,24.7761424 3,24.5 C3,24.2238576 2.77614237,24 2.5,24 Z M25.5,24 C25.2238576,24 25,24.2238576 25,24.5 C25,24.7761424 25.2238576,25 25.5,25 C25.7761424,25 26,24.7761424 26,24.5 C26,24.2238576 25.7761424,24 25.5,24 Z M2.5,2 C2.22385763,2 2,2.22385763 2,2.5 C2,2.77614237 2.22385763,3 2.5,3 C2.77614237,3 3,2.77614237 3,2.5 C3,2.22385763 2.77614237,2 2.5,2 Z M25.5,2 C25.2238576,2 25,2.22385763 25,2.5 C25,2.77614237 25.2238576,3 25.5,3 C25.7761424,3 26,2.77614237 26,2.5 C26,2.22385763 25.7761424,2 25.5,2 Z" id="path-2"></path>
        <filter x="-25.0%" y="-18.5%" width="150.0%" height="151.9%" filterUnits="objectBoundingBox" id="filter-3">
            <feOffset dx="0" dy="2" in="SourceAlpha" result="shadowOffsetOuter1"></feOffset>
            <feGaussianBlur stdDeviation="2" in="shadowOffsetOuter1" result="shadowBlurOuter1"></feGaussianBlur>
            <feColorMatrix values="0 0 0 0 0   0 0 0 0 0   0 0 0 0 0  0 0 0 0.418378497 0" type="matrix" in="shadowBlurOuter1"></feColorMatrix>
        </filter>
        <linearGradient x1="25.1955489%" y1="-1.10818286%" x2="90.2645875%" y2="103.4512%" id="linearGradient-4">
            <stop stop-color="#A8E8FF" offset="0%"></stop>
            <stop stop-color="#CDBEFF" offset="100%"></stop>
        </linearGradient>
        <path d="M6,3 L22,3 C23.6568542,3 25,4.34314575 25,6 L25,21 C25,22.6568542 23.6568542,24 22,24 L6,24 C4.34314575,24 3,22.6568542 3,21 L3,6 C3,4.34314575 4.34314575,3 6,3 Z" id="path-5"></path>
        <filter x="-9.1%" y="-4.8%" width="118.2%" height="119.0%" filterUnits="objectBoundingBox" id="filter-6">
            <feOffset dx="0" dy="1" in="SourceAlpha" result="shadowOffsetOuter1"></feOffset>
            <feGaussianBlur stdDeviation="0.5" in="shadowOffsetOuter1" result="shadowBlurOuter1"></feGaussianBlur>
            <feColorMatrix values="0 0 0 0 0   0 0 0 0 0   0 0 0 0 0  0 0 0 0.25 0" type="matrix" in="shadowBlurOuter1"></feColorMatrix>
        </filter>
        <filter x="-6.8%" y="-2.4%" width="113.6%" height="114.3%" filterUnits="objectBoundingBox" id="filter-7">
            <feOffset dx="0" dy="-1" in="SourceAlpha" result="shadowOffsetInner1"></feOffset>
            <feComposite in="shadowOffsetInner1" in2="SourceAlpha" operator="arithmetic" k2="-1" k3="1" result="shadowInnerInner1"></feComposite>
            <feColorMatrix values="0 0 0 0 0   0 0 0 0 0   0 0 0 0 0  0 0 0 0.15 0" type="matrix" in="shadowInnerInner1" result="shadowMatrixInner1"></feColorMatrix>
            <feOffset dx="0" dy="1" in="SourceAlpha" result="shadowOffsetInner2"></feOffset>
            <feComposite in="shadowOffsetInner2" in2="SourceAlpha" operator="arithmetic" k2="-1" k3="1" result="shadowInnerInner2"></feComposite>
            <feColorMatrix values="0 0 0 0 1   0 0 0 0 1   0 0 0 0 1  0 0 0 0.25 0" type="matrix" in="shadowInnerInner2" result="shadowMatrixInner2"></feColorMatrix>
            <feMerge>
                <feMergeNode in="shadowMatrixInner1"></feMergeNode>
                <feMergeNode in="shadowMatrixInner2"></feMergeNode>
            </feMerge>
        </filter>
        <linearGradient x1="42.8823737%" y1="38.6612862%" x2="54.3020741%" y2="62.109223%" id="linearGradient-8">
            <stop stop-color="#000000" stop-opacity="0.25" offset="0%"></stop>
            <stop stop-color="#000000" stop-opacity="0.2" offset="100%"></stop>
        </linearGradient>
    </defs>
    <g id="nav_info_42px" stroke="none" stroke-width="1" fill="none" fill-rule="evenodd">
        <g id="编组" transform="translate(7.000000, 8.000000)">
            <g id="形状结合">
                <use fill="black" fill-opacity="1" filter="url(#filter-3)" xlink:href="#path-2"></use>
                <use fill="url(#linearGradient-1)" fill-rule="evenodd" xlink:href="#path-2"></use>
            </g>
            <g id="矩形">
                <use fill="black" fill-opacity="1" filter="url(#filter-6)" xlink:href="#path-5"></use>
                <use fill="url(#linearGradient-4)" fill-rule="evenodd" xlink:href="#path-5"></use>
                <use fill="black" fill-opacity="1" filter="url(#filter-7)" xlink:href="#path-5"></use>
            </g>
            <path d="M11.7534899,10.4878376 C11.875314,10.4878376 11.8760222,10.3840001 11.8759042,10.3735376 C11.8757861,10.3345001 11.8751959,10.0789001 11.8751959,10.0396376 C11.8751959,9.92713761 11.7553786,9.92533761 11.7553786,9.92533761 C11.7553786,9.92533761 9.89675659,9.92353761 9.74671937,9.92353761 C9.5088555,9.92353761 9.51251494,9.70416261 9.51251494,9.70416261 C9.50944573,9.68987511 9.51263299,9.47533761 9.51251494,9.47533761 L11.4021832,9.47533761 C12.057814,9.47533761 11.9914718,9.02533761 11.9914718,9.02533761 C11.9914718,8.74217511 11.9914718,8.98675011 11.9914718,8.69188761 C11.9914718,8.69188761 12.0554531,7.90033761 11.1670344,7.90033761 L9.64944898,7.90033761 C8.74521211,7.90033761 8.80647829,8.68142511 8.80647829,8.68142511 C8.80647829,9.10431261 8.80671438,9.14301261 8.80671438,9.69943761 C8.80671438,10.4878376 9.63422097,10.4842376 9.63422097,10.4842376 M16.2417484,7.90033761 C16.4266618,7.90033761 16.4728742,7.90069502 16.5263727,7.90107229 L17.3990556,7.90168806 C18.522387,7.90056269 18.7209413,8.81245415 18.7221218,9.24763671 C18.7231842,9.68293181 18.527581,10.4876125 17.4166446,10.4871624 L17.4166446,10.4871624 L16.3600311,10.4871624 C16.3600311,10.4871624 16.3600155,10.516504 16.3599899,10.564573 L16.3595589,11.3839738 C16.3595589,11.5 16.2416303,11.5 16.2416303,11.5 L15.759019,11.4990997 C15.7287085,11.4954985 15.652932,11.4774925 15.652932,11.3874625 L15.652932,11.3874625 L15.652932,8.45976159 C15.652932,8.45976159 15.6526959,7.90033761 16.2417484,7.90033761 Z M8.46270742,7.0009003 C8.49321703,7.0045015 8.56949107,7.0225075 8.56949107,7.11253751 L8.56949107,7.11253751 L8.56926793,9.93600418 C8.56640626,10.004899 8.52685158,10.4871624 7.98020807,10.4871624 C7.71608878,10.4871624 7.73472822,10.486433 7.61091194,10.4859583 L6.82252808,10.4858119 C5.69965724,10.4869373 5.50118427,9.57504585 5.50000429,9.13986329 C5.4989423,8.70468073 5.69446532,7.9 6.80494634,7.90033761 L6.80494634,7.90033761 L7.86114789,7.90033761 L7.86114789,7.90033761 L7.86161989,7.11602618 C7.86161989,7 7.97985408,7 7.97985408,7 Z M19.5487707,7.90033761 C19.6139324,7.90033761 19.6668173,7.95073761 19.6668173,8.01283761 L19.6668173,10.3753376 C19.6668173,10.4374376 19.6139324,10.4878376 19.5487707,10.4878376 L19.0765844,10.4878376 C19.0114226,10.4878376 18.9585378,10.4374376 18.9585378,10.3753376 L18.9585378,8.01283761 C18.9585378,7.95073761 19.0114226,7.90033761 19.0765844,7.90033761 L19.5487707,7.90033761 Z M21.1386606,7.90091235 L21.3195341,7.90112511 C22.1867044,7.90224998 22.5,8.23801256 22.5,8.86153062 L22.5,8.86153062 L22.5,10.375162 C22.5,10.4372551 22.4472332,10.487537 22.3820715,10.4876495 L22.3820715,10.4876495 L21.9101212,10.4878745 C21.8447234,10.487987 21.7918385,10.4374801 21.7919566,10.375162 L21.7919566,10.375162 L21.7953799,8.91271242 C21.7953799,8.35961152 21.3383035,8.46367496 21.3185897,8.46367496 C21.1781405,8.46367496 21.0227955,8.46385271 20.8935384,8.46405022 L20.611158,8.46457486 L20.6145814,10.3715624 C20.6145814,10.3715624 20.6193033,10.5072223 20.4566351,10.4851748 L20.3240775,10.4855748 C20.2275591,10.4858747 20.1212647,10.4862247 20.0442983,10.4865246 C19.9372301,10.4995732 19.9029966,10.4243191 19.9029966,10.3732498 L19.9029966,10.3732498 L19.9029966,7.90078764 C19.9029966,7.90078764 20.4523639,7.90000023 21.3195341,7.90112511 Z M14.5906975,7.90033761 C15.4791162,7.90033761 15.4151349,8.69188761 15.4151349,8.69188761 L15.4157859,9.03107095 C15.4207718,9.08333761 15.4377684,9.47533761 14.8258463,9.47533761 L14.8258463,9.47533761 L12.9361781,9.47533761 C12.9362961,9.47533761 12.9331088,9.68987511 12.9361781,9.70416261 C12.9361781,9.70416261 12.9325186,9.92353761 13.1703825,9.92353761 C13.2851168,9.92353761 14.398989,9.92459021 14.9168121,9.92508555 L15.1790417,9.92533761 C15.1790417,9.92533761 15.298859,9.92713761 15.298859,10.0396376 C15.298859,10.0553426 15.2989535,10.1056616 15.2990743,10.162889 L15.2990006,10.3856371 C15.2960849,10.4157282 15.2786731,10.4878376 15.177153,10.4878376 L15.177153,10.4878376 L13.0578841,10.4842376 C13.0578841,10.4842376 12.2303775,10.4878376 12.2303775,9.69943761 L12.2303775,9.69943761 L12.2301414,8.68142511 C12.2301414,8.68142511 12.1688752,7.90033761 13.0731121,7.90033761 L13.0731121,7.90033761 Z M7.38085949,8.46588093 L6.99646286,8.46561705 C6.66823926,8.46665822 6.2098376,8.49616372 6.21016813,9.14706569 C6.21040422,9.84434812 6.68388909,9.92526259 7.07013753,9.92627543 L7.07013753,9.92627543 L7.74097478,9.92605035 C7.86091012,9.92605035 7.85902137,9.81632628 7.85902137,9.81632628 C7.85902137,9.80205009 7.85901174,9.76431251 7.85899522,9.71010814 L7.85854919,8.46685145 C7.85854919,8.46685145 7.63036977,8.46624487 7.38085949,8.46588093 Z M17.1493415,8.46122457 C16.90801,8.46052122 16.7565129,8.46078498 16.6454137,8.4610817 L16.4783862,8.46144965 C16.3585689,8.46144965 16.3603396,8.57128626 16.3603396,8.57128626 L16.3603396,8.57128626 L16.3609298,9.92076109 C16.3609298,9.92076109 16.4028403,9.92086237 16.4703788,9.92100417 L17.2951277,9.92100808 C17.6143852,9.91345632 18.0096178,9.84484328 18.0093109,9.24043431 C18.0090748,8.54315188 17.5355899,8.46234995 17.1493415,8.46122457 Z M11.0536947,8.46482578 C11.1606449,8.46482578 11.2848299,8.57905135 11.2842397,8.6899008 C11.2837675,8.77756752 11.2823509,8.71874792 11.2823509,8.80247583 C11.2823509,8.80247583 11.2823509,8.91478826 11.1681999,8.91478826 L9.67840322,8.91498993 C9.5767306,8.91500433 9.51356237,8.91501334 9.51356237,8.91501334 L9.51398545,8.7318947 C9.51401567,8.71475058 9.51403456,8.70047933 9.51403456,8.69158886 C9.51403456,8.57736329 9.62794952,8.46516339 9.75154429,8.46482578 L11.0536947,8.46482578 L11.0536947,8.46482578 Z M14.4770243,8.46482578 L13.1748739,8.46482578 C13.0512791,8.46516339 12.9373641,8.57736329 12.9373641,8.69158886 C12.9373641,8.73604118 12.9368919,8.91501334 12.9368919,8.91501334 C12.9368919,8.91501334 13.0000602,8.91500433 13.1017328,8.91498993 L14.5915295,8.91478826 C14.7056805,8.91478826 14.7056805,8.80247583 14.7056805,8.80247583 C14.7056805,8.71874792 14.7070971,8.77756752 14.7075693,8.6899008 C14.7081595,8.57905135 14.5839745,8.46482578 14.4770243,8.46482578 L14.4770243,8.46482578 Z M19.5487707,7 C19.6139324,7 19.6668173,7.05041681 19.6668173,7.11253751 L19.6668173,7.56268756 C19.6668173,7.62480827 19.6139324,7.67522508 19.5487707,7.67522508 L19.0765844,7.67522508 C19.0114226,7.67522508 18.9585378,7.62480827 18.9585378,7.56268756 L18.9585378,7.11253751 C18.9585378,7.05041681 19.0114226,7 19.0765844,7 L19.5487707,7 Z" id="Combined-Shape" fill-opacity="0.4" fill="#000000"></path>
            <path d="M20,19 L20,20 L6,20 L6,19 L20,19 Z M22.5,17 L22.5,18 L6,18 L6,17 L22.5,17 Z M14.5,15 L14.5,16 L6,16 L6,15 L14.5,15 Z M9,13 L9,14 L6,14 L6,13 L9,13 Z" id="形状结合" fill="url(#linearGradient-8)"></path>
        </g>
    </g>
</svg>