<svg xmlns="http://www.w3.org/2000/svg" xmlns:xlink="http://www.w3.org/1999/xlink" width="42" height="42" viewBox="0 0 42 42">
  <defs>
    <linearGradient id="nav_info_42px-c" x1="50%" x2="50%" y1="-6.477%" y2="98.38%">
      <stop offset="0%" stop-color="#4F4F4F"/>
      <stop offset="100%" stop-color="#393939"/>
    </linearGradient>
    <path id="nav_info_42px-b" d="M28,14.8507251 L28,22.875 C28,25.1531746 26.1531746,27 23.875,27 L4.125,27 C1.84682541,27 2.78995922e-16,25.1531746 0,22.875 L0,14.8507251 C0.00290049315,14.8507392 0.00580265447,14.8507463 0.00870646766,14.8507463 C0.97520478,14.8507463 1.75870647,14.0672446 1.75870647,13.1007463 C1.75870647,12.134248 0.97520478,11.3507463 0.00870646766,11.3507463 C0.00580265447,11.3507463 0.00290049315,11.3507533 -8.19656842e-17,11.3507675 L0,4.125 C-2.78995922e-16,1.84682541 1.84682541,4.18493883e-16 4.125,0 L23.875,0 C26.1531746,-4.18493883e-16 28,1.84682541 28,4.125 L28,8 L28,11.3507675 C27.0375072,11.3554559 26.2587065,12.1371518 26.2587065,13.1007463 C26.2587065,14.0643408 27.0375072,14.8460366 28,14.8507251 Z M2.5,3 C2.77614237,3 3,2.77614237 3,2.5 C3,2.22385763 2.77614237,2 2.5,2 C2.22385763,2 2,2.22385763 2,2.5 C2,2.77614237 2.22385763,3 2.5,3 Z M2.5,25 C2.77614237,25 3,24.7761424 3,24.5 C3,24.2238576 2.77614237,24 2.5,24 C2.22385763,24 2,24.2238576 2,24.5 C2,24.7761424 2.22385763,25 2.5,25 Z M25.5,3 C25.7761424,3 26,2.77614237 26,2.5 C26,2.22385763 25.7761424,2 25.5,2 C25.2238576,2 25,2.22385763 25,2.5 C25,2.77614237 25.2238576,3 25.5,3 Z M25.5,25 C25.7761424,25 26,24.7761424 26,24.5 C26,24.2238576 25.7761424,24 25.5,24 C25.2238576,24 25,24.2238576 25,24.5 C25,24.7761424 25.2238576,25 25.5,25 Z"/>
    <filter id="nav_info_42px-a" width="150%" height="151.9%" x="-25%" y="-18.5%" filterUnits="objectBoundingBox">
      <feOffset dy="2" in="SourceAlpha" result="shadowOffsetOuter1"/>
      <feGaussianBlur in="shadowOffsetOuter1" result="shadowBlurOuter1" stdDeviation="2"/>
      <feColorMatrix in="shadowBlurOuter1" values="0 0 0 0 0   0 0 0 0 0   0 0 0 0 0  0 0 0 0.418378497 0"/>
    </filter>
    <linearGradient id="nav_info_42px-f" x1="25.196%" x2="90.265%" y1="-1.108%" y2="103.451%">
      <stop offset="0%" stop-color="#A8E8FF"/>
      <stop offset="100%" stop-color="#CDBEFF"/>
    </linearGradient>
    <path id="nav_info_42px-e" d="M6,3 L22,3 C23.6568542,3 25,4.34314575 25,6 L25,21 C25,22.6568542 23.6568542,24 22,24 L6,24 C4.34314575,24 3,22.6568542 3,21 L3,6 C3,4.34314575 4.34314575,3 6,3 Z"/>
    <filter id="nav_info_42px-d" width="118.2%" height="119%" x="-9.1%" y="-4.8%" filterUnits="objectBoundingBox">
      <feOffset dy="1" in="SourceAlpha" result="shadowOffsetOuter1"/>
      <feGaussianBlur in="shadowOffsetOuter1" result="shadowBlurOuter1" stdDeviation=".5"/>
      <feColorMatrix in="shadowBlurOuter1" values="0 0 0 0 0   0 0 0 0 0   0 0 0 0 0  0 0 0 0.25 0"/>
    </filter>
    <filter id="nav_info_42px-g" width="113.6%" height="114.3%" x="-6.8%" y="-2.4%" filterUnits="objectBoundingBox">
      <feOffset dy="-1" in="SourceAlpha" result="shadowOffsetInner1"/>
      <feComposite in="shadowOffsetInner1" in2="SourceAlpha" k2="-1" k3="1" operator="arithmetic" result="shadowInnerInner1"/>
      <feColorMatrix in="shadowInnerInner1" result="shadowMatrixInner1" values="0 0 0 0 0   0 0 0 0 0   0 0 0 0 0  0 0 0 0.15 0"/>
      <feOffset dy="1" in="SourceAlpha" result="shadowOffsetInner2"/>
      <feComposite in="shadowOffsetInner2" in2="SourceAlpha" k2="-1" k3="1" operator="arithmetic" result="shadowInnerInner2"/>
      <feColorMatrix in="shadowInnerInner2" result="shadowMatrixInner2" values="0 0 0 0 1   0 0 0 0 1   0 0 0 0 1  0 0 0 0.25 0"/>
      <feMerge>
        <feMergeNode in="shadowMatrixInner1"/>
        <feMergeNode in="shadowMatrixInner2"/>
      </feMerge>
    </filter>
    <linearGradient id="nav_info_42px-h" x1="42.882%" x2="54.302%" y1="38.661%" y2="62.109%">
      <stop offset="0%" stop-opacity=".25"/>
      <stop offset="100%" stop-opacity=".2"/>
    </linearGradient>
  </defs>
  <g fill="none" fill-rule="evenodd" transform="translate(7 8)">
    <use fill="#000" filter="url(#nav_info_42px-a)" xlink:href="#nav_info_42px-b"/>
    <use fill="url(#nav_info_42px-c)" xlink:href="#nav_info_42px-b"/>
    <use fill="#000" filter="url(#nav_info_42px-d)" xlink:href="#nav_info_42px-e"/>
    <use fill="url(#nav_info_42px-f)" xlink:href="#nav_info_42px-e"/>
    <use fill="#000" filter="url(#nav_info_42px-g)" xlink:href="#nav_info_42px-e"/>
    <path fill="#000" fill-opacity=".4" d="M11.7534899,10.4878376 C11.875314,10.4878376 11.8760222,10.3840001 11.8759042,10.3735376 C11.8757861,10.3345001 11.8751959,10.0789001 11.8751959,10.0396376 C11.8751959,9.92713761 11.7553786,9.92533761 11.7553786,9.92533761 C11.7553786,9.92533761 9.89675659,9.92353761 9.74671937,9.92353761 C9.5088555,9.92353761 9.51251494,9.70416261 9.51251494,9.70416261 C9.50944573,9.68987511 9.51263299,9.47533761 9.51251494,9.47533761 L11.4021832,9.47533761 C12.057814,9.47533761 11.9914718,9.02533761 11.9914718,9.02533761 C11.9914718,8.74217511 11.9914718,8.98675011 11.9914718,8.69188761 C11.9914718,8.69188761 12.0554531,7.90033761 11.1670344,7.90033761 L9.64944898,7.90033761 C8.74521211,7.90033761 8.80647829,8.68142511 8.80647829,8.68142511 C8.80647829,9.10431261 8.80671438,9.14301261 8.80671438,9.69943761 C8.80671438,10.4878376 9.63422097,10.4842376 9.63422097,10.4842376 M9.51356237,8.91501334 C9.51356237,8.91501334 9.51403456,8.73604118 9.51403456,8.69158886 C9.51403456,8.57736329 9.62794952,8.46516339 9.75154429,8.46482578 C9.86616753,8.46437563 10.9349398,8.46482578 11.0536947,8.46482578 C11.1606449,8.46482578 11.2848299,8.57905135 11.2842397,8.6899008 C11.2837675,8.77756752 11.2823509,8.71874792 11.2823509,8.80247583 C11.2823509,8.80247583 11.2823509,8.91478826 11.1681999,8.91478826 C11.0927681,8.91478826 9.51356237,8.91501334 9.51356237,8.91501334 Z M7.97985408,7 C8.03035731,7.00011254 8.39969166,7.00011254 8.45031289,7 C8.45031289,7 8.56949107,7 8.56949107,7.11253751 C8.56949107,7.13391964 8.56949107,9.75004168 8.56949107,9.92785095 C8.56949107,9.92785095 8.56890108,10.4871624 7.98020807,10.4871624 C7.50479334,10.4871624 7.94551691,10.4847991 6.82252808,10.4858119 C5.69965724,10.4869373 5.50118427,9.57504585 5.50000429,9.13986329 C5.4989423,8.70468073 5.69446532,7.9 6.80494634,7.90033761 C7.32201444,7.90056269 7.36437549,7.90022508 7.86114789,7.90033761 C7.86114789,7.90033761 7.86161989,7.12525425 7.86161989,7.11602618 C7.86161989,7 7.97985408,7 7.97985408,7 Z M7.74097478,9.92605035 C7.86091012,9.92605035 7.85902137,9.81632628 7.85902137,9.81632628 C7.85902137,9.71639296 7.85854919,8.46685145 7.85854919,8.46685145 C7.85854919,8.46685145 7.39287691,8.46561354 7.06458935,8.46561354 C6.73606569,8.46561354 6.20981399,8.44967072 6.21016813,9.14706569 C6.21040422,9.84434812 6.68388909,9.92526259 7.07013753,9.92627543 C7.45614988,9.9274008 7.612304,9.92605035 7.74097478,9.92605035 Z M19.0765844,7.67522508 C19.0114226,7.67522508 18.9585378,7.62480827 18.9585378,7.56268756 L18.9585378,7.11253751 C18.9585378,7.05041681 19.0114226,7 19.0765844,7 L19.5487707,7 C19.6139324,7 19.6668173,7.05041681 19.6668173,7.11253751 L19.6668173,7.56268756 C19.6668173,7.62480827 19.6139324,7.67522508 19.5487707,7.67522508 L19.0765844,7.67522508 Z M19.0765844,10.4878376 C19.0114226,10.4878376 18.9585378,10.4374376 18.9585378,10.3753376 L18.9585378,8.01283761 C18.9585378,7.95073761 19.0114226,7.90033761 19.0765844,7.90033761 L19.5487707,7.90033761 C19.6139324,7.90033761 19.6668173,7.95073761 19.6668173,8.01283761 L19.6668173,10.3753376 C19.6668173,10.4374376 19.6139324,10.4878376 19.5487707,10.4878376 L19.0765844,10.4878376 Z M19.9029966,7.90078764 C19.9029966,7.90078764 20.4523639,7.90000023 21.3195341,7.90112511 C22.1867044,7.90224998 22.5,8.23801256 22.5,8.86153062 L22.5,10.375162 C22.5,10.4372551 22.4472332,10.487537 22.3820715,10.4876495 L21.9101212,10.4878745 C21.8447234,10.487987 21.7918385,10.4374801 21.7919566,10.375162 L21.7953799,8.91271242 C21.7953799,8.35961152 21.3383035,8.46367496 21.3185897,8.46367496 C21.002579,8.46367496 20.611158,8.46457486 20.611158,8.46457486 L20.6145814,10.3715624 C20.6145814,10.3715624 20.6193033,10.5072223 20.4566351,10.4851748 C20.3411855,10.4855123 20.1597479,10.4860747 20.0442983,10.4865246 C19.9372301,10.4995732 19.9029966,10.4243191 19.9029966,10.3732498 L19.9029966,7.90078764 Z M16.2416303,11.5 C16.1911064,11.4998875 15.8219747,11.4998875 15.7713327,11.5 C15.7713327,11.5 15.652932,11.5 15.652932,11.3874625 C15.652932,11.3660804 15.652932,8.63745832 15.652932,8.45976159 C15.652932,8.45976159 15.6526959,7.90033761 16.2417484,7.90033761 C16.71724,7.90033761 16.2756062,7.9027009 17.3990556,7.90168806 C18.522387,7.90056269 18.7209413,8.81245415 18.7221218,9.24763671 C18.7231842,9.68293181 18.527581,10.4876125 17.4166446,10.4871624 C16.8994825,10.4870498 16.8570072,10.4872749 16.3600311,10.4871624 C16.3600311,10.4871624 16.3595589,11.3747457 16.3595589,11.3839738 C16.3595589,11.5 16.2416303,11.5 16.2416303,11.5 Z M16.4783862,8.46144965 C16.3585689,8.46144965 16.3603396,8.57128626 16.3603396,8.57128626 C16.3603396,8.67110704 16.3609298,9.92076109 16.3609298,9.92076109 C16.3609298,9.92076109 16.8266021,9.92188646 17.1548896,9.92188646 C17.4834133,9.92188646 18.009665,9.93782928 18.0093109,9.24043431 C18.0090748,8.54315188 17.5355899,8.46234995 17.1493415,8.46122457 C16.7632111,8.4600992 16.6070569,8.46144965 16.4783862,8.46144965 Z M15.177153,10.4878376 L13.0578841,10.4842376 C13.0578841,10.4842376 12.2303775,10.4878376 12.2303775,9.69943761 C12.2303775,9.14301261 12.2301414,9.10431261 12.2301414,8.68142511 C12.2301414,8.68142511 12.1688752,7.90033761 13.0731121,7.90033761 L14.5906975,7.90033761 C15.4791162,7.90033761 15.4151349,8.69188761 15.4151349,8.69188761 C15.4151349,8.98675011 15.4151349,8.74217511 15.4151349,9.02533761 C15.4151349,9.02533761 15.4814771,9.47533761 14.8258463,9.47533761 L12.9361781,9.47533761 C12.9362961,9.47533761 12.9331088,9.68987511 12.9361781,9.70416261 C12.9361781,9.70416261 12.9325186,9.92353761 13.1703825,9.92353761 C13.3204197,9.92353761 15.1790417,9.92533761 15.1790417,9.92533761 C15.1790417,9.92533761 15.298859,9.92713761 15.298859,10.0396376 C15.298859,10.0789001 15.2994493,10.3345001 15.2995673,10.3735376 C15.2996853,10.3840001 15.2989771,10.4878376 15.177153,10.4878376 Z M12.9368919,8.91501334 C12.9368919,8.91501334 14.5160977,8.91478826 14.5915295,8.91478826 C14.7056805,8.91478826 14.7056805,8.80247583 14.7056805,8.80247583 C14.7056805,8.71874792 14.7070971,8.77756752 14.7075693,8.6899008 C14.7081595,8.57905135 14.5839745,8.46482578 14.4770243,8.46482578 C14.3582694,8.46482578 13.2894971,8.46437563 13.1748739,8.46482578 C13.0512791,8.46516339 12.9373641,8.57736329 12.9373641,8.69158886 C12.9373641,8.73604118 12.9368919,8.91501334 12.9368919,8.91501334 Z"/>
    <path fill="url(#nav_info_42px-h)" d="M6,19 L20,19 L20,20 L6,20 L6,19 Z M6,17 L22.5,17 L22.5,18 L6,18 L6,17 Z M6,15 L14.5,15 L14.5,16 L6,16 L6,15 Z M6,13 L9,13 L9,14 L6,14 L6,13 Z"/>
  </g>
</svg>
