<?xml version="1.0" encoding="UTF-8"?>
<svg width="84px" height="84px" viewBox="0 0 84 84" version="1.1" xmlns="http://www.w3.org/2000/svg" xmlns:xlink="http://www.w3.org/1999/xlink">
    <title>dcc_nav_systeminfo_84px</title>
    <defs>
        <filter x="-8.6%" y="-8.6%" width="117.1%" height="117.1%" filterUnits="objectBoundingBox" id="filter-1">
            <feOffset dx="0" dy="1" in="SourceAlpha" result="shadowOffsetOuter1"></feOffset>
            <feGaussianBlur stdDeviation="1" in="shadowOffsetOuter1" result="shadowBlurOuter1"></feGaussianBlur>
            <feColorMatrix values="0 0 0 0 0   0 0 0 0 0   0 0 0 0 0  0 0 0 0.2 0" type="matrix" in="shadowBlurOuter1" result="shadowMatrixOuter1"></feColorMatrix>
            <feMerge>
                <feMergeNode in="shadowMatrixOuter1"></feMergeNode>
                <feMergeNode in="SourceGraphic"></feMergeNode>
            </feMerge>
        </filter>
        <rect id="path-2" x="0" y="0" width="76" height="76" rx="8"></rect>
        <filter x="-35.0%" y="-35.0%" width="170.0%" height="170.0%" filterUnits="objectBoundingBox" id="filter-4">
            <feGaussianBlur stdDeviation="7" in="SourceGraphic"></feGaussianBlur>
        </filter>
        <filter x="-35.0%" y="-35.0%" width="170.0%" height="170.0%" filterUnits="objectBoundingBox" id="filter-5">
            <feGaussianBlur stdDeviation="7" in="SourceGraphic"></feGaussianBlur>
        </filter>
        <filter x="-20.0%" y="-20.0%" width="140.0%" height="140.0%" filterUnits="objectBoundingBox" id="filter-6">
            <feGaussianBlur stdDeviation="4" in="SourceGraphic"></feGaussianBlur>
        </filter>
        <filter x="-35.0%" y="-35.0%" width="170.0%" height="170.0%" filterUnits="objectBoundingBox" id="filter-7">
            <feGaussianBlur stdDeviation="7" in="SourceGraphic"></feGaussianBlur>
        </filter>
        <filter x="-35.0%" y="-35.0%" width="170.0%" height="170.0%" filterUnits="objectBoundingBox" id="filter-8">
            <feGaussianBlur stdDeviation="7" in="SourceGraphic"></feGaussianBlur>
        </filter>
        <filter x="-35.0%" y="-35.0%" width="170.0%" height="170.0%" filterUnits="objectBoundingBox" id="filter-9">
            <feGaussianBlur stdDeviation="7" in="SourceGraphic"></feGaussianBlur>
        </filter>
        <filter x="-35.0%" y="-35.0%" width="170.0%" height="170.0%" filterUnits="objectBoundingBox" id="filter-10">
            <feGaussianBlur stdDeviation="7" in="SourceGraphic"></feGaussianBlur>
        </filter>
        <filter x="-35.0%" y="-35.0%" width="170.0%" height="170.0%" filterUnits="objectBoundingBox" id="filter-11">
            <feGaussianBlur stdDeviation="7" in="SourceGraphic"></feGaussianBlur>
        </filter>
        <filter x="-35.0%" y="-35.0%" width="170.0%" height="170.0%" filterUnits="objectBoundingBox" id="filter-12">
            <feGaussianBlur stdDeviation="7" in="SourceGraphic"></feGaussianBlur>
        </filter>
        <filter x="-35.0%" y="-35.0%" width="170.0%" height="170.0%" filterUnits="objectBoundingBox" id="filter-13">
            <feGaussianBlur stdDeviation="7" in="SourceGraphic"></feGaussianBlur>
        </filter>
        <filter x="-42.0%" y="-42.0%" width="184.0%" height="184.0%" filterUnits="objectBoundingBox" id="filter-14">
            <feGaussianBlur stdDeviation="7" in="SourceGraphic"></feGaussianBlur>
        </filter>
        <filter x="-32.0%" y="-32.0%" width="164.0%" height="164.0%" filterUnits="objectBoundingBox" id="filter-15">
            <feGaussianBlur stdDeviation="8" in="SourceGraphic"></feGaussianBlur>
        </filter>
        <radialGradient cx="27.7048929%" cy="10.6803319%" fx="27.7048929%" fy="10.6803319%" r="95.969013%" id="radialGradient-16">
            <stop stop-color="#FFFFFF" stop-opacity="0.978986833" offset="0%"></stop>
            <stop stop-color="#FFFFFF" stop-opacity="0.64256276" offset="100%"></stop>
        </radialGradient>
        <rect id="path-17" x="11.3333333" y="6" width="53.3333333" height="53.3333333" rx="8"></rect>
        <filter x="-4.7%" y="-2.8%" width="109.4%" height="111.3%" filterUnits="objectBoundingBox" id="filter-18">
            <feOffset dx="0" dy="2" in="SourceAlpha" result="shadowOffsetOuter1"></feOffset>
            <feGaussianBlur stdDeviation="0.5" in="shadowOffsetOuter1" result="shadowBlurOuter1"></feGaussianBlur>
            <feComposite in="shadowBlurOuter1" in2="SourceAlpha" operator="out" result="shadowBlurOuter1"></feComposite>
            <feColorMatrix values="0 0 0 0 0   0 0 0 0 0   0 0 0 0 0  0 0 0 0.107331389 0" type="matrix" in="shadowBlurOuter1"></feColorMatrix>
        </filter>
        <filter x="-4.7%" y="-2.8%" width="109.4%" height="111.3%" filterUnits="objectBoundingBox" id="filter-19">
            <feGaussianBlur stdDeviation="1" in="SourceAlpha" result="shadowBlurInner1"></feGaussianBlur>
            <feOffset dx="0.5" dy="1" in="shadowBlurInner1" result="shadowOffsetInner1"></feOffset>
            <feComposite in="shadowOffsetInner1" in2="SourceAlpha" operator="arithmetic" k2="-1" k3="1" result="shadowInnerInner1"></feComposite>
            <feColorMatrix values="0 0 0 0 1   0 0 0 0 0.803403949   0 0 0 0 0.568580888  0 0 0 1 0" type="matrix" in="shadowInnerInner1" result="shadowMatrixInner1"></feColorMatrix>
            <feOffset dx="0" dy="-0.7" in="SourceAlpha" result="shadowOffsetInner2"></feOffset>
            <feComposite in="shadowOffsetInner2" in2="SourceAlpha" operator="arithmetic" k2="-1" k3="1" result="shadowInnerInner2"></feComposite>
            <feColorMatrix values="0 0 0 0 1   0 0 0 0 1   0 0 0 0 1  0 0 0 1 0" type="matrix" in="shadowInnerInner2" result="shadowMatrixInner2"></feColorMatrix>
            <feOffset dx="0" dy="0.7" in="SourceAlpha" result="shadowOffsetInner3"></feOffset>
            <feComposite in="shadowOffsetInner3" in2="SourceAlpha" operator="arithmetic" k2="-1" k3="1" result="shadowInnerInner3"></feComposite>
            <feColorMatrix values="0 0 0 0 1   0 0 0 0 1   0 0 0 0 1  0 0 0 0.675356138 0" type="matrix" in="shadowInnerInner3" result="shadowMatrixInner3"></feColorMatrix>
            <feMerge>
                <feMergeNode in="shadowMatrixInner1"></feMergeNode>
                <feMergeNode in="shadowMatrixInner2"></feMergeNode>
                <feMergeNode in="shadowMatrixInner3"></feMergeNode>
            </feMerge>
        </filter>
        <linearGradient x1="50%" y1="0%" x2="50%" y2="100%" id="linearGradient-20">
            <stop stop-color="#FFDF00" offset="0%"></stop>
            <stop stop-color="#FFC500" offset="100%"></stop>
        </linearGradient>
    </defs>
    <g id="dcc_nav_systeminfo_84px" stroke="none" stroke-width="1" fill="none" fill-rule="evenodd">
        <g id="编组-2" filter="url(#filter-1)" transform="translate(4.000000, 4.000000)">
            <g id="椭圆形">
                <mask id="mask-3" fill="white">
                    <use xlink:href="#path-2"></use>
                </mask>
                <use id="Mask" fill="#FFFFFF" xlink:href="#path-2"></use>
                <circle fill="#FF9500" filter="url(#filter-4)" mask="url(#mask-3)" cx="24.6666667" cy="19.6666667" r="30"></circle>
                <circle fill="#FF9500" filter="url(#filter-5)" mask="url(#mask-3)" cx="19.6666667" cy="16.3333333" r="30"></circle>
                <circle fill="#FFCC00" filter="url(#filter-6)" mask="url(#mask-3)" cx="43" cy="-23.6666667" r="30"></circle>
                <circle fill="#FF2D55" filter="url(#filter-7)" mask="url(#mask-3)" cx="14.6666667" cy="63" r="30"></circle>
                <circle fill="#FF2A00" filter="url(#filter-8)" mask="url(#mask-3)" cx="14.6666667" cy="63" r="30"></circle>
                <circle fill="#FF2D55" filter="url(#filter-9)" mask="url(#mask-3)" cx="84.6666667" cy="1.33333333" r="30"></circle>
                <circle fill="#AF52DE" filter="url(#filter-10)" mask="url(#mask-3)" cx="58" cy="63" r="30"></circle>
                <circle fill="#AF52DE" filter="url(#filter-11)" mask="url(#mask-3)" cx="58" cy="63" r="30"></circle>
                <circle fill="#0080FF" filter="url(#filter-12)" mask="url(#mask-3)" cx="81.3333333" cy="63" r="30"></circle>
                <circle fill="#33F5FF" filter="url(#filter-13)" mask="url(#mask-3)" cx="88" cy="63" r="30"></circle>
                <circle fill="#FFF94C" filter="url(#filter-14)" mask="url(#mask-3)" cx="33" cy="-10.3333333" r="25"></circle>
                <circle fill="#FFFFFF" filter="url(#filter-15)" mask="url(#mask-3)" cx="-21.1666667" cy="92.1666667" r="37.5"></circle>
            </g>
            <g id="蒙版" fill-rule="nonzero">
                <use fill="black" fill-opacity="1" filter="url(#filter-18)" xlink:href="#path-17"></use>
                <use fill="url(#radialGradient-16)" xlink:href="#path-17"></use>
                <use fill="black" fill-opacity="1" filter="url(#filter-19)" xlink:href="#path-17"></use>
            </g>
            <path d="M31.2470757,33.3725362 C33.0188878,33.3725362 33.9376051,32.3389792 33.9376051,30.4851388 L33.9376051,21.740918 L32.2314157,21.740918 L32.2314157,30.5999784 C32.2314157,31.4366675 31.870491,31.7155638 31.2962927,31.7155638 C30.7220943,31.7155638 30.3611696,31.4366675 30.3611696,30.5999784 L30.3611696,21.740918 L28.5565462,21.740918 L28.5565462,30.4851388 C28.5565462,32.3389792 29.4752636,33.3725362 31.2470757,33.3725362 Z M38.6549802,33.3561306 C40.4267923,33.3561306 41.3947267,32.3225735 41.3947267,30.4687331 L41.3947267,24.4970702 C41.3947267,22.6432297 40.4267923,21.6096727 38.6549802,21.6096727 C36.8831681,21.6096727 35.9152338,22.6432297 35.9152338,24.4970702 L35.9152338,30.4687331 C35.9152338,32.3225735 36.8831681,33.3561306 38.6549802,33.3561306 Z M38.6549802,31.7155638 C38.0807819,31.7155638 37.7198572,31.4202618 37.7198572,30.5835728 L37.7198572,24.3822305 C37.7198572,23.5455414 38.0807819,23.2502394 38.6549802,23.2502394 C39.2291786,23.2502394 39.5901033,23.5455414 39.5901033,24.3822305 L39.5901033,30.5835728 C39.5901033,31.4202618 39.2291786,31.7155638 38.6549802,31.7155638 Z M45.8660168,33.3561306 C47.6378288,33.3561306 48.5565462,32.3225735 48.5565462,30.4687331 C48.5565462,29.9273461 48.4745179,29.4515817 48.2940555,29.04144 C47.9495365,28.2375623 47.3917438,27.614147 46.8011398,27.0727599 C46.4894321,26.8102693 46.2105358,26.5477786 45.9480451,26.2688822 C45.4230637,25.7439009 45.0293277,25.1697025 45.0293277,24.3822305 C45.0293277,23.5455414 45.3574411,23.2502394 45.9316394,23.2502394 C46.5058378,23.2502394 46.8339511,23.5455414 46.8339511,24.3822305 L46.8339511,24.8579948 L48.5401406,24.8579948 L48.5401406,24.4970702 C48.5401406,22.6432297 47.6542345,21.6096727 45.8824224,21.6096727 C44.1106104,21.6096727 43.2247043,22.6432297 43.2247043,24.4970702 C43.2247043,25.0384572 43.3067327,25.5142215 43.487195,25.9243632 C43.831714,26.7282409 44.3895067,27.3516563 44.9965164,27.8766376 C45.2918184,28.155534 45.5707148,28.4180247 45.8332054,28.6805153 C46.3581868,29.2219024 46.7519228,29.7961007 46.7519228,30.5835728 C46.7519228,31.4202618 46.3909981,31.6991581 45.8167998,31.6991581 C45.2426014,31.6991581 44.8816767,31.4202618 44.8816767,30.5835728 L44.8816767,29.7632894 L43.1754873,29.7632894 L43.1754873,30.4687331 C43.1754873,32.3225735 44.0942047,33.3561306 45.8660168,33.3561306 Z" id="UOS" fill="#A792CB" fill-rule="nonzero"></path>
            <rect id="矩形" fill="#A792CB" x="27.3333333" y="40.6666667" width="22.6666667" height="2.66666667" rx="0.5"></rect>
            <rect id="矩形备份-5" fill="#A792CB" x="27.3333333" y="46" width="22.6666667" height="2.66666667" rx="0.5"></rect>
            <path d="M25.5660706,64.437308 L25.5660706,69.7492485 L22.0640513,69.7492485 L22.0640513,64.437308 L25.5660706,64.437308 Z M32.5228831,64.437308 L32.5228831,69.7492485 L29.0208639,69.7492485 L29.0208639,64.437308 L32.5228831,64.437308 Z M39.1895498,64.437308 L39.1895498,69.7492485 L35.6875305,69.7492485 L35.6875305,64.437308 L39.1895498,64.437308 Z M45.8562164,64.437308 L45.8562164,69.7492485 L42.3541972,69.7492485 L42.3541972,64.437308 L45.8562164,64.437308 Z M52.5228831,64.437308 L52.5228831,69.7492485 L49.0208639,69.7492485 L49.0208639,64.437308 L52.5228831,64.437308 Z" id="形状结合" fill="url(#linearGradient-20)"></path>
        </g>
    </g>
</svg>