<svg xmlns="http://www.w3.org/2000/svg" xmlns:xlink="http://www.w3.org/1999/xlink" width="42" height="42" viewBox="0 0 42 42">
  <defs>
    <linearGradient id="nav_upgrade_42px-c" x1="50%" x2="50%" y1="0%" y2="100%">
      <stop offset="0%" stop-color="#ABEC51"/>
      <stop offset="100%" stop-color="#3D9321"/>
    </linearGradient>
    <linearGradient id="nav_upgrade_42px-d" x1="50%" x2="50%" y1="0%" y2="100%">
      <stop offset="0%" stop-color="#97E60B"/>
      <stop offset="100%" stop-color="#2A7B09"/>
    </linearGradient>
    <path id="nav_upgrade_42px-b" d="M15.544921,8.09375 C13.8404875,8.822919 12.354825,9.820958 11.0878915,11.0878915 C9.8209573,12.354825 8.8229204,13.8404875 8.09375,15.544921 C7.3645796,17.249358 7,19.067699 7,21 C7,22.932301 7.3645796,24.750642 8.09375,26.455079 C8.8229204,28.1595125 9.8209573,29.645175 11.0878915,30.9121085 C12.354825,32.1790427 13.8404875,33.1770796 15.544921,33.90625 C17.249358,34.6354204 19.067699,35 21,35 C22.932301,35 24.750642,34.6354204 26.455079,33.90625 C28.1595125,33.1770796 29.645175,32.1790427 30.9121085,30.9121085 C32.179042,29.645175 33.177081,28.1595125 33.90625,26.455079 C34.635419,24.750642 35,22.932301 35,21 C35,19.067699 34.635419,17.249358 33.90625,15.544921 C33.177081,13.8404875 32.179042,12.354825 30.9121085,11.0878915 C29.645175,9.820958 28.1595125,8.822919 26.455079,8.09375 C24.750642,7.364581 22.932301,7 21,7 C19.067699,7 17.249358,7.364581 15.544921,8.09375 Z M26.4000645,22.2289083 L23.5,19 L23.5,28 C23.5,29 22.4999935,30 21.5,30 C20.5000065,30 19.5,29 19.5,28 L19.5,19 L16.5881195,22.2289083 C16.1077046,22.7540748 14.7789688,22.7839306 14.1657176,22.2289083 C13.5524664,21.6738859 13.0653501,20.6731457 13.7333293,19.8158152 L19.8191552,13.3506909 C20.625246,12.5808802 22.301283,12.5808802 23.1283737,13.3506909 L29.252323,19.9800736 C29.7425665,20.6713587 29.4977145,21.665214 28.9170303,22.2289083 C28.3363462,22.7926026 26.9234427,22.7926026 26.4000645,22.2289083 Z"/>
    <filter id="nav_upgrade_42px-a" width="153.6%" height="153.6%" x="-26.8%" y="-19.6%" filterUnits="objectBoundingBox">
      <feMorphology in="SourceAlpha" operator="dilate" radius=".5" result="shadowSpreadOuter1"/>
      <feOffset dy="2" in="shadowSpreadOuter1" result="shadowOffsetOuter1"/>
      <feGaussianBlur in="shadowOffsetOuter1" result="shadowBlurOuter1" stdDeviation="2"/>
      <feComposite in="shadowBlurOuter1" in2="SourceAlpha" operator="out" result="shadowBlurOuter1"/>
      <feColorMatrix in="shadowBlurOuter1" values="0 0 0 0 0.35140762   0 0 0 0 0.903306159   0 0 0 0 0.0154567251  0 0 0 0.587112107 0"/>
    </filter>
  </defs>
  <g fill="none">
    <use fill="#000" filter="url(#nav_upgrade_42px-a)" xlink:href="#nav_upgrade_42px-b"/>
    <use fill="url(#nav_upgrade_42px-c)" stroke="url(#nav_upgrade_42px-d)" xlink:href="#nav_upgrade_42px-b"/>
  </g>
</svg>
