<svg xmlns="http://www.w3.org/2000/svg" xmlns:xlink="http://www.w3.org/1999/xlink" width="84" height="84" viewBox="0 0 84 84">
  <defs>
    <linearGradient id="nav_cloud_84px-c" x1="50%" x2="50%" y1="0%" y2="96.184%">
      <stop offset="0%" stop-color="#4BDEFA"/>
      <stop offset="100%" stop-color="#3978FF"/>
    </linearGradient>
    <path id="nav_cloud_84px-b" d="M46.4545455,18 C56.5059041,18 64.8563848,25.3239371 66.5176814,34.9550005 C72.6320082,37.1862131 77,43.0800921 77,50 C77,58.836556 69.8772574,66 61.0909091,66 C55.5844726,66 29.2822307,66 22.9090909,66 C14.1227426,66 7,58.836556 7,50 C7,41.163444 14.1227426,34 22.9090909,34 C24.1416475,34 25.3414664,34.1409674 26.4934774,34.4077459 C28.3711169,25.0478613 36.5944495,18 46.4545455,18 Z"/>
    <filter id="nav_cloud_84px-a" width="140%" height="158.3%" x="-20%" y="-20.8%" filterUnits="objectBoundingBox">
      <feOffset dy="4" in="SourceAlpha" result="shadowOffsetOuter1"/>
      <feGaussianBlur in="shadowOffsetOuter1" result="shadowBlurOuter1" stdDeviation="4"/>
      <feColorMatrix in="shadowBlurOuter1" values="0 0 0 0 0.196078431   0 0 0 0 0.458823529   0 0 0 0 0.996078431  0 0 0 0.5 0"/>
    </filter>
  </defs>
  <g fill="none" fill-rule="evenodd">
    <use fill="#000" filter="url(#nav_cloud_84px-a)" xlink:href="#nav_cloud_84px-b"/>
    <use fill="url(#nav_cloud_84px-c)" xlink:href="#nav_cloud_84px-b"/>
  </g>
</svg>
