<?xml version="1.0" encoding="UTF-8"?>
<svg width="84px" height="84px" viewBox="0 0 84 84" version="1.1" xmlns="http://www.w3.org/2000/svg" xmlns:xlink="http://www.w3.org/1999/xlink">
    <title>dcc_nav_defapp_84px</title>
    <defs>
        <linearGradient x1="5.16299127%" y1="2.90150287%" x2="97.1586934%" y2="100%" id="linearGradient-1">
            <stop stop-color="#C478FF" offset="0%"></stop>
            <stop stop-color="#0080FF" offset="100%"></stop>
        </linearGradient>
        <rect id="path-2" x="0" y="0" width="63" height="63" rx="8"></rect>
        <filter x="-5.6%" y="-4.0%" width="111.1%" height="111.1%" filterUnits="objectBoundingBox" id="filter-4">
            <feOffset dx="0" dy="1" in="SourceAlpha" result="shadowOffsetOuter1"></feOffset>
            <feGaussianBlur stdDeviation="1" in="shadowOffsetOuter1" result="shadowBlurOuter1"></feGaussianBlur>
            <feColorMatrix values="0 0 0 0 0   0 0 0 0 0   0 0 0 0 0  0 0 0 0.2 0" type="matrix" in="shadowBlurOuter1"></feColorMatrix>
        </filter>
        <radialGradient cx="27.7048929%" cy="10.6803319%" fx="27.7048929%" fy="10.6803319%" r="101.196393%" gradientTransform="translate(0.277049,0.106803),scale(0.885714,1.000000),rotate(46.892137),translate(-0.277049,-0.106803)" id="radialGradient-5">
            <stop stop-color="#ACD2FF" stop-opacity="0.799977122" offset="0%"></stop>
            <stop stop-color="#ACD2FF" stop-opacity="0" offset="0%"></stop>
            <stop stop-color="#9DD4FF" stop-opacity="0.64256276" offset="100%"></stop>
        </radialGradient>
        <rect id="path-6" x="25.5" y="24" width="52.5" height="46.5" rx="8"></rect>
        <filter x="-6.7%" y="-5.4%" width="113.3%" height="115.1%" filterUnits="objectBoundingBox" id="filter-8">
            <feOffset dx="0" dy="1" in="SourceAlpha" result="shadowOffsetOuter1"></feOffset>
            <feGaussianBlur stdDeviation="1" in="shadowOffsetOuter1" result="shadowBlurOuter1"></feGaussianBlur>
            <feComposite in="shadowBlurOuter1" in2="SourceAlpha" operator="out" result="shadowBlurOuter1"></feComposite>
            <feColorMatrix values="0 0 0 0 0   0 0 0 0 0   0 0 0 0 0  0 0 0 0.2 0" type="matrix" in="shadowBlurOuter1"></feColorMatrix>
        </filter>
        <filter x="-6.7%" y="-5.4%" width="113.3%" height="115.1%" filterUnits="objectBoundingBox" id="filter-9">
            <feOffset dx="0.7" dy="0.7" in="SourceAlpha" result="shadowOffsetInner1"></feOffset>
            <feComposite in="shadowOffsetInner1" in2="SourceAlpha" operator="arithmetic" k2="-1" k3="1" result="shadowInnerInner1"></feComposite>
            <feColorMatrix values="0 0 0 0 1   0 0 0 0 1   0 0 0 0 1  0 0 0 0.670082359 0" type="matrix" in="shadowInnerInner1" result="shadowMatrixInner1"></feColorMatrix>
            <feGaussianBlur stdDeviation="1" in="SourceAlpha" result="shadowBlurInner2"></feGaussianBlur>
            <feOffset dx="0.7" dy="1" in="shadowBlurInner2" result="shadowOffsetInner2"></feOffset>
            <feComposite in="shadowOffsetInner2" in2="SourceAlpha" operator="arithmetic" k2="-1" k3="1" result="shadowInnerInner2"></feComposite>
            <feColorMatrix values="0 0 0 0 0.759720865   0 0 0 0 0.74715725   0 0 0 0 1  0 0 0 0.486111301 0" type="matrix" in="shadowInnerInner2" result="shadowMatrixInner2"></feColorMatrix>
            <feMerge>
                <feMergeNode in="shadowMatrixInner1"></feMergeNode>
                <feMergeNode in="shadowMatrixInner2"></feMergeNode>
            </feMerge>
        </filter>
    </defs>
    <g id="dcc_nav_defapp_84px" stroke="none" stroke-width="1" fill="none" fill-rule="evenodd">
        <g id="编组-2">
            <rect id="矩形" x="0" y="0" width="84" height="84"></rect>
            <g id="编组" transform="translate(3.000000, 7.500000)">
                <rect id="矩形" fill-opacity="0.85" fill="#FFFFFF" fill-rule="nonzero" x="25.5" y="24" width="52.5" height="46.5" rx="4"></rect>
                <g id="矩形备份-12">
                    <mask id="mask-3" fill="white">
                        <use xlink:href="#path-2"></use>
                    </mask>
                    <g id="蒙版">
                        <use fill="black" fill-opacity="1" filter="url(#filter-4)" xlink:href="#path-2"></use>
                        <use fill="url(#linearGradient-1)" fill-rule="evenodd" xlink:href="#path-2"></use>
                    </g>
                    <path d="M8,0 L55,0 C59.418278,-8.11624501e-16 63,3.581722 63,8 L63,10.5 L63,10.5 L0,10.5 L0,8 C-5.41083001e-16,3.581722 3.581722,8.11624501e-16 8,0 Z" fill="#FFFFFF" opacity="0.5" mask="url(#mask-3)"></path>
                </g>
                <path d="M5,15 L58,15 C59.1045695,15 60,15.8954305 60,17 L60,54 C60,57.3137085 57.3137085,60 54,60 L9,60 C5.6862915,60 3,57.3137085 3,54 L3,17 C3,15.8954305 3.8954305,15 5,15 Z" id="矩形备份-12" fill="#387DFF" style="mix-blend-mode: multiply;" opacity="0.449999988"></path>
                <mask id="mask-7" fill="white">
                    <use xlink:href="#path-6"></use>
                </mask>
                <g id="矩形" fill-rule="nonzero">
                    <use fill="black" fill-opacity="1" filter="url(#filter-8)" xlink:href="#path-6"></use>
                    <use fill="url(#radialGradient-5)" xlink:href="#path-6"></use>
                    <use fill="black" fill-opacity="1" filter="url(#filter-9)" xlink:href="#path-6"></use>
                </g>
                <path d="M53.039602,56.521045 C53.039353,57.8413783 53.5638518,59.1077262 54.4977017,60.0414749 C55.4315516,60.9752236 56.6982467,61.4998755 58.0190967,61.5 C60.7700391,61.5 63,59.270442 63,56.521045 C63,53.7716479 60.7695696,51.5420899 58.0190967,51.5420899 L53.039602,51.5420899 L53.039602,56.521045 Z M51.9445781,56.5133002 C51.9445781,57.831328 51.4205864,59.095331 50.4880812,60.0271634 C49.555576,60.9589957 48.2909053,61.4823024 46.9723617,61.481929 C44.2270541,61.481929 42.0015541,59.2572993 42.0015541,56.5133002 C42.0015541,53.769301 44.2270541,51.5446715 46.9723617,51.5446715 L51.9445781,51.5446715 L51.9445781,56.5133002 Z M51.9445781,45.4706514 C51.9445781,43.4603429 50.7332917,41.6479295 48.8753093,40.878552 C47.0173269,40.1091745 44.8786494,40.5343519 43.4565568,41.9558211 C42.0344642,43.3772903 41.6090195,45.5151111 42.3786103,47.3724031 C43.1482012,49.2296951 44.9612666,50.4406883 46.9723617,50.4406883 L51.9445781,50.4406883 L51.9445781,45.4706514 Z" id="形状" fill="#FFFFFF" fill-rule="nonzero"></path>
                <path d="M53.0492281,45.4706514 C53.0492281,42.726887 55.2744933,40.5027268 58.0195662,40.5027268 C60.7646391,40.5027268 62.9896697,42.726887 62.9896697,45.4706514 C62.989981,46.7886792 62.4664099,48.0528306 61.5341688,48.984927 C60.6019278,49.9170235 59.3374055,50.4406883 58.0188619,50.4406883 L53.0492281,50.4406883 L53.0492281,45.4706514 Z" id="路径" fill="#FFFFFF" opacity="0.5"></path>
                <path d="M29.5,24 L74,24 C76.209139,24 78,25.790861 78,28 L78,33 L78,33 L25.5,33 L25.5,28 C25.5,25.790861 27.290861,24 29.5,24 Z" id="矩形" fill-opacity="0.85" fill="#FFFFFF" fill-rule="nonzero"></path>
            </g>
        </g>
    </g>
</svg>