<svg xmlns="http://www.w3.org/2000/svg" xmlns:xlink="http://www.w3.org/1999/xlink" width="32" height="32" viewBox="0 0 32 32">
  <defs>
    <path id="language_32px-a" d="M14.2962791,26.4857763 C11.6545059,26.1848786 9.29679869,24.9481773 7.56278893,23.1153039 C7.62400242,21.4234642 8.03545362,19.8209435 8.72680846,18.3780759 C8.97911486,18.4929772 9.25948799,18.5569862 9.55481122,18.5569862 C10.5331949,18.5569862 11.3474942,17.8544573 11.5207763,16.9263322 C13.6834207,17.476163 15.6116035,18.6133191 17.1255279,20.1580037 C16.7724652,20.5186653 16.5548112,21.0124078 16.5548112,21.5569862 C16.5548112,22.2779698 16.9363129,22.9098488 17.5084605,23.2617675 C16.6526567,24.5297671 15.5609442,25.625422 14.2962791,26.4857763 Z M15.8671872,26.5526362 C16.8945901,25.6973106 17.7880483,24.6865767 18.5114701,23.5565259 C18.5258801,23.5568323 18.5403277,23.5569862 18.5548112,23.5569862 C18.8501345,23.5569862 19.1305076,23.4929772 19.382814,23.3780759 C19.7124771,24.0660877 19.9784978,24.7904003 20.1732503,25.543388 C18.8578766,26.1527333 17.4018277,26.5098439 15.8671872,26.5526362 Z M13.1518751,4.82022803 C13.9253121,4.64788866 14.729446,4.55698623 15.5548112,4.55698623 C20.4968538,4.55698623 24.6776956,7.81607405 26.0653374,12.3022504 C24.3524668,11.3092659 22.3920109,10.696086 20.2992005,10.5779416 C19.9564722,9.96860295 19.3037108,9.55698623 18.5548112,9.55698623 C18.5403277,9.55698623 18.5258801,9.55714019 18.5114701,9.55744655 C17.2071644,7.5200023 15.3501234,5.8704201 13.1518751,4.82022803 Z M11.6450131,5.27209962 C14.0515552,6.14453193 16.0996533,7.7648494 17.5084605,9.85220496 C17.1256306,10.0876774 16.8281545,10.4484906 16.6732063,10.8774705 C14.1143004,11.4565614 11.8417416,12.7904204 10.1018559,14.6327212 C9.92799113,14.5833895 9.74448459,14.5569862 9.55481122,14.5569862 C8.80591161,14.5569862 8.15315022,14.968603 7.81042192,15.5779416 C6.68688135,15.6413683 5.60148743,15.847472 4.5720699,16.178423 C4.56061502,15.9727348 4.55481122,15.7655383 4.55481122,15.5569862 C4.55481122,10.8588688 7.50012003,6.8486651 11.6450131,5.27209962 Z M20.034215,20.2110963 C20.3730748,19.0519152 20.5548112,17.8256741 20.5548112,16.5569862 C20.5548112,15.2882983 20.3730748,14.0620572 20.034215,12.9028761 C20.3490853,12.5569721 20.5442903,12.1002116 20.5543985,11.598026 C22.7154738,11.7762364 24.7141905,12.5270842 26.3984691,13.6984897 C26.501271,14.3026312 26.5548112,14.9235562 26.5548112,15.5569862 C26.5548112,19.6173987 24.3548075,23.1639728 21.0817759,25.0697328 C20.85507,24.2536042 20.5507492,23.4697776 20.1772636,22.7267031 C20.4148208,22.3977764 20.5548112,21.9937296 20.5548112,21.5569862 C20.5548112,21.0386675 20.3576418,20.5664002 20.034215,20.2110963 Z M19.1529589,19.6479659 C18.9640891,19.5888483 18.7631711,19.5569862 18.5548112,19.5569862 C18.3651379,19.5569862 18.1816313,19.5833895 18.0077665,19.6327212 C16.2678809,17.7904204 13.995322,16.4565614 11.4364162,15.8774705 C11.3381277,15.6053552 11.1824895,15.3606686 10.9840945,15.1580037 C12.4980189,13.6133191 14.4262018,12.476163 16.5888461,11.9263322 C16.7621283,12.8544573 17.5764275,13.5569862 18.5548112,13.5569862 C18.7631711,13.5569862 18.9640891,13.5251242 19.1529589,13.4660066 C19.4151049,14.4521918 19.5548112,15.4882739 19.5548112,16.5569862 C19.5548112,17.6256985 19.4151049,18.6617806 19.1529589,19.6479659 Z M6.64584208,22.0104842 C5.63464156,20.6169529 4.94240804,18.9769278 4.67632831,17.1975959 C5.59121348,16.8853073 6.55585852,16.6804374 7.55522391,16.598026 C7.56369806,17.0190275 7.70226034,17.4081038 7.93235888,17.7267031 C7.27101464,19.0424916 6.82653696,20.4860583 6.64584172,22.0104874 Z"/>
  </defs>
  <use fill="#29B2DC" fill-rule="evenodd" transform="rotate(-135 15.555 15.555)" xlink:href="#language_32px-a"/>
</svg>
