<?xml version="1.0" encoding="UTF-8"?>
<svg width="84px" height="84px" viewBox="0 0 84 84" version="1.1" xmlns="http://www.w3.org/2000/svg" xmlns:xlink="http://www.w3.org/1999/xlink">
    <title>dcc_nav_keyboard_84px</title>
    <defs>
        <linearGradient x1="101.058273%" y1="49.8267114%" x2="0.173288625%" y2="49.8267114%" id="linearGradient-1">
            <stop stop-color="#979797" offset="0%"></stop>
            <stop stop-color="#C4C4C8" offset="3.95555121%"></stop>
            <stop stop-color="#C4C4C8" offset="97.1450118%"></stop>
            <stop stop-color="#979797" offset="100%"></stop>
        </linearGradient>
        <linearGradient x1="50%" y1="0%" x2="50%" y2="100%" id="linearGradient-2">
            <stop stop-color="#E5E6EA" offset="0%"></stop>
            <stop stop-color="#E9EAEE" offset="100%"></stop>
        </linearGradient>
        <path d="M10.1211296,0 L70.7589496,0 C72.5970198,-4.7785401e-15 74.1985158,1.25265835 74.6412046,3.03662259 L79.7683432,23.698161 C80.3004019,25.8422713 78.9935759,28.0117348 76.8494656,28.5437935 C76.5343094,28.6219992 76.2108028,28.6615385 75.8860882,28.6615385 L5.09071626,28.6615385 C2.88157726,28.6615385 1.09071626,26.8706775 1.09071626,24.6615385 C1.09071626,24.3427315 1.12882999,24.0250677 1.2042461,23.7153093 L6.23465941,3.05377079 C6.67102673,1.26146872 8.27647156,1.2270366e-15 10.1211296,0 Z" id="path-3"></path>
        <filter x="0.9%" y="-1.2%" width="98.1%" height="104.9%" filterUnits="objectBoundingBox" id="filter-4">
            <feOffset dx="0" dy="0.7" in="SourceAlpha" result="shadowOffsetOuter1"></feOffset>
            <feColorMatrix values="0 0 0 0 1   0 0 0 0 1   0 0 0 0 1  0 0 0 0.850334968 0" type="matrix" in="shadowOffsetOuter1"></feColorMatrix>
        </filter>
        <linearGradient x1="50%" y1="0%" x2="50%" y2="100%" id="linearGradient-5">
            <stop stop-color="#F4F4FA" offset="0%"></stop>
            <stop stop-color="#E7E7EB" offset="100%"></stop>
        </linearGradient>
        <path d="M70.0434442,15.2776936 L69.4767496,11.6700403 C69.3639294,10.956809 68.7479569,10.4316115 68.0256482,10.4316115 L63.6645633,10.4316115 C62.7853437,10.4316115 62.104532,11.1980109 62.206978,12.0694498 L62.6297296,15.6771031 C62.7166141,16.4162701 63.3429608,16.9738872 64.0873149,16.9738872 L68.5936396,16.9738872 C69.4949046,16.9738872 70.1834969,16.1685843 70.0434442,15.2776936 L70.0434442,15.2776936 Z M55.5013074,10.4316115 L51.119474,10.4316115 C50.2817515,10.4316115 49.6126109,11.1331717 49.654108,11.9695974 L49.8291738,15.5772507 C49.8667805,16.3592116 50.512579,16.9738872 51.2958366,16.9738872 L55.8216131,16.9738872 C56.6839745,16.9738872 57.3608958,16.2347203 57.2843855,15.3762492 L56.9640799,11.7685959 C56.8966471,11.011274 56.2625197,10.4316115 55.5013074,10.4316115 L55.5013074,10.4316115 Z M38.5108422,16.9738872 L43.0443994,16.9738872 C43.8652638,16.9738872 44.5279204,16.2982627 44.512359,15.4761016 L44.4397391,11.869745 C44.4228809,11.070926 43.7705985,10.4316115 42.9717795,10.4316115 L38.5821654,10.4316115 C37.7833464,10.4316115 37.131064,11.070926 37.1142058,11.869745 L37.0428827,15.4761016 C37.0260245,16.2982627 37.6886811,16.9738872 38.5108422,16.9738872 L38.5108422,16.9738872 Z M25.7323318,16.9738872 L30.2581083,16.9738872 C31.0426627,16.9738872 31.6871644,16.3592116 31.7247711,15.5772507 L31.9011337,11.9695974 C31.941334,11.1331717 31.2734902,10.4316115 30.4344709,10.4316115 L26.0526375,10.4316115 C25.2914252,10.4316115 24.6572978,11.011274 24.589865,11.7685959 L24.2695593,15.3762492 C24.1943459,16.2347203 24.8699704,16.9738872 25.7323318,16.9738872 L25.7323318,16.9738872 Z M63.0758233,20.4972496 C62.9707838,19.7762376 62.3522178,19.2432594 61.6247219,19.2432594 L20.4232977,19.2432594 C19.6945051,19.2432594 19.0746423,19.7788312 18.9708995,20.5011399 L18.5546319,23.3968588 C18.427547,24.2812656 19.1148426,25.0736007 20.00703,25.0736007 L62.0500671,25.0736007 C62.9448481,25.0736007 63.6321437,24.2773752 63.5011685,23.3916717 L63.0758233,20.4972496 Z M19.3469669,12.0694498 C19.4494129,11.1980109 18.7686012,10.4316115 17.8893816,10.4316115 L13.5282967,10.4316115 C12.805988,10.4316115 12.1913123,10.956809 12.0784921,11.6700403 L11.5105007,15.2776936 C11.370448,16.1685843 12.0590403,16.9738872 12.9603053,16.9738872 L17.46663,16.9738872 C18.2109841,16.9738872 18.8386276,16.4162701 18.9242153,15.6771031 L19.3469669,12.0694498 Z M63.131585,8.8235992 L67.3111202,8.8235992 C68.2123851,8.8235992 68.9009774,8.01829627 68.7609248,7.1274056 L68.2785211,4.06829193 C68.1669977,3.35506068 67.5510252,2.82856634 66.8287165,2.82856634 L62.7723758,2.82856634 C61.894453,2.82856634 61.2110478,3.59496574 61.3147905,4.46770143 L61.6739997,7.5268151 C61.7595875,8.26727882 62.387231,8.8235992 63.131585,8.8235992 L63.131585,8.8235992 Z M50.8990207,8.8235992 L55.0993044,8.8235992 C55.9616658,8.8235992 56.6372903,8.08572905 56.5620768,7.22725798 L56.2897522,4.16684752 C56.2223194,3.40952561 55.588192,2.82856634 54.8282765,2.82856634 L50.7498905,2.82856634 C49.912168,2.82856634 49.2430274,3.53012653 49.2845245,4.36784906 L49.4323579,7.42696273 C49.4712614,8.20892354 50.1170599,8.8235992 50.8990207,8.8235992 L50.8990207,8.8235992 Z M38.674237,8.8235992 L42.8810046,8.8235992 C43.701869,8.8235992 44.3645256,8.14927147 44.3489642,7.32711035 L44.2867186,4.2666999 C44.2711572,3.4678809 43.6188748,2.82856634 42.818759,2.82856634 L38.7351859,2.82856634 C37.9363669,2.82856634 37.2827877,3.4678809 37.2685231,4.2666999 L37.2062774,7.32711035 C37.1894193,8.14927147 37.8520759,8.8235992 38.674237,8.8235992 L38.674237,8.8235992 Z M26.4559373,8.8235992 L30.6549242,8.8235992 C31.4381818,8.8235992 32.0839803,8.20892354 32.121587,7.42696273 L32.2694204,4.36784906 C32.3109175,3.53012653 31.6430737,2.82856634 30.8040544,2.82856634 L26.7269652,2.82856634 C25.9670497,2.82856634 25.3316255,3.40952561 25.2654895,4.16684752 L24.9931649,7.22725798 C24.9166546,8.08572905 25.5935759,8.8235992 26.4559373,8.8235992 L26.4559373,8.8235992 Z M14.2441215,8.8235992 L18.4223599,8.8235992 C19.1680107,8.8235992 19.7943574,8.26727882 19.8799452,7.5268151 L20.2404512,4.46770143 C20.3428971,3.59496574 19.6594919,2.82856634 18.7828659,2.82856634 L14.7265252,2.82856634 C14.0029197,2.82856634 13.388244,3.35506068 13.2767206,4.06829193 L12.7943169,7.1274056 C12.6529674,8.01829627 13.3415598,8.8235992 14.2441215,8.8235992 L14.2441215,8.8235992 Z" id="path-6"></path>
        <filter x="-0.6%" y="-1.6%" width="101.2%" height="105.4%" filterUnits="objectBoundingBox" id="filter-7">
            <feMorphology radius="0.1" operator="dilate" in="SourceAlpha" result="shadowSpreadOuter1"></feMorphology>
            <feOffset dx="0" dy="0.5" in="shadowSpreadOuter1" result="shadowOffsetOuter1"></feOffset>
            <feComposite in="shadowOffsetOuter1" in2="SourceAlpha" operator="out" result="shadowOffsetOuter1"></feComposite>
            <feColorMatrix values="0 0 0 0 0   0 0 0 0 0   0 0 0 0 0  0 0 0 0.29007833 0" type="matrix" in="shadowOffsetOuter1"></feColorMatrix>
        </filter>
        <filter x="-1.0%" y="-2.7%" width="102.0%" height="107.6%" filterUnits="objectBoundingBox" id="filter-8">
            <feOffset dx="0" dy="-1" in="SourceAlpha" result="shadowOffsetInner1"></feOffset>
            <feComposite in="shadowOffsetInner1" in2="SourceAlpha" operator="arithmetic" k2="-1" k3="1" result="shadowInnerInner1"></feComposite>
            <feColorMatrix values="0 0 0 0 0.980392157   0 0 0 0 0.980392157   0 0 0 0 0.992156863  0 0 0 1 0" type="matrix" in="shadowInnerInner1" result="shadowMatrixInner1"></feColorMatrix>
            <feOffset dx="0" dy="-0.7" in="SourceAlpha" result="shadowOffsetInner2"></feOffset>
            <feComposite in="shadowOffsetInner2" in2="SourceAlpha" operator="arithmetic" k2="-1" k3="1" result="shadowInnerInner2"></feComposite>
            <feColorMatrix values="0 0 0 0 0.768627451   0 0 0 0 0.768627451   0 0 0 0 0.784313725  0 0 0 1 0" type="matrix" in="shadowInnerInner2" result="shadowMatrixInner2"></feColorMatrix>
            <feMerge>
                <feMergeNode in="shadowMatrixInner1"></feMergeNode>
                <feMergeNode in="shadowMatrixInner2"></feMergeNode>
            </feMerge>
        </filter>
        <linearGradient x1="50%" y1="0%" x2="50%" y2="100%" id="linearGradient-9">
            <stop stop-color="#00CEE3" stop-opacity="0" offset="0%"></stop>
            <stop stop-color="#009AAB" offset="100%"></stop>
        </linearGradient>
        <filter x="-15.3%" y="-36.9%" width="130.5%" height="173.9%" filterUnits="objectBoundingBox" id="filter-10">
            <feGaussianBlur stdDeviation="3" in="SourceGraphic"></feGaussianBlur>
        </filter>
        <linearGradient x1="50%" y1="0%" x2="50%" y2="88.2716256%" id="linearGradient-11">
            <stop stop-color="#00D4E9" offset="0%"></stop>
            <stop stop-color="#72EEFF" offset="100%"></stop>
        </linearGradient>
        <path d="M51.9636364,2.94545455 C54.1727754,2.94545455 55.9636364,4.73631555 55.9636364,6.94545455 L55.9636364,38.9454545 C55.9636364,40.3853967 55.3549468,41.6831717 54.3808354,42.595512 C54.2399855,42.8541176 54.0498582,43.0920094 53.8123065,43.2950174 L53.8123065,43.2950174 L30.5566427,63.1689479 C29.45212,64.1128559 27.8299572,64.129617 26.7061665,63.208733 L26.7061665,63.208733 L2.44513866,43.3281717 C2.3485607,43.2490315 2.2587464,43.1633678 2.17612393,43.0720852 L2.07982774,43.0045576 C0.820087837,42.0966889 2.43142221e-15,40.6168426 0,38.9454545 L0,6.94545455 C-2.705415e-16,4.73631555 1.790861,2.94545455 4,2.94545455 L51.9636364,2.94545455 Z" id="path-12"></path>
        <filter x="-0.9%" y="-0.8%" width="101.8%" height="101.6%" filterUnits="objectBoundingBox" id="filter-13">
            <feOffset dx="0" dy="1" in="SourceAlpha" result="shadowOffsetInner1"></feOffset>
            <feComposite in="shadowOffsetInner1" in2="SourceAlpha" operator="arithmetic" k2="-1" k3="1" result="shadowInnerInner1"></feComposite>
            <feColorMatrix values="0 0 0 0 0.406310737   0 0 0 0 1   0 0 0 0 0.990687227  0 0 0 1 0" type="matrix" in="shadowInnerInner1" result="shadowMatrixInner1"></feColorMatrix>
            <feOffset dx="0" dy="-0.7" in="SourceAlpha" result="shadowOffsetInner2"></feOffset>
            <feComposite in="shadowOffsetInner2" in2="SourceAlpha" operator="arithmetic" k2="-1" k3="1" result="shadowInnerInner2"></feComposite>
            <feColorMatrix values="0 0 0 0 0.425542174   0 0 0 0 0.600006077   0 0 0 0 0.621282163  0 0 0 1 0" type="matrix" in="shadowInnerInner2" result="shadowMatrixInner2"></feColorMatrix>
            <feMerge>
                <feMergeNode in="shadowMatrixInner1"></feMergeNode>
                <feMergeNode in="shadowMatrixInner2"></feMergeNode>
            </feMerge>
        </filter>
        <path d="M17.9480667,42.2873664 L21.0145674,34.2176279 L34.2489385,34.2176279 L37.3154391,42.2873664 L40.9064727,42.2873664 L29.5684901,13.4784 L25.7353644,13.4784 L14.3973818,42.2873664 L17.9480667,42.2873664 Z M33.1998725,31.4335681 L22.0636334,31.4335681 L27.5914042,17.0290849 L27.752799,17.0290849 L33.1998725,31.4335681 Z" id="path-14"></path>
        <filter x="-7.5%" y="-3.5%" width="115.1%" height="113.9%" filterUnits="objectBoundingBox" id="filter-15">
            <feOffset dx="0" dy="1" in="SourceAlpha" result="shadowOffsetOuter1"></feOffset>
            <feGaussianBlur stdDeviation="0.5" in="shadowOffsetOuter1" result="shadowBlurOuter1"></feGaussianBlur>
            <feColorMatrix values="0 0 0 0 0   0 0 0 0 0   0 0 0 0 0  0 0 0 0.154301997 0" type="matrix" in="shadowBlurOuter1"></feColorMatrix>
        </filter>
    </defs>
    <g id="dcc_nav_keyboard_84px" stroke="none" stroke-width="1" fill="none" fill-rule="evenodd">
        <path d="M63.2960413,2 C64.06704,2 64.8084416,2.29683812 65.3664079,2.82892144 L66.7851156,4.18181818 C67.7152398,5.06879576 68.3883151,6.1736109 68.7546929,7.38031339 C68.9597618,7.86057719 69.0730672,8.38978392 69.0730672,8.94545455 L69.0730672,40.9454545 C69.0730672,42.3853967 68.4643777,43.6831717 67.4902663,44.595512 C67.3775864,44.8023965 67.2333689,44.9960241 67.0585626,45.1691399 L66.9217373,45.2950174 L43.6660735,65.1689479 C42.6117564,66.069951 41.085788,66.1261776 39.9718353,65.3284973 L39.8155974,65.208733 L15.5545695,45.3281717 C15.4579916,45.2490315 15.3681773,45.1633678 15.2855548,45.0720852 L15.1892586,45.0045576 C13.9295187,44.0966889 13.1094309,42.6168426 13.1094309,40.9454545 L13.1094309,8.94545455 C13.1094309,8.61073652 13.1505434,8.28562083 13.2279941,7.97488175 L13.2609363,7.85501405 C13.5608439,6.42728306 14.2966476,5.11387513 15.3845562,4.10656694 L16.7970696,2.79870322 C17.3516154,2.28524232 18.0795243,2 18.8352777,2 L63.2960413,2 Z" id="形状结合" fill="#FFFFFF"></path>
        <g id="编组-4" transform="translate(1.000000, 2.000000)">
            <g id="编组-2" transform="translate(0.000000, 45.257149)">
                <path d="M1.14794298,24.7695234 L79.8195468,24.7695234 L79.8195468,29.8727273 C79.8195468,32.0818663 78.0286858,33.8727273 75.8195468,33.8727273 L5.14794298,33.8727273 C2.93880399,33.8727273 1.14794298,32.0818663 1.14794298,29.8727273 L1.14794298,24.7695234 L1.14794298,24.7695234 Z" id="矩形备份" fill="url(#linearGradient-1)"></path>
                <g id="矩形备份-2">
                    <use fill="black" fill-opacity="1" filter="url(#filter-4)" xlink:href="#path-3"></use>
                    <use fill="url(#linearGradient-2)" fill-rule="evenodd" xlink:href="#path-3"></use>
                </g>
                <g id="Fill-1">
                    <use fill="black" fill-opacity="1" filter="url(#filter-7)" xlink:href="#path-6"></use>
                    <use fill="url(#linearGradient-5)" fill-rule="evenodd" xlink:href="#path-6"></use>
                    <use fill="black" fill-opacity="1" filter="url(#filter-8)" xlink:href="#path-6"></use>
                    <use stroke="#BCBFC3" stroke-width="0.2" xlink:href="#path-6"></use>
                </g>
            </g>
            <g id="编组" transform="translate(11.963048, 0.000000)">
                <polygon id="路径-2" fill-opacity="0.6" fill="url(#linearGradient-9)" filter="url(#filter-10)" points="23.4979464 70.0266723 0.16627566 49.629641 0.16627566 45.6545455 59.1080242 45.6545455 59.1080242 49.2250102 36.5050737 70.0266723"></polygon>
                <g id="气泡" transform="translate(0.146383, 0.000000)">
                    <g id="编组-3">
                        <path d="M2.27512534,3.60656694 L3.66748036,1.39938236 C4.21697849,0.528308681 5.17489491,6.33280871e-16 6.20480635,0 L49.7199291,0 C50.7570515,-3.74322996e-15 51.7206131,0.53567733 52.2680166,1.41657012 L53.6756847,3.68181818 C55.1711295,6.08831824 55.9636364,8.86513676 55.9636364,11.6984383 L55.9636364,16.0909091 C55.9636364,19.4046176 53.2773449,22.0909091 49.9636364,22.0909091 L6,22.0909091 C2.6862915,22.0909091 5.72492311e-14,19.4046176 5.68434189e-14,16.0909091 L5.68434189e-14,11.4773478 C5.82786155e-14,8.69156315 0.788799983,5.96271489 2.27512534,3.60656694 Z" id="形状结合" fill="#FFFFFF"></path>
                        <path d="M2.27512534,2.10656694 L3.68763868,0.798703221 C4.2421845,0.285242318 4.97009345,-3.05259566e-16 5.72584683,0 L50.1866104,0 C50.9576091,2.44626422e-17 51.6990108,0.296838116 52.256977,0.828921443 L53.6756847,2.18181818 C55.136829,3.5751829 55.9636364,5.5061202 55.9636364,7.52513178 L55.9636364,16.0909091 C55.9636364,19.4046176 53.2773449,22.0909091 49.9636364,22.0909091 L6,22.0909091 C2.6862915,22.0909091 1.29399067e-15,19.4046176 0,16.0909091 L0,7.31374989 C-2.42094359e-16,5.33689943 0.824580488,3.44964452 2.27512534,2.10656694 Z" id="形状结合" fill-opacity="0.8" fill="#00DDF2"></path>
                        <g id="形状结合">
                            <use fill="url(#linearGradient-11)" fill-rule="evenodd" xlink:href="#path-12"></use>
                            <use fill="black" fill-opacity="1" filter="url(#filter-13)" xlink:href="#path-12"></use>
                        </g>
                    </g>
                    <g id="A" fill-rule="nonzero">
                        <use fill="black" fill-opacity="1" filter="url(#filter-15)" xlink:href="#path-14"></use>
                        <use fill="#FFFFFF" xlink:href="#path-14"></use>
                    </g>
                </g>
            </g>
        </g>
    </g>
</svg>