<?xml version="1.0" encoding="UTF-8"?>
<svg width="42px" height="42px" viewBox="0 0 42 42" version="1.1" xmlns="http://www.w3.org/2000/svg" xmlns:xlink="http://www.w3.org/1999/xlink">
    <title>设置中心/dcc_nav_keyboard_42px</title>
    <defs>
        <linearGradient x1="101.058273%" y1="49.9974471%" x2="0%" y2="50%" id="linearGradient-1">
            <stop stop-color="#2F3241" offset="0%"></stop>
            <stop stop-color="#535465" offset="2.89875241%"></stop>
            <stop stop-color="#6E7187" offset="97.1450118%"></stop>
            <stop stop-color="#606376" offset="100%"></stop>
        </linearGradient>
        <linearGradient x1="50%" y1="0%" x2="50%" y2="100%" id="linearGradient-2">
            <stop stop-color="#7D829B" offset="0%"></stop>
            <stop stop-color="#6E7288" offset="100%"></stop>
        </linearGradient>
        <path d="M4.48603913,0 L28.4923693,0 C29.3136347,7.11806027e-17 30.0291968,0.55969841 30.2269939,1.35678882 L32.3548764,9.93181085 C32.5926048,10.8898175 32.0087038,11.8591523 31.0506971,12.0968807 C30.9098826,12.1318236 30.7653371,12.1494901 30.6202519,12.1494901 L2.39829988,12.1494901 C1.41123777,12.1494901 0.611065833,11.3493182 0.611065833,10.3622561 C0.611065833,10.2198104 0.628095369,10.0778755 0.661791933,9.93947281 L2.74953119,1.36445078 C2.94450382,0.563634961 3.66183024,8.17538532e-16 4.48603913,0 Z" id="path-3"></path>
        <filter x="-0.0%" y="-4.1%" width="100.0%" height="116.5%" filterUnits="objectBoundingBox" id="filter-4">
            <feOffset dx="0" dy="1" in="SourceAlpha" result="shadowOffsetOuter1"></feOffset>
            <feColorMatrix values="0 0 0 0 0.649173427   0 0 0 0 0.666974128   0 0 0 0 0.764877983  0 0 0 1 0" type="matrix" in="shadowOffsetOuter1"></feColorMatrix>
        </filter>
        <linearGradient x1="50%" y1="0%" x2="50%" y2="100%" id="linearGradient-5">
            <stop stop-color="#BCC1D6" offset="0%"></stop>
            <stop stop-color="#B8BBCD" offset="100%"></stop>
        </linearGradient>
        <linearGradient x1="50%" y1="0%" x2="50%" y2="100%" id="linearGradient-6">
            <stop stop-color="#00CEE3" stop-opacity="0" offset="0%"></stop>
            <stop stop-color="#009AAB" offset="100%"></stop>
        </linearGradient>
        <filter x="-15.3%" y="-36.9%" width="130.5%" height="173.9%" filterUnits="objectBoundingBox" id="filter-7">
            <feGaussianBlur stdDeviation="1.34042553" in="SourceGraphic"></feGaussianBlur>
        </filter>
        <linearGradient x1="50%" y1="0%" x2="50%" y2="88.2716256%" id="linearGradient-8">
            <stop stop-color="#11E9FF" offset="0%"></stop>
            <stop stop-color="#0EC5E5" offset="100%"></stop>
        </linearGradient>
        <path d="M19.5579946,1.34042553 C20.4507712,1.34042553 21.1745096,2.06768373 21.1745096,2.96480218 L21.1742695,16.9665429 C21.1742589,17.5840122 20.8555227,18.157738 20.3312623,18.4839578 L11.6623278,23.8781818 L11.6623278,23.8781818 C11.2584147,24.1876439 10.7083088,24.209737 10.283055,23.9414857 L10.2133819,23.8940882 L1.05926442,18.4784597 C0.515846703,18.1569706 0.182383471,17.572609 0.182043139,16.9412154 L0.174509607,2.96480218 L0.174509607,2.96480218 C0.174509607,2.06768373 0.898248045,1.34042553 1.79102465,1.34042553 L19.5579946,1.34042553 Z" id="path-9"></path>
        <filter x="-2.4%" y="-2.2%" width="104.8%" height="104.4%" filterUnits="objectBoundingBox" id="filter-10">
            <feOffset dx="0" dy="1" in="SourceAlpha" result="shadowOffsetInner1"></feOffset>
            <feComposite in="shadowOffsetInner1" in2="SourceAlpha" operator="arithmetic" k2="-1" k3="1" result="shadowInnerInner1"></feComposite>
            <feColorMatrix values="0 0 0 0 0.406310737   0 0 0 0 1   0 0 0 0 0.990687227  0 0 0 1 0" type="matrix" in="shadowInnerInner1"></feColorMatrix>
        </filter>
        <path d="M6.97557164,16.9419665 L8.21602632,13.6776121 L13.5695676,13.6776121 L14.8100222,16.9419665 L16.26266,16.9419665 L11.676242,5.28822128 L10.1256737,5.28822128 L5.5392557,16.9419665 L6.97557164,16.9419665 Z M13.1452015,12.5514099 L8.64039239,12.5514099 L10.8764752,6.72453722 L10.9417623,6.72453722 L13.1452015,12.5514099 Z" id="path-11"></path>
        <filter x="-18.7%" y="-8.6%" width="137.3%" height="134.3%" filterUnits="objectBoundingBox" id="filter-12">
            <feOffset dx="0" dy="1" in="SourceAlpha" result="shadowOffsetOuter1"></feOffset>
            <feGaussianBlur stdDeviation="0.5" in="shadowOffsetOuter1" result="shadowBlurOuter1"></feGaussianBlur>
            <feColorMatrix values="0 0 0 0 0   0 0 0 0 0   0 0 0 0 0  0 0 0 0.154301997 0" type="matrix" in="shadowBlurOuter1"></feColorMatrix>
        </filter>
    </defs>
    <g id="设置中心/dcc_nav_keyboard_42px" stroke="none" stroke-width="1" fill="none" fill-rule="evenodd">
        <g id="编组-4" transform="translate(4.468085, 4.021277)">
            <g id="编组-2" transform="translate(0.000000, 17.425532)">
                <path d="M0.635842881,10.4996834 L32.4279869,10.4996834 L32.4279869,12.5712543 C32.4279869,13.5583164 31.627815,14.3584883 30.6407529,14.3584883 L2.42307692,14.3584883 C1.43601482,14.3584883 0.635842881,13.5583164 0.635842881,12.5712543 L0.635842881,10.4996834 L0.635842881,10.4996834 Z" id="矩形备份" fill="url(#linearGradient-1)"></path>
                <g id="矩形备份-2">
                    <use fill="black" fill-opacity="1" filter="url(#filter-4)" xlink:href="#path-3"></use>
                    <use fill="url(#linearGradient-2)" fill-rule="evenodd" xlink:href="#path-3"></use>
                </g>
                <path d="M28.8432931,6.97614181 L28.6030739,5.44687468 C28.5552499,5.14453934 28.2941421,4.92191059 27.9879589,4.92191059 L26.1393157,4.92191059 C25.7666187,4.92191059 25.4780258,5.24678366 25.5214522,5.61618248 L25.7006546,7.14544961 C25.7374845,7.45877896 26.0029899,7.69515023 26.3185181,7.69515023 L28.2287278,7.69515023 C28.6107697,7.69515023 28.9026607,7.35378614 28.8432931,6.97614181 L28.8432931,6.97614181 Z M22.6789503,4.92191059 L20.8215119,4.92191059 C20.4664053,4.92191059 20.1827598,5.21929863 20.2003502,5.57385553 L20.2745598,7.10312266 C20.2905011,7.43459213 20.564252,7.69515023 20.8962712,7.69515023 L22.8147263,7.69515023 C23.1802772,7.69515023 23.467221,7.38182087 23.4347886,7.01791906 L23.2990126,5.48865193 C23.2704282,5.16762677 23.0016245,4.92191059 22.6789503,4.92191059 L22.6789503,4.92191059 Z M15.4767727,7.69515023 L17.3985261,7.69515023 C17.7464866,7.69515023 18.0273836,7.4087562 18.0207872,7.06024601 L17.990004,5.53152858 C17.9828579,5.192913 17.7063585,4.92191059 17.3677429,4.92191059 L15.5070063,4.92191059 C15.1683907,4.92191059 14.8918913,5.192913 14.8847452,5.53152858 L14.8545116,7.06024601 C14.8473655,7.4087562 15.1282625,7.69515023 15.4767727,7.69515023 L15.4767727,7.69515023 Z M10.0600228,7.69515023 L11.978478,7.69515023 C12.3110469,7.69515023 12.5842481,7.43459213 12.6001894,7.10312266 L12.6749487,5.57385553 C12.6919894,5.21929863 12.4088936,4.92191059 12.0532373,4.92191059 L10.1957989,4.92191059 C9.8731246,4.92191059 9.60432099,5.16762677 9.57573656,5.48865193 L9.43996051,7.01791906 C9.40807787,7.38182087 9.6944719,7.69515023 10.0600228,7.69515023 L10.0600228,7.69515023 Z M25.8897516,9.18868682 C25.8452259,8.88305327 25.5830187,8.65712632 25.2746366,8.65712632 L7.80954846,8.65712632 C7.50061671,8.65712632 7.23785982,8.88415267 7.19388377,9.19033592 L7.01742987,10.4178174 C6.96355921,10.7927132 7.25490054,11.1285803 7.63309456,11.1285803 L25.4549384,11.1285803 C25.8342319,11.1285803 26.1255732,10.7910641 26.0700534,10.4156186 L25.8897516,9.18868682 Z M7.35329695,5.61618248 C7.3967233,5.24678366 7.10813047,4.92191059 6.73543345,4.92191059 L4.88679026,4.92191059 C4.58060701,4.92191059 4.32004892,5.14453934 4.27222496,5.44687468 L4.03145609,6.97614181 C3.97208842,7.35378614 4.26397945,7.69515023 4.64602139,7.69515023 L6.55623105,7.69515023 C6.8717592,7.69515023 7.1378143,7.45877896 7.17409455,7.14544961 L7.35329695,5.61618248 Z M25.9133887,4.24028182 L27.6850738,4.24028182 C28.0671158,4.24028182 28.3590068,3.89891773 28.2996391,3.52127341 L28.0951505,2.22452964 C28.0478763,1.9221943 27.7867685,1.69901585 27.4805852,1.69901585 L25.7611217,1.69901585 C25.3889743,1.69901585 25.0992821,2.02388891 25.1432582,2.39383743 L25.2955252,3.6905812 C25.3318055,4.00446025 25.5978606,4.24028182 25.9133887,4.24028182 L25.9133887,4.24028182 Z M20.7280628,4.24028182 L22.5085431,4.24028182 C22.874094,4.24028182 23.160488,3.92750217 23.1286054,3.56360035 L23.0131683,2.26630689 C22.9845838,1.94528172 22.7157802,1.69901585 22.3936557,1.69901585 L20.6648472,1.69901585 C20.3097406,1.69901585 20.0260951,1.99640388 20.0436855,2.35151048 L20.1063514,3.64825425 C20.1228424,3.97972372 20.3965933,4.24028182 20.7280628,4.24028182 L20.7280628,4.24028182 Z M15.546035,4.24028182 L17.3292638,4.24028182 C17.6772243,4.24028182 17.9581213,3.9544375 17.9515249,3.6059273 L17.9251393,2.30863383 C17.9185429,1.97001825 17.6420435,1.69901585 17.3028782,1.69901585 L15.5718709,1.69901585 C15.2332554,1.69901585 14.9562062,1.97001825 14.9501595,2.30863383 L14.9237739,3.6059273 C14.9166278,3.9544375 15.1975248,4.24028182 15.546035,4.24028182 L15.546035,4.24028182 Z M10.3667558,4.24028182 L12.1466864,4.24028182 C12.4787055,4.24028182 12.7524565,3.97972372 12.7683978,3.64825425 L12.8310636,2.35151048 C12.8486541,1.99640388 12.5655582,1.69901585 12.2099019,1.69901585 L10.4816432,1.69901585 C10.1595186,1.69901585 9.89016532,1.94528172 9.86213059,2.26630689 L9.74669346,3.56360035 C9.71426112,3.92750217 10.0012048,4.24028182 10.3667558,4.24028182 L10.3667558,4.24028182 Z M5.190225,4.24028182 L6.9613604,4.24028182 C7.27743826,4.24028182 7.54294366,4.00446025 7.5792239,3.6905812 L7.73204068,2.39383743 C7.77546703,2.02388891 7.4857748,1.69901585 7.11417718,1.69901585 L5.39471363,1.69901585 C5.08798069,1.69901585 4.82742259,1.9221943 4.78014834,2.22452964 L4.57565971,3.52127341 C4.51574234,3.89891773 4.80763337,4.24028182 5.190225,4.24028182 L5.190225,4.24028182 Z" id="Fill-1" fill="#383B4F"></path>
                <path d="M28.8432931,6.47614181 L28.6030739,4.94687468 C28.5552499,4.64453934 28.2941421,4.42191059 27.9879589,4.42191059 L26.1393157,4.42191059 C25.7666187,4.42191059 25.4780258,4.74678366 25.5214522,5.11618248 L25.7006546,6.64544961 C25.7374845,6.95877896 26.0029899,7.19515023 26.3185181,7.19515023 L28.2287278,7.19515023 C28.6107697,7.19515023 28.9026607,6.85378614 28.8432931,6.47614181 L28.8432931,6.47614181 Z M22.6789503,4.42191059 L20.8215119,4.42191059 C20.4664053,4.42191059 20.1827598,4.71929863 20.2003502,5.07385553 L20.2745598,6.60312266 C20.2905011,6.93459213 20.564252,7.19515023 20.8962712,7.19515023 L22.8147263,7.19515023 C23.1802772,7.19515023 23.467221,6.88182087 23.4347886,6.51791906 L23.2990126,4.98865193 C23.2704282,4.66762677 23.0016245,4.42191059 22.6789503,4.42191059 L22.6789503,4.42191059 Z M15.4767727,7.19515023 L17.3985261,7.19515023 C17.7464866,7.19515023 18.0273836,6.9087562 18.0207872,6.56024601 L17.990004,5.03152858 C17.9828579,4.692913 17.7063585,4.42191059 17.3677429,4.42191059 L15.5070063,4.42191059 C15.1683907,4.42191059 14.8918913,4.692913 14.8847452,5.03152858 L14.8545116,6.56024601 C14.8473655,6.9087562 15.1282625,7.19515023 15.4767727,7.19515023 L15.4767727,7.19515023 Z M10.0600228,7.19515023 L11.978478,7.19515023 C12.3110469,7.19515023 12.5842481,6.93459213 12.6001894,6.60312266 L12.6749487,5.07385553 C12.6919894,4.71929863 12.4088936,4.42191059 12.0532373,4.42191059 L10.1957989,4.42191059 C9.8731246,4.42191059 9.60432099,4.66762677 9.57573656,4.98865193 L9.43996051,6.51791906 C9.40807787,6.88182087 9.6944719,7.19515023 10.0600228,7.19515023 L10.0600228,7.19515023 Z M25.8897516,8.68868682 C25.8452259,8.38305327 25.5830187,8.15712632 25.2746366,8.15712632 L7.80954846,8.15712632 C7.50061671,8.15712632 7.23785982,8.38415267 7.19388377,8.69033592 L7.01742987,9.91781741 C6.96355921,10.2927132 7.25490054,10.6285803 7.63309456,10.6285803 L25.4549384,10.6285803 C25.8342319,10.6285803 26.1255732,10.2910641 26.0700534,9.9156186 L25.8897516,8.68868682 Z M7.35329695,5.11618248 C7.3967233,4.74678366 7.10813047,4.42191059 6.73543345,4.42191059 L4.88679026,4.42191059 C4.58060701,4.42191059 4.32004892,4.64453934 4.27222496,4.94687468 L4.03145609,6.47614181 C3.97208842,6.85378614 4.26397945,7.19515023 4.64602139,7.19515023 L6.55623105,7.19515023 C6.8717592,7.19515023 7.1378143,6.95877896 7.17409455,6.64544961 L7.35329695,5.11618248 Z M25.9133887,3.74028182 L27.6850738,3.74028182 C28.0671158,3.74028182 28.3590068,3.39891773 28.2996391,3.02127341 L28.0951505,1.72452964 C28.0478763,1.4221943 27.7867685,1.19901585 27.4805852,1.19901585 L25.7611217,1.19901585 C25.3889743,1.19901585 25.0992821,1.52388891 25.1432582,1.89383743 L25.2955252,3.1905812 C25.3318055,3.50446025 25.5978606,3.74028182 25.9133887,3.74028182 L25.9133887,3.74028182 Z M20.7280628,3.74028182 L22.5085431,3.74028182 C22.874094,3.74028182 23.160488,3.42750217 23.1286054,3.06360035 L23.0131683,1.76630689 C22.9845838,1.44528172 22.7157802,1.19901585 22.3936557,1.19901585 L20.6648472,1.19901585 C20.3097406,1.19901585 20.0260951,1.49640388 20.0436855,1.85151048 L20.1063514,3.14825425 C20.1228424,3.47972372 20.3965933,3.74028182 20.7280628,3.74028182 L20.7280628,3.74028182 Z M15.546035,3.74028182 L17.3292638,3.74028182 C17.6772243,3.74028182 17.9581213,3.4544375 17.9515249,3.1059273 L17.9251393,1.80863383 C17.9185429,1.47001825 17.6420435,1.19901585 17.3028782,1.19901585 L15.5718709,1.19901585 C15.2332554,1.19901585 14.9562062,1.47001825 14.9501595,1.80863383 L14.9237739,3.1059273 C14.9166278,3.4544375 15.1975248,3.74028182 15.546035,3.74028182 L15.546035,3.74028182 Z M10.3667558,3.74028182 L12.1466864,3.74028182 C12.4787055,3.74028182 12.7524565,3.47972372 12.7683978,3.14825425 L12.8310636,1.85151048 C12.8486541,1.49640388 12.5655582,1.19901585 12.2099019,1.19901585 L10.4816432,1.19901585 C10.1595186,1.19901585 9.89016532,1.44528172 9.86213059,1.76630689 L9.74669346,3.06360035 C9.71426112,3.42750217 10.0012048,3.74028182 10.3667558,3.74028182 L10.3667558,3.74028182 Z M5.190225,3.74028182 L6.9613604,3.74028182 C7.27743826,3.74028182 7.54294366,3.50446025 7.5792239,3.1905812 L7.73204068,1.89383743 C7.77546703,1.52388891 7.4857748,1.19901585 7.11417718,1.19901585 L5.39471363,1.19901585 C5.08798069,1.19901585 4.82742259,1.4221943 4.78014834,1.72452964 L4.57565971,3.02127341 C4.51574234,3.39891773 4.80763337,3.74028182 5.190225,3.74028182 L5.190225,3.74028182 Z" id="Fill-1" fill="url(#linearGradient-5)"></path>
            </g>
            <g id="编组" transform="translate(3.127660, 0.000000)">
                <polygon id="路径-2" fill-opacity="0.6" fill="url(#linearGradient-6)" filter="url(#filter-7)" points="10.4990824 28.1608536 0.0742933799 19.0472864 0.0742933799 17.2711799 26.4099683 17.2711799 26.4099683 18.8664939 16.3107776 28.1608536"></polygon>
                <g id="气泡" transform="translate(1.852639, 0.000000)">
                    <g id="编组-3" transform="translate(0.223404, 0.000000)">
                        <path d="M1.04679525,1.42591395 L1.52699428,0.640938861 C1.77055826,0.242788002 2.20369463,3.07783606e-16 2.67043602,0 L18.6628647,0 C19.1327895,-5.30412993e-16 19.5683973,0.246085203 19.8109445,0.648577631 L20.2973064,1.45566574 C20.8712248,2.40804876 21.1745096,3.49893264 21.1745096,4.61087502 L21.1745096,5.03013382 C21.1745096,6.20031605 20.2258895,7.14893617 19.0557073,7.14893617 L2.32306374,7.14893617 C1.13645006,7.14893617 0.174509607,6.18699572 0.174509607,5.00038204 L0.174509607,4.52338791 C0.174509607,3.43027357 0.476365262,2.35838841 1.04679525,1.42591395 Z" id="形状结合" fill="#FFFFFF"></path>
                        <path d="M1.09395319,0.843275763 L1.62898407,0.352567492 C1.87622906,0.125804578 2.19951979,-8.26550464e-16 2.53500675,0 L18.7922686,0 C19.1345599,8.15277249e-15 19.4638832,0.130947222 19.7127146,0.365992484 L20.2498825,0.873399442 C20.8400595,1.43087852 21.1745096,2.20686685 21.1745096,3.01871153 L21.1745096,5.36170213 C21.1745096,6.84229529 19.9742517,8.04255319 18.4936585,8.04255319 L2.85536067,8.04255319 C1.37476751,8.04255319 0.174509607,6.84229529 0.174509607,5.36170213 L0.174509607,2.93414542 C0.174509607,2.13915133 0.508063649,1.38062951 1.09395319,0.843275763 Z" id="形状结合" fill-opacity="0.8" fill="#00DDF2"></path>
                        <g id="路径">
                            <use fill="url(#linearGradient-8)" fill-rule="evenodd" xlink:href="#path-9"></use>
                            <use fill="black" fill-opacity="1" filter="url(#filter-10)" xlink:href="#path-9"></use>
                        </g>
                    </g>
                    <g id="A" fill-rule="nonzero">
                        <use fill="black" fill-opacity="1" filter="url(#filter-12)" xlink:href="#path-11"></use>
                        <use fill="#FFFFFF" xlink:href="#path-11"></use>
                    </g>
                </g>
            </g>
        </g>
    </g>
</svg>