<?xml version="1.0" encoding="UTF-8"?>
<svg width="84px" height="84px" viewBox="0 0 84 84" version="1.1" xmlns="http://www.w3.org/2000/svg" xmlns:xlink="http://www.w3.org/1999/xlink">
    <title>dcc_nav_network_84px</title>
    <defs>
        <radialGradient cx="38.3799498%" cy="30.5032425%" fx="38.3799498%" fy="30.5032425%" r="61.0158561%" id="radialGradient-1">
            <stop stop-color="#97D4FF" offset="0%"></stop>
            <stop stop-color="#2B97FF" offset="65.848159%"></stop>
            <stop stop-color="#006AFF" stop-opacity="0.817329887" offset="100%"></stop>
        </radialGradient>
        <radialGradient cx="31.1909534%" cy="22.4286983%" fx="31.1909534%" fy="22.4286983%" r="77.8427887%" id="radialGradient-2">
            <stop stop-color="#8CEBFF" offset="0%"></stop>
            <stop stop-color="#0070FC" offset="100%"></stop>
        </radialGradient>
        <circle id="path-3" cx="40" cy="40" r="40"></circle>
        <filter x="-4.4%" y="-3.1%" width="108.8%" height="108.8%" filterUnits="objectBoundingBox" id="filter-5">
            <feOffset dx="0" dy="1" in="SourceAlpha" result="shadowOffsetOuter1"></feOffset>
            <feGaussianBlur stdDeviation="1" in="shadowOffsetOuter1" result="shadowBlurOuter1"></feGaussianBlur>
            <feColorMatrix values="0 0 0 0 0   0 0 0 0 0   0 0 0 0 0  0 0 0 0.2 0" type="matrix" in="shadowBlurOuter1"></feColorMatrix>
        </filter>
        <filter x="-6.2%" y="-5.0%" width="112.5%" height="112.5%" filterUnits="objectBoundingBox" id="filter-6">
            <feGaussianBlur stdDeviation="1.5" in="SourceAlpha" result="shadowBlurInner1"></feGaussianBlur>
            <feOffset dx="0" dy="-3" in="shadowBlurInner1" result="shadowOffsetInner1"></feOffset>
            <feComposite in="shadowOffsetInner1" in2="SourceAlpha" operator="arithmetic" k2="-1" k3="1" result="shadowInnerInner1"></feComposite>
            <feColorMatrix values="0 0 0 0 0.393333175   0 0 0 0 0.740787397   0 0 0 0 1  0 0 0 1 0" type="matrix" in="shadowInnerInner1"></feColorMatrix>
        </filter>
        <radialGradient cx="29.5591961%" cy="100%" fx="29.5591961%" fy="100%" r="173.877599%" gradientTransform="translate(0.295592,1.000000),scale(1.000000,0.772763),rotate(-63.290915),translate(-0.295592,-1.000000)" id="radialGradient-7">
            <stop stop-color="#FFFFFF" stop-opacity="0.95" offset="0%"></stop>
            <stop stop-color="#FFFFFF" stop-opacity="0" offset="100%"></stop>
        </radialGradient>
        <path d="M30.0322556,32.5347081 C30.0610299,32.8595791 29.9792957,33.1846512 29.8002899,33.4572792 L20.3500678,47.8500844 C19.9111066,48.5186277 19.0132969,48.7047408 18.3447536,48.2657796 C18.1833663,48.1598137 18.0447976,48.022646 17.9371972,47.8623437 L16.4916543,45.7066602 C7.67943416,53.8906881 12.4682611,67.4598409 12.946661,69.4644509 C5.21398923,70.3862007 -0.000465859059,64.8464435 0,58.4865898 C0,51.1297278 3.71856103,44.2208714 11.1556831,37.7600206 L9.34869812,35.0672532 C8.90296633,34.4032048 9.07994686,33.5035503 9.7439952,33.0578185 C9.94658676,32.9218322 10.1802546,32.8392411 10.4233024,32.817714 L28.4620236,31.2199994 C29.258678,31.1494386 29.9616948,31.7380537 30.0322556,32.5347081 Z" id="path-8"></path>
        <filter x="-28.7%" y="-17.2%" width="159.1%" height="144.7%" filterUnits="objectBoundingBox" id="filter-9">
            <feOffset dx="0" dy="2" in="SourceAlpha" result="shadowOffsetOuter1"></feOffset>
            <feGaussianBlur stdDeviation="2.5" in="shadowOffsetOuter1" result="shadowBlurOuter1"></feGaussianBlur>
            <feComposite in="shadowBlurOuter1" in2="SourceAlpha" operator="out" result="shadowBlurOuter1"></feComposite>
            <feColorMatrix values="0 0 0 0 0   0 0 0 0 0   0 0 0 0 0  0 0 0 0.2 0" type="matrix" in="shadowBlurOuter1"></feColorMatrix>
        </filter>
        <filter x="-17.8%" y="-8.7%" width="137.1%" height="127.7%" filterUnits="objectBoundingBox" id="filter-10">
            <feOffset dx="-0.5" dy="-0.5" in="SourceAlpha" result="shadowOffsetInner1"></feOffset>
            <feComposite in="shadowOffsetInner1" in2="SourceAlpha" operator="arithmetic" k2="-1" k3="1" result="shadowInnerInner1"></feComposite>
            <feColorMatrix values="0 0 0 0 0.896774962   0 0 0 0 0.943185766   0 0 0 0 1  0 0 0 0.5 0" type="matrix" in="shadowInnerInner1" result="shadowMatrixInner1"></feColorMatrix>
            <feOffset dx="0.5" dy="0" in="SourceAlpha" result="shadowOffsetInner2"></feOffset>
            <feComposite in="shadowOffsetInner2" in2="SourceAlpha" operator="arithmetic" k2="-1" k3="1" result="shadowInnerInner2"></feComposite>
            <feColorMatrix values="0 0 0 0 1   0 0 0 0 1   0 0 0 0 1  0 0 0 1 0" type="matrix" in="shadowInnerInner2" result="shadowMatrixInner2"></feColorMatrix>
            <feMerge>
                <feMergeNode in="shadowMatrixInner1"></feMergeNode>
                <feMergeNode in="shadowMatrixInner2"></feMergeNode>
            </feMerge>
        </filter>
        <radialGradient cx="26.4769727%" cy="75.2077964%" fx="26.4769727%" fy="75.2077964%" r="117.64757%" gradientTransform="translate(0.264770,0.752078),scale(1.000000,0.772763),rotate(-55.816668),translate(-0.264770,-0.752078)" id="radialGradient-11">
            <stop stop-color="#FFFFFF" stop-opacity="0.95" offset="0%"></stop>
            <stop stop-color="#FFFFFF" stop-opacity="0" offset="100%"></stop>
        </radialGradient>
        <path d="M80.4670382,11.6651429 C80.4958125,11.9900138 80.4140783,12.315086 80.2350725,12.587714 L70.7848504,26.9805192 C70.3458892,27.6490625 69.4480795,27.8351755 68.7795362,27.3962144 C68.6181489,27.2902485 68.4795802,27.1530807 68.3719798,26.9927785 L66.9264369,24.837095 C58.1142168,33.0211229 62.9030437,46.5902757 63.3814436,48.5948857 C55.6487718,49.5166354 50.4343167,43.9768782 50.4347826,37.6170246 C50.4347826,30.2601626 54.1533436,23.3513062 61.5904657,16.8904554 L59.7834807,14.197688 C59.3377489,13.5336396 59.5147295,12.6339851 60.1787778,12.1882533 C60.3813694,12.052267 60.6150372,11.9696759 60.858085,11.9481488 L78.8968062,10.3504342 C79.6934606,10.2798734 80.3964774,10.8684885 80.4670382,11.6651429 Z" id="path-12"></path>
        <filter x="-25.4%" y="-19.8%" width="152.3%" height="139.4%" filterUnits="objectBoundingBox" id="filter-13">
            <feOffset dx="0" dy="0" in="SourceAlpha" result="shadowOffsetOuter1"></feOffset>
            <feGaussianBlur stdDeviation="2.5" in="shadowOffsetOuter1" result="shadowBlurOuter1"></feGaussianBlur>
            <feComposite in="shadowBlurOuter1" in2="SourceAlpha" operator="out" result="shadowBlurOuter1"></feComposite>
            <feColorMatrix values="0 0 0 0 0   0 0 0 0 0   0 0 0 0 0  0 0 0 0.2 0" type="matrix" in="shadowBlurOuter1"></feColorMatrix>
        </filter>
        <filter x="-17.8%" y="-13.9%" width="137.1%" height="127.7%" filterUnits="objectBoundingBox" id="filter-14">
            <feOffset dx="0.5" dy="0.5" in="SourceAlpha" result="shadowOffsetInner1"></feOffset>
            <feComposite in="shadowOffsetInner1" in2="SourceAlpha" operator="arithmetic" k2="-1" k3="1" result="shadowInnerInner1"></feComposite>
            <feColorMatrix values="0 0 0 0 0.898039216   0 0 0 0 0.945098039   0 0 0 0 1  0 0 0 0.5 0" type="matrix" in="shadowInnerInner1" result="shadowMatrixInner1"></feColorMatrix>
            <feOffset dx="-0.5" dy="0" in="SourceAlpha" result="shadowOffsetInner2"></feOffset>
            <feComposite in="shadowOffsetInner2" in2="SourceAlpha" operator="arithmetic" k2="-1" k3="1" result="shadowInnerInner2"></feComposite>
            <feColorMatrix values="0 0 0 0 1   0 0 0 0 1   0 0 0 0 1  0 0 0 1 0" type="matrix" in="shadowInnerInner2" result="shadowMatrixInner2"></feColorMatrix>
            <feMerge>
                <feMergeNode in="shadowMatrixInner1"></feMergeNode>
                <feMergeNode in="shadowMatrixInner2"></feMergeNode>
            </feMerge>
        </filter>
    </defs>
    <g id="dcc_nav_network_84px" stroke="none" stroke-width="1" fill="none" fill-rule="evenodd">
        <g id="网络" transform="translate(2.000000, 2.000000)">
            <path d="M30.0322556,32.5347081 C30.0610299,32.8595791 29.9792957,33.1846512 29.8002899,33.4572792 L20.3500678,47.8500844 C19.9111066,48.5186277 19.0132969,48.7047408 18.3447536,48.2657796 C18.1833663,48.1598137 18.0447976,48.022646 17.9371972,47.8623437 L16.4916543,45.7066602 C7.67943416,53.8906881 12.4682611,67.4598409 12.946661,69.4644509 C5.21398923,70.3862007 -0.000465859059,64.8464435 -1.77635684e-15,58.4865898 C-1.77635684e-15,51.1297278 3.71856103,44.2208714 11.1556831,37.7600206 L9.34869812,35.0672532 C8.90296633,34.4032048 9.07994686,33.5035503 9.7439952,33.0578185 C9.94658676,32.9218322 10.1802546,32.8392411 10.4233024,32.817714 L28.4620236,31.2199994 C29.258678,31.1494386 29.9616948,31.7380537 30.0322556,32.5347081 Z" id="形状结合" fill="#FFFFFF" fill-rule="nonzero"></path>
            <path d="M80.4670382,11.6651429 C80.4958125,11.9900138 80.4140783,12.315086 80.2350725,12.587714 L70.7848504,26.9805192 C70.3458892,27.6490625 69.4480795,27.8351755 68.7795362,27.3962144 C68.6181489,27.2902485 68.4795802,27.1530807 68.3719798,26.9927785 L66.9264369,24.837095 C58.1142168,33.0211229 62.9030437,46.5902757 63.3814436,48.5948857 C55.6487718,49.5166354 50.4343167,43.9768782 50.4347826,37.6170246 C50.4347826,30.2601626 54.1533436,23.3513062 61.5904657,16.8904554 L59.7834807,14.197688 C59.3377489,13.5336396 59.5147295,12.6339851 60.1787778,12.1882533 C60.3813694,12.052267 60.6150372,11.9696759 60.858085,11.9481488 L78.8968062,10.3504342 C79.6934606,10.2798734 80.3964774,10.8684885 80.4670382,11.6651429 Z" id="形状结合" fill="#FFFFFF" fill-rule="nonzero" transform="translate(65.219617, 29.563218) scale(-1, -1) translate(-65.219617, -29.563218) "></path>
            <g id="编组">
                <mask id="mask-4" fill="white">
                    <use xlink:href="#path-3"></use>
                </mask>
                <g id="椭圆形备份">
                    <use fill="black" fill-opacity="1" filter="url(#filter-5)" xlink:href="#path-3"></use>
                    <use fill="url(#radialGradient-1)" fill-rule="evenodd" xlink:href="#path-3"></use>
                    <use fill="url(#radialGradient-2)" fill-rule="evenodd" xlink:href="#path-3"></use>
                    <use fill="black" fill-opacity="1" filter="url(#filter-6)" xlink:href="#path-3"></use>
                </g>
                <rect id="矩形" fill-opacity="0.5" fill="#FFFFFF" fill-rule="nonzero" mask="url(#mask-4)" x="39.1304348" y="-6.95652174" width="1.73913043" height="93.9130435" rx="0.869565217"></rect>
                <circle id="椭圆形" stroke-opacity="0.5" stroke="#FFFFFF" stroke-width="1.30434783" mask="url(#mask-4)" cx="57.3913043" cy="40" r="44.5652174"></circle>
                <circle id="椭圆形" stroke-opacity="0.5" stroke="#FFFFFF" stroke-width="1.30434783" mask="url(#mask-4)" cx="22.6086957" cy="40" r="44.5652174"></circle>
                <circle id="椭圆形" stroke-opacity="0.5" stroke="#FFFFFF" stroke-width="1.30434783" mask="url(#mask-4)" cx="40" cy="57.3913043" r="44.5652174"></circle>
                <circle id="椭圆形" stroke-opacity="0.5" stroke="#FFFFFF" stroke-width="1.30434783" mask="url(#mask-4)" cx="40" cy="22.6086957" r="44.5652174"></circle>
            </g>
            <g id="形状结合" fill-rule="nonzero">
                <use fill="black" fill-opacity="1" filter="url(#filter-9)" xlink:href="#path-8"></use>
                <use fill="url(#radialGradient-7)" xlink:href="#path-8"></use>
                <use fill="black" fill-opacity="1" filter="url(#filter-10)" xlink:href="#path-8"></use>
            </g>
            <g id="形状结合" fill-rule="nonzero" transform="translate(65.219617, 29.563218) scale(-1, -1) translate(-65.219617, -29.563218) ">
                <use fill="black" fill-opacity="1" filter="url(#filter-13)" xlink:href="#path-12"></use>
                <use fill="url(#radialGradient-11)" xlink:href="#path-12"></use>
                <use fill="black" fill-opacity="1" filter="url(#filter-14)" xlink:href="#path-12"></use>
            </g>
        </g>
    </g>
</svg>