<?xml version="1.0" encoding="UTF-8"?>
<svg width="42px" height="42px" viewBox="0 0 42 42" version="1.1" xmlns="http://www.w3.org/2000/svg" xmlns:xlink="http://www.w3.org/1999/xlink">
    <title>dcc_nav_network_42px</title>
    <defs>
        <radialGradient cx="38.3799498%" cy="30.5032425%" fx="38.3799498%" fy="30.5032425%" r="61.0158561%" id="radialGradient-1">
            <stop stop-color="#97D4FF" offset="0%"></stop>
            <stop stop-color="#2B97FF" offset="65.848159%"></stop>
            <stop stop-color="#006AFF" stop-opacity="0.817329887" offset="100%"></stop>
        </radialGradient>
        <radialGradient cx="31.1909534%" cy="22.4286983%" fx="31.1909534%" fy="22.4286983%" r="77.8427887%" id="radialGradient-2">
            <stop stop-color="#8CEBFF" offset="0%"></stop>
            <stop stop-color="#0070FC" offset="100%"></stop>
        </radialGradient>
        <circle id="path-3" cx="19" cy="19" r="19"></circle>
        <filter x="-9.2%" y="-6.6%" width="118.4%" height="118.4%" filterUnits="objectBoundingBox" id="filter-5">
            <feOffset dx="0" dy="1" in="SourceAlpha" result="shadowOffsetOuter1"></feOffset>
            <feGaussianBlur stdDeviation="1" in="shadowOffsetOuter1" result="shadowBlurOuter1"></feGaussianBlur>
            <feColorMatrix values="0 0 0 0 0   0 0 0 0 0   0 0 0 0 0  0 0 0 0.2 0" type="matrix" in="shadowBlurOuter1"></feColorMatrix>
        </filter>
        <filter x="-13.2%" y="-10.5%" width="126.3%" height="126.3%" filterUnits="objectBoundingBox" id="filter-6">
            <feGaussianBlur stdDeviation="1.5" in="SourceAlpha" result="shadowBlurInner1"></feGaussianBlur>
            <feOffset dx="0" dy="-3" in="shadowBlurInner1" result="shadowOffsetInner1"></feOffset>
            <feComposite in="shadowOffsetInner1" in2="SourceAlpha" operator="arithmetic" k2="-1" k3="1" result="shadowInnerInner1"></feComposite>
            <feColorMatrix values="0 0 0 0 0.393333175   0 0 0 0 0.740787397   0 0 0 0 1  0 0 0 1 0" type="matrix" in="shadowInnerInner1"></feColorMatrix>
        </filter>
        <radialGradient cx="29.5591961%" cy="100%" fx="29.5591961%" fy="100%" r="173.877599%" gradientTransform="translate(0.295592,1.000000),scale(1.000000,0.772763),rotate(-63.290915),translate(-0.295592,-1.000000)" id="radialGradient-7">
            <stop stop-color="#FFFFFF" stop-opacity="0.95" offset="0%"></stop>
            <stop stop-color="#FFFFFF" stop-opacity="0" offset="100%"></stop>
        </radialGradient>
        <path d="M13.5248851,16.2828057 C13.5536593,16.6076766 13.4719252,16.9327488 13.2929194,17.2053768 L10.2948134,21.7715293 C9.85585227,22.4400725 8.95804253,22.6261856 8.28949925,22.1872245 C8.12811191,22.0812586 7.98954319,21.9440908 7.88194287,21.7837886 L7.83264843,21.7114878 C3.64805273,25.5989878 5.9224401,32.0434917 6.14966395,32.9956142 C2.47664489,33.4334453 -0.000221283053,30.8020606 0,27.7811302 C0,24.2868596 1.766075,21.0053626 5.29822499,17.9366392 L5.15722062,17.7245149 C4.71148883,17.0604666 4.88846936,16.1608121 5.5525177,15.7150803 C5.75510926,15.5790939 5.98877713,15.4965029 6.23182488,15.4749758 L11.9546531,14.9680969 C12.7513075,14.8975361 13.4543243,15.4861513 13.5248851,16.2828057 Z" id="path-8"></path>
        <filter x="-60.5%" y="-35.2%" width="217.4%" height="193.0%" filterUnits="objectBoundingBox" id="filter-9">
            <feOffset dx="0" dy="2" in="SourceAlpha" result="shadowOffsetOuter1"></feOffset>
            <feGaussianBlur stdDeviation="2.5" in="shadowOffsetOuter1" result="shadowBlurOuter1"></feGaussianBlur>
            <feComposite in="shadowBlurOuter1" in2="SourceAlpha" operator="out" result="shadowBlurOuter1"></feComposite>
            <feColorMatrix values="0 0 0 0 0   0 0 0 0 0   0 0 0 0 0  0 0 0 0.2 0" type="matrix" in="shadowBlurOuter1"></feColorMatrix>
        </filter>
        <filter x="-37.4%" y="-17.4%" width="171.1%" height="157.2%" filterUnits="objectBoundingBox" id="filter-10">
            <feOffset dx="-0.5" dy="-0.5" in="SourceAlpha" result="shadowOffsetInner1"></feOffset>
            <feComposite in="shadowOffsetInner1" in2="SourceAlpha" operator="arithmetic" k2="-1" k3="1" result="shadowInnerInner1"></feComposite>
            <feColorMatrix values="0 0 0 0 0.896774962   0 0 0 0 0.943185766   0 0 0 0 1  0 0 0 0.5 0" type="matrix" in="shadowInnerInner1" result="shadowMatrixInner1"></feColorMatrix>
            <feOffset dx="0.5" dy="0" in="SourceAlpha" result="shadowOffsetInner2"></feOffset>
            <feComposite in="shadowOffsetInner2" in2="SourceAlpha" operator="arithmetic" k2="-1" k3="1" result="shadowInnerInner2"></feComposite>
            <feColorMatrix values="0 0 0 0 1   0 0 0 0 1   0 0 0 0 1  0 0 0 1 0" type="matrix" in="shadowInnerInner2" result="shadowMatrixInner2"></feColorMatrix>
            <feMerge>
                <feMergeNode in="shadowMatrixInner1"></feMergeNode>
                <feMergeNode in="shadowMatrixInner2"></feMergeNode>
            </feMerge>
        </filter>
        <radialGradient cx="26.4769727%" cy="75.2077964%" fx="26.4769727%" fy="75.2077964%" r="117.64757%" gradientTransform="translate(0.264770,0.752078),scale(1.000000,0.772763),rotate(-55.816668),translate(-0.264770,-0.752078)" id="radialGradient-11">
            <stop stop-color="#FFFFFF" stop-opacity="0.95" offset="0%"></stop>
            <stop stop-color="#FFFFFF" stop-opacity="0" offset="100%"></stop>
        </radialGradient>
        <path d="M37.4814068,6.3697622 C37.5101811,6.69463314 37.4284469,7.0197053 37.2494411,7.2923333 L34.2513352,11.8584858 C33.812374,12.5270291 32.9145643,12.7131421 32.246021,12.274181 C32.0846336,12.1682151 31.9460649,12.0310473 31.8384646,11.8707451 L31.7891702,11.7984444 C27.6045745,15.6859444 29.8789618,22.1304483 30.1061857,23.0825707 C26.4331666,23.5204018 23.9563005,20.8890172 23.9565217,17.8680867 C23.9565217,14.3738161 25.7225967,11.0923191 29.2547467,8.02359572 L29.1137424,7.81147146 C28.6680106,7.14742313 28.8449911,6.24776858 29.5090394,5.8020368 C29.711631,5.66605046 29.9452989,5.5834594 30.1883466,5.56193232 L35.9111749,5.05505346 C36.7078292,4.98449267 37.410846,5.57310782 37.4814068,6.3697622 Z" id="path-12"></path>
        <filter x="-53.4%" y="-40.7%" width="203.1%" height="182.0%" filterUnits="objectBoundingBox" id="filter-13">
            <feOffset dx="0" dy="0" in="SourceAlpha" result="shadowOffsetOuter1"></feOffset>
            <feGaussianBlur stdDeviation="2.5" in="shadowOffsetOuter1" result="shadowBlurOuter1"></feGaussianBlur>
            <feComposite in="shadowBlurOuter1" in2="SourceAlpha" operator="out" result="shadowBlurOuter1"></feComposite>
            <feColorMatrix values="0 0 0 0 0   0 0 0 0 0   0 0 0 0 0  0 0 0 0.2 0" type="matrix" in="shadowBlurOuter1"></feColorMatrix>
        </filter>
        <filter x="-37.4%" y="-28.4%" width="171.1%" height="157.2%" filterUnits="objectBoundingBox" id="filter-14">
            <feOffset dx="0.5" dy="0.5" in="SourceAlpha" result="shadowOffsetInner1"></feOffset>
            <feComposite in="shadowOffsetInner1" in2="SourceAlpha" operator="arithmetic" k2="-1" k3="1" result="shadowInnerInner1"></feComposite>
            <feColorMatrix values="0 0 0 0 0.898039216   0 0 0 0 0.945098039   0 0 0 0 1  0 0 0 0.5 0" type="matrix" in="shadowInnerInner1" result="shadowMatrixInner1"></feColorMatrix>
            <feOffset dx="-0.5" dy="0" in="SourceAlpha" result="shadowOffsetInner2"></feOffset>
            <feComposite in="shadowOffsetInner2" in2="SourceAlpha" operator="arithmetic" k2="-1" k3="1" result="shadowInnerInner2"></feComposite>
            <feColorMatrix values="0 0 0 0 1   0 0 0 0 1   0 0 0 0 1  0 0 0 1 0" type="matrix" in="shadowInnerInner2" result="shadowMatrixInner2"></feColorMatrix>
            <feMerge>
                <feMergeNode in="shadowMatrixInner1"></feMergeNode>
                <feMergeNode in="shadowMatrixInner2"></feMergeNode>
            </feMerge>
        </filter>
    </defs>
    <g id="dcc_nav_network_42px" stroke="none" stroke-width="1" fill="none" fill-rule="evenodd">
        <g id="网络" transform="translate(2.000000, 2.000000)">
            <path d="M13.5248851,16.2828057 C13.5536593,16.6076766 13.4719252,16.9327488 13.2929194,17.2053768 L10.2948134,21.7715293 C9.85585227,22.4400725 8.95804253,22.6261856 8.28949925,22.1872245 C8.12811191,22.0812586 7.98954319,21.9440908 7.88194287,21.7837886 L7.83264843,21.7114878 C3.64805273,25.5989878 5.9224401,32.0434917 6.14966395,32.9956142 C2.47664489,33.4334453 -0.000221283053,30.8020606 7.10542736e-15,27.7811302 C7.10542736e-15,24.2868596 1.766075,21.0053626 5.29822499,17.9366392 L5.15722062,17.7245149 C4.71148883,17.0604666 4.88846936,16.1608121 5.5525177,15.7150803 C5.75510926,15.5790939 5.98877713,15.4965029 6.23182488,15.4749758 L11.9546531,14.9680969 C12.7513075,14.8975361 13.4543243,15.4861513 13.5248851,16.2828057 Z" id="形状结合" fill="#FFFFFF" fill-rule="nonzero"></path>
            <path d="M37.4814068,6.3697622 C37.5101811,6.69463314 37.4284469,7.0197053 37.2494411,7.2923333 L34.2513352,11.8584858 C33.812374,12.5270291 32.9145643,12.7131421 32.246021,12.274181 C32.0846336,12.1682151 31.9460649,12.0310473 31.8384646,11.8707451 L31.7891702,11.7984444 C27.6045745,15.6859444 29.8789618,22.1304483 30.1061857,23.0825707 C26.4331666,23.5204018 23.9563005,20.8890172 23.9565217,17.8680867 C23.9565217,14.3738161 25.7225967,11.0923191 29.2547467,8.02359572 L29.1137424,7.81147146 C28.6680106,7.14742313 28.8449911,6.24776858 29.5090394,5.8020368 C29.711631,5.66605046 29.9452989,5.5834594 30.1883466,5.56193232 L35.9111749,5.05505346 C36.7078292,4.98449267 37.410846,5.57310782 37.4814068,6.3697622 Z" id="形状结合" fill="#FFFFFF" fill-rule="nonzero" transform="translate(30.979318, 14.042529) scale(-1, -1) translate(-30.979318, -14.042529) "></path>
            <g id="编组">
                <mask id="mask-4" fill="white">
                    <use xlink:href="#path-3"></use>
                </mask>
                <g id="椭圆形备份">
                    <use fill="black" fill-opacity="1" filter="url(#filter-5)" xlink:href="#path-3"></use>
                    <use fill="url(#radialGradient-1)" fill-rule="evenodd" xlink:href="#path-3"></use>
                    <use fill="url(#radialGradient-2)" fill-rule="evenodd" xlink:href="#path-3"></use>
                    <use fill="black" fill-opacity="1" filter="url(#filter-6)" xlink:href="#path-3"></use>
                </g>
                <rect id="矩形" fill-opacity="0.5" fill="#FFFFFF" fill-rule="nonzero" mask="url(#mask-4)" x="18.5869565" y="-3.30434783" width="1" height="44.6086957" rx="0.5"></rect>
                <circle id="椭圆形" stroke-opacity="0.5" stroke="#FFFFFF" stroke-width="1.30434783" mask="url(#mask-4)" cx="27.2608696" cy="19" r="20.826087"></circle>
                <circle id="椭圆形" stroke-opacity="0.5" stroke="#FFFFFF" stroke-width="1.30434783" mask="url(#mask-4)" cx="10.7391304" cy="19" r="20.826087"></circle>
                <circle id="椭圆形" stroke-opacity="0.5" stroke="#FFFFFF" stroke-width="1.30434783" mask="url(#mask-4)" cx="19" cy="27.2608696" r="20.826087"></circle>
                <circle id="椭圆形" stroke-opacity="0.5" stroke="#FFFFFF" stroke-width="1.30434783" mask="url(#mask-4)" cx="19" cy="10.7391304" r="20.826087"></circle>
            </g>
            <g id="形状结合" fill-rule="nonzero">
                <use fill="black" fill-opacity="1" filter="url(#filter-9)" xlink:href="#path-8"></use>
                <use fill="url(#radialGradient-7)" xlink:href="#path-8"></use>
                <use fill="black" fill-opacity="1" filter="url(#filter-10)" xlink:href="#path-8"></use>
            </g>
            <g id="形状结合" fill-rule="nonzero" transform="translate(30.979318, 14.042529) scale(-1, -1) translate(-30.979318, -14.042529) ">
                <use fill="black" fill-opacity="1" filter="url(#filter-13)" xlink:href="#path-12"></use>
                <use fill="url(#radialGradient-11)" xlink:href="#path-12"></use>
                <use fill="black" fill-opacity="1" filter="url(#filter-14)" xlink:href="#path-12"></use>
            </g>
        </g>
    </g>
</svg>