<?xml version="1.0" encoding="UTF-8"?>
<svg width="42px" height="42px" viewBox="0 0 42 42" version="1.1" xmlns="http://www.w3.org/2000/svg" xmlns:xlink="http://www.w3.org/1999/xlink">
    <title>dcc_nav_keyboard_42px</title>
    <defs>
        <linearGradient x1="50%" y1="0%" x2="50%" y2="100%" id="linearGradient-1">
            <stop stop-color="#E5E6EA" offset="0%"></stop>
            <stop stop-color="#E9EAEE" offset="100%"></stop>
        </linearGradient>
        <path d="M4.37112283,1.84615385 L35.570193,1.84615385 C36.5258956,1.84615385 37.3480541,2.52230442 37.5325655,3.46002659 L39.5304924,13.6138727 C39.7437446,14.6976611 39.0380356,15.7491203 37.9542472,15.9623725 C37.8270616,15.9873982 37.6977443,16 37.5681199,16 L2.42073033,16 C1.31616083,16 0.420730328,15.1045695 0.420730328,14 C0.420730328,13.8733899 0.432752859,13.7470658 0.456636042,13.6227287 L2.40702854,3.46888254 C2.58794851,2.52700366 3.41202541,1.84615385 4.37112283,1.84615385 Z" id="path-2"></path>
        <filter x="-5.2%" y="-10.6%" width="110.4%" height="142.4%" filterUnits="objectBoundingBox" id="filter-3">
            <feOffset dx="0" dy="2" in="SourceAlpha" result="shadowOffsetOuter1"></feOffset>
            <feGaussianBlur stdDeviation="0.5" in="shadowOffsetOuter1" result="shadowBlurOuter1"></feGaussianBlur>
            <feColorMatrix values="0 0 0 0 0   0 0 0 0 0   0 0 0 0 0  0 0 0 0.130041589 0" type="matrix" in="shadowBlurOuter1"></feColorMatrix>
        </filter>
        <linearGradient x1="101.058273%" y1="49.8267114%" x2="0.173288625%" y2="49.8267114%" id="linearGradient-4">
            <stop stop-color="#979797" offset="0%"></stop>
            <stop stop-color="#C4C4C8" offset="3.95555121%"></stop>
            <stop stop-color="#C4C4C8" offset="97.1450118%"></stop>
            <stop stop-color="#979797" offset="100%"></stop>
        </linearGradient>
        <path d="M4.37112283,0 L35.570193,0 C36.5258956,2.04488634e-15 37.3480541,0.676150577 37.5325655,1.61387274 L39.5304924,11.7677189 C39.7437446,12.8515073 39.0380356,13.9029664 37.9542472,14.1162186 C37.8270616,14.1412444 37.6977443,14.1538462 37.5681199,14.1538462 L2.42073033,14.1538462 C1.31616083,14.1538462 0.420730328,13.2584157 0.420730328,12.1538462 C0.420730328,12.027236 0.432752859,11.900912 0.456636042,11.7765749 L2.40702854,1.6227287 C2.58794851,0.680849814 3.41202541,-4.58612667e-17 4.37112283,0 Z" id="path-5"></path>
        <filter x="0.6%" y="-1.2%" width="98.7%" height="104.9%" filterUnits="objectBoundingBox" id="filter-6">
            <feOffset dx="0" dy="0.35" in="SourceAlpha" result="shadowOffsetOuter1"></feOffset>
            <feColorMatrix values="0 0 0 0 1   0 0 0 0 1   0 0 0 0 1  0 0 0 0.850334968 0" type="matrix" in="shadowOffsetOuter1"></feColorMatrix>
        </filter>
        <path d="M5.01748976,0 L34.9233781,0 C35.8424132,-1.68824002e-16 36.6431612,0.626329173 36.8645056,1.51831129 L39.3841716,11.6721574 C39.6502009,12.7442126 38.9967879,13.8289443 37.9247328,14.0949737 C37.7671547,14.1340765 37.6054014,14.1538462 37.4430441,14.1538462 L2.54535813,14.1538462 C1.44078863,14.1538462 0.545358131,13.2584157 0.545358131,12.1538462 C0.545358131,11.9944427 0.564414993,11.8356108 0.602123052,11.6807315 L3.07425468,1.5268854 C3.29243834,0.630734362 4.09516076,1.05760751e-15 5.01748976,0 Z" id="path-7"></path>
        <filter x="0.5%" y="-2.5%" width="99.0%" height="109.9%" filterUnits="objectBoundingBox" id="filter-8">
            <feOffset dx="0" dy="0.7" in="SourceAlpha" result="shadowOffsetOuter1"></feOffset>
            <feColorMatrix values="0 0 0 0 1   0 0 0 0 1   0 0 0 0 1  0 0 0 0.850334968 0" type="matrix" in="shadowOffsetOuter1"></feColorMatrix>
        </filter>
        <linearGradient x1="50%" y1="0%" x2="50%" y2="100%" id="linearGradient-9">
            <stop stop-color="#F4F4FA" offset="0%"></stop>
            <stop stop-color="#E7E7EB" offset="100%"></stop>
        </linearGradient>
        <path d="M34.5893552,7.54454006 L34.309506,5.76298285 C34.2537923,5.41076989 33.9496084,5.15141307 33.5929127,5.15141307 L31.4392905,5.15141307 C31.005108,5.15141307 30.6689047,5.52988191 30.7194953,5.96022211 L30.9282615,7.74177932 C30.9711675,8.10680003 31.2804745,8.38216653 31.6480567,8.38216653 L33.8734023,8.38216653 C34.3184714,8.38216653 34.658517,7.98448607 34.5893552,7.54454006 L34.5893552,7.54454006 Z M27.408053,5.15141307 L25.2441847,5.15141307 C24.8304945,5.15141307 24.5000547,5.49786255 24.5205471,5.9109123 L24.6069994,7.69246951 C24.6255706,8.07862299 24.9444835,8.38216653 25.3312773,8.38216653 L27.5662287,8.38216653 C27.9920862,8.38216653 28.3263683,8.01714582 28.2885855,7.59320949 L28.1304098,5.81165228 C28.0971097,5.43766615 27.7839603,5.15141307 27.408053,5.15141307 L27.408053,5.15141307 Z M19.0176999,8.38216653 L21.2564935,8.38216653 C21.6618586,8.38216653 21.9890965,8.04852479 21.9814119,7.6425193 L21.9455502,5.86160248 C21.9372251,5.46712396 21.6151104,5.15141307 21.2206319,5.15141307 L19.0529212,5.15141307 C18.6584427,5.15141307 18.3363279,5.46712396 18.3280029,5.86160248 L18.2927816,7.6425193 C18.2844565,8.04852479 18.6116944,8.38216653 19.0176999,8.38216653 L19.0176999,8.38216653 Z M12.7073243,8.38216653 L14.9422757,8.38216653 C15.32971,8.38216653 15.6479824,8.07862299 15.6665536,7.69246951 L15.7536463,5.9109123 C15.7734983,5.49786255 15.4436989,5.15141307 15.0293684,5.15141307 L12.8655,5.15141307 C12.4895927,5.15141307 12.1764434,5.43766615 12.1431432,5.81165228 L11.9849676,7.59320949 C11.9478251,8.01714582 12.2814669,8.38216653 12.7073243,8.38216653 L12.7073243,8.38216653 Z M31.1485547,10.1220986 C31.0966834,9.76604328 30.7912187,9.50284414 30.4319614,9.50284414 L10.0855791,9.50284414 C9.72568152,9.50284414 9.41957643,9.76732405 9.36834545,10.1240197 L9.16278116,11.5540044 C9.10002321,11.9907484 9.43942843,12.382025 9.88001483,12.382025 L30.6420084,12.382025 C31.0838756,12.382025 31.4232808,11.9888273 31.3586017,11.5514428 L31.1485547,10.1220986 Z M9.55405774,5.96022211 C9.60464833,5.52988191 9.26844505,5.15141307 8.83426252,5.15141307 L6.68064035,5.15141307 C6.32394468,5.15141307 6.02040114,5.41076989 5.96468745,5.76298285 L5.68419786,7.54454006 C5.61503604,7.98448607 5.95508165,8.38216653 6.40015075,8.38216653 L8.6254963,8.38216653 C8.99307855,8.38216653 9.30302596,8.10680003 9.34529151,7.74177932 L9.55405774,5.96022211 Z M31.1760914,4.35733294 L33.2400593,4.35733294 C33.6851284,4.35733294 34.025174,3.95965248 33.9560122,3.51970647 L33.7177882,2.00903305 C33.6627149,1.65682009 33.358531,1.39682288 33.0018353,1.39682288 L30.9987041,1.39682288 C30.565162,1.39682288 30.2276779,1.77529172 30.2789089,2.20627231 L30.4562961,3.71694573 C30.4985617,4.08260683 30.8085091,4.35733294 31.1760914,4.35733294 L31.1760914,4.35733294 Z M25.1353189,4.35733294 L27.209533,4.35733294 C27.6353905,4.35733294 27.9690322,3.99295262 27.9318898,3.56901629 L27.7974085,2.05770248 C27.7641083,1.68371635 27.450959,1.39682288 27.0756921,1.39682288 L25.0616743,1.39682288 C24.6479842,1.39682288 24.3175444,1.74327236 24.3380368,2.1569625 L24.4110409,3.66763592 C24.4302525,4.0537894 24.7491654,4.35733294 25.1353189,4.35733294 L25.1353189,4.35733294 Z M19.0983887,4.35733294 L21.1758048,4.35733294 C21.5811699,4.35733294 21.9084077,4.02433159 21.9007231,3.6183261 L21.8699845,2.10701229 C21.8622998,1.71253378 21.5401851,1.39682288 21.1450662,1.39682288 L19.1284869,1.39682288 C18.7340083,1.39682288 18.4112532,1.71253378 18.4042089,2.10701229 L18.3734703,3.6183261 C18.3651453,4.02433159 18.6923832,4.35733294 19.0983887,4.35733294 L19.0983887,4.35733294 Z M13.0646604,4.35733294 L15.1382342,4.35733294 C15.5250281,4.35733294 15.8439409,4.0537894 15.8625121,3.66763592 L15.9355163,2.1569625 C15.9560086,1.74327236 15.6262092,1.39682288 15.2118787,1.39682288 L13.1985013,1.39682288 C12.8232344,1.39682288 12.5094447,1.68371635 12.476785,2.05770248 L12.3423036,3.56901629 C12.3045208,3.99295262 12.6388029,4.35733294 13.0646604,4.35733294 L13.0646604,4.35733294 Z M7.03413409,4.35733294 L9.09746167,4.35733294 C9.46568431,4.35733294 9.77499133,4.08260683 9.81725689,3.71694573 L9.99528453,2.20627231 C10.0458751,1.77529172 9.70839106,1.39682288 9.27548931,1.39682288 L7.27235813,1.39682288 C6.91502207,1.39682288 6.61147853,1.65682009 6.55640523,2.00903305 L6.31818119,3.51970647 C6.24837899,3.95965248 6.58842459,4.35733294 7.03413409,4.35733294 L7.03413409,4.35733294 Z" id="path-10"></path>
        <filter x="-1.2%" y="-3.2%" width="102.4%" height="110.9%" filterUnits="objectBoundingBox" id="filter-11">
            <feMorphology radius="0.1" operator="dilate" in="SourceAlpha" result="shadowSpreadOuter1"></feMorphology>
            <feOffset dx="0" dy="0.5" in="shadowSpreadOuter1" result="shadowOffsetOuter1"></feOffset>
            <feComposite in="shadowOffsetOuter1" in2="SourceAlpha" operator="out" result="shadowOffsetOuter1"></feComposite>
            <feColorMatrix values="0 0 0 0 0   0 0 0 0 0   0 0 0 0 0  0 0 0 0.29007833 0" type="matrix" in="shadowOffsetOuter1"></feColorMatrix>
        </filter>
        <filter x="-2.1%" y="-5.5%" width="104.1%" height="115.5%" filterUnits="objectBoundingBox" id="filter-12">
            <feOffset dx="0" dy="-1" in="SourceAlpha" result="shadowOffsetInner1"></feOffset>
            <feComposite in="shadowOffsetInner1" in2="SourceAlpha" operator="arithmetic" k2="-1" k3="1" result="shadowInnerInner1"></feComposite>
            <feColorMatrix values="0 0 0 0 0.980392157   0 0 0 0 0.980392157   0 0 0 0 0.992156863  0 0 0 1 0" type="matrix" in="shadowInnerInner1" result="shadowMatrixInner1"></feColorMatrix>
            <feOffset dx="0" dy="-0.7" in="SourceAlpha" result="shadowOffsetInner2"></feOffset>
            <feComposite in="shadowOffsetInner2" in2="SourceAlpha" operator="arithmetic" k2="-1" k3="1" result="shadowInnerInner2"></feComposite>
            <feColorMatrix values="0 0 0 0 0.768627451   0 0 0 0 0.768627451   0 0 0 0 0.784313725  0 0 0 1 0" type="matrix" in="shadowInnerInner2" result="shadowMatrixInner2"></feColorMatrix>
            <feMerge>
                <feMergeNode in="shadowMatrixInner1"></feMergeNode>
                <feMergeNode in="shadowMatrixInner2"></feMergeNode>
            </feMerge>
        </filter>
        <linearGradient x1="50%" y1="0%" x2="50%" y2="100%" id="linearGradient-13">
            <stop stop-color="#00CEE3" stop-opacity="0" offset="0%"></stop>
            <stop stop-color="#009AAB" offset="100%"></stop>
        </linearGradient>
        <filter x="-30.9%" y="-74.8%" width="161.8%" height="249.6%" filterUnits="objectBoundingBox" id="filter-14">
            <feGaussianBlur stdDeviation="3" in="SourceGraphic"></feGaussianBlur>
        </filter>
        <linearGradient x1="50%" y1="0%" x2="50%" y2="88.2716256%" id="linearGradient-15">
            <stop stop-color="#00D4E9" offset="0%"></stop>
            <stop stop-color="#72EEFF" offset="100%"></stop>
        </linearGradient>
        <path d="M23.6363636,1.45454545 C25.8455026,1.45454545 27.6363636,3.24540646 27.6363636,5.45454545 L27.6363636,18.2727273 C27.6363636,19.465245 27.2188839,20.560255 26.5221039,21.4195778 C26.4354315,21.5805025 26.3174773,21.7282789 26.1691766,21.8534446 L26.1691766,21.8534446 L16.0335824,30.4078823 C14.937639,31.3328581 13.340307,31.3528214 12.221589,30.4555243 L12.221589,30.4555243 L2.18010827,22.4022548 C1.97030169,22.2587099 1.77199172,22.0995921 1.58684357,21.9265668 L1.52652199,21.8772656 C1.40820742,21.7823683 1.30638291,21.6712796 1.22320116,21.5484856 L1.19045702,21.511304 C0.448025302,20.6388329 -6.433963e-16,19.5081011 0,18.2727273 L0,5.45454545 C-2.705415e-16,3.24540646 1.790861,1.45454545 4,1.45454545 L23.6363636,1.45454545 Z" id="path-16"></path>
        <filter x="-1.8%" y="-1.7%" width="103.6%" height="103.4%" filterUnits="objectBoundingBox" id="filter-17">
            <feOffset dx="0" dy="1" in="SourceAlpha" result="shadowOffsetInner1"></feOffset>
            <feComposite in="shadowOffsetInner1" in2="SourceAlpha" operator="arithmetic" k2="-1" k3="1" result="shadowInnerInner1"></feComposite>
            <feColorMatrix values="0 0 0 0 0.406310737   0 0 0 0 1   0 0 0 0 0.990687227  0 0 0 1 0" type="matrix" in="shadowInnerInner1" result="shadowMatrixInner1"></feColorMatrix>
            <feOffset dx="0" dy="-0.7" in="SourceAlpha" result="shadowOffsetInner2"></feOffset>
            <feComposite in="shadowOffsetInner2" in2="SourceAlpha" operator="arithmetic" k2="-1" k3="1" result="shadowInnerInner2"></feComposite>
            <feColorMatrix values="0 0 0 0 0.425542174   0 0 0 0 0.600006077   0 0 0 0 0.621282163  0 0 0 1 0" type="matrix" in="shadowInnerInner2" result="shadowMatrixInner2"></feColorMatrix>
            <feMerge>
                <feMergeNode in="shadowMatrixInner1"></feMergeNode>
                <feMergeNode in="shadowMatrixInner2"></feMergeNode>
            </feMerge>
        </filter>
        <path d="M8.86324283,20.8826501 L10.3775641,16.897594 L16.913056,16.897594 L18.4273773,20.8826501 L20.2007273,20.8826501 L14.6017235,6.656 L12.7088219,6.656 L7.10981817,20.8826501 L8.86324283,20.8826501 Z M16.3949987,15.5227497 L10.8956214,15.5227497 L13.6253848,8.40942466 L13.7050859,8.40942466 L16.3949987,15.5227497 Z" id="path-18"></path>
        <filter x="-15.3%" y="-7.0%" width="130.6%" height="128.1%" filterUnits="objectBoundingBox" id="filter-19">
            <feOffset dx="0" dy="1" in="SourceAlpha" result="shadowOffsetOuter1"></feOffset>
            <feGaussianBlur stdDeviation="0.5" in="shadowOffsetOuter1" result="shadowBlurOuter1"></feGaussianBlur>
            <feColorMatrix values="0 0 0 0 0   0 0 0 0 0   0 0 0 0 0  0 0 0 0.154301997 0" type="matrix" in="shadowBlurOuter1"></feColorMatrix>
        </filter>
    </defs>
    <g id="dcc_nav_keyboard_42px" stroke="none" stroke-width="1" fill="none" fill-rule="evenodd">
        <g id="编组-4" transform="translate(1.000000, 2.000000)">
            <g id="编组-2" transform="translate(0.000000, 22.349209)">
                <g id="矩形备份-3">
                    <use fill="black" fill-opacity="1" filter="url(#filter-3)" xlink:href="#path-2"></use>
                    <use fill="url(#linearGradient-1)" fill-rule="evenodd" xlink:href="#path-2"></use>
                </g>
                <path d="M0.293834295,12.5598816 L39.6784497,12.5598816 L39.6784497,14.7272727 C39.6784497,15.8318422 38.7830192,16.7272727 37.6784497,16.7272727 L2.29383429,16.7272727 C1.1892648,16.7272727 0.293834295,15.8318422 0.293834295,14.7272727 L0.293834295,12.5598816 L0.293834295,12.5598816 Z" id="矩形备份" fill="url(#linearGradient-4)"></path>
                <g id="矩形备份-2">
                    <use fill="black" fill-opacity="1" filter="url(#filter-6)" xlink:href="#path-5"></use>
                    <use fill="url(#linearGradient-1)" fill-rule="evenodd" xlink:href="#path-5"></use>
                </g>
                <g id="矩形备份-2">
                    <use fill="black" fill-opacity="1" filter="url(#filter-8)" xlink:href="#path-7"></use>
                    <use fill="url(#linearGradient-1)" fill-rule="evenodd" xlink:href="#path-7"></use>
                </g>
                <g id="Fill-1">
                    <use fill="black" fill-opacity="1" filter="url(#filter-11)" xlink:href="#path-10"></use>
                    <use fill="url(#linearGradient-9)" fill-rule="evenodd" xlink:href="#path-10"></use>
                    <use fill="black" fill-opacity="1" filter="url(#filter-12)" xlink:href="#path-10"></use>
                    <use stroke="#BCBFC3" stroke-width="0.2" xlink:href="#path-10"></use>
                </g>
            </g>
            <g id="编组" transform="translate(5.907678, 0.000000)">
                <polygon id="路径-2" fill-opacity="0.6" fill="url(#linearGradient-13)" filter="url(#filter-14)" points="11.6039242 34.5810727 0.082111437 24.5084647 0.082111437 22.5454545 29.1891477 22.5454545 29.1891477 24.308647 18.0271969 34.5810727"></polygon>
                <g id="气泡" transform="translate(0.072288, 0.000000)">
                    <g id="编组-3">
                        <path d="M23.7088544,8.17124146e-14 C24.7459767,8.11107804e-14 25.7095384,0.53567733 26.2569419,1.41657012 L26.506511,1.81818182 C27.0326479,2.66485204 27.3825877,3.60434561 27.5403351,4.58061746 C27.603258,4.86155623 27.6363636,5.15418472 27.6363636,5.45454545 L27.6363636,18.2727273 C27.6363636,19.465245 27.2188839,20.560255 26.5221039,21.4195778 C26.4570996,21.5402714 26.3744993,21.6535689 26.2746975,21.7554786 L26.1691766,21.8534446 L16.0335824,30.4078823 C14.9874546,31.2908137 13.4844831,31.3491367 12.377016,30.5721987 L12.221589,30.4555243 L2.18010827,22.4022548 C1.97030169,22.2587099 1.77199172,22.0995921 1.58684357,21.9265668 L1.52652199,21.8772656 C1.40820742,21.7823683 1.30638291,21.6712796 1.22320116,21.5484856 L1.19045702,21.511304 C0.448025302,20.6388329 -3.40142402e-15,19.5081011 -3.55271368e-15,18.2727273 L-3.55271368e-15,5.45454545 C-3.57941157e-15,5.23654062 0.0174400624,5.02260913 0.0510011171,4.81407006 C0.176934769,3.73953557 0.542190255,2.70255232 1.12351869,1.78102071 L1.36426705,1.39938236 C1.91376518,0.528308681 2.87168161,8.19016063e-14 3.90159304,8.17124146e-14 L23.7088544,8.17124146e-14 Z" id="形状结合" fill="#FFFFFF"></path>
                        <path d="M1.12351869,1.78102071 L1.36426705,1.39938236 C1.91376518,0.528308681 2.87168161,1.89191661e-16 3.90159304,0 L23.7088544,0 C24.7459767,-1.90516277e-16 25.7095384,0.53567733 26.2569419,1.41657012 L26.506511,1.81818182 C27.2450022,3.00657691 27.6363636,4.37784531 27.6363636,5.77700657 L27.6363636,7.27272727 C27.6363636,9.28103545 26.0083082,10.9090909 24,10.9090909 L3.67352474,10.9090909 C1.64469305,10.9090909 1.14944249e-15,9.26439786 0,7.23556617 L0,5.66782608 C-1.68474187e-16,4.29212995 0.389530856,2.94455056 1.12351869,1.78102071 Z" id="形状结合" fill-opacity="0.8" fill="#00DDF2"></path>
                        <g id="形状结合">
                            <use fill="url(#linearGradient-15)" fill-rule="evenodd" xlink:href="#path-16"></use>
                            <use fill="black" fill-opacity="1" filter="url(#filter-17)" xlink:href="#path-16"></use>
                        </g>
                    </g>
                    <g id="A" fill-rule="nonzero">
                        <use fill="black" fill-opacity="1" filter="url(#filter-19)" xlink:href="#path-18"></use>
                        <use fill="#FFFFFF" xlink:href="#path-18"></use>
                    </g>
                </g>
            </g>
        </g>
    </g>
</svg>