<?xml version="1.0" encoding="UTF-8"?>
<svg width="42px" height="42px" viewBox="0 0 42 42" version="1.1" xmlns="http://www.w3.org/2000/svg" xmlns:xlink="http://www.w3.org/1999/xlink">
    <title>dcc_nav_defapp_42px</title>
    <defs>
        <linearGradient x1="5.16299127%" y1="2.90150287%" x2="97.1586934%" y2="100%" id="linearGradient-1">
            <stop stop-color="#C478FF" offset="0%"></stop>
            <stop stop-color="#0080FF" offset="100%"></stop>
        </linearGradient>
        <rect id="path-2" x="0" y="0" width="31.5" height="31.5" rx="6"></rect>
        <filter x="-11.1%" y="-7.9%" width="122.2%" height="122.2%" filterUnits="objectBoundingBox" id="filter-4">
            <feOffset dx="0" dy="1" in="SourceAlpha" result="shadowOffsetOuter1"></feOffset>
            <feGaussianBlur stdDeviation="1" in="shadowOffsetOuter1" result="shadowBlurOuter1"></feGaussianBlur>
            <feColorMatrix values="0 0 0 0 0   0 0 0 0 0   0 0 0 0 0  0 0 0 0.2 0" type="matrix" in="shadowBlurOuter1"></feColorMatrix>
        </filter>
        <radialGradient cx="27.7048929%" cy="10.6803319%" fx="27.7048929%" fy="10.6803319%" r="101.196393%" gradientTransform="translate(0.277049,0.106803),scale(0.885714,1.000000),rotate(46.892137),translate(-0.277049,-0.106803)" id="radialGradient-5">
            <stop stop-color="#ACD2FF" stop-opacity="0.799977122" offset="0%"></stop>
            <stop stop-color="#ACD2FF" stop-opacity="0" offset="0%"></stop>
            <stop stop-color="#9DD4FF" stop-opacity="0.64256276" offset="100%"></stop>
        </radialGradient>
        <rect id="path-6" x="12.75" y="12" width="26.25" height="23.25" rx="4"></rect>
        <filter x="-13.3%" y="-10.8%" width="126.7%" height="130.1%" filterUnits="objectBoundingBox" id="filter-8">
            <feOffset dx="0" dy="1" in="SourceAlpha" result="shadowOffsetOuter1"></feOffset>
            <feGaussianBlur stdDeviation="1" in="shadowOffsetOuter1" result="shadowBlurOuter1"></feGaussianBlur>
            <feComposite in="shadowBlurOuter1" in2="SourceAlpha" operator="out" result="shadowBlurOuter1"></feComposite>
            <feColorMatrix values="0 0 0 0 0   0 0 0 0 0   0 0 0 0 0  0 0 0 0.2 0" type="matrix" in="shadowBlurOuter1"></feColorMatrix>
        </filter>
        <filter x="-13.3%" y="-10.8%" width="126.7%" height="130.1%" filterUnits="objectBoundingBox" id="filter-9">
            <feOffset dx="0.7" dy="0.7" in="SourceAlpha" result="shadowOffsetInner1"></feOffset>
            <feComposite in="shadowOffsetInner1" in2="SourceAlpha" operator="arithmetic" k2="-1" k3="1" result="shadowInnerInner1"></feComposite>
            <feColorMatrix values="0 0 0 0 1   0 0 0 0 1   0 0 0 0 1  0 0 0 0.670082359 0" type="matrix" in="shadowInnerInner1" result="shadowMatrixInner1"></feColorMatrix>
            <feGaussianBlur stdDeviation="1" in="SourceAlpha" result="shadowBlurInner2"></feGaussianBlur>
            <feOffset dx="0.7" dy="1" in="shadowBlurInner2" result="shadowOffsetInner2"></feOffset>
            <feComposite in="shadowOffsetInner2" in2="SourceAlpha" operator="arithmetic" k2="-1" k3="1" result="shadowInnerInner2"></feComposite>
            <feColorMatrix values="0 0 0 0 0.759720865   0 0 0 0 0.74715725   0 0 0 0 1  0 0 0 0.486111301 0" type="matrix" in="shadowInnerInner2" result="shadowMatrixInner2"></feColorMatrix>
            <feMerge>
                <feMergeNode in="shadowMatrixInner1"></feMergeNode>
                <feMergeNode in="shadowMatrixInner2"></feMergeNode>
            </feMerge>
        </filter>
    </defs>
    <g id="dcc_nav_defapp_42px" stroke="none" stroke-width="1" fill="none" fill-rule="evenodd">
        <g id="编组-2">
            <rect id="矩形" x="0" y="0" width="42" height="42"></rect>
            <g id="编组" transform="translate(1.500000, 3.750000)">
                <rect id="矩形" fill-opacity="0.85" fill="#FFFFFF" fill-rule="nonzero" x="12.75" y="12" width="26.25" height="23.25" rx="4"></rect>
                <g id="矩形备份-12">
                    <mask id="mask-3" fill="white">
                        <use xlink:href="#path-2"></use>
                    </mask>
                    <g id="蒙版">
                        <use fill="black" fill-opacity="1" filter="url(#filter-4)" xlink:href="#path-2"></use>
                        <use fill="url(#linearGradient-1)" fill-rule="evenodd" xlink:href="#path-2"></use>
                    </g>
                    <path d="M5.25,0 L26.25,0 C29.1494949,3.55549841e-16 31.5,2.35050506 31.5,5.25 L31.5,5.25 L31.5,5.25 L0,5.25 C-3.55085719e-16,2.35050506 2.35050506,5.32628579e-16 5.25,0 Z" fill="#FFFFFF" opacity="0.5" mask="url(#mask-3)"></path>
                </g>
                <path d="M3.5,7.5 L28,7.5 C29.1045695,7.5 30,8.3954305 30,9.5 L30,23 C30,26.3137085 27.3137085,29 24,29 L7.5,29 C4.1862915,29 1.5,26.3137085 1.5,23 L1.5,9.5 C1.5,8.3954305 2.3954305,7.5 3.5,7.5 Z" id="矩形备份-12" fill="#387DFF" style="mix-blend-mode: multiply;" opacity="0.449999988"></path>
                <mask id="mask-7" fill="white">
                    <use xlink:href="#path-6"></use>
                </mask>
                <g id="矩形" fill-rule="nonzero">
                    <use fill="black" fill-opacity="1" filter="url(#filter-8)" xlink:href="#path-6"></use>
                    <use fill="url(#radialGradient-5)" xlink:href="#path-6"></use>
                    <use fill="black" fill-opacity="1" filter="url(#filter-9)" xlink:href="#path-6"></use>
                </g>
                <path d="M26.519801,28.2605225 C26.5196765,28.9206891 26.7819259,29.5538631 27.2488509,30.0207375 C27.7157758,30.4876118 28.3491233,30.7499378 29.0095483,30.75 C30.3850196,30.75 31.5,29.635221 31.5,28.2605225 C31.5,26.885824 30.3847848,25.771045 29.0095483,25.771045 L26.519801,25.771045 L26.519801,28.2605225 Z M25.9722891,28.2566501 C25.9722891,28.915664 25.7102932,29.5476655 25.2440406,30.0135817 C24.777788,30.4794979 24.1454526,30.7411512 23.4861809,30.7409645 C22.113527,30.7409645 21.000777,29.6286497 21.000777,28.2566501 C21.000777,26.8846505 22.113527,25.7723358 23.4861809,25.7723358 L25.9722891,25.7723358 L25.9722891,28.2566501 Z M25.9722891,22.7353257 C25.9722891,21.7301715 25.3666458,20.8239648 24.4376546,20.439276 C23.5086634,20.0545872 22.4393247,20.2671759 21.7282784,20.9779105 C21.0172321,21.6886452 20.8045097,22.7575556 21.1893052,23.6862016 C21.5741006,24.6148475 22.4806333,25.2203441 23.4861809,25.2203441 L25.9722891,25.2203441 L25.9722891,22.7353257 Z" id="形状" fill="#FFFFFF" fill-rule="nonzero"></path>
                <path d="M26.5246141,22.7353257 C26.5246141,21.3634435 27.6372467,20.2513634 29.0097831,20.2513634 C30.3823196,20.2513634 31.4948349,21.3634435 31.4948349,22.7353257 C31.4949905,23.3943396 31.2332049,24.0264153 30.7670844,24.4924635 C30.3009639,24.9585117 29.6687027,25.2203441 29.009431,25.2203441 L26.5246141,25.2203441 L26.5246141,22.7353257 Z" id="路径" fill="#FFFFFF" opacity="0.5"></path>
                <path d="M16.75,12 L35,12 C37.209139,12 39,13.790861 39,16 L39,16.5 L39,16.5 L12.75,16.5 L12.75,16 C12.75,13.790861 14.540861,12 16.75,12 Z" id="矩形" fill-opacity="0.85" fill="#FFFFFF" fill-rule="nonzero"></path>
            </g>
        </g>
    </g>
</svg>