<svg xmlns="http://www.w3.org/2000/svg" width="32" height="32" viewBox="0 0 32 32">
  <path fill="#536076" fill-rule="evenodd" d="M16,26 C21.5228475,26 26,21.5228475 26,16 C26,10.4771525 21.5228475,6 16,6 C10.4771525,6 6,10.4771525 6,16 C6,21.5228475 10.4771525,26 16,26 Z M17,15.1715729 L17,20 C17,20.5522847 16.5522847,21 16,21 C15.4477153,21 15,20.5522847 15,20 L15,15.1715729 L12.4644661,17.7071068 C12.0739418,18.0976311 11.4407768,18.0976311 11.0502525,17.7071068 C10.6597282,17.3165825 10.6597282,16.6834175 11.0502525,16.2928932 L15.6464466,11.6966991 C15.8417088,11.501437 16.1582912,11.501437 16.3535534,11.6966991 L20.9497475,16.2928932 C21.3402718,16.6834175 21.3402718,17.3165825 20.9497475,17.7071068 C20.5592232,18.0976311 19.9260582,18.0976311 19.5355339,17.7071068 L17,15.1715729 Z"/>
</svg>
