<svg xmlns="http://www.w3.org/2000/svg" xmlns:xlink="http://www.w3.org/1999/xlink" width="42" height="42" viewBox="0 0 42 42">
  <defs>
    <linearGradient id="nav_cloud_42px-c" x1="50%" x2="50%" y1="0%" y2="96.184%">
      <stop offset="0%" stop-color="#4BDEFA"/>
      <stop offset="100%" stop-color="#3978FF"/>
    </linearGradient>
    <path id="nav_cloud_42px-b" d="M23.7272727,9 C28.752952,9 32.9281924,12.6619686 33.7588407,17.4775003 C36.8160041,18.5931065 39,21.5400461 39,25 C39,29.418278 35.4386287,33 31.0454545,33 C28.2922363,33 15.1411153,33 11.9545455,33 C7.56137131,33 4,29.418278 4,25 C4,20.581722 7.56137131,17 11.9545455,17 C12.5708237,17 13.1707332,17.0704837 13.7467387,17.203873 C14.6855585,12.5239307 18.7972248,9 23.7272727,9 Z"/>
    <filter id="nav_cloud_42px-a" width="140%" height="158.3%" x="-20%" y="-20.8%" filterUnits="objectBoundingBox">
      <feOffset dy="2" in="SourceAlpha" result="shadowOffsetOuter1"/>
      <feGaussianBlur in="shadowOffsetOuter1" result="shadowBlurOuter1" stdDeviation="2"/>
      <feColorMatrix in="shadowBlurOuter1" values="0 0 0 0 0.196078431   0 0 0 0 0.458823529   0 0 0 0 0.996078431  0 0 0 0.5 0"/>
    </filter>
  </defs>
  <g fill="none" fill-rule="evenodd">
    <use fill="#000" filter="url(#nav_cloud_42px-a)" xlink:href="#nav_cloud_42px-b"/>
    <use fill="url(#nav_cloud_42px-c)" xlink:href="#nav_cloud_42px-b"/>
  </g>
</svg>
