<svg xmlns="http://www.w3.org/2000/svg" xmlns:xlink="http://www.w3.org/1999/xlink" width="84" height="84" viewBox="0 0 84 84">
  <defs>
    <linearGradient id="nav_info_84px-c" x1="50%" x2="50%" y1="-6.477%" y2="98.38%">
      <stop offset="0%" stop-color="#4F4F4F"/>
      <stop offset="100%" stop-color="#393939"/>
    </linearGradient>
    <path id="nav_info_84px-b" d="M56,29.7014501 L56,45.75 C56,50.3063492 52.3063492,54 47.75,54 L8.25,54 C3.69365081,54 5.57991845e-16,50.3063492 0,45.75 L0,29.7014501 C0.0058009863,29.7014784 0.0116053089,29.7014925 0.0174129353,29.7014925 C1.95040956,29.7014925 3.51741294,28.1344892 3.51741294,26.2014925 C3.51741294,24.2684959 1.95040956,22.7014925 0.0174129353,22.7014925 C0.0116053089,22.7014925 0.0058009863,22.7015067 -1.63931368e-16,22.7015349 L0,8.25 C-5.57991845e-16,3.69365081 3.69365081,8.36987767e-16 8.25,0 L47.75,0 C52.3063492,-8.36987767e-16 56,3.69365081 56,8.25 L56,16 L56,22.7015349 C54.0750144,22.7109119 52.5174129,24.2743035 52.5174129,26.2014925 C52.5174129,28.1286815 54.0750144,29.6920732 56,29.7014501 Z M5,6 C5.55228475,6 6,5.55228475 6,5 C6,4.44771525 5.55228475,4 5,4 C4.44771525,4 4,4.44771525 4,5 C4,5.55228475 4.44771525,6 5,6 Z M5,50 C5.55228475,50 6,49.5522847 6,49 C6,48.4477153 5.55228475,48 5,48 C4.44771525,48 4,48.4477153 4,49 C4,49.5522847 4.44771525,50 5,50 Z M51,6 C51.5522847,6 52,5.55228475 52,5 C52,4.44771525 51.5522847,4 51,4 C50.4477153,4 50,4.44771525 50,5 C50,5.55228475 50.4477153,6 51,6 Z M51,50 C51.5522847,50 52,49.5522847 52,49 C52,48.4477153 51.5522847,48 51,48 C50.4477153,48 50,48.4477153 50,49 C50,49.5522847 50.4477153,50 51,50 Z"/>
    <filter id="nav_info_84px-a" width="150%" height="151.9%" x="-25%" y="-18.5%" filterUnits="objectBoundingBox">
      <feOffset dy="4" in="SourceAlpha" result="shadowOffsetOuter1"/>
      <feGaussianBlur in="shadowOffsetOuter1" result="shadowBlurOuter1" stdDeviation="4"/>
      <feColorMatrix in="shadowBlurOuter1" values="0 0 0 0 0   0 0 0 0 0   0 0 0 0 0  0 0 0 0.418378497 0"/>
    </filter>
    <filter id="nav_info_84px-d" width="130.4%" height="131.5%" x="-15.2%" y="-8.3%" filterUnits="objectBoundingBox">
      <feOffset dy="-1" in="SourceAlpha" result="shadowOffsetInner1"/>
      <feComposite in="shadowOffsetInner1" in2="SourceAlpha" k2="-1" k3="1" operator="arithmetic" result="shadowInnerInner1"/>
      <feColorMatrix in="shadowInnerInner1" values="0 0 0 0 0   0 0 0 0 0   0 0 0 0 0  0 0 0 0.3 0"/>
    </filter>
    <linearGradient id="nav_info_84px-g" x1="25.196%" x2="90.265%" y1="-1.108%" y2="103.451%">
      <stop offset="0%" stop-color="#A8E8FF"/>
      <stop offset="100%" stop-color="#CDBEFF"/>
    </linearGradient>
    <path id="nav_info_84px-f" d="M12,6 L44,6 C47.3137085,6 50,8.6862915 50,12 L50,42 C50,45.3137085 47.3137085,48 44,48 L12,48 C8.6862915,48 6,45.3137085 6,42 L6,12 C6,8.6862915 8.6862915,6 12,6 Z"/>
    <filter id="nav_info_84px-e" width="109.1%" height="109.5%" x="-4.5%" y="-2.4%" filterUnits="objectBoundingBox">
      <feOffset dy="1" in="SourceAlpha" result="shadowOffsetOuter1"/>
      <feGaussianBlur in="shadowOffsetOuter1" result="shadowBlurOuter1" stdDeviation=".5"/>
      <feColorMatrix in="shadowBlurOuter1" values="0 0 0 0 0   0 0 0 0 0   0 0 0 0 0  0 0 0 0.25 0"/>
    </filter>
    <filter id="nav_info_84px-h" width="106.8%" height="107.1%" x="-3.4%" y="-1.2%" filterUnits="objectBoundingBox">
      <feOffset dy="-1" in="SourceAlpha" result="shadowOffsetInner1"/>
      <feComposite in="shadowOffsetInner1" in2="SourceAlpha" k2="-1" k3="1" operator="arithmetic" result="shadowInnerInner1"/>
      <feColorMatrix in="shadowInnerInner1" result="shadowMatrixInner1" values="0 0 0 0 0   0 0 0 0 0   0 0 0 0 0  0 0 0 0.15 0"/>
      <feOffset dy="1" in="SourceAlpha" result="shadowOffsetInner2"/>
      <feComposite in="shadowOffsetInner2" in2="SourceAlpha" k2="-1" k3="1" operator="arithmetic" result="shadowInnerInner2"/>
      <feColorMatrix in="shadowInnerInner2" result="shadowMatrixInner2" values="0 0 0 0 1   0 0 0 0 1   0 0 0 0 1  0 0 0 0.25 0"/>
      <feMerge>
        <feMergeNode in="shadowMatrixInner1"/>
        <feMergeNode in="shadowMatrixInner2"/>
      </feMerge>
    </filter>
    <linearGradient id="nav_info_84px-i" x1="42.882%" x2="54.302%" y1="40.223%" y2="60.441%">
      <stop offset="0%" stop-opacity=".25"/>
      <stop offset="100%" stop-opacity=".2"/>
    </linearGradient>
  </defs>
  <g fill="none" fill-rule="evenodd" transform="translate(14 15)">
    <use fill="#000" filter="url(#nav_info_84px-a)" xlink:href="#nav_info_84px-b"/>
    <use fill="url(#nav_info_84px-c)" xlink:href="#nav_info_84px-b"/>
    <use fill="#000" filter="url(#nav_info_84px-d)" xlink:href="#nav_info_84px-b"/>
    <use fill="#000" filter="url(#nav_info_84px-e)" xlink:href="#nav_info_84px-f"/>
    <use fill="url(#nav_info_84px-g)" xlink:href="#nav_info_84px-f"/>
    <use fill="#000" filter="url(#nav_info_84px-h)" xlink:href="#nav_info_84px-f"/>
    <path fill="#000" fill-opacity=".4" d="M23.5069797,21.9756752 C23.7506279,21.9756752 23.7520445,21.7680002 23.7518084,21.7470752 C23.7515723,21.6690002 23.7503918,21.1578002 23.7503918,21.0792752 C23.7503918,20.8542752 23.5107572,20.8506752 23.5107572,20.8506752 C23.5107572,20.8506752 19.7935132,20.8470752 19.4934387,20.8470752 C19.017711,20.8470752 19.0250299,20.4083252 19.0250299,20.4083252 C19.0188915,20.3797502 19.025266,19.9506752 19.0250299,19.9506752 L22.8043664,19.9506752 C24.115628,19.9506752 23.9829436,19.0506752 23.9829436,19.0506752 C23.9829436,18.4843502 23.9829436,18.9735002 23.9829436,18.3837752 C23.9829436,18.3837752 24.1109061,16.8006752 22.3340688,16.8006752 L19.298898,16.8006752 C17.4904242,16.8006752 17.6129566,18.3628502 17.6129566,18.3628502 C17.6129566,19.2086252 17.6134288,19.2860252 17.6134288,20.3988752 C17.6134288,21.9756752 19.2684419,21.9684752 19.2684419,21.9684752 M19.0271247,18.8300267 C19.0271247,18.8300267 19.0280691,18.4720824 19.0280691,18.3831777 C19.0280691,18.1547266 19.255899,17.9303268 19.5030886,17.9296516 C19.7323351,17.9287513 21.8698797,17.9296516 22.1073894,17.9296516 C22.3212898,17.9296516 22.5696599,18.1581027 22.5684794,18.3798016 C22.567535,18.555135 22.5647019,18.4374958 22.5647019,18.6049517 C22.5647019,18.6049517 22.5647019,18.8295765 22.3363998,18.8295765 C22.1855362,18.8295765 19.0271247,18.8300267 19.0271247,18.8300267 Z M15.9597082,15 C16.0607146,15.0002251 16.7993833,15.0002251 16.9006258,15 C16.9006258,15 17.1389821,15 17.1389821,15.225075 C17.1389821,15.2678393 17.1389821,20.5000834 17.1389821,20.8557019 C17.1389821,20.8557019 17.1378022,21.9743248 15.9604161,21.9743248 C15.0095867,21.9743248 15.8910338,21.9695982 13.6450562,21.9716239 C11.3993145,21.9738746 11.0023685,20.1500917 11.0000086,19.2797266 C10.9978846,18.4093615 11.3889306,16.8 13.6098927,16.8006752 C14.6440289,16.8011254 14.728751,16.8004502 15.7222958,16.8006752 C15.7222958,16.8006752 15.7232398,15.2505085 15.7232398,15.2320524 C15.7232398,15 15.9597082,15 15.9597082,15 Z M15.4819496,20.8521007 C15.7218202,20.8521007 15.7180427,20.6326526 15.7180427,20.6326526 C15.7180427,20.4327859 15.7170984,17.9337029 15.7170984,17.9337029 C15.7170984,17.9337029 14.7857538,17.9312271 14.1291787,17.9312271 C13.4721314,17.9312271 12.419628,17.8993414 12.4203363,19.2941314 C12.4208084,20.6886962 13.3677782,20.8505252 14.1402751,20.8525509 C14.9122998,20.8548016 15.224608,20.8521007 15.4819496,20.8521007 Z M38.1531687,16.3504502 C38.0228453,16.3504502 37.9170755,16.2496165 37.9170755,16.1253751 L37.9170755,15.225075 C37.9170755,15.1008336 38.0228453,15 38.1531687,15 L39.0975414,15 C39.2278649,15 39.3336346,15.1008336 39.3336346,15.225075 L39.3336346,16.1253751 C39.3336346,16.2496165 39.2278649,16.3504502 39.0975414,16.3504502 L38.1531687,16.3504502 Z M38.1531687,21.9756752 C38.0228453,21.9756752 37.9170755,21.8748752 37.9170755,21.7506752 L37.9170755,17.0256752 C37.9170755,16.9014752 38.0228453,16.8006752 38.1531687,16.8006752 L39.0975414,16.8006752 C39.2278649,16.8006752 39.3336346,16.9014752 39.3336346,17.0256752 L39.3336346,21.7506752 C39.3336346,21.8748752 39.2278649,21.9756752 39.0975414,21.9756752 L38.1531687,21.9756752 Z M39.8059931,16.8015753 C39.8059931,16.8015753 40.9047277,16.8000005 42.6390682,16.8022502 C44.3734087,16.8045 45,17.4760251 45,18.7230612 L45,21.7503241 C45,21.8745103 44.8944663,21.9750741 44.7641429,21.975299 L43.8202424,21.975749 C43.6894468,21.975974 43.583677,21.8749602 43.5839131,21.7503241 L43.5907598,18.8254248 C43.5907598,17.719223 42.676607,17.9273499 42.6371795,17.9273499 C42.005158,17.9273499 41.2223161,17.9291497 41.2223161,17.9291497 L41.2291628,21.7431249 C41.2291628,21.7431249 41.2386065,22.0144447 40.9132701,21.9703496 C40.682371,21.9710245 40.3194958,21.9721494 40.0885966,21.9730493 C39.8744601,21.9991464 39.8059931,21.8486381 39.8059931,21.7464995 L39.8059931,16.8015753 Z M32.4832607,24 C32.3822128,23.9997749 31.6439494,23.9997749 31.5426654,24 C31.5426654,24 31.305864,24 31.305864,23.774925 C31.305864,23.7321607 31.305864,18.2749166 31.305864,17.9195232 C31.305864,17.9195232 31.3053918,16.8006752 32.4834968,16.8006752 C33.4344801,16.8006752 32.5512125,16.8054018 34.7981113,16.8033761 C37.0447739,16.8011254 37.4418827,18.6249083 37.4442436,19.4952734 C37.4463684,20.3658636 37.055162,21.9752251 34.8332891,21.9743248 C33.7989649,21.9740997 33.7140144,21.9745498 32.7200621,21.9743248 C32.7200621,21.9743248 32.7191178,23.7494915 32.7191178,23.7679476 C32.7191178,24 32.4832607,24 32.4832607,24 Z M32.9567723,17.9228993 C32.7171377,17.9228993 32.7206791,18.1425725 32.7206791,18.1425725 C32.7206791,18.3422141 32.7218596,20.8415222 32.7218596,20.8415222 C32.7218596,20.8415222 33.6532042,20.8437729 34.3097793,20.8437729 C34.9668266,20.8437729 36.01933,20.8756586 36.0186217,19.4808686 C36.0181495,18.0863038 35.0711798,17.9246999 34.2986829,17.9224491 C33.5264221,17.9201984 33.2141139,17.9228993 32.9567723,17.9228993 Z M30.354306,21.9756752 L26.1157682,21.9684752 C26.1157682,21.9684752 24.460755,21.9756752 24.460755,20.3988752 C24.460755,19.2860252 24.4602828,19.2086252 24.4602828,18.3628502 C24.4602828,18.3628502 24.3377504,16.8006752 26.1462242,16.8006752 L29.1813951,16.8006752 C30.9582323,16.8006752 30.8302698,18.3837752 30.8302698,18.3837752 C30.8302698,18.9735002 30.8302698,18.4843502 30.8302698,19.0506752 C30.8302698,19.0506752 30.9629542,19.9506752 29.6516927,19.9506752 L25.8723561,19.9506752 C25.8725922,19.9506752 25.8662177,20.3797502 25.8723561,20.4083252 C25.8723561,20.4083252 25.8650372,20.8470752 26.340765,20.8470752 C26.6408394,20.8470752 30.3580835,20.8506752 30.3580835,20.8506752 C30.3580835,20.8506752 30.597718,20.8542752 30.597718,21.0792752 C30.597718,21.1578002 30.5988985,21.6690002 30.5991346,21.7470752 C30.5993707,21.7680002 30.5979541,21.9756752 30.354306,21.9756752 Z M25.8737839,18.8300267 C25.8737839,18.8300267 29.0321954,18.8295765 29.1830589,18.8295765 C29.411361,18.8295765 29.411361,18.6049517 29.411361,18.6049517 C29.411361,18.4374958 29.4141942,18.555135 29.4151385,18.3798016 C29.416319,18.1581027 29.167949,17.9296516 28.9540486,17.9296516 C28.7165388,17.9296516 26.5789942,17.9287513 26.3497477,17.9296516 C26.1025582,17.9303268 25.8747283,18.1547266 25.8747283,18.3831777 C25.8747283,18.4720824 25.8737839,18.8300267 25.8737839,18.8300267 Z"/>
    <path fill="url(#nav_info_84px-i)" d="M12,35 L40,35 L40,36 L12,36 L12,35 Z M12,33 L45,33 L45,34 L12,34 L12,33 Z M12,31 L45,31 L45,32 L12,32 L12,31 Z M12,29 L29,29 L29,30 L12,30 L12,29 Z M12,27 L18,27 L18,28 L12,28 L12,27 Z M12,37 L23,37 L23,38 L12,38 L12,37 Z M12,39 L28,39 L28,40 L12,40 L12,39 Z"/>
  </g>
</svg>
