<?xml version="1.0" encoding="UTF-8"?>
<svg width="84px" height="84px" viewBox="0 0 84 84" version="1.1" xmlns="http://www.w3.org/2000/svg" xmlns:xlink="http://www.w3.org/1999/xlink">
    <title>dcc_nav_commoninfo_84px.svg</title>
    <defs>
        <filter x="-7.9%" y="-7.9%" width="115.9%" height="115.9%" filterUnits="objectBoundingBox" id="filter-1">
            <feOffset dx="0" dy="1" in="SourceAlpha" result="shadowOffsetOuter1"></feOffset>
            <feGaussianBlur stdDeviation="1" in="shadowOffsetOuter1" result="shadowBlurOuter1"></feGaussianBlur>
            <feColorMatrix values="0 0 0 0 0   0 0 0 0 0   0 0 0 0 0  0 0 0 0.2 0" type="matrix" in="shadowBlurOuter1" result="shadowMatrixOuter1"></feColorMatrix>
            <feMerge>
                <feMergeNode in="shadowMatrixOuter1"></feMergeNode>
                <feMergeNode in="SourceGraphic"></feMergeNode>
            </feMerge>
        </filter>
        <linearGradient x1="50%" y1="0%" x2="50%" y2="100%" id="linearGradient-2">
            <stop stop-color="#747E99" offset="0%"></stop>
            <stop stop-color="#505975" offset="100%"></stop>
        </linearGradient>
        <path d="M35.3431458,3.19287066 C38.4673401,0.0686763268 43.5326599,0.0686763268 46.6568542,3.19287066 L46.6568542,3.19287066 L78.8071293,35.3431458 C81.9313237,38.4673401 81.9313237,43.5326599 78.8071293,46.6568542 L78.8071293,46.6568542 L46.6568542,78.8071293 C43.5326599,81.9313237 38.4673401,81.9313237 35.3431458,78.8071293 L35.3431458,78.8071293 L3.19287066,46.6568542 C0.0686763268,43.5326599 0.0686763268,38.4673401 3.19287066,35.3431458 L3.19287066,35.3431458 Z M48.0132257,63.5836962 C45.797332,64.2710697 43.4419008,64.6412904 41,64.6412904 C38.5577324,64.6412904 36.2019605,64.2709585 33.9857759,63.5833865 L33.9857759,63.5833865 L38.8344632,71.4698543 L38.9305946,71.6150524 C39.6994282,72.6950815 41.1849622,73.0088511 42.3311461,72.3043356 C42.6709048,72.0954988 42.9567594,71.8096496 43.1656025,71.4698947 L43.1656025,71.4698947 Z M18.4178529,33.9817823 L10.5301457,38.8314409 L10.3849476,38.9275723 C9.30491851,39.6964059 8.99114885,41.1819399 9.69566441,42.3281238 C9.90450118,42.6678825 10.1903504,42.9537371 10.5301053,43.1625802 L10.5301053,43.1625802 L18.4150652,48.0092317 C17.7284855,45.7945018 17.3587096,43.4404338 17.3587096,41 C17.3587096,38.5562654 17.7294865,36.1991303 18.4178529,33.9817823 L18.4178529,33.9817823 Z M63.5821471,33.9817823 C64.2705135,36.1991303 64.6412904,38.5562654 64.6412904,41 C64.6412904,43.4404338 64.2715145,45.7945018 63.5849348,48.0092317 L63.5849348,48.0092317 L71.4698947,43.1625802 C71.8096496,42.9537371 72.0954988,42.6678825 72.3043356,42.3281238 C73.0394823,41.1321058 72.6658723,39.5665876 71.4698543,38.8314409 L71.4698543,38.8314409 Z M42.3311461,9.69566441 C41.1351281,8.96051774 39.5696099,9.33412775 38.8344632,10.5301457 L38.8344632,10.5301457 L33.9857759,18.4166135 C36.2019605,17.7290415 38.5577324,17.3587096 41,17.3587096 C43.4419008,17.3587096 45.797332,17.7289303 48.0132257,18.4163038 L48.0132257,18.4163038 L43.1656025,10.5301053 C42.9567594,10.1903504 42.6709048,9.90450118 42.3311461,9.69566441 Z" id="path-3"></path>
        <filter x="-0.9%" y="-0.9%" width="101.9%" height="101.9%" filterUnits="objectBoundingBox" id="filter-4">
            <feGaussianBlur stdDeviation="0.25" in="SourceAlpha" result="shadowBlurInner1"></feGaussianBlur>
            <feOffset dx="0" dy="1" in="shadowBlurInner1" result="shadowOffsetInner1"></feOffset>
            <feComposite in="shadowOffsetInner1" in2="SourceAlpha" operator="arithmetic" k2="-1" k3="1" result="shadowInnerInner1"></feComposite>
            <feColorMatrix values="0 0 0 0 1   0 0 0 0 1   0 0 0 0 1  0 0 0 0.840987626 0" type="matrix" in="shadowInnerInner1"></feColorMatrix>
        </filter>
        <linearGradient x1="50%" y1="0%" x2="50%" y2="100%" id="linearGradient-5">
            <stop stop-color="#636B84" offset="0%"></stop>
            <stop stop-color="#394465" offset="100%"></stop>
        </linearGradient>
        <circle id="path-6" cx="41" cy="41" r="23.7339766"></circle>
        <filter x="-13.7%" y="-11.6%" width="127.4%" height="127.4%" filterUnits="objectBoundingBox" id="filter-7">
            <feOffset dx="0" dy="1" in="SourceAlpha" result="shadowOffsetOuter1"></feOffset>
            <feGaussianBlur stdDeviation="2" in="shadowOffsetOuter1" result="shadowBlurOuter1"></feGaussianBlur>
            <feColorMatrix values="0 0 0 0 0   0 0 0 0 0   0 0 0 0 0  0 0 0 0.3 0" type="matrix" in="shadowBlurOuter1"></feColorMatrix>
        </filter>
        <linearGradient x1="50%" y1="0%" x2="50%" y2="100%" id="linearGradient-8">
            <stop stop-color="#353B4A" offset="0%"></stop>
            <stop stop-color="#858B9E" offset="100%"></stop>
        </linearGradient>
        <circle id="path-9" cx="41" cy="41" r="16.3171089"></circle>
        <filter x="-3.1%" y="-3.1%" width="112.3%" height="112.3%" filterUnits="objectBoundingBox" id="filter-10">
            <feOffset dx="1" dy="1" in="SourceAlpha" result="shadowOffsetOuter1"></feOffset>
            <feGaussianBlur stdDeviation="0.5" in="shadowOffsetOuter1" result="shadowBlurOuter1"></feGaussianBlur>
            <feColorMatrix values="0 0 0 0 0   0 0 0 0 0   0 0 0 0 0  0 0 0 0.5 0" type="matrix" in="shadowBlurOuter1"></feColorMatrix>
        </filter>
        <circle id="path-11" cx="41" cy="41" r="4.13793103"></circle>
        <filter x="-96.7%" y="-84.6%" width="293.3%" height="293.3%" filterUnits="objectBoundingBox" id="filter-12">
            <feOffset dx="0" dy="1" in="SourceAlpha" result="shadowOffsetOuter1"></feOffset>
            <feGaussianBlur stdDeviation="2.5" in="shadowOffsetOuter1" result="shadowBlurOuter1"></feGaussianBlur>
            <feColorMatrix values="0 0 0 0 0   0 0 0 0 0   0 0 0 0 0  0 0 0 0.367505054 0" type="matrix" in="shadowBlurOuter1"></feColorMatrix>
        </filter>
        <filter x="-60.4%" y="-48.3%" width="220.8%" height="220.8%" filterUnits="objectBoundingBox" id="filter-13">
            <feOffset dx="0" dy="0" in="SourceAlpha" result="shadowOffsetInner1"></feOffset>
            <feComposite in="shadowOffsetInner1" in2="SourceAlpha" operator="arithmetic" k2="-1" k3="1" result="shadowInnerInner1"></feComposite>
            <feColorMatrix values="0 0 0 0 1   0 0 0 0 1   0 0 0 0 1  0 0 0 0.5 0" type="matrix" in="shadowInnerInner1" result="shadowMatrixInner1"></feColorMatrix>
            <feOffset dx="0" dy="0" in="SourceAlpha" result="shadowOffsetInner2"></feOffset>
            <feComposite in="shadowOffsetInner2" in2="SourceAlpha" operator="arithmetic" k2="-1" k3="1" result="shadowInnerInner2"></feComposite>
            <feColorMatrix values="0 0 0 0 0.543701172   0 0 0 0 0.543701172   0 0 0 0 0.543701172  0 0 0 0.5 0" type="matrix" in="shadowInnerInner2" result="shadowMatrixInner2"></feColorMatrix>
            <feMerge>
                <feMergeNode in="shadowMatrixInner1"></feMergeNode>
                <feMergeNode in="shadowMatrixInner2"></feMergeNode>
            </feMerge>
        </filter>
        <radialGradient cx="58.1486582%" cy="4.8219407%" fx="58.1486582%" fy="4.8219407%" r="95.1780593%" id="radialGradient-14">
            <stop stop-color="#FFFFFF" stop-opacity="0.654788571" offset="0%"></stop>
            <stop stop-color="#FFFFFF" stop-opacity="0.299229335" offset="100%"></stop>
        </radialGradient>
        <path d="M41.5949572,25.8275862 L41.7850479,27.6073501 C42.2038192,27.6291857 42.6175802,27.6698933 43.0254921,27.7286361 L43.5254044,26.1024094 L44.607345,26.3304016 L44.4190491,28.004293 C44.8777516,28.1202774 45.3271719,28.2594838 45.7659785,28.4205842 L46.5869303,26.9477043 L47.5974137,27.3937245 L47.0677768,28.9773287 C47.4920329,29.1856059 47.9038381,29.415264 48.301779,29.6648934 L49.4042805,28.4055706 L50.2991438,29.0501255 L49.4565474,30.4753745 C49.8293016,30.7668473 50.1864342,31.077288 50.5264846,31.4052397 L51.8543234,30.4122925 L52.5944567,31.227212 L51.4865022,32.4313593 C51.792875,32.7945667 52.0805161,33.1740141 52.3479409,33.5682208 L53.8299802,32.8801667 L54.3830362,33.8298348 L53.0714184,34.7625348 C53.2971941,35.1826418 53.5014578,35.6159704 53.6827408,36.0610555 L55.2449054,35.7013353 L55.5867127,36.744247 L54.1396168,37.3727968 C54.2735969,37.8326601 54.383855,38.3025917 54.4689822,38.7811861 L56.0372598,38.7524995 L56.15288,39.8430746 L54.6411849,40.1516964 C54.6661462,40.4877192 54.678849,40.8271445 54.678849,41.169529 C54.678849,41.3180616 54.6764584,41.4660373 54.6717133,41.6134199 L56.1724138,41.9003089 L56.0567936,42.990884 L54.5585871,42.9824439 C54.4925818,43.4759658 54.4000034,43.961106 54.2823338,44.4363863 L55.6444605,45.0071892 L55.3026532,46.0501009 L53.8876047,45.7426797 C53.7179018,46.2160844 53.5225989,46.677348 53.3033592,47.1248117 L54.476474,47.9373547 L53.9234181,48.8870228 L52.6451982,48.313146 C52.3770791,48.7447042 52.085392,49.1601658 51.7719295,49.5577428 L52.719501,50.5627431 L51.9793677,51.3776625 L50.8822294,50.5778752 C50.5265227,50.9471174 50.1500822,51.2963413 49.7547754,51.6236843 L50.4503295,52.7686124 L49.5554662,53.4131673 L48.6755656,52.4310814 C48.2466057,52.7201297 47.8002443,52.9854381 47.3383764,53.2251167 L47.7681332,54.4585555 L46.7576498,54.9045757 L46.1157809,53.7845305 C45.6336513,53.9768301 45.1379235,54.14243 44.6304352,54.2794975 L44.7901371,55.5587138 L43.7081965,55.7867061 L43.3164638,54.5653051 C42.7998943,54.6511315 42.273487,54.7079524 41.7389817,54.7340327 L41.5949572,56.1724138 L40.4266466,56.1724138 L40.3000877,54.7295626 C39.753439,54.699467 39.2153864,54.6372104 38.6878,54.5446581 L38.2918035,55.7867061 L37.2098629,55.5587138 L37.3756372,54.2467495 C36.8734627,54.1061898 36.3830305,53.9376283 35.9061407,53.7428607 L35.2423502,54.9045757 L34.2318668,54.4585555 L34.6831706,53.1707808 C34.2297063,52.9304856 33.7914801,52.6653708 33.3703127,52.3772526 L32.4445338,53.4131673 L31.5496705,52.7686124 L32.2887818,51.5555747 C31.9035401,51.2314877 31.5365796,50.8864661 31.1896634,50.5222684 L30.0206323,51.3776625 L29.280499,50.5627431 L30.2982717,49.4875656 C29.9945307,49.0970996 29.711674,48.6896633 29.4513734,48.266924 L28.0765819,48.8870228 L27.523526,47.9373547 L28.7910841,47.0617043 C28.5801516,46.6254735 28.3919122,46.176276 28.2278937,45.7156356 L26.6973468,46.0501009 L26.3555395,45.0071892 L27.8315405,44.3904544 C27.7189892,43.9288988 27.6300827,43.4581141 27.5661731,42.9794486 L25.9432064,42.990884 L25.8275862,41.9003089 L27.4527561,41.5914082 C27.44847,41.4513053 27.4463114,41.3106686 27.4463114,41.169529 C27.4463114,40.8346097 27.4584664,40.5025221 27.4823602,40.1736809 L25.84712,39.8430746 L25.9627402,38.7524995 L27.6554688,38.7851779 C27.737923,38.3208028 27.8440358,37.8645781 27.9725208,37.4177873 L26.4132873,36.744247 L26.7550946,35.7013353 L28.4310146,36.0891476 C28.6063798,35.6558023 28.8035105,35.2335477 29.0210554,34.8237315 L27.6169638,33.8298348 L28.1700198,32.8801667 L29.7463079,33.6139869 C30.005531,33.2285111 30.2840282,32.8570127 30.5804233,32.500864 L29.4055433,31.227212 L30.1456766,30.4122925 L31.5426252,31.4596056 C31.8739245,31.1364248 32.2216969,30.8299743 32.5845688,30.541624 L31.7008562,29.0501255 L32.5957195,28.4055706 L33.7405827,29.7172488 C34.1315019,29.4680916 34.5360273,29.2383002 34.9527993,29.0292308 L34.4025863,27.3937245 L35.4130697,26.9477043 L36.2542041,28.4596185 C36.6882434,28.2961813 37.1328529,28.1542277 37.5867291,28.0350579 L37.392655,26.3304016 L38.4745956,26.1024094 L38.9777269,27.7467599 C39.3994492,27.6821293 39.8275496,27.6367976 40.2610931,27.6116976 L40.4266466,25.8275862 L41.5949572,25.8275862 Z M41,29.6201348 C34.6156246,29.6201348 29.4400657,34.782276 29.4400657,41.1500999 C29.4400657,47.5179238 34.6156246,52.6800651 41,52.6800651 C47.3843754,52.6800651 52.5599343,47.5179238 52.5599343,41.1500999 C52.5599343,34.782276 47.3843754,29.6201348 41,29.6201348 Z" id="path-15"></path>
        <filter x="-18.1%" y="-11.5%" width="136.2%" height="136.2%" filterUnits="objectBoundingBox" id="filter-16">
            <feOffset dx="0" dy="2" in="SourceAlpha" result="shadowOffsetOuter1"></feOffset>
            <feGaussianBlur stdDeviation="1.5" in="shadowOffsetOuter1" result="shadowBlurOuter1"></feGaussianBlur>
            <feComposite in="shadowBlurOuter1" in2="SourceAlpha" operator="out" result="shadowBlurOuter1"></feComposite>
            <feColorMatrix values="0 0 0 0 0.233455069   0 0 0 0 0.25941148   0 0 0 0 0.337280716  0 0 0 0.721027508 0" type="matrix" in="shadowBlurOuter1"></feColorMatrix>
        </filter>
        <filter x="-9.9%" y="-3.3%" width="119.8%" height="119.8%" filterUnits="objectBoundingBox" id="filter-17">
            <feOffset dx="0" dy="0" in="SourceAlpha" result="shadowOffsetInner1"></feOffset>
            <feComposite in="shadowOffsetInner1" in2="SourceAlpha" operator="arithmetic" k2="-1" k3="1" result="shadowInnerInner1"></feComposite>
            <feColorMatrix values="0 0 0 0 0.908943508   0 0 0 0 0.908943508   0 0 0 0 0.908943508  0 0 0 0.874957318 0" type="matrix" in="shadowInnerInner1" result="shadowMatrixInner1"></feColorMatrix>
            <feOffset dx="0" dy="0" in="SourceAlpha" result="shadowOffsetInner2"></feOffset>
            <feComposite in="shadowOffsetInner2" in2="SourceAlpha" operator="arithmetic" k2="-1" k3="1" result="shadowInnerInner2"></feComposite>
            <feColorMatrix values="0 0 0 0 1   0 0 0 0 1   0 0 0 0 1  0 0 0 1 0" type="matrix" in="shadowInnerInner2" result="shadowMatrixInner2"></feColorMatrix>
            <feMerge>
                <feMergeNode in="shadowMatrixInner1"></feMergeNode>
                <feMergeNode in="shadowMatrixInner2"></feMergeNode>
            </feMerge>
        </filter>
    </defs>
    <g id="dcc_nav_commoninfo_84px.svg" stroke="none" stroke-width="1" fill="none" fill-rule="evenodd">
        <g id="编组-2" filter="url(#filter-1)" transform="translate(1.000000, 1.000000)">
            <g id="编组">
                <g id="形状结合">
                    <use fill="url(#linearGradient-2)" fill-rule="evenodd" xlink:href="#path-3"></use>
                    <use fill="black" fill-opacity="1" filter="url(#filter-4)" xlink:href="#path-3"></use>
                </g>
                <g id="椭圆形">
                    <use fill="black" fill-opacity="1" filter="url(#filter-7)" xlink:href="#path-6"></use>
                    <use fill="url(#linearGradient-5)" fill-rule="evenodd" xlink:href="#path-6"></use>
                </g>
                <circle id="椭圆形" fill="url(#linearGradient-8)" cx="41" cy="41" r="17.8004825"></circle>
                <g id="椭圆形">
                    <use fill="black" fill-opacity="1" filter="url(#filter-10)" xlink:href="#path-9"></use>
                    <use fill="#9CA6B5" fill-rule="evenodd" xlink:href="#path-9"></use>
                </g>
                <circle id="椭圆形" fill="#273250" opacity="0.5" cx="41" cy="41" r="5.51724138"></circle>
                <g id="椭圆形" fill-rule="nonzero">
                    <use fill="black" fill-opacity="1" filter="url(#filter-12)" xlink:href="#path-11"></use>
                    <use fill="" xlink:href="#path-11"></use>
                    <use fill="black" fill-opacity="1" filter="url(#filter-13)" xlink:href="#path-11"></use>
                </g>
                <g id="形状结合" fill-rule="nonzero">
                    <use fill="black" fill-opacity="1" filter="url(#filter-16)" xlink:href="#path-15"></use>
                    <use fill="url(#radialGradient-14)" xlink:href="#path-15"></use>
                    <use fill="black" fill-opacity="1" filter="url(#filter-17)" xlink:href="#path-15"></use>
                </g>
            </g>
        </g>
    </g>
</svg>