<svg xmlns="http://www.w3.org/2000/svg" xmlns:xlink="http://www.w3.org/1999/xlink" width="42" height="42" viewBox="0 0 42 42">
  <defs>
    <linearGradient id="dcc_nav_systeminfo_42px-c" x1="50%" x2="50%" y1="-6.477%" y2="98.38%">
      <stop offset="0%" stop-color="#4F4F4F"/>
      <stop offset="100%" stop-color="#393939"/>
    </linearGradient>
    <path id="dcc_nav_systeminfo_42px-b" d="M23.875,0 C26.1531746,-4.18493883e-16 28,1.84682541 28,4.125 L28,11.35 L27.8651793,11.3565475 C26.9658167,11.4295539 26.2587065,12.1825729 26.2587065,13.1007463 C26.2587065,14.0645411 27.0378311,14.8463616 28.0006003,14.8507279 L28,22.875 C28,25.1531746 26.1531746,27 23.875,27 L4.125,27 C1.84682541,27 2.78995922e-16,25.1531746 0,22.875 L0.000543245912,14.8507276 L0.00870646766,14.8507463 C0.97520478,14.8507463 1.75870647,14.0672446 1.75870647,13.1007463 C1.75870647,12.134248 0.97520478,11.3507463 0.00870646766,11.3507463 L0,11.35 L0,4.125 C-2.78995922e-16,1.84682541 1.84682541,4.18493883e-16 4.125,0 L23.875,0 Z M2.5,24 C2.22385763,24 2,24.2238576 2,24.5 C2,24.7761424 2.22385763,25 2.5,25 C2.77614237,25 3,24.7761424 3,24.5 C3,24.2238576 2.77614237,24 2.5,24 Z M25.5,24 C25.2238576,24 25,24.2238576 25,24.5 C25,24.7761424 25.2238576,25 25.5,25 C25.7761424,25 26,24.7761424 26,24.5 C26,24.2238576 25.7761424,24 25.5,24 Z M2.5,2 C2.22385763,2 2,2.22385763 2,2.5 C2,2.77614237 2.22385763,3 2.5,3 C2.77614237,3 3,2.77614237 3,2.5 C3,2.22385763 2.77614237,2 2.5,2 Z M25.5,2 C25.2238576,2 25,2.22385763 25,2.5 C25,2.77614237 25.2238576,3 25.5,3 C25.7761424,3 26,2.77614237 26,2.5 C26,2.22385763 25.7761424,2 25.5,2 Z"/>
    <filter id="dcc_nav_systeminfo_42px-a" width="150%" height="151.9%" x="-25%" y="-18.5%" filterUnits="objectBoundingBox">
      <feOffset dy="2" in="SourceAlpha" result="shadowOffsetOuter1"/>
      <feGaussianBlur in="shadowOffsetOuter1" result="shadowBlurOuter1" stdDeviation="2"/>
      <feColorMatrix in="shadowBlurOuter1" values="0 0 0 0 0   0 0 0 0 0   0 0 0 0 0  0 0 0 0.418378497 0"/>
    </filter>
    <linearGradient id="dcc_nav_systeminfo_42px-f" x1="25.196%" x2="90.265%" y1="-1.108%" y2="103.451%">
      <stop offset="0%" stop-color="#A8E8FF"/>
      <stop offset="100%" stop-color="#CDBEFF"/>
    </linearGradient>
    <path id="dcc_nav_systeminfo_42px-e" d="M6,3 L22,3 C23.6568542,3 25,4.34314575 25,6 L25,21 C25,22.6568542 23.6568542,24 22,24 L6,24 C4.34314575,24 3,22.6568542 3,21 L3,6 C3,4.34314575 4.34314575,3 6,3 Z"/>
    <filter id="dcc_nav_systeminfo_42px-d" width="118.2%" height="119%" x="-9.1%" y="-4.8%" filterUnits="objectBoundingBox">
      <feOffset dy="1" in="SourceAlpha" result="shadowOffsetOuter1"/>
      <feGaussianBlur in="shadowOffsetOuter1" result="shadowBlurOuter1" stdDeviation=".5"/>
      <feColorMatrix in="shadowBlurOuter1" values="0 0 0 0 0   0 0 0 0 0   0 0 0 0 0  0 0 0 0.25 0"/>
    </filter>
    <filter id="dcc_nav_systeminfo_42px-g" width="113.6%" height="114.3%" x="-6.8%" y="-2.4%" filterUnits="objectBoundingBox">
      <feOffset dy="-1" in="SourceAlpha" result="shadowOffsetInner1"/>
      <feComposite in="shadowOffsetInner1" in2="SourceAlpha" k2="-1" k3="1" operator="arithmetic" result="shadowInnerInner1"/>
      <feColorMatrix in="shadowInnerInner1" result="shadowMatrixInner1" values="0 0 0 0 0   0 0 0 0 0   0 0 0 0 0  0 0 0 0.15 0"/>
      <feOffset dy="1" in="SourceAlpha" result="shadowOffsetInner2"/>
      <feComposite in="shadowOffsetInner2" in2="SourceAlpha" k2="-1" k3="1" operator="arithmetic" result="shadowInnerInner2"/>
      <feColorMatrix in="shadowInnerInner2" result="shadowMatrixInner2" values="0 0 0 0 1   0 0 0 0 1   0 0 0 0 1  0 0 0 0.25 0"/>
      <feMerge>
        <feMergeNode in="shadowMatrixInner1"/>
        <feMergeNode in="shadowMatrixInner2"/>
      </feMerge>
    </filter>
    <linearGradient id="dcc_nav_systeminfo_42px-h" x1="42.882%" x2="54.302%" y1="38.661%" y2="62.109%">
      <stop offset="0%" stop-opacity=".25"/>
      <stop offset="100%" stop-opacity=".2"/>
    </linearGradient>
  </defs>
  <g fill="none" fill-rule="evenodd" transform="translate(7 8)">
    <use fill="#000" filter="url(#dcc_nav_systeminfo_42px-a)" xlink:href="#dcc_nav_systeminfo_42px-b"/>
    <use fill="url(#dcc_nav_systeminfo_42px-c)" xlink:href="#dcc_nav_systeminfo_42px-b"/>
    <use fill="#000" filter="url(#dcc_nav_systeminfo_42px-d)" xlink:href="#dcc_nav_systeminfo_42px-e"/>
    <use fill="url(#dcc_nav_systeminfo_42px-f)" xlink:href="#dcc_nav_systeminfo_42px-e"/>
    <use fill="#000" filter="url(#dcc_nav_systeminfo_42px-g)" xlink:href="#dcc_nav_systeminfo_42px-e"/>
    <path fill="#000" fill-opacity=".4" d="M11.7534899,10.4878376 C11.875314,10.4878376 11.8760222,10.3840001 11.8759042,10.3735376 C11.8757861,10.3345001 11.8751959,10.0789001 11.8751959,10.0396376 C11.8751959,9.92713761 11.7553786,9.92533761 11.7553786,9.92533761 C11.7553786,9.92533761 9.89675659,9.92353761 9.74671937,9.92353761 C9.5088555,9.92353761 9.51251494,9.70416261 9.51251494,9.70416261 C9.50944573,9.68987511 9.51263299,9.47533761 9.51251494,9.47533761 L11.4021832,9.47533761 C12.057814,9.47533761 11.9914718,9.02533761 11.9914718,9.02533761 C11.9914718,8.74217511 11.9914718,8.98675011 11.9914718,8.69188761 C11.9914718,8.69188761 12.0554531,7.90033761 11.1670344,7.90033761 L9.64944898,7.90033761 C8.74521211,7.90033761 8.80647829,8.68142511 8.80647829,8.68142511 C8.80647829,9.10431261 8.80671438,9.14301261 8.80671438,9.69943761 C8.80671438,10.4878376 9.63422097,10.4842376 9.63422097,10.4842376 M16.5263727,7.90107229 L17.3990556,7.90168806 C18.522387,7.90056269 18.7209413,8.81245415 18.7221218,9.24763671 C18.7231283,9.66002154 18.5476261,10.4039325 17.5845537,10.4807139 L17.4166446,10.4871624 L16.3600311,10.4871624 L16.3600119,10.5231396 C16.3600058,10.5346078 16.3599984,10.54855 16.3599899,10.564573 L16.3595589,11.3839738 C16.3595589,11.4767948 16.2840846,11.495359 16.2538949,11.4990718 L15.759019,11.4990997 C15.7347706,11.4962187 15.6814239,11.4841187 15.6610552,11.4332986 L15.652932,11.3874625 L15.652932,8.45976159 C15.652932,8.45976159 15.6526959,7.90033761 16.2417484,7.90033761 L16.4995547,7.90088687 C16.5087422,7.90094709 16.5174563,7.90100941 16.5263727,7.90107229 Z M8.46270742,7.0009003 C8.48711511,7.00378126 8.54081203,7.01588129 8.56131449,7.06670143 L8.56949107,7.11253751 L8.56926793,9.93600418 C8.56640626,10.004899 8.52685158,10.4871624 7.98020807,10.4871624 L7.81314961,10.4870067 C7.71511085,10.4867664 7.69935214,10.4862974 7.61091194,10.4859583 L6.82252808,10.4858119 C5.69965724,10.4869373 5.50118427,9.57504585 5.50000429,9.13986329 C5.4989982,8.72758507 5.6744285,7.98367969 6.63710603,7.90680297 L6.80494634,7.90033761 L7.86114789,7.90033761 L7.86161989,7.11602618 C7.86161989,7.02320524 7.93728977,7.00464105 7.96755772,7.00092821 L8.46270742,7.0009003 Z M19.5487707,7.90033761 C19.6139324,7.90033761 19.6668173,7.95073761 19.6668173,8.01283761 L19.6668173,10.3753376 C19.6668173,10.4374376 19.6139324,10.4878376 19.5487707,10.4878376 L19.0765844,10.4878376 C19.0114226,10.4878376 18.9585378,10.4374376 18.9585378,10.3753376 L18.9585378,8.01283761 C18.9585378,7.95073761 19.0114226,7.90033761 19.0765844,7.90033761 L19.5487707,7.90033761 Z M21.1386606,7.90091235 L21.3195341,7.90112511 C22.1325062,7.90217968 22.4586745,8.19734941 22.4962698,8.74800456 L22.5,8.86153062 L22.5,10.375162 C22.5,10.4248365 22.4662292,10.4669518 22.4193581,10.4818686 L22.3820715,10.4876495 L21.9101212,10.4878745 C21.8578029,10.4879645 21.813493,10.4556581 21.7979222,10.4108251 L21.7919566,10.375162 L21.7953799,8.91271242 C21.7953799,8.35961152 21.3383035,8.46367496 21.3185897,8.46367496 L21.0299735,8.46386515 C20.9826084,8.46392074 20.9366241,8.46398439 20.8935384,8.46405022 L20.611158,8.46457486 L20.6145814,10.3715624 C20.6145814,10.3715624 20.6180505,10.4712309 20.5166034,10.4858235 L20.3240775,10.4855748 C20.2597319,10.4857747 20.1910414,10.4859969 20.1295924,10.4862117 L20.0442983,10.4865246 C19.9586437,10.4969635 19.9196033,10.4508886 19.9074134,10.4058936 L19.9029966,10.3732498 L19.9029966,7.90078764 L21.1386606,7.90091235 Z M13.0731121,7.90033761 L14.5906975,7.90033761 C15.4268562,7.90033761 15.4193666,8.60150301 15.4155922,8.68399306 L15.4157859,9.03107095 C15.4204156,9.07960428 15.4354016,9.42107095 14.9475798,9.46960428 L14.8258463,9.47533761 L12.9361781,9.47533761 C12.9362961,9.47533761 12.9331088,9.68987511 12.9361781,9.70416261 C12.9361781,9.70416261 12.9325186,9.92353761 13.1703825,9.92353761 L13.7428748,9.92399089 C14.130386,9.92433748 14.6209132,9.9248025 14.9168121,9.92508555 L15.1790417,9.92533761 C15.1790417,9.92533761 15.298859,9.92713761 15.298859,10.0396376 L15.2989648,10.1089905 C15.2989967,10.125505 15.299034,10.1438132 15.2990743,10.162889 L15.2990006,10.3856371 C15.2966681,10.40971 15.285058,10.4606746 15.2285289,10.4800975 L15.177153,10.4878376 L13.0578841,10.4842376 C13.0578841,10.4842376 12.3305834,10.4874017 12.2396708,9.8381756 L12.2303775,9.69943761 L12.2301414,8.68142511 C12.2301414,8.68142511 12.175871,7.98952753 12.9233544,7.90812782 L13.0731121,7.90033761 L14.5906975,7.90033761 Z M7.42734219,8.4659518 L6.99646286,8.46561705 C6.66823926,8.46665822 6.2098376,8.49616372 6.21016813,9.14706569 C6.21038848,9.79786262 6.62286111,9.91173458 6.99189076,9.92484855 L7.07013753,9.92627543 L7.74097478,9.92605035 C7.86091012,9.92605035 7.85902137,9.81632628 7.85902137,9.81632628 L7.85900934,9.75856452 C7.85900547,9.74441474 7.85900072,9.72817627 7.85899522,9.71010814 L7.85854919,8.46685145 L7.47302196,8.46602712 L7.42734219,8.4659518 Z M16.6454137,8.4610817 L16.4783862,8.46144965 C16.3825323,8.46144965 16.3644948,8.53174508 16.361114,8.55986325 L16.3603396,8.57128626 L16.3609298,9.92076109 L16.4247846,9.92090637 C16.4382113,9.9209358 16.4534942,9.92096872 16.4703788,9.92100417 L17.2951277,9.92100808 C17.6143852,9.91345632 18.0096178,9.84484328 18.0093109,9.24043431 C18.0090748,8.54315188 17.5355899,8.46234995 17.1493415,8.46122457 C16.90801,8.46052122 16.7565129,8.46078498 16.6454137,8.4610817 Z M11.0536947,8.46482578 C11.1606449,8.46482578 11.2848299,8.57905135 11.2842397,8.6899008 C11.2837675,8.77756752 11.2823509,8.71874792 11.2823509,8.80247583 C11.2823509,8.80247583 11.2823509,8.91478826 11.1681999,8.91478826 L9.67840322,8.91498993 C9.5767306,8.91500433 9.51356237,8.91501334 9.51356237,8.91501334 L9.51398545,8.7318947 C9.51401567,8.71475058 9.51403456,8.70047933 9.51403456,8.69158886 C9.51403456,8.57736329 9.62794952,8.46516339 9.75154429,8.46482578 L11.0536947,8.46482578 Z M14.4770243,8.46482578 L13.1748739,8.46482578 C13.0512791,8.46516339 12.9373641,8.57736329 12.9373641,8.69158886 C12.9373641,8.73604118 12.9368919,8.91501334 12.9368919,8.91501334 C12.9368919,8.91501334 13.0000602,8.91500433 13.1017328,8.91498993 L14.5915295,8.91478826 C14.7056805,8.91478826 14.7056805,8.80247583 14.7056805,8.80247583 C14.7056805,8.71874792 14.7070971,8.77756752 14.7075693,8.6899008 C14.7081595,8.57905135 14.5839745,8.46482578 14.4770243,8.46482578 L14.4770243,8.46482578 Z M19.5487707,7 C19.6139324,7 19.6668173,7.05041681 19.6668173,7.11253751 L19.6668173,7.56268756 C19.6668173,7.62480827 19.6139324,7.67522508 19.5487707,7.67522508 L19.0765844,7.67522508 C19.0114226,7.67522508 18.9585378,7.62480827 18.9585378,7.56268756 L18.9585378,7.11253751 C18.9585378,7.05041681 19.0114226,7 19.0765844,7 L19.5487707,7 Z"/>
    <path fill="url(#dcc_nav_systeminfo_42px-h)" d="M20,19 L20,20 L6,20 L6,19 L20,19 Z M22.5,17 L22.5,18 L6,18 L6,17 L22.5,17 Z M14.5,15 L14.5,16 L6,16 L6,15 L14.5,15 Z M9,13 L9,14 L6,14 L6,13 L9,13 Z"/>
  </g>
</svg>
