<svg xmlns="http://www.w3.org/2000/svg" xmlns:xlink="http://www.w3.org/1999/xlink" width="84" height="84" viewBox="0 0 84 84">
  <defs>
    <linearGradient id="dcc_nav_wacom_84px-c" x1="50%" x2="50%" y1="0%" y2="100%">
      <stop offset="0%" stop-color="#034F9C"/>
      <stop offset="100%" stop-color="#013995"/>
    </linearGradient>
    <linearGradient id="dcc_nav_wacom_84px-d" x1="50%" x2="50%" y1="0%" y2="100%">
      <stop offset="0%" stop-color="#0155AD"/>
      <stop offset="100%" stop-color="#01317C"/>
    </linearGradient>
    <rect id="dcc_nav_wacom_84px-b" width="60" height="42" x="0" y="6" rx="4"/>
    <filter id="dcc_nav_wacom_84px-a" width="148.3%" height="169%" x="-24.2%" y="-25%" filterUnits="objectBoundingBox">
      <feMorphology in="SourceAlpha" operator="dilate" radius=".5" result="shadowSpreadOuter1"/>
      <feOffset dy="4" in="shadowSpreadOuter1" result="shadowOffsetOuter1"/>
      <feGaussianBlur in="shadowOffsetOuter1" result="shadowBlurOuter1" stdDeviation="4"/>
      <feComposite in="shadowBlurOuter1" in2="SourceAlpha" operator="out" result="shadowBlurOuter1"/>
      <feColorMatrix in="shadowBlurOuter1" values="0 0 0 0 0.171589587   0 0 0 0 0.419315141   0 0 0 0 0.672016531  0 0 0 0.5 0"/>
    </filter>
    <path id="dcc_nav_wacom_84px-e" d="M2.72705078,0.028137207 L40.7270508,0.028137207 C41.8316203,0.028137207 42.7270508,0.923567707 42.7270508,2.02813721 L42.7270508,31.0281372 C42.7270508,32.1327067 41.8316203,33.0281372 40.7270508,33.0281372 L2.72705078,33.0281372 C1.62248128,33.0281372 0.727050781,32.1327067 0.727050781,31.0281372 L0.727050781,2.02813721 C0.727050781,0.923567707 1.62248128,0.028137207 2.72705078,0.028137207 Z"/>
    <linearGradient id="dcc_nav_wacom_84px-i" x1="53.087%" x2="62.346%" y1="19.064%" y2="29.373%">
      <stop offset="0%" stop-color="#164E5F"/>
      <stop offset="100%" stop-color="#092B3D"/>
    </linearGradient>
    <linearGradient id="dcc_nav_wacom_84px-j" x1="50%" x2="60.084%" y1="22.823%" y2="32.874%">
      <stop offset="0%" stop-color="#FFF" stop-opacity=".1"/>
      <stop offset="100%" stop-opacity=".2"/>
    </linearGradient>
    <path id="dcc_nav_wacom_84px-h" d="M52.8611206,4.09066434 L37.3755242,30.912504 L34.1363931,33.2423972 C33.5510741,33.6634626 32.7418691,33.202547 32.805688,32.484318 L33.161069,28.4788948 L48.6463255,1.65764373 C49.3182528,0.493831525 50.8067155,0.0949991647 51.9705277,0.766926455 C53.1343399,1.43885375 53.5330478,2.92685214 52.8611206,4.09066434 Z"/>
    <filter id="dcc_nav_wacom_84px-g" width="163.8%" height="139.4%" x="-31.9%" y="-16.7%" filterUnits="objectBoundingBox">
      <feOffset dy="1" in="SourceAlpha" result="shadowOffsetOuter1"/>
      <feGaussianBlur in="shadowOffsetOuter1" result="shadowBlurOuter1" stdDeviation="2"/>
      <feComposite in="shadowBlurOuter1" in2="SourceAlpha" operator="out" result="shadowBlurOuter1"/>
      <feColorMatrix in="shadowBlurOuter1" values="0 0 0 0 0.0139779699   0 0 0 0 0.2181659   0 0 0 0 0.55321558  0 0 0 0.5 0"/>
    </filter>
  </defs>
  <g fill="none" fill-rule="evenodd" transform="translate(12 17)">
    <g fill-rule="nonzero">
      <use fill="#000" filter="url(#dcc_nav_wacom_84px-a)" xlink:href="#dcc_nav_wacom_84px-b"/>
      <use fill="url(#dcc_nav_wacom_84px-c)" stroke="url(#dcc_nav_wacom_84px-d)" xlink:href="#dcc_nav_wacom_84px-b"/>
    </g>
    <g transform="translate(14.273 9.972)">
      <mask id="dcc_nav_wacom_84px-f" fill="#fff">
        <use xlink:href="#dcc_nav_wacom_84px-e"/>
      </mask>
      <use fill="#059CDB" fill-rule="nonzero" xlink:href="#dcc_nav_wacom_84px-e"/>
      <path fill="#FFBDAB" fill-rule="nonzero" d="M47.8843831,28.9249916 L35.8786611,17.1341209 C35.7349462,16.9928093 35.5047139,16.9928093 35.3609991,17.1341209 L16.8381185,35.3320809 C16.6025991,35.5632744 16.7665014,35.964138 17.0967092,35.964138 L47.6257925,35.964138 C47.8295889,35.964138 47.9949331,35.7992745 47.9949331,35.5949974 L47.9949331,29.1883888 C47.9949331,29.0893746 47.955039,28.9942055 47.8843831,28.9249916 L47.8843831,28.9249916 Z" mask="url(#dcc_nav_wacom_84px-f)"/>
      <path fill="#D5FFEC" fill-rule="nonzero" d="M1,33.2159271 L40.224556,33.2159271 L15.6483459,9.07182306 C15.504631,8.93051147 15.2743987,8.93051147 15.1311646,9.07182306 L1,22.9544906 L1,33.2159271 Z" mask="url(#dcc_nav_wacom_84px-f)"/>
    </g>
    <path fill="#00132C" fill-opacity=".5" fill-rule="nonzero" stroke="#000" stroke-opacity=".1" d="M8,20.5 C5.51471901,20.5 3.5,22.514719 3.5,25 C3.5,27.485281 5.51471901,29.5 8,29.5 C10.485281,29.5 12.5,27.485281 12.5,25 C12.5,22.514719 10.485281,20.5 8,20.5 Z M7.99999994,27.5 C6.61925052,27.5 5.49999994,26.3805932 5.49999994,25 C5.49999994,23.6191266 6.61912649,22.5 7.99999994,22.5 C9.38059316,22.5 10.4999999,23.6192505 10.4999999,25 C10.4999999,26.3804692 9.3804691,27.5 7.99999994,27.5 Z"/>
    <g fill-rule="nonzero">
      <use fill="#000" filter="url(#dcc_nav_wacom_84px-g)" xlink:href="#dcc_nav_wacom_84px-h"/>
      <path fill="url(#dcc_nav_wacom_84px-i)" fill-rule="evenodd" stroke="url(#dcc_nav_wacom_84px-j)" stroke-linejoin="square" d="M33.6493445,28.6331768 L33.3037258,32.5285716 C33.2777949,32.8204022 33.6065055,33.0076514 33.844429,32.8364946 L36.9962728,30.5693868 L52.4281079,3.84066434 C52.961964,2.91599845 52.6451936,1.73379526 51.7205277,1.19993916 C50.7958618,0.666083054 49.6131943,0.982977837 49.0793382,1.90764373 L33.6493445,28.6331768 Z"/>
    </g>
    <path fill="#00132C" fill-opacity=".5" fill-rule="nonzero" d="M13.0577073 16L2.94229275 16C2.42206863 16 2 15.5520833 2 15 2 14.4473959 2.42206863 14 2.94229275 14L13.0577073 14C13.5779314 14 14 14.4473959 14 15 14 15.5520833 13.5779314 16 13.0577073 16zM13.0577073 13L2.94229275 13C2.42206863 13 2 12.5526041 2 12 2 11.4479165 2.42206863 11 2.94229275 11L13.0577073 11C13.5779314 11 14 11.4479165 14 12 14 12.5526041 13.5779314 13 13.0577073 13zM13.0577073 39L2.94229275 39C2.42206863 39 2 38.5526041 2 38 2 37.4479165 2.42206863 37 2.94229275 37L13.0577073 37C13.5779314 37 14 37.4479165 14 38 14 38.5526041 13.5779314 39 13.0577073 39zM13.0577073 36L2.94229275 36C2.42206863 36 2 35.5520835 2 35 2 34.4473959 2.42206863 34 2.94229275 34L13.0577073 34C13.5779314 34 14 34.4473959 14 35 14 35.5520835 13.5779314 36 13.0577073 36zM13.0577073 42L2.94229275 42C2.42206863 42 2 41.5522 2 40.9997396 2 40.4478002 2.42206863 40 2.94229275 40L13.0577073 40C13.5779314 40 14 40.4478002 14 40.9997396 14 41.5522 13.5779314 42 13.0577073 42z"/>
  </g>
</svg>
