<?xml version="1.0" encoding="UTF-8"?>
<svg width="42px" height="42px" viewBox="0 0 42 42" version="1.1" xmlns="http://www.w3.org/2000/svg" xmlns:xlink="http://www.w3.org/1999/xlink">
    <title>dcc_nav_commoninfo_42px.svg</title>
    <defs>
        <filter x="-16.2%" y="-16.2%" width="132.5%" height="132.5%" filterUnits="objectBoundingBox" id="filter-1">
            <feOffset dx="0" dy="1" in="SourceAlpha" result="shadowOffsetOuter1"></feOffset>
            <feGaussianBlur stdDeviation="1" in="shadowOffsetOuter1" result="shadowBlurOuter1"></feGaussianBlur>
            <feColorMatrix values="0 0 0 0 0   0 0 0 0 0   0 0 0 0 0  0 0 0 0.2 0" type="matrix" in="shadowBlurOuter1" result="shadowMatrixOuter1"></feColorMatrix>
            <feMerge>
                <feMergeNode in="shadowMatrixOuter1"></feMergeNode>
                <feMergeNode in="SourceGraphic"></feMergeNode>
            </feMerge>
        </filter>
        <linearGradient x1="50%" y1="0%" x2="50%" y2="100%" id="linearGradient-2">
            <stop stop-color="#747E99" offset="0%"></stop>
            <stop stop-color="#505975" offset="100%"></stop>
        </linearGradient>
        <path d="M14.3431458,3.92486246 C17.4673401,0.800668121 22.5326599,0.800668121 25.6568542,3.92486246 L25.6568542,3.92486246 L36.0751375,14.3431458 C39.1993319,17.4673401 39.1993319,22.5326599 36.0751375,25.6568542 L36.0751375,25.6568542 L25.6568542,36.0751375 C22.5326599,39.1993319 17.4673401,39.1993319 14.3431458,36.0751375 L14.3431458,36.0751375 L3.92486246,25.6568542 C0.800668121,22.5326599 0.800668121,17.4673401 3.92486246,14.3431458 L3.92486246,14.3431458 Z M23.5068995,31.2917592 C22.3988691,31.6355029 21.2210557,31.8206452 20,31.8206452 C18.7789443,31.8206452 17.6011309,31.6355029 16.4931005,31.2917592 L16.4931005,31.2917592 L17.8344632,33.4733597 L17.9305946,33.6185578 C18.6994282,34.6985869 20.1849622,35.0123565 21.3311461,34.307841 C21.6709048,34.0990042 21.9567594,33.813155 22.1656025,33.4734001 L22.1656025,33.4734001 Z M8.70917332,16.4900961 L6.52664034,17.832952 L6.38144218,17.9290834 C5.30141313,18.6979171 4.98764348,20.183451 5.69215903,21.3296349 C5.90099581,21.6693937 6.18684505,21.9552483 6.52659993,22.1640914 L6.52659993,22.1640914 L8.70793015,23.505898 C8.36438551,22.3981594 8.1793548,21.2206878 8.1793548,20 C8.1793548,18.7778406 8.3648319,17.5990017 8.70917332,16.4900961 L8.70917332,16.4900961 Z M31.2911376,16.4910975 C31.6352797,17.5997114 31.8206452,18.7782085 31.8206452,20 C31.8206452,21.2203199 31.635726,22.3974497 31.2923804,23.5048964 L31.2923804,23.5048964 L33.4734001,22.1640914 C33.813155,21.9552483 34.0990042,21.6693937 34.307841,21.3296349 C35.0429876,20.133617 34.6693776,18.5680987 33.4733597,17.832952 L33.4733597,17.832952 Z M21.3311461,5.69215903 C20.1351281,4.95701237 18.5696099,5.33062238 17.8344632,6.52664034 L17.8344632,6.52664034 L16.4931005,8.70824081 C17.6011309,8.36449706 18.7789443,8.1793548 20,8.1793548 C21.2210557,8.1793548 22.3988691,8.36449706 23.5068995,8.70824081 L23.5068995,8.70824081 L22.1656025,6.52659993 C21.9567594,6.18684505 21.6709048,5.90099581 21.3311461,5.69215903 Z" id="path-3"></path>
        <filter x="1.1%" y="1.1%" width="97.8%" height="97.8%" filterUnits="objectBoundingBox" id="filter-4">
            <feGaussianBlur stdDeviation="0.25" in="SourceAlpha" result="shadowBlurInner1"></feGaussianBlur>
            <feOffset dx="0" dy="1" in="shadowBlurInner1" result="shadowOffsetInner1"></feOffset>
            <feComposite in="shadowOffsetInner1" in2="SourceAlpha" operator="arithmetic" k2="-1" k3="1" result="shadowInnerInner1"></feComposite>
            <feColorMatrix values="0 0 0 0 1   0 0 0 0 1   0 0 0 0 1  0 0 0 0.840987626 0" type="matrix" in="shadowInnerInner1"></feColorMatrix>
        </filter>
        <linearGradient x1="50%" y1="0%" x2="50%" y2="100%" id="linearGradient-5">
            <stop stop-color="#636B84" offset="0%"></stop>
            <stop stop-color="#394465" offset="100%"></stop>
        </linearGradient>
        <circle id="path-6" cx="20" cy="20" r="11.8669883"></circle>
        <filter x="-27.4%" y="-23.2%" width="154.8%" height="154.8%" filterUnits="objectBoundingBox" id="filter-7">
            <feOffset dx="0" dy="1" in="SourceAlpha" result="shadowOffsetOuter1"></feOffset>
            <feGaussianBlur stdDeviation="2" in="shadowOffsetOuter1" result="shadowBlurOuter1"></feGaussianBlur>
            <feColorMatrix values="0 0 0 0 0   0 0 0 0 0   0 0 0 0 0  0 0 0 0.3 0" type="matrix" in="shadowBlurOuter1"></feColorMatrix>
        </filter>
        <linearGradient x1="50%" y1="0%" x2="50%" y2="100%" id="linearGradient-8">
            <stop stop-color="#353B4A" offset="0%"></stop>
            <stop stop-color="#858B9E" offset="100%"></stop>
        </linearGradient>
        <circle id="path-9" cx="20" cy="20" r="8.15855447"></circle>
        <filter x="-6.1%" y="-6.1%" width="124.5%" height="124.5%" filterUnits="objectBoundingBox" id="filter-10">
            <feOffset dx="1" dy="1" in="SourceAlpha" result="shadowOffsetOuter1"></feOffset>
            <feGaussianBlur stdDeviation="0.5" in="shadowOffsetOuter1" result="shadowBlurOuter1"></feGaussianBlur>
            <feColorMatrix values="0 0 0 0 0   0 0 0 0 0   0 0 0 0 0  0 0 0 0.5 0" type="matrix" in="shadowBlurOuter1"></feColorMatrix>
        </filter>
        <circle id="path-11" cx="20" cy="20" r="2.06896552"></circle>
        <filter x="-193.3%" y="-169.2%" width="486.7%" height="486.7%" filterUnits="objectBoundingBox" id="filter-12">
            <feOffset dx="0" dy="1" in="SourceAlpha" result="shadowOffsetOuter1"></feOffset>
            <feGaussianBlur stdDeviation="2.5" in="shadowOffsetOuter1" result="shadowBlurOuter1"></feGaussianBlur>
            <feColorMatrix values="0 0 0 0 0   0 0 0 0 0   0 0 0 0 0  0 0 0 0.367505054 0" type="matrix" in="shadowBlurOuter1"></feColorMatrix>
        </filter>
        <filter x="-120.8%" y="-96.7%" width="341.7%" height="341.7%" filterUnits="objectBoundingBox" id="filter-13">
            <feOffset dx="0" dy="0" in="SourceAlpha" result="shadowOffsetInner1"></feOffset>
            <feComposite in="shadowOffsetInner1" in2="SourceAlpha" operator="arithmetic" k2="-1" k3="1" result="shadowInnerInner1"></feComposite>
            <feColorMatrix values="0 0 0 0 1   0 0 0 0 1   0 0 0 0 1  0 0 0 0.5 0" type="matrix" in="shadowInnerInner1" result="shadowMatrixInner1"></feColorMatrix>
            <feOffset dx="0" dy="0" in="SourceAlpha" result="shadowOffsetInner2"></feOffset>
            <feComposite in="shadowOffsetInner2" in2="SourceAlpha" operator="arithmetic" k2="-1" k3="1" result="shadowInnerInner2"></feComposite>
            <feColorMatrix values="0 0 0 0 0.543701172   0 0 0 0 0.543701172   0 0 0 0 0.543701172  0 0 0 0.5 0" type="matrix" in="shadowInnerInner2" result="shadowMatrixInner2"></feColorMatrix>
            <feMerge>
                <feMergeNode in="shadowMatrixInner1"></feMergeNode>
                <feMergeNode in="shadowMatrixInner2"></feMergeNode>
            </feMerge>
        </filter>
        <radialGradient cx="58.1486582%" cy="4.8219407%" fx="58.1486582%" fy="4.8219407%" r="95.1780593%" id="radialGradient-14">
            <stop stop-color="#FFFFFF" stop-opacity="0.654788571" offset="0%"></stop>
            <stop stop-color="#FFFFFF" stop-opacity="0.299229335" offset="100%"></stop>
        </radialGradient>
        <path d="M20.2974786,12.4137931 L20.3925405,13.3036759 C20.6018535,13.3145904 20.8086629,13.3349344 21.01255,13.3642898 L21.2627022,12.5512047 L21.8036725,12.6652008 L21.7094035,13.5021159 C21.9386521,13.5600777 22.163264,13.62964 22.3825743,13.7101398 L22.7934652,12.9738521 L23.2987069,13.1968622 L23.0337547,13.9885988 C23.2459504,14.0927648 23.4519169,14.2076279 23.6509469,14.3324827 L24.2021403,13.7027853 L24.6495719,14.0250627 L24.2288202,14.7381146 C24.4153246,14.8839811 24.5940056,15.0393453 24.7641311,15.2034771 L25.4271617,14.7061463 L25.7972283,15.113606 L25.2432679,15.7156996 C25.3963622,15.8971954 25.5401017,16.0868015 25.6737455,16.2837789 L26.4149901,15.9400834 L26.6915181,16.4149174 L26.0355384,16.8809497 C26.1483489,17.0908324 26.2504206,17.3073159 26.3410207,17.5296695 L27.1224527,17.3506676 L27.2933564,17.8721235 L26.5695787,18.1856104 C26.636671,18.415788 26.6918764,18.6510119 26.7344882,18.890577 L27.5186299,18.8762498 L27.57644,19.4215373 L26.8205204,19.5748794 C26.8330486,19.7432072 26.8394245,19.9132432 26.8394245,20.0847645 C26.8394245,20.158882 26.838234,20.2327222 26.8358709,20.3062671 L27.5862069,20.4501545 L27.5283968,20.995442 L26.7793764,20.9906022 C26.746398,21.2373551 26.7001341,21.4799182 26.6413254,21.7175526 L27.3222303,22.0035946 L27.1513266,22.5250504 L26.4436535,22.371755 C26.3587758,22.6084818 26.2610951,22.8391361 26.1514434,23.0628878 L26.738237,23.4686773 L26.4617091,23.9435114 L25.8225583,23.6566388 C25.6884014,23.8725689 25.542444,24.0804393 25.3855843,24.2793539 L25.8597505,24.7813715 L25.4896838,25.1888313 L24.9405253,24.7895494 C24.763058,24.9737239 24.5752726,25.1479342 24.3780962,25.3112554 L24.7251647,25.8843062 L24.2777331,26.2065836 L23.8375342,25.7157082 C23.6231578,25.8601489 23.40009,25.9927314 23.1692768,26.1125123 L23.3840666,26.7292778 L22.8788249,26.9522879 L22.5575761,26.3923906 C22.3166338,26.4884776 22.0689001,26.5712285 21.8152922,26.6397286 L21.8950686,27.2793569 L21.3540982,27.393353 L21.1585342,26.7826023 C20.9001679,26.825541 20.6368791,26.8539677 20.3695385,26.867014 L20.2974786,27.5862069 L19.7133233,27.5862069 L19.6490554,26.8647268 C19.3761635,26.8496635 19.1075576,26.8185705 18.8441683,26.7723761 L18.6459018,27.393353 L18.1049314,27.2793569 L18.1886428,26.6236054 C17.9375443,26.5533566 17.6923159,26.4691062 17.4538576,26.3717518 L17.1211751,26.9522879 L16.6159334,26.7292778 L16.8421382,26.0856834 C16.6152862,25.965499 16.3960597,25.8328923 16.1853704,25.6887727 L15.7222669,26.2065836 L15.2748353,25.8843062 L15.6447858,25.2781196 C15.4519151,25.1158908 15.268207,24.9431682 15.0945462,24.7608344 L14.5103162,25.1888313 L14.1402495,24.7813715 L14.6481733,24.2425452 C14.4966869,24.0477135 14.3555977,23.8444364 14.2257359,23.633542 L13.5382909,23.9435114 L13.261763,23.4686773 L13.8954988,23.0307626 C13.7900318,22.8126376 13.6959124,22.5880289 13.6139044,22.3576984 L12.8486734,22.5250504 L12.6777697,22.0035946 L13.4156021,21.6945374 C13.3593968,21.4639426 13.314995,21.2287415 13.2830709,20.9896067 L12.4716032,20.995442 L12.4137931,20.4501545 L13.2267931,20.2947931 L13.2231557,20.0847645 C13.2231557,19.9173351 13.229231,19.7513211 13.2411736,19.5869296 L12.42356,19.4215373 L12.4813701,18.8762498 L13.3275548,18.8936008 C13.3688182,18.6610029 13.4219526,18.4324933 13.4863112,18.208717 L12.7066436,17.8721235 L12.8775473,17.3506676 L13.7158458,17.5437375 C13.8034431,17.327359 13.9018942,17.1165123 14.0105261,16.9118687 L13.3084819,16.4149174 L13.5850099,15.9400834 L14.3733286,16.3067337 C14.5028573,16.1141382 14.6420092,15.9285217 14.7900975,15.7505691 L14.2027717,15.113606 L14.5728383,14.7061463 L15.2711033,15.230007 C15.4367071,15.0684475 15.6105439,14.9152489 15.7919274,14.7710957 L15.3504281,14.0250627 L15.7978597,13.7027853 L16.3709054,14.3582331 C16.5660597,14.2338784 16.7679941,14.1191757 16.9760323,14.0147997 L16.7012931,13.1968622 L17.2065348,12.9738521 L17.6269046,13.7298836 C17.8439208,13.6481586 18.0662222,13.5771751 18.2931572,13.5175834 L18.1963275,12.6652008 L18.7372978,12.5512047 L18.9889125,13.3733724 C19.1996078,13.3410841 19.4134872,13.3184301 19.6300841,13.3058756 L19.7133233,12.4137931 L20.2974786,12.4137931 Z M20,14.3100674 C16.8078123,14.3100674 14.2200328,16.891138 14.2200328,20.07505 C14.2200328,23.2589619 16.8078123,25.8400325 20,25.8400325 C23.1921877,25.8400325 25.7799672,23.2589619 25.7799672,20.07505 C25.7799672,16.891138 23.1921877,14.3100674 20,14.3100674 Z" id="path-15"></path>
        <filter x="-36.2%" y="-23.1%" width="172.5%" height="172.5%" filterUnits="objectBoundingBox" id="filter-16">
            <feOffset dx="0" dy="2" in="SourceAlpha" result="shadowOffsetOuter1"></feOffset>
            <feGaussianBlur stdDeviation="1.5" in="shadowOffsetOuter1" result="shadowBlurOuter1"></feGaussianBlur>
            <feComposite in="shadowBlurOuter1" in2="SourceAlpha" operator="out" result="shadowBlurOuter1"></feComposite>
            <feColorMatrix values="0 0 0 0 0.233455069   0 0 0 0 0.25941148   0 0 0 0 0.337280716  0 0 0 0.721027508 0" type="matrix" in="shadowBlurOuter1"></feColorMatrix>
        </filter>
        <filter x="-19.8%" y="-6.6%" width="139.5%" height="139.5%" filterUnits="objectBoundingBox" id="filter-17">
            <feOffset dx="0" dy="0" in="SourceAlpha" result="shadowOffsetInner1"></feOffset>
            <feComposite in="shadowOffsetInner1" in2="SourceAlpha" operator="arithmetic" k2="-1" k3="1" result="shadowInnerInner1"></feComposite>
            <feColorMatrix values="0 0 0 0 0.908943508   0 0 0 0 0.908943508   0 0 0 0 0.908943508  0 0 0 0.874957318 0" type="matrix" in="shadowInnerInner1" result="shadowMatrixInner1"></feColorMatrix>
            <feOffset dx="0" dy="0" in="SourceAlpha" result="shadowOffsetInner2"></feOffset>
            <feComposite in="shadowOffsetInner2" in2="SourceAlpha" operator="arithmetic" k2="-1" k3="1" result="shadowInnerInner2"></feComposite>
            <feColorMatrix values="0 0 0 0 1   0 0 0 0 1   0 0 0 0 1  0 0 0 1 0" type="matrix" in="shadowInnerInner2" result="shadowMatrixInner2"></feColorMatrix>
            <feMerge>
                <feMergeNode in="shadowMatrixInner1"></feMergeNode>
                <feMergeNode in="shadowMatrixInner2"></feMergeNode>
            </feMerge>
        </filter>
    </defs>
    <g id="dcc_nav_commoninfo_42px.svg" stroke="none" stroke-width="1" fill="none" fill-rule="evenodd">
        <g id="编组-2" filter="url(#filter-1)" transform="translate(1.000000, 1.000000)">
            <g id="编组">
                <g id="形状结合">
                    <use fill="url(#linearGradient-2)" fill-rule="evenodd" xlink:href="#path-3"></use>
                    <use fill="black" fill-opacity="1" filter="url(#filter-4)" xlink:href="#path-3"></use>
                </g>
                <g id="椭圆形">
                    <use fill="black" fill-opacity="1" filter="url(#filter-7)" xlink:href="#path-6"></use>
                    <use fill="url(#linearGradient-5)" fill-rule="evenodd" xlink:href="#path-6"></use>
                </g>
                <circle id="椭圆形" fill="url(#linearGradient-8)" cx="20" cy="20" r="8.90024124"></circle>
                <g id="椭圆形">
                    <use fill="black" fill-opacity="1" filter="url(#filter-10)" xlink:href="#path-9"></use>
                    <use fill="#9CA6B5" fill-rule="evenodd" xlink:href="#path-9"></use>
                </g>
                <circle id="椭圆形" fill="#273250" opacity="0.5" cx="20" cy="20" r="2.75862069"></circle>
                <g id="椭圆形" fill-rule="nonzero">
                    <use fill="black" fill-opacity="1" filter="url(#filter-12)" xlink:href="#path-11"></use>
                    <use fill="" xlink:href="#path-11"></use>
                    <use fill="black" fill-opacity="1" filter="url(#filter-13)" xlink:href="#path-11"></use>
                </g>
                <g id="形状结合" fill-rule="nonzero">
                    <use fill="black" fill-opacity="1" filter="url(#filter-16)" xlink:href="#path-15"></use>
                    <use fill="url(#radialGradient-14)" xlink:href="#path-15"></use>
                    <use fill="black" fill-opacity="1" filter="url(#filter-17)" xlink:href="#path-15"></use>
                </g>
            </g>
        </g>
    </g>
</svg>