<svg xmlns="http://www.w3.org/2000/svg" xmlns:xlink="http://www.w3.org/1999/xlink" width="42" height="42" viewBox="0 0 42 42">
  <defs>
    <linearGradient id="dcc_nav_power_42px-c" x1="50%" x2="50%" y1="0%" y2="96.884%">
      <stop offset="0%" stop-color="#3F3F3F"/>
      <stop offset="100%" stop-color="#5A5A5A"/>
    </linearGradient>
    <linearGradient id="dcc_nav_power_42px-d" x1="50%" x2="50%" y1="0%" y2="100%">
      <stop offset="0%" stop-color="#4F4F4F"/>
      <stop offset="100%" stop-color="#434343"/>
    </linearGradient>
    <path id="dcc_nav_power_42px-b" d="M26.5,6 L26,6 L26,6 L26,4 C26,1.790861 24.209139,-4.05812251e-16 22,0 L4,0 C1.790861,4.05812251e-16 -2.705415e-16,1.790861 0,4 L0,14 C2.705415e-16,16.209139 1.790861,18 4,18 L22,18 C24.209139,18 26,16.209139 26,14 L26,12 L26,12 L26.5,12 C27.3284271,12 28,11.3284271 28,10.5 L28,7.5 C28,6.67157288 27.3284271,6 26.5,6 Z"/>
    <filter id="dcc_nav_power_42px-a" width="153.6%" height="183.3%" x="-26.8%" y="-30.6%" filterUnits="objectBoundingBox">
      <feMorphology in="SourceAlpha" operator="dilate" radius=".5" result="shadowSpreadOuter1"/>
      <feOffset dy="2" in="shadowSpreadOuter1" result="shadowOffsetOuter1"/>
      <feGaussianBlur in="shadowOffsetOuter1" result="shadowBlurOuter1" stdDeviation="2"/>
      <feComposite in="shadowBlurOuter1" in2="SourceAlpha" operator="out" result="shadowBlurOuter1"/>
      <feColorMatrix in="shadowBlurOuter1" values="0 0 0 0 0.529411765   0 0 0 0 0.733333333   0 0 0 0 0  0 0 0 0.5 0"/>
    </filter>
    <linearGradient id="dcc_nav_power_42px-e" x1="50%" x2="50%" y1="0%" y2="100%">
      <stop offset="0%" stop-color="#ACACAC"/>
      <stop offset="16.767%" stop-color="#E9E9E9"/>
      <stop offset="56.689%" stop-color="#D6D6D6"/>
      <stop offset="80.293%" stop-color="#B3B3B3"/>
      <stop offset="94.123%" stop-color="#BDBDBD"/>
      <stop offset="100%" stop-color="#616161"/>
    </linearGradient>
    <linearGradient id="dcc_nav_power_42px-f" x1="50%" x2="50%" y1="0%" y2="100%">
      <stop offset="0%" stop-color="#94DB00"/>
      <stop offset="100%" stop-color="#5AB400"/>
    </linearGradient>
    <linearGradient id="dcc_nav_power_42px-g" x1="50%" x2="50%" y1="0%" y2="100%">
      <stop offset="0%" stop-color="#CCF20A"/>
      <stop offset="100%" stop-color="#82D00E"/>
    </linearGradient>
    <linearGradient id="dcc_nav_power_42px-h" x1="50%" x2="50%" y1="0%" y2="100%">
      <stop offset="0%" stop-color="#FFF" stop-opacity=".62"/>
      <stop offset="100%" stop-color="#FFF" stop-opacity="0"/>
    </linearGradient>
  </defs>
  <g fill="none" fill-rule="evenodd" transform="translate(6.5 11.5)">
    <g stroke-linejoin="round">
      <use fill="#000" filter="url(#dcc_nav_power_42px-a)" xlink:href="#dcc_nav_power_42px-b"/>
      <use fill="url(#dcc_nav_power_42px-c)" stroke="url(#dcc_nav_power_42px-d)" xlink:href="#dcc_nav_power_42px-b"/>
    </g>
    <path fill="url(#dcc_nav_power_42px-e)" d="M26.5,5.5 L27,5.5 C27.8284271,5.5 28.5,6.17157288 28.5,7 L28.5,11 C28.5,11.8284271 27.8284271,12.5 27,12.5 L26.5,12.5 L26.5,12.5 L26.5,5.5 Z"/>
    <path fill="url(#dcc_nav_power_42px-f)" d="M4,17.5 L17.5,17.5 L17.5,17.5 L17.5,0.5 L4,0.5 C2.06700338,0.5 0.5,2.06700338 0.5,4 L0.5,14 C0.5,15.9329966 2.06700338,17.5 4,17.5 Z"/>
    <path stroke="url(#dcc_nav_power_42px-g)" d="M17,17 L17,1 L4,1 C2.34314575,1 1,2.34314575 1,4 L1,14 C1,15.6568542 2.34314575,17 4,17 L17,17 Z"/>
    <path fill="url(#dcc_nav_power_42px-h)" fill-opacity=".67" d="M4,0.5 L22,0.5 C23.9329966,0.5 25.5,2.06700338 25.5,4 L25.5,9 L25.5,9 L0.5,9 L0.5,4 C0.5,2.06700338 2.06700338,0.5 4,0.5 Z"/>
  </g>
</svg>
