<svg xmlns="http://www.w3.org/2000/svg" xmlns:xlink="http://www.w3.org/1999/xlink" width="84" height="84" viewBox="0 0 84 84">
  <defs>
    <filter id="dcc_nav_union_84px-a" width="187.3%" height="227.9%" x="-36.5%" y="-53.5%" filterUnits="objectBoundingBox">
      <feOffset dy="4" in="SourceAlpha" result="shadowOffsetOuter1"/>
      <feGaussianBlur in="shadowOffsetOuter1" result="shadowBlurOuter1" stdDeviation="4"/>
      <feColorMatrix in="shadowBlurOuter1" result="shadowMatrixOuter1" values="0 0 0 0 0.157805134   0 0 0 0 0.401944515   0 0 0 0 0.901154891  0 0 0 0.295536495 0"/>
      <feMerge>
        <feMergeNode in="shadowMatrixOuter1"/>
        <feMergeNode in="SourceGraphic"/>
      </feMerge>
    </filter>
    <linearGradient id="dcc_nav_union_84px-b" x1="50%" x2="50%" y1="0%" y2="96.184%">
      <stop offset="0%" stop-color="#FFF"/>
      <stop offset="100%" stop-color="#C2E0FD"/>
    </linearGradient>
    <path id="dcc_nav_union_84px-c" d="M33.2545455,0 C41.7264049,0 48.7646672,6.10328094 50.1649029,14.1291671 C55.3184069,15.9885109 59,20.9000768 59,26.6666667 C59,34.0304633 52.9965455,40 45.5909091,40 C40.9497697,40 18.7807373,40 13.4090909,40 C6.00345449,40 0,34.0304633 0,26.6666667 C0,19.30287 6.00345449,13.3333333 13.4090909,13.3333333 C14.44796,13.3333333 15.4592359,13.4508062 16.4302167,13.6731216 C18.0127985,5.87321777 24.9438932,0 33.2545455,0 Z"/>
    <filter id="dcc_nav_union_84px-d" width="127.1%" height="140%" x="-13.6%" y="-20%" filterUnits="objectBoundingBox">
      <feGaussianBlur in="SourceAlpha" result="shadowBlurInner1" stdDeviation="7"/>
      <feOffset dy="-2" in="shadowBlurInner1" result="shadowOffsetInner1"/>
      <feComposite in="shadowOffsetInner1" in2="SourceAlpha" k2="-1" k3="1" operator="arithmetic" result="shadowInnerInner1"/>
      <feColorMatrix in="shadowInnerInner1" values="0 0 0 0 0.0641111344   0 0 0 0 0.254066875   0 0 0 0 0.844068878  0 0 0 0.3 0"/>
    </filter>
    <filter id="dcc_nav_union_84px-e" width="170.6%" height="170.6%" x="-35.3%" y="-35.3%" filterUnits="objectBoundingBox">
      <feOffset dy="1" in="SourceAlpha" result="shadowOffsetOuter1"/>
      <feGaussianBlur in="shadowOffsetOuter1" result="shadowBlurOuter1" stdDeviation="2.5"/>
      <feColorMatrix in="shadowBlurOuter1" result="shadowMatrixOuter1" values="0 0 0 0 0   0 0 0 0 0   0 0 0 0 0  0 0 0 0.2 0"/>
      <feMerge>
        <feMergeNode in="shadowMatrixOuter1"/>
        <feMergeNode in="SourceGraphic"/>
      </feMerge>
    </filter>
    <linearGradient id="dcc_nav_union_84px-f" x1="50%" x2="50%" y1="0%" y2="100%">
      <stop offset="0%" stop-color="#3E71F2"/>
      <stop offset="100%" stop-color="#000FC3"/>
    </linearGradient>
    <linearGradient id="dcc_nav_union_84px-g" x1="50%" x2="50%" y1="0%" y2="100%">
      <stop offset="0%" stop-color="#FAC800"/>
      <stop offset="100%" stop-color="#F49700"/>
    </linearGradient>
  </defs>
  <g fill="none" fill-rule="evenodd" filter="url(#dcc_nav_union_84px-a)" transform="translate(11 20)">
    <use fill="url(#dcc_nav_union_84px-b)" xlink:href="#dcc_nav_union_84px-c"/>
    <use fill="#000" filter="url(#dcc_nav_union_84px-d)" xlink:href="#dcc_nav_union_84px-c"/>
    <g fill-rule="nonzero" filter="url(#dcc_nav_union_84px-e)" transform="translate(29 9)">
      <path fill="url(#dcc_nav_union_84px-f)" d="M4.1464836,5.66533112 C9.63402348,-0.580575494 18.8861131,-1.8254382 25.829377,2.74791176 L25.829377,2.74791176 L17.4540104,11.1232783 C16.420601,12.1616253 16.420601,13.8398874 17.4540104,14.8782344 L17.4540104,14.8782344 L29.6680867,27.1202284 C26.8689963,30.6076458 22.7859145,32.8239815 18.3365252,33.2711079 C13.887136,33.7182344 9.44470334,32.3586417 6.00767617,29.497902 L6.00767617,29.497902 L13.2197974,22.2857808 L13.7223194,22.7883028 C14.7669311,23.8290599 16.4574566,23.825935 17.4982138,22.7813233 C18.5389709,21.7367115 18.5358461,20.046186 17.4912343,19.0054289 L17.4912343,19.0054289 Z M1.25698214,10.3043536 L9.45553537,18.5029069 L2.50863414,25.4544612 C-0.319173041,20.899068 -0.784883823,15.2620631 1.25698214,10.3043536 L1.25698214,10.3043536 Z"/>
      <path fill="url(#dcc_nav_union_84px-g)" d="M29.8076761,6.39119622 L23.1027299,13.0170418 L32.4086928,22.239251 C34.3130169,16.8715195 33.338686,10.9026453 29.8262881,6.41911412 L29.8076761,6.39119622 Z"/>
    </g>
  </g>
</svg>
