<svg xmlns="http://www.w3.org/2000/svg" xmlns:xlink="http://www.w3.org/1999/xlink" width="42" height="42" viewBox="0 0 42 42">
  <defs>
    <filter id="dcc_nav_union_42px-a" width="193.8%" height="245.5%" x="-37.5%" y="-63.6%" filterUnits="objectBoundingBox">
      <feOffset dy="2" in="SourceAlpha" result="shadowOffsetOuter1"/>
      <feGaussianBlur in="shadowOffsetOuter1" result="shadowBlurOuter1" stdDeviation="2"/>
      <feColorMatrix in="shadowBlurOuter1" result="shadowMatrixOuter1" values="0 0 0 0 0.157805134   0 0 0 0 0.401944515   0 0 0 0 0.901154891  0 0 0 0.295536495 0"/>
      <feMerge>
        <feMergeNode in="shadowMatrixOuter1"/>
        <feMergeNode in="SourceGraphic"/>
      </feMerge>
    </filter>
    <linearGradient id="dcc_nav_union_42px-b" x1="50%" x2="50%" y1="0%" y2="96.184%">
      <stop offset="0%" stop-color="#FFF"/>
      <stop offset="100%" stop-color="#C2E0FD"/>
    </linearGradient>
    <path id="dcc_nav_union_42px-c" d="M16.6272727,0 C20.8632024,0 24.3823336,3.05164047 25.0824515,7.06458354 C27.6592035,7.99425544 29.5,10.4500384 29.5,13.3333333 C29.5,17.0152317 26.4982728,20 22.7954545,20 C20.4748849,20 9.39036865,20 6.70454545,20 C3.00172725,20 0,17.0152317 0,13.3333333 C0,9.651435 3.00172725,6.66666667 6.70454545,6.66666667 C7.22398,6.66666667 7.72961797,6.72540309 8.21510835,6.8365608 C9.00639927,2.93660889 12.4719466,0 16.6272727,0 Z"/>
    <filter id="dcc_nav_union_42px-d" width="127.1%" height="140%" x="-13.6%" y="-20%" filterUnits="objectBoundingBox">
      <feGaussianBlur in="SourceAlpha" result="shadowBlurInner1" stdDeviation="3.5"/>
      <feOffset dy="-1" in="shadowBlurInner1" result="shadowOffsetInner1"/>
      <feComposite in="shadowOffsetInner1" in2="SourceAlpha" k2="-1" k3="1" operator="arithmetic" result="shadowInnerInner1"/>
      <feColorMatrix in="shadowInnerInner1" values="0 0 0 0 0.0641111344   0 0 0 0 0.254066875   0 0 0 0 0.844068878  0 0 0 0.3 0"/>
    </filter>
    <filter id="dcc_nav_union_42px-e" width="194.1%" height="194.1%" x="-47.1%" y="-47.1%" filterUnits="objectBoundingBox">
      <feOffset dy="1" in="SourceAlpha" result="shadowOffsetOuter1"/>
      <feGaussianBlur in="shadowOffsetOuter1" result="shadowBlurOuter1" stdDeviation="1.5"/>
      <feColorMatrix in="shadowBlurOuter1" result="shadowMatrixOuter1" values="0 0 0 0 0   0 0 0 0 0   0 0 0 0 0  0 0 0 0.2 0"/>
      <feMerge>
        <feMergeNode in="shadowMatrixOuter1"/>
        <feMergeNode in="SourceGraphic"/>
      </feMerge>
    </filter>
    <linearGradient id="dcc_nav_union_42px-f" x1="50%" x2="50%" y1="0%" y2="100%">
      <stop offset="0%" stop-color="#3E71F2"/>
      <stop offset="100%" stop-color="#000FC3"/>
    </linearGradient>
    <linearGradient id="dcc_nav_union_42px-g" x1="50%" x2="50%" y1="0%" y2="100%">
      <stop offset="0%" stop-color="#FAC800"/>
      <stop offset="100%" stop-color="#F49700"/>
    </linearGradient>
  </defs>
  <g fill="none" fill-rule="evenodd" filter="url(#dcc_nav_union_42px-a)" transform="translate(5 10)">
    <use fill="url(#dcc_nav_union_42px-b)" xlink:href="#dcc_nav_union_42px-c"/>
    <use fill="#000" filter="url(#dcc_nav_union_42px-d)" xlink:href="#dcc_nav_union_42px-c"/>
    <g fill-rule="nonzero" filter="url(#dcc_nav_union_42px-e)" transform="translate(14.5 4.5)">
      <path fill="url(#dcc_nav_union_42px-f)" d="M2.0732418,2.83266556 C4.81701174,-0.290287747 9.44305656,-0.912719099 12.9146885,1.37395588 L12.9146885,1.37395588 L8.72700522,5.56163915 C8.21030051,6.08081263 8.21030051,6.9199437 8.72700522,7.43911718 L8.72700522,7.43911718 L14.8340434,13.5601142 C13.4344981,15.3038229 11.3929573,16.4119907 9.16826262,16.6355539 C6.94356798,16.8591172 4.72235167,16.1793208 3.00383809,14.748951 L3.00383809,14.748951 L6.6098987,11.1428904 L6.86115969,11.3941514 C7.38346556,11.9145299 8.22872832,11.9129675 8.74910689,11.3906617 C9.26948546,10.8683557 9.26792304,10.023093 8.74561717,9.50271446 L8.74561717,9.50271446 Z M0.628491069,5.15217682 L4.72776769,9.25145346 L1.25431707,12.7272306 C-0.15958652,10.449534 -0.392441912,7.63103155 0.628491069,5.15217682 L0.628491069,5.15217682 Z"/>
      <path fill="url(#dcc_nav_union_42px-g)" d="M14.9038381,3.19559811 L11.551365,6.50852091 L16.2043464,11.1196255 C17.1565084,8.43575976 16.669343,5.45132267 14.9131441,3.20955706 L14.9038381,3.19559811 Z"/>
    </g>
  </g>
</svg>
