<svg xmlns="http://www.w3.org/2000/svg" width="156" height="46" viewBox="0 0 156 46">
  <defs>
    <linearGradient id="uos-a" x1="0%" x2="100%" y1="45.653%" y2="54.347%">
      <stop offset="0%" stop-color="#0071FF"/>
      <stop offset="21.078%" stop-color="#00FBFF" stop-opacity=".755"/>
      <stop offset="45.882%" stop-color="#006CFF" stop-opacity=".918"/>
      <stop offset="71.851%" stop-color="#00FCA7"/>
      <stop offset="100%" stop-color="#00A2FF"/>
    </linearGradient>
  </defs>
  <path fill="url(#uos-a)" d="M43,0 C44.5976809,0 45.9036609,1.24891996 45.9949073,2.82372721 L46,3 L46,23 C46,35.7025492 35.7025492,46 23,46 C10.4244762,46 0.206189525,35.9074685 0.00308134287,23.3803471 L0,23 L0,3 C0,1.34314575 1.34314575,0 3,0 C4.59768088,0 5.90366088,1.24891996 5.99490731,2.82372721 L6,3 L6,23 C6,32.3888407 13.6111593,40 23,40 C32.280923,40 39.824796,32.5628044 39.9969921,23.3230397 L40,23 L40,3 C40,1.34314575 41.3431458,0 43,0 Z M84,0 C94.4934102,0 103,8.50658975 103,19 L103,27 C103,37.4934102 94.4934102,46 84,46 L76,46 C65.5065898,46 57,37.4934102 57,27 L57,19 C57,8.50658975 65.5065898,0 76,0 L84,0 Z M151,0 C152.656854,0 154,1.34314575 154,3 C154,4.65685425 152.656854,6 151,6 L151,6 L125,6 C121.134007,6 118,9.13400675 118,13 C118,16.8659932 121.134007,20 125,20 L125,20 L143,20 C150.179702,20 156,25.8202983 156,33 C156,40.1797017 150.179702,46 143,46 L143,46 L117,46 C115.343146,46 114,44.6568542 114,43 C114,41.3431458 115.343146,40 117,40 L117,40 L143,40 C146.865993,40 150,36.8659932 150,33 C150,29.1340068 146.865993,26 143,26 L143,26 L125,26 C117.820298,26 112,20.1797017 112,13 C112,5.82029825 117.820298,0 125,0 L125,0 Z M84,6 L76,6 C68.8202983,6 63,11.8202983 63,19 L63,27 C63,34.1797017 68.8202983,40 76,40 L84,40 C91.1797017,40 97,34.1797017 97,27 L97,19 C97,11.8202983 91.1797017,6 84,6 Z"/>
</svg>
