<svg xmlns="http://www.w3.org/2000/svg" xmlns:xlink="http://www.w3.org/1999/xlink" width="84" height="84" viewBox="0 0 84 84">
  <defs>
    <linearGradient id="dcc_nav_cloudsync_84px-c" x1="50%" x2="50%" y1="0%" y2="96.184%">
      <stop offset="0%" stop-color="#4BDEFA"/>
      <stop offset="100%" stop-color="#3978FF"/>
    </linearGradient>
    <path id="dcc_nav_cloudsync_84px-b" d="M46.0727273,20 C55.2625409,20 62.8972661,26.713609 64.4161659,35.5420838 C70.0064075,37.587362 74,42.9900844 74,49.3333333 C74,57.4335097 67.4877782,64 59.4545455,64 C54.4200892,64 30.3723252,64 24.5454545,64 C16.5122218,64 10,57.4335097 10,49.3333333 C10,41.233157 16.5122218,34.6666667 24.5454545,34.6666667 C25.6723634,34.6666667 26.7693407,34.7958868 27.8226079,35.0404338 C29.5393069,26.4605396 37.0577824,20 46.0727273,20 Z"/>
    <filter id="dcc_nav_cloudsync_84px-a" width="143.8%" height="163.6%" x="-21.9%" y="-22.7%" filterUnits="objectBoundingBox">
      <feOffset dy="4" in="SourceAlpha" result="shadowOffsetOuter1"/>
      <feGaussianBlur in="shadowOffsetOuter1" result="shadowBlurOuter1" stdDeviation="4"/>
      <feColorMatrix in="shadowBlurOuter1" values="0 0 0 0 0.196078431   0 0 0 0 0.458823529   0 0 0 0 0.996078431  0 0 0 0.5 0"/>
    </filter>
  </defs>
  <g fill="none" fill-rule="evenodd">
    <use fill="#000" filter="url(#dcc_nav_cloudsync_84px-a)" xlink:href="#dcc_nav_cloudsync_84px-b"/>
    <use fill="url(#dcc_nav_cloudsync_84px-c)" xlink:href="#dcc_nav_cloudsync_84px-b"/>
  </g>
</svg>
