<?xml version="1.0" encoding="UTF-8"?>
<svg width="84px" height="84px" viewBox="0 0 84 84" version="1.1" xmlns="http://www.w3.org/2000/svg" xmlns:xlink="http://www.w3.org/1999/xlink">
    <title>设置中心/dcc_nav_keyboard_84px</title>
    <defs>
        <linearGradient x1="101.058273%" y1="49.9974471%" x2="0%" y2="50%" id="linearGradient-1">
            <stop stop-color="#2F3241" offset="0%"></stop>
            <stop stop-color="#535465" offset="2.89875241%"></stop>
            <stop stop-color="#6E7187" offset="97.1450118%"></stop>
            <stop stop-color="#606376" offset="100%"></stop>
        </linearGradient>
        <linearGradient x1="50%" y1="0%" x2="50%" y2="100%" id="linearGradient-2">
            <stop stop-color="#7D829B" offset="0%"></stop>
            <stop stop-color="#6E7288" offset="100%"></stop>
        </linearGradient>
        <path d="M8.97207826,0 L56.9847387,0 C58.6272694,1.42361205e-16 60.0583936,1.11939682 60.4539878,2.71357763 L64.7097529,19.8636217 C65.1852095,21.7796351 64.0174076,23.7183046 62.1013942,24.1937613 C61.8197652,24.2636472 61.5306742,24.2989802 61.2405037,24.2989802 L4.79659975,24.2989802 C2.82247554,24.2989802 1.22213167,22.6986364 1.22213167,20.7245121 C1.22213167,20.4396208 1.25619074,20.155751 1.32358387,19.8789456 L5.49906237,2.72890156 C5.88900764,1.12726992 7.32366047,-1.41279775e-16 8.97207826,0 Z" id="path-3"></path>
        <filter x="0.7%" y="-2.1%" width="98.5%" height="108.2%" filterUnits="objectBoundingBox" id="filter-4">
            <feOffset dx="0" dy="1" in="SourceAlpha" result="shadowOffsetOuter1"></feOffset>
            <feColorMatrix values="0 0 0 0 0.649173427   0 0 0 0 0.666974128   0 0 0 0 0.764877983  0 0 0 1 0" type="matrix" in="shadowOffsetOuter1"></feColorMatrix>
        </filter>
        <linearGradient x1="50%" y1="0%" x2="50%" y2="100%" id="linearGradient-5">
            <stop stop-color="#BCC1D6" offset="0%"></stop>
            <stop stop-color="#B8BBCD" offset="100%"></stop>
        </linearGradient>
        <linearGradient x1="50%" y1="0%" x2="50%" y2="100%" id="linearGradient-6">
            <stop stop-color="#00CEE3" stop-opacity="0" offset="0%"></stop>
            <stop stop-color="#009AAB" offset="100%"></stop>
        </linearGradient>
        <filter x="-15.3%" y="-36.9%" width="130.5%" height="173.9%" filterUnits="objectBoundingBox" id="filter-7">
            <feGaussianBlur stdDeviation="2.68085106" in="SourceGraphic"></feGaussianBlur>
        </filter>
        <linearGradient x1="50%" y1="0%" x2="50%" y2="88.2716256%" id="linearGradient-8">
            <stop stop-color="#11E9FF" offset="0%"></stop>
            <stop stop-color="#0EC5E5" offset="100%"></stop>
        </linearGradient>
        <path d="M39.1159891,2.68085106 C40.9015423,2.68085106 42.3490192,4.13536745 42.3490192,5.92960435 L42.3485383,32.0988089 C42.3485173,33.2423015 41.8014088,34.3167646 40.8766718,34.9893987 L23.3246557,47.7563637 L23.3246557,47.7563637 C22.5168294,48.3752878 21.4166177,48.4194741 20.56611,47.8829713 L20.4267637,47.7881764 L1.90595296,34.9847621 C0.941003654,34.3176938 0.364780082,33.2196149 0.364102593,32.0465391 L0.349019214,5.92960435 L0.349019214,5.92960435 C0.349019214,4.13536745 1.79649609,2.68085106 3.5820493,2.68085106 L39.1159891,2.68085106 Z" id="path-9"></path>
        <filter x="-1.2%" y="-1.1%" width="102.4%" height="102.2%" filterUnits="objectBoundingBox" id="filter-10">
            <feOffset dx="0" dy="1" in="SourceAlpha" result="shadowOffsetInner1"></feOffset>
            <feComposite in="shadowOffsetInner1" in2="SourceAlpha" operator="arithmetic" k2="-1" k3="1" result="shadowInnerInner1"></feComposite>
            <feColorMatrix values="0 0 0 0 0.406310737   0 0 0 0 1   0 0 0 0 0.990687227  0 0 0 1 0" type="matrix" in="shadowInnerInner1"></feColorMatrix>
        </filter>
        <path d="M13.9511433,31.8839331 L16.4320526,25.3552242 L27.1391351,25.3552242 L29.6200445,31.8839331 L32.5253199,31.8839331 L23.352484,8.57644255 L20.2513473,8.57644255 L11.0785114,31.8839331 L13.9511433,31.8839331 Z M26.290403,23.1028197 L17.2807848,23.1028197 L21.7529503,11.4490744 L21.8835245,11.4490744 L26.290403,23.1028197 Z" id="path-11"></path>
        <filter x="-9.3%" y="-4.3%" width="118.7%" height="117.2%" filterUnits="objectBoundingBox" id="filter-12">
            <feOffset dx="0" dy="1" in="SourceAlpha" result="shadowOffsetOuter1"></feOffset>
            <feGaussianBlur stdDeviation="0.5" in="shadowOffsetOuter1" result="shadowBlurOuter1"></feGaussianBlur>
            <feColorMatrix values="0 0 0 0 0   0 0 0 0 0   0 0 0 0 0  0 0 0 0.154301997 0" type="matrix" in="shadowBlurOuter1"></feColorMatrix>
        </filter>
    </defs>
    <g id="设置中心/dcc_nav_keyboard_84px" stroke="none" stroke-width="1" fill="none" fill-rule="evenodd">
        <g id="编组-4" transform="translate(8.936170, 8.042553)">
            <g id="编组-2" transform="translate(0.000000, 34.851064)">
                <path d="M1.27168576,20.9993668 L64.8559738,20.9993668 L64.8559738,25.1425086 C64.8559738,27.1166328 63.2556299,28.7169766 61.2815057,28.7169766 L4.84615385,28.7169766 C2.87202963,28.7169766 1.27168576,27.1166328 1.27168576,25.1425086 L1.27168576,20.9993668 L1.27168576,20.9993668 Z" id="矩形备份" fill="url(#linearGradient-1)"></path>
                <g id="矩形备份-2">
                    <use fill="black" fill-opacity="1" filter="url(#filter-4)" xlink:href="#path-3"></use>
                    <use fill="url(#linearGradient-2)" fill-rule="evenodd" xlink:href="#path-3"></use>
                </g>
                <path d="M57.6865861,13.9522836 L57.2061478,10.8937494 C57.1104999,10.2890787 56.5882843,9.84382118 55.9759178,9.84382118 L52.2786314,9.84382118 C51.5332373,9.84382118 50.9560517,10.4935673 51.0429044,11.232365 L51.4013092,14.2908992 C51.4749691,14.9175579 52.0059799,15.3903005 52.6370362,15.3903005 L56.4574555,15.3903005 C57.2215394,15.3903005 57.8053214,14.7075723 57.6865861,13.9522836 L57.6865861,13.9522836 Z M45.3579006,9.84382118 L41.6430238,9.84382118 C40.9328106,9.84382118 40.3655195,10.4385973 40.4007004,11.1477111 L40.5491195,14.2062453 C40.5810022,14.8691843 41.128504,15.3903005 41.7925423,15.3903005 L45.6294527,15.3903005 C46.3605545,15.3903005 46.9344419,14.7636417 46.8695773,14.0358381 L46.5980252,10.9773039 C46.5408563,10.3352535 46.0032491,9.84382118 45.3579006,9.84382118 L45.3579006,9.84382118 Z M30.9535455,15.3903005 L34.7970522,15.3903005 C35.4929732,15.3903005 36.0547672,14.8175124 36.0415744,14.120492 L35.980008,11.0630572 C35.9657157,10.385826 35.4127169,9.84382118 34.7354857,9.84382118 L31.0140125,9.84382118 C30.3367814,9.84382118 29.7837825,10.385826 29.7694903,11.0630572 L29.7090233,14.120492 C29.694731,14.8175124 30.2565251,15.3903005 30.9535455,15.3903005 L30.9535455,15.3903005 Z M20.1200456,15.3903005 L23.956956,15.3903005 C24.6220937,15.3903005 25.1684961,14.8691843 25.2003788,14.2062453 L25.3498973,11.1477111 C25.3839788,10.4385973 24.8177871,9.84382118 24.1064745,9.84382118 L20.3915977,9.84382118 C19.7462492,9.84382118 19.208642,10.3352535 19.1514731,10.9773039 L18.879921,14.0358381 C18.8161557,14.7636417 19.3889438,15.3903005 20.1200456,15.3903005 L20.1200456,15.3903005 Z M51.7795032,18.3773736 C51.6904517,17.7661065 51.1660373,17.3142526 50.5492732,17.3142526 L15.6190969,17.3142526 C15.0012334,17.3142526 14.4757196,17.7683053 14.3877675,18.3806718 L14.0348597,20.8356348 C13.9271184,21.5854265 14.5098011,22.2571606 15.2661891,22.2571606 L50.9098768,22.2571606 C51.6684637,22.2571606 52.2511464,21.5821283 52.1401068,20.8312372 L51.7795032,18.3773736 Z M14.7065939,11.232365 C14.7934466,10.4935673 14.2162609,9.84382118 13.4708669,9.84382118 L9.77358052,9.84382118 C9.16121402,9.84382118 8.64009783,10.2890787 8.54444993,10.8937494 L8.06291218,13.9522836 C7.94417685,14.7075723 8.52795891,15.3903005 9.29204277,15.3903005 L13.1124621,15.3903005 C13.7435184,15.3903005 14.2756286,14.9175579 14.3481891,14.2908992 L14.7065939,11.232365 Z M51.8267775,8.48056364 L55.3701477,8.48056364 C56.1342316,8.48056364 56.7180136,7.79783547 56.5992783,7.04254681 L56.190301,4.44905928 C56.0957525,3.8443886 55.5735369,3.39803169 54.9611704,3.39803169 L51.5222433,3.39803169 C50.7779487,3.39803169 50.1985642,4.04777783 50.2865163,4.78767486 L50.5910505,7.3811624 C50.663611,8.00892051 51.1957212,8.48056364 51.8267775,8.48056364 L51.8267775,8.48056364 Z M41.4561256,8.48056364 L45.0170862,8.48056364 C45.748188,8.48056364 46.3209761,7.85500433 46.2572108,7.12720071 L46.0263365,4.53261377 C45.9691677,3.89056345 45.4315604,3.39803169 44.7873113,3.39803169 L41.3296944,3.39803169 C40.6194812,3.39803169 40.0521902,3.99280776 40.087371,4.70302097 L40.2127027,7.2965085 C40.2456848,7.95944745 40.7931866,8.48056364 41.4561256,8.48056364 L41.4561256,8.48056364 Z M31.09207,8.48056364 L34.6585277,8.48056364 C35.3544486,8.48056364 35.9162427,7.90887499 35.9030499,7.2118546 L35.8502786,4.61726767 C35.8370858,3.9400365 35.284087,3.39803169 34.6057564,3.39803169 L31.1437419,3.39803169 C30.4665107,3.39803169 29.9124125,3.9400365 29.9003191,4.61726767 L29.8475478,7.2118546 C29.8332556,7.90887499 30.3950496,8.48056364 31.09207,8.48056364 L31.09207,8.48056364 Z M20.7335115,8.48056364 L24.2933727,8.48056364 C24.9574111,8.48056364 25.5049129,7.95944745 25.5367955,7.2965085 L25.6621273,4.70302097 C25.6973081,3.99280776 25.1311165,3.39803169 24.4198039,3.39803169 L20.9632864,3.39803169 C20.3190372,3.39803169 19.7803306,3.89056345 19.7242612,4.53261377 L19.4933869,7.12720071 C19.4285222,7.85500433 20.0024097,8.48056364 20.7335115,8.48056364 L20.7335115,8.48056364 Z M10.38045,8.48056364 L13.9227208,8.48056364 C14.5548765,8.48056364 15.0858873,8.00892051 15.1584478,7.3811624 L15.4640814,4.78767486 C15.5509341,4.04777783 14.9715496,3.39803169 14.2283544,3.39803169 L10.7894273,3.39803169 C10.1759614,3.39803169 9.65484518,3.8443886 9.56029668,4.44905928 L9.15131941,7.04254681 C9.03148468,7.79783547 9.61526674,8.48056364 10.38045,8.48056364 L10.38045,8.48056364 Z" id="Fill-1" fill="#383B4F"></path>
                <path d="M57.6865861,12.9522836 L57.2061478,9.89374937 C57.1104999,9.28907868 56.5882843,8.84382118 55.9759178,8.84382118 L52.2786314,8.84382118 C51.5332373,8.84382118 50.9560517,9.49356732 51.0429044,10.232365 L51.4013092,13.2908992 C51.4749691,13.9175579 52.0059799,14.3903005 52.6370362,14.3903005 L56.4574555,14.3903005 C57.2215394,14.3903005 57.8053214,13.7075723 57.6865861,12.9522836 L57.6865861,12.9522836 Z M45.3579006,8.84382118 L41.6430238,8.84382118 C40.9328106,8.84382118 40.3655195,9.43859725 40.4007004,10.1477111 L40.5491195,13.2062453 C40.5810022,13.8691843 41.128504,14.3903005 41.7925423,14.3903005 L45.6294527,14.3903005 C46.3605545,14.3903005 46.9344419,13.7636417 46.8695773,13.0358381 L46.5980252,9.97730386 C46.5408563,9.33525354 46.0032491,8.84382118 45.3579006,8.84382118 L45.3579006,8.84382118 Z M30.9535455,14.3903005 L34.7970522,14.3903005 C35.4929732,14.3903005 36.0547672,13.8175124 36.0415744,13.120492 L35.980008,10.0630572 C35.9657157,9.38582599 35.4127169,8.84382118 34.7354857,8.84382118 L31.0140125,8.84382118 C30.3367814,8.84382118 29.7837825,9.38582599 29.7694903,10.0630572 L29.7090233,13.120492 C29.694731,13.8175124 30.2565251,14.3903005 30.9535455,14.3903005 L30.9535455,14.3903005 Z M20.1200456,14.3903005 L23.956956,14.3903005 C24.6220937,14.3903005 25.1684961,13.8691843 25.2003788,13.2062453 L25.3498973,10.1477111 C25.3839788,9.43859725 24.8177871,8.84382118 24.1064745,8.84382118 L20.3915977,8.84382118 C19.7462492,8.84382118 19.208642,9.33525354 19.1514731,9.97730386 L18.879921,13.0358381 C18.8161557,13.7636417 19.3889438,14.3903005 20.1200456,14.3903005 L20.1200456,14.3903005 Z M51.7795032,17.3773736 C51.6904517,16.7661065 51.1660373,16.3142526 50.5492732,16.3142526 L15.6190969,16.3142526 C15.0012334,16.3142526 14.4757196,16.7683053 14.3877675,17.3806718 L14.0348597,19.8356348 C13.9271184,20.5854265 14.5098011,21.2571606 15.2661891,21.2571606 L50.9098768,21.2571606 C51.6684637,21.2571606 52.2511464,20.5821283 52.1401068,19.8312372 L51.7795032,17.3773736 Z M14.7065939,10.232365 C14.7934466,9.49356732 14.2162609,8.84382118 13.4708669,8.84382118 L9.77358052,8.84382118 C9.16121402,8.84382118 8.64009783,9.28907868 8.54444993,9.89374937 L8.06291218,12.9522836 C7.94417685,13.7075723 8.52795891,14.3903005 9.29204277,14.3903005 L13.1124621,14.3903005 C13.7435184,14.3903005 14.2756286,13.9175579 14.3481891,13.2908992 L14.7065939,10.232365 Z M51.8267775,7.48056364 L55.3701477,7.48056364 C56.1342316,7.48056364 56.7180136,6.79783547 56.5992783,6.04254681 L56.190301,3.44905928 C56.0957525,2.8443886 55.5735369,2.39803169 54.9611704,2.39803169 L51.5222433,2.39803169 C50.7779487,2.39803169 50.1985642,3.04777783 50.2865163,3.78767486 L50.5910505,6.3811624 C50.663611,7.00892051 51.1957212,7.48056364 51.8267775,7.48056364 L51.8267775,7.48056364 Z M41.4561256,7.48056364 L45.0170862,7.48056364 C45.748188,7.48056364 46.3209761,6.85500433 46.2572108,6.12720071 L46.0263365,3.53261377 C45.9691677,2.89056345 45.4315604,2.39803169 44.7873113,2.39803169 L41.3296944,2.39803169 C40.6194812,2.39803169 40.0521902,2.99280776 40.087371,3.70302097 L40.2127027,6.2965085 C40.2456848,6.95944745 40.7931866,7.48056364 41.4561256,7.48056364 L41.4561256,7.48056364 Z M31.09207,7.48056364 L34.6585277,7.48056364 C35.3544486,7.48056364 35.9162427,6.90887499 35.9030499,6.2118546 L35.8502786,3.61726767 C35.8370858,2.9400365 35.284087,2.39803169 34.6057564,2.39803169 L31.1437419,2.39803169 C30.4665107,2.39803169 29.9124125,2.9400365 29.9003191,3.61726767 L29.8475478,6.2118546 C29.8332556,6.90887499 30.3950496,7.48056364 31.09207,7.48056364 L31.09207,7.48056364 Z M20.7335115,7.48056364 L24.2933727,7.48056364 C24.9574111,7.48056364 25.5049129,6.95944745 25.5367955,6.2965085 L25.6621273,3.70302097 C25.6973081,2.99280776 25.1311165,2.39803169 24.4198039,2.39803169 L20.9632864,2.39803169 C20.3190372,2.39803169 19.7803306,2.89056345 19.7242612,3.53261377 L19.4933869,6.12720071 C19.4285222,6.85500433 20.0024097,7.48056364 20.7335115,7.48056364 L20.7335115,7.48056364 Z M10.38045,7.48056364 L13.9227208,7.48056364 C14.5548765,7.48056364 15.0858873,7.00892051 15.1584478,6.3811624 L15.4640814,3.78767486 C15.5509341,3.04777783 14.9715496,2.39803169 14.2283544,2.39803169 L10.7894273,2.39803169 C10.1759614,2.39803169 9.65484518,2.8443886 9.56029668,3.44905928 L9.15131941,6.04254681 C9.03148468,6.79783547 9.61526674,7.48056364 10.38045,7.48056364 L10.38045,7.48056364 Z" id="Fill-1" fill="url(#linearGradient-5)"></path>
            </g>
            <g id="编组" transform="translate(6.255319, 0.000000)">
                <polygon id="路径-2" fill-opacity="0.6" fill="url(#linearGradient-6)" filter="url(#filter-7)" points="20.9981649 56.3217072 0.14858676 38.0945728 0.14858676 34.5423598 52.8199365 34.5423598 52.8199365 37.7329878 32.6215552 56.3217072"></polygon>
                <g id="气泡" transform="translate(3.705278, 0.000000)">
                    <g id="编组-3" transform="translate(0.446809, 0.000000)">
                        <path d="M2.09359049,2.85182791 L3.05398856,1.28187772 C3.54111652,0.485576004 4.40738927,1.05965642e-15 5.34087203,0 L37.3257295,0 C38.2655791,2.49188769e-15 39.1367945,0.492170406 39.621889,1.29715526 L40.5946127,2.91133147 C41.7424497,4.81609752 42.3490192,6.99786529 42.3490192,9.22175005 L42.3490192,10.0602676 C42.3490192,12.4006321 40.451779,14.2978723 38.1114145,14.2978723 L4.64612747,14.2978723 C2.27290011,14.2978723 0.349019214,12.3739914 0.349019214,10.0007641 L0.349019214,9.04677583 C0.349019214,6.86054713 0.952730524,4.71677682 2.09359049,2.85182791 Z" id="形状结合" fill="#FFFFFF"></path>
                        <path d="M2.18790639,1.68655153 L3.25796814,0.705134983 C3.75245812,0.251609156 4.39903958,1.23255911e-16 5.07001351,0 L37.5845372,0 C38.2691198,1.20651184e-15 38.9277663,0.261894444 39.4254292,0.731984968 L40.4997651,1.74679888 C41.680119,2.86175704 42.3490192,4.4137337 42.3490192,6.03742306 L42.3490192,10.7234043 C42.3490192,13.6845906 39.9485034,16.0851064 36.9873171,16.0851064 L5.71072134,16.0851064 C2.74953502,16.0851064 0.349019214,13.6845906 0.349019214,10.7234043 L0.349019214,5.86829084 C0.349019214,4.27830266 1.0161273,2.76125901 2.18790639,1.68655153 Z" id="形状结合" fill-opacity="0.8" fill="#00DDF2"></path>
                        <g id="路径">
                            <use fill="url(#linearGradient-8)" fill-rule="evenodd" xlink:href="#path-9"></use>
                            <use fill="black" fill-opacity="1" filter="url(#filter-10)" xlink:href="#path-9"></use>
                        </g>
                    </g>
                    <g id="A" fill-rule="nonzero">
                        <use fill="black" fill-opacity="1" filter="url(#filter-12)" xlink:href="#path-11"></use>
                        <use fill="#FFFFFF" xlink:href="#path-11"></use>
                    </g>
                </g>
            </g>
        </g>
    </g>
</svg>