<?xml version="1.0" encoding="UTF-8"?>
<svg width="84px" height="84px" viewBox="0 0 84 84" version="1.1" xmlns="http://www.w3.org/2000/svg" xmlns:xlink="http://www.w3.org/1999/xlink">
    <title>设置中心/dcc_nav_sound_84px</title>
    <defs>
        <filter x="-6.1%" y="-7.1%" width="112.1%" height="114.1%" filterUnits="objectBoundingBox" id="filter-1">
            <feOffset dx="0" dy="0" in="SourceAlpha" result="shadowOffsetOuter1"></feOffset>
            <feGaussianBlur stdDeviation="1" in="shadowOffsetOuter1" result="shadowBlurOuter1"></feGaussianBlur>
            <feColorMatrix values="0 0 0 0 0   0 0 0 0 0   0 0 0 0 0  0 0 0 0.2 0" type="matrix" in="shadowBlurOuter1" result="shadowMatrixOuter1"></feColorMatrix>
            <feMerge>
                <feMergeNode in="shadowMatrixOuter1"></feMergeNode>
                <feMergeNode in="SourceGraphic"></feMergeNode>
            </feMerge>
        </filter>
        <linearGradient x1="56.7915086%" y1="100%" x2="56.7915086%" y2="0%" id="linearGradient-2">
            <stop stop-color="#B8B8B8" offset="0%"></stop>
            <stop stop-color="#C2C2C2" offset="34.6339528%"></stop>
            <stop stop-color="#E7E7E7" offset="73.1037819%"></stop>
            <stop stop-color="#EDEDED" offset="100%"></stop>
        </linearGradient>
        <path d="M7.14893617,16.4571446 L12.9820564,16.4571446 L12.9820564,16.4571446 L12.9820564,40.2581647 L7.14893617,40.2581647 C3.20068775,40.2581647 4.8352098e-16,37.0574769 0,33.1092285 L0,23.6060808 C-4.8352098e-16,19.6578324 3.20068775,16.4571446 7.14893617,16.4571446 Z" id="path-3"></path>
        <filter x="-7.7%" y="-4.2%" width="115.4%" height="108.4%" filterUnits="objectBoundingBox" id="filter-4">
            <feGaussianBlur stdDeviation="0.5" in="SourceAlpha" result="shadowBlurInner1"></feGaussianBlur>
            <feOffset dx="1" dy="-1" in="shadowBlurInner1" result="shadowOffsetInner1"></feOffset>
            <feComposite in="shadowOffsetInner1" in2="SourceAlpha" operator="arithmetic" k2="-1" k3="1" result="shadowInnerInner1"></feComposite>
            <feColorMatrix values="0 0 0 0 0.562748563   0 0 0 0 0.562748563   0 0 0 0 0.562748563  0 0 0 0.57969228 0" type="matrix" in="shadowInnerInner1"></feColorMatrix>
        </filter>
        <path d="M3.57446809,0.025682936 L10.2044085,0.025682936 L10.2044085,0.025682936 L10.2044085,23.8267029 L3.57446809,23.8267029 C1.60034387,23.8267029 1.57402812e-15,22.2263591 0,20.2522349 L0,3.60015102 C2.0232872e-16,1.62602681 1.60034387,0.025682936 3.57446809,0.025682936 Z" id="path-5"></path>
        <linearGradient x1="51.9168608%" y1="76.4362948%" x2="51.6583848%" y2="22.7165832%" id="linearGradient-7">
            <stop stop-color="#6D6D6D" offset="0%"></stop>
            <stop stop-color="#C0C0C0" offset="69.768132%"></stop>
            <stop stop-color="#F4F4F4" offset="100%"></stop>
        </linearGradient>
        <linearGradient x1="56.7915086%" y1="100%" x2="56.7915086%" y2="0%" id="linearGradient-8">
            <stop stop-color="#929292" offset="0%"></stop>
            <stop stop-color="#CDCDCD" offset="31.9970412%"></stop>
            <stop stop-color="#EFEFEF" offset="60.0902316%"></stop>
            <stop stop-color="#C2C7CB" offset="100%"></stop>
        </linearGradient>
        <linearGradient x1="50%" y1="0%" x2="50%" y2="100%" id="linearGradient-9">
            <stop stop-color="#F6F3F3" offset="0%"></stop>
            <stop stop-color="#E1E1E1" offset="100%"></stop>
        </linearGradient>
        <linearGradient x1="50%" y1="0%" x2="50%" y2="100%" id="linearGradient-10">
            <stop stop-color="#343434" offset="0%"></stop>
            <stop stop-color="#717171" offset="57.5673463%"></stop>
            <stop stop-color="#3D3D3D" offset="100%"></stop>
        </linearGradient>
        <path d="M7.19085215,54.8631012 C10.9630987,54.8631012 16.9483615,42.635955 16.9483615,27.6022398 C16.9483615,12.5685247 10.9630987,0.421202722 7.19085215,0.421202722 C3.41860561,0.421202722 0.360595578,12.6084368 0.360595578,27.642152 C0.360595578,42.6758671 3.41860561,54.8631012 7.19085215,54.8631012 Z" id="path-11"></path>
        <radialGradient cx="95.0459416%" cy="34.8561048%" fx="95.0459416%" fy="34.8561048%" r="80.2235141%" id="radialGradient-13">
            <stop stop-color="#8E8E8E" stop-opacity="0.757692991" offset="0%"></stop>
            <stop stop-color="#1E1E1E" stop-opacity="0.737318498" offset="57.6276567%"></stop>
            <stop stop-color="#000000" offset="100%"></stop>
        </radialGradient>
        <circle id="path-14" cx="-9.84313579" cy="29.2181224" r="20.4876156"></circle>
        <filter x="0.0%" y="0.0%" width="100.0%" height="100.0%" filterUnits="objectBoundingBox" id="filter-15">
            <feOffset dx="0" dy="0" in="SourceAlpha" result="shadowOffsetInner1"></feOffset>
            <feComposite in="shadowOffsetInner1" in2="SourceAlpha" operator="arithmetic" k2="-1" k3="1" result="shadowInnerInner1"></feComposite>
            <feColorMatrix values="0 0 0 0 0.392960258   0 0 0 0 0.392960258   0 0 0 0 0.392960258  0 0 0 0.5 0" type="matrix" in="shadowInnerInner1"></feColorMatrix>
        </filter>
        <path d="M37.7211258,17.0281787 C38.5974666,16.173691 40.0005804,16.1914064 40.8550681,17.0677472 C43.7219122,20.0079094 45.3573193,23.9454892 45.3573193,28.1353152 C45.3573193,31.9383601 44.0109161,35.5396008 41.6015397,38.3819979 C40.8101033,39.3156739 39.4116234,39.4309817 38.4779474,38.6395453 C37.5442715,37.8481088 37.4289637,36.4496289 38.2204001,35.5159529 C39.9572385,33.4669645 40.9249024,30.8787421 40.9249024,28.1353152 C40.9249024,25.1134241 39.7491743,22.2826161 37.6815573,20.1621209 C36.8270696,19.2857801 36.8447851,17.8826664 37.7211258,17.0281787 Z" id="path-16"></path>
        <filter x="-6.0%" y="-2.2%" width="112.0%" height="104.4%" filterUnits="objectBoundingBox" id="filter-17">
            <feGaussianBlur stdDeviation="0.5" in="SourceAlpha" result="shadowBlurInner1"></feGaussianBlur>
            <feOffset dx="0" dy="0" in="shadowBlurInner1" result="shadowOffsetInner1"></feOffset>
            <feComposite in="shadowOffsetInner1" in2="SourceAlpha" operator="arithmetic" k2="-1" k3="1" result="shadowInnerInner1"></feComposite>
            <feColorMatrix values="0 0 0 0 0.881235709   0 0 0 0 0.94401112   0 0 0 0 1  0 0 0 1 0" type="matrix" in="shadowInnerInner1"></feColorMatrix>
        </filter>
        <path d="M45.0389919,9.89819463 C45.8583941,9.09053074 47.1773918,9.10004655 47.9850557,9.91944878 C52.7384113,14.7418882 55.453001,21.2268254 55.453001,28.1353152 C55.453001,34.3081854 53.287897,40.1532076 49.4049834,44.7889731 C48.6662077,45.6709888 47.3522968,45.7871077 46.4702812,45.0483321 C45.5882656,44.3095565 45.4721466,42.9956456 46.2109222,42.11363 C49.4713648,38.2210254 51.2865292,33.3207177 51.2865292,28.1353152 C51.2865292,22.3326177 49.01027,16.894817 45.0177377,12.8442584 C44.2100738,12.0248562 44.2195896,10.7058585 45.0389919,9.89819463 Z" id="path-18"></path>
        <filter x="-4.5%" y="-1.4%" width="109.1%" height="102.8%" filterUnits="objectBoundingBox" id="filter-19">
            <feGaussianBlur stdDeviation="0.5" in="SourceAlpha" result="shadowBlurInner1"></feGaussianBlur>
            <feOffset dx="0" dy="0" in="shadowBlurInner1" result="shadowOffsetInner1"></feOffset>
            <feComposite in="shadowOffsetInner1" in2="SourceAlpha" operator="arithmetic" k2="-1" k3="1" result="shadowInnerInner1"></feComposite>
            <feColorMatrix values="0 0 0 0 0.881235709   0 0 0 0 0.94401112   0 0 0 0 1  0 0 0 1 0" type="matrix" in="shadowInnerInner1"></feColorMatrix>
        </filter>
        <path d="M52.2701224,2.66978134 C53.0878206,1.86039234 54.4068354,1.8671283 55.2162244,2.68482654 C61.8764182,9.41339422 65.6816552,18.4762186 65.6816552,28.1353152 C65.6816552,36.7125705 62.684397,44.8341676 57.3044996,51.2877506 C56.5677878,52.1714907 55.2541519,52.2906807 54.3704118,51.5539688 C53.4866716,50.8172569 53.3674817,49.503621 54.1041936,48.6198809 C58.8654654,42.9083848 61.5151834,35.728509 61.5151834,28.1353152 C61.5151834,19.5851019 58.1507169,11.5720481 52.2550772,5.61588341 C51.4456882,4.79818517 51.4524241,3.47917035 52.2701224,2.66978134 Z" id="path-20"></path>
        <filter x="-3.6%" y="-1.0%" width="107.1%" height="102.0%" filterUnits="objectBoundingBox" id="filter-21">
            <feGaussianBlur stdDeviation="0.5" in="SourceAlpha" result="shadowBlurInner1"></feGaussianBlur>
            <feOffset dx="0" dy="0" in="shadowBlurInner1" result="shadowOffsetInner1"></feOffset>
            <feComposite in="shadowOffsetInner1" in2="SourceAlpha" operator="arithmetic" k2="-1" k3="1" result="shadowInnerInner1"></feComposite>
            <feColorMatrix values="0 0 0 0 0.881235709   0 0 0 0 0.94401112   0 0 0 0 1  0 0 0 1 0" type="matrix" in="shadowInnerInner1"></feColorMatrix>
        </filter>
    </defs>
    <g id="设置中心/dcc_nav_sound_84px" stroke="none" stroke-width="1" fill="none" fill-rule="evenodd">
        <g id="编组-2">
            <rect id="矩形" x="0" y="0" width="84" height="84"></rect>
            <g id="编组" filter="url(#filter-1)" transform="translate(9.000000, 14.000000)">
                <g id="形状结合备份">
                    <use fill="url(#linearGradient-2)" fill-rule="evenodd" xlink:href="#path-3"></use>
                    <use fill="black" fill-opacity="1" filter="url(#filter-4)" xlink:href="#path-3"></use>
                </g>
                <g id="形状结合" transform="translate(1.926993, 16.431462)">
                    <mask id="mask-6" fill="white">
                        <use xlink:href="#path-5"></use>
                    </mask>
                    <g id="蒙版"></g>
                    <path d="M7.76559473,0.025682936 L20.495428,-14.9431567 C20.8350007,-15.3424558 21.3327428,-15.5725578 21.8569082,-15.5725578 L34.557092,-15.5725578 L34.557092,-15.5725578 L34.557092,38.0104368 L21.8062542,38.0104368 C21.311496,38.0104368 20.8388738,37.8053426 20.5009246,37.4439895 L7.76559473,23.8267029 L7.76559473,23.8267029 C6.64870453,21.4866412 6.09025943,17.5098146 6.09025943,11.8962234 C6.09025943,6.28263208 6.64870453,2.32578528 7.76559473,0.025682936 Z" fill="url(#linearGradient-7)" mask="url(#mask-6)"></path>
                </g>
                <path d="M10.5554313,16.4571446 L23.2880114,2.30158128 C23.6269584,1.9247538 24.1099613,1.70955855 24.6167986,1.70955855 L35.0456425,1.70955855 L35.0456425,1.70955855 L35.0456425,54.4418985 L24.5960908,54.4418985 C24.1013326,54.4418985 23.6287104,54.2368043 23.2907612,53.8754512 L10.5554313,40.2581647 L10.5554313,40.2581647 C9.43854113,37.9181029 8.88009603,33.9412763 8.88009603,28.3276851 C8.88009603,22.7140938 9.43854113,18.757247 10.5554313,16.4571446 Z" id="形状结合" fill="url(#linearGradient-8)"></path>
                <path d="M34.0970745,54.3710106 L34.0965906,54.335183 C29.4759435,53.6156366 25.8031915,42.148068 25.8031915,28.1070479 C25.8031915,14.0660277 29.4759435,2.59845914 34.0965906,1.87891275 L34.0970745,1.84308511 L35.9401596,1.84308511 L35.9398804,2.16849196 C40.1182714,4.15638861 43.3125,15.0126401 43.3125,28.1070479 C43.3125,41.2014556 40.1182714,52.0577071 35.9398804,54.0456038 L35.9401596,54.3710106 L34.0970745,54.3710106 Z" id="形状结合" fill="url(#linearGradient-9)"></path>
                <path d="M35.2259402,54.4418985 C39.5520484,54.4418985 43.0590519,42.6355155 43.0590519,28.0716039 C43.0590519,13.5076924 39.5520484,1.70130933 35.2259402,1.70130933 C30.8998321,1.70130933 27.3928285,13.5076924 27.3928285,28.0716039 C27.3928285,42.6355155 30.8998321,54.4418985 35.2259402,54.4418985 Z" id="椭圆形" fill="url(#linearGradient-10)"></path>
                <g id="椭圆形" transform="translate(27.553104, 0.008249)">
                    <mask id="mask-12" fill="white">
                        <use xlink:href="#path-11"></use>
                    </mask>
                    <g id="蒙版"></g>
                    <g mask="url(#mask-12)">
                        <use fill="url(#radialGradient-13)" fill-rule="evenodd" xlink:href="#path-14"></use>
                        <use fill="black" fill-opacity="1" filter="url(#filter-15)" xlink:href="#path-14"></use>
                    </g>
                </g>
                <g id="路径" fill-rule="nonzero">
                    <use fill="#4DA6FF" xlink:href="#path-16"></use>
                    <use fill="black" fill-opacity="1" filter="url(#filter-17)" xlink:href="#path-16"></use>
                </g>
                <g id="路径" fill-rule="nonzero">
                    <use fill="#4DA6FF" xlink:href="#path-18"></use>
                    <use fill="black" fill-opacity="1" filter="url(#filter-19)" xlink:href="#path-18"></use>
                </g>
                <g id="路径" fill-rule="nonzero">
                    <use fill="#4DA6FF" xlink:href="#path-20"></use>
                    <use fill="black" fill-opacity="1" filter="url(#filter-21)" xlink:href="#path-20"></use>
                </g>
            </g>
        </g>
    </g>
</svg>