<?xml version="1.0" encoding="UTF-8"?>
<svg width="84px" height="84px" viewBox="0 0 84 84" version="1.1" xmlns="http://www.w3.org/2000/svg" xmlns:xlink="http://www.w3.org/1999/xlink">
    <title>设置中心/dcc_nav_commoninfo_84px</title>
    <defs>
        <filter x="-6.2%" y="-6.2%" width="112.3%" height="112.3%" filterUnits="objectBoundingBox" id="filter-1">
            <feOffset dx="0" dy="0" in="SourceAlpha" result="shadowOffsetOuter1"></feOffset>
            <feGaussianBlur stdDeviation="1" in="shadowOffsetOuter1" result="shadowBlurOuter1"></feGaussianBlur>
            <feColorMatrix values="0 0 0 0 0   0 0 0 0 0   0 0 0 0 0  0 0 0 0.2 0" type="matrix" in="shadowBlurOuter1" result="shadowMatrixOuter1"></feColorMatrix>
            <feMerge>
                <feMergeNode in="shadowMatrixOuter1"></feMergeNode>
                <feMergeNode in="SourceGraphic"></feMergeNode>
            </feMerge>
        </filter>
        <linearGradient x1="50%" y1="0%" x2="50%" y2="100%" id="linearGradient-2">
            <stop stop-color="#747E99" offset="0%"></stop>
            <stop stop-color="#505975" offset="100%"></stop>
        </linearGradient>
        <rect id="path-3" x="0" y="0" width="64.3404255" height="64.3404255" rx="32.1702128"></rect>
        <filter x="-0.8%" y="-0.8%" width="101.6%" height="101.6%" filterUnits="objectBoundingBox" id="filter-4">
            <feOffset dx="0" dy="0" in="SourceAlpha" result="shadowOffsetInner1"></feOffset>
            <feComposite in="shadowOffsetInner1" in2="SourceAlpha" operator="arithmetic" k2="-1" k3="1" result="shadowInnerInner1"></feComposite>
            <feColorMatrix values="0 0 0 0 1   0 0 0 0 1   0 0 0 0 1  0 0 0 0.5 0" type="matrix" in="shadowInnerInner1" result="shadowMatrixInner1"></feColorMatrix>
            <feOffset dx="0" dy="-1" in="SourceAlpha" result="shadowOffsetInner2"></feOffset>
            <feComposite in="shadowOffsetInner2" in2="SourceAlpha" operator="arithmetic" k2="-1" k3="1" result="shadowInnerInner2"></feComposite>
            <feColorMatrix values="0 0 0 0 0.166011983   0 0 0 0 0.542308611   0 0 0 0 0.830064856  0 0 0 1 0" type="matrix" in="shadowInnerInner2" result="shadowMatrixInner2"></feColorMatrix>
            <feMerge>
                <feMergeNode in="shadowMatrixInner1"></feMergeNode>
                <feMergeNode in="shadowMatrixInner2"></feMergeNode>
            </feMerge>
        </filter>
        <linearGradient x1="50%" y1="0%" x2="50%" y2="100%" id="linearGradient-5">
            <stop stop-color="#FBFFFF" offset="0%"></stop>
            <stop stop-color="#C0BFCE" offset="100%"></stop>
        </linearGradient>
        <rect id="path-6" x="0" y="0" width="40.7489362" height="40.7489362" rx="20.3744681"></rect>
        <filter x="-19.6%" y="-9.8%" width="139.3%" height="139.3%" filterUnits="objectBoundingBox" id="filter-7">
            <feOffset dx="0" dy="4" in="SourceAlpha" result="shadowOffsetOuter1"></feOffset>
            <feGaussianBlur stdDeviation="2" in="shadowOffsetOuter1" result="shadowBlurOuter1"></feGaussianBlur>
            <feColorMatrix values="0 0 0 0 0.281958395   0 0 0 0 0.31225224   0 0 0 0 0.394045622  0 0 0 1 0" type="matrix" in="shadowBlurOuter1"></feColorMatrix>
        </filter>
        <linearGradient x1="50%" y1="0%" x2="50%" y2="100%" id="linearGradient-8">
            <stop stop-color="#C0BFCE" offset="0%"></stop>
            <stop stop-color="#FBFFFF" offset="100%"></stop>
        </linearGradient>
        <rect id="path-9" x="18.5222437" y="7.40889749" width="3.70444874" height="3.70444874" rx="1.34042553"></rect>
        <filter x="-13.5%" y="-13.5%" width="127.0%" height="154.0%" filterUnits="objectBoundingBox" id="filter-10">
            <feOffset dx="0" dy="1" in="SourceAlpha" result="shadowOffsetOuter1"></feOffset>
            <feColorMatrix values="0 0 0 0 1   0 0 0 0 1   0 0 0 0 1  0 0 0 0.5 0" type="matrix" in="shadowOffsetOuter1"></feColorMatrix>
        </filter>
    </defs>
    <g id="设置中心/dcc_nav_commoninfo_84px" stroke="none" stroke-width="1" fill="none" fill-rule="evenodd">
        <g id="编组">
            <rect id="矩形" x="0" y="0" width="84" height="84"></rect>
            <g id="编组-11" filter="url(#filter-1)" transform="translate(9.829787, 9.829787)">
                <g id="矩形备份-45">
                    <use fill="url(#linearGradient-2)" fill-rule="evenodd" xlink:href="#path-3"></use>
                    <use fill="black" fill-opacity="1" filter="url(#filter-4)" xlink:href="#path-3"></use>
                    <rect stroke="#818AA1" stroke-width="1.78723404" stroke-linejoin="square" x="0.893617021" y="0.893617021" width="62.5531915" height="62.5531915" rx="31.2765957"></rect>
                </g>
                <path d="M33.0638298,56.2978723 L33.0638298,60.7659574 L31.2765957,60.7659574 L31.2765957,56.2978723 L33.0638298,56.2978723 Z M33.0638298,3.57446809 L33.0638298,8.04255319 L31.2765957,8.04255319 L31.2765957,3.57446809 L33.0638298,3.57446809 Z" id="形状结合" fill="#96A3C3"></path>
                <path d="M33.0638298,56.2978723 L33.0638298,60.7659574 L31.2765957,60.7659574 L31.2765957,56.2978723 L33.0638298,56.2978723 Z M33.0638298,3.57446809 L33.0638298,8.04255319 L31.2765957,8.04255319 L31.2765957,3.57446809 L33.0638298,3.57446809 Z" id="形状结合" fill="#96A3C3" transform="translate(32.170213, 32.170213) rotate(-270.000000) translate(-32.170213, -32.170213) "></path>
                <path d="M33.0638298,56.2978723 L33.0638298,60.7659574 L31.2765957,60.7659574 L31.2765957,56.2978723 L33.0638298,56.2978723 Z M33.0638298,3.57446809 L33.0638298,8.04255319 L31.2765957,8.04255319 L31.2765957,3.57446809 L33.0638298,3.57446809 Z" id="形状结合" fill="#96A3C3" transform="translate(32.170213, 32.170213) rotate(-345.000000) translate(-32.170213, -32.170213) "></path>
                <path d="M33.0638298,56.2978723 L33.0638298,60.7659574 L31.2765957,60.7659574 L31.2765957,56.2978723 L33.0638298,56.2978723 Z M33.0638298,3.57446809 L33.0638298,8.04255319 L31.2765957,8.04255319 L31.2765957,3.57446809 L33.0638298,3.57446809 Z" id="形状结合" fill="#96A3C3" transform="translate(32.170213, 32.170213) rotate(-330.000000) translate(-32.170213, -32.170213) "></path>
                <path d="M33.0638298,56.2978723 L33.0638298,60.7659574 L31.2765957,60.7659574 L31.2765957,56.2978723 L33.0638298,56.2978723 Z M33.0638298,3.57446809 L33.0638298,8.04255319 L31.2765957,8.04255319 L31.2765957,3.57446809 L33.0638298,3.57446809 Z" id="形状结合" fill="#96A3C3" transform="translate(32.170213, 32.170213) rotate(-315.000000) translate(-32.170213, -32.170213) "></path>
                <path d="M33.0638298,56.2978723 L33.0638298,60.7659574 L31.2765957,60.7659574 L31.2765957,56.2978723 L33.0638298,56.2978723 Z M33.0638298,3.57446809 L33.0638298,8.04255319 L31.2765957,8.04255319 L31.2765957,3.57446809 L33.0638298,3.57446809 Z" id="形状结合" fill="#96A3C3" transform="translate(32.170213, 32.170213) rotate(-300.000000) translate(-32.170213, -32.170213) "></path>
                <path d="M33.0638298,56.2978723 L33.0638298,60.7659574 L31.2765957,60.7659574 L31.2765957,56.2978723 L33.0638298,56.2978723 Z M33.0638298,3.57446809 L33.0638298,8.04255319 L31.2765957,8.04255319 L31.2765957,3.57446809 L33.0638298,3.57446809 Z" id="形状结合" fill="#96A3C3" transform="translate(32.170213, 32.170213) rotate(-285.000000) translate(-32.170213, -32.170213) "></path>
                <path d="M33.0638298,56.2978723 L33.0638298,60.7659574 L31.2765957,60.7659574 L31.2765957,56.2978723 L33.0638298,56.2978723 Z M33.0638298,3.57446809 L33.0638298,8.04255319 L31.2765957,8.04255319 L31.2765957,3.57446809 L33.0638298,3.57446809 Z" id="形状结合" fill="#96A3C3" transform="translate(32.170213, 32.170213) rotate(-255.000000) translate(-32.170213, -32.170213) "></path>
                <path d="M33.0638298,56.2978723 L33.0638298,60.7659574 L31.2765957,60.7659574 L31.2765957,56.2978723 L33.0638298,56.2978723 Z M33.0638298,3.57446809 L33.0638298,8.04255319 L31.2765957,8.04255319 L31.2765957,3.57446809 L33.0638298,3.57446809 Z" id="形状结合" fill="#96A3C3" transform="translate(32.170213, 32.170213) rotate(-240.000000) translate(-32.170213, -32.170213) "></path>
                <path d="M33.0638298,56.2978723 L33.0638298,60.7659574 L31.2765957,60.7659574 L31.2765957,56.2978723 L33.0638298,56.2978723 Z M33.0638298,3.57446809 L33.0638298,8.04255319 L31.2765957,8.04255319 L31.2765957,3.57446809 L33.0638298,3.57446809 Z" id="形状结合" fill="#96A3C3" transform="translate(32.170213, 32.170213) rotate(-225.000000) translate(-32.170213, -32.170213) "></path>
                <path d="M33.0638298,56.2978723 L33.0638298,60.7659574 L31.2765957,60.7659574 L31.2765957,56.2978723 L33.0638298,56.2978723 Z M33.0638298,3.57446809 L33.0638298,8.04255319 L31.2765957,8.04255319 L31.2765957,3.57446809 L33.0638298,3.57446809 Z" id="形状结合" fill="#96A3C3" transform="translate(32.170213, 32.170213) rotate(-210.000000) translate(-32.170213, -32.170213) "></path>
                <path d="M33.0638298,56.2978723 L33.0638298,60.7659574 L31.2765957,60.7659574 L31.2765957,56.2978723 L33.0638298,56.2978723 Z M33.0638298,3.57446809 L33.0638298,8.04255319 L31.2765957,8.04255319 L31.2765957,3.57446809 L33.0638298,3.57446809 Z" id="形状结合" fill="#96A3C3" transform="translate(32.170213, 32.170213) rotate(-195.000000) translate(-32.170213, -32.170213) "></path>
                <g id="编组-9" transform="translate(11.795745, 10.890213)">
                    <g id="矩形备份-45">
                        <use fill="black" fill-opacity="1" filter="url(#filter-7)" xlink:href="#path-6"></use>
                        <use fill="url(#linearGradient-5)" fill-rule="evenodd" xlink:href="#path-6"></use>
                    </g>
                    <rect id="矩形备份-45" fill="url(#linearGradient-8)" x="3.70444874" y="3.70444874" width="33.3400387" height="33.3400387" rx="16.6700193"></rect>
                    <g id="矩形">
                        <use fill="black" fill-opacity="1" filter="url(#filter-10)" xlink:href="#path-9"></use>
                        <use fill="#6A748F" fill-rule="evenodd" xlink:href="#path-9"></use>
                    </g>
                </g>
            </g>
        </g>
    </g>
</svg>