<svg xmlns="http://www.w3.org/2000/svg" xmlns:xlink="http://www.w3.org/1999/xlink" width="84" height="84" viewBox="0 0 84 84">
  <defs>
    <linearGradient id="nav_upgrade_84px-c" x1="50%" x2="50%" y1="0%" y2="100%">
      <stop offset="0%" stop-color="#ABEC51"/>
      <stop offset="100%" stop-color="#3D9321"/>
    </linearGradient>
    <linearGradient id="nav_upgrade_84px-d" x1="50%" x2="50%" y1="0%" y2="100%">
      <stop offset="0%" stop-color="#97E60B"/>
      <stop offset="100%" stop-color="#2A7B09"/>
    </linearGradient>
    <path id="nav_upgrade_84px-b" d="M31.0899533,16.1875142 C27.6810641,17.6458617 24.7097198,19.6419528 22.1758363,22.1758363 C19.6419514,24.7097198 17.6458645,27.6810641 16.1875142,31.0899533 C14.7291639,34.4988495 14,38.1355552 14,42.0001824 C14,45.8648096 14.7291639,49.5015153 16.1875142,52.9104115 C17.6458645,56.3193007 19.6419514,59.290645 22.1758363,61.8245285 C24.7097198,64.3584134 27.6810641,66.3545002 31.0899533,67.8128505 C34.4988495,69.2712008 38.1355552,70.0003648 42.0001824,70.0003648 C45.8648096,70.0003648 49.5015153,69.2712008 52.9104115,67.8128505 C56.3193007,66.3545002 59.290645,64.3584134 61.8245285,61.8245285 C64.358412,59.290645 66.354503,56.3193007 67.8128505,52.9104115 C69.271198,49.5015153 70.0003648,45.8648096 70.0003648,42.0001824 C70.0003648,38.1355552 69.271198,34.4988495 67.8128505,31.0899533 C66.354503,27.6810641 64.358412,24.7097198 61.8245285,22.1758363 C59.290645,19.6419528 56.3193007,17.6458617 52.9104115,16.1875142 C49.5015153,14.7291667 45.8648096,14 42.0001824,14 C38.1355552,14 34.4988495,14.7291667 31.0899533,16.1875142 Z M52.9104115,42.4580019 L46.5,36 L46.4734544,54.411925 C46.4734544,55.911925 44.9734544,57.411925 42.9734544,57.411925 C40.9734544,57.411925 39.4734544,55.911925 39.4734544,54.411925 L39.5,36 L32.9905355,42.4580019 C32.0550049,43.2795307 29.9883979,43.7752302 28.6435728,42.4580019 C27.2987477,41.1407736 27.577477,39.1226499 28.3694233,38.2323149 L40,27 C41.6121922,25.4603685 44.3458079,25.4603685 46,27 L58.0264891,38.2323149 C58.7684571,39.0104978 58.7684571,41.3306059 57.6070812,42.4580019 C56.4457053,43.5853979 53.9942226,43.3053833 52.9104115,42.4580019 Z"/>
    <filter id="nav_upgrade_84px-a" width="151.8%" height="151.8%" x="-25.9%" y="-18.7%" filterUnits="objectBoundingBox">
      <feMorphology in="SourceAlpha" operator="dilate" radius=".5" result="shadowSpreadOuter1"/>
      <feOffset dy="4" in="shadowSpreadOuter1" result="shadowOffsetOuter1"/>
      <feGaussianBlur in="shadowOffsetOuter1" result="shadowBlurOuter1" stdDeviation="4"/>
      <feComposite in="shadowBlurOuter1" in2="SourceAlpha" operator="out" result="shadowBlurOuter1"/>
      <feColorMatrix in="shadowBlurOuter1" values="0 0 0 0 0.35140762   0 0 0 0 0.903306159   0 0 0 0 0.0154567251  0 0 0 0.587112107 0"/>
    </filter>
  </defs>
  <g fill="none">
    <use fill="#000" filter="url(#nav_upgrade_84px-a)" xlink:href="#nav_upgrade_84px-b"/>
    <use fill="url(#nav_upgrade_84px-c)" stroke="url(#nav_upgrade_84px-d)" xlink:href="#nav_upgrade_84px-b"/>
  </g>
</svg>
