<svg xmlns="http://www.w3.org/2000/svg" width="24" height="24" viewBox="0 0 24 24">
  <path fill="#536076" fill-rule="evenodd" d="M8,18.9939319 C8,16.3787552 8,14.3790353 8,12.9947722 C8,12.4133998 7.89321584,11.9462293 7.00168645,12.062541 C4.31235488,12.4133998 3,14.1862892 3,16 C3,17.8285108 4.33375882,19.590507 7.01025867,19.9381987 C7.68092097,20.0253213 8,19.9381987 8,18.9939319 Z M16,18.9492752 C16,16.3340985 16,14.3343786 16,12.9501155 C16,12.368743 16.1067842,11.9015726 16.9983136,12.0178843 C19.6876451,12.368743 21,14.1416325 21,15.9553433 C21,17.7838541 19.6662412,19.5458502 16.9897413,19.893542 C16.319079,19.9806646 16,19.893542 16,18.9492752 Z M11.9957619,7.10650768 C9.3389264,7.1010205 7.27783239,8.66846727 6.58721182,11.2439059 C6.5409818,11.4084563 6.44803208,11.5082963 6.32440714,11.5310731 C6.10894322,11.5800795 5.89655201,11.640298 5.68834972,11.7115344 C5.27823687,11.8697597 5.05177099,11.5839514 5.16429188,10.9998837 C5.90745466,7.58781802 8.39361062,5 11.9957619,5 C15.6690604,5 18.0727293,7.48810822 18.7614682,10.9998837 C18.8623385,11.6172175 18.6474707,11.8490471 18.3121245,11.7246945 C18.1839805,11.6771763 18.069179,11.6369486 18.0000759,11.6172175 C17.6983769,11.5310731 17.4814782,11.4273788 17.290879,10.8583007 C16.5048246,8.51135319 14.5176345,7.10130059 11.9957619,7.10650768 Z"/>
</svg>
