<svg xmlns="http://www.w3.org/2000/svg" width="24" height="24" viewBox="0 0 24 24">
  <path fill="#536076" fill-rule="evenodd" d="M5,8.00335124 C5,6.34464615 6.34237885,5 8.00335124,5 L15.9966488,5 C17.6553538,5 19,6.34237885 19,8.00335124 L19,15.9966488 C19,17.6553538 17.6576211,19 15.9966488,19 L8.00335124,19 C6.34464615,19 5,17.6576211 5,15.9966488 L5,8.00335124 Z M14.5020097,16.5 L14.0685769,16.5 C13.9606175,16.5 13.8279218,16.4244202 13.7734078,16.3311877 L11.8256267,13 L10,13 L10,15.9985353 C10,16.2703552 9.77523972,16.5 9.49798387,16.5 C9.22883655,16.5 8.99607527,16.2733404 8.9962079,15.9937415 L8.99975984,8.50625849 C8.99989215,8.22735447 9.2217932,8 9.49538898,8 L12,8 C14.2012822,8 15,9 15,10.5 C15,12.25 13.5967437,13 13,13 L14.7547607,16.0708313 C14.8924713,16.3118248 14.7770421,16.5 14.5020097,16.5 Z M10,9.49538898 L10,11.504611 C10,11.7842474 10.2273639,12 10.5078316,12 L11.5,12 C13.0176849,12 14,11.5 14,10.5 C14,9.5 13.1639871,9 11.6463023,9 L10.5028904,9 C10.2289113,9 10,9.2217932 10,9.49538898 Z"/>
</svg>
