<?xml version="1.0" encoding="iso-8859-1"?>
<!-- Generator: Adobe Illustrator 18.0.0, SVG Export Plug-In . SVG Version: 6.00 Build 0)  -->
<!DOCTYPE svg PUBLIC "-//W3C//DTD SVG 1.1//EN" "http://www.w3.org/Graphics/SVG/1.1/DTD/svg11.dtd">
<svg version="1.1" id="&#x56FE;&#x5C42;_1" xmlns="http://www.w3.org/2000/svg" xmlns:xlink="http://www.w3.org/1999/xlink" x="0px"
	 y="0px" viewBox="0 0 32 32" style="enable-background:new 0 0 32 32;" xml:space="preserve">
<g>
	<path style="fill:#B4B4B4;" d="M26.039,10.984L22.023,16h3.021c-0.009,5-4.034,8.975-9,8.975c-2.311,0-4.708-0.958-6.161-2.443
		l-1.252,1.549c1.815,1.777,4.862,2.892,7.403,2.892C22.097,26.973,27.028,22,27.038,16h2.985L26.039,10.984z"/>
	<path style="fill:#B4B4B4;" d="M6.984,16c0.009-5,4.034-8.996,9-8.996c2.311,0,4.708,0.948,6.161,2.432l1.252-1.554
		c-1.815-1.777-4.862-2.874-7.403-2.874C9.931,5.008,5,10,4.99,16H2.006l3.984,5.016L10.005,16H6.984z"/>
</g>
</svg>
