<?xml version="1.0" encoding="iso-8859-1"?>
<!-- Generator: Adobe Illustrator 18.0.0, SVG Export Plug-In . SVG Version: 6.00 Build 0)  -->
<!DOCTYPE svg PUBLIC "-//W3C//DTD SVG 1.1//EN" "http://www.w3.org/Graphics/SVG/1.1/DTD/svg11.dtd">
<svg version="1.1" id="&#x56FE;&#x5C42;_1" xmlns="http://www.w3.org/2000/svg" xmlns:xlink="http://www.w3.org/1999/xlink" x="0px"
	 y="0px" viewBox="0 0 32 32" style="enable-background:new 0 0 32 32;" xml:space="preserve">
<g>
	<path style="fill:#FFFFFF;" d="M26.985,16c0.005-3.992-2.159-7.844-5.953-9.796c-4.613-2.373-10.109-1.156-13.351,2.61l0.9,1.106
		l0.077,0.04c2.778-3.391,7.632-4.508,11.687-2.422C23.623,9.224,25.5,12.552,25.496,16h-2.508l3.284,3.998L29.492,16H26.985z"/>
	<path style="fill:#FFFFFF;" d="M11.654,24.433C8.386,22.752,6.512,19.438,6.505,16h2.472l-3.284-3.998L2.472,16h2.543
		c0.006,3.981,2.168,7.82,5.953,9.767c4.595,2.364,10.067,1.166,13.313-2.566l-0.955-1.173
		C20.547,25.405,15.702,26.515,11.654,24.433z"/>
</g>
</svg>
