<?xml version="1.0" encoding="iso-8859-1"?>
<!-- Generator: Adobe Illustrator 18.0.0, SVG Export Plug-In . SVG Version: 6.00 Build 0)  -->
<!DOCTYPE svg PUBLIC "-//W3C//DTD SVG 1.1//EN" "http://www.w3.org/Graphics/SVG/1.1/DTD/svg11.dtd">
<svg version="1.1" id="&#x56FE;&#x5C42;_1" xmlns="http://www.w3.org/2000/svg" xmlns:xlink="http://www.w3.org/1999/xlink" x="0px"
	 y="0px" viewBox="0 0 32 32" style="enable-background:new 0 0 32 32;" xml:space="preserve">
<linearGradient id="SVGID_1_" gradientUnits="userSpaceOnUse" x1="16" y1="0.9949" x2="16" y2="30.9948">
	<stop  offset="0" style="stop-color:#22E1FD"/>
	<stop  offset="0.9662" style="stop-color:#0B53B6"/>
</linearGradient>
<circle style="fill:url(#SVGID_1_);" cx="16" cy="15.995" r="15"/>
<circle style="fill:#FFFFFF;" cx="16" cy="15.995" r="13.868"/>
<linearGradient id="SVGID_2_" gradientUnits="userSpaceOnUse" x1="14.8032" y1="1.0359" x2="14.9459" y2="30.8823">
	<stop  offset="0" style="stop-color:#22E1FD"/>
	<stop  offset="0.9662" style="stop-color:#0B53B6"/>
</linearGradient>
<path style="fill:url(#SVGID_2_);" d="M3.079,21.884c2.975,0.867,11.117,2.741,16.257-0.888c3.334-2.354,2.905-6.125,2.905-6.125
	c-0.056-2.868-1.868-5.717-1.868-5.717c7.048,6.142,2.883,12.966,2.883,12.966c-2.145,4.22-6.795,6.758-10.503,7.647
	C8.443,28.776,4.886,25.815,3.079,21.884z M4.989,7.032c0.873,4.575,2.832,8.434,4.134,9.837c1.684,1.813,4.163,3.738,7.345,2.942
	c3.183-0.796,3.83-4.275,3.83-4.275c0.703-2.96-0.297-6.476-0.351-6.55c-0.054-0.074-0.532-0.157-0.532-0.157
	c0.499,4.662-0.727,6.725-0.727,6.725c-1.785,3.655-4.403,2.525-4.403,2.525c-2.913-1.485-2.776-5.67-2.776-5.67
	c-0.089-2.909,1.063-7.719,3.28-10.519C10.844,2.207,7.356,4.142,4.989,7.032z M21.471,2.969c-1.701,1.383-4.595,4.334-4.595,4.334
	c-4.293,3.978-3.46,7.327-3.46,7.327c0.684,3.515,2.813,1.147,2.813,1.147c2.238-2.313,2.071-6.92,2.071-6.92
	c-0.906,0.148-1.48,0.648-1.48,0.648c-0.111,3.071-1.924,4.977-1.924,4.977c-0.703,0.777-1.202,0.037-1.202,0.037
	c-0.369-0.555,0.37-0.944,0.37-0.944c1.035-0.906,1.346-2.453,1.333-3.034c-0.015-0.582,0.295-0.74,0.295-0.74
	c1.462-1.129,2.924-1.795,2.924-1.795c1.961-0.999,5.458-1.166,5.458-1.166c0.948,0.032,1.855-0.015,2.581-0.079
	C25.249,5.131,23.479,3.824,21.471,2.969z"/>
</svg>
