<?xml version="1.0" encoding="UTF-8"?>
<svg width="16px" height="16px" viewBox="0 0 16 16" version="1.1" xmlns="http://www.w3.org/2000/svg" xmlns:xlink="http://www.w3.org/1999/xlink">
    <title>ICON / place-dark</title>
    <g id="ICON-/-place-dark" stroke="none" stroke-width="1" fill="none" fill-rule="evenodd">
        <g id="编组" transform="translate(1.000000, 1.000000)">
            <circle id="椭圆形" stroke="#C5CFE0" transform="translate(7.000000, 7.000000) scale(1, -1) translate(-7.000000, -7.000000) " cx="7" cy="7" r="6.5"></circle>
            <path d="M7.29874799,0.00625999206 C7.913542,0.032073493 8.50783501,0.137183795 9.07166459,0.311628441 C6.27580284,1.21286783 4,3.96323285 4,7 C4,10.0367672 6.27580284,12.7871322 9.07114731,13.6894073 C8.50722321,13.8630055 7.91225225,13.9681545 7.29674662,13.9938238 C4.85245343,12.626071 3,10.0067457 3,7 C3,4.07075204 4.75819154,1.50921051 7.10892163,0.115353131 L7.29874799,0.00625999206 Z" id="路径" fill="#C5CFE0" fill-rule="nonzero"></path>
            <path d="M6.70193977,0.00644119472 C9.14686973,1.37297201 11,3.9927051 11,7 C11,10.0072949 9.14686973,12.627028 6.70193977,13.9935588 C6.08721897,13.9679585 5.4936362,13.8630763 4.9304292,13.689019 C7.72533961,12.7857513 10,10.0360048 10,7 C10,3.96363097 7.72479384,1.21358898 4.92995208,0.31094765 C5.43756075,0.154169689 5.97042744,0.0533590041 6.52073703,0.0161491946 L6.70193977,0.00644119472 Z" id="路径" fill="#C5CFE0" fill-rule="nonzero"></path>
            <rect id="矩形" stroke="#C5CFE0" fill="#C5CFE0" x="7" y="0.5" width="1" height="13" rx="0.5"></rect>
            <rect id="矩形" stroke="#C5CFE0" fill="#C5CFE0" transform="translate(7.000000, 7.000000) rotate(-270.000000) translate(-7.000000, -7.000000) " x="7" y="0.5" width="1" height="13" rx="0.5"></rect>
            <path d="M13.3977222,4.15507704 L13.2636753,4.19201435 C11.2643264,4.719193 9.16495622,5 7,5 C4.7867966,5 2.642135,4.70653767 0.602804477,4.1564023 C0.742512426,3.84018756 0.90531223,3.53756313 1.08862315,3.24925783 C2.97686789,3.73955787 4.95801919,4 7,4 C9.04171717,4 11.0226205,3.73962512 12.9113165,3.25026891 C13.0946878,3.53756313 13.2574876,3.84018756 13.3977222,4.15507704 Z" id="路径" fill="#C5CFE0" fill-rule="nonzero"></path>
            <path d="M13.3979855,9.91246576 L13.2639386,9.94940307 C11.2645898,10.4765817 9.16521954,10.7573887 7.00026332,10.7573887 C4.78705992,10.7573887 2.64239832,10.4639264 0.603067799,9.91379102 C0.742775749,9.59757628 0.905575552,9.29495185 1.08888647,9.00664655 C2.97713121,9.49694659 4.95828251,9.75738872 7.00026332,9.75738872 C9.04198049,9.75738872 11.0228838,9.49701384 12.9115798,9.00765763 C13.0949511,9.29495185 13.2577509,9.59757628 13.3979855,9.91246576 Z" id="路径" fill="#C5CFE0" fill-rule="nonzero" transform="translate(7.000527, 9.882018) scale(1, -1) translate(-7.000527, -9.882018) "></path>
        </g>
    </g>
</svg>