<?xml version="1.0" encoding="UTF-8"?>
<svg width="16px" height="16px" viewBox="0 0 16 16" version="1.1" xmlns="http://www.w3.org/2000/svg" xmlns:xlink="http://www.w3.org/1999/xlink">
    <title>ICON / mail-dark</title>
    <g id="ICON-/-mail-dark" stroke="none" stroke-width="1" fill="none" fill-rule="evenodd">
        <path d="M14,5.714 L14,10 C14,11.1045695 13.1045695,12 12,12 L4,12 C2.8954305,12 2,11.1045695 2,10 L2,5.715 L6.93598402,8.81603132 C7.53642305,9.19328835 8.28734218,9.22230812 8.91093199,8.90309063 L9.06401598,8.81603132 L14,5.714 Z M12,3 C12.9549997,3 13.7536647,3.66934844 13.9524484,4.56449879 L8.53200799,7.96929198 L8.42056718,8.02983941 C8.11596248,8.17111673 7.75709228,8.15093426 7.46799201,7.96929198 L7.46799201,7.96929198 L2.04799102,4.56252456 C2.24750991,3.66836446 3.04570251,3 4,3 L12,3 Z" id="形状结合" fill="#C5CFE0"></path>
    </g>
</svg>