<?xml version="1.0" encoding="UTF-8"?>
<svg width="16px" height="16px" viewBox="0 0 16 16" version="1.1" xmlns="http://www.w3.org/2000/svg" xmlns:xlink="http://www.w3.org/1999/xlink">
    <title>ICON / phone-dark</title>
    <g id="ICON-/-phone-dark" stroke="none" stroke-width="1" fill="none" fill-rule="evenodd">
        <path d="M6.75505064,15.5040466 C5.43538969,13.5767859 4.6631932,11.2445809 4.6631932,8.73201968 C4.6631932,6.21945852 5.43538969,3.8872535 6.75540642,1.95978091 C6.79266164,1.87420638 6.90695209,1.78579256 7.09827775,1.69453944 C7.38526624,1.55765977 8.76333468,1.33527043 9.31199134,1.25337842 C9.860648,1.17148642 10.3823171,1.48758291 10.4950315,2.02824353 C10.509026,2.09537116 10.5160789,2.1637602 10.5160789,2.23233107 L10.5160789,4.73201968 C10.5160789,5.28430443 10.0683636,5.73201968 9.51607888,5.73201968 L7.76133302,5.73201968 C7.43714756,5.73201968 7.14399802,5.92476601 7.01550802,6.22240091 L7.01550802,6.22240091 L7.01550802,6.22240091 C6.66342922,6.98593946 6.46704078,7.83604508 6.46704078,8.73201968 C6.46704078,9.62799429 6.66342922,10.4780999 7.01550802,11.2416385 C7.14502891,11.5074293 7.41480347,11.6760681 7.7104729,11.6760681 L9.51576917,11.6760681 L9.51576917,11.6760681 C10.028605,11.6760681 10.4512763,12.0621083 10.5090414,12.559447 L10.5157692,12.6760681 L10.5157692,15.1757567 C10.5157692,15.2443276 10.5087163,15.3127166 10.4947218,15.3798442 C10.3900584,15.8818862 9.92588139,16.2168755 9.42722123,16.1719241 L9.31168163,16.1547093 C7.99879638,15.9649514 7.26099508,15.8312083 7.09827775,15.7534802 C6.85420174,15.636888 6.84087011,15.5581587 6.75505064,15.5040466 Z" id="路径" fill="#C5CFE0" transform="translate(7.589636, 8.708252) rotate(-45.000000) translate(-7.589636, -8.708252) "></path>
    </g>
</svg>