<?xml version="1.0" encoding="UTF-8"?>
<svg width="16px" height="16px" viewBox="0 0 16 16" version="1.1" xmlns="http://www.w3.org/2000/svg" xmlns:xlink="http://www.w3.org/1999/xlink">
    <title>ICON / user</title>
    <g id="ICON-/-user" stroke="none" stroke-width="1" fill="none" fill-rule="evenodd">
        <g id="电话号码" fill="#000000" fill-rule="nonzero" opacity="0">
            <rect id="矩形" x="0" y="0" width="16" height="16"></rect>
        </g>
        <g id="编组" transform="translate(1.573900, 1.000000)" fill="#536076">
            <circle id="椭圆形" cx="6.20226314" cy="3" r="3"></circle>
            <path d="M6.42609969,7.5 C7.90752531,7.5 9.25216448,8.08568408 10.2410607,9.03816386 C11.2318364,9.99245387 11.8656597,11.314885 11.9219905,12.7853916 C11.9220977,13.0176476 11.8705503,13.2095121 11.7634611,13.3412433 L11.7634611,13.3412433 L2.57547668,13.5007614 C2.16126312,13.500884 1.78621342,13.3331018 1.51468645,13.0617355 C1.25108124,12.7982863 1.08504637,12.437209 1.07548358,12.0372918 C1.16276961,11.4805868 1.20127759,11.316654 1.23969047,11.1645094 C1.62152069,10.0856655 2.33046923,9.16166564 3.24706331,8.51123018 C4.14467617,7.87426421 5.24169836,7.5 6.42609969,7.5 Z" id="路径" stroke="#536076"></path>
        </g>
    </g>
</svg>