<svg xmlns="http://www.w3.org/2000/svg" xmlns:xlink="http://www.w3.org/1999/xlink" width="32" height="32" viewBox="0 0 32 32">
  <defs>
    <path id="sync_theme_32px-b" d="M12.5,7 C12.5,8.65685425 13.8431458,10 15.5,10 C17.1568542,10 18.5,8.65685425 18.5,7 L21.3452995,7 C22.0598306,7 22.7200847,7.38119785 23.0773503,8 L28,16.5262794 L24.5358984,18.5262794 L22.5,15 L22.5,26 L8.5,26 L8.5,15 L6.46410162,18.5262794 L3,16.5262794 L7.92264973,8 C8.27991532,7.38119785 8.94016936,7 9.65470054,7 L12.5,7 Z"/>
    <filter id="sync_theme_32px-a" width="116%" height="121.1%" x="-4%" y="-5.3%" filterUnits="objectBoundingBox">
      <feOffset dx="2" dy="2" in="SourceAlpha" result="shadowOffsetOuter1"/>
      <feComposite in="shadowOffsetOuter1" in2="SourceAlpha" operator="out" result="shadowOffsetOuter1"/>
      <feColorMatrix in="shadowOffsetOuter1" values="0 0 0 0 0   0 0 0 0 0.41176792   0 0 0 0 1  0 0 0 0.2 0"/>
    </filter>
  </defs>
  <g fill="none" fill-rule="evenodd">
    <use fill="#000" filter="url(#sync_theme_32px-a)" xlink:href="#sync_theme_32px-b"/>
    <path fill="#E1DFB6" stroke="#4F89CA" stroke-linejoin="square" stroke-width="1.091" d="M11.9962445,7.54545455 L9.65470054,7.54545455 C9.1350415,7.54545455 8.65485674,7.82268934 8.39502722,8.27272727 L3.74510477,16.3266292 L6.26445139,17.7811747 L9.04545455,12.9643359 L9.04545455,25.4545455 L21.9545455,25.4545455 L21.9545455,12.9643359 L24.7355486,17.7811747 L27.2548952,16.3266292 L22.6049728,8.27272727 C22.3451433,7.82268934 21.8649585,7.54545455 21.3452995,7.54545455 L19.0037555,7.54545455 C18.7413891,9.24459458 17.2726106,10.5454545 15.5,10.5454545 C13.7273894,10.5454545 12.2586109,9.24459458 11.9962445,7.54545455 Z"/>
    <rect width="3" height="1" x="16.5" y="14" fill="#4663FF"/>
  </g>
</svg>
