<?xml version="1.0" encoding="UTF-8"?>
<svg width="16px" height="16px" viewBox="0 0 16 16" version="1.1" xmlns="http://www.w3.org/2000/svg" xmlns:xlink="http://www.w3.org/1999/xlink">
    <title>ICON / wechat</title>
    <g id="ICON-/-wechat" stroke="none" stroke-width="1" fill="none" fill-rule="evenodd">
        <g id="Group" transform="translate(0.800000, 1.812500)" fill="#536076" fill-rule="nonzero">
            <path d="M5.26451613,0 C7.85213668,0 10.0037219,1.61836178 10.4458441,3.75118102 C10.3195184,3.74209873 10.192571,3.73770663 10.0645161,3.73770663 C7.40856291,3.73770663 5.22903224,5.62709001 5.22903224,7.99603467 C5.22903224,8.38802353 5.28870837,8.76688187 5.4003445,9.12622235 L5.26451613,9.12736812 L5.26451613,9.12736812 C4.62792947,9.12736812 4.01773255,9.02942148 3.45288571,8.84996443 C2.61818182,9.12736812 2.03890294,9.82022271 1.78064516,9.61633426 C1.64872777,9.47747334 1.8,8.78472137 1.77604508,7.98167685 C0.686712319,7.14556612 0,5.92414432 0,4.56368404 C0,2.04323095 2.35700415,0 5.26451613,0 Z M10.0645161,4.73770663 C10.2021219,4.73770663 10.3379367,4.74384997 10.4716188,4.75582261 L10.5290323,4.56368404 C10.5290323,5.36208844 10.2925226,6.11260678 9.87692407,6.76546222 L9.87912715,6.71687062 C9.87912715,6.1093574 9.38664036,5.61687063 8.77912715,5.61687063 C8.17161391,5.61687063 7.67912715,6.1093574 7.67912715,6.71687062 C7.67912715,7.32438386 8.1716139,7.81687063 8.77912715,7.81687063 C8.8476671,7.81687063 8.91474295,7.81060203 8.97981263,7.79860687 C8.28852987,8.39375509 7.40785413,8.82483515 6.42277209,9.01655871 C6.29657024,8.69386682 6.22903224,8.35102886 6.22903224,7.99603467 C6.22903224,6.21364481 7.9316261,4.73770663 10.0645161,4.73770663 Z M3.6919355,2.28184203 C3.27772192,2.28184203 2.94193548,2.61762847 2.94193548,3.03184203 C2.94193548,3.4460556 3.27772192,3.78184203 3.6919355,3.78184203 C4.10614905,3.78184203 4.44193548,3.4460556 4.44193548,3.03184203 C4.44193548,2.61762847 4.10614905,2.28184203 3.6919355,2.28184203 Z M7.09838709,2.28184203 C6.68417354,2.28184203 6.34838711,2.61762847 6.34838711,3.03184203 C6.34838711,3.4460556 6.68417354,3.78184203 7.09838709,3.78184203 C7.51260067,3.78184203 7.84838711,3.4460556 7.84838711,3.03184203 C7.84838711,2.61762847 7.51260067,2.28184203 7.09838709,2.28184203 Z" id="形状结合"></path>
            <path d="M10.0645161,4.23770663 C12.4589378,4.23770663 14.4,5.92036741 14.4,7.99603467 C14.4,9.10630956 13.8446267,10.1041381 12.9615651,10.7921455 C12.9272727,11.368463 13.0656588,12.0734433 12.9335863,12.1570407 C12.7209034,12.3249489 12.1090909,11.7543627 11.5564471,11.5259126 C11.0912791,11.6737008 10.588764,11.7543627 10.0645161,11.7543627 C7.67009451,11.7543627 5.72903224,10.0717019 5.72903224,7.99603467 C5.72903224,5.92036741 7.67009451,4.23770663 10.0645161,4.23770663 Z M8.77912715,6.11687063 C8.44775627,6.11687063 8.17912715,6.38549978 8.17912715,6.71687062 C8.17912715,7.04824148 8.44775627,7.31687063 8.77912715,7.31687063 C9.11049799,7.31687063 9.37912715,7.04824148 9.37912715,6.71687062 C9.37912715,6.38549978 9.11049799,6.11687063 8.77912715,6.11687063 Z M11.5844402,6.11687063 C11.2530694,6.11687063 10.9844402,6.38549978 10.9844402,6.71687062 C10.9844402,7.04824148 11.2530694,7.31687063 11.5844402,7.31687063 C11.9158111,7.31687063 12.1844402,7.04824148 12.1844402,6.71687062 C12.1844402,6.38549978 11.9158111,6.11687063 11.5844402,6.11687063 Z" id="形状结合"></path>
        </g>
    </g>
</svg>