<svg xmlns="http://www.w3.org/2000/svg" width="32" height="32" viewBox="0 0 32 32">
  <path fill="#29B2DC" fill-rule="evenodd" d="M16,5 C9.92525,5 5,9.92525 5,16 C5,22.07475 9.92525,27 16,27 C22.07475,27 27,22.07475 27,16 C27,9.92525 22.07475,5 16,5 Z M13.25,19.7455821 L13.25,12.2785178 C13.25,12.0023754 13.4738576,11.7785178 13.75,11.7785178 C13.8370581,11.7785178 13.9226075,11.8012487 13.9981837,11.8444615 L20.7185416,15.6870128 C20.9582643,15.8240809 21.0414822,16.1295301 20.9044141,16.3692528 C20.8580539,16.4503336 20.7899103,16.5168084 20.7077052,16.5611444 L13.9873473,20.1856574 C13.7443004,20.3167407 13.441008,20.2259762 13.3099247,19.9829293 C13.270592,19.910001 13.25,19.828441 13.25,19.7455821 Z"/>
</svg>
