<svg xmlns="http://www.w3.org/2000/svg" width="32" height="32" viewBox="0 0 32 32">
  <g fill="#29B2DC" fill-rule="evenodd" transform="translate(3 4)">
    <path d="M19.7104762,14.624628 L19.7104762,7.67004483 C19.7104762,7.30628576 19.4155912,7.01140076 19.0518321,7.01140076 C19.0092421,7.01140076 18.9667525,7.01553175 18.9249601,7.02373571 L12.0189331,8.37940573 C11.7110466,8.43984461 11.4885378,8.70907846 11.4871674,9.02283807 L11.44,19.8217792 L11.4361962,19.8195521 C11.3552044,21.4704761 9.99101217,22.7841284 8.32,22.7841284 C6.59687158,22.7841284 5.2,21.3872568 5.2,19.6641284 C5.2,17.9409999 6.59687158,16.5441284 8.32,16.5441284 C8.68466084,16.5441284 9.03470992,16.6066888 9.36,16.7216623 L9.36,6.48617307 C9.36,5.51877987 10.0604081,4.69363411 11.014952,4.53648597 L19.5430876,3.13248488 C20.61987,2.9552124 21.6364824,3.68440931 21.8137549,4.76119176 C21.8312225,4.86729281 21.84,4.97464268 21.84,5.08217198 L21.84,17.150795 L21.8077907,17.1341488 C21.8290147,17.2810785 21.84,17.4313205 21.84,17.5841284 C21.84,19.3072568 20.4431284,20.7041284 18.72,20.7041284 C16.9968716,20.7041284 15.6,19.3072568 15.6,17.5841284 C15.6,15.8609999 16.9968716,14.4641284 18.72,14.4641284 C19.0662254,14.4641284 19.399279,14.5205231 19.7104762,14.624628 Z" transform="rotate(25 13.52 12.952)"/>
    <path d="M6.24,10.4 C6.24,11.5487523 5.30875228,12.48 4.16,12.48 C3.01124772,12.48 2.08,11.5487523 2.08,10.4 C2.08,9.25124772 3.01124772,8.32 4.16,8.32 C4.53007936,8.32 4.87758489,8.41665007 5.17865235,8.58608598 L5.12623023,4.13176802 C5.11973093,3.57952151 5.56214646,3.12656854 6.11439296,3.12006925 C6.11831547,3.12002308 6.12223821,3.12 6.12616098,3.12 L8.86,3.12 C9.13614237,3.12 9.36,3.34385763 9.36,3.62 L9.36,4.7 C9.36,4.97614237 9.13614237,5.2 8.86,5.2 L6.44,5.2 C6.32954305,5.2 6.24,5.28954305 6.24,5.4 L6.24,10.4 Z" transform="rotate(-21 5.72 7.8)"/>
  </g>
</svg>
