<?xml version="1.0" encoding="UTF-8"?>
<svg width="48px" height="48px" viewBox="0 0 48 48" version="1.1" xmlns="http://www.w3.org/2000/svg" xmlns:xlink="http://www.w3.org/1999/xlink">
    <title>icon/更新/系统</title>
    <defs>
        <filter x="-14.8%" y="-14.8%" width="129.5%" height="129.5%" filterUnits="objectBoundingBox" id="filter-1">
            <feOffset dx="0" dy="1" in="SourceAlpha" result="shadowOffsetOuter1"></feOffset>
            <feGaussianBlur stdDeviation="1" in="shadowOffsetOuter1" result="shadowBlurOuter1"></feGaussianBlur>
            <feColorMatrix values="0 0 0 0 0   0 0 0 0 0   0 0 0 0 0  0 0 0 0.2 0" type="matrix" in="shadowBlurOuter1" result="shadowMatrixOuter1"></feColorMatrix>
            <feMerge>
                <feMergeNode in="shadowMatrixOuter1"></feMergeNode>
                <feMergeNode in="SourceGraphic"></feMergeNode>
            </feMerge>
        </filter>
        <linearGradient x1="50%" y1="2.86790497%" x2="50%" y2="97.4517182%" id="linearGradient-2">
            <stop stop-color="#899196" offset="0%"></stop>
            <stop stop-color="#5D6468" offset="100%"></stop>
        </linearGradient>
        <linearGradient x1="50%" y1="19.7042628%" x2="50%" y2="87.5095116%" id="linearGradient-3">
            <stop stop-color="#A4A4A4" offset="0%"></stop>
            <stop stop-color="#878787" offset="100%"></stop>
        </linearGradient>
        <path d="M29.5955884,26.0286956 L28.204176,25.5657551 C27.8718541,26.1661959 27.4589393,26.7139439 26.9804092,27.1936387 L27.7166319,28.4502678 C27.5037604,28.642457 27.281378,28.8241402 27.0502834,28.9945071 L26.0282204,27.9966708 C25.4679921,28.3917315 24.8499276,28.7073466 24.1895885,28.9274275 L24.3154605,30.3390937 C24.0446569,30.4161925 23.7684431,30.4802721 23.4875252,30.5306221 L23.0028894,29.2105592 C22.6653702,29.2604551 22.3202246,29.2862655 21.9691756,29.2862655 C21.6181266,29.2862655 21.272981,29.2604551 20.9354618,29.2105592 L20.450826,30.5306221 C20.1699081,30.4802721 19.8936943,30.4161925 19.6228907,30.3390937 L19.7487628,28.9274275 C19.0884236,28.7073466 18.4703591,28.3917315 17.9101308,27.9966708 L16.8880678,28.9945071 C16.6569732,28.8241402 16.4345908,28.642457 16.2217193,28.4502678 L16.957942,27.1936387 C16.4794119,26.7139439 16.0664971,26.1661959 15.7341752,25.5657551 L14.3427628,26.0286956 C14.2070788,25.7701938 14.0839178,25.5039701 13.9740966,25.230847 L15.2136391,24.3949015 C15.001074,23.7768238 14.8674009,23.1208263 14.8248473,22.4395206 L13.3485054,22.2367229 C13.3441756,21.7484171 13.3515091,21.5404961 13.365935,21.3345512 L14.8562486,21.1291232 C14.9292648,20.4721115 15.0873397,19.8414534 15.3190093,19.2489433 L14.0863604,18.4189641 C14.210768,18.1370152 14.3495889,17.8629707 14.5018774,17.597783 L15.9093127,18.0654551 C16.2406753,17.5282299 16.6385027,17.0380741 17.0910323,16.6070634 L16.354459,15.3484545 C16.5895189,15.144766 16.8355704,14.953629 17.0915951,14.7760772 L18.1258842,15.7877371 C18.6365837,15.4547587 19.1914104,15.1861409 19.7794352,14.9931772 L19.6528785,13.5685625 C19.952093,13.4845608 20.2578614,13.4164388 20.5692355,13.3651501 L21.0603265,14.7028776 C21.357961,14.6643355 21.661298,14.6444832 21.9691756,14.6444832 C22.2770532,14.6444832 22.5803902,14.6643355 22.8780247,14.7028776 L23.3691157,13.3651501 C23.6804898,13.4164388 23.9862582,13.4845608 24.2854727,13.5685625 L24.1589161,14.9931772 C24.7469408,15.1861409 25.3017675,15.4547587 25.812467,15.7877371 L26.8467561,14.7760772 C27.1027808,14.953629 27.3488323,15.144766 27.5838922,15.3484545 L26.8473189,16.6070634 C27.2998485,17.0380741 27.6976759,17.5282299 28.0290385,18.0654551 L29.4364738,17.597783 C29.5887623,17.8629707 29.7275832,18.1370152 29.8519908,18.4189641 L28.6193419,19.2489433 C28.8510338,19.8415103 29.0091168,20.4722326 29.0821237,21.1293125 L30.5723601,21.3337508 C30.5868231,21.5399573 30.5941756,21.7481455 30.5941756,21.9580671 L29.1135039,22.4395206 C29.0709459,23.1208961 28.9372498,23.7769582 28.7246468,24.3950914 L29.9645726,25.230056 C29.8546712,25.5034561 29.7314034,25.7699443 29.5955884,26.0286956 Z M27.2941756,21.9580671 C27.2941756,20.4755511 26.698436,19.133535 25.7357185,18.1620493 C24.7717761,17.1893274 23.4400198,16.5879834 21.9691756,16.5879834 C20.4983314,16.5879834 19.1665751,17.1893274 18.2026327,18.1620493 C17.2399152,19.133535 16.6441756,20.4755511 16.6441756,21.9580671 C16.6441756,23.4405832 17.2399152,24.7825994 18.2026327,25.754085 C19.1665751,26.7268069 20.4983314,27.3281509 21.9691756,27.3281509 C23.4400198,27.3281509 24.7717761,26.7268069 25.7357185,25.754085 C26.698436,24.7825994 27.2941756,23.4405832 27.2941756,21.9580671 Z" id="path-4"></path>
        <filter x="-31.2%" y="-25.7%" width="162.3%" height="163.1%" filterUnits="objectBoundingBox" id="filter-5">
            <feMorphology radius="0.375" operator="dilate" in="SourceAlpha" result="shadowSpreadOuter1"></feMorphology>
            <feOffset dx="0" dy="1" in="shadowSpreadOuter1" result="shadowOffsetOuter1"></feOffset>
            <feGaussianBlur stdDeviation="1.5" in="shadowOffsetOuter1" result="shadowBlurOuter1"></feGaussianBlur>
            <feComposite in="shadowBlurOuter1" in2="SourceAlpha" operator="out" result="shadowBlurOuter1"></feComposite>
            <feColorMatrix values="0 0 0 0 0   0 0 0 0 0   0 0 0 0 0  0 0 0 0.109371585 0" type="matrix" in="shadowBlurOuter1"></feColorMatrix>
        </filter>
        <linearGradient x1="39.981653%" y1="9.02968989%" x2="50%" y2="93.8552598%" id="linearGradient-6">
            <stop stop-color="#FFFFFF" offset="0%"></stop>
            <stop stop-color="#EDEDED" offset="100%"></stop>
        </linearGradient>
        <linearGradient x1="50%" y1="0%" x2="50%" y2="98.6750422%" id="linearGradient-7">
            <stop stop-color="#ECECEC" offset="0%"></stop>
            <stop stop-color="#D2D2D2" offset="100%"></stop>
        </linearGradient>
    </defs>
    <g id="icon/更新/系统" stroke="none" stroke-width="1" fill="none" fill-rule="evenodd">
        <g id="dde" filter="url(#filter-1)" transform="translate(2.000000, 2.000000)">
            <circle id="path-3" stroke-opacity="0.108075762" stroke="#000000" fill="url(#linearGradient-2)" fill-rule="nonzero" cx="22" cy="22" r="21.5"></circle>
            <g id="形状">
                <use fill="black" fill-opacity="1" filter="url(#filter-5)" xlink:href="#path-4"></use>
                <use stroke-opacity="0.435538339" stroke="#656565" stroke-width="0.75" fill="url(#linearGradient-3)" fill-rule="evenodd" xlink:href="#path-4"></use>
            </g>
            <path d="M21.9782811,26.3647348 C20.7766999,26.3647348 19.6888723,25.8779577 18.90144,25.0909454 C18.1140077,24.3039331 17.6269707,23.2166858 17.6269707,22.0157455 C17.6269707,20.8148054 18.1140077,19.7275581 18.90144,18.9405458 C19.6888723,18.1535335 20.7766999,17.6667562 21.9782811,17.6667562 C23.1798623,17.6667562 24.2676899,18.1535335 25.0551223,18.9405458 C25.8425545,19.7275581 26.3295916,20.8148054 26.3295916,22.0157455 C26.3295916,23.2166858 25.8425545,24.3039331 25.0551223,25.0909454 C24.2676899,25.8779577 23.1798623,26.3647348 21.9782811,26.3647348 Z M18.8030006,22.0157455 C18.8030006,22.8921074 19.1584059,23.6855041 19.7330187,24.2598103 C20.3076315,24.8341166 21.1014516,25.1893323 21.9782811,25.1893323 C22.8551106,25.1893323 23.6489308,24.8341166 24.2235436,24.2598103 C24.7981563,23.6855041 25.1535617,22.8921074 25.1535617,22.0157455 C25.1535617,21.1393838 24.7981563,20.3459871 24.2235436,19.7716808 C23.6489308,19.1973746 22.8551106,18.8421588 21.9782811,18.8421588 C21.1014516,18.8421588 20.3076315,19.1973746 19.7330187,19.7716808 C19.1584059,20.3459871 18.8030006,21.1393838 18.8030006,22.0157455 Z M17.5810971,39.2839568 C17.4315211,39.2485627 17.3068444,39.1602646 17.2237229,39.0426337 L17.3561826,36.4186183 C17.3858489,36.1464185 17.3295283,35.8792889 17.2046598,35.6493436 C17.0797912,35.4193983 16.8863749,35.2266371 16.6418496,35.1031745 L15.062788,34.3058938 C14.8074702,34.1769818 14.5251043,34.1379566 14.256428,34.1821217 C13.9877515,34.2262868 13.7327646,34.3536422 13.5322046,34.5574915 L12.0632351,36.0505529 C11.9519352,36.1636781 11.8065093,36.2246243 11.6584577,36.2318534 C11.5104062,36.2390824 11.3597289,36.1925944 11.2379262,36.0908511 L10.5442177,35.5113877 C10.4281979,35.4144749 10.3565075,35.2823738 10.3335982,35.1423028 C10.3106889,35.0022317 10.3365607,34.8541907 10.4156653,34.7253985 L11.5855716,32.8206437 C11.7269602,32.5904453 11.7906814,32.3287347 11.7784057,32.0706347 C11.7661301,31.8125347 11.6778576,31.5580454 11.5152588,31.3422897 L10.47189,29.9578229 C10.2990697,29.7285041 10.0617806,29.5685198 9.80002676,29.4898871 C9.53827293,29.4112546 9.2520544,29.4139739 8.98137524,29.5100625 L7.04017285,30.1991713 C6.89075465,30.2522133 6.73347243,30.2435551 6.59724953,30.1855189 C6.46102662,30.1274828 6.34586303,30.0200688 6.28068209,29.8755994 L5.88669446,29.0023507 C5.82464805,28.8648288 5.81764538,28.7149693 5.85789158,28.5790896 C5.89813777,28.4432098 5.98563283,28.3213098 6.11258187,28.2397066 L7.97264311,27.0440549 C8.19983319,26.8980165 8.37078319,26.689969 8.47176443,26.4522331 C8.57274567,26.2144972 8.60375816,25.9470729 8.55107324,25.682281 L8.22666222,24.0518069 C8.17101674,23.7721354 8.0283181,23.5263534 7.82868518,23.3422384 C7.62905225,23.1581235 7.37248504,23.0356756 7.08910242,23.0026725 L4.90528881,22.7483426 L4.5,21.0820766 C4.51570882,20.9506642 4.57321374,20.8317239 4.65930588,20.739418 C4.75506996,20.636742 4.88620529,20.567021 5.03453231,20.5497467 L7.20958806,20.2964368 C7.48190902,20.2647219 7.73009375,20.1502294 7.92665145,19.9771643 C8.12320915,19.8040992 8.26813981,19.5724615 8.33395265,19.3064564 L8.70698535,17.7987168 C8.77449396,17.5258576 8.75145109,17.2466472 8.65239814,16.9976408 C8.55334518,16.7486344 8.37828215,16.5298321 8.14175044,16.3777889 L6.36438314,15.235293 C6.23389784,15.1514168 6.14535769,15.0252407 6.10665356,14.8852962 C6.06794943,14.7453519 6.07908132,14.5916391 6.14794014,14.4526894 L6.60543518,13.529514 C6.6739357,13.3912873 6.78873028,13.2895704 6.92275823,13.235317 C7.0567862,13.1810636 7.21004753,13.1742738 7.35548154,13.2259015 L9.37849531,13.9440526 C9.64070563,14.0371348 9.91803296,14.042693 10.1736955,13.9710362 C10.429358,13.8993794 10.6633557,13.7505077 10.8389068,13.5347303 L11.7410321,12.4258889 C11.9171749,12.2093842 12.0153117,11.9490927 12.0328964,11.6834741 C12.0504812,11.4178555 11.9875139,11.1469099 11.8414483,10.9090969 L10.7108724,9.06837697 C10.6302344,8.93708818 10.6049944,8.7860448 10.6300964,8.64388086 C10.6551983,8.50171692 10.7306423,8.36843244 10.8513725,8.27266144 L11.6609887,7.630421 C11.7830132,7.53362323 11.9317388,7.49061902 12.0772657,7.49956943 C12.2227925,7.50851983 12.3651206,7.56942486 12.4743498,7.68044554 L13.9810042,9.21180985 C14.1779815,9.41201769 14.4277139,9.53862446 14.6915456,9.58485641 C14.9553772,9.63108837 15.2333083,9.59694552 15.486683,9.4756541 L16.6907356,8.89926954 C16.9424007,8.77879648 17.1423187,8.58550057 17.2717661,8.3530096 C17.4012135,8.12051861 17.4601904,7.84883254 17.4299732,7.57157914 L17.1935762,5.4025496 C17.1768147,5.24875711 17.2190683,5.10090274 17.3032484,4.98293434 C17.3874283,4.86496595 17.5135347,4.77688351 17.6644788,4.74263484 L18.666828,4.51520544 C18.8184531,4.48080223 18.9708765,4.50620965 19.0980615,4.57694688 C19.2252465,4.64768411 19.3271934,4.76375115 19.3778656,4.91066718 L20.0717301,6.9224193 C20.1670718,7.19885889 20.3480537,7.42719082 20.5782502,7.58279383 C20.8084466,7.73839683 21.0878577,7.82127086 21.3800575,7.80679426 C21.62085,7.79486455 21.8202692,7.78880966 21.9783184,7.78880966 C22.1363661,7.78880966 22.3357829,7.79486444 22.5765682,7.80679371 C22.8687676,7.82127386 23.1481787,7.73840214 23.3783762,7.58280082 C23.6085738,7.42719949 23.7895578,7.19886845 23.884903,6.92243003 L24.5787711,4.91066718 C24.6294433,4.76375115 24.7313901,4.64768411 24.8585752,4.57694688 C24.9857603,4.50620965 25.1381836,4.48080223 25.2898087,4.51520544 L26.2921579,4.74263484 C26.443102,4.77688351 26.5692084,4.86496595 26.6533884,4.98293434 C26.7375683,5.10090274 26.779822,5.24875711 26.7630605,5.4025496 L26.5266635,7.57157914 C26.4964463,7.84883254 26.5554232,8.12051861 26.6848705,8.3530096 C26.8143179,8.58550057 27.014236,8.77879648 27.2659011,8.89926954 L28.4699537,9.4756541 C28.7233284,9.59694552 29.0012595,9.63108837 29.2650911,9.58485641 C29.5289228,9.53862446 29.7786552,9.41201769 29.9756325,9.21180985 L31.4822869,7.68044554 C31.5915162,7.56942486 31.7338442,7.50851983 31.879371,7.49956943 C32.0248979,7.49061902 32.1736235,7.53362323 32.295648,7.630421 L33.1052643,8.27266144 C33.2259943,8.36843244 33.3014384,8.50171692 33.3265403,8.64388086 C33.3516423,8.7860448 33.3264023,8.93708818 33.2457643,9.06837697 L32.1151883,10.9090969 C31.9691229,11.1469099 31.9061555,11.4178555 31.9237403,11.6834741 C31.941325,11.9490927 32.0394618,12.2093842 32.2156045,12.4258889 L33.1177299,13.5347303 C33.293281,13.7505077 33.5272787,13.8993794 33.7829412,13.9710362 C34.0386038,14.042693 34.3159311,14.0371348 34.5781413,13.9440526 L36.6011551,13.2259015 C36.7465892,13.1742738 36.8998505,13.1810636 37.0338785,13.235317 C37.1679064,13.2895704 37.282701,13.3912873 37.3512015,13.529514 L37.8086965,14.4526894 C37.8775553,14.5916391 37.8886873,14.7453519 37.8499832,14.8852962 C37.811279,15.0252407 37.7227388,15.1514168 37.5922535,15.235293 L35.8148862,16.3777889 C35.5783545,16.5298321 35.4032915,16.7486344 35.3042385,16.9976408 C35.2051856,17.2466472 35.1821427,17.5258576 35.2496514,17.7987168 L35.6226841,19.3064564 C35.6884969,19.5724615 35.8334276,19.8040992 36.0299853,19.9771643 C36.2265429,20.1502294 36.4747277,20.2647219 36.7470487,20.2964368 L38.9221044,20.5497467 C39.0704314,20.567021 39.2015667,20.636742 39.2973308,20.739418 C39.3930949,20.8420939 39.4534877,20.9777248 39.4603298,21.126819 L39.5,21.9912666 C39.4923854,22.289785 39.4603305,22.4945932 39.3962168,22.6289001 C39.3710491,22.6816217 39.3404752,22.7146704 39.295317,22.7199297 L36.8675343,23.0026725 C36.5841517,23.0356756 36.3275844,23.1581235 36.1279515,23.3422384 C35.9283186,23.5263534 35.7856199,23.7721354 35.7299745,24.0518069 L35.4055635,25.682281 C35.3528786,25.9470729 35.383891,26.2144972 35.4848723,26.4522331 C35.5858536,26.689969 35.7568035,26.8980165 35.9839936,27.0440549 L37.8440549,28.2397066 C37.9710039,28.3213098 38.0584989,28.4432098 38.0987451,28.5790896 C38.1389913,28.7149693 38.1319886,28.8648288 38.0699423,29.0023507 L37.6759546,29.8755994 C37.6107736,30.0200688 37.4956101,30.1274828 37.3593872,30.1855189 C37.2231643,30.2435551 37.065882,30.2522133 36.9164639,30.1991713 L34.9752615,29.5100625 C34.7045823,29.4139739 34.4183638,29.4112546 34.1566099,29.4898871 C33.8948561,29.5685198 33.657567,29.7285041 33.4847467,29.9578229 L32.4413779,31.3422897 C32.2787791,31.5580454 32.1905066,31.8125347 32.178231,32.0706347 C32.1659553,32.3287347 32.2296764,32.5904453 32.3710651,32.8206437 L33.5409714,34.7253985 C33.620076,34.8541907 33.6459477,35.0022317 33.6230385,35.1423028 C33.6001291,35.2823738 33.5284387,35.4144749 33.4124191,35.5113877 L32.7187105,36.0908511 C32.5969078,36.1925944 32.4462305,36.2390824 32.298179,36.2318534 C32.1501273,36.2246243 32.0047015,36.1636781 31.8934016,36.0505529 L30.4244321,34.5574915 C30.2238721,34.3536422 29.9688851,34.2262868 29.7002087,34.1821217 C29.4315324,34.1379566 29.1491665,34.1769818 28.8938487,34.3058938 L27.3147871,35.1031745 C27.0702619,35.2266371 26.8768455,35.4193983 26.7519769,35.6493436 C26.6271084,35.8792889 26.5707877,36.1464185 26.6004541,36.4186183 L26.8409563,38.6253134 C26.8576015,38.7780389 26.8160352,38.9250027 26.7329138,39.0426337 C26.6497923,39.1602646 26.5251155,39.2485627 26.3755396,39.2839568 L25.532194,39.483517 C25.3798454,39.5195672 25.2262261,39.4949864 25.0979381,39.4244097 C24.9696502,39.3538331 24.8666936,39.2372604 24.8156705,39.0893267 L24.1232169,37.0816656 C24.027402,36.8038651 23.8451501,36.5747329 23.6134649,36.4191222 C23.3817797,36.2635115 23.1006612,36.1814224 22.8071132,36.1977083 L22.0304894,36.2407952 L21.1495236,36.1977083 C20.8559755,36.1814224 20.574857,36.2635115 20.3431718,36.4191222 C20.1114865,36.5747329 19.9292347,36.8038651 19.8334197,37.0816656 L19.1409662,39.0893267 C19.0899431,39.2372604 18.9869865,39.3538331 18.8586986,39.4244097 C18.7304106,39.4949864 18.5767913,39.5195672 18.4244427,39.483517 L17.5810971,39.2839568 Z M11.2764096,22.0157455 C11.2764096,24.9693739 12.4732126,27.6433684 14.4081385,29.5789651 C16.3431766,31.5146742 19.0164143,32.7119084 21.9691756,32.7119084 C24.9219369,32.7119084 27.5951746,31.5146742 29.5302127,29.5789651 C31.4651385,27.6433684 32.6619416,24.9693739 32.6619416,22.0157455 C32.6619416,19.0621173 31.4651385,16.3881227 29.5302127,14.452526 C27.5951746,12.516817 24.9219369,11.3195827 21.9691756,11.3195827 C19.0164143,11.3195827 16.3431766,12.516817 14.4081385,14.452526 C12.4732126,16.3881227 11.2764096,19.0621173 11.2764096,22.0157455 Z" id="Combined-Shape" stroke="url(#linearGradient-7)" stroke-width="0.7125" fill="url(#linearGradient-6)" fill-rule="nonzero"></path>
        </g>
    </g>
</svg>