<?xml version="1.0" encoding="UTF-8"?>
<svg width="48px" height="48px" viewBox="0 0 48 48" version="1.1" xmlns="http://www.w3.org/2000/svg" xmlns:xlink="http://www.w3.org/1999/xlink">
    <title>icon/更新/应用</title>
    <defs>
        <filter x="-20.8%" y="-20.8%" width="141.7%" height="141.7%" filterUnits="objectBoundingBox" id="filter-1">
            <feOffset dx="0" dy="1" in="SourceAlpha" result="shadowOffsetOuter1"></feOffset>
            <feGaussianBlur stdDeviation="1" in="shadowOffsetOuter1" result="shadowBlurOuter1"></feGaussianBlur>
            <feColorMatrix values="0 0 0 0 0   0 0 0 0 0   0 0 0 0 0  0 0 0 0.2 0" type="matrix" in="shadowBlurOuter1" result="shadowMatrixOuter1"></feColorMatrix>
            <feMerge>
                <feMergeNode in="shadowMatrixOuter1"></feMergeNode>
                <feMergeNode in="SourceGraphic"></feMergeNode>
            </feMerge>
        </filter>
        <radialGradient cx="50%" cy="0.215799825%" fx="50%" fy="0.215799825%" r="99.7842002%" id="radialGradient-2">
            <stop stop-color="#FF9D3C" offset="0.0693154502%"></stop>
            <stop stop-color="#F85E19" offset="100%"></stop>
        </radialGradient>
        <linearGradient x1="50%" y1="2.48456947%" x2="50%" y2="97.0582537%" id="linearGradient-3">
            <stop stop-color="#FF7C2E" offset="0%"></stop>
            <stop stop-color="#E65C20" offset="100%"></stop>
        </linearGradient>
        <linearGradient x1="50%" y1="0%" x2="50%" y2="100%" id="linearGradient-4">
            <stop stop-color="#FF8800" offset="0%"></stop>
            <stop stop-color="#FF3F00" offset="100%"></stop>
        </linearGradient>
        <linearGradient x1="50%" y1="12.87256%" x2="50%" y2="100%" id="linearGradient-5">
            <stop stop-color="#F8F8F8" offset="0%"></stop>
            <stop stop-color="#FFE4C5" offset="100%"></stop>
        </linearGradient>
    </defs>
    <g id="icon/更新/应用" stroke="none" stroke-width="1" fill="none" fill-rule="evenodd">
        <g id="编组-2" transform="translate(6.000000, 6.000000)" fill-rule="nonzero">
            <g id="编组" filter="url(#filter-1)">
                <path d="M31,-0.5 C32.5187831,-0.5 33.8937831,0.115608469 34.8890873,1.1109127 C35.8843915,2.10621694 36.5,3.48121694 36.5,5 L36.5,5 L36.5,31 C36.5,32.5187831 35.8843915,33.8937831 34.8890873,34.8890873 C33.8937831,35.8843915 32.5187831,36.5 31,36.5 L31,36.5 L5,36.5 C3.48121694,36.5 2.10621694,35.8843915 1.1109127,34.8890873 C0.115608469,33.8937831 -0.5,32.5187831 -0.5,31 L-0.5,31 L-0.5,5 C-0.5,3.48121694 0.115608469,2.10621694 1.1109127,1.1109127 C2.10621694,0.115608469 3.48121694,-0.5 5,-0.5 L5,-0.5 Z" id="Rectangle" stroke="url(#linearGradient-3)" fill="url(#radialGradient-2)"></path>
                <path d="M32,7.14429822e-12 L32,36 L26,36 L26,7.14429822e-12 L32,7.14429822e-12 Z M21,7.14429822e-12 L21,36 L15,36 L15,7.14429822e-12 L21,7.14429822e-12 Z M10,7.14429822e-12 L10,36 L4,36 L4,7.14429822e-12 L10,7.14429822e-12 Z" id="形状结合" fill="url(#linearGradient-4)" opacity="0.793526786"></path>
            </g>
            <path d="M14.654504,8 C15.0239453,8 15.340935,8.1277081 15.6054732,8.38312429 C15.8700114,8.63854048 16,8.95096921 16,9.32269099 L16,14.654504 C16,15.0239453 15.8700114,15.340935 15.6054732,15.6054732 C15.340935,15.8700114 15.0262258,16 14.654504,16 L9.32269099,16 C8.95324971,16 8.64082098,15.8700114 8.38312429,15.6054732 C8.1277081,15.340935 8,15.0262258 8,14.654504 L8,9.32269099 C8,8.95324971 8.1277081,8.64082098 8.38312429,8.38312429 C8.63854048,8.1277081 8.95096921,8 9.32269099,8 L14.654504,8 L14.654504,8 Z" id="路径" fill="url(#linearGradient-5)" opacity="0.9"></path>
            <path d="M26.654504,8 C27.0239453,8 27.340935,8.1277081 27.6054732,8.38312429 C27.8700114,8.63854048 28,8.95096921 28,9.32269099 L28,14.654504 C28,15.0239453 27.8700114,15.340935 27.6054732,15.6054732 C27.340935,15.8700114 27.0262258,16 26.654504,16 L21.322691,16 C20.9532497,16 20.640821,15.8700114 20.3831243,15.6054732 C20.1277081,15.340935 20,15.0262258 20,14.654504 L20,9.32269099 C20,8.95324971 20.1277081,8.64082098 20.3831243,8.38312429 C20.6385405,8.1277081 20.9509692,8 21.322691,8 L26.654504,8 L26.654504,8 Z" id="路径备份" fill="url(#linearGradient-5)" opacity="0.9" transform="translate(24.000000, 12.000000) rotate(-45.000000) translate(-24.000000, -12.000000) "></path>
            <path d="M14.654504,20 C15.0239453,20 15.340935,20.1277081 15.6054732,20.3831243 C15.8700114,20.6385405 16,20.9509692 16,21.322691 L16,26.677309 C16,27.0467503 15.8700114,27.359179 15.6054732,27.6168757 C15.340935,27.8722919 15.0262258,28 14.654504,28 L9.32269099,28 C8.95324971,28 8.64082098,27.8722919 8.38312429,27.6168757 C8.12542759,27.3614595 8,27.0490308 8,26.677309 L8,21.322691 C8,20.9532497 8.1277081,20.640821 8.38312429,20.3831243 C8.63854048,20.1254276 8.95096921,20 9.32269099,20 L14.654504,20 Z" id="路径" fill="url(#linearGradient-5)" opacity="0.9"></path>
            <path d="M26.6769319,20 C27.0464785,20 27.3589963,20.1277081 27.6167665,20.3831243 C27.8722555,20.6385405 28,20.9509692 28,21.322691 L28,26.677309 C28,27.0467503 27.8722555,27.359179 27.6167665,27.6168757 C27.3612774,27.8722919 27.0487596,28 26.6769319,28 L21.3458797,28 C20.976333,28 20.6592529,27.8722919 20.3946393,27.6168757 C20.1300257,27.3614595 20,27.0490308 20,26.677309 L20,21.322691 C20,20.9532497 20.1300257,20.640821 20.3946393,20.3831243 C20.6592529,20.1277081 20.9740519,20 21.3458797,20 L26.6769319,20 L26.6769319,20 Z" id="路径" fill="url(#linearGradient-5)" opacity="0.9"></path>
        </g>
    </g>
</svg>