<svg xmlns="http://www.w3.org/2000/svg" width="96" height="96" viewBox="0 0 96 96">
  <g fill="none" fill-rule="evenodd">
    <path fill="#EBEBEB" d="M0,48 C0,21.4902857 21.4902857,0 48,0 C74.5097143,0 96,21.4902857 96,48 C96,74.5097143 74.5097143,96 48,96 C21.4902857,96 0,74.5097143 0,48 Z"/>
    <path fill="#FFF" fill-rule="nonzero" d="M48.5,4 C73.0764261,4 93,23.9243533 93,48.5009189 C93,73.077161 73.0767496,93 48.5,93 C23.9232504,93 4,73.077161 4,48.5009189 C4,23.9243533 23.9235739,4 48.5,4 Z M49.0705128,8.56410256 C46.7369616,8.56410256 44.4494932,8.76144552 42.2238854,9.14035263 C36.6820072,17.5741667 33.8222077,30.5341115 34.0594031,38.582794 C34.0594031,38.582794 33.6664463,50.9787917 41.9991899,55.3755943 C41.9991899,55.3755943 49.4876768,58.7238465 54.5909674,47.89712 C54.5909674,47.89712 58.0984072,41.7870928 56.6707214,27.978218 C56.6707214,27.978218 58.0366324,28.2234721 58.1910696,28.4438454 C58.3455067,28.6624415 61.2077423,39.0750795 59.1966272,47.8438039 C59.1966272,47.8438039 57.345097,58.1480325 48.2418836,60.5046049 C39.1421021,62.8611774 32.0500039,57.1599071 27.234996,51.7891967 C23.78754,47.9440637 18.7339244,37.8681242 16.0191386,25.6471464 C11.3244903,32.2604036 8.56410256,40.3436399 8.56410256,49.0714329 C8.56410256,55.1574251 9.90634088,60.929915 12.3109491,66.1090405 C21.1297382,68.7383535 44.177691,74.0715605 58.7975301,63.3568473 C68.3980143,56.3193933 67.1610255,45.0494237 67.1610255,45.0494237 C67.0020828,36.4767861 61.7828885,27.9615385 61.7828885,27.9615385 C82.0774516,46.3209718 70.0824613,66.7177517 70.0824613,66.7177517 C64.324421,78.478497 52.2988424,85.8684879 42.04383,88.9691034 C44.3261038,89.3688118 46.6740033,89.5769231 49.0705128,89.5769231 C71.4416638,89.5769231 89.5769231,71.4420757 89.5769231,49.0714329 C89.5769231,39.391093 86.1811205,30.5036805 80.5157916,23.5355604 C78.4838573,23.6821882 76.0989784,23.7708819 73.6213058,23.6895681 C73.6213058,23.6895681 62.8238039,24.1937937 56.7691992,27.2137065 C56.7691992,27.2137065 52.2541834,29.2269816 47.7410203,32.6404806 C47.7410203,32.6404806 46.7831774,33.1193136 46.8294948,34.8786621 C46.870254,36.6325694 45.9105584,41.3084463 42.7128082,44.0490398 C42.7128082,44.0490398 40.4302889,45.2225434 41.5715486,46.9020865 C41.5715486,46.9020865 43.1129902,49.140268 45.2843478,46.7896333 C45.2843478,46.7896333 50.8831897,41.0291271 51.2259381,31.7462962 C51.2259381,31.7462962 52.9971138,30.2336192 55.7946821,29.7874339 C55.7946821,29.7874339 56.309731,43.7134939 49.3991816,50.7055441 C49.3991816,50.7055441 42.8258226,57.8644604 40.7137512,47.2376323 C40.7137512,47.2376323 38.1422116,37.1132162 51.3982387,25.0897919 C51.3982387,25.0897919 60.3337829,16.1660858 65.586171,11.9871795 L65.5177698,12.0426905 C60.4917277,9.80673858 54.9262085,8.56410256 49.0705128,8.56410256 Z"/>
  </g>
</svg>
