<?xml version="1.0" encoding="iso-8859-1"?>
<!-- Generator: Adobe Illustrator 18.1.1, SVG Export Plug-In . SVG Version: 6.00 Build 0)  -->
<!DOCTYPE svg PUBLIC "-//W3C//DTD SVG 1.1//EN" "http://www.w3.org/Graphics/SVG/1.1/DTD/svg11.dtd" [
	<!ENTITY ns_extend "http://ns.adobe.com/Extensibility/1.0/">
	<!ENTITY ns_ai "http://ns.adobe.com/AdobeIllustrator/10.0/">
	<!ENTITY ns_graphs "http://ns.adobe.com/Graphs/1.0/">
	<!ENTITY ns_vars "http://ns.adobe.com/Variables/1.0/">
	<!ENTITY ns_imrep "http://ns.adobe.com/ImageReplacement/1.0/">
	<!ENTITY ns_sfw "http://ns.adobe.com/SaveForWeb/1.0/">
	<!ENTITY ns_custom "http://ns.adobe.com/GenericCustomNamespace/1.0/">
	<!ENTITY ns_adobe_xpath "http://ns.adobe.com/XPath/1.0/">
]>
<svg version="1.1" id="&#x56FE;&#x5C42;_1" xmlns:x="&ns_extend;" xmlns:i="&ns_ai;" xmlns:graph="&ns_graphs;"
	 xmlns="http://www.w3.org/2000/svg" xmlns:xlink="http://www.w3.org/1999/xlink" x="0px" y="0px" viewBox="0 0 24 24"
	 enable-background="new 0 0 24 24" xml:space="preserve">
<metadata>
	<sfw  xmlns="&ns_sfw;">
		<slices></slices>
		<sliceSourceBounds  width="921" height="16845" y="-8451" x="-57" bottomLeftOrigin="true"></sliceSourceBounds>
	</sfw>
</metadata>
<g>
	<polygon fill="#00BDFF" points="12,11.016 16.015,8.086 12,5.672 	"/>
	<polygon fill="#00BDFF" points="12,18.344 15.826,15.981 12,13.25 	"/>
	<path fill="#00BDFF" d="M12.096,0h-0.191C6.994,0,3,3.994,3,8.904v6.191C3,20.006,6.994,24,11.904,24h0.191
		C17.006,24,21,20.006,21,15.096V8.904C21,3.994,17.006,0,12.096,0z M17.761,8.433l-5.035,3.651l4.757,3.517
		c0.134,0.099,0.21,0.258,0.203,0.424c-0.008,0.166-0.097,0.317-0.237,0.404l-5.686,3.502c-0.081,0.05-0.172,0.074-0.263,0.074
		c-0.084,0-0.168-0.021-0.244-0.063C11.098,19.854,11,19.687,11,19.505v-6.169l-4.409,3.197c-0.222,0.161-0.477,0.04-0.64-0.184
		C5.788,16.125,5.777,15.74,6,15.578l4.79-3.506L5.859,8.453C5.637,8.289,5.654,7.968,5.816,7.745
		c0.2-0.276,0.516-0.385,0.736-0.224L11,10.809V4.511c0-0.18,0.096-0.345,0.252-0.435c0.156-0.089,0.348-0.087,0.502,0.004
		l5.967,3.518c0.146,0.086,0.237,0.238,0.245,0.407C17.975,8.173,17.896,8.334,17.761,8.433z"/>
</g>
</svg>
