<?xml version="1.0" encoding="iso-8859-1"?>
<!-- Generator: Adobe Illustrator 18.1.1, SVG Export Plug-In . SVG Version: 6.00 Build 0)  -->
<!DOCTYPE svg PUBLIC "-//W3C//DTD SVG 1.1//EN" "http://www.w3.org/Graphics/SVG/1.1/DTD/svg11.dtd" [
	<!ENTITY ns_extend "http://ns.adobe.com/Extensibility/1.0/">
	<!ENTITY ns_ai "http://ns.adobe.com/AdobeIllustrator/10.0/">
	<!ENTITY ns_graphs "http://ns.adobe.com/Graphs/1.0/">
	<!ENTITY ns_vars "http://ns.adobe.com/Variables/1.0/">
	<!ENTITY ns_imrep "http://ns.adobe.com/ImageReplacement/1.0/">
	<!ENTITY ns_sfw "http://ns.adobe.com/SaveForWeb/1.0/">
	<!ENTITY ns_custom "http://ns.adobe.com/GenericCustomNamespace/1.0/">
	<!ENTITY ns_adobe_xpath "http://ns.adobe.com/XPath/1.0/">
]>
<svg version="1.1" id="&#x56FE;&#x5C42;_1" xmlns:x="&ns_extend;" xmlns:i="&ns_ai;" xmlns:graph="&ns_graphs;"
	 xmlns="http://www.w3.org/2000/svg" xmlns:xlink="http://www.w3.org/1999/xlink" x="0px" y="0px" viewBox="0 0 24 24"
	 enable-background="new 0 0 24 24" xml:space="preserve">
<metadata>
	<sfw  xmlns="&ns_sfw;">
		<slices></slices>
		<sliceSourceBounds  width="921" height="16845" y="-8451" x="-57" bottomLeftOrigin="true"></sliceSourceBounds>
	</sfw>
</metadata>
<path fill="#00BDFF" d="M21.5,3h-19C1.673,3,1,3.673,1,4.5v12.96v0.04c0,0.355,0.129,0.677,0.336,0.934
	C1.577,18.763,1.928,19,2.34,19h0H2.5H8v2H5.5C5.224,21,5,21.224,5,21.5S5.224,22,5.5,22h13c0.276,0,0.5-0.224,0.5-0.5
	S18.776,21,18.5,21H16v-2h5.5h0.16h0c0.411,0,0.762-0.237,1.003-0.565C22.871,18.178,23,17.855,23,17.5v-0.04V4.5
	C23,3.673,22.327,3,21.5,3z M2.5,4h19C21.775,4,22,4.225,22,4.5V15H2V4.5C2,4.225,2.225,4,2.5,4z"/>
</svg>
