<?xml version="1.0" encoding="iso-8859-1"?>
<!-- Generator: Adobe Illustrator 18.1.1, SVG Export Plug-In . SVG Version: 6.00 Build 0)  -->
<!DOCTYPE svg PUBLIC "-//W3C//DTD SVG 1.1//EN" "http://www.w3.org/Graphics/SVG/1.1/DTD/svg11.dtd" [
	<!ENTITY ns_extend "http://ns.adobe.com/Extensibility/1.0/">
	<!ENTITY ns_ai "http://ns.adobe.com/AdobeIllustrator/10.0/">
	<!ENTITY ns_graphs "http://ns.adobe.com/Graphs/1.0/">
	<!ENTITY ns_vars "http://ns.adobe.com/Variables/1.0/">
	<!ENTITY ns_imrep "http://ns.adobe.com/ImageReplacement/1.0/">
	<!ENTITY ns_sfw "http://ns.adobe.com/SaveForWeb/1.0/">
	<!ENTITY ns_custom "http://ns.adobe.com/GenericCustomNamespace/1.0/">
	<!ENTITY ns_adobe_xpath "http://ns.adobe.com/XPath/1.0/">
]>
<svg version="1.1" id="&#x56FE;&#x5C42;_1" xmlns:x="&ns_extend;" xmlns:i="&ns_ai;" xmlns:graph="&ns_graphs;"
	 xmlns="http://www.w3.org/2000/svg" xmlns:xlink="http://www.w3.org/1999/xlink" x="0px" y="0px" viewBox="0 0 24 24"
	 enable-background="new 0 0 24 24" xml:space="preserve">
<metadata>
	<sfw  xmlns="&ns_sfw;">
		<slices></slices>
		<sliceSourceBounds  width="921" height="16845" y="-8451" x="-57" bottomLeftOrigin="true"></sliceSourceBounds>
	</sfw>
</metadata>
<g>
	<path fill="#00BDFF" d="M12.029,1c-6.065,0-11,4.935-11,11s4.935,11,11,11s11-4.935,11-11S18.095,1,12.029,1z M19.183,15.795
		c-0.141,0.363-0.4,0.664-0.731,0.861c0.102,0.911,0.14,1.877,0.124,2.884c-0.418,0.364-0.867,0.69-1.341,0.981
		c0.074-1.3,0.051-2.528-0.074-3.667c-0.246-0.059-0.469-0.172-0.661-0.323c-1.642,1.005-4.425,2.901-6.489,5.264
		c-0.469-0.096-0.92-0.236-1.363-0.396c2.082-2.555,4.946-4.593,6.797-5.752c-3.722-0.465-6.59-1.87-8.713-3.475
		c-0.209,0.089-0.439,0.139-0.681,0.139c-0.114,0-0.224-0.013-0.332-0.033c-1.216,2.046-1.805,3.942-2.082,5.143
		c-0.344-0.531-0.64-1.096-0.88-1.69c0.375-1.186,0.955-2.634,1.869-4.167c-0.196-0.281-0.313-0.622-0.313-0.991
		c0-0.177,0.034-0.344,0.083-0.505C3.744,9.371,3.222,8.706,2.811,8.124c0.193-0.458,0.429-0.892,0.685-1.312
		c0.396,0.614,0.961,1.396,1.736,2.239c0.245-0.132,0.521-0.214,0.82-0.214c0.167,0,0.325,0.031,0.477,0.075
		c1.011-1.182,2.251-2.337,3.77-3.373c-0.019-0.104-0.032-0.211-0.032-0.32c0-0.23,0.047-0.449,0.128-0.65
		C9.444,3.81,8.58,3.267,7.918,2.894c0.508-0.23,1.04-0.416,1.589-0.559c0.549,0.352,1.154,0.773,1.8,1.294
		c0.214-0.094,0.449-0.148,0.697-0.148c0.439,0,0.836,0.168,1.141,0.437c0.869-0.411,1.816-0.779,2.826-1.105
		c0.566,0.244,1.106,0.538,1.612,0.878c-1.42,0.38-2.704,0.851-3.856,1.396c0.003,0.044,0.013,0.087,0.013,0.132
		c0,0.213-0.044,0.415-0.114,0.604c1.698,1.878,3.304,4.386,4.209,7.637c0.599,0.094,1.099,0.488,1.33,1.029
		c0.831-0.041,1.705-0.14,2.611-0.284c-0.107,0.475-0.251,0.936-0.424,1.383C20.606,15.689,19.88,15.761,19.183,15.795z"/>
	<path fill="#00BDFF" d="M12.004,6.955c-0.371,0-0.714-0.119-0.996-0.317C9.623,7.589,8.487,8.643,7.557,9.721
		c0.144,0.253,0.232,0.541,0.232,0.853c0,0.233-0.048,0.454-0.131,0.657c2.033,1.499,4.776,2.803,8.355,3.176
		c0.127-0.259,0.314-0.482,0.547-0.648c-0.833-2.95-2.281-5.242-3.82-6.972C12.516,6.892,12.268,6.955,12.004,6.955z"/>
</g>
</svg>
