<?xml version="1.0" encoding="iso-8859-1"?>
<!-- Generator: Adobe Illustrator 18.1.1, SVG Export Plug-In . SVG Version: 6.00 Build 0)  -->
<!DOCTYPE svg PUBLIC "-//W3C//DTD SVG 1.1//EN" "http://www.w3.org/Graphics/SVG/1.1/DTD/svg11.dtd" [
	<!ENTITY ns_extend "http://ns.adobe.com/Extensibility/1.0/">
	<!ENTITY ns_ai "http://ns.adobe.com/AdobeIllustrator/10.0/">
	<!ENTITY ns_graphs "http://ns.adobe.com/Graphs/1.0/">
	<!ENTITY ns_vars "http://ns.adobe.com/Variables/1.0/">
	<!ENTITY ns_imrep "http://ns.adobe.com/ImageReplacement/1.0/">
	<!ENTITY ns_sfw "http://ns.adobe.com/SaveForWeb/1.0/">
	<!ENTITY ns_custom "http://ns.adobe.com/GenericCustomNamespace/1.0/">
	<!ENTITY ns_adobe_xpath "http://ns.adobe.com/XPath/1.0/">
]>
<svg version="1.1" id="&#x56FE;&#x5C42;_1" xmlns:x="&ns_extend;" xmlns:i="&ns_ai;" xmlns:graph="&ns_graphs;"
	 xmlns="http://www.w3.org/2000/svg" xmlns:xlink="http://www.w3.org/1999/xlink" x="0px" y="0px" viewBox="0 0 24 24"
	 enable-background="new 0 0 24 24" xml:space="preserve">
<metadata>
	<sfw  xmlns="&ns_sfw;">
		<slices></slices>
		<sliceSourceBounds  width="921" height="16845" y="-8451" x="-57" bottomLeftOrigin="true"></sliceSourceBounds>
	</sfw>
</metadata>
<path fill="#00BDFF" d="M22,10h-1V6.5C21,5.673,20.327,5,19.5,5h-17C1.673,5,1,5.673,1,6.5v12C1,19.327,1.673,20,2.5,20h17
	c0.827,0,1.5-0.673,1.5-1.5V15h1c0.552,0,1-0.448,1-1v-3C23,10.448,22.552,10,22,10z M18.912,15.433
	c-0.127,0.202-0.379,0.288-0.604,0.199l-5.701-2.224l-1.209,3.228c-0.058,0.155-0.189,0.271-0.351,0.311
	c-0.039,0.009-0.078,0.014-0.117,0.014c-0.123,0-0.244-0.046-0.337-0.131l-7.386-6.741C3.029,9.926,2.992,9.66,3.119,9.455
	c0.127-0.204,0.38-0.291,0.606-0.202l5.954,2.315l1.271-3.211c0.061-0.154,0.194-0.269,0.355-0.305
	c0.161-0.035,0.331,0.011,0.451,0.123l7.073,6.625C19.006,14.965,19.04,15.229,18.912,15.433z"/>
</svg>
