<?xml version="1.0" encoding="iso-8859-1"?>
<!-- Generator: Adobe Illustrator 18.1.1, SVG Export Plug-In . SVG Version: 6.00 Build 0)  -->
<!DOCTYPE svg PUBLIC "-//W3C//DTD SVG 1.1//EN" "http://www.w3.org/Graphics/SVG/1.1/DTD/svg11.dtd" [
	<!ENTITY ns_extend "http://ns.adobe.com/Extensibility/1.0/">
	<!ENTITY ns_ai "http://ns.adobe.com/AdobeIllustrator/10.0/">
	<!ENTITY ns_graphs "http://ns.adobe.com/Graphs/1.0/">
	<!ENTITY ns_vars "http://ns.adobe.com/Variables/1.0/">
	<!ENTITY ns_imrep "http://ns.adobe.com/ImageReplacement/1.0/">
	<!ENTITY ns_sfw "http://ns.adobe.com/SaveForWeb/1.0/">
	<!ENTITY ns_custom "http://ns.adobe.com/GenericCustomNamespace/1.0/">
	<!ENTITY ns_adobe_xpath "http://ns.adobe.com/XPath/1.0/">
]>
<svg version="1.1" id="&#x56FE;&#x5C42;_1" xmlns:x="&ns_extend;" xmlns:i="&ns_ai;" xmlns:graph="&ns_graphs;"
	 xmlns="http://www.w3.org/2000/svg" xmlns:xlink="http://www.w3.org/1999/xlink" x="0px" y="0px" viewBox="0 0 24 24"
	 enable-background="new 0 0 24 24" xml:space="preserve">
<metadata>
	<sfw  xmlns="&ns_sfw;">
		<slices></slices>
		<sliceSourceBounds  width="921" height="16845" y="-8451" x="-57" bottomLeftOrigin="true"></sliceSourceBounds>
	</sfw>
</metadata>
<g>
	<g>
		<g>
			<path fill="#00BDFF" d="M17,11c-3.309,0-6,2.691-6,6s2.691,6,6,6s6-2.691,6-6S20.309,11,17,11z M17.388,18.791l-2.565,1.712
				c-0.11,0.073-0.235,0.109-0.359,0.109c-0.21,0-0.416-0.102-0.542-0.29c-0.199-0.298-0.118-0.702,0.181-0.901l1.742-1.162
				l-1.735-1.123c-0.301-0.195-0.388-0.598-0.192-0.899c0.196-0.299,0.597-0.387,0.899-0.192l2.565,1.66
				c0.184,0.119,0.295,0.322,0.297,0.541C17.679,18.464,17.57,18.669,17.388,18.791z M20.112,17.775
				c-0.124,0.192-0.333,0.298-0.547,0.298c-0.12,0-0.243-0.034-0.352-0.104l-2.566-1.659c-0.185-0.119-0.296-0.322-0.298-0.541
				c-0.001-0.219,0.107-0.424,0.29-0.546l2.566-1.712c0.297-0.197,0.701-0.118,0.901,0.181c0.199,0.298,0.118,0.702-0.181,0.901
				l-1.743,1.162l1.735,1.122C20.221,17.072,20.308,17.475,20.112,17.775z"/>
		</g>
	</g>
	<g>
		<path fill="#00BDFF" d="M10,17c0-1.074,0.251-2.089,0.685-3H2V4.5C2,4.225,2.225,4,2.5,4h17C19.775,4,20,4.225,20,4.5v6.185
			c0.35,0.167,0.685,0.358,1,0.579V4.5C21,3.673,20.327,3,19.5,3h-17C1.673,3,1,3.673,1,4.5v10v2C1,17.327,1.673,18,2.5,18H8v2H5
			c-0.276,0-0.5,0.224-0.5,0.5S4.724,21,5,21h3h3.264C10.47,19.865,10,18.487,10,17z"/>
	</g>
</g>
</svg>
