<?xml version="1.0" encoding="iso-8859-1"?>
<!-- Generator: Adobe Illustrator 18.1.1, SVG Export Plug-In . SVG Version: 6.00 Build 0)  -->
<!DOCTYPE svg PUBLIC "-//W3C//DTD SVG 1.1//EN" "http://www.w3.org/Graphics/SVG/1.1/DTD/svg11.dtd" [
	<!ENTITY ns_extend "http://ns.adobe.com/Extensibility/1.0/">
	<!ENTITY ns_ai "http://ns.adobe.com/AdobeIllustrator/10.0/">
	<!ENTITY ns_graphs "http://ns.adobe.com/Graphs/1.0/">
	<!ENTITY ns_vars "http://ns.adobe.com/Variables/1.0/">
	<!ENTITY ns_imrep "http://ns.adobe.com/ImageReplacement/1.0/">
	<!ENTITY ns_sfw "http://ns.adobe.com/SaveForWeb/1.0/">
	<!ENTITY ns_custom "http://ns.adobe.com/GenericCustomNamespace/1.0/">
	<!ENTITY ns_adobe_xpath "http://ns.adobe.com/XPath/1.0/">
]>
<svg version="1.1" id="&#x56FE;&#x5C42;_1" xmlns:x="&ns_extend;" xmlns:i="&ns_ai;" xmlns:graph="&ns_graphs;"
	 xmlns="http://www.w3.org/2000/svg" xmlns:xlink="http://www.w3.org/1999/xlink" x="0px" y="0px" viewBox="0 0 24 24"
	 enable-background="new 0 0 24 24" xml:space="preserve">
<metadata>
	<sfw  xmlns="&ns_sfw;">
		<slices></slices>
		<sliceSourceBounds  width="921" height="16845" y="-8451" x="-57" bottomLeftOrigin="true"></sliceSourceBounds>
	</sfw>
</metadata>
<g>
	<g>
		<path fill="#00BDFF" d="M11.5,14c-0.276,0-0.5-0.224-0.5-0.5v-12C11,1.224,11.224,1,11.5,1S12,1.224,12,1.5v12
			C12,13.776,11.776,14,11.5,14z"/>
	</g>
	<g>
		<path fill="#00BDFF" d="M11.5,23.044c-5.79,0-10.5-4.71-10.5-10.5c0-4.571,3.054-8.7,7.427-10.041
			C8.688,2.419,8.971,2.57,9.051,2.834C9.132,3.098,8.983,3.378,8.72,3.458C4.764,4.672,2,8.408,2,12.544c0,5.238,4.262,9.5,9.5,9.5
			s9.5-4.262,9.5-9.5c0-4.133-2.76-7.868-6.712-9.084c-0.265-0.081-0.412-0.36-0.331-0.625c0.08-0.265,0.359-0.415,0.624-0.33
			C19.019,3.869,22,7.903,22,12.544C22,18.334,17.29,23.044,11.5,23.044z"/>
	</g>
</g>
</svg>
