<?xml version="1.0" encoding="iso-8859-1"?>
<!-- Generator: Adobe Illustrator 18.1.1, SVG Export Plug-In . SVG Version: 6.00 Build 0)  -->
<!DOCTYPE svg PUBLIC "-//W3C//DTD SVG 1.1//EN" "http://www.w3.org/Graphics/SVG/1.1/DTD/svg11.dtd" [
	<!ENTITY ns_extend "http://ns.adobe.com/Extensibility/1.0/">
	<!ENTITY ns_ai "http://ns.adobe.com/AdobeIllustrator/10.0/">
	<!ENTITY ns_graphs "http://ns.adobe.com/Graphs/1.0/">
	<!ENTITY ns_vars "http://ns.adobe.com/Variables/1.0/">
	<!ENTITY ns_imrep "http://ns.adobe.com/ImageReplacement/1.0/">
	<!ENTITY ns_sfw "http://ns.adobe.com/SaveForWeb/1.0/">
	<!ENTITY ns_custom "http://ns.adobe.com/GenericCustomNamespace/1.0/">
	<!ENTITY ns_adobe_xpath "http://ns.adobe.com/XPath/1.0/">
]>
<svg version="1.1" id="&#x56FE;&#x5C42;_1" xmlns:x="&ns_extend;" xmlns:i="&ns_ai;" xmlns:graph="&ns_graphs;"
	 xmlns="http://www.w3.org/2000/svg" xmlns:xlink="http://www.w3.org/1999/xlink" x="0px" y="0px" viewBox="0 0 24 24"
	 enable-background="new 0 0 24 24" xml:space="preserve">
<metadata>
	<sfw  xmlns="&ns_sfw;">
		<slices></slices>
		<sliceSourceBounds  width="921" height="16845" y="-8451" x="-57" bottomLeftOrigin="true"></sliceSourceBounds>
	</sfw>
</metadata>
<g>
	<path fill="#00BDFF" d="M22.5,6.061c-0.276,0-0.5,0.224-0.5,0.5V20.5c0,0.275-0.225,0.5-0.5,0.5h-19C2.225,21,2,20.775,2,20.5v-14
		C2,6.225,2.225,6,2.5,6h12.313c0.276,0,0.5-0.224,0.5-0.5S15.089,5,14.813,5H2.5C1.673,5,1,5.673,1,6.5v14
		C1,21.327,1.673,22,2.5,22h19c0.827,0,1.5-0.673,1.5-1.5V6.561C23,6.284,22.776,6.061,22.5,6.061z"/>
	<circle fill="#00BDFF" cx="3.873" cy="13.531" r="1"/>
	<polygon fill="#00BDFF" points="13.629,13.188 18.862,7.955 17.175,6.245 11.918,11.501 	"/>
	<polygon fill="#00BDFF" points="12.921,13.896 11.215,12.213 9.779,15.339 	"/>
	<path fill="#00BDFF" d="M6,7v13h15V7.938l-7.363,7.363l-5.718,2.559C7.5,18.047,7.071,17.619,7.257,17.2l2.532-5.691L14.298,7H6z"
		/>
	<path fill="#00BDFF" d="M22.254,4.563c0.331-0.331,0.471-1.232,0.002-1.701s-1.37-0.329-1.701,0.002l-2.673,2.673l1.687,1.711
		L22.254,4.563z"/>
</g>
</svg>
