<?xml version="1.0" encoding="UTF-8"?>
<svg width="24px" height="24px" viewBox="0 0 24 24" version="1.1" xmlns="http://www.w3.org/2000/svg" xmlns:xlink="http://www.w3.org/1999/xlink">
    <!-- Generator: Sketch 46.2 (44496) - http://www.bohemiancoding.com/sketch -->
    <title>nav_info</title>
    <desc>Created with Sketch.</desc>
    <defs></defs>
    <g id="UI" stroke="none" stroke-width="1" fill="none" fill-rule="evenodd">
        <g id="nav_info" fill="#FFFFFF">
            <path d="M12.5,8.245 C11.81,8.245 11.25,7.685 11.25,6.995 C11.25,6.305 11.81,5.745 12.5,5.745 C13.19,5.745 13.75,6.305 13.75,6.995 C13.75,7.685 13.19,8.245 12.5,8.245 L12.5,8.245 Z M13,18.5 C13,18.776 12.776,19 12.5,19 C12.224,19 12,18.776 12,18.5 L12,10.5 C12,10.223 12.224,10 12.5,10 C12.776,10 13,10.223 13,10.5 L13,18.5 Z M12.5,2 C6.71,2 2,6.71 2,12.5 C2,18.29 6.71,23 12.5,23 C18.29,23 23,18.29 23,12.5 C23,6.71 18.29,2 12.5,2 L12.5,2 Z" id="Fill-202"></path>
        </g>
    </g>
</svg>