<svg xmlns="http://www.w3.org/2000/svg" width="16" height="16" viewBox="0 0 16 16">
  <g fill="none" fill-rule="evenodd">
    <polygon points="0 16 16 16 16 0 0 0" opacity="0"/>
    <path stroke="#536076" stroke-linecap="round" stroke-width="1.2" d="M1.0269,6.579 C2.8119,4.678 5.2759,3.5 7.9929,3.5 C10.7109,3.5 13.1749,4.678 14.9589,6.579" opacity=".3"/>
    <path stroke="#536076" stroke-linecap="round" stroke-width="1.2" d="M3.0172 8.6991C4.2922 7.3411 6.0522 6.5001 7.9932 6.5001 9.9342 6.5001 11.6942 7.3411 12.9692 8.6991M5.0064 10.818C5.7704 10.004 6.8264 9.5 7.9934 9.5 9.1594 9.5 10.2154 10.004 10.9804 10.818"/>
    <path fill="#536076" d="M6.6614,12.5691 L8.0004,13.9961 L9.3374,12.5711 C9.3374,12.5711 9.3244,12.5651 9.3164,12.5561 C8.5834,11.7751 7.3254,11.8621 6.6614,12.5691"/>
  </g>
</svg>
