<?xml version="1.0" encoding="utf-8"?>
<!-- Generator: Adobe Illustrator 17.0.2, SVG Export Plug-In . SVG Version: 6.00 Build 0)  -->
<!DOCTYPE svg PUBLIC "-//W3C//DTD SVG 1.1//EN" "http://www.w3.org/Graphics/SVG/1.1/DTD/svg11.dtd">
<svg version="1.1" id="图层_1" xmlns="http://www.w3.org/2000/svg" xmlns:xlink="http://www.w3.org/1999/xlink" x="0px" y="0px"
	 width="32px" height="32px" viewBox="0 0 32 32" enable-background="new 0 0 32 32" xml:space="preserve">
<g>
	<path fill="none" stroke="#FFFFFF" stroke-width="2" stroke-linecap="round" stroke-linejoin="round" stroke-miterlimit="10" d="
		M29,26.424C29,27.847,27.847,29,26.424,29H5.576C4.153,29,3,27.847,3,26.424V5.576C3,4.153,4.153,3,5.576,3h20.849
		C27.847,3,29,4.153,29,5.576V26.424z"/>
	<path fill="none" stroke="#FFFFFF" stroke-width="2" stroke-linecap="round" stroke-linejoin="round" stroke-miterlimit="10" d="
		M8.71,7.02c0,0.237-0.192,0.429-0.429,0.429l0,0c-0.237,0-0.429-0.192-0.429-0.429l0,0c0-0.237,0.192-0.429,0.429-0.429l0,0
		C8.518,6.59,8.71,6.783,8.71,7.02L8.71,7.02z"/>
	<path fill="none" stroke="#FFFFFF" stroke-width="2" stroke-linecap="round" stroke-linejoin="round" stroke-miterlimit="10" d="
		M8.71,12.171c0,0.237-0.192,0.429-0.429,0.429l0,0c-0.237,0-0.429-0.192-0.429-0.429l0,0c0-0.237,0.192-0.429,0.429-0.429l0,0
		C8.518,11.742,8.71,11.934,8.71,12.171L8.71,12.171z"/>
	<path fill="none" stroke="#FFFFFF" stroke-width="2" stroke-linecap="round" stroke-linejoin="round" stroke-miterlimit="10" d="
		M8.71,17.323c0,0.237-0.192,0.429-0.429,0.429l0,0c-0.237,0-0.429-0.192-0.429-0.429l0,0c0-0.237,0.192-0.429,0.429-0.429l0,0
		C8.518,16.893,8.71,17.085,8.71,17.323L8.71,17.323z"/>
	
		<line fill="none" stroke="#FFFFFF" stroke-width="2" stroke-linecap="round" stroke-linejoin="round" stroke-miterlimit="10" x1="3" y1="23" x2="29" y2="23"/>
</g>
</svg>
