<?xml version="1.0" encoding="UTF-8"?>
<!DOCTYPE svg PUBLIC "-//W3C//DTD SVG 1.1//EN" "http://www.w3.org/Graphics/SVG/1.1/DTD/svg11.dtd">
<svg version="1.1" xmlns="http://www.w3.org/2000/svg" xmlns:xlink="http://www.w3.org/1999/xlink" x="0px" y="0px" width="32" height="32" viewBox="0, 0, 32, 32">
  <g id="Layer 1">
    <g>
      <path d="M12.06,16.018 C11.708,16.068 11.374,16.24 11.13,16.499 L8.927,18.696 C8.631,18.981 8.454,19.385 8.445,19.795 L8.445,21.992 C8.445,22.003 8.445,22.015 8.445,22.026 L4.323,26.095 C3.891,26.525 3.891,27.244 4.323,27.674 C4.755,28.104 5.475,28.104 5.907,27.674 L10.029,23.571 L12.232,23.571 C12.643,23.562 13.048,23.385 13.334,23.09 L15.537,20.893 C16.103,20.311 16.103,19.277 15.537,18.696 L13.334,16.499 C13.009,16.161 12.528,15.979 12.06,16.018 z" fill-opacity="0" stroke="#9D9D9E" stroke-width="2" stroke-linecap="round" stroke-linejoin="round" stroke-miterlimit="10"/>
      <path d="M19.94,15.982 C20.292,15.932 20.626,15.76 20.87,15.501 L23.073,13.304 C23.369,13.019 23.546,12.615 23.555,12.205 L23.555,10.008 C23.555,9.997 23.555,9.985 23.555,9.974 L27.677,5.905 C28.109,5.475 28.109,4.756 27.677,4.326 C27.245,3.896 26.525,3.896 26.093,4.326 L21.971,8.429 L19.768,8.429 C19.357,8.438 18.952,8.615 18.666,8.91 L16.463,11.107 C15.897,11.689 15.897,12.723 16.463,13.304 L18.666,15.501 C18.991,15.839 19.472,16.021 19.94,15.982 z" fill-opacity="0" stroke="#9D9D9E" stroke-width="2" stroke-linecap="round" stroke-linejoin="round" stroke-miterlimit="10"/>
    </g>
  </g>
  <defs/>
</svg>
