<?xml version="1.0" encoding="utf-8"?>
<!-- Generator: Adobe Illustrator 17.0.2, SVG Export Plug-In . SVG Version: 6.00 Build 0)  -->
<!DOCTYPE svg PUBLIC "-//W3C//DTD SVG 1.1//EN" "http://www.w3.org/Graphics/SVG/1.1/DTD/svg11.dtd">
<svg version="1.1"
	 id="svg3978" xmlns:cc="http://creativecommons.org/ns#" xmlns:rdf="http://www.w3.org/1999/02/22-rdf-syntax-ns#" xmlns:svg="http://www.w3.org/2000/svg" xmlns:dc="http://purl.org/dc/elements/1.1/"
	 xmlns="http://www.w3.org/2000/svg" xmlns:xlink="http://www.w3.org/1999/xlink" x="0px" y="0px" width="22px" height="22px"
	 viewBox="0 0 22 22" enable-background="new 0 0 22 22" xml:space="preserve">
<polygon fill="#3C3C3C" points="19.031,3 19,19 21.031,19 21.031,3 "/>
<g>
	<g opacity="0.4">
		<polygon points="15,9 15,20 17,20 17.031,9 		"/>
	</g>
	<g>
		<polygon fill="#DCDCDC" points="15,8 15,19 17,19 17.031,8 		"/>
	</g>
</g>
<g>
	<g opacity="0.4">
		<path d="M6.625,12H0.469L0,13l3,3v4h1v-4l3-3L6.625,12z M3,14.625L1.375,13H3V14.625z M4,14.625V13h1.625L4,14.625z"/>
	</g>
	<g>
		<path fill="#DCDCDC" d="M6.625,11H0.469L0,12l3,3v4h1v-4l3-3L6.625,11z M3,13.625L1.375,12H3V13.625z M4,13.625V12h1.625L4,13.625
			z"/>
	</g>
</g>
<g>
	<g opacity="0.4">
		<polygon points="11.031,13 11,20 13.062,20 13.062,13 		"/>
	</g>
	<g>
		<polygon fill="#DCDCDC" points="11.031,12 11,19 13.062,19 13.062,12 		"/>
	</g>
</g>
<g>
	<g opacity="0.4">
		<rect x="7" y="17" width="2.062" height="3"/>
	</g>
	<g>
		<rect x="7" y="16" fill="#DCDCDC" width="2.062" height="3"/>
	</g>
</g>
</svg>
