<?xml version="1.0" encoding="UTF-8" standalone="no"?>
<svg
   xmlns:dc="http://purl.org/dc/elements/1.1/"
   xmlns:cc="http://creativecommons.org/ns#"
   xmlns:rdf="http://www.w3.org/1999/02/22-rdf-syntax-ns#"
   xmlns:svg="http://www.w3.org/2000/svg"
   xmlns="http://www.w3.org/2000/svg"
   xmlns:sodipodi="http://sodipodi.sourceforge.net/DTD/sodipodi-0.dtd"
   xmlns:inkscape="http://www.inkscape.org/namespaces/inkscape"
   version="1.1"
   x="0px"
   y="0px"
   width="32"
   height="32"
   viewBox="0, 0, 32, 32"
   id="svg2"
   inkscape:version="0.48.4 r9939"
   sodipodi:docname="network_wire_hover.svg">
  <metadata
     id="metadata15">
    <rdf:RDF>
      <cc:Work
         rdf:about="">
        <dc:format>image/svg+xml</dc:format>
        <dc:type
           rdf:resource="http://purl.org/dc/dcmitype/StillImage" />
      </cc:Work>
    </rdf:RDF>
  </metadata>
  <sodipodi:namedview
     pagecolor="#ffffff"
     bordercolor="#666666"
     borderopacity="1"
     objecttolerance="10"
     gridtolerance="10"
     guidetolerance="10"
     inkscape:pageopacity="0"
     inkscape:pageshadow="2"
     inkscape:window-width="1366"
     inkscape:window-height="674"
     id="namedview13"
     showgrid="false"
     inkscape:zoom="7.375"
     inkscape:cx="-1.3706134"
     inkscape:cy="24.347292"
     inkscape:window-x="0"
     inkscape:window-y="0"
     inkscape:window-maximized="1"
     inkscape:current-layer="Layer 1" />
  <g
     id="Layer 1">
    <g
       id="g5"
       style="fill:#cccccc">
      <path
         d="M12.06,16.018 C11.708,16.068 11.374,16.24 11.13,16.499 L8.927,18.696 C8.631,18.981 8.454,19.385 8.445,19.795 L8.445,21.992 C8.445,22.003 8.445,22.015 8.445,22.026 L4.323,26.095 C3.891,26.525 3.891,27.244 4.323,27.674 C4.755,28.104 5.475,28.104 5.907,27.674 L10.029,23.571 L12.232,23.571 C12.643,23.562 13.048,23.385 13.334,23.09 L15.537,20.893 C16.103,20.311 16.103,19.277 15.537,18.696 L13.334,16.499 C13.009,16.161 12.528,15.979 12.06,16.018 z"
         stroke-miterlimit="10"
         id="path7"
         stroke-linejoin="round"
         stroke-linecap="round"
         stroke-width="2"
         stroke="#9D9D9E"
         fill-opacity="0"
         style="fill:#cccccc" />
      <path
         d="M19.94,15.982 C20.292,15.932 20.626,15.76 20.87,15.501 L23.073,13.304 C23.369,13.019 23.546,12.615 23.555,12.205 L23.555,10.008 C23.555,9.997 23.555,9.985 23.555,9.974 L27.677,5.905 C28.109,5.475 28.109,4.756 27.677,4.326 C27.245,3.896 26.525,3.896 26.093,4.326 L21.971,8.429 L19.768,8.429 C19.357,8.438 18.952,8.615 18.666,8.91 L16.463,11.107 C15.897,11.689 15.897,12.723 16.463,13.304 L18.666,15.501 C18.991,15.839 19.472,16.021 19.94,15.982 z"
         stroke-miterlimit="10"
         id="path9"
         stroke-linejoin="round"
         stroke-linecap="round"
         stroke-width="2"
         stroke="#9D9D9E"
         fill-opacity="0"
         style="fill:#cccccc" />
    </g>
    <path
       style="fill:#cccccc;fill-opacity:1;stroke:none"
       d="M 4.6088339,28.915921 C 3.849725,28.724588 3.2565332,28.116998 3.0750819,27.344941 2.9988619,27.020632 3.0267161,26.51688 3.1384311,26.199253 3.3008628,25.737429 3.4134514,25.611168 5.4985196,23.552569 l 1.9657454,-1.940792 0.013298,-1.127005 c 0.01498,-1.269508 0.022418,-1.314922 0.3067145,-1.872768 0.1297312,-0.254558 0.221498,-0.354989 1.496616,-1.637914 1.4267282,-1.435463 1.5978232,-1.582325 2.0558332,-1.764654 0.36118,-0.143782 0.623892,-0.186577 1.008028,-0.164208 0.489979,0.02853 0.898374,0.171975 1.328448,0.466593 0.102542,0.07024 0.774042,0.720252 1.492222,1.44446 1.409774,1.421604 1.473874,1.500337 1.651591,2.028604 0.0833,0.247621 0.09128,0.316845 0.09181,0.796611 6.71e-4,0.606332 -0.03135,0.748044 -0.279595,1.237288 -0.150753,0.297107 -0.18766,0.338177 -1.411348,1.570559 -0.691101,0.69601 -1.348066,1.3346 -1.459921,1.419087 -0.259114,0.195715 -0.588636,0.361609 -0.90439,0.455303 -0.224166,0.06652 -0.353808,0.07561 -1.340365,0.09401 l -1.092195,0.02037 -1.9931422,1.968996 c -1.0962278,1.082948 -2.0785914,2.025731 -2.18303,2.095075 -0.3130602,0.20786 -0.6289024,0.300976 -1.0631656,0.313441 -0.2505993,0.0072 -0.4384566,-0.0058 -0.5728433,-0.0397 l 0,0 z m 2.7188989,-4.0374 c 1.3650471,-1.349986 2.1837905,-2.135119 2.2800396,-2.186441 0.148359,-0.07911 0.165761,-0.08029 1.4383116,-0.09776 0.93358,-0.01282 1.316127,-0.02958 1.38983,-0.0609 0.136919,-0.05819 2.417747,-2.332758 2.477966,-2.471169 0.06781,-0.155859 0.05901,-0.40497 -0.02007,-0.568339 -0.07997,-0.165198 -2.348378,-2.403648 -2.49062,-2.457728 -0.138995,-0.05285 -0.295895,-0.04076 -0.40795,0.03142 -0.138773,0.08939 -2.4026171,2.332997 -2.4802439,2.458072 -0.056592,0.09118 -0.063639,0.216554 -0.079078,1.406779 l -0.016949,1.306677 -0.095276,0.194021 c -0.081205,0.165366 -0.407877,0.503023 -2.2118644,2.286242 -2.0569099,2.033229 -2.1836432,2.170196 -2.0924334,2.261406 0.082686,0.08269 0.2890112,-0.10522 2.3083412,-2.102271 z"
       id="path3760"
       inkscape:connector-curvature="0" />
    <path
       style="fill:#cccccc;fill-opacity:1;stroke:none"
       d="m 19.283372,16.911802 c -0.298196,-0.0636 -0.62427,-0.199285 -0.88376,-0.367756 -0.233275,-0.151452 -2.582063,-2.468572 -2.817259,-2.779274 -0.193055,-0.255034 -0.319892,-0.505217 -0.421161,-0.830734 -0.06699,-0.215321 -0.0791,-0.326881 -0.0791,-0.728814 0,-0.401932 0.01211,-0.513492 0.0791,-0.728813 0.101184,-0.325243 0.227996,-0.57549 0.420971,-0.830734 0.20099,-0.265843 2.53495,-2.5836987 2.743781,-2.7248478 0.08867,-0.059931 0.271719,-0.1610793 0.406779,-0.2247736 0.461897,-0.2178305 0.53982,-0.2287247 1.753372,-0.2451328 L 21.587124,7.436036 23.58779,5.444907 c 2.101996,-2.0919747 2.168823,-2.1507292 2.627785,-2.3103517 0.298001,-0.1036415 0.848637,-0.1280386 1.154854,-0.051168 0.38788,0.097371 0.699274,0.274728 0.982232,0.5594387 0.4155,0.418075 0.615469,0.8896035 0.619465,1.4607038 0.0025,0.360167 -0.04896,0.582517 -0.219737,0.9491526 l -0.134214,0.2881356 -2.032733,2.0169491 -2.032732,2.0169492 6.48e-4,0.864407 c 9.89e-4,1.322992 -0.06856,1.709786 -0.408389,2.271186 -0.151689,0.250594 -0.343685,0.456556 -1.47359,1.580785 -0.85613,0.85183 -1.377902,1.344805 -1.530031,1.44559 -0.576583,0.381983 -1.218299,0.511543 -1.857975,0.375118 l -1e-6,0 z m 0.685434,-1.96175 c 0.150204,-0.06276 2.381297,-2.269126 2.501362,-2.473641 0.0791,-0.134743 0.07968,-0.14367 0.09197,-1.423729 0.01194,-1.2435372 0.01498,-1.2940037 0.08768,-1.457627 0.06266,-0.1410194 0.437622,-0.5285278 2.232124,-2.3067929 2.018444,-2.0001798 2.154258,-2.1420848 2.116913,-2.2118643 -0.02195,-0.04101 -0.07113,-0.074563 -0.109305,-0.074563 -0.04634,0 -0.77798,0.7008612 -2.202201,2.1095678 -1.471293,1.4552671 -2.18274,2.1360393 -2.293814,2.1949153 l -0.161013,0.085347 -1.305085,0.016949 c -1.013732,0.013165 -1.324004,0.027287 -1.389831,0.063258 -0.162948,0.089041 -2.377172,2.3200951 -2.443593,2.4621661 -0.07745,0.165655 -0.08202,0.350507 -0.01282,0.518038 0.07135,0.172733 2.284724,2.396247 2.473368,2.484695 0.165723,0.0777 0.253342,0.08051 0.414247,0.01328 z"
       id="path3762"
       inkscape:connector-curvature="0" />
  </g>
  <defs
     id="defs11" />
</svg>
