<?xml version="1.0" encoding="UTF-8"?>
<svg width="144px" height="153px" viewBox="0 0 144 153" version="1.1" xmlns="http://www.w3.org/2000/svg" xmlns:xlink="http://www.w3.org/1999/xlink">
    <title>没有绑定账户-light</title>
    <defs>
        <filter x="-54.5%" y="-47.4%" width="212.1%" height="193.6%" filterUnits="objectBoundingBox" id="filter-1">
            <feOffset dx="-1" dy="6" in="SourceAlpha" result="shadowOffsetOuter1"></feOffset>
            <feGaussianBlur stdDeviation="6" in="shadowOffsetOuter1" result="shadowBlurOuter1"></feGaussianBlur>
            <feColorMatrix values="0 0 0 0 0   0 0 0 0 0   0 0 0 0 0  0 0 0 0.15 0" type="matrix" in="shadowBlurOuter1" result="shadowMatrixOuter1"></feColorMatrix>
            <feMerge>
                <feMergeNode in="shadowMatrixOuter1"></feMergeNode>
                <feMergeNode in="SourceGraphic"></feMergeNode>
            </feMerge>
        </filter>
        <linearGradient x1="50%" y1="0.410087959%" x2="50%" y2="100%" id="linearGradient-2">
            <stop stop-color="#EFEEEE" offset="0%"></stop>
            <stop stop-color="#E0E0E0" offset="100%"></stop>
        </linearGradient>
        <path d="M8,0 L47,0 L47,0 L66,20 L66,39 L66,70 C66,74.418278 62.418278,78 58,78 L8,78 C3.581722,78 5.41083001e-16,74.418278 0,70 L0,8 C-1.42926142e-15,3.581722 3.581722,-2.74108918e-15 8,0 Z" id="path-3"></path>
        <filter x="-2.3%" y="-1.9%" width="104.5%" height="103.8%" filterUnits="objectBoundingBox" id="filter-4">
            <feOffset dx="0" dy="1" in="SourceAlpha" result="shadowOffsetInner1"></feOffset>
            <feComposite in="shadowOffsetInner1" in2="SourceAlpha" operator="arithmetic" k2="-1" k3="1" result="shadowInnerInner1"></feComposite>
            <feColorMatrix values="0 0 0 0 1   0 0 0 0 1   0 0 0 0 1  0 0 0 0.493744537 0" type="matrix" in="shadowInnerInner1"></feColorMatrix>
        </filter>
        <linearGradient x1="12.8393736%" y1="84.7740876%" x2="66.905024%" y2="50%" id="linearGradient-5">
            <stop stop-color="#FCFCFC" offset="0%"></stop>
            <stop stop-color="#DEDEDE" offset="100%"></stop>
        </linearGradient>
        <path d="M47,1.8189894e-12 L47,12 C47,16.418278 50.581722,20 55,20 L66,20 L66,20 L47,1.8189894e-12 Z" id="path-6"></path>
        <filter x="-26.3%" y="-20.0%" width="152.6%" height="150.0%" filterUnits="objectBoundingBox" id="filter-7">
            <feOffset dx="0" dy="1" in="SourceAlpha" result="shadowOffsetOuter1"></feOffset>
            <feGaussianBlur stdDeviation="1.5" in="shadowOffsetOuter1" result="shadowBlurOuter1"></feGaussianBlur>
            <feColorMatrix values="0 0 0 0 0   0 0 0 0 0   0 0 0 0 0  0 0 0 0.1 0" type="matrix" in="shadowBlurOuter1"></feColorMatrix>
        </filter>
        <filter x="-18.4%" y="-12.5%" width="136.8%" height="135.0%" filterUnits="objectBoundingBox" id="filter-8">
            <feOffset dx="1" dy="-1" in="SourceAlpha" result="shadowOffsetInner1"></feOffset>
            <feComposite in="shadowOffsetInner1" in2="SourceAlpha" operator="arithmetic" k2="-1" k3="1" result="shadowInnerInner1"></feComposite>
            <feColorMatrix values="0 0 0 0 1   0 0 0 0 1   0 0 0 0 1  0 0 0 0.322770979 0" type="matrix" in="shadowInnerInner1"></feColorMatrix>
        </filter>
        <linearGradient x1="50%" y1="0%" x2="50%" y2="100%" id="linearGradient-9">
            <stop stop-color="#F4F4F4" offset="0%"></stop>
            <stop stop-color="#E4E4E4" offset="100%"></stop>
        </linearGradient>
        <circle id="path-10" cx="21" cy="21" r="21"></circle>
        <filter x="-40.5%" y="-26.2%" width="171.4%" height="171.4%" filterUnits="objectBoundingBox" id="filter-11">
            <feMorphology radius="1" operator="dilate" in="SourceAlpha" result="shadowSpreadOuter1"></feMorphology>
            <feOffset dx="-2" dy="4" in="shadowSpreadOuter1" result="shadowOffsetOuter1"></feOffset>
            <feGaussianBlur stdDeviation="4" in="shadowOffsetOuter1" result="shadowBlurOuter1"></feGaussianBlur>
            <feComposite in="shadowBlurOuter1" in2="SourceAlpha" operator="out" result="shadowBlurOuter1"></feComposite>
            <feColorMatrix values="0 0 0 0 0   0 0 0 0 0   0 0 0 0 0  0 0 0 0.1 0" type="matrix" in="shadowBlurOuter1"></feColorMatrix>
        </filter>
        <filter x="-27.4%" y="-13.1%" width="145.2%" height="145.2%" filterUnits="objectBoundingBox" id="filter-12">
            <feOffset dx="0" dy="1" in="SourceAlpha" result="shadowOffsetInner1"></feOffset>
            <feComposite in="shadowOffsetInner1" in2="SourceAlpha" operator="arithmetic" k2="-1" k3="1" result="shadowInnerInner1"></feComposite>
            <feColorMatrix values="0 0 0 0 1   0 0 0 0 1   0 0 0 0 1  0 0 0 1 0" type="matrix" in="shadowInnerInner1"></feColorMatrix>
        </filter>
    </defs>
    <g id="桌面版" stroke="none" stroke-width="1" fill="none" fill-rule="evenodd">
        <g id="账户-重置密码" transform="translate(-1405.000000, -1562.000000)">
            <g id="对话框-12" transform="translate(1290.000000, 1388.000000)">
                <g id="编组-19" transform="translate(126.000000, 190.000000)">
                    <rect id="矩形" x="0" y="0" width="128" height="128" rx="2"></rect>
                    <g id="编组-7" filter="url(#filter-1)" transform="translate(60.000000, 61.000000) rotate(-10.000000) translate(-60.000000, -61.000000) translate(27.000000, 22.000000)">
                        <g id="矩形">
                            <use fill="url(#linearGradient-2)" fill-rule="evenodd" xlink:href="#path-3"></use>
                            <use fill="black" fill-opacity="1" filter="url(#filter-4)" xlink:href="#path-3"></use>
                            <path stroke-opacity="0.08" stroke="#000000" stroke-width="1" d="M47.2146557,-0.5 L66.5,19.8003624 L66.5,70 C66.5,72.3472102 65.5486051,74.4722102 64.0104076,76.0104076 C62.4722102,77.5486051 60.3472102,78.5 58,78.5 L8,78.5 C5.65278981,78.5 3.52778981,77.5486051 1.98959236,76.0104076 C0.451394907,74.4722102 -0.5,72.3472102 -0.5,70 L-0.5,8 C-0.5,5.65278981 0.451394907,3.52778981 1.98959236,1.98959236 C3.52778981,0.451394907 5.65278981,-0.5 8,-0.5 L47.2146557,-0.5 Z"></path>
                        </g>
                        <g id="路径-2">
                            <use fill="black" fill-opacity="1" filter="url(#filter-7)" xlink:href="#path-6"></use>
                            <use fill="url(#linearGradient-5)" fill-rule="evenodd" xlink:href="#path-6"></use>
                            <use fill="black" fill-opacity="1" filter="url(#filter-8)" xlink:href="#path-6"></use>
                        </g>
                        <circle id="椭圆形" fill-opacity="0.244717685" fill="#3A5774" cx="33.5" cy="16.5" r="7.5"></circle>
                        <path d="M19.3496527,36.2584815 C21.6858796,29.5458254 26.2383265,26.1274353 33.0069935,26.0033111 C39.8469771,25.8778791 44.4207633,29.3161977 46.7283521,36.318267 C47.475125,38.5842561 46.243554,41.0265807 43.977564,41.7733509 C43.5419792,41.9169003 43.0863144,41.9901716 42.6276855,41.9904127 L23.4309082,41.9978858 C21.0450382,41.9985992 19.1103302,40.0650475 19.109617,37.6791775 C19.1094724,37.1955037 19.1905542,36.7152397 19.3496527,36.2584815 Z" id="路径-12" fill-opacity="0.244717685" fill="#3A5774"></path>
                        <rect id="矩形" fill-opacity="0.244717685" fill="#3A5774" x="16" y="49" width="18.7894737" height="3" rx="1.5"></rect>
                        <rect id="矩形" fill-opacity="0.244717685" fill="#3A5774" x="16" y="57" width="34" height="3" rx="1.5"></rect>
                        <rect id="矩形" fill-opacity="0.244717685" fill="#3A5774" x="16" y="65" width="34" height="3" rx="1.5"></rect>
                    </g>
                    <g id="编组-8" transform="translate(74.000000, 61.000000)">
                        <g id="形状结合">
                            <use fill="black" fill-opacity="1" filter="url(#filter-11)" xlink:href="#path-10"></use>
                            <use fill="url(#linearGradient-9)" fill-rule="evenodd" xlink:href="#path-10"></use>
                            <use fill="black" fill-opacity="1" filter="url(#filter-12)" xlink:href="#path-10"></use>
                            <circle stroke-opacity="0.08" stroke="#000000" stroke-width="1" cx="21" cy="21" r="21.5"></circle>
                        </g>
                        <path d="M21,9 C21.9941125,9 22.8,9.80588745 22.8,10.8 L22.799,19.2 L31.2,19.2 C32.1941125,19.2 33,20.0058875 33,21 C33,21.9941125 32.1941125,22.8 31.2,22.8 L22.799,22.799 L22.8,31.2 C22.8,32.1941125 21.9941125,33 21,33 C20.0058875,33 19.2,32.1941125 19.2,31.2 L19.2,22.799 L10.8,22.8 C9.80588745,22.8 9,21.9941125 9,21 C9,20.0058875 9.80588745,19.2 10.8,19.2 L19.2,19.2 L19.2,10.8 C19.2,9.80588745 20.0058875,9 21,9 Z" id="形状结合" fill-opacity="0.388072621" fill="#F05B5B" transform="translate(21.000000, 21.000000) rotate(-225.000000) translate(-21.000000, -21.000000) "></path>
                    </g>
                </g>
            </g>
        </g>
    </g>
</svg>