<?xml version="1.0" encoding="UTF-8"?>
<svg width="128px" height="128px" viewBox="0 0 128 128" version="1.1" xmlns="http://www.w3.org/2000/svg" xmlns:xlink="http://www.w3.org/1999/xlink">
    <title>没有绑定账户-dark</title>
    <g id="桌面版" stroke="none" stroke-width="1" fill="none" fill-rule="evenodd">
        <g id="编组-19">
            <rect id="矩形" x="0" y="0" width="128" height="128" rx="2"></rect>
            <path d="M83,72 C92.3888407,72 100,79.6111593 100,89 C100,98.3888407 92.3888407,106 83,106 C73.6111593,106 66,98.3888407 66,89 C66,79.6111593 73.6111593,72 83,72 Z M62.5,23.5 C74.0979797,23.5 83.5,32.9020203 83.5,44.5 C83.5,52.606231 78.9070212,59.6397142 72.1814755,63.1400381 C74.3538143,63.7105072 76.3974151,64.4965416 78.3101634,65.4981576 C79.2886889,66.0105653 79.6665521,67.2192054 79.1541444,68.197731 C78.6417367,69.1762565 77.4330966,69.5541196 76.4545711,69.041712 C72.4027299,66.9199538 67.6057028,65.900217 62.0357086,65.9996812 C46.0695223,66.2847917 36.1967376,75.2326658 32.0771555,93.3292486 C32.0270906,93.5502867 32.001837,93.7753078 32.001837,94.0001162 C32.001837,95.5977266 33.250797,96.903664 34.8256726,96.9949075 L35.0019531,97 L61,97 C62.1045695,97 63,97.8954305 63,99 C63,100.054362 62.1841222,100.918165 61.1492623,100.994514 L61,101 L35.0019531,101 C31.1359443,101 28.001837,97.8660938 28.001837,94.0001162 C28.001837,93.4774877 28.0603496,92.9561147 28.1764552,92.4435106 C31.8677383,76.228363 40.157669,66.3779903 52.8595003,63.1599311 C46.1112711,59.6676942 41.5,52.6223571 41.5,44.5 C41.5,32.9020203 50.9020203,23.5 62.5,23.5 Z M88.0636699,81.8259619 L87.9497475,81.9289322 L83,86.8786797 L78.0502525,81.9289322 C77.4644661,81.3431458 76.5147186,81.3431458 75.9289322,81.9289322 C75.3797574,82.478107 75.345434,83.3471694 75.8259619,83.9363301 L75.9289322,84.0502525 L80.8786797,89 L75.9289322,93.9497475 C75.3431458,94.5355339 75.3431458,95.4852814 75.9289322,96.0710678 C76.478107,96.6202426 77.3471694,96.654566 77.9363301,96.1740381 L78.0502525,96.0710678 L83,91.1213203 L87.9497475,96.0710678 C88.5355339,96.6568542 89.4852814,96.6568542 90.0710678,96.0710678 C90.6202426,95.521893 90.654566,94.6528306 90.1740381,94.0636699 L90.0710678,93.9497475 L85.1213203,89 L90.0710678,84.0502525 C90.6568542,83.4644661 90.6568542,82.5147186 90.0710678,81.9289322 C89.521893,81.3797574 88.6528306,81.345434 88.0636699,81.8259619 Z M62.5,27.5 C53.1111593,27.5 45.5,35.1111593 45.5,44.5 C45.5,53.8888407 53.1111593,61.5 62.5,61.5 C71.8888407,61.5 79.5,53.8888407 79.5,44.5 C79.5,35.1111593 71.8888407,27.5 62.5,27.5 Z" id="形状结合" fill-opacity="0.2" fill="#FFFFFF" fill-rule="nonzero"></path>
        </g>
    </g>
</svg>