<?xml version="1.0" encoding="UTF-8"?>
<svg width="16px" height="16px" viewBox="0 0 16 16" version="1.1" xmlns="http://www.w3.org/2000/svg" xmlns:xlink="http://www.w3.org/1999/xlink">
    <title>buletooth_icon/print</title>
    <g id="buletooth_icon/print" stroke="none" stroke-width="1" fill="none" fill-rule="evenodd">
        <g id="ICON-/-Device-/-PC" transform="translate(2, 1)" fill="#000000" fill-rule="nonzero">
            <path d="M9.5,0 C9.77614237,0 10,0.223857625 10,0.5 L10,3 L11,3 C11.5522847,3 12,3.44771525 12,4 L12,10 C12,10.5522847 11.5522847,11 11,11 L10,11 L10,13.5 C10,13.7761424 9.77614237,14 9.5,14 L2.5,14 C2.22385763,14 2,13.7761424 2,13.5 L2,11 L1,11 C0.44771525,11 6.76353751e-17,10.5522847 0,10 L0,4 C-6.76353751e-17,3.44771525 0.44771525,3 1,3 L2,3 L2,0.5 C2,0.223857625 2.22385763,0 2.5,0 L9.5,0 Z M9,10 L3,10 L3,13 L9,13 L9,10 Z M7,11 L7,12 L4,12 L4,11 L7,11 Z M10.5,4 C10.2238576,4 10,4.22385763 10,4.5 C10,4.77614237 10.2238576,5 10.5,5 C10.7761424,5 11,4.77614237 11,4.5 C11,4.22385763 10.7761424,4 10.5,4 Z M9,1 L3,1 L3,3 L9,3 L9,1 Z" id="形状结合"></path>
        </g>
    </g>
</svg>