<?xml version="1.0" encoding="UTF-8"?>
<svg width="24px" height="24px" viewBox="0 0 24 24" version="1.1" xmlns="http://www.w3.org/2000/svg" xmlns:xlink="http://www.w3.org/1999/xlink">
    <!-- Generator: Sketch 46.2 (44496) - http://www.bohemiancoding.com/sketch -->
    <title>nav_power</title>
    <desc>Created with Sketch.</desc>
    <defs></defs>
    <g id="UI" stroke="none" stroke-width="1" fill="none" fill-rule="evenodd">
        <g id="nav_power" fill="#FFFFFF">
            <path d="M18.912,15.433 C18.785,15.635 18.533,15.721 18.308,15.632 L12.606,13.409 L11.397,16.636 C11.34,16.791 11.208,16.908 11.047,16.947 C11.008,16.955 10.969,16.96 10.93,16.96 C10.807,16.96 10.685,16.914 10.593,16.829 L3.207,10.088 C3.029,9.926 2.992,9.661 3.119,9.455 C3.246,9.251 3.499,9.164 3.725,9.253 L9.68,11.569 L10.951,8.358 C11.012,8.204 11.145,8.089 11.307,8.053 C11.468,8.018 11.638,8.064 11.758,8.176 L18.831,14.801 C19.006,14.965 19.04,15.23 18.912,15.433 M22,10 L21,10 L21,6.5 C21,5.673 20.327,5 19.5,5 L2.5,5 C1.673,5 1,5.673 1,6.5 L1,18.5 C1,19.328 1.673,20 2.5,20 L19.5,20 C20.327,20 21,19.328 21,18.5 L21,15 L22,15 C22.552,15 23,14.552 23,14 L23,11 C23,10.449 22.552,10 22,10" id="Fill-46"></path>
        </g>
    </g>
</svg>