<svg xmlns="http://www.w3.org/2000/svg" width="16" height="16" viewBox="0 0 16 16">
  <g fill="none" fill-rule="evenodd">
    <polygon points="0 16 16 16 16 0 0 0" opacity="0"/>
    <path stroke="#536076" stroke-linecap="round" stroke-width="1.2" d="M1.026,6.579 C2.811,4.678 5.275,3.5 7.992,3.5 C10.71,3.5 13.174,4.678 14.958,6.579"/>
    <path stroke="#536076" stroke-linecap="round" stroke-width="1.2" d="M3.0163 8.6991C4.2913 7.3411 6.0513 6.5001 7.9923 6.5001 9.9333 6.5001 11.6933 7.3411 12.9683 8.6991M5.0055 10.818C5.7695 10.004 6.8255 9.5 7.9925 9.5 9.1585 9.5 10.2145 10.004 10.9795 10.818"/>
    <path fill="#536076" d="M6.6605,12.5691 L7.9995,13.9961 L9.3365,12.5711 C9.3365,12.5711 9.3235,12.5651 9.3155,12.5561 C8.5825,11.7751 7.3245,11.8621 6.6605,12.5691"/>
  </g>
</svg>
