<?xml version="1.0" encoding="UTF-8"?>
<svg width="20px" height="20px" viewBox="0 0 20 20" version="1.1" xmlns="http://www.w3.org/2000/svg" xmlns:xlink="http://www.w3.org/1999/xlink">
    <title>编组</title>
    <g id="桌面版" stroke="none" stroke-width="1" fill="none" fill-rule="evenodd">
        <g id="网络-Wi-Fi" transform="translate(-1022.000000, -306.000000)">
            <g id="控制中心" transform="translate(550.000000, 191.000000)">
                <g id="分组-4" transform="translate(450.000000, 60.000000)">
                    <g id="无线列表" transform="translate(10.000000, 10.000000)">
                        <g id="选项-copy-6" transform="translate(0.000000, 37.000000)">
                            <g id="编组" transform="translate(12.000000, 8.000000)">
                                <rect id="矩形" x="0" y="0" width="20" height="20"></rect>
                                <g id="lock" transform="translate(6.000000, 6.000000)" fill="#536076">
                                    <path d="M2,3 L5,3 L5,2.285714 C5,1.93939549 4.87661579,1.66715122 4.59280779,1.40767071 C4.29104422,1.1317725 3.94321956,1 3.5,1 C3.05678061,1 2.70895589,1.1317724 2.40719056,1.40767221 C2.12338421,1.66715122 2,1.93939549 2,2.285714 L2,3 Z M1,4 L1,2.285714 C1,1.654758 1.24413805,1.116072 1.7324229,0.669642 C2.22070556,0.223212 2.80989318,0 3.5,0 C4.19010682,0 4.77929444,0.223212 5.2675771,0.669642 C5.75586195,1.116072 6,1.654758 6,2.285714 L6,4 L1,4 Z" id="Page-1"></path>
                                    <path d="M1,4 L1,7 L6,7 L6,4 L1,4 Z M1,3 L6,3 C6.55228475,3 7,3.44771525 7,4 L7,7 C7,7.55228475 6.55228475,8 6,8 L1,8 C0.44771525,8 6.76353751e-17,7.55228475 0,7 L0,4 C-6.76353751e-17,3.44771525 0.44771525,3 1,3 Z" id="Rectangle-1609"></path>
                                </g>
                            </g>
                        </g>
                    </g>
                </g>
            </g>
        </g>
    </g>
</svg>