<?xml version="1.0" encoding="UTF-8" standalone="no"?>
<svg width="48px" height="48px" viewBox="0 0 48 48" version="1.1" xmlns="http://www.w3.org/2000/svg" xmlns:xlink="http://www.w3.org/1999/xlink">
    <!-- Generator: Sketch 40.2 (33826) - http://www.bohemiancoding.com/sketch -->
    <title>特大暴雨</title>
    <desc>Created with Sketch.</desc>
    <defs></defs>
    <g id="Page-1" stroke="none" stroke-width="1" fill="none" fill-rule="evenodd">
        <g id="特大暴雨">
            <path d="M18,26 L18.0009766,33" id="Path-3" stroke="#53C0FF" stroke-width="2" stroke-linecap="round" stroke-linejoin="round"></path>
            <path d="M22,26 L22.0019531,33" id="Path-3" stroke="#53C0FF" stroke-width="2" stroke-linecap="round" stroke-linejoin="round"></path>
            <path d="M26,26 L26,33" id="Path-3" stroke="#53C0FF" stroke-width="2" stroke-linecap="round" stroke-linejoin="round"></path>
            <path d="M30,26 L30.0039062,33" id="Path-3" stroke="#53C0FF" stroke-width="2" stroke-linecap="round" stroke-linejoin="round"></path>
            <path d="M34,26 L34.0039062,33" id="Path-3" stroke="#53C0FF" stroke-width="2" stroke-linecap="round" stroke-linejoin="round"></path>
            <path d="M20,35 L20.0009766,41" id="Path-3" stroke="#53C0FF" stroke-width="2" stroke-linecap="round" stroke-linejoin="round"></path>
            <path d="M14,26 L14.0009766,33" id="Path-3" stroke="#53C0FF" stroke-width="2" stroke-linecap="round" stroke-linejoin="round"></path>
            <path d="M16,35 L16.0009766,41" id="Path-3" stroke="#53C0FF" stroke-width="2" stroke-linecap="round" stroke-linejoin="round"></path>
            <path d="M24,35 L24.0019531,41" id="Path-3" stroke="#53C0FF" stroke-width="2" stroke-linecap="round" stroke-linejoin="round"></path>
            <path d="M28,35 L28,41" id="Path-3" stroke="#53C0FF" stroke-width="2" stroke-linecap="round" stroke-linejoin="round"></path>
            <path d="M32,35 L32,41" id="Path-3" stroke="#53C0FF" stroke-width="2" stroke-linecap="round" stroke-linejoin="round"></path>
            <path d="M33.2513237,11.8848755 C32.7710498,11.8848755 32.2920498,11.9383144 31.8238783,12.0445324 C30.3263665,8.41860465 26.8319599,6 23.0509176,6 C18.3328954,6 14.4091723,9.47484744 13.6282495,14.3008412 L13.5951272,14.3008412 C10.509654,14.3008412 8,16.9252845 8,20.1507505 C8,23.3762164 10.509654,26 13.5951272,26 L33.2513237,26 C36.9724909,26 40,22.8339106 40,18.9427676 C40,15.0509649 36.9724909,11.8848755 33.2513237,11.8848755 L33.2513237,11.8848755 Z" id="Fill-2" fill="#FFFFFF"></path>
        </g>
    </g>
</svg>