<?xml version="1.0" encoding="UTF-8" standalone="no"?>
<svg width="48px" height="48px" viewBox="0 0 48 48" version="1.1" xmlns="http://www.w3.org/2000/svg" xmlns:xlink="http://www.w3.org/1999/xlink">
    <!-- Generator: Sketch 40.2 (33826) - http://www.bohemiancoding.com/sketch -->
    <title>多云</title>
    <desc>Created with Sketch.</desc>
    <defs></defs>
    <g id="Page-1" stroke="none" stroke-width="1" fill="none" fill-rule="evenodd">
        <g id="多云" fill="#FFFFFF">
            <path d="M38.0404276,21.1791192 C37.5451451,21.1791192 37.0511764,21.2352301 36.5683745,21.346759 C35.0240654,17.5395349 31.4204586,15 27.5212588,15 C22.6557984,15 18.609459,18.6485898 17.8041323,23.7158832 L17.7699749,23.7158832 C14.5880807,23.7158832 12,26.4715487 12,29.858288 C12,33.2450272 14.5880807,36 17.7699749,36 L38.0404276,36 C41.8778813,36 45,32.6756061 45,28.589906 C45,24.5035131 41.8778813,21.1791192 38.0404276,21.1791192 L38.0404276,21.1791192 Z" id="Fill-2"></path>
            <path d="M20.5887614,15.2312014 C19.1654803,13.8353656 17.2474497,13 15.2288706,13 C11.3954775,13 8.20745253,15.7798779 7.57295274,19.6406729 L7.54604085,19.6406729 C5.03909391,19.6406729 3,21.7402276 3,24.3206004 C3,26.9009731 5.03909391,29 7.54604085,29 L10.0010946,29 C10.0544119,25.3401741 12.0562344,22.4867668 16.164184,21.520078 C16.9268694,18.9252628 18.5054583,16.739174 20.5887614,15.2312014 L20.5887614,15.2312014 Z" id="Combined-Shape" opacity="0.502623601"></path>
        </g>
    </g>
</svg>