<?xml version="1.0" encoding="UTF-8" standalone="no"?>
<svg width="48px" height="48px" viewBox="0 0 48 48" version="1.1" xmlns="http://www.w3.org/2000/svg" xmlns:xlink="http://www.w3.org/1999/xlink">
    <!-- Generator: Sketch 40.2 (33826) - http://www.bohemiancoding.com/sketch -->
    <title>飓风</title>
    <desc>Created with Sketch.</desc>
    <defs></defs>
    <g id="Page-1" stroke="none" stroke-width="1" fill="none" fill-rule="evenodd">
        <g id="飓风" fill="#FFFFFF">
            <path d="M24,38 C31.7319865,38 38,31.7319865 38,24 C38,16.2680135 31.7319865,10 24,10 C16.2680135,10 10,16.2680135 10,24 C10,31.7319865 16.2680135,38 24,38 Z M24,34 C29.5228475,34 34,29.5228475 34,24 C34,18.4771525 29.5228475,14 24,14 C18.4771525,14 14,18.4771525 14,24 C14,29.5228475 18.4771525,34 24,34 Z" id="Combined-Shape"></path>
            <path d="M24,31 C27.8659932,31 31,27.8659932 31,24 C31,20.1340068 27.8659932,17 24,17 C20.1340068,17 17,20.1340068 17,24 C17,27.8659932 20.1340068,31 24,31 Z M24,28 C26.209139,28 28,26.209139 28,24 C28,21.790861 26.209139,20 24,20 C21.790861,20 20,21.790861 20,24 C20,26.209139 21.790861,28 24,28 Z" id="Combined-Shape"></path>
            <path d="M37.9284443,23.5 C37.9757941,23.9938312 38,24.4941745 38,25 C38,33.836556 30.6126984,41 21.5,41 C12.3873016,41 5,33.836556 5,25 C5,24.4941745 5.0242059,23.9938312 5.07155573,23.5 C5.85138711,31.6331888 12.9089342,38 21.5,38 C30.0910658,38 37.1486129,31.6331888 37.9284443,23.5 L37.9284443,23.5 Z" id="Combined-Shape"></path>
            <path d="M42.9284443,24.5 C42.9757941,24.0061688 43,23.5058255 43,23 C43,14.163444 35.6126984,7 26.5,7 C17.3873016,7 10,14.163444 10,23 C10,23.5058255 10.0242059,24.0061688 10.0715557,24.5 C10.8513871,16.3668112 17.9089342,10 26.5,10 C35.0910658,10 42.1486129,16.3668112 42.9284443,24.5 L42.9284443,24.5 Z" id="Combined-Shape"></path>
        </g>
    </g>
</svg>