<?xml version="1.0" encoding="UTF-8" standalone="no"?>
<svg width="48px" height="48px" viewBox="0 0 48 48" version="1.1" xmlns="http://www.w3.org/2000/svg" xmlns:xlink="http://www.w3.org/1999/xlink">
    <!-- Generator: Sketch 40.2 (33826) - http://www.bohemiancoding.com/sketch -->
    <title>小雪</title>
    <desc>Created with Sketch.</desc>
    <defs></defs>
    <g id="Page-1" stroke="none" stroke-width="1" fill="none" fill-rule="evenodd">
        <g id="小雪" fill="#FFFFFF">
            <path d="M33.2513237,9.88487547 C32.7710498,9.88487547 32.2920498,9.93831437 31.8238783,10.0445324 C30.3263665,6.41860465 26.8319599,4 23.0509176,4 C18.3328954,4 14.4091723,7.47484744 13.6282495,12.3008412 L13.5951272,12.3008412 C10.509654,12.3008412 8,14.9252845 8,18.1507505 C8,21.3762164 10.509654,24 13.5951272,24 L33.2513237,24 C36.9724909,24 40,20.8339106 40,16.9427676 C40,13.0509649 36.9724909,9.88487547 33.2513237,9.88487547 L33.2513237,9.88487547 Z" id="Fill-2"></path>
            <polyline id="Fill-1" points="28.1324483 32.6878926 28.0588799 32.225313 25.8207354 32.5136485 24.0192817 31.5780494 25.8204578 30.642699 28.0588799 30.9310345 28.1324483 30.4687034 26.5489236 30.2643829 29 28.991481 28.7404285 28.586817 26.2890745 29.8599675 26.884562 28.52393 26.4023421 28.350183 25.5608864 30.238035 23.8013527 31.1517603 23.8013527 29.3026845 25.1980415 27.7031681 24.7896676 27.4143354 23.8013527 28.5463009 23.8013527 26 23.2819322 26 23.2819322 28.5463009 22.2933397 27.4143354 21.8852434 27.7031681 23.2819322 29.3026845 23.2819322 31.1950106 21.4391136 30.238035 20.5973803 28.350183 20.1151604 28.5241786 20.7106479 29.8599675 18.2595715 28.586817 18 28.991481 20.4510764 30.2643829 18.8672741 30.4687034 18.9411201 30.9310345 21.1792646 30.642699 22.9807183 31.5780494 21.178987 32.5136485 18.9411201 32.225313 18.8672741 32.6878926 20.4510764 32.8919646 18 34.1648665 18.2595715 34.5695304 20.7109255 33.29638 20.1151604 34.6324174 20.5973803 34.8061644 21.438836 32.9183125 23.2819322 31.9613368 23.2819322 33.846206 21.8852434 35.4462196 22.2936173 35.7345551 23.2819322 34.6028382 23.2819322 37 23.8013527 37 23.8013527 34.6028382 24.7896676 35.7345551 25.1980415 35.4462196 23.8013527 33.8464546 23.8013527 32.0045872 25.5608864 32.9183125 26.4023421 34.8061644 26.884562 34.6324174 26.2890745 33.29638 28.7404285 34.5695304 29 34.1648665 26.5489236 32.8919646 28.1324483 32.6878926"></polyline>
        </g>
    </g>
</svg>