<?xml version="1.0" encoding="UTF-8" standalone="no"?>
<svg width="48px" height="48px" viewBox="0 0 48 48" version="1.1" xmlns="http://www.w3.org/2000/svg" xmlns:xlink="http://www.w3.org/1999/xlink">
    <!-- Generator: Sketch 40.2 (33826) - http://www.bohemiancoding.com/sketch -->
    <title>阵雪</title>
    <desc>Created with Sketch.</desc>
    <defs></defs>
    <g id="Page-1" stroke="none" stroke-width="1" fill="none" fill-rule="evenodd">
        <g id="阵雪">
            <path d="M36.5903897,21.4400792 C35.2332696,18.1767442 32.0664636,16 28.6398941,16 C24.3641865,16 20.8083124,19.1273627 20.1006011,23.4707571 C17.274374,23.4707571 15,25.8327561 15,28.7356754 C15,31.6385948 17.274374,34 20.070584,34 L37.8840121,34 C41.2563199,34 44,31.1505195 44,27.6484908 C44,24.1458684 41.2563199,21.2963879 37.8840121,21.2963879 C37.4487639,21.2963879 37.0146702,21.3444829 36.5903897,21.4400792 Z" id="Fill-2" fill="#FFFFFF"></path>
            <path d="M17,9.5 C17,9.77614237 17.2238576,10 17.5,10 C17.7761424,10 18,9.77614237 18,9.5 L18,4.5 C18,4.22385763 17.7761424,4 17.5,4 C17.2238576,4 17,4.22385763 17,4.5 L17,9.5 Z" id="Path-2" fill="#FFDB0E"></path>
            <path d="M9.5753788,12.5753788 C9.5753788,12.8515212 9.79923642,13.0753788 10.0753788,13.0753788 C10.3515212,13.0753788 10.5753788,12.8515212 10.5753788,12.5753788 L10.5753788,7.5753788 C10.5753788,7.29923642 10.3515212,7.0753788 10.0753788,7.0753788 C9.79923642,7.0753788 9.5753788,7.29923642 9.5753788,7.5753788 L9.5753788,12.5753788 Z" id="Path-2" fill="#FFDB0E" transform="translate(10.075379, 10.075379) rotate(-225.000000) translate(-10.075379, -10.075379) "></path>
            <path d="M24.4246212,12.5753788 C24.4246212,12.8515212 24.6484788,13.0753788 24.9246212,13.0753788 C25.2007636,13.0753788 25.4246212,12.8515212 25.4246212,12.5753788 L25.4246212,7.5753788 C25.4246212,7.29923642 25.2007636,7.0753788 24.9246212,7.0753788 C24.6484788,7.0753788 24.4246212,7.29923642 24.4246212,7.5753788 L24.4246212,12.5753788 Z" id="Path-2" fill="#FFDB0E" transform="translate(24.924621, 10.075379) rotate(-315.000000) translate(-24.924621, -10.075379) "></path>
            <path d="M9.5753788,27.4246212 C9.5753788,27.7007636 9.79923642,27.9246212 10.0753788,27.9246212 C10.3515212,27.9246212 10.5753788,27.7007636 10.5753788,27.4246212 L10.5753788,22.4246212 C10.5753788,22.1484788 10.3515212,21.9246212 10.0753788,21.9246212 C9.79923642,21.9246212 9.5753788,22.1484788 9.5753788,22.4246212 L9.5753788,27.4246212 Z" id="Path-2" fill="#FFDB0E" transform="translate(10.075379, 24.924621) rotate(-315.000000) translate(-10.075379, -24.924621) "></path>
            <path d="M6.5,20 C6.5,20.2761424 6.72385763,20.5 7,20.5 C7.27614237,20.5 7.5,20.2761424 7.5,20 L7.5,15 C7.5,14.7238576 7.27614237,14.5 7,14.5 C6.72385763,14.5 6.5,14.7238576 6.5,15 L6.5,20 Z" id="Path-2" fill="#FFDB0E" transform="translate(7.000000, 17.500000) rotate(-270.000000) translate(-7.000000, -17.500000) "></path>
            <path d="M15.5415527,22.6397884 C13.4730196,21.8489267 12,19.8431546 12,17.4997169 C12,14.4673426 14.4673426,12 17.4997169,12 C19.8051574,12 21.7837935,13.4256388 22.6003641,15.4414066 C20.4826267,16.7675644 18.9005686,18.9210771 18.2708639,21.5303643 C18.2708639,21.5396191 18.4626914,21.494267 18.1683739,21.5396191 C17.1985353,21.6890638 16.30411,22.0756793 15.5415527,22.6397884 L15.5415527,22.6397884 Z" id="Combined-Shape" fill="#FFDB0E"></path>
            <polyline id="Fill-1" fill="#FFFFFF" points="34.1324483 40.6878926 34.0588799 40.225313 31.8207354 40.5136485 30.0192817 39.5780494 31.8204578 38.642699 34.0588799 38.9310345 34.1324483 38.4687034 32.5489236 38.2643829 35 36.991481 34.7404285 36.586817 32.2890745 37.8599675 32.884562 36.52393 32.4023421 36.350183 31.5608864 38.238035 29.8013527 39.1517603 29.8013527 37.3026845 31.1980415 35.7031681 30.7896676 35.4143354 29.8013527 36.5463009 29.8013527 34 29.2819322 34 29.2819322 36.5463009 28.2933397 35.4143354 27.8852434 35.7031681 29.2819322 37.3026845 29.2819322 39.1950106 27.4391136 38.238035 26.5973803 36.350183 26.1151604 36.5241786 26.7106479 37.8599675 24.2595715 36.586817 24 36.991481 26.4510764 38.2643829 24.8672741 38.4687034 24.9411201 38.9310345 27.1792646 38.642699 28.9807183 39.5780494 27.178987 40.5136485 24.9411201 40.225313 24.8672741 40.6878926 26.4510764 40.8919646 24 42.1648665 24.2595715 42.5695304 26.7109255 41.29638 26.1151604 42.6324174 26.5973803 42.8061644 27.438836 40.9183125 29.2819322 39.9613368 29.2819322 41.846206 27.8852434 43.4462196 28.2936173 43.7345551 29.2819322 42.6028382 29.2819322 45 29.8013527 45 29.8013527 42.6028382 30.7896676 43.7345551 31.1980415 43.4462196 29.8013527 41.8464546 29.8013527 40.0045872 31.5608864 40.9183125 32.4023421 42.8061644 32.884562 42.6324174 32.2890745 41.29638 34.7404285 42.5695304 35 42.1648665 32.5489236 40.8919646 34.1324483 40.6878926"></polyline>
        </g>
    </g>
</svg>