<?xml version="1.0" encoding="UTF-8" standalone="no"?>
<svg width="48px" height="48px" viewBox="0 0 48 48" version="1.1" xmlns="http://www.w3.org/2000/svg" xmlns:xlink="http://www.w3.org/1999/xlink">
    <!-- Generator: Sketch 40.2 (33826) - http://www.bohemiancoding.com/sketch -->
    <title>雷阵雨</title>
    <desc>Created with Sketch.</desc>
    <defs></defs>
    <g id="Page-1" stroke="none" stroke-width="1" fill="none" fill-rule="evenodd">
        <g id="雷阵雨">
            <path d="M16,34 L18,37" id="Path-3" stroke="#53C0FF" stroke-width="2" stroke-linecap="round" stroke-linejoin="round"></path>
            <path d="M33.2513237,11.8848755 C32.7710498,11.8848755 32.2920498,11.9383144 31.8238783,12.0445324 C30.3263665,8.41860465 26.8319599,6 23.0509176,6 C18.3328954,6 14.4091723,9.47484744 13.6282495,14.3008412 L13.5951272,14.3008412 C10.509654,14.3008412 8,16.9252845 8,20.1507505 C8,23.3762164 10.509654,26 13.5951272,26 L33.2513237,26 C36.9724909,26 40,22.8339106 40,18.9427676 C40,15.0509649 36.9724909,11.8848755 33.2513237,11.8848755 L33.2513237,11.8848755 Z" id="Fill-2" fill="#FFFFFF"></path>
            <path d="M32,30 L34,33" id="Path-3" stroke="#53C0FF" stroke-width="2" stroke-linecap="round" stroke-linejoin="round"></path>
            <polygon id="Path-4" fill="#FFDB0E" points="21 20 24 30 19 30 28 43 25 33 30 33"></polygon>
        </g>
    </g>
</svg>