<?xml version="1.0" encoding="UTF-8" standalone="no"?>
<svg width="48px" height="48px" viewBox="0 0 48 48" version="1.1" xmlns="http://www.w3.org/2000/svg" xmlns:xlink="http://www.w3.org/1999/xlink">
    <!-- Generator: Sketch 40.2 (33826) - http://www.bohemiancoding.com/sketch -->
    <title>冷</title>
    <desc>Created with Sketch.</desc>
    <defs></defs>
    <g id="Page-1" stroke="none" stroke-width="1" fill="none" fill-rule="evenodd">
        <g id="冷">
            <path d="M36,26.0702576 C38.3912055,27.4534952 40,30.0388706 40,33 C40,37.418278 36.418278,41 32,41 C27.581722,41 24,37.418278 24,33 C24,30.0388706 25.6087945,27.4534952 28,26.0702576 L28,10.9968389 C28,8.78944571 29.7953562,7 32,7 C34.209139,7 36,8.79412025 36,10.9968389 L36,26.0702576 Z" id="Combined-Shape" stroke="#FFFFFF" stroke-width="2"></path>
            <circle id="Oval-8" fill="#53C0FF" cx="32" cy="33" r="5"></circle>
            <rect id="Rectangle-2" fill="#53C0FF" x="31" y="23" width="2" height="10"></rect>
            <polygon id="Fill-1" fill="#FFFFFF" points="25.9407588 24.1484386 21.2813489 24.8037466 17.5310499 22.6773851 21.280771 20.5515886 25.9407588 21.2068966 25.9407588 20.1561441 22.7973043 19.6917793 25.9407588 18 25.9407588 16.7988204 22.2563458 18.7726533 23.4960424 15.7362046 22.4921482 15.3413251 20.7403904 19.6318977 17.0773614 21.7085461 17.0773614 17.5061011 19.9850135 13.8708365 19.1348533 13.2143987 17.0773614 15.7870475 17.0773614 10 15.9960223 10 15.9960223 15.7870475 13.9379526 13.2143987 13.0883703 13.8708365 15.9960223 17.5061011 15.9960223 21.8068423 12.1596092 19.6318977 10.4072735 15.3413251 9.40337928 15.7367696 10.6430759 18.7726533 5.54038058 15.8791296 5 16.7988204 10.1026953 19.6917793 6.80550687 20.1561441 6.95924081 21.2068966 11.6186507 20.5515886 15.3689497 22.6773851 11.6180727 24.8037466 6.95924081 24.1484386 6.80550687 25.199756 10.1026953 25.6635558 5 28.5565147 5.54038058 29.4762055 10.6436538 26.5826818 9.40337928 29.6191305 10.4072735 30.01401 12.1590313 25.7234374 15.9960223 23.5484928 15.9960223 27.8322863 13.0883703 31.4686808 13.9385305 32.1239888 15.9960223 29.5519049 15.9960223 35 17.0773614 35 17.0773614 29.5519049 19.1348533 32.1239888 19.9850135 31.4686808 17.0773614 27.8328513 17.0773614 23.646789 20.7403904 25.7234374 22.3579652 29.6853562 23 28.5 22.2563458 26.5826818 23.7220488 27.4490562 24.3515318 26.5821499 22.7973043 25.6635558 25.9407588 25.199756"></polygon>
        </g>
    </g>
</svg>