<?xml version="1.0" encoding="UTF-8" standalone="no"?>
<svg width="48px" height="48px" viewBox="0 0 48 48" version="1.1" xmlns="http://www.w3.org/2000/svg" xmlns:xlink="http://www.w3.org/1999/xlink">
    <!-- Generator: Sketch 40.2 (33826) - http://www.bohemiancoding.com/sketch -->
    <title>夜-阴天</title>
    <desc>Created with Sketch.</desc>
    <defs></defs>
    <g id="Page-1" stroke="none" stroke-width="1" fill="none" fill-rule="evenodd">
        <g id="夜-阴天">
            <g id="Group-2" transform="translate(4.000000, 7.000000)">
                <path d="M8.2345566,24.8125241 C5.89504951,24.3853614 3.82127757,23.232035 2.00217295,21.3915795 C1.3627514,20.7446072 0.802869175,20.0180841 0.218752313,19.3176636 C-0.0391290678,19.0075395 -0.0565282935,18.7775878 0.101307539,18.5358278 C0.257900571,18.2971752 0.519510357,18.2406195 0.893593709,18.3338431 C3.53454761,18.9901378 6.15064547,18.9460119 8.63624914,17.7769871 C12.6523633,15.8876541 14.9291762,12.665844 15.4915441,8.28060261 C15.8202651,5.71446573 15.1696584,3.32669681 13.8479386,1.11543136 C13.8063048,1.04644585 13.7652923,0.977460334 13.7224156,0.909096309 C13.5732794,0.670443715 13.5689296,0.43116963 13.7491359,0.21178326 C13.930585,-0.00822459983 14.1741741,-0.0473785411 14.4308127,0.0508170576 C18.2617493,1.51318569 21.2544162,3.93265066 22.6699675,7.8679325 C23.0616234,8.95669395 23.3189726,10.0217419 23.4429291,11.0611879 C18.9467604,11.5237129 15.1977949,14.5688392 13.6871692,18.8444155 C11.0543032,19.7468046 8.92267976,22.0262483 8.2345566,24.8125241 L8.2345566,24.8125241 Z" id="Combined-Shape" fill="#FFDB0E"></path>
                <path d="M32.5903897,19.4400792 C31.2332696,16.1767442 28.0664636,14 24.6398941,14 C20.3641865,14 16.8083124,17.1273627 16.1006011,21.4707571 C13.274374,21.4707571 11,23.8327561 11,26.7356754 C11,29.6385948 13.274374,32 16.070584,32 L33.8840121,32 C37.2563199,32 40,29.1505195 40,25.6484908 C40,22.1458684 37.2563199,19.2963879 33.8840121,19.2963879 C33.4487639,19.2963879 33.0146702,19.3444829 32.5903897,19.4400792 Z" id="Fill-2" fill="#FFFFFF"></path>
            </g>
        </g>
    </g>
</svg>