<?xml version="1.0" encoding="UTF-8" standalone="no"?>
<svg width="48px" height="48px" viewBox="0 0 48 48" version="1.1" xmlns="http://www.w3.org/2000/svg" xmlns:xlink="http://www.w3.org/1999/xlink">
    <!-- Generator: Sketch 40.2 (33826) - http://www.bohemiancoding.com/sketch -->
    <title>夜-晴</title>
    <desc>Created with Sketch.</desc>
    <defs></defs>
    <g id="Page-1" stroke="none" stroke-width="1" fill="none" fill-rule="evenodd">
        <g id="夜-晴" fill="#FFDB0E">
            <path d="M23.9649093,40.9002046 C18.766667,41.4403053 14.3687392,39.7811229 10.7229552,36.0925481 C9.85334191,35.2126658 9.09190208,34.2245944 8.29750315,33.2720225 C7.94678447,32.8502538 7.92312152,32.5375194 8.13777825,32.2087258 C8.35074478,31.8841582 8.70653409,31.8072425 9.21528744,31.9340267 C12.8069847,32.8265874 16.3648778,32.7665762 19.7452988,31.1767024 C25.207214,28.6072095 28.3036797,24.2255479 29.0684999,18.2616196 C29.5155606,14.7716734 28.6307354,11.5243077 26.8331965,8.51698666 C26.7765745,8.42316635 26.7207975,8.32934605 26.6624853,8.23637098 C26.45966,7.91180345 26.4537443,7.5863907 26.6988248,7.28802523 C26.9455955,6.98881454 27.2768768,6.93556518 27.6259053,7.0691112 C32.8359791,9.05793254 36.906006,12.3484049 38.8311557,17.7003882 C41.2456214,24.4123433 39.9069747,30.4616396 34.930995,35.6090778 C32.4877957,38.1371545 29.4690798,39.7228021 26.0480938,40.5266139 C25.3618683,40.6880524 24.6595858,40.7776466 23.9649093,40.9002046 L23.9649093,40.9002046 Z" id="Imported-Layers-Copy-6"></path>
        </g>
    </g>
</svg>