<?xml version="1.0" encoding="UTF-8" standalone="no"?>
<svg width="48px" height="48px" viewBox="0 0 48 48" version="1.1" xmlns="http://www.w3.org/2000/svg" xmlns:xlink="http://www.w3.org/1999/xlink">
    <!-- Generator: Sketch 40.2 (33826) - http://www.bohemiancoding.com/sketch -->
    <title>夜-阵雪</title>
    <desc>Created with Sketch.</desc>
    <defs></defs>
    <g id="Page-1" stroke="none" stroke-width="1" fill="none" fill-rule="evenodd">
        <g id="夜-阵雪">
            <path d="M36.5903897,22.4400792 C35.2332696,19.1767442 32.0664636,17 28.6398941,17 C24.3641865,17 20.8083124,20.1273627 20.1006011,24.4707571 C17.274374,24.4707571 15,26.8327561 15,29.7356754 C15,32.6385948 17.274374,35 20.070584,35 L37.8840121,35 C41.2563199,35 44,32.1505195 44,28.6484908 C44,25.1458684 41.2563199,22.2963879 37.8840121,22.2963879 C37.4487639,22.2963879 37.0146702,22.3444829 36.5903897,22.4400792 Z" id="Fill-2" fill="#FFFFFF"></path>
            <g id="Group-2" transform="translate(4.000000, 3.000000)">
                <path d="M8.2345566,24.8125241 C5.89504951,24.3853614 3.82127757,23.232035 2.00217295,21.3915795 C1.3627514,20.7446072 0.802869175,20.0180841 0.218752313,19.3176636 C-0.0391290678,19.0075395 -0.0565282935,18.7775878 0.101307539,18.5358278 C0.257900571,18.2971752 0.519510357,18.2406195 0.893593709,18.3338431 C3.53454761,18.9901378 6.15064547,18.9460119 8.63624914,17.7769871 C12.6523633,15.8876541 14.9291762,12.665844 15.4915441,8.28060261 C15.8202651,5.71446573 15.1696584,3.32669681 13.8479386,1.11543136 C13.8063048,1.04644585 13.7652923,0.977460334 13.7224156,0.909096309 C13.5732794,0.670443715 13.5689296,0.43116963 13.7491359,0.21178326 C13.930585,-0.00822459983 14.1741741,-0.0473785411 14.4308127,0.0508170576 C18.2617493,1.51318569 21.2544162,3.93265066 22.6699675,7.8679325 C23.0616234,8.95669395 23.3189726,10.0217419 23.4429291,11.0611879 C18.9467604,11.5237129 15.1977949,14.5688392 13.6871692,18.8444155 C11.0543032,19.7468046 8.92267976,22.0262483 8.2345566,24.8125241 L8.2345566,24.8125241 Z" id="Combined-Shape" fill="#FFDB0E"></path>
                <path d="M32.5903897,19.4400792 C31.2332696,16.1767442 28.0664636,14 24.6398941,14 C20.3641865,14 16.8083124,17.1273627 16.1006011,21.4707571 C13.274374,21.4707571 11,23.8327561 11,26.7356754 C11,29.6385948 13.274374,32 16.070584,32 L33.8840121,32 C37.2563199,32 40,29.1505195 40,25.6484908 C40,22.1458684 37.2563199,19.2963879 33.8840121,19.2963879 C33.4487639,19.2963879 33.0146702,19.3444829 32.5903897,19.4400792 Z" id="Fill-2" fill="#FFFFFF"></path>
            </g>
            <polyline id="Fill-1" fill="#FFFFFF" points="34.1324483 41.6878926 34.0588799 41.225313 31.8207354 41.5136485 30.0192817 40.5780494 31.8204578 39.642699 34.0588799 39.9310345 34.1324483 39.4687034 32.5489236 39.2643829 35 37.991481 34.7404285 37.586817 32.2890745 38.8599675 32.884562 37.52393 32.4023421 37.350183 31.5608864 39.238035 29.8013527 40.1517603 29.8013527 38.3026845 31.1980415 36.7031681 30.7896676 36.4143354 29.8013527 37.5463009 29.8013527 35 29.2819322 35 29.2819322 37.5463009 28.2933397 36.4143354 27.8852434 36.7031681 29.2819322 38.3026845 29.2819322 40.1950106 27.4391136 39.238035 26.5973803 37.350183 26.1151604 37.5241786 26.7106479 38.8599675 24.2595715 37.586817 24 37.991481 26.4510764 39.2643829 24.8672741 39.4687034 24.9411201 39.9310345 27.1792646 39.642699 28.9807183 40.5780494 27.178987 41.5136485 24.9411201 41.225313 24.8672741 41.6878926 26.4510764 41.8919646 24 43.1648665 24.2595715 43.5695304 26.7109255 42.29638 26.1151604 43.6324174 26.5973803 43.8061644 27.438836 41.9183125 29.2819322 40.9613368 29.2819322 42.846206 27.8852434 44.4462196 28.2936173 44.7345551 29.2819322 43.6028382 29.2819322 46 29.8013527 46 29.8013527 43.6028382 30.7896676 44.7345551 31.1980415 44.4462196 29.8013527 42.8464546 29.8013527 41.0045872 31.5608864 41.9183125 32.4023421 43.8061644 32.884562 43.6324174 32.2890745 42.29638 34.7404285 43.5695304 35 43.1648665 32.5489236 41.8919646 34.1324483 41.6878926"></polyline>
        </g>
    </g>
</svg>