<?xml version="1.0" encoding="UTF-8" standalone="no"?>
<svg width="48px" height="48px" viewBox="0 0 48 48" version="1.1" xmlns="http://www.w3.org/2000/svg" xmlns:xlink="http://www.w3.org/1999/xlink">
    <!-- Generator: Sketch 40.2 (33826) - http://www.bohemiancoding.com/sketch -->
    <title>大雪</title>
    <desc>Created with Sketch.</desc>
    <defs></defs>
    <g id="Page-1" stroke="none" stroke-width="1" fill="none" fill-rule="evenodd">
        <g id="大雪" fill="#FFFFFF">
            <path d="M33.2513237,9.88487547 C32.7710498,9.88487547 32.2920498,9.93831437 31.8238783,10.0445324 C30.3263665,6.41860465 26.8319599,4 23.0509176,4 C18.3328954,4 14.4091723,7.47484744 13.6282495,12.3008412 L13.5951272,12.3008412 C10.509654,12.3008412 8,14.9252845 8,18.1507505 C8,21.3762164 10.509654,24 13.5951272,24 L33.2513237,24 C36.9724909,24 40,20.8339106 40,16.9427676 C40,13.0509649 36.9724909,9.88487547 33.2513237,9.88487547 L33.2513237,9.88487547 Z" id="Fill-2"></path>
            <polyline id="Fill-1" points="29.1324483 37.6878926 29.0588799 37.225313 26.8207354 37.5136485 25.0192817 36.5780494 26.8204578 35.642699 29.0588799 35.9310345 29.1324483 35.4687034 27.5489236 35.2643829 30 33.991481 29.7404285 33.586817 27.2890745 34.8599675 27.884562 33.52393 27.4023421 33.350183 26.5608864 35.238035 24.8013527 36.1517603 24.8013527 34.3026845 26.1980415 32.7031681 25.7896676 32.4143354 24.8013527 33.5463009 24.8013527 31 24.2819322 31 24.2819322 33.5463009 23.2933397 32.4143354 22.8852434 32.7031681 24.2819322 34.3026845 24.2819322 36.1950106 22.4391136 35.238035 21.5973803 33.350183 21.1151604 33.5241786 21.7106479 34.8599675 19.2595715 33.586817 19 33.991481 21.4510764 35.2643829 19.8672741 35.4687034 19.9411201 35.9310345 22.1792646 35.642699 23.9807183 36.5780494 22.178987 37.5136485 19.9411201 37.225313 19.8672741 37.6878926 21.4510764 37.8919646 19 39.1648665 19.2595715 39.5695304 21.7109255 38.29638 21.1151604 39.6324174 21.5973803 39.8061644 22.438836 37.9183125 24.2819322 36.9613368 24.2819322 38.846206 22.8852434 40.4462196 23.2936173 40.7345551 24.2819322 39.6028382 24.2819322 42 24.8013527 42 24.8013527 39.6028382 25.7896676 40.7345551 26.1980415 40.4462196 24.8013527 38.8464546 24.8013527 37.0045872 26.5608864 37.9183125 27.4023421 39.8061644 27.884562 39.6324174 27.2890745 38.29638 29.7404285 39.5695304 30 39.1648665 27.5489236 37.8919646 29.1324483 37.6878926"></polyline>
            <polyline id="Fill-1" points="39.1324483 29.6878926 39.0588799 29.225313 36.8207354 29.5136485 35.0192817 28.5780494 36.8204578 27.642699 39.0588799 27.9310345 39.1324483 27.4687034 37.5489236 27.2643829 40 25.991481 39.7404285 25.586817 37.2890745 26.8599675 37.884562 25.52393 37.4023421 25.350183 36.5608864 27.238035 34.8013527 28.1517603 34.8013527 26.3026845 36.1980415 24.7031681 35.7896676 24.4143354 34.8013527 25.5463009 34.8013527 23 34.2819322 23 34.2819322 25.5463009 33.2933397 24.4143354 32.8852434 24.7031681 34.2819322 26.3026845 34.2819322 28.1950106 32.4391136 27.238035 31.5973803 25.350183 31.1151604 25.5241786 31.7106479 26.8599675 29.2595715 25.586817 29 25.991481 31.4510764 27.2643829 29.8672741 27.4687034 29.9411201 27.9310345 32.1792646 27.642699 33.9807183 28.5780494 32.178987 29.5136485 29.9411201 29.225313 29.8672741 29.6878926 31.4510764 29.8919646 29 31.1648665 29.2595715 31.5695304 31.7109255 30.29638 31.1151604 31.6324174 31.5973803 31.8061644 32.438836 29.9183125 34.2819322 28.9613368 34.2819322 30.846206 32.8852434 32.4462196 33.2936173 32.7345551 34.2819322 31.6028382 34.2819322 34 34.8013527 34 34.8013527 31.6028382 35.7896676 32.7345551 36.1980415 32.4462196 34.8013527 30.8464546 34.8013527 29.0045872 36.5608864 29.9183125 37.4023421 31.8061644 37.884562 31.6324174 37.2890745 30.29638 39.7404285 31.5695304 40 31.1648665 37.5489236 29.8919646 39.1324483 29.6878926"></polyline>
            <polyline id="Fill-1" points="19.1324483 29.6878926 19.0588799 29.225313 16.8207354 29.5136485 15.0192817 28.5780494 16.8204578 27.642699 19.0588799 27.9310345 19.1324483 27.4687034 17.5489236 27.2643829 20 25.991481 19.7404285 25.586817 17.2890745 26.8599675 17.884562 25.52393 17.4023421 25.350183 16.5608864 27.238035 14.8013527 28.1517603 14.8013527 26.3026845 16.1980415 24.7031681 15.7896676 24.4143354 14.8013527 25.5463009 14.8013527 23 14.2819322 23 14.2819322 25.5463009 13.2933397 24.4143354 12.8852434 24.7031681 14.2819322 26.3026845 14.2819322 28.1950106 12.4391136 27.238035 11.5973803 25.350183 11.1151604 25.5241786 11.7106479 26.8599675 9.25957146 25.586817 9 25.991481 11.4510764 27.2643829 9.86727406 27.4687034 9.94112006 27.9310345 12.1792646 27.642699 13.9807183 28.5780494 12.178987 29.5136485 9.94112006 29.225313 9.86727406 29.6878926 11.4510764 29.8919646 9 31.1648665 9.25957146 31.5695304 11.7109255 30.29638 11.1151604 31.6324174 11.5973803 31.8061644 12.438836 29.9183125 14.2819322 28.9613368 14.2819322 30.846206 12.8852434 32.4462196 13.2936173 32.7345551 14.2819322 31.6028382 14.2819322 34 14.8013527 34 14.8013527 31.6028382 15.7896676 32.7345551 16.1980415 32.4462196 14.8013527 30.8464546 14.8013527 29.0045872 16.5608864 29.9183125 17.4023421 31.8061644 17.884562 31.6324174 17.2890745 30.29638 19.7404285 31.5695304 20 31.1648665 17.5489236 29.8919646 19.1324483 29.6878926"></polyline>
        </g>
    </g>
</svg>