<?xml version="1.0" encoding="UTF-8" standalone="no"?>
<svg width="48px" height="48px" viewBox="0 0 48 48" version="1.1" xmlns="http://www.w3.org/2000/svg" xmlns:xlink="http://www.w3.org/1999/xlink">
    <!-- Generator: Sketch 40.2 (33826) - http://www.bohemiancoding.com/sketch -->
    <title>暴雪</title>
    <desc>Created with Sketch.</desc>
    <defs></defs>
    <g id="Page-1" stroke="none" stroke-width="1" fill="none" fill-rule="evenodd">
        <g id="暴雪" fill="#FFFFFF">
            <path d="M33.2513237,9.88487547 C32.7710498,9.88487547 32.2920498,9.93831437 31.8238783,10.0445324 C30.3263665,6.41860465 26.8319599,4 23.0509176,4 C18.3328954,4 14.4091723,7.47484744 13.6282495,12.3008412 L13.5951272,12.3008412 C10.509654,12.3008412 8,14.9252845 8,18.1507505 C8,21.3762164 10.509654,24 13.5951272,24 L33.2513237,24 C36.9724909,24 40,20.8339106 40,16.9427676 C40,13.0509649 36.9724909,9.88487547 33.2513237,9.88487547 L33.2513237,9.88487547 Z" id="Fill-2"></path>
            <polyline id="Fill-1" points="42.1324483 39.6878926 42.0588799 39.225313 39.8207354 39.5136485 38.0192817 38.5780494 39.8204578 37.642699 42.0588799 37.9310345 42.1324483 37.4687034 40.5489236 37.2643829 43 35.991481 42.7404285 35.586817 40.2890745 36.8599675 40.884562 35.52393 40.4023421 35.350183 39.5608864 37.238035 37.8013527 38.1517603 37.8013527 36.3026845 39.1980415 34.7031681 38.7896676 34.4143354 37.8013527 35.5463009 37.8013527 33 37.2819322 33 37.2819322 35.5463009 36.2933397 34.4143354 35.8852434 34.7031681 37.2819322 36.3026845 37.2819322 38.1950106 35.4391136 37.238035 34.5973803 35.350183 34.1151604 35.5241786 34.7106479 36.8599675 32.2595715 35.586817 32 35.991481 34.4510764 37.2643829 32.8672741 37.4687034 32.9411201 37.9310345 35.1792646 37.642699 36.9807183 38.5780494 35.178987 39.5136485 32.9411201 39.225313 32.8672741 39.6878926 34.4510764 39.8919646 32 41.1648665 32.2595715 41.5695304 34.7109255 40.29638 34.1151604 41.6324174 34.5973803 41.8061644 35.438836 39.9183125 37.2819322 38.9613368 37.2819322 40.846206 35.8852434 42.4462196 36.2936173 42.7345551 37.2819322 41.6028382 37.2819322 44 37.8013527 44 37.8013527 41.6028382 38.7896676 42.7345551 39.1980415 42.4462196 37.8013527 40.8464546 37.8013527 39.0045872 39.5608864 39.9183125 40.4023421 41.8061644 40.884562 41.6324174 40.2890745 40.29638 42.7404285 41.5695304 43 41.1648665 40.5489236 39.8919646 42.1324483 39.6878926"></polyline>
            <polyline id="Fill-1" points="36.1324483 29.6878926 36.0588799 29.225313 33.8207354 29.5136485 32.0192817 28.5780494 33.8204578 27.642699 36.0588799 27.9310345 36.1324483 27.4687034 34.5489236 27.2643829 37 25.991481 36.7404285 25.586817 34.2890745 26.8599675 34.884562 25.52393 34.4023421 25.350183 33.5608864 27.238035 31.8013527 28.1517603 31.8013527 26.3026845 33.1980415 24.7031681 32.7896676 24.4143354 31.8013527 25.5463009 31.8013527 23 31.2819322 23 31.2819322 25.5463009 30.2933397 24.4143354 29.8852434 24.7031681 31.2819322 26.3026845 31.2819322 28.1950106 29.4391136 27.238035 28.5973803 25.350183 28.1151604 25.5241786 28.7106479 26.8599675 26.2595715 25.586817 26 25.991481 28.4510764 27.2643829 26.8672741 27.4687034 26.9411201 27.9310345 29.1792646 27.642699 30.9807183 28.5780494 29.178987 29.5136485 26.9411201 29.225313 26.8672741 29.6878926 28.4510764 29.8919646 26 31.1648665 26.2595715 31.5695304 28.7109255 30.29638 28.1151604 31.6324174 28.5973803 31.8061644 29.438836 29.9183125 31.2819322 28.9613368 31.2819322 30.846206 29.8852434 32.4462196 30.2936173 32.7345551 31.2819322 31.6028382 31.2819322 34 31.8013527 34 31.8013527 31.6028382 32.7896676 32.7345551 33.1980415 32.4462196 31.8013527 30.8464546 31.8013527 29.0045872 33.5608864 29.9183125 34.4023421 31.8061644 34.884562 31.6324174 34.2890745 30.29638 36.7404285 31.5695304 37 31.1648665 34.5489236 29.8919646 36.1324483 29.6878926"></polyline>
            <polyline id="Fill-1" points="29.1324483 39.6878926 29.0588799 39.225313 26.8207354 39.5136485 25.0192817 38.5780494 26.8204578 37.642699 29.0588799 37.9310345 29.1324483 37.4687034 27.5489236 37.2643829 30 35.991481 29.7404285 35.586817 27.2890745 36.8599675 27.884562 35.52393 27.4023421 35.350183 26.5608864 37.238035 24.8013527 38.1517603 24.8013527 36.3026845 26.1980415 34.7031681 25.7896676 34.4143354 24.8013527 35.5463009 24.8013527 33 24.2819322 33 24.2819322 35.5463009 23.2933397 34.4143354 22.8852434 34.7031681 24.2819322 36.3026845 24.2819322 38.1950106 22.4391136 37.238035 21.5973803 35.350183 21.1151604 35.5241786 21.7106479 36.8599675 19.2595715 35.586817 19 35.991481 21.4510764 37.2643829 19.8672741 37.4687034 19.9411201 37.9310345 22.1792646 37.642699 23.9807183 38.5780494 22.178987 39.5136485 19.9411201 39.225313 19.8672741 39.6878926 21.4510764 39.8919646 19 41.1648665 19.2595715 41.5695304 21.7109255 40.29638 21.1151604 41.6324174 21.5973803 41.8061644 22.438836 39.9183125 24.2819322 38.9613368 24.2819322 40.846206 22.8852434 42.4462196 23.2936173 42.7345551 24.2819322 41.6028382 24.2819322 44 24.8013527 44 24.8013527 41.6028382 25.7896676 42.7345551 26.1980415 42.4462196 24.8013527 40.8464546 24.8013527 39.0045872 26.5608864 39.9183125 27.4023421 41.8061644 27.884562 41.6324174 27.2890745 40.29638 29.7404285 41.5695304 30 41.1648665 27.5489236 39.8919646 29.1324483 39.6878926"></polyline>
            <polyline id="Fill-1" points="22.1324483 29.6878926 22.0588799 29.225313 19.8207354 29.5136485 18.0192817 28.5780494 19.8204578 27.642699 22.0588799 27.9310345 22.1324483 27.4687034 20.5489236 27.2643829 23 25.991481 22.7404285 25.586817 20.2890745 26.8599675 20.884562 25.52393 20.4023421 25.350183 19.5608864 27.238035 17.8013527 28.1517603 17.8013527 26.3026845 19.1980415 24.7031681 18.7896676 24.4143354 17.8013527 25.5463009 17.8013527 23 17.2819322 23 17.2819322 25.5463009 16.2933397 24.4143354 15.8852434 24.7031681 17.2819322 26.3026845 17.2819322 28.1950106 15.4391136 27.238035 14.5973803 25.350183 14.1151604 25.5241786 14.7106479 26.8599675 12.2595715 25.586817 12 25.991481 14.4510764 27.2643829 12.8672741 27.4687034 12.9411201 27.9310345 15.1792646 27.642699 16.9807183 28.5780494 15.178987 29.5136485 12.9411201 29.225313 12.8672741 29.6878926 14.4510764 29.8919646 12 31.1648665 12.2595715 31.5695304 14.7109255 30.29638 14.1151604 31.6324174 14.5973803 31.8061644 15.438836 29.9183125 17.2819322 28.9613368 17.2819322 30.846206 15.8852434 32.4462196 16.2936173 32.7345551 17.2819322 31.6028382 17.2819322 34 17.8013527 34 17.8013527 31.6028382 18.7896676 32.7345551 19.1980415 32.4462196 17.8013527 30.8464546 17.8013527 29.0045872 19.5608864 29.9183125 20.4023421 31.8061644 20.884562 31.6324174 20.2890745 30.29638 22.7404285 31.5695304 23 31.1648665 20.5489236 29.8919646 22.1324483 29.6878926"></polyline>
        </g>
    </g>
</svg>