<?xml version="1.0" encoding="UTF-8" standalone="no"?>
<svg width="48px" height="48px" viewBox="0 0 48 48" version="1.1" xmlns="http://www.w3.org/2000/svg" xmlns:xlink="http://www.w3.org/1999/xlink">
    <!-- Generator: Sketch 40.2 (33826) - http://www.bohemiancoding.com/sketch -->
    <title>热</title>
    <desc>Created with Sketch.</desc>
    <defs></defs>
    <g id="Page-1" stroke="none" stroke-width="1" fill="none" fill-rule="evenodd">
        <g id="热">
            <path d="M37,25.0702576 C39.3912055,26.4534952 41,29.0388706 41,32 C41,36.418278 37.418278,40 33,40 C28.581722,40 25,36.418278 25,32 C25,29.0388706 26.6087945,26.4534952 29,25.0702576 L29,9.99683887 C29,7.78944571 30.7953562,6 33,6 C35.209139,6 37,7.79412025 37,9.99683887 L37,25.0702576 Z" id="Combined-Shape" stroke="#FFFFFF" stroke-width="2"></path>
            <circle id="Oval-8" fill="#F6001E" cx="33" cy="32" r="5"></circle>
            <rect id="Rectangle-2" fill="#F6001E" x="32" y="9" width="2" height="27"></rect>
            <circle id="Oval-9" fill="#FFDB0E" cx="17.5" cy="22.5" r="5.5"></circle>
            <path d="M4.52512627,22 C4.24898389,22 4.02512627,22.2238576 4.02512627,22.5 C4.02512627,22.7761424 4.24898389,23 4.52512627,23 L9.52512627,23 C9.80126864,23 10.0251263,22.7761424 10.0251263,22.5 C10.0251263,22.2238576 9.80126864,22 9.52512627,22 L4.52512627,22 L4.52512627,22 Z" id="Path-2" fill="#FFDB0E"></path>
            <path d="M15,11.5 C14.7238576,11.5 14.5,11.7238576 14.5,12 C14.5,12.2761424 14.7238576,12.5 15,12.5 L20,12.5 C20.2761424,12.5 20.5,12.2761424 20.5,12 C20.5,11.7238576 20.2761424,11.5 20,11.5 L15,11.5 L15,11.5 Z" id="Path-2" fill="#FFDB0E" transform="translate(17.500000, 12.000000) rotate(-270.000000) translate(-17.500000, -12.000000) "></path>
            <path d="M15,32.5 C14.7238576,32.5 14.5,32.7238576 14.5,33 C14.5,33.2761424 14.7238576,33.5 15,33.5 L20,33.5 C20.2761424,33.5 20.5,33.2761424 20.5,33 C20.5,32.7238576 20.2761424,32.5 20,32.5 L15,32.5 L15,32.5 Z" id="Path-2" fill="#FFDB0E" transform="translate(17.500000, 33.000000) rotate(-270.000000) translate(-17.500000, -33.000000) "></path>
            <path d="M22.4246212,14.5753788 C22.1484788,14.5753788 21.9246212,14.7992364 21.9246212,15.0753788 C21.9246212,15.3515212 22.1484788,15.5753788 22.4246212,15.5753788 L27.4246212,15.5753788 C27.7007636,15.5753788 27.9246212,15.3515212 27.9246212,15.0753788 C27.9246212,14.7992364 27.7007636,14.5753788 27.4246212,14.5753788 L22.4246212,14.5753788 L22.4246212,14.5753788 Z" id="Path-2" fill="#FFDB0E" transform="translate(24.924621, 15.075379) rotate(-585.000000) translate(-24.924621, -15.075379) "></path>
            <path d="M7.5753788,29.4246212 C7.29923642,29.4246212 7.0753788,29.6484788 7.0753788,29.9246212 C7.0753788,30.2007636 7.29923642,30.4246212 7.5753788,30.4246212 L12.5753788,30.4246212 C12.8515212,30.4246212 13.0753788,30.2007636 13.0753788,29.9246212 C13.0753788,29.6484788 12.8515212,29.4246212 12.5753788,29.4246212 L7.5753788,29.4246212 L7.5753788,29.4246212 Z" id="Path-2" fill="#FFDB0E" transform="translate(10.075379, 29.924621) rotate(-585.000000) translate(-10.075379, -29.924621) "></path>
            <path d="M7.5753788,14.5753788 C7.29923642,14.5753788 7.0753788,14.7992364 7.0753788,15.0753788 C7.0753788,15.3515212 7.29923642,15.5753788 7.5753788,15.5753788 L12.5753788,15.5753788 C12.8515212,15.5753788 13.0753788,15.3515212 13.0753788,15.0753788 C13.0753788,14.7992364 12.8515212,14.5753788 12.5753788,14.5753788 L7.5753788,14.5753788 L7.5753788,14.5753788 Z" id="Path-2" fill="#FFDB0E" transform="translate(10.075379, 15.075379) rotate(-315.000000) translate(-10.075379, -15.075379) "></path>
            <path d="M27,23 L25.5,23 C25.2238576,23 25,22.7761424 25,22.5 C25,22.2238576 25.2238576,22 25.5,22 L27,22 L27,23 Z" id="Combined-Shape" fill="#FFDB0E"></path>
            <path d="M23.4706484,29.1737879 L22.8111805,28.51432 C22.6159184,28.3190578 22.6159184,28.0024754 22.8111805,27.8072132 C23.0064426,27.6119511 23.3230251,27.6119511 23.5182873,27.8072132 L23.8430086,28.1319345 C23.7071489,28.456458 23.5813681,28.8036239 23.4706484,29.1737879 L23.4706484,29.1737879 Z" id="Combined-Shape" fill="#FFDB0E"></path>
        </g>
    </g>
</svg>