<?xml version="1.0" encoding="UTF-8" standalone="no"?>
<svg width="48px" height="48px" viewBox="0 0 48 48" version="1.1" xmlns="http://www.w3.org/2000/svg" xmlns:xlink="http://www.w3.org/1999/xlink">
    <!-- Generator: Sketch 40.2 (33826) - http://www.bohemiancoding.com/sketch -->
    <title>阴天</title>
    <desc>Created with Sketch.</desc>
    <defs></defs>
    <g id="Page-1" stroke="none" stroke-width="1" fill="none" fill-rule="evenodd">
        <g id="阴天">
            <path d="M36.5903897,26.4400792 C35.2332696,23.1767442 32.0664636,21 28.6398941,21 C24.3641865,21 20.8083124,24.1273627 20.1006011,28.4707571 C17.274374,28.4707571 15,30.8327561 15,33.7356754 C15,36.6385948 17.274374,39 20.070584,39 L37.8840121,39 C41.2563199,39 44,36.1505195 44,32.6484908 C44,29.1458684 41.2563199,26.2963879 37.8840121,26.2963879 C37.4487639,26.2963879 37.0146702,26.3444829 36.5903897,26.4400792 Z" id="Fill-2" fill="#FFFFFF"></path>
            <path d="M17,14.5 C17,14.7761424 17.2238576,15 17.5,15 C17.7761424,15 18,14.7761424 18,14.5 L18,9.5 C18,9.22385763 17.7761424,9 17.5,9 C17.2238576,9 17,9.22385763 17,9.5 L17,14.5 Z" id="Path-2" fill="#FFDB0E"></path>
            <path d="M9.5753788,17.5753788 C9.5753788,17.8515212 9.79923642,18.0753788 10.0753788,18.0753788 C10.3515212,18.0753788 10.5753788,17.8515212 10.5753788,17.5753788 L10.5753788,12.5753788 C10.5753788,12.2992364 10.3515212,12.0753788 10.0753788,12.0753788 C9.79923642,12.0753788 9.5753788,12.2992364 9.5753788,12.5753788 L9.5753788,17.5753788 Z" id="Path-2" fill="#FFDB0E" transform="translate(10.075379, 15.075379) rotate(-225.000000) translate(-10.075379, -15.075379) "></path>
            <path d="M24.4246212,17.5753788 C24.4246212,17.8515212 24.6484788,18.0753788 24.9246212,18.0753788 C25.2007636,18.0753788 25.4246212,17.8515212 25.4246212,17.5753788 L25.4246212,12.5753788 C25.4246212,12.2992364 25.2007636,12.0753788 24.9246212,12.0753788 C24.6484788,12.0753788 24.4246212,12.2992364 24.4246212,12.5753788 L24.4246212,17.5753788 Z" id="Path-2" fill="#FFDB0E" transform="translate(24.924621, 15.075379) rotate(-315.000000) translate(-24.924621, -15.075379) "></path>
            <path d="M9.5753788,32.4246212 C9.5753788,32.7007636 9.79923642,32.9246212 10.0753788,32.9246212 C10.3515212,32.9246212 10.5753788,32.7007636 10.5753788,32.4246212 L10.5753788,27.4246212 C10.5753788,27.1484788 10.3515212,26.9246212 10.0753788,26.9246212 C9.79923642,26.9246212 9.5753788,27.1484788 9.5753788,27.4246212 L9.5753788,32.4246212 Z" id="Path-2" fill="#FFDB0E" transform="translate(10.075379, 29.924621) rotate(-315.000000) translate(-10.075379, -29.924621) "></path>
            <path d="M6.5,25 C6.5,25.2761424 6.72385763,25.5 7,25.5 C7.27614237,25.5 7.5,25.2761424 7.5,25 L7.5,20 C7.5,19.7238576 7.27614237,19.5 7,19.5 C6.72385763,19.5 6.5,19.7238576 6.5,20 L6.5,25 Z" id="Path-2" fill="#FFDB0E" transform="translate(7.000000, 22.500000) rotate(-270.000000) translate(-7.000000, -22.500000) "></path>
            <path d="M15.5415527,27.6397884 C13.4730196,26.8489267 12,24.8431546 12,22.4997169 C12,19.4673426 14.4673426,17 17.4997169,17 C19.8051574,17 21.7837935,18.4256388 22.6003641,20.4414066 C20.4826267,21.7675644 18.9005686,23.9210771 18.2708639,26.5303643 C18.2708639,26.5396191 18.4626914,26.494267 18.1683739,26.5396191 C17.1985353,26.6890638 16.30411,27.0756793 15.5415527,27.6397884 L15.5415527,27.6397884 Z" id="Combined-Shape" fill="#FFDB0E"></path>
        </g>
    </g>
</svg>