<?xml version="1.0" encoding="UTF-8" standalone="no"?>
<svg width="48px" height="48px" viewBox="0 0 48 48" version="1.1" xmlns="http://www.w3.org/2000/svg" xmlns:xlink="http://www.w3.org/1999/xlink">
    <!-- Generator: Sketch 40.2 (33826) - http://www.bohemiancoding.com/sketch -->
    <title>雨夹雪</title>
    <desc>Created with Sketch.</desc>
    <defs></defs>
    <g id="Page-1" stroke="none" stroke-width="1" fill="none" fill-rule="evenodd">
        <g id="雨夹雪">
            <path d="M15,29 L17,32" id="Path-3" stroke="#53C0FF" stroke-width="2" stroke-linecap="round" stroke-linejoin="round"></path>
            <path d="M33.2513237,11.8848755 C32.7710498,11.8848755 32.2920498,11.9383144 31.8238783,12.0445324 C30.3263665,8.41860465 26.8319599,6 23.0509176,6 C18.3328954,6 14.4091723,9.47484744 13.6282495,14.3008412 L13.5951272,14.3008412 C10.509654,14.3008412 8,16.9252845 8,20.1507505 C8,23.3762164 10.509654,26 13.5951272,26 L33.2513237,26 C36.9724909,26 40,22.8339106 40,18.9427676 C40,15.0509649 36.9724909,11.8848755 33.2513237,11.8848755 L33.2513237,11.8848755 Z" id="Fill-2" fill="#FFFFFF"></path>
            <path d="M32,29 L34,32" id="Path-3" stroke="#53C0FF" stroke-width="2" stroke-linecap="round" stroke-linejoin="round"></path>
            <polyline id="Fill-1" fill="#FFFFFF" points="29.1324483 37.6878926 29.0588799 37.225313 26.8207354 37.5136485 25.0192817 36.5780494 26.8204578 35.642699 29.0588799 35.9310345 29.1324483 35.4687034 27.5489236 35.2643829 30 33.991481 29.7404285 33.586817 27.2890745 34.8599675 27.884562 33.52393 27.4023421 33.350183 26.5608864 35.238035 24.8013527 36.1517603 24.8013527 34.3026845 26.1980415 32.7031681 25.7896676 32.4143354 24.8013527 33.5463009 24.8013527 31 24.2819322 31 24.2819322 33.5463009 23.2933397 32.4143354 22.8852434 32.7031681 24.2819322 34.3026845 24.2819322 36.1950106 22.4391136 35.238035 21.5973803 33.350183 21.1151604 33.5241786 21.7106479 34.8599675 19.2595715 33.586817 19 33.991481 21.4510764 35.2643829 19.8672741 35.4687034 19.9411201 35.9310345 22.1792646 35.642699 23.9807183 36.5780494 22.178987 37.5136485 19.9411201 37.225313 19.8672741 37.6878926 21.4510764 37.8919646 19 39.1648665 19.2595715 39.5695304 21.7109255 38.29638 21.1151604 39.6324174 21.5973803 39.8061644 22.438836 37.9183125 24.2819322 36.9613368 24.2819322 38.846206 22.8852434 40.4462196 23.2936173 40.7345551 24.2819322 39.6028382 24.2819322 42 24.8013527 42 24.8013527 39.6028382 25.7896676 40.7345551 26.1980415 40.4462196 24.8013527 38.8464546 24.8013527 37.0045872 26.5608864 37.9183125 27.4023421 39.8061644 27.884562 39.6324174 27.2890745 38.29638 29.7404285 39.5695304 30 39.1648665 27.5489236 37.8919646 29.1324483 37.6878926"></polyline>
        </g>
    </g>
</svg>