<?xml version="1.0" encoding="UTF-8" standalone="no"?>
<svg width="48px" height="48px" viewBox="0 0 48 48" version="1.1" xmlns="http://www.w3.org/2000/svg" xmlns:xlink="http://www.w3.org/1999/xlink">
    <!-- Generator: Sketch 40.2 (33826) - http://www.bohemiancoding.com/sketch -->
    <title>雾</title>
    <desc>Created with Sketch.</desc>
    <defs></defs>
    <g id="Page-1" stroke="none" stroke-width="1" fill="none" fill-rule="evenodd">
        <g id="雾">
            <path d="M33.2513237,12.8848755 C32.7710498,12.8848755 32.2920498,12.9383144 31.8238783,13.0445324 C30.3263665,9.41860465 26.8319599,7 23.0509176,7 C18.3328954,7 14.4091723,10.4748474 13.6282495,15.3008412 L13.5951272,15.3008412 C10.509654,15.3008412 8,17.9252845 8,21.1507505 C8,24.3762164 10.509654,27 13.5951272,27 L33.2513237,27 C36.9724909,27 40,23.8339106 40,19.9427676 C40,16.0509649 36.9724909,12.8848755 33.2513237,12.8848755 L33.2513237,12.8848755 Z" id="Fill-2" fill="#FFFFFF"></path>
            <path d="M12,31 L37,31" id="Path-5" stroke="#FFFFFF" stroke-width="2" stroke-linecap="round" stroke-linejoin="round"></path>
            <path d="M18,36 L37,36" id="Path-5" stroke="#FFFFFF" stroke-width="2" stroke-linecap="round" stroke-linejoin="round"></path>
            <path d="M24,41 L37,41" id="Path-5" stroke="#FFFFFF" stroke-width="2" stroke-linecap="round" stroke-linejoin="round"></path>
        </g>
    </g>
</svg>