<svg xmlns="http://www.w3.org/2000/svg" width="16" height="16" viewBox="0 0 16 16">
  <g fill="none" fill-rule="evenodd">
    <rect width="16" height="16"/>
    <path fill="#C5CFE0" d="M15,3 C15.5522847,3 16,3.44771525 16,4 L16,12 C16,12.5522847 15.5522847,13 15,13 L1,13 C0.44771525,13 6.76353751e-17,12.5522847 0,12 L0,4 C-6.76353751e-17,3.44771525 0.44771525,3 1,3 L15,3 Z M14.5,4 L1.5,4 C1.22385763,4 1,4.22385763 1,4.5 L1,4.5 L1,11.5 C1,11.7761424 1.22385763,12 1.5,12 L1.5,12 L14.5,12 C14.7761424,12 15,11.7761424 15,11.5 L15,11.5 L15,4.5 C15,4.22385763 14.7761424,4 14.5,4 L14.5,4 Z M14,5 L14,11 L2,11 L2,5 L14,5 Z"/>
  </g>
</svg>
