<svg xmlns="http://www.w3.org/2000/svg" width="32" height="32" viewBox="0 0 32 32">
  <g fill="none" fill-rule="evenodd" transform="translate(5 5)">
    <path fill="#29B2DC" d="M16.9283288,15 L5.10495949,15 L2.63731791,18.2942717 L1.82858183,17.7061 L3.85564137,15 L0,15 L0,14 L4.60471181,14 L10.488492,6.14522437 L6.65657002,0.876331621 L7.46530611,0.288159923 L11.1158689,5.30768378 L14.9738757,0.157291233 L15.7826118,0.745462931 L11.7313051,6.15390853 L13.759392,8.94252797 L17.4375534,14 L21,14 L21,15 L18.1648262,15 L20.0534778,17.596896 L19.2447417,18.1850677 L16.9283288,15 Z M16.2010561,14 L11.1039282,6.99144911 L5.85402992,14 L16.2010561,14 Z" opacity=".2"/>
    <path fill="#29B2DC" d="M11,8 C9.34314575,8 8,6.65685425 8,5 C8,3.34314575 9.34314575,2 11,2 C12.6568542,2 14,3.34314575 14,5 C14,6.65685425 12.6568542,8 11,8 Z M6,17 C4.34314575,17 3,15.6568542 3,14 C3,12.3431458 4.34314575,11 6,11 C7.65685425,11 9,12.3431458 9,14 C9,15.6568542 7.65685425,17 6,17 Z M16,17 C14.3431458,17 13,15.6568542 13,14 C13,12.3431458 14.3431458,11 16,11 C17.6568542,11 19,12.3431458 19,14 C19,15.6568542 17.6568542,17 16,17 Z"/>
    <circle cx="11" cy="11" r="11" stroke="#29B2DC"/>
  </g>
</svg>
