<svg xmlns="http://www.w3.org/2000/svg" width="32" height="32" viewBox="0 0 32 32">
  <path fill="#29B2DC" fill-rule="evenodd" d="M9.65775849,18.7948145 C11.2971405,17.0730805 13.6115808,16 16.1766525,16 C18.7417242,16 21.0561646,17.0730805 22.6955465,18.7948145 L21.2807838,20.2095772 C20.0038182,18.8495231 18.1894437,18 16.1766525,18 C14.1638613,18 12.3494869,18.8495231 11.0725212,20.2095772 L9.65775849,18.7948145 Z M4,13.137056 C7.0878958,9.96801851 11.4024465,8 16.1766525,8 C20.9508585,8 25.2654092,9.96801851 28.353305,13.137056 L26.9389558,14.5514052 C24.2131083,11.7442346 20.3985743,10 16.1766525,10 C11.9547307,10 8.14019673,11.7442346 5.41434918,14.5514052 L4,13.137056 Z M6.8287401,15.9657961 C9.19250246,13.5204734 12.5070147,12 16.1766525,12 C19.8462903,12 23.1608026,13.5204734 25.5245649,15.9657961 L24.1101095,17.3802515 C22.1084895,15.2967475 19.2940068,14 16.1766525,14 C13.0592982,14 10.2448155,15.2967475 8.24319552,17.3802515 L6.8287401,15.9657961 Z M16.0284066,26 C17.6852608,26 19.0284066,24.6568542 19.0284066,23 C19.0284066,21.3431458 17.6852608,20 16.0284066,20 C14.3715523,20 13.0284066,21.3431458 13.0284066,23 C13.0284066,24.6568542 14.3715523,26 16.0284066,26 Z"/>
</svg>
