<svg xmlns="http://www.w3.org/2000/svg" width="96" height="96" viewBox="0 0 96 96">
  <g fill="none" fill-rule="evenodd">
    <circle cx="48" cy="48" r="32" fill="#EBEBEB" fill-opacity=".5"/>
    <path fill="#000" fill-opacity=".2" d="M38.1005051,38.1005051 C38.8815536,37.3194565 40.1478836,37.3194565 40.9289322,38.1005051 L48,45.1715729 L55.0710678,38.1005051 C55.8521164,37.3194565 57.1184464,37.3194565 57.8994949,38.1005051 C58.6805435,38.8815536 58.6805435,40.1478836 57.8994949,40.9289322 L50.8284271,48 L57.8994949,55.0710678 C58.6805435,55.8521164 58.6805435,57.1184464 57.8994949,57.8994949 C57.1184464,58.6805435 55.8521164,58.6805435 55.0710678,57.8994949 L48,50.8284271 L40.9289322,57.8994949 C40.1478836,58.6805435 38.8815536,58.6805435 38.1005051,57.8994949 C37.3194565,57.1184464 37.3194565,55.8521164 38.1005051,55.0710678 L45.1715729,48 L38.1005051,40.9289322 C37.3194565,40.1478836 37.3194565,38.8815536 38.1005051,38.1005051 Z"/>
  </g>
</svg>
