<svg xmlns="http://www.w3.org/2000/svg" width="96" height="96" viewBox="0 0 96 96">
  <defs>
    <linearGradient id="update_fail-a" x1="50%" x2="50%" y1="0%" y2="100%">
      <stop offset="0%" stop-color="#FF674A"/>
      <stop offset="100%" stop-color="#EC5783"/>
    </linearGradient>
  </defs>
  <g fill="none" fill-rule="evenodd">
    <circle cx="48" cy="48" r="48" fill="url(#update_fail-a)"/>
    <path fill="#FFF" fill-rule="nonzero" d="M33.4142136,30.7304474 L49.677,46.9936609 L65.9411255,30.7304474 C66.6810663,29.9905066 67.8565504,29.9515624 68.6423379,30.6136146 L68.7695526,30.7304474 C69.5506012,31.511496 69.5506012,32.7778259 68.7695526,33.5588745 L68.7695526,33.5588745 L52.506,49.8216609 L68.7695526,66.0857864 C69.5506012,66.866835 69.5506012,68.133165 68.7695526,68.9142136 C67.988504,69.6952621 66.7221741,69.6952621 65.9411255,68.9142136 L49.677,52.6506609 L33.4142136,68.9142136 C32.6742728,69.6541543 31.4987886,69.6930986 30.7130012,69.0310463 L30.5857864,68.9142136 C29.8047379,68.133165 29.8047379,66.866835 30.5857864,66.0857864 L30.5857864,66.0857864 L46.849,49.8216609 L30.5857864,33.5588745 C29.8047379,32.7778259 29.8047379,31.511496 30.5857864,30.7304474 C31.366835,29.9493988 32.633165,29.9493988 33.4142136,30.7304474 Z"/>
  </g>
</svg>
