<svg xmlns="http://www.w3.org/2000/svg" width="96" height="96" viewBox="0 0 96 96">
  <g fill="none" fill-rule="evenodd">
    <path fill="#EBEBEB" fill-opacity=".5" d="M0,48 C0,21.4902857 21.4902857,0 48,0 C74.5097143,0 96,21.4902857 96,48 C96,74.5097143 74.5097143,96 48,96 C21.4902857,96 0,74.5097143 0,48 Z"/>
    <g fill="#000" fill-opacity=".2" transform="translate(7 11)">
      <path d="M77,37 L83,47 L77.9276549,47.0009658 C73.88535,63.6432369 58.8857133,76 41,76 C23.1142867,76 8.11464996,63.6432369 4.07234509,47.0009658 L6.13440491,47.0009617 C10.1311245,62.5275187 24.2257915,74 41,74 C57.7742085,74 71.8688755,62.5275187 75.8655951,47.0009617 L71,47 L77,37 Z M41,1.17467056e-14 C58.1618624,1.59501495e-14 72.6665253,11.3768235 77.3835619,27.0000436 L75.288469,27.0000615 C70.6398278,12.4978284 57.0458635,2 41,2 C24.9541365,2 11.3601722,12.4978284 6.71153095,27.0000615 L12,27 L6,37 L1.17858065e-13,27 L4.61643809,27.0000436 C9.33347472,11.3768235 23.8381376,7.54326161e-15 41,1.17467056e-14 Z"/>
      <rect width="4" height="28" x="39" y="18" rx="1"/>
      <circle cx="41" cy="56" r="3"/>
    </g>
  </g>
</svg>
