<svg xmlns="http://www.w3.org/2000/svg" width="96" height="96" viewBox="0 0 96 96">
  <defs>
    <linearGradient id="update_success-a" x1="50%" x2="50%" y1="0%" y2="100%">
      <stop offset="0%" stop-color="#55C600"/>
      <stop offset="100%" stop-color="#00C3B6"/>
    </linearGradient>
  </defs>
  <g fill="none" fill-rule="evenodd" transform="translate(16 16)">
    <path fill="url(#update_success-a)" d="M32,64 C49.673112,64 64,49.673112 64,32 C64,14.326888 49.673112,0 32,0 C14.326888,0 0,14.326888 0,32 C0,49.673112 14.326888,64 32,64 Z"/>
    <path fill="#FFF" fill-rule="nonzero" d="M25.6254813,42.6563455 C27.6255279,44.8198886 30.8633774,44.809243 32.8557804,42.6343583 L50.5211822,23.3510037 C51.2673144,22.5365342 51.211916,21.2714166 50.3974465,20.5252845 C49.582977,19.7791523 48.3178594,19.8345507 47.5717273,20.6490202 L30.1523782,39.7114254 C29.6576555,40.2528122 28.846769,40.248356 28.347111,39.7078528 L18.8019582,29.3824187 C18.0521578,28.5713249 16.7868031,28.5216367 15.9757093,29.2714371 C15.1646155,30.0212375 15.1149273,31.2865923 15.8647277,32.0976861 L25.6254813,42.6563455 Z"/>
  </g>
</svg>
