<?xml version="1.0" encoding="UTF-8"?>
<svg width="64px" height="64px" viewBox="0 0 64 64" version="1.1" xmlns="http://www.w3.org/2000/svg" xmlns:xlink="http://www.w3.org/1999/xlink">
    <!-- Generator: Sketch 45.2 (43514) - http://www.bohemiancoding.com/sketch -->
    <title>OSD_rotate</title>
    <desc>Created with Sketch.</desc>
    <defs></defs>
    <g id="Page-1" stroke="none" stroke-width="1" fill="none" fill-rule="evenodd" opacity="0.900000036">
        <g id="OSD_rotate" fill="#000000">
            <path d="M22.2117647,52.515625 L25.1686275,49.671875 L33.427451,57.8984375 L32,58 C25.2025796,58 19.3059052,55.6979398 14.3098072,51.09375 C9.31370069,46.4895595 6.54379357,40.83597 6,34.1328125 L9.2627451,34.1328125 C9.67059019,38.195332 11.030054,41.851543 13.3411765,45.1015625 C15.6522963,48.3515755 18.6091329,50.822908 22.2117647,52.515625 L22.2117647,52.515625 Z M38.1176471,51.90625 L51.9843137,38.09375 L25.8823529,12.09375 L12.0156863,25.90625 L38.1176471,51.90625 Z M28.1254902,9.7578125 L54.3294118,35.859375 C55.0091525,36.46875 55.3490196,37.2135395 55.3490196,38.09375 C55.3490196,38.9739605 55.0091525,39.752602 54.3294118,40.4296875 L40.4627451,54.2421875 C39.8509804,54.9192743 39.1032701,55.2578125 38.2196078,55.2578125 C37.3359455,55.2578125 36.5542505,54.9192743 35.8745098,54.2421875 L9.67058824,28.140625 C8.99084619,27.53125 8.65098039,26.7864605 8.65098039,25.90625 C8.65098039,25.0260395 8.99084619,24.247398 9.67058824,23.5703125 L23.5372549,9.7578125 C24.1490196,9.080727 24.8967299,8.7421875 25.7803922,8.7421875 C26.6640545,8.7421875 27.4457495,9.080727 28.1254902,9.7578125 L28.1254902,9.7578125 Z M41.7882353,11.484375 L38.8313725,14.328125 L30.572549,6.1015625 L32,6 C38.7974204,6 44.6940948,8.3020595 49.6901928,12.90625 C54.6862973,17.5104405 57.4562048,23.16403 58,29.8671875 L54.7372549,29.8671875 C54.3294118,25.804668 52.9699433,22.148457 50.6588235,18.8984375 C48.3477037,15.6484245 45.3908671,13.177092 41.7882353,11.484375 L41.7882353,11.484375 Z" id="rotate"></path>
        </g>
    </g>
</svg>