<?xml version="1.0" encoding="UTF-8"?>
<svg width="24px" height="24px" viewBox="0 0 24 24" version="1.1" xmlns="http://www.w3.org/2000/svg" xmlns:xlink="http://www.w3.org/1999/xlink">
    <!-- Generator: Sketch 48.2 (47327) - http://www.bohemiancoding.com/sketch -->
    <title>nav_default_app_normal</title>
    <desc>Created with Sketch.</desc>
    <defs></defs>
    <g id="UI" stroke="none" stroke-width="1" fill="none" fill-rule="evenodd" fill-opacity="0.2">
        <g id="nav_default_app_normal" fill="#FFFFFF">
            <path d="M20.5,3 C21.327,3 22,3.673 22,4.5 L22,9 L22,20.5 C22,21.327 21.327,22 20.5,22 L3.5,22 C2.673,22 2,21.327 2,20.5 L2,9 L2,4.5 C2,3.673 2.673,3 3.5,3 L20.5,3 Z M21,20.5 L21,9 L3,9 L3,20.5 C3,20.775 3.225,21 3.5,21 L20.5,21 C20.775,21 21,20.775 21,20.5 Z M10.2939,18.0546 L7.0779,14.8716 C6.7829,14.5806 6.7809,14.1056 7.0719,13.8116 C7.3619,13.5166 7.8399,13.5136 8.1329,13.8056 L10.8179,16.4636 L16.6919,10.5896 C16.9849,10.2966 17.4599,10.2966 17.7529,10.5896 C18.0459,10.8826 18.0459,11.3576 17.7529,11.6506 L11.3519,18.0516 C11.2049,18.1986 11.0139,18.2716 10.8209,18.2716 C10.6309,18.2716 10.4399,18.1996 10.2939,18.0546 Z M13,4.985 C12.448,4.985 12,5.433 12,5.985 C12,6.537 12.448,6.985 13,6.985 C13.552,6.985 14,6.537 14,5.985 C14,5.433 13.552,4.985 13,4.985 Z M17.027,5.985 C17.027,5.433 16.58,4.985 16.027,4.985 C15.475,4.985 15.027,5.433 15.027,5.985 C15.027,6.537 15.475,6.985 16.027,6.985 C16.58,6.985 17.027,6.537 17.027,5.985 Z M20.027,5.985 C20.027,5.433 19.58,4.985 19.027,4.985 C18.475,4.985 18.027,5.433 18.027,5.985 C18.027,6.537 18.475,6.985 19.027,6.985 C19.58,6.985 20.027,6.537 20.027,5.985 Z" id="Combined-Shape"></path>
        </g>
    </g>
</svg>