<?xml version="1.0" encoding="utf-8"?>
<!-- Generator: Adobe Illustrator 17.0.2, SVG Export Plug-In . SVG Version: 6.00 Build 0)  -->
<!DOCTYPE svg PUBLIC "-//W3C//DTD SVG 1.1//EN" "http://www.w3.org/Graphics/SVG/1.1/DTD/svg11.dtd">
<svg version="1.1" id="图层_1" xmlns="http://www.w3.org/2000/svg" xmlns:xlink="http://www.w3.org/1999/xlink" x="0px" y="0px"
	 width="16px" height="16px" viewBox="0 0 16 16" enable-background="new 0 0 16 16" xml:space="preserve">
<path fill="#3C3C3C" enable-background="new    " d="M4.844,8C4.735,8.036,4.637,8.101,4.562,8.188l-2.374,2.374
	C2.072,10.677,2.003,10.837,2,11v1.875l-1.75,1.75c-0.314,0.314-0.314,0.811,0,1.125c0.314,0.314,0.811,0.314,1.125,0L3.125,14H5
	c0.163-0.003,0.323-0.072,0.438-0.188l2.374-2.374c0.224-0.233,0.224-0.643,0-0.876L5.438,8.188C5.29,8.029,5.056,7.955,4.844,8z"/>
<path fill="#3C3C3C" enable-background="new    " d="M11.16,7.972c0.108-0.035,0.206-0.101,0.281-0.187l2.375-2.375
	C13.932,5.295,14,5.135,14.003,4.972V3.097l1.75-1.75c0.315-0.314,0.315-0.81,0-1.125c-0.314-0.314-0.81-0.314-1.125,0l-1.75,1.75
	h-1.875c-0.162,0.004-0.323,0.072-0.437,0.188L8.191,4.535c-0.224,0.232-0.224,0.642,0,0.875l2.375,2.375
	C10.714,7.943,10.947,8.017,11.16,7.972z"/>
</svg>
