<?xml version="1.0" encoding="UTF-8"?>
<svg width="24px" height="24px" viewBox="0 0 24 24" version="1.1" xmlns="http://www.w3.org/2000/svg" xmlns:xlink="http://www.w3.org/1999/xlink">
    <!-- Generator: Sketch 46.2 (44496) - http://www.bohemiancoding.com/sketch -->
    <title>nav_upgrade</title>
    <desc>Created with Sketch.</desc>
    <defs></defs>
    <g id="UI" stroke="none" stroke-width="1" fill="none" fill-rule="evenodd">
        <g id="nav_upgrade" fill="#FFFFFF">
            <g id="system-info-press" transform="translate(2.000000, 2.000000)">
                <path d="M11,7.72893238 L13.9781744,10.7071068 L14.6852812,10 L10.4426405,5.75735931 L6.19999981,10 L8.67487354,12.4748737 L6.90710659,10.7071068 L10,7.61421337 L10,15 L11,15 L11,7.72893238 Z M10.5,0 C11.9492258,0 13.3129815,0.27343575 14.5913093,0.8203125 C15.8696344,1.36718925 16.9838813,2.1157185 17.9340814,3.06591862 C18.8842815,4.01611875 19.6328108,5.13036562 20.1796875,6.40869075 C20.7265643,7.6870185 21,9.05077425 21,10.5 C21,11.9492258 20.7265643,13.3129815 20.1796875,14.5913092 C19.6328108,15.8696344 18.8842815,16.9838813 17.9340814,17.9340814 C16.9838813,18.884282 15.8696344,19.6328097 14.5913093,20.1796875 C13.3129815,20.7265653 11.9492258,21 10.5,21 C9.05077425,21 7.6870185,20.7265653 6.40869075,20.1796875 C5.13036563,19.6328097 4.01611875,18.884282 3.06591863,17.9340814 C2.11571797,16.9838813 1.3671903,15.8696344 0.8203125,14.5913092 C0.2734347,13.3129815 0,11.9492258 0,10.5 C0,9.05077425 0.2734347,7.6870185 0.8203125,6.40869075 C1.3671903,5.13036562 2.11571797,4.01611875 3.06591863,3.06591862 C4.01611875,2.1157185 5.13036563,1.36718925 6.40869075,0.8203125 C7.6870185,0.27343575 9.05077425,0 10.5,0 Z" id="Combined-Shape"></path>
            </g>
        </g>
    </g>
</svg>