<?xml version="1.0" encoding="utf-8"?>
<!-- Generator: Adobe Illustrator 17.0.2, SVG Export Plug-In . SVG Version: 6.00 Build 0)  -->
<!DOCTYPE svg PUBLIC "-//W3C//DTD SVG 1.1//EN" "http://www.w3.org/Graphics/SVG/1.1/DTD/svg11.dtd">
<svg version="1.1" id="图层_1" xmlns="http://www.w3.org/2000/svg" xmlns:xlink="http://www.w3.org/1999/xlink" x="0px" y="0px"
	 width="32px" height="32px" viewBox="0 0 32 32" enable-background="new 0 0 32 32" xml:space="preserve">
<g>
	<path id="SVGID_11_" fill="#FFFFFF" d="M27.999,12.001c2.206,0,4,1.792,4,3.997s-1.795,4-4,4h-0.693
		c-0.14,0.4-0.302,0.791-0.481,1.168l0.486,0.489c0.755,0.752,1.168,1.758,1.168,2.829c0,1.071-0.414,2.074-1.168,2.826
		c-0.752,0.755-1.755,1.168-2.826,1.168c-1.07,0-2.077-0.414-2.829-1.168l-0.489-0.486c-0.377,0.179-0.769,0.338-1.168,0.481v0.693
		c0,2.206-1.795,4-4.001,4c-2.205,0-4-1.795-4-4v-0.693c-0.4-0.143-0.788-0.302-1.169-0.481l-0.486,0.486
		c-0.755,0.755-1.758,1.168-2.829,1.168c-1.07,0-2.074-0.414-2.829-1.168c-0.752-0.752-1.168-1.756-1.168-2.826
		c0-1.071,0.417-2.077,1.168-2.829l0.489-0.486c-0.179-0.38-0.341-0.769-0.481-1.171H4.001c-2.208,0-4-1.795-4-4
		s1.792-3.997,4-3.997h0.693c0.14-0.403,0.302-0.791,0.481-1.171l-0.489-0.486C3.933,9.589,3.517,8.585,3.517,7.514
		c0-1.071,0.417-2.074,1.168-2.829C5.44,3.933,6.444,3.517,7.514,3.517c1.071,0,2.074,0.417,2.829,1.169l0.486,0.489
		c0.38-0.179,0.769-0.341,1.169-0.481V4c0-2.206,1.795-4,4-4c2.206,0,4.001,1.795,4.001,4v0.693c0.4,0.14,0.791,0.302,1.168,0.481
		l0.489-0.489c0.752-0.752,1.758-1.169,2.829-1.169c1.071,0,2.074,0.417,2.826,1.169c0.755,0.755,1.168,1.758,1.168,2.829
		c0,1.071-0.414,2.074-1.168,2.829l-0.486,0.489c0.179,0.377,0.341,0.769,0.481,1.168H27.999L27.999,12.001z M25.9,8.929
		c0.375-0.375,0.582-0.878,0.582-1.414c0-0.537-0.207-1.037-0.582-1.414c-0.752-0.749-2.077-0.749-2.829,0l-1.54,1.54l-0.66-0.369
		c-0.665-0.372-1.387-0.671-2.144-0.886L18,6.181V4c0-1.104-0.897-2.001-2.002-2.001C14.897,1.999,14,2.896,14,4v2.18l-0.727,0.204
		c-0.76,0.215-1.482,0.514-2.144,0.886l-0.66,0.369L8.929,6.1C8.177,5.351,6.852,5.351,6.1,6.1C5.725,6.477,5.519,6.978,5.519,7.514
		c0,0.537,0.207,1.04,0.581,1.414l1.54,1.541l-0.369,0.66c-0.372,0.662-0.668,1.384-0.886,2.144L6.181,14h-2.18
		c-1.104,0-2.002,0.897-2.002,1.999C1.999,17.103,2.896,18,4.001,18h2.18l0.204,0.727c0.218,0.76,0.514,1.482,0.886,2.144
		l0.369,0.66l-1.54,1.54c-0.375,0.375-0.581,0.878-0.581,1.415S5.725,25.523,6.1,25.9c0.752,0.749,2.077,0.749,2.829,0l1.54-1.54
		l0.66,0.369c0.662,0.372,1.384,0.668,2.144,0.883L14,25.819v2.181c0,1.104,0.897,2.002,1.999,2.002
		c1.104,0,2.002-0.897,2.002-2.002v-2.181l0.727-0.207c0.758-0.215,1.479-0.512,2.144-0.883l0.66-0.369l1.54,1.54
		c0.752,0.749,2.077,0.749,2.829,0c0.375-0.377,0.582-0.878,0.582-1.415s-0.207-1.04-0.582-1.415l-1.54-1.54l0.369-0.66
		c0.372-0.668,0.671-1.389,0.883-2.144L25.819,18h2.18c1.102,0,1.999-0.897,1.999-2.002c0-1.101-0.897-1.999-1.999-1.999h-2.18
		l-0.207-0.727c-0.212-0.755-0.512-1.476-0.883-2.144l-0.369-0.66L25.9,8.929L25.9,8.929z M15.999,22C12.692,22,10,19.308,10,15.999
		C10,12.692,12.692,10,15.999,10c3.31,0,6.002,2.692,6.002,5.999C22.001,19.308,19.308,22,15.999,22L15.999,22z M15.999,12.001
		c-2.205,0-4,1.792-4,3.997s1.795,4,4,4c2.206,0,4.001-1.795,4.001-4S18.204,12.001,15.999,12.001L15.999,12.001z"/>
</g>
</svg>
