<?xml version="1.0" encoding="utf-8"?>
<!-- Generator: Adobe Illustrator 17.0.2, SVG Export Plug-In . SVG Version: 6.00 Build 0)  -->
<!DOCTYPE svg PUBLIC "-//W3C//DTD SVG 1.1//EN" "http://www.w3.org/Graphics/SVG/1.1/DTD/svg11.dtd">
<svg version="1.1" id="图层_1" xmlns="http://www.w3.org/2000/svg" xmlns:xlink="http://www.w3.org/1999/xlink" x="0px" y="0px"
	 width="32px" height="32px" viewBox="0 0 32 32" enable-background="new 0 0 32 32" xml:space="preserve">
<path id="SVGID_12_" fill="#FFFFFF" d="M14.704,28.612c-0.294,0.568-0.8,0.895-1.384,0.895c-0.492,0-0.973-0.232-1.426-0.688
	l-5.524-5.362h-3.57C1.049,23.457,0,21.575,0,19.759v-8.244c0-1.823,1.152-3.092,2.801-3.092h4.07l5.012-5.144
	c0.523-0.523,1.043-0.785,1.554-0.785c0.718,0,1.563,0.548,1.563,2.088v22.624C15.001,27.762,14.9,28.234,14.704,28.612
	L14.704,28.612z M12.999,5.004l-4.993,5.121c-0.187,0.193-0.444,0.302-0.716,0.302h-4.49c-0.663,0-0.802,0.59-0.802,1.087v8.244
	c0,0.808,0.419,1.694,0.802,1.694h3.975c0.26,0,0.512,0.101,0.696,0.282l5.527,5.367V5.004L12.999,5.004z M20.033,28.469
	c-0.011,0-0.022,0-0.033,0c-0.537,0-0.981-0.428-0.998-0.967c-0.019-0.553,0.414-1.018,0.965-1.037
	c5.627-0.196,10.033-4.78,10.033-10.444c0-5.658-4.501-10.416-10.033-10.606c-0.551-0.02-0.984-0.484-0.965-1.037
	c0.017-0.553,0.484-0.978,1.032-0.967C26.63,3.64,32,9.295,32,16.021C32,22.769,26.744,28.469,20.033,28.469L20.033,28.469z
	 M18.073,22.451c-0.025,0.003-0.05,0.003-0.076,0.003c-0.517,0-0.956-0.4-0.995-0.928c-0.042-0.551,0.372-1.031,0.922-1.074
	c2.287-0.168,4.076-2.15,4.076-4.512c0-2.362-1.789-4.344-4.076-4.515c-0.551-0.039-0.964-0.52-0.922-1.073
	c0.042-0.551,0.52-0.976,1.071-0.925c3.324,0.246,5.926,3.109,5.926,6.513C23.999,19.345,21.397,22.204,18.073,22.451L18.073,22.451
	z"/>
</svg>
