<?xml version="1.0" encoding="iso-8859-1"?>
<!-- Generator: Adobe Illustrator 18.0.0, SVG Export Plug-In . SVG Version: 6.00 Build 0)  -->
<!DOCTYPE svg PUBLIC "-//W3C//DTD SVG 1.1//EN" "http://www.w3.org/Graphics/SVG/1.1/DTD/svg11.dtd">
<svg version="1.1" id="&#x56FE;&#x5C42;_1" xmlns="http://www.w3.org/2000/svg" xmlns:xlink="http://www.w3.org/1999/xlink" x="0px"
	 y="0px" viewBox="0 0 32 32" style="enable-background:new 0 0 32 32;" xml:space="preserve">
<g>
	<circle style="fill:#FFFFFF;" cx="15.979" cy="15.997" r="4"/>
	<path style="fill:#FFFFFF;" d="M9,14.975c0.5-3.4,3.42-6.013,6.96-6.013c2.44,0,4.587,1.242,5.849,3.129l1.761-0.99
		c-1.612-2.497-4.416-4.151-7.61-4.151c-3.946,0-7.292,2.529-8.532,6.051H3v2h6V14.975z"/>
	<path style="fill:#FFFFFF;" d="M30,17h-7l0,0h-0.003c-0.489,3-3.416,6.044-6.964,6.044c-2.4,0-4.514-1.201-5.783-3.036
		l-1.763,0.992c1.621,2.445,4.392,4.061,7.545,4.061c3.951,0,7.299-2.534,8.536-6.062H30V17z"/>
</g>
</svg>
