<?xml version="1.0" encoding="UTF-8"?>
<!DOCTYPE svg PUBLIC "-//W3C//DTD SVG 1.1//EN" "http://www.w3.org/Graphics/SVG/1.1/DTD/svg11.dtd">
<svg version="1.1" xmlns="http://www.w3.org/2000/svg" xmlns:xlink="http://www.w3.org/1999/xlink" x="0px" y="0px" width="32" height="32" viewBox="0, 0, 32, 32">
  <g id="Layer 1">
    <g>
      <path d="M24.571,5.286 C24.571,4.098 23.616,3.143 22.428,3.143 L18.857,3.143 L18.857,1.714 C18.857,1.319 18.539,1 18.143,1 L13.857,1 C13.461,1 13.143,1.319 13.143,1.714 L13.143,3.143 L9.571,3.143 C8.383,3.143 7.428,4.098 7.428,5.286 L7.428,28.857 C7.429,30.045 8.383,31 9.571,31 L22.428,31 C23.616,31 24.571,30.045 24.571,28.857 L24.571,5.286 z" fill-opacity="0" stroke="#00BDFF" stroke-width="2" stroke-linecap="round" stroke-linejoin="round" stroke-miterlimit="10"/>
      <path d="M19.463,13.581 L18.835,13.581 L18.835,12.516 C18.835,12.076 18.478,11.719 18.038,11.719 L17.372,11.719 C16.932,11.719 16.575,12.076 16.575,12.516 L16.575,13.581 L15.426,13.581 L15.426,12.516 C15.426,12.076 15.069,11.719 14.629,11.719 L13.963,11.719 C13.523,11.719 13.166,12.076 13.166,12.516 L13.166,13.581 L12.538,13.581 C12.098,13.581 11.741,13.938 11.741,14.378 L11.741,18.545 C11.741,18.985 12.098,19.342 12.538,19.342 L13.808,19.342 L13.808,23.122 C13.808,23.562 14.165,23.919 14.605,23.919 L17.398,23.919 C17.838,23.919 18.195,23.562 18.195,23.122 L18.195,19.342 L19.465,19.342 C19.905,19.342 20.262,18.985 20.262,18.545 L20.262,14.378 C20.261,13.938 19.904,13.581 19.463,13.581 z" fill-opacity="0" stroke="#00BDFF" stroke-width="2" stroke-linecap="round" stroke-linejoin="round" stroke-miterlimit="10"/>
    </g>
  </g>
  <defs/>
</svg>
