<?xml version="1.0" encoding="iso-8859-1"?>
<!-- Generator: Adobe Illustrator 18.0.0, SVG Export Plug-In . SVG Version: 6.00 Build 0)  -->
<!DOCTYPE svg PUBLIC "-//W3C//DTD SVG 1.1//EN" "http://www.w3.org/Graphics/SVG/1.1/DTD/svg11.dtd">
<svg version="1.1" id="&#x56FE;&#x5C42;_1" xmlns="http://www.w3.org/2000/svg" xmlns:xlink="http://www.w3.org/1999/xlink" x="0px"
	 y="0px" viewBox="0 0 24 24" style="enable-background:new 0 0 24 24;" xml:space="preserve">
<path style="fill:#B5B5B6;" d="M14.382,15.878c-0.009-0.353-0.002-0.353,0.008-0.66c0.37-0.411,1.268-1.522,1.604-2.963
	c0.343-0.16,0.632-0.506,0.812-0.99c0.252-0.682,0.27-1.62-0.219-2.228c0.001-0.01,0.003-0.019,0.003-0.029
	c0.093-0.854,0.34-3.12-1.004-4.607c-0.799-0.882-2.004-1.581-3.585-1.581c-1.581,0-2.786,0.697-3.585,1.58
	C7.073,5.885,7.317,8.152,7.409,9.005C7.41,9.017,7.412,9.025,7.414,9.037c-0.49,0.609-0.47,1.548-0.218,2.23
	c0.179,0.483,0.467,0.829,0.809,0.988c0.335,1.442,1.231,2.552,1.6,2.963c0.005,0.362,0.016,0.362,0.022,0.673
	c0,2.367-7.626,1.744-7.626,4.83v1.298l20,0.006V20.73C22,17.643,14.318,18.338,14.382,15.878z"/>
</svg>
