<?xml version="1.0" encoding="iso-8859-1"?>
<!-- Generator: Adobe Illustrator 18.0.0, SVG Export Plug-In . SVG Version: 6.00 Build 0)  -->
<!DOCTYPE svg PUBLIC "-//W3C//DTD SVG 1.1//EN" "http://www.w3.org/Graphics/SVG/1.1/DTD/svg11.dtd">
<svg version="1.1" id="&#x56FE;&#x5C42;_1" xmlns="http://www.w3.org/2000/svg" xmlns:xlink="http://www.w3.org/1999/xlink" x="0px"
	 y="0px" viewBox="0 0 64 64" style="enable-background:new 0 0 64 64;" xml:space="preserve">
<g>
	<path style="fill:#B4B4B4;" d="M58,26h-4v-7.97c0-1.667-1.364-3.03-3.03-3.03H9c-1.65,0-3,1.35-3,3v28c0,1.65,1.35,3,3,3h42.06
		c1.624,0,2.94-1.316,2.94-2.94V38h4c1.105,0,2-0.895,2-2v-8C60,26.895,59.105,26,58,26z M33.217,32.211l-3.585,9.721
		c-0.314,0-17.629-19.426-17.643-19.833c0.679,0.235,15.139,8.508,15.139,8.508l3.76-9.636c0.311,0,17.129,19.201,17.101,19.566
		C47.393,40.385,33.217,32.211,33.217,32.211z"/>
</g>
</svg>
