<?xml version="1.0" encoding="iso-8859-1"?>
<!-- Generator: Adobe Illustrator 18.0.0, SVG Export Plug-In . SVG Version: 6.00 Build 0)  -->
<!DOCTYPE svg PUBLIC "-//W3C//DTD SVG 1.1//EN" "http://www.w3.org/Graphics/SVG/1.1/DTD/svg11.dtd">
<svg version="1.1" id="&#x56FE;&#x5C42;_1" xmlns="http://www.w3.org/2000/svg" xmlns:xlink="http://www.w3.org/1999/xlink" x="0px"
	 y="0px" viewBox="0 0 64 64" style="enable-background:new 0 0 64 64;" xml:space="preserve">
<g>
	<path style="fill:#B4B4B4;" d="M54,11.87C54,10.285,52.715,9,51.13,9H12.87C11.285,9,10,10.285,10,11.87V50.13
		c0,1.585,1.285,2.87,2.87,2.87H51.13c1.585,0,2.87-1.285,2.87-2.87V11.87z M31,21.382c-1-0.305-1.178-0.555-1.885-0.76
		c-0.709-0.203-1.652-0.305-2.766-0.305c-1.115,0-2.107,0.281-2.51,0.836C23.433,21.71,23,22.393,23,23.204V27h7v2h-7v15h-3V29h-5
		v-2h5v-3.644c0-1.824,0.753-3.24,1.868-4.254c1.113-1.01,2.681-1.518,4.503-1.518c1.113,0,2.11,0.076,2.771,0.227
		C29.798,17.963,30,18.141,31,18.343V21.382z M47,44h-3V32.922c0-1.215-0.335-2.176-0.943-2.885
		c-0.607-0.707-1.435-1.063-2.445-1.063c-1.318,0-2.631,0.684-3.794,2.049C35.653,32.391,35,34.088,35,36.112V44h-3V27h3v3.038
		c1-1.113,1.758-1.975,2.721-2.582c0.961-0.607,2.236-0.91,3.753-0.91c1.824,0,3.218,0.508,4.13,1.518
		C46.517,29.077,47,30.343,47,31.86V44z"/>
</g>
</svg>
