<?xml version="1.0" encoding="UTF-8"?>
<svg width="24px" height="24px" viewBox="0 0 24 24" version="1.1" xmlns="http://www.w3.org/2000/svg" xmlns:xlink="http://www.w3.org/1999/xlink">
    <!-- Generator: Sketch 48.2 (47327) - http://www.bohemiancoding.com/sketch -->
    <title>nav_upgrade_normal</title>
    <desc>Created with Sketch.</desc>
    <defs></defs>
    <g id="UI" stroke="none" stroke-width="1" fill="none" fill-rule="evenodd" fill-opacity="0.2">
        <g id="nav_upgrade_normal" fill="#FFFFFF">
            <path d="M13,9.72893238 L15.9781744,12.7071068 L16.6852812,12 L12.4426405,7.75735931 L8.19999981,12 L10.6748735,14.4748737 L8.90710659,12.7071068 L12,9.61421337 L12,17 L13,17 L13,9.72893238 Z M12.5,2 C13.9492258,2 15.3129815,2.27343575 16.5913093,2.8203125 C17.8696344,3.36718925 18.9838813,4.1157185 19.9340814,5.06591862 C20.8842815,6.01611875 21.6328108,7.13036562 22.1796875,8.40869075 C22.7265643,9.6870185 23,11.0507742 23,12.5 C23,13.9492258 22.7265643,15.3129815 22.1796875,16.5913092 C21.6328108,17.8696344 20.8842815,18.9838813 19.9340814,19.9340814 C18.9838813,20.884282 17.8696344,21.6328097 16.5913093,22.1796875 C15.3129815,22.7265653 13.9492258,23 12.5,23 C11.0507742,23 9.6870185,22.7265653 8.40869075,22.1796875 C7.13036563,21.6328097 6.01611875,20.884282 5.06591863,19.9340814 C4.11571797,18.9838813 3.3671903,17.8696344 2.8203125,16.5913092 C2.2734347,15.3129815 2,13.9492258 2,12.5 C2,11.0507742 2.2734347,9.6870185 2.8203125,8.40869075 C3.3671903,7.13036562 4.11571797,6.01611875 5.06591863,5.06591862 C6.01611875,4.1157185 7.13036563,3.36718925 8.40869075,2.8203125 C9.6870185,2.27343575 11.0507742,2 12.5,2 Z" id="Combined-Shape"></path>
        </g>
    </g>
</svg>