<?xml version="1.0" encoding="UTF-8"?>
<svg width="16px" height="16px" viewBox="0 0 16 16" version="1.1" xmlns="http://www.w3.org/2000/svg" xmlns:xlink="http://www.w3.org/1999/xlink">
    <title>screenshot-dark</title>
    <g id="screenshot-dark" stroke="none" stroke-width="1" fill="none" fill-rule="evenodd">
        <path d="M2,11 L2,12.8 C2,13.4627417 2.53725832,14 3.20000005,14 L5,14 L5,15 L3.20000005,15 C1.98497357,15 1,14.0150264 1,12.8 L1,11 L2,11 Z M15,11 L15,12.8 C15,14.0150264 14.0150264,15 12.8,15 L11,15 L11,14 L12.8,14 C13.4627417,14 14,13.4627417 14,12.8 L14,11 L15,11 Z M10.2645306,8.24746166 L13.0004414,11.7558349 L13,12.8 C13,12.9104569 12.9104569,13 12.8,13 L3.20000005,13 C3.08954307,13 3,12.9104569 3,12.8 L2.99912991,12.1520509 L5.16677321,9.71837371 C5.37792691,9.46622044 5.8039857,9.43614298 6.06086526,9.65525562 L7.15439579,10.5809065 C7.3034749,10.6889174 7.51188754,10.6556251 7.61989846,10.506546 L9.27125915,8.22730073 C9.51065713,7.92099889 10.0424841,7.93179365 10.2645306,8.24746166 Z M5,4 C5.55228475,4 6,4.44771525 6,5 C6,5.55228475 5.55228475,6 5,6 C4.44771525,6 4,5.55228475 4,5 C4,4.44771525 4.44771525,4 5,4 Z M5,1 L5,2 L3.20000005,2 C2.53725832,2 2,2.53725832 2,3.20000005 L2,5 L1,5 L1,3.20000005 C1,1.98497357 1.98497357,1 3.20000005,1 L5,1 Z M12.8,1 C14.0150264,1 15,1.98497357 15,3.20000005 L15,5 L14,5 L14,3.20000005 C14,2.53725832 13.4627417,2 12.8,2 L11,2 L11,1 L12.8,1 Z" id="形状" fill="#000000" fill-rule="nonzero"></path>
    </g>
</svg>