<?xml version="1.0" encoding="iso-8859-1"?>
<!-- Generator: Adobe Illustrator 18.1.1, SVG Export Plug-In . SVG Version: 6.00 Build 0)  -->
<!DOCTYPE svg PUBLIC "-//W3C//DTD SVG 1.1//EN" "http://www.w3.org/Graphics/SVG/1.1/DTD/svg11.dtd" [
	<!ENTITY ns_extend "http://ns.adobe.com/Extensibility/1.0/">
	<!ENTITY ns_ai "http://ns.adobe.com/AdobeIllustrator/10.0/">
	<!ENTITY ns_graphs "http://ns.adobe.com/Graphs/1.0/">
	<!ENTITY ns_vars "http://ns.adobe.com/Variables/1.0/">
	<!ENTITY ns_imrep "http://ns.adobe.com/ImageReplacement/1.0/">
	<!ENTITY ns_sfw "http://ns.adobe.com/SaveForWeb/1.0/">
	<!ENTITY ns_custom "http://ns.adobe.com/GenericCustomNamespace/1.0/">
	<!ENTITY ns_adobe_xpath "http://ns.adobe.com/XPath/1.0/">
]>
<svg version="1.1" id="&#x56FE;&#x5C42;_1" xmlns:x="&ns_extend;" xmlns:i="&ns_ai;" xmlns:graph="&ns_graphs;"
	 xmlns="http://www.w3.org/2000/svg" xmlns:xlink="http://www.w3.org/1999/xlink" x="0px" y="0px" viewBox="0 0 32 32"
	 enable-background="new 0 0 32 32" xml:space="preserve">
<metadata>
	<sfw  xmlns="&ns_sfw;">
		<slices></slices>
		<sliceSourceBounds  width="1546.667" height="16845" y="-8451" x="-7" bottomLeftOrigin="true"></sliceSourceBounds>
	</sfw>
</metadata>
<g>
	<path fill="#00BDFF" d="M25.879,12.734l-5.218-5.218C20.66,7.516,7.548,20.507,7.535,20.518l5.279,5.28
		c1.745,1.744,4.064,2.705,6.531,2.705c2.47,0,4.789-0.962,6.534-2.705C29.48,22.196,29.48,16.335,25.879,12.734z"/>
	<path fill="#00BDFF" d="M13.469,11.891l5.817-5.745c-1.737-1.708-4.031-2.651-6.471-2.649c-2.137-0.002-4.16,0.724-5.796,2.049
		C6.958,5.595,13.469,11.891,13.469,11.891z"/>
	<path fill="#00BDFF" d="M6.209,19.113l5.867-5.818L5.6,6.974c-2.866,3.585-2.673,8.82,0.582,12.18
		C6.193,19.141,6.197,19.125,6.209,19.113z"/>
</g>
</svg>
