<?xml version="1.0" encoding="iso-8859-1"?>
<!-- Generator: Adobe Illustrator 18.1.1, SVG Export Plug-In . SVG Version: 6.00 Build 0)  -->
<!DOCTYPE svg PUBLIC "-//W3C//DTD SVG 1.1//EN" "http://www.w3.org/Graphics/SVG/1.1/DTD/svg11.dtd" [
	<!ENTITY ns_extend "http://ns.adobe.com/Extensibility/1.0/">
	<!ENTITY ns_ai "http://ns.adobe.com/AdobeIllustrator/10.0/">
	<!ENTITY ns_graphs "http://ns.adobe.com/Graphs/1.0/">
	<!ENTITY ns_vars "http://ns.adobe.com/Variables/1.0/">
	<!ENTITY ns_imrep "http://ns.adobe.com/ImageReplacement/1.0/">
	<!ENTITY ns_sfw "http://ns.adobe.com/SaveForWeb/1.0/">
	<!ENTITY ns_custom "http://ns.adobe.com/GenericCustomNamespace/1.0/">
	<!ENTITY ns_adobe_xpath "http://ns.adobe.com/XPath/1.0/">
]>
<svg version="1.1" id="&#x56FE;&#x5C42;_1" xmlns:x="&ns_extend;" xmlns:i="&ns_ai;" xmlns:graph="&ns_graphs;"
	 xmlns="http://www.w3.org/2000/svg" xmlns:xlink="http://www.w3.org/1999/xlink" x="0px" y="0px" viewBox="0 0 32 32"
	 enable-background="new 0 0 32 32" xml:space="preserve">
<metadata>
	<sfw  xmlns="&ns_sfw;">
		<slices></slices>
		<sliceSourceBounds  width="1546.667" height="16845" y="-8451" x="-7" bottomLeftOrigin="true"></sliceSourceBounds>
	</sfw>
</metadata>
<g>
	
		<circle fill="none" stroke="#00BDFF" stroke-linecap="round" stroke-linejoin="round" stroke-miterlimit="10" cx="16.029" cy="16" r="12.5"/>
	<path fill="none" stroke="#00BDFF" stroke-linecap="round" stroke-linejoin="round" stroke-miterlimit="10" d="M27.884,19.97"/>
	<path fill="none" stroke="#00BDFF" stroke-linecap="round" stroke-linejoin="round" stroke-miterlimit="10" d="M4.904,10.769"/>
</g>
<path fill="#00BDFF" d="M28.179,16c0,0.889-0.102,1.753-0.284,2.588c-1.174,0.196-2.3,0.322-3.371,0.375
	c-0.275-0.645-0.869-1.114-1.583-1.226c-1.077-3.871-2.989-6.856-5.01-9.092c0.084-0.225,0.136-0.465,0.136-0.719
	c0-0.054-0.012-0.104-0.016-0.157c1.454-0.687,3.078-1.281,4.893-1.747C26.103,8.219,28.179,11.87,28.179,16z M10.705,13.287
	c1.107-1.284,2.46-2.538,4.109-3.67c0.336,0.236,0.744,0.377,1.186,0.377c0.315,0,0.609-0.076,0.876-0.201
	c1.832,2.059,3.556,4.788,4.548,8.3c-0.277,0.198-0.499,0.464-0.651,0.772c-4.26-0.444-7.525-1.997-9.946-3.78
	c0.099-0.242,0.155-0.505,0.155-0.782C10.981,13.932,10.876,13.588,10.705,13.287z M21.049,4.949
	c-1.332,0.414-2.56,0.895-3.691,1.43c-0.364-0.32-0.836-0.52-1.359-0.52c-0.296,0-0.575,0.064-0.83,0.176
	c-0.873-0.705-1.701-1.276-2.417-1.723c1.044-0.293,2.14-0.462,3.277-0.462C17.821,3.85,19.517,4.25,21.049,4.949z M10.877,5.013
	c0.81,0.44,1.954,1.141,3.207,2.14c-0.097,0.239-0.153,0.5-0.153,0.773c0,0.131,0.015,0.257,0.038,0.381
	c-1.808,1.234-3.283,2.609-4.488,4.016c-0.182-0.052-0.37-0.089-0.568-0.089c-0.355,0-0.684,0.098-0.976,0.255
	c-1.016-1.105-1.743-2.136-2.215-2.892C6.96,7.614,8.748,6.016,10.877,5.013z M4.892,11.158c0.51,0.742,1.19,1.622,2.052,2.544
	c-0.058,0.191-0.099,0.39-0.099,0.601c0,0.439,0.139,0.844,0.372,1.179c-1.18,1.977-1.906,3.853-2.344,5.321
	C4.236,19.328,3.879,17.706,3.879,16C3.879,14.279,4.244,12.643,4.892,11.158z M5.962,22.794c0.295-1.395,0.992-3.831,2.557-6.463
	c0.128,0.025,0.26,0.04,0.395,0.04c0.288,0,0.561-0.059,0.81-0.165c2.527,1.91,5.942,3.583,10.372,4.137
	c-2.252,1.41-5.772,3.909-8.261,7.046C9.431,26.499,7.377,24.884,5.962,22.794z M13.44,27.866c2.473-2.91,5.909-5.245,7.912-6.472
	c0.229,0.18,0.495,0.314,0.787,0.384c0.159,1.444,0.192,2.996,0.081,4.657c-1.816,1.082-3.928,1.715-6.191,1.715
	C15.14,28.15,14.276,28.048,13.44,27.866z M23.826,25.305c0.035-1.322-0.018-2.576-0.15-3.762c0.394-0.235,0.702-0.593,0.87-1.025
	c0.916-0.045,1.869-0.138,2.855-0.28C26.659,22.223,25.422,23.966,23.826,25.305z"/>
</svg>
