<?xml version="1.0" encoding="iso-8859-1"?>
<!-- Generator: Adobe Illustrator 18.1.1, SVG Export Plug-In . SVG Version: 6.00 Build 0)  -->
<!DOCTYPE svg PUBLIC "-//W3C//DTD SVG 1.1//EN" "http://www.w3.org/Graphics/SVG/1.1/DTD/svg11.dtd" [
	<!ENTITY ns_extend "http://ns.adobe.com/Extensibility/1.0/">
	<!ENTITY ns_ai "http://ns.adobe.com/AdobeIllustrator/10.0/">
	<!ENTITY ns_graphs "http://ns.adobe.com/Graphs/1.0/">
	<!ENTITY ns_vars "http://ns.adobe.com/Variables/1.0/">
	<!ENTITY ns_imrep "http://ns.adobe.com/ImageReplacement/1.0/">
	<!ENTITY ns_sfw "http://ns.adobe.com/SaveForWeb/1.0/">
	<!ENTITY ns_custom "http://ns.adobe.com/GenericCustomNamespace/1.0/">
	<!ENTITY ns_adobe_xpath "http://ns.adobe.com/XPath/1.0/">
]>
<svg version="1.1" id="&#x56FE;&#x5C42;_1" xmlns:x="&ns_extend;" xmlns:i="&ns_ai;" xmlns:graph="&ns_graphs;"
	 xmlns="http://www.w3.org/2000/svg" xmlns:xlink="http://www.w3.org/1999/xlink" x="0px" y="0px" viewBox="0 0 32 32"
	 enable-background="new 0 0 32 32" xml:space="preserve">
<metadata>
	<sfw  xmlns="&ns_sfw;">
		<slices></slices>
		<sliceSourceBounds  width="1546.667" height="16845" y="-8451" x="-7" bottomLeftOrigin="true"></sliceSourceBounds>
	</sfw>
</metadata>
<path fill="none" stroke="#00BDFF" stroke-linecap="round" stroke-linejoin="round" stroke-miterlimit="10" d="M22.753,14.827
	c0.883-0.165,1.704-0.546,2.347-0.731c4.531-1.308,3.287,4.237,3.287,4.237C27.291,24.122,22.195,28.5,16.073,28.5
	c-0.697,0-1.381-0.057-2.047-0.166c0,0-1.527-0.24-2.448-0.568"/>
<path fill="none" stroke="#00BDFF" stroke-linecap="round" stroke-linejoin="round" stroke-miterlimit="10" d="M18.574,13.237
	c-0.267-0.503-0.373-1.124-0.24-1.868c0.239-1.342,1.531-2.318,1.587-4.424c0.097-3.604-3.848-3.444-3.848-3.444
	c-6.921,0-12.531,5.596-12.531,12.499c0,4.894,2.82,9.132,6.928,11.183"/>
<ellipse fill="#00BDFF" cx="12.825" cy="9.356" rx="1.846" ry="1.856"/>
<ellipse fill="#00BDFF" cx="8.784" cy="14.394" rx="1.846" ry="1.856"/>
<path fill="#00BDFF" d="M14.354,18.258c0,0-4.294,0.377-2.968,5.868c0,0,0.489,2.561-2.429,3.87C8.772,28.08,8.8,28.347,9,28.375
	c2.402,0.337,10.036,0.673,9.935-7.11L14.354,18.258z"/>
<polygon fill="#00BDFF" points="16.155,16.25 15.256,17.263 19.732,20.158 20.424,18.997 "/>
<path fill="#00BDFF" d="M27.787,4.156c-0.756-0.487-1.828,0.871-1.828,0.871l-8.932,10.194l4.123,2.599l6.571-11.532
	C28.394,5.012,28.394,4.504,27.787,4.156z"/>
</svg>
