<?xml version="1.0" encoding="iso-8859-1"?>
<!-- Generator: Adobe Illustrator 18.1.1, SVG Export Plug-In . SVG Version: 6.00 Build 0)  -->
<!DOCTYPE svg PUBLIC "-//W3C//DTD SVG 1.1//EN" "http://www.w3.org/Graphics/SVG/1.1/DTD/svg11.dtd" [
	<!ENTITY ns_extend "http://ns.adobe.com/Extensibility/1.0/">
	<!ENTITY ns_ai "http://ns.adobe.com/AdobeIllustrator/10.0/">
	<!ENTITY ns_graphs "http://ns.adobe.com/Graphs/1.0/">
	<!ENTITY ns_vars "http://ns.adobe.com/Variables/1.0/">
	<!ENTITY ns_imrep "http://ns.adobe.com/ImageReplacement/1.0/">
	<!ENTITY ns_sfw "http://ns.adobe.com/SaveForWeb/1.0/">
	<!ENTITY ns_custom "http://ns.adobe.com/GenericCustomNamespace/1.0/">
	<!ENTITY ns_adobe_xpath "http://ns.adobe.com/XPath/1.0/">
]>
<svg version="1.1" id="&#x56FE;&#x5C42;_1" xmlns:x="&ns_extend;" xmlns:i="&ns_ai;" xmlns:graph="&ns_graphs;"
	 xmlns="http://www.w3.org/2000/svg" xmlns:xlink="http://www.w3.org/1999/xlink" x="0px" y="0px" viewBox="0 0 32 32"
	 enable-background="new 0 0 32 32" xml:space="preserve">
<metadata>
	<sfw  xmlns="&ns_sfw;">
		<slices></slices>
		<sliceSourceBounds  width="1546.667" height="16845" y="-8451" x="-7" bottomLeftOrigin="true"></sliceSourceBounds>
	</sfw>
</metadata>
<path fill="#00BDFF" d="M29.5,13H28V8.5C28,7.672,27.328,7,26.5,7h-23C2.672,7,2,7.672,2,8.5v16C2,25.328,2.672,26,3.5,26h23
	c0.828,0,1.5-0.672,1.5-1.5V20h1.5c0.828,0,1.5-0.672,1.5-1.5v-4C31,13.672,30.328,13,29.5,13z M23.389,20.032
	c-0.136,0.195-0.393,0.268-0.609,0.171l-6.203-2.712l-1.332,3.987c-0.056,0.166-0.193,0.291-0.364,0.329
	c-0.036,0.009-0.073,0.013-0.11,0.013c-0.134,0-0.264-0.054-0.359-0.152L6.5,13.493c-0.166-0.172-0.188-0.437-0.051-0.633
	c0.137-0.196,0.393-0.267,0.611-0.173l6.365,2.791l1.399-3.964c0.059-0.164,0.197-0.286,0.367-0.323
	c0.165-0.033,0.347,0.018,0.467,0.145l7.683,8.064C23.506,19.572,23.525,19.837,23.389,20.032z"/>
</svg>
