<?xml version="1.0" encoding="iso-8859-1"?>
<!-- Generator: Adobe Illustrator 18.1.1, SVG Export Plug-In . SVG Version: 6.00 Build 0)  -->
<!DOCTYPE svg PUBLIC "-//W3C//DTD SVG 1.1//EN" "http://www.w3.org/Graphics/SVG/1.1/DTD/svg11.dtd" [
	<!ENTITY ns_extend "http://ns.adobe.com/Extensibility/1.0/">
	<!ENTITY ns_ai "http://ns.adobe.com/AdobeIllustrator/10.0/">
	<!ENTITY ns_graphs "http://ns.adobe.com/Graphs/1.0/">
	<!ENTITY ns_vars "http://ns.adobe.com/Variables/1.0/">
	<!ENTITY ns_imrep "http://ns.adobe.com/ImageReplacement/1.0/">
	<!ENTITY ns_sfw "http://ns.adobe.com/SaveForWeb/1.0/">
	<!ENTITY ns_custom "http://ns.adobe.com/GenericCustomNamespace/1.0/">
	<!ENTITY ns_adobe_xpath "http://ns.adobe.com/XPath/1.0/">
]>
<svg version="1.1" id="&#x56FE;&#x5C42;_1" xmlns:x="&ns_extend;" xmlns:i="&ns_ai;" xmlns:graph="&ns_graphs;"
	 xmlns="http://www.w3.org/2000/svg" xmlns:xlink="http://www.w3.org/1999/xlink" x="0px" y="0px" viewBox="0 0 32 32"
	 enable-background="new 0 0 32 32" xml:space="preserve">
<metadata>
	<sfw  xmlns="&ns_sfw;">
		<slices></slices>
		<sliceSourceBounds  width="1546.667" height="16845" y="-8451" x="-7" bottomLeftOrigin="true"></sliceSourceBounds>
	</sfw>
</metadata>
<g>
	<g>
		<path fill="#B4B4B4" d="M15,11.031c-0.4-1.078-3.953-1.995-4.016,0.953L10.969,15L15,14.985v1.03l-3.984,0.015l-0.031,6.985H10
			l0.016-7h-3.03v-1.03h3.03v-2.97c0-3.953,4.193-3.156,4.984-2.236V11.031z"/>
	</g>
	<g>
		<path fill="#B4B4B4" d="M24,23.016h-1.016v-4.915c0-1.179-1.622-3.41-4.083-0.949c-0.635,0.635-0.873,1.333-0.873,2.544v3.32H17
			v-8.031h1.028v1.674c0.368-0.435,0.609-0.615,1.065-0.955C21.047,14.25,24,15.047,24,18.569V23.016z"/>
	</g>
</g>
<path fill="none" stroke="#B4B4B4" stroke-linecap="round" stroke-linejoin="round" stroke-miterlimit="10" d="M26.5,27.5h-21
	c-0.552,0-1-0.448-1-1v-21c0-0.552,0.448-1,1-1h21c0.552,0,1,0.448,1,1v21C27.5,27.052,27.052,27.5,26.5,27.5z"/>
</svg>
