<?xml version="1.0" encoding="iso-8859-1"?>
<!-- Generator: Adobe Illustrator 18.1.1, SVG Export Plug-In . SVG Version: 6.00 Build 0)  -->
<!DOCTYPE svg PUBLIC "-//W3C//DTD SVG 1.1//EN" "http://www.w3.org/Graphics/SVG/1.1/DTD/svg11.dtd" [
	<!ENTITY ns_extend "http://ns.adobe.com/Extensibility/1.0/">
	<!ENTITY ns_ai "http://ns.adobe.com/AdobeIllustrator/10.0/">
	<!ENTITY ns_graphs "http://ns.adobe.com/Graphs/1.0/">
	<!ENTITY ns_vars "http://ns.adobe.com/Variables/1.0/">
	<!ENTITY ns_imrep "http://ns.adobe.com/ImageReplacement/1.0/">
	<!ENTITY ns_sfw "http://ns.adobe.com/SaveForWeb/1.0/">
	<!ENTITY ns_custom "http://ns.adobe.com/GenericCustomNamespace/1.0/">
	<!ENTITY ns_adobe_xpath "http://ns.adobe.com/XPath/1.0/">
]>
<svg version="1.1" id="&#x56FE;&#x5C42;_1" xmlns:x="&ns_extend;" xmlns:i="&ns_ai;" xmlns:graph="&ns_graphs;"
	 xmlns="http://www.w3.org/2000/svg" xmlns:xlink="http://www.w3.org/1999/xlink" x="0px" y="0px" viewBox="0 0 32 32"
	 enable-background="new 0 0 32 32" xml:space="preserve">
<metadata>
	<sfw  xmlns="&ns_sfw;">
		<slices></slices>
		<sliceSourceBounds  width="1546.667" height="16845" y="-8451" x="-7" bottomLeftOrigin="true"></sliceSourceBounds>
	</sfw>
</metadata>
<path fill="#00BDFF" stroke="#00BDFF" stroke-linejoin="round" stroke-miterlimit="10" d="M8.5,11.5h-4c-0.552,0-1,0.448-1,1v7
	c0,0.552,0.448,1,1,1h4l7,7.5V4L8.5,11.5z"/>
<path fill="none" stroke="#00BDFF" stroke-linecap="round" stroke-linejoin="round" stroke-miterlimit="10" d="M20.999,5.984
	c4.322,1.3,7.47,5.311,7.47,10.056c0,4.738-3.138,8.743-7.45,10.05"/>
<path fill="none" stroke="#00BDFF" stroke-linecap="round" stroke-linejoin="round" stroke-miterlimit="10" d="M19.542,9.742
	c2.83,0.702,4.927,3.256,4.927,6.299c0,3.053-2.112,5.614-4.957,6.306"/>
<path fill="none" stroke="#00BDFF" stroke-linecap="round" stroke-linejoin="round" stroke-miterlimit="10" d="M18.203,13.555
	c1.271,0.118,2.266,1.186,2.266,2.485c0,1.305-1.002,2.375-2.28,2.487"/>
</svg>
