<?xml version="1.0" encoding="UTF-8"?>
<svg width="24px" height="24px" viewBox="0 0 24 24" version="1.1" xmlns="http://www.w3.org/2000/svg" xmlns:xlink="http://www.w3.org/1999/xlink">
    <!-- Generator: Sketch 46.2 (44496) - http://www.bohemiancoding.com/sketch -->
    <title>nav_bluetooth</title>
    <desc>Created with Sketch.</desc>
    <defs></defs>
    <g id="UI" stroke="none" stroke-width="1" fill="none" fill-rule="evenodd">
        <g id="nav_bluetooth" fill="#FFFFFF">
            <path d="M12.096,0 C17.006,0 21,3.995 21,8.905 L21,15.096 C21,20.006 17.006,24 12.096,24 L11.905,24 C6.994,24 3,20.006 3,15.096 L3,8.905 C3,3.995 6.994,0 11.905,0 L12.096,0 Z M17.761,8.433 C17.897,8.334 17.975,8.173 17.966,8.005 C17.958,7.836 17.866,7.684 17.721,7.598 L11.754,4.08 C11.6,3.99 11.408,3.988 11.252,4.077 C11.096,4.166 11,4.331 11,4.511 L11,10.809 L6.552,7.521 C6.332,7.36 6.016,7.469 5.816,7.745 C5.654,7.968 5.637,8.289 5.86,8.454 L10.79,12.072 L6,15.579 C5.778,15.741 5.789,16.126 5.951,16.349 C6.114,16.574 6.369,16.695 6.591,16.534 L11,13.336 L11,19.505 C11,19.687 11.098,19.854 11.256,19.942 C11.332,19.984 11.416,20.005 11.5,20.005 C11.591,20.005 11.682,19.981 11.763,19.931 L17.449,16.429 C17.589,16.342 17.678,16.191 17.686,16.025 C17.693,15.859 17.616,15.7 17.483,15.601 L12.726,12.084 L17.761,8.433 Z M12.0003,11.016 L12.0003,5.672 L16.0153,8.086 L12.0003,11.016 Z M12.0003,18.3441 L12.0003,13.2501 L15.8263,15.9821 L12.0003,18.3441 Z" id="Combined-Shape"></path>
        </g>
    </g>
</svg>