<?xml version="1.0" encoding="UTF-8"?>
<svg width="16px" height="16px" viewBox="0 0 16 16" version="1.1" xmlns="http://www.w3.org/2000/svg" xmlns:xlink="http://www.w3.org/1999/xlink">
    <title>ICON / Action / Setting</title>
    <g id="ICON-/-Action-/-Setting" stroke="none" stroke-width="1" fill="none" fill-rule="evenodd">
        <g id="编组" transform="translate(0.223837, 0.000000)" fill="#536076">
            <circle id="椭圆形" cx="6.77616346" cy="3" r="3"></circle>
            <path d="M6.77616346,7 C7.79958294,7 8.77170587,7.21962669 9.64797128,7.61431911 L9.56496015,7.666 L8.33314487,7.46585898 L7.96812421,7.91615545 L7.78185822,8.16123743 C7.54397701,8.49546725 7.34844761,8.85883979 7.20076684,9.24328385 L7.20076684,9.24328385 L6.9926186,9.78513742 L7.78496015,10.754 L7.77616346,11 L7.78496015,11.244 L6.99231977,12.2136367 L7.20028401,12.7554587 L7.31996477,13.0399943 C7.49129405,13.4137633 7.70918391,13.7644109 7.96812421,14.0838446 L7.905,14 L1.55200817,14 L1.55200817,14 C0.694857727,13.9999736 -5.10702591e-14,13.3051159 -4.92939023e-14,12.4479654 C-4.91458726e-14,12.3483782 0.00958502221,12.2491386 0.0285573356,12.1516093 L0.0640315576,12.0067682 L0.0640315576,12.0067682 C0.922412644,9.11180196 3.60266916,7 6.77616346,7 Z M11.8049348,9.13055052 L11.7761635,9.13095558 C10.7406296,9.13095558 9.90116346,9.97042167 9.90116346,11.0059556 C9.90116346,12.0414895 10.7406296,12.8809556 11.7761635,12.8809556 C12.5024923,12.8809556 13.1323618,12.4679641 13.4437547,11.8639985 C13.5892871,12.3168438 13.6895305,12.7906122 13.7395108,13.279263 L13.7285313,13.2778464 L13.5585427,13.4133548 C13.3078805,13.5987884 13.027309,13.7461003 12.7253933,13.8467256 L12.7253933,13.8467256 L12.7731046,13.8303736 L12.709,14 L10.844,14 L10.7802126,13.8307222 L10.5543124,13.7407223 C10.3482162,13.6487027 10.154405,13.5341189 9.97601887,13.4001111 L9.97601887,13.4001111 L9.8237956,13.2778464 L8.74495133,13.4541306 L8.59743167,13.2601045 C8.40869479,12.9951323 8.25226086,12.7055562 8.13387697,12.3971234 L8.13387697,12.3971234 L8.82643075,11.5497975 L8.80061859,11.3848512 C8.78448243,11.258845 8.77616346,11.130394 8.77616346,11 C8.77616346,10.7941334 8.79689952,10.5931099 8.83639694,10.3989044 L8.83639694,10.3989044 L8.82661778,10.4491937 L8.1342607,9.60187723 L8.23006482,9.37440329 C8.36705932,9.07605114 8.5405989,8.79796243 8.74495133,8.54586936 L8.74495133,8.54586936 L9.82479527,8.72129633 L9.97517555,8.60052265 L10.1587627,8.47290021 C10.3472719,8.35199954 10.5501971,8.2516143 10.7643871,8.17489588 L10.6980217,8.20096491 C11.0985535,8.47237217 11.469476,8.78418547 11.8049348,9.13055052 Z M11.7761634,9.87972877 C12.3974838,9.87972877 12.9011635,10.3834084 12.9011635,11.0047288 C12.9011635,11.5846278 12.4624025,12.0620486 11.8987446,12.1231274 L11.8987446,12.1231274 L11.7761634,12.1297288 L11.6535823,12.1231274 C11.0899244,12.0620486 10.6511635,11.5846278 10.6511635,11.0047288 C10.6511635,10.3834084 11.1548431,9.87972877 11.7761634,9.87972877 Z" id="形状结合"></path>
            <g id="ic_setting" transform="translate(6.992320, 6.100000)">
                <path d="M4.78384367,1 C4.99103135,1 5.19444556,1.01615619 5.39289516,1.04727747 L5.78078487,2.06962644 L5.73307354,2.05327436 C6.11089045,2.17919676 6.45528242,2.37823041 6.74946455,2.63359037 L6.73521188,2.62129633 L7.81425313,2.44487953 C8.0700621,2.76024068 8.27763683,3.11631689 8.42574641,3.50187723 L7.733202,4.348185 L7.73885356,4.3795096 C7.76842492,4.54856105 7.78384369,4.7224799 7.78384369,4.9 C7.78384369,5.0775201 7.76842492,5.25143895 7.73885356,5.4204904 L7.73338937,5.45080629 L8.42613014,6.29712343 C8.27815028,6.68266445 8.07071723,7.03874178 7.81505578,7.35413064 L6.73621154,7.17784643 L6.74847785,7.16726574 C6.45451245,7.42221446 6.11046812,7.62094399 5.73307354,7.74672564 L5.78078487,7.73037356 L5.39390248,8.75256443 C5.19513392,8.78378909 4.99138193,8.8 4.78384367,8.8 C4.57630542,8.8 4.37255343,8.78378909 4.17378486,8.75256443 L3.78789279,7.73072216 L3.77206735,7.72510412 C3.48681787,7.62293366 3.22154729,7.47878815 2.98369911,7.3001111 L2.81064039,7.16 L2.83147584,7.17784643 L1.75263157,7.35413064 C1.49697011,7.03874178 1.28953706,6.68266445 1.1415572,6.29712343 L1.83411098,5.44979746 L1.83830323,5.47196423 C1.80256138,5.28681026 1.78384369,5.09559101 1.78384369,4.9 C1.78384369,4.69413338 1.80457976,4.49310993 1.84407718,4.29890436 L1.83429801,4.34919371 L1.14194093,3.50187723 C1.28989557,3.11672023 1.49719102,2.7609857 1.75263157,2.44586936 L2.8324755,2.62129633 L2.81064039,2.639 L2.98285579,2.50052265 C3.2209202,2.32155268 3.4864807,2.17718711 3.77206735,2.07489588 L3.78690251,2.06962644 L4.17378486,1.04743557 C4.37255343,1.01621091 4.57630542,1 4.78384367,1 Z M4.78384369,3.03095558 C3.74830978,3.03095558 2.90884369,3.87042167 2.90884369,4.90595558 C2.90884369,5.94148948 3.74830978,6.78095558 4.78384369,6.78095558 C5.8193776,6.78095558 6.65884369,5.94148948 6.65884369,4.90595558 C6.65884369,3.87042167 5.8193776,3.03095558 4.78384369,3.03095558 Z M4.78384367,3.77972877 C5.40516402,3.77972877 5.90884369,4.28340843 5.90884369,4.90472877 C5.90884369,5.52604911 5.40516402,6.02972877 4.78384367,6.02972877 C4.16252333,6.02972877 3.65884369,5.52604911 3.65884369,4.90472877 C3.65884369,4.28340843 4.16252333,3.77972877 4.78384367,3.77972877 Z" id="形状结合"></path>
            </g>
        </g>
    </g>
</svg>