<?xml version="1.0" encoding="UTF-8"?>
<svg width="16px" height="16px" viewBox="0 0 16 16" version="1.1" xmlns="http://www.w3.org/2000/svg" xmlns:xlink="http://www.w3.org/1999/xlink">
    <title>ICON /out</title>
    <g id="ICON-/out" stroke="none" stroke-width="1" fill="none" fill-rule="evenodd">
        <g id="编组" transform="translate(2.000000, 2.000000)" fill="#536076">
            <path d="M8,0.5 C8,0.776142375 7.77614237,1 7.5,1 L2,1 L2,1 C1.48716416,1 1.06449284,1.38604019 1.00672773,1.88337887 L1,2 L1,10 C1,10.5128358 1.38604019,10.9355072 1.88337887,10.9932723 L2,11 L7.5,11 C7.77614237,11 8,11.2238576 8,11.5 C8,11.7761424 7.77614237,12 7.5,12 L2,12 L2,12 C0.8954305,12 0,11.1045695 0,10 L0,2 C0,0.8954305 0.8954305,0 2,0 L7.5,0 C7.77614237,-5.07265313e-17 8,0.223857625 8,0.5 Z" id="路径"></path>
            <path d="M4,5 L11,5 L11,5 L11,7 L4,7 C3.44771525,7 3,6.55228475 3,6 C3,5.44771525 3.44771525,5 4,5 Z" id="矩形"></path>
            <polygon id="三角形" transform="translate(12.000000, 6.000000) rotate(-270.000000) translate(-12.000000, -6.000000) " points="12 4 15 8 9 8"></polygon>
        </g>
    </g>
</svg>