<?xml version="1.0" encoding="UTF-8" standalone="no"?>
<!-- Created with Keyshape -->
<svg xmlns="http://www.w3.org/2000/svg" width="84" height="102" viewBox="0 0 84 102">
    <defs>
        <mask id="Mask-1">
            <ellipse rx="4.92278" ry="7.32432" fill="#ffffff" stroke="none" stroke-width="0" fill-rule="nonzero" transform="translate(41,50) scale(3.686,3.176)"/>
        </mask>
    </defs>
    <path fill="none" stroke="#000" stroke-linecap="round" stroke-opacity="0.2" stroke-width="2" d="M40.7902,38.995C40.7902,38.995,46.1766,57.1463,39.454,73.9483C38.9018,75.3284,38.268,76.6993,37.5427,78.0504C36.0146,80.8969,34.0809,83.6551,31.6509,86.2237M37.8732,40.7257C37.7449,40.2094,37.6626,39.9254,37.6587,39.9118C37.1526,38.1909,38.1418,36.3853,39.87,35.8794C41.597,35.3735,43.4099,36.3547,43.9204,38.0741C44.0129,38.3852,46.1785,45.8008,46.0938,55.6504C46.048,60.9677,45.347,65.9797,44.0201,70.6067C43.6701,71.8271,43.2766,73.0208,42.8401,74.1862C40.8124,79.5994,37.8567,84.4034,34.0269,88.4519C33.3847,89.1307,32.5183,89.4735,31.6503,89.4735C30.8477,89.4735,30.0432,89.1806,29.4131,88.5895C28.1008,87.359,28.0387,85.3021,29.2746,83.9959C35.9651,76.9234,39.4272,67.4299,39.5641,55.779C39.6163,51.3494,39.1521,47.4234,38.6684,44.5846M49.2703,51.5565C49.3372,52.8746,49.3703,54.253,49.358,55.6786C49.2783,64.943,47.308,73.3556,43.5857,80.5426C42.9538,81.7627,42.2714,82.9475,41.5391,84.0951C40.0353,86.4521,38.3213,88.6523,36.4031,90.6801C35.1744,91.9785,33.442,92.7233,31.6503,92.7233C29.9803,92.7233,28.3911,92.0953,27.1749,90.9549C25.9056,89.7648,25.1779,88.1535,25.1257,86.4184C25.0735,84.6832,25.7033,83.0315,26.8986,81.7675C33.01,75.3079,36.1734,66.5515,36.3005,55.7413C36.3987,47.41,34.5425,40.8805,34.5237,40.8158C33.516,37.3885,35.5002,33.7714,38.9492,32.7617C39.5495,32.5861,40.1698,32.4967,40.7928,32.4967C43.6638,32.4967,46.237,34.4119,47.051,37.1535C47.1139,37.3674,48.1037,40.7525,48.767,45.925M32.3249,46.2684C31.8812,43.4831,31.3934,41.7381,31.3844,41.7055C29.8773,36.5796,32.8548,31.1584,38.0284,29.6443C38.9277,29.3808,39.858,29.2471,40.7928,29.2471C43.9893,29.2471,46.94,30.8293,48.7479,33.3267M49.8524,73.881C48.9606,76.691,47.8574,79.375,46.5481,81.9184C46.0797,82.8281,45.5851,83.7199,45.0643,84.593C43.2744,87.5938,41.1761,90.3745,38.7794,92.9082C36.936,94.8558,34.3378,95.9727,31.6503,95.9727C29.1454,95.9727,26.7611,95.031,24.9371,93.3205C23.0332,91.5357,21.9417,89.1191,21.8632,86.5156C21.7848,83.9133,22.7291,81.4358,24.5224,79.5399C30.0549,73.6918,32.9193,65.6719,33.0365,55.7032C33.0679,53.0546,32.8874,50.5898,32.6349,48.4899M50.181,36.2323C50.2851,36.5826,52.7148,44.907,52.622,55.7062C52.5763,60.9925,51.9444,66.0224,50.7494,70.7339M20.682,93.2838C19.3969,91.3125,18.6733,89.0227,18.6005,86.6132C18.4961,83.1429,19.7552,79.8398,22.1461,77.3117C23.0701,76.3352,23.911,75.2875,24.6683,74.1698C25.4623,72.9981,26.1645,71.7495,26.7743,70.4255C28.7015,66.2419,29.7065,61.3059,29.7729,55.6652C29.8559,48.6283,28.3261,42.8943,28.2437,42.5916C27.2803,39.2873,27.7069,35.8999,29.1809,33.0528M30.6838,30.7699C32.2918,28.8089,34.489,27.293,37.1079,26.5263C38.3062,26.1754,39.5459,25.9975,40.7928,25.9975C46.536,25.9975,51.6836,29.8276,53.3112,35.3114C53.4201,35.6789,55.9829,44.4453,55.8856,55.7341C55.8103,64.48,54.2029,72.5743,51.1581,79.7642C50.7904,80.6326,50.4016,81.4878,49.9921,82.3293C47.6927,87.0547,44.7373,91.35,41.1557,95.1365C39.1315,97.2748,36.4249,98.6624,33.5316,99.0857M15.5979,89.1719C15.4505,88.3662,15.3631,87.5443,15.338,86.7107C15.2074,82.3726,16.7813,78.2437,19.7698,75.0842C20.5013,74.3111,21.1738,73.4843,21.7872,72.6046C22.3408,71.8105,22.8461,70.9733,23.3031,70.0936C25.3673,66.1194,26.4426,61.2779,26.509,55.6269C26.5853,49.1612,25.2197,43.9124,25.0997,43.4653C22.6265,34.9163,27.5942,25.9238,36.1871,23.4088C37.6844,22.9701,39.2341,22.7476,40.7928,22.7476C43.1423,22.7476,45.412,23.2606,47.4741,24.1907M55.6538,77.1398C55.2677,78.2677,54.8503,79.3774,54.4018,80.4681C54.0683,81.2792,53.7177,82.0797,53.3499,82.8694C50.8519,88.2337,47.5665,93.0988,43.5313,97.3644C42.5658,98.3848,41.4758,99.268,40.2963,100M52.1532,27.3613C54.1255,29.2628,55.6317,31.6631,56.4412,34.3905C56.5564,34.7782,59.251,44.0015,59.1493,55.7621C59.0967,61.8481,58.335,67.64,56.8923,73.0603M22.9079,60.314C23.1128,58.8213,23.2253,57.2456,23.245,55.5889C23.3151,49.6508,22.0697,44.773,21.9531,44.3289C19.0093,34.0813,24.9747,23.3034,35.2663,20.2908C37.0625,19.7647,38.922,19.498,40.7925,19.498C49.4076,19.498,57.1298,25.2432,59.5715,33.4696C59.6481,33.728,60.8178,37.7304,61.6329,43.7543M12.0786,85.5198C12.2436,80.7893,14.1049,76.3336,17.3936,72.8565M19.1864,70.6325C19.6784,69.9139,20.1262,69.1527,20.5294,68.3493C21.2658,66.8821,21.8537,65.2743,22.2917,63.5298M62.3664,52.311C62.406,53.4426,62.4233,54.6044,62.4132,55.7903C62.3323,65.1745,60.6347,73.9035,57.4172,81.7204C56.948,82.8604,56.4464,83.981,55.9128,85.0814C53.3216,90.4252,49.9751,95.2928,45.9076,99.5927M9.20787,81.9152C10.0132,77.7132,12.0004,73.8181,15.0173,70.6285C15.4441,70.1774,15.8436,69.6968,16.2159,69.1872C17.2107,67.825,18.0102,66.2549,18.6125,64.4829C19.4832,61.921,19.9415,58.9374,19.9811,55.5509C20.0217,52.1352,19.5866,49.0745,19.2319,47.1712M18.5933,44.393C15.7047,32.6913,22.6247,20.6039,34.3455,17.1734C36.441,16.5594,38.6102,16.2481,40.7928,16.2481C49.2525,16.2481,56.9743,20.9965,60.9057,28.2226C61.6453,29.582,62.2507,31.029,62.7017,32.5487C62.8276,32.9738,65.7869,43.0993,65.6771,55.8179C65.6212,62.309,64.8228,68.5056,63.3113,74.3299C62.9863,75.5822,62.6283,76.8172,62.2377,78.0343C61.5957,80.0346,60.8654,81.9864,60.0481,83.8861C59.7718,84.5285,59.4855,85.165,59.1893,85.7954C57.0215,90.4091,54.3236,94.6972,51.1155,98.6078M38.219,13.1253C39.0733,13.0409,39.932,12.9987,40.7925,12.9987C48.4133,12.9987,55.5099,16.3701,60.3743,21.8421C61.3387,22.927,62.2154,24.0945,62.991,25.3346C64.2004,27.2683,65.1641,29.3786,65.8317,31.6281C65.9072,31.8827,66.9622,35.4858,67.8228,41.0136M6.77058,78.2878C7.94141,74.6406,9.92651,71.2707,12.641,68.4008C14.0473,66.9145,15.0935,64.9879,15.7741,62.6392C16.3699,60.5832,16.6855,58.2036,16.7171,55.5128C16.775,50.6317,15.7632,46.4725,15.6504,46.0245C13.4571,38.2853,15.0759,30.3204,19.3866,24.1479C20.2461,22.9171,21.2127,21.7576,22.2774,20.6853C25.2794,17.6621,29.0616,15.3326,33.425,14.0554C34.1671,13.8383,34.9172,13.6541,35.6736,13.5035M68.4941,46.2684C68.7862,49.1987,68.9706,52.4343,68.9411,55.8458C68.8949,61.2146,68.3604,66.3933,67.3529,71.3417M66.5356,74.9046C66.0851,76.666,65.5724,78.3955,64.9981,80.0911C64.6673,81.0675,64.3162,82.0327,63.9448,82.9863C62.0867,87.7573,59.7211,92.2384,56.8658,96.3829M4.67144,74.6133C6.00906,71.5378,7.88854,68.6851,10.2648,66.1731C11.2106,65.1734,11.9482,63.8731,12.475,62.2817C13.0945,60.41,13.4222,58.1357,13.4535,55.4745C13.5048,51.1204,12.6058,47.3102,12.4942,46.8548C9.82405,37.3639,12.2503,27.5712,18.1343,20.4251C19.1489,19.193,20.2662,18.0396,21.4779,16.9799C24.5813,14.266,28.3039,12.1673,32.5045,10.9377C35.1977,10.149,37.9866,9.74883,40.7928,9.74883C50.266,9.74883,59.0193,14.3798,64.4604,21.713M66.8365,25.488C67.7044,27.1356,68.4201,28.8806,68.9623,30.7072C69.0995,31.1694,72.3229,42.1906,72.2047,55.8738C72.1584,61.2633,71.6383,66.4717,70.6587,71.4615C70.4453,72.5487,70.21,73.6254,69.9531,74.6915C68.4067,81.1085,66.0752,87.1355,62.9909,92.688M2.8611,70.8816C4.20589,68.3901,5.88873,66.059,7.88875,63.9445C9.34691,62.4036,10.1424,59.4617,10.1898,55.4365C10.2352,51.6043,9.47044,48.2383,9.33498,47.6729C8.31393,44.0164,7.97349,40.3197,8.23785,36.7195M8.71483,33.0828C9.73005,27.7285,12.0855,22.7058,15.5125,18.4973M17.8439,15.9252C21.5657,12.2331,26.2253,9.38843,31.5837,7.81998C34.5759,6.94363,37.6745,6.49922,40.7925,6.49922C50.3221,6.49922,59.1962,10.7169,65.2771,17.5617C66.0325,18.4119,66.7447,19.3026,67.4097,20.2308C69.4582,23.09,71.059,26.3048,72.0922,29.7863C72.2352,30.2678,75.591,41.7432,75.4687,55.902C75.4319,60.1704,75.1087,64.331,74.5056,68.3669C74.3415,69.4645,74.1568,70.5529,73.9515,71.6317C72.9224,77.0392,71.3765,82.206,69.3302,87.0885M10.7627,19.4977C11.9144,17.7359,13.221,16.0719,14.6694,14.5293M17.0433,12.2235C20.8659,8.83865,25.4663,6.22335,30.6633,4.70227C33.9549,3.73829,37.363,3.24961,40.7928,3.24961C48.6906,3.24961,56.1789,5.88281,62.2524,10.4015M1.3102,67.0907C2.52429,65.1913,3.92786,63.3922,5.51254,61.7171C6.16837,61.024,6.88387,59.0007,6.92565,55.3991C6.96563,52.0369,6.29816,49.0169,6.17284,48.4804C3.70616,39.5838,4.90474,30.471,8.85674,22.7755M64.8151,12.4955C65.9157,13.4815,66.9568,14.535,67.9309,15.6507C68.6931,16.5235,69.4142,17.4344,70.0908,18.3806C72.335,21.519,74.089,25.0462,75.2225,28.8651C75.3711,29.3659,78.8588,41.2937,78.7326,55.9296C78.6867,61.2451,78.2121,66.4018,77.3205,71.3691C76.8557,73.9585,76.2776,76.4964,75.5877,78.9786M0,63.2416C0.930636,61.9767,1.94303,60.7599,3.03479,59.5966C3.22426,59.2214,3.63244,57.8977,3.66197,55.3613C3.68495,53.4262,3.437,51.5892,3.2353,50.4306M72.5673,16.2469C75.1052,19.7353,77.085,23.6726,78.3528,27.9439C78.5067,28.4631,82.1272,40.8351,81.9965,55.9575C81.9581,60.4207,81.6275,64.7774,81.0113,69.0103M2.45489,47.0022C-0.305455,33.9228,4.01833,20.6699,13.0009,11.5793M16.3775,8.53725C20.2343,5.44954,24.735,3.05029,29.7425,1.58455C33.3325,0.533234,37.0506,0,40.7925,0C52.0998,0,62.6379,4.94794,69.9272,12.999" transform="translate(1,1)"/>
    <path fill="none" stroke="#0081ff" stroke-linecap="round" stroke-opacity="1" stroke-width="2" d="M40.7902,38.995C40.7902,38.995,46.1766,57.1463,39.454,73.9483C38.9018,75.3284,38.268,76.6993,37.5427,78.0504C36.0146,80.8969,34.0809,83.6551,31.6509,86.2237M37.8732,40.7257C37.7449,40.2094,37.6626,39.9254,37.6587,39.9118C37.1526,38.1909,38.1418,36.3853,39.87,35.8794C41.597,35.3735,43.4099,36.3547,43.9204,38.0741C44.0129,38.3852,46.1785,45.8008,46.0938,55.6504C46.048,60.9677,45.347,65.9797,44.0201,70.6067C43.6701,71.8271,43.2766,73.0208,42.8401,74.1862C40.8124,79.5994,37.8567,84.4034,34.0269,88.4519C33.3847,89.1307,32.5183,89.4735,31.6503,89.4735C30.8477,89.4735,30.0432,89.1806,29.4131,88.5895C28.1008,87.359,28.0387,85.3021,29.2746,83.9959C35.9651,76.9234,39.4272,67.4299,39.5641,55.779C39.6163,51.3494,39.1521,47.4234,38.6684,44.5846M49.2703,51.5565C49.3372,52.8746,49.3703,54.253,49.358,55.6786C49.2783,64.943,47.308,73.3556,43.5857,80.5426C42.9538,81.7627,42.2714,82.9475,41.5391,84.0951C40.0353,86.4521,38.3213,88.6523,36.4031,90.6801C35.1744,91.9785,33.442,92.7233,31.6503,92.7233C29.9803,92.7233,28.3911,92.0953,27.1749,90.9549C25.9056,89.7648,25.1779,88.1535,25.1257,86.4184C25.0735,84.6832,25.7033,83.0315,26.8986,81.7675C33.01,75.3079,36.1734,66.5515,36.3005,55.7413C36.3987,47.41,34.5425,40.8805,34.5237,40.8158C33.516,37.3885,35.5002,33.7714,38.9492,32.7617C39.5495,32.5861,40.1698,32.4967,40.7928,32.4967C43.6638,32.4967,46.237,34.4119,47.051,37.1535C47.1139,37.3674,48.1037,40.7525,48.767,45.925M32.3249,46.2684C31.8812,43.4831,31.3934,41.7381,31.3844,41.7055C29.8773,36.5796,32.8548,31.1584,38.0284,29.6443C38.9277,29.3808,39.858,29.2471,40.7928,29.2471C43.9893,29.2471,46.94,30.8293,48.7479,33.3267M49.8524,73.881C48.9606,76.691,47.8574,79.375,46.5481,81.9184C46.0797,82.8281,45.5851,83.7199,45.0643,84.593C43.2744,87.5938,41.1761,90.3745,38.7794,92.9082C36.936,94.8558,34.3378,95.9727,31.6503,95.9727C29.1454,95.9727,26.7611,95.031,24.9371,93.3205C23.0332,91.5357,21.9417,89.1191,21.8632,86.5156C21.7848,83.9133,22.7291,81.4358,24.5224,79.5399C30.0549,73.6918,32.9193,65.6719,33.0365,55.7032C33.0679,53.0546,32.8874,50.5898,32.6349,48.4899M50.181,36.2323C50.2851,36.5826,52.7148,44.907,52.622,55.7062C52.5763,60.9925,51.9444,66.0224,50.7494,70.7339M20.682,93.2838C19.3969,91.3125,18.6733,89.0227,18.6005,86.6132C18.4961,83.1429,19.7552,79.8398,22.1461,77.3117C23.0701,76.3352,23.911,75.2875,24.6683,74.1698C25.4623,72.9981,26.1645,71.7495,26.7743,70.4255C28.7015,66.2419,29.7065,61.3059,29.7729,55.6652C29.8559,48.6283,28.3261,42.8943,28.2437,42.5916C27.2803,39.2873,27.7069,35.8999,29.1809,33.0528M30.6838,30.7699C32.2918,28.8089,34.489,27.293,37.1079,26.5263C38.3062,26.1754,39.5459,25.9975,40.7928,25.9975C46.536,25.9975,51.6836,29.8276,53.3112,35.3114C53.4201,35.6789,55.9829,44.4453,55.8856,55.7341C55.8103,64.48,54.2029,72.5743,51.1581,79.7642C50.7904,80.6326,50.4016,81.4878,49.9921,82.3293C47.6927,87.0547,44.7373,91.35,41.1557,95.1365C39.1315,97.2748,36.4249,98.6624,33.5316,99.0857M15.5979,89.1719C15.4505,88.3662,15.3631,87.5443,15.338,86.7107C15.2074,82.3726,16.7813,78.2437,19.7698,75.0842C20.5013,74.3111,21.1738,73.4843,21.7872,72.6046C22.3408,71.8105,22.8461,70.9733,23.3031,70.0936C25.3673,66.1194,26.4426,61.2779,26.509,55.6269C26.5853,49.1612,25.2197,43.9124,25.0997,43.4653C22.6265,34.9163,27.5942,25.9238,36.1871,23.4088C37.6844,22.9701,39.2341,22.7476,40.7928,22.7476C43.1423,22.7476,45.412,23.2606,47.4741,24.1907M55.6538,77.1398C55.2677,78.2677,54.8503,79.3774,54.4018,80.4681C54.0683,81.2792,53.7177,82.0797,53.3499,82.8694C50.8519,88.2337,47.5665,93.0988,43.5313,97.3644C42.5658,98.3848,41.4758,99.268,40.2963,100M52.1532,27.3613C54.1255,29.2628,55.6317,31.6631,56.4412,34.3905C56.5564,34.7782,59.251,44.0015,59.1493,55.7621C59.0967,61.8481,58.335,67.64,56.8923,73.0603M22.9079,60.314C23.1128,58.8213,23.2253,57.2456,23.245,55.5889C23.3151,49.6508,22.0697,44.773,21.9531,44.3289C19.0093,34.0813,24.9747,23.3034,35.2663,20.2908C37.0625,19.7647,38.922,19.498,40.7925,19.498C49.4076,19.498,57.1298,25.2432,59.5715,33.4696C59.6481,33.728,60.8178,37.7304,61.6329,43.7543M12.0786,85.5198C12.2436,80.7893,14.1049,76.3336,17.3936,72.8565M19.1864,70.6325C19.6784,69.9139,20.1262,69.1527,20.5294,68.3493C21.2658,66.8821,21.8537,65.2743,22.2917,63.5298M62.3664,52.311C62.406,53.4426,62.4233,54.6044,62.4132,55.7903C62.3323,65.1745,60.6347,73.9035,57.4172,81.7204C56.948,82.8604,56.4464,83.981,55.9128,85.0814C53.3216,90.4252,49.9751,95.2928,45.9076,99.5927M9.20787,81.9152C10.0132,77.7132,12.0004,73.8181,15.0173,70.6285C15.4441,70.1774,15.8436,69.6968,16.2159,69.1872C17.2107,67.825,18.0102,66.2549,18.6125,64.4829C19.4832,61.921,19.9415,58.9374,19.9811,55.5509C20.0217,52.1352,19.5866,49.0745,19.2319,47.1712M18.5933,44.393C15.7047,32.6913,22.6247,20.6039,34.3455,17.1734C36.441,16.5594,38.6102,16.2481,40.7928,16.2481C49.2525,16.2481,56.9743,20.9965,60.9057,28.2226C61.6453,29.582,62.2507,31.029,62.7017,32.5487C62.8276,32.9738,65.7869,43.0993,65.6771,55.8179C65.6212,62.309,64.8228,68.5056,63.3113,74.3299C62.9863,75.5822,62.6283,76.8172,62.2377,78.0343C61.5957,80.0346,60.8654,81.9864,60.0481,83.8861C59.7718,84.5285,59.4855,85.165,59.1893,85.7954C57.0215,90.4091,54.3236,94.6972,51.1155,98.6078M38.219,13.1253C39.0733,13.0409,39.932,12.9987,40.7925,12.9987C48.4133,12.9987,55.5099,16.3701,60.3743,21.8421C61.3387,22.927,62.2154,24.0945,62.991,25.3346C64.2004,27.2683,65.1641,29.3786,65.8317,31.6281C65.9072,31.8827,66.9622,35.4858,67.8228,41.0136M6.77058,78.2878C7.94141,74.6406,9.92651,71.2707,12.641,68.4008C14.0473,66.9145,15.0935,64.9879,15.7741,62.6392C16.3699,60.5832,16.6855,58.2036,16.7171,55.5128C16.775,50.6317,15.7632,46.4725,15.6504,46.0245C13.4571,38.2853,15.0759,30.3204,19.3866,24.1479C20.2461,22.9171,21.2127,21.7576,22.2774,20.6853C25.2794,17.6621,29.0616,15.3326,33.425,14.0554C34.1671,13.8383,34.9172,13.6541,35.6736,13.5035M68.4941,46.2684C68.7862,49.1987,68.9706,52.4343,68.9411,55.8458C68.8949,61.2146,68.3604,66.3933,67.3529,71.3417M66.5356,74.9046C66.0851,76.666,65.5724,78.3955,64.9981,80.0911C64.6673,81.0675,64.3162,82.0327,63.9448,82.9863C62.0867,87.7573,59.7211,92.2384,56.8658,96.3829M4.67144,74.6133C6.00906,71.5378,7.88854,68.6851,10.2648,66.1731C11.2106,65.1734,11.9482,63.8731,12.475,62.2817C13.0945,60.41,13.4222,58.1357,13.4535,55.4745C13.5048,51.1204,12.6058,47.3102,12.4942,46.8548C9.82405,37.3639,12.2503,27.5712,18.1343,20.4251C19.1489,19.193,20.2662,18.0396,21.4779,16.9799C24.5813,14.266,28.3039,12.1673,32.5045,10.9377C35.1977,10.149,37.9866,9.74883,40.7928,9.74883C50.266,9.74883,59.0193,14.3798,64.4604,21.713M66.8365,25.488C67.7044,27.1356,68.4201,28.8806,68.9623,30.7072C69.0995,31.1694,72.3229,42.1906,72.2047,55.8738C72.1584,61.2633,71.6383,66.4717,70.6587,71.4615C70.4453,72.5487,70.21,73.6254,69.9531,74.6915C68.4067,81.1085,66.0752,87.1355,62.9909,92.688M2.8611,70.8816C4.20589,68.3901,5.88873,66.059,7.88875,63.9445C9.34691,62.4036,10.1424,59.4617,10.1898,55.4365C10.2352,51.6043,9.47044,48.2383,9.33498,47.6729C8.31393,44.0164,7.97349,40.3197,8.23785,36.7195M8.71483,33.0828C9.73005,27.7285,12.0855,22.7058,15.5125,18.4973M17.8439,15.9252C21.5657,12.2331,26.2253,9.38843,31.5837,7.81998C34.5759,6.94363,37.6745,6.49922,40.7925,6.49922C50.3221,6.49922,59.1962,10.7169,65.2771,17.5617C66.0325,18.4119,66.7447,19.3026,67.4097,20.2308C69.4582,23.09,71.059,26.3048,72.0922,29.7863C72.2352,30.2678,75.591,41.7432,75.4687,55.902C75.4319,60.1704,75.1087,64.331,74.5056,68.3669C74.3415,69.4645,74.1568,70.5529,73.9515,71.6317C72.9224,77.0392,71.3765,82.206,69.3302,87.0885M10.7627,19.4977C11.9144,17.7359,13.221,16.0719,14.6694,14.5293M17.0433,12.2235C20.8659,8.83865,25.4663,6.22335,30.6633,4.70227C33.9549,3.73829,37.363,3.24961,40.7928,3.24961C48.6906,3.24961,56.1789,5.88281,62.2524,10.4015M1.3102,67.0907C2.52429,65.1913,3.92786,63.3922,5.51254,61.7171C6.16837,61.024,6.88387,59.0007,6.92565,55.3991C6.96563,52.0369,6.29816,49.0169,6.17284,48.4804C3.70616,39.5838,4.90474,30.471,8.85674,22.7755M64.8151,12.4955C65.9157,13.4815,66.9568,14.535,67.9309,15.6507C68.6931,16.5235,69.4142,17.4344,70.0908,18.3806C72.335,21.519,74.089,25.0462,75.2225,28.8651C75.3711,29.3659,78.8588,41.2937,78.7326,55.9296C78.6867,61.2451,78.2121,66.4018,77.3205,71.3691C76.8557,73.9585,76.2776,76.4964,75.5877,78.9786M0,63.2416C0.930636,61.9767,1.94303,60.7599,3.03479,59.5966C3.22426,59.2214,3.63244,57.8977,3.66197,55.3613C3.68495,53.4262,3.437,51.5892,3.2353,50.4306M72.5673,16.2469C75.1052,19.7353,77.085,23.6726,78.3528,27.9439C78.5067,28.4631,82.1272,40.8351,81.9965,55.9575C81.9581,60.4207,81.6275,64.7774,81.0113,69.0103M2.45489,47.0022C-0.305455,33.9228,4.01833,20.6699,13.0009,11.5793M16.3775,8.53725C20.2343,5.44954,24.735,3.05029,29.7425,1.58455C33.3325,0.533234,37.0506,0,40.7925,0C52.0998,0,62.6379,4.94794,69.9272,12.999" mask="url(#Mask-1)" transform="translate(1,1)"/>
</svg>
