<?xml version="1.0" encoding="UTF-8"?>
<svg width="16px" height="16px" viewBox="0 0 16 16" version="1.1" xmlns="http://www.w3.org/2000/svg" xmlns:xlink="http://www.w3.org/1999/xlink">
    <title>断开</title>
    <g id="显示" stroke="none" stroke-width="1" fill="none" fill-rule="evenodd">
        <g id="控制中心_显示-多屏1" transform="translate(-961.000000, -716.000000)">
            <g id="控制中心" transform="translate(137.000000, 182.000000)">
                <g id="编组-15" transform="translate(240.000000, 447.000000)">
                    <g id="编组-14" transform="translate(0.000000, 34.000000)">
                        <g id="-list/combobox/single" transform="translate(0.000000, 37.000000)">
                            <g id="断开" transform="translate(584.000000, 16.000000)">
                                <rect id="矩形" x="0" y="0" width="16" height="16"></rect>
                                <path d="M3.99999229,6.989 L5.29999229,8.191 L5.3,13 C5.3,13.3543827 5.56334362,13.6472582 5.90501415,13.6936098 L6,13.7 L10,13.7 C10.3299303,13.7 10.6065486,13.471744 10.6805547,13.1645321 L11.6790498,14.0870779 C11.3225827,14.6365309 10.7037377,15 10,15 L6,15 C4.8954305,15 4,14.1045695 4,13 L3.99999229,6.989 Z M1.82151869,1.99329416 L1.90727811,2.05940433 L14.4382879,13.6428273 C14.6816222,13.8677608 14.696539,14.2473668 14.4716055,14.4907011 C14.2716646,14.7069982 13.9495133,14.7428173 13.7094911,14.5901288 L13.6237317,14.5240187 L11.9979971,13.022 L11.9989923,13.023 L10.6999923,11.822 L10.6989971,11.821 L5.29999229,6.829 L3.99999229,5.628 L3.99899711,5.627 L1.09272189,2.94059567 C0.849387623,2.71566218 0.834470844,2.33605616 1.05940433,2.09272189 C1.25934521,1.87642476 1.58149649,1.84060565 1.82151869,1.99329416 Z M10,1 C11.1045695,1 12,1.8954305 12,3 L11.9999923,10.027 L10.6999923,8.825 L10.7,3 C10.7,2.64561729 10.4366564,2.35274177 10.0949859,2.30639017 L10,2.3 L6,2.3 C5.64561729,2.3 5.35274177,2.56334362 5.30639017,2.90501415 L5.3,3 L5.29999229,3.833 L4.02893731,2.65909956 C4.19073692,1.71692091 5.01164554,1 6,1 L10,1 Z" id="形状结合" fill-opacity="0.7" fill="#000000" fill-rule="nonzero"></path>
                            </g>
                        </g>
                    </g>
                </g>
            </g>
        </g>
    </g>
</svg>