<svg xmlns="http://www.w3.org/2000/svg" width="32" height="32" viewBox="0 0 32 32">
  <path fill="#29B2DC" fill-rule="evenodd" d="M24.4830235,8.39160006 L17.2285542,14.7160092 C16.3812427,15.454691 15.1187573,15.454691 14.2714458,14.7160092 L7.23013922,8.57743419 C7.72627261,8.21435547 8.3381036,8 9,8 L23,8 C23.5394375,8 24.0456213,8.14237601 24.4830235,8.39160006 Z M25.563033,9.44004299 C25.840272,9.89457758 26,10.4286356 26,11 L26,21 C26,22.6568542 24.6568542,24 23,24 L9,24 C7.34314575,24 6,22.6568542 6,21 L6,11 C6,10.5489112 6.09955857,10.1210755 6.27790109,9.73726762 L13.285743,15.8466683 C14.6979288,17.0778046 16.8020712,17.0778046 18.214257,15.8466683 L25.563033,9.44004299 Z"/>
</svg>
