<svg xmlns="http://www.w3.org/2000/svg" width="32" height="32" viewBox="0 0 32 32">
  <path fill="#29B2DC" fill-rule="evenodd" d="M25,13 L26,13 C26.5522847,13 27,13.4477153 27,14 L27,18 C27,18.5522847 26.5522847,19 26,19 L25,19 L25,13 Z M8,12 L16,12 L16,20 L8,20 C7.44771525,20 7,19.5522847 7,19 L7,13 C7,12.4477153 7.44771525,12 8,12 Z M8,10 L21,10 C22.6568542,10 24,11.3431458 24,13 L24,19 C24,20.6568542 22.6568542,22 21,22 L8,22 C6.34314575,22 5,20.6568542 5,19 L5,13 C5,11.3431458 6.34314575,10 8,10 Z M8,11 C6.8954305,11 6,11.8954305 6,13 L6,19 C6,20.1045695 6.8954305,21 8,21 L21,21 C22.1045695,21 23,20.1045695 23,19 L23,13 C23,11.8954305 22.1045695,11 21,11 L8,11 Z"/>
</svg>
