<svg xmlns="http://www.w3.org/2000/svg" width="32" height="32" viewBox="0 0 32 32">
  <path fill="#29B2DC" fill-rule="evenodd" d="M15.7762794,22 C12.4625709,22 9.77627944,19.3137085 9.77627944,16 C9.77627944,12.6862915 12.4625709,10 15.7762794,10 C19.0899879,10 21.7762794,12.6862915 21.7762794,16 C21.7762794,19.3137085 19.0899879,22 15.7762794,22 Z M16,5 C16.5522847,5 17,5.44771525 17,6 L17,7 C17,7.55228475 16.5522847,8 16,8 C15.4477153,8 15,7.55228475 15,7 L15,6 C15,5.44771525 15.4477153,5 16,5 Z M16,27 C15.4477153,27 15,26.5522847 15,26 L15,25 C15,24.4477153 15.4477153,24 16,24 C16.5522847,24 17,24.4477153 17,25 L17,26 C17,26.5522847 16.5522847,27 16,27 Z M25.5262794,10.5 C25.8024218,10.9782926 25.6385467,11.589883 25.160254,11.8660254 L24.2942286,12.3660254 C23.815936,12.6421678 23.2043456,12.4782926 22.9282032,12 C22.6520609,11.5217074 22.815936,10.910117 23.2942286,10.6339746 L24.160254,10.1339746 C24.6385467,9.85783222 25.2501371,10.0217074 25.5262794,10.5 Z M6.47372056,21.5 C6.19757818,21.0217074 6.36145334,20.410117 6.83974596,20.1339746 L7.70577137,19.6339746 C8.18406399,19.3578322 8.79565439,19.5217074 9.07179677,20 C9.34793914,20.4782926 9.18406399,21.089883 8.70577137,21.3660254 L7.83974596,21.8660254 C7.36145334,22.1421678 6.74986293,21.9782926 6.47372056,21.5 Z M25.5262794,21.5 C25.2501371,21.9782926 24.6385467,22.1421678 24.160254,21.8660254 L23.2942286,21.3660254 C22.815936,21.089883 22.6520609,20.4782926 22.9282032,20 C23.2043456,19.5217074 23.815936,19.3578322 24.2942286,19.6339746 L25.160254,20.1339746 C25.6385467,20.410117 25.8024218,21.0217074 25.5262794,21.5 Z M6.47372056,10.5 C6.74986293,10.0217074 7.36145334,9.85783222 7.83974596,10.1339746 L8.70577137,10.6339746 C9.18406399,10.910117 9.34793914,11.5217074 9.07179677,12 C8.79565439,12.4782926 8.18406399,12.6421678 7.70577137,12.3660254 L6.83974596,11.8660254 C6.36145334,11.589883 6.19757818,10.9782926 6.47372056,10.5 Z"/>
</svg>
