<svg xmlns="http://www.w3.org/2000/svg" width="32" height="32" viewBox="0 0 32 32">
  <path fill="#29B2DC" fill-rule="evenodd" d="M9.60562121,16 L6,12.4994627 L7.12769083,11.4048898 C7.12769083,11.4048898 8.03449377,11.9973133 8.77355477,11.279151 C9.57821782,10.4981193 9.3382306,9.33422891 11.1219419,8.03089737 C12.1815394,7.25631381 13.421335,7 14.5988502,7 C16.9181731,7 19,7.99462654 19,7.99462654 C15.2374321,8.35975282 13.8215905,9.80816765 15.3769403,11.3178399 L16.2870648,12.2004299 L13.351581,15.0497045 L12.4613861,14.1864589 C11.9930374,13.7318646 11.2847014,13.221655 10.7607154,13.7294465 C10.1802619,14.2920473 10.733312,14.9046212 10.733312,14.9046212 L9.60562121,16 Z M16.9376731,13 L14,15.858298 L22.4540166,24.4081261 C22.8595568,24.8027087 23.3914127,25 23.9224377,25 C25.0775623,25 26,24.0879321 26,22.9785729 C26,22.4424904 25.7806094,21.9282393 25.3916898,21.5490196 L16.9376731,13 Z M13.8463641,18 L9.99203897,21.7712363 C9.80156844,21.9638352 9.5736692,22.1135408 9.33495722,22.2405383 L8.85254278,22.4945332 L8,24.2994113 L8.69284696,25 L10.4403517,24.1000841 L10.6907082,23.6122792 C10.8163023,23.371741 10.9793251,23.1539108 11.1681321,22.961312 L15,19.2127839 L13.8463641,18 Z M18.919024,13.2375524 L22.2997193,9.91074309 C22.4456921,9.76449081 22.682358,9.76621142 22.8274671,9.91074309 C22.9734399,10.0569954 22.9734399,10.290999 22.8283308,10.436391 L19.4372706,13.773524 L20.1904556,14.553823 L23.5961995,11.2020647 C23.7413086,11.0566728 23.9771108,11.0575331 24.1239473,11.202925 C24.2690564,11.3474567 24.2699201,11.5823207 24.1239473,11.7268523 L20.7069747,15.0897946 L21.5862665,16 L25.2450875,12.3978922 C25.7486504,11.8971932 26,11.2399183 26,10.5826433 C26,9.92192709 25.7469229,9.26035058 25.239905,8.75448973 C24.7346146,8.25120981 24.0738501,8 23.4139495,8 C22.7523213,8 22.0924206,8.25207012 21.587994,8.75448973 L18,12.2860523 L18.919024,13.2375524 L18.919024,13.2375524 Z"/>
</svg>
