<svg xmlns="http://www.w3.org/2000/svg" width="32" height="32" viewBox="0 0 32 32">
  <path fill="#29B2DC" fill-rule="evenodd" d="M24.6793731,17.461169 L26.7232979,20.9650401 C27.0015782,21.442092 26.8404419,22.0544097 26.36339,22.33269 C26.210454,22.4219027 26.0365736,22.4689111 25.859519,22.4689111 L21.7492967,22.4689111 C21.0379625,22.4689111 20.3801595,22.0910886 20.0217389,21.4766531 L17.9778141,17.9727821 C17.6995338,17.4957302 17.8606701,16.8834125 18.337722,16.6051322 C18.490658,16.5159195 18.6645384,16.4689111 18.841593,16.4689111 L22.9518153,16.4689111 C23.6631495,16.4689111 24.3209525,16.8467336 24.6793731,17.461169 Z M18.8852709,23.5129438 L16.872792,27.0349701 C16.5987931,27.5144938 15.9879422,27.6811046 15.5084185,27.4071057 C15.35469,27.3192655 15.2270394,27.1921849 15.138512,27.0388511 L13.0834009,23.4792941 C12.7277338,22.8632607 12.7260362,22.1046753 13.0789426,21.4870562 L15.0914215,17.9650299 C15.3654204,17.4855062 15.9762713,17.3188954 16.455795,17.5928943 C16.6095235,17.6807345 16.7371741,17.8078151 16.8257015,17.9611489 L18.8808126,21.5207059 C19.2364797,22.1367393 19.2381773,22.8953247 18.8852709,23.5129438 Z M10.2237911,22.5051414 L6.16738736,22.5232966 C5.61510814,22.5257685 5.16539355,22.0800615 5.16292172,21.5277823 C5.16212928,21.3507294 5.20835898,21.1766405 5.2968863,21.0233066 L7.35199747,17.4637497 C7.70766453,16.8477163 8.36376995,16.4669534 9.07509696,16.4637697 L13.1315007,16.4456145 C13.6837799,16.4431426 14.1334945,16.8888496 14.1359663,17.4411288 C14.1367587,17.6181816 14.090529,17.7922706 14.0020017,17.9456044 L11.9468906,21.5051614 C11.5912235,22.1211948 10.9351181,22.5019577 10.2237911,22.5051414 Z M7.32062687,14.5077421 L5.27670211,11.003871 C4.99842182,10.5268191 5.15955807,9.91450138 5.63660998,9.6362211 C5.78954604,9.5470084 5.96342637,9.5 6.14048101,9.5 L10.2507033,9.5 C10.9620375,9.5 11.6198405,9.87782254 11.9782611,10.4922579 L14.0221859,13.996129 C14.3004662,14.4731809 14.1393299,15.0854986 13.662278,15.3637789 C13.509342,15.4529916 13.3354616,15.5 13.158407,15.5 L9.04818467,15.5 C8.33685054,15.5 7.67904753,15.1221775 7.32062687,14.5077421 Z M13.0789426,8.48705622 L15.0914215,4.96502994 C15.3654204,4.48550619 15.9762713,4.31889541 16.455795,4.59289434 C16.6095235,4.6807345 16.7371741,4.80781509 16.8257015,4.9611489 L18.8808126,8.52070586 C19.2364797,9.13673928 19.2381773,9.89532468 18.8852709,10.5129438 L16.872792,14.0349701 C16.5987931,14.5144938 15.9879422,14.6811046 15.5084185,14.4071057 C15.35469,14.3192655 15.2270394,14.1921849 15.138512,14.0388511 L13.0834009,10.4792941 C12.7277338,9.86326072 12.7260362,9.10467532 13.0789426,8.48705622 Z M21.7762089,9.46376972 L25.8326126,9.44561446 C26.3848919,9.44314262 26.8346064,9.88884957 26.8370783,10.4411288 C26.8378707,10.6181816 26.791641,10.7922706 26.7031137,10.9456044 L24.6480025,14.5051614 C24.2923355,15.1211948 23.63623,15.5019577 22.924903,15.5051414 L18.8684993,15.5232966 C18.3162201,15.5257685 17.8665055,15.0800615 17.8640337,14.5277823 C17.8632413,14.3507294 17.909471,14.1766405 17.9979983,14.0233066 L20.0531094,10.4637497 C20.4087765,9.84771626 21.0648819,9.4669534 21.7762089,9.46376972 Z" opacity=".8"/>
</svg>
