<svg xmlns="http://www.w3.org/2000/svg" width="32" height="32" viewBox="0 0 32 32">
  <g fill="#29B2DC" fill-rule="evenodd" transform="translate(5 8)">
    <path d="M12,11 L12,6.97466459 C12,6.43237391 11.5677684,5.98890691 11.0256562,5.97499377 L7.02565624,5.872335 C7.01710592,5.87211556 7.00855314,5.87200583 7,5.87200583 L7,2 C7,0.8954305 7.8954305,2.02906125e-16 9,0 L20,0 C21.1045695,-2.02906125e-16 22,0.8954305 22,2 L22,9 C22,10.1045695 21.1045695,11 20,11 L15,11 L15,15 L16.5,15 C16.7761424,15 17,15.2238576 17,15.5 C17,15.7761424 16.7761424,16 16.5,16 L11.5,16 C11.2238576,16 11,15.7761424 11,15.5 C11,15.2238576 11.2238576,15 11.5,15 L12,15 L12,11 Z" opacity=".2"/>
    <rect width="10" height="7" x="1" y="7"/>
    <rect width="12" height="1" y="15"/>
  </g>
</svg>
