<svg xmlns="http://www.w3.org/2000/svg" xmlns:xlink="http://www.w3.org/1999/xlink" width="32" height="32" viewBox="0 0 32 32">
  <defs>
    <path id="sync_launcher_32px-b" d="M12.1,12.215 C10.389,12.206 8.24,13.133 6.601,14.772 C5.976,15.397 5.425,16.127 5,16.946 C6.479,15.827 8.057,15.476 9.903,16.512 C10.447,15.075 11.173,13.612 12.1,12.215 Z M19.885,19.988 C18.369,20.979 16.878,21.694 15.588,22.198 C16.624,24.046 16.274,25.622 15.154,27.1 C15.973,26.676 16.703,26.125 17.329,25.498 C18.973,23.856 19.901,21.702 19.885,19.988 L19.885,19.988 Z M27.037,5.042 C26.625,5.014 26.221,5 25.824,5 C17.222,5 12.326,11.558 10.544,16.833 L15.272,21.562 C20.7,19.616 27.089,14.901 27.089,6.39 L27.089,6.333 C27.087,5.913 27.07,5.482 27.037,5.042 Z M17.0024116,15.0983216 C16.8068628,14.9028338 16.8068628,14.5868536 17.0024116,14.3913658 C17.1979605,14.1958781 17.5140395,14.1958781 17.7095884,14.3913658 C17.9051372,14.5868536 17.9051372,14.9028338 17.7095884,15.0983216 C17.5140395,15.2938094 17.1974604,15.2933094 17.0024116,15.0983216 Z M19.8305442,12.2704558 C19.2448186,11.6854802 19.2448186,10.7352698 19.8305442,10.1495442 C20.4162698,9.5638186 21.3664802,9.5638186 21.9514558,10.1495442 C22.5371814,10.7352698 22.5371814,11.6847302 21.9514558,12.2704558 C21.3657302,12.8561814 20.4162698,12.8561814 19.8305442,12.2704558 Z"/>
    <filter id="sync_launcher_32px-a" width="118.1%" height="118.1%" x="-4.5%" y="-4.5%" filterUnits="objectBoundingBox">
      <feOffset dx="2" dy="2" in="SourceAlpha" result="shadowOffsetOuter1"/>
      <feComposite in="shadowOffsetOuter1" in2="SourceAlpha" operator="out" result="shadowOffsetOuter1"/>
      <feColorMatrix in="shadowOffsetOuter1" values="0 0 0 0 0   0 0 0 0 0.41176792   0 0 0 0 1  0 0 0 0.2 0"/>
    </filter>
    <path id="sync_launcher_32px-d" d="M14.266,20.8507136 C13.1132088,23.852782 9.78232219,25.7422728 6.266,25.9235 C6.43520997,22.5440063 8.31892641,19.087294 11.3963844,17.9235 L12.0183662,18.5585832 C8.67202666,20.7293702 11.5462782,23.4682651 13.650972,20.221934 L14.266,20.8507136 L14.266,20.8507136 Z"/>
    <filter id="sync_launcher_32px-c" width="150%" height="150%" x="-12.5%" y="-12.5%" filterUnits="objectBoundingBox">
      <feOffset dx="2" dy="2" in="SourceAlpha" result="shadowOffsetOuter1"/>
      <feColorMatrix in="shadowOffsetOuter1" values="0 0 0 0 0   0 0 0 0 0.486177885   0 0 0 0 1  0 0 0 0.3 0"/>
    </filter>
  </defs>
  <g fill="none" fill-rule="evenodd">
    <use fill="#000" filter="url(#sync_launcher_32px-a)" xlink:href="#sync_launcher_32px-b"/>
    <path fill="#E1DFB6" stroke="#4F89CA" stroke-linejoin="square" stroke-width="1.091" d="M11.045169,12.8721641 C9.67012124,13.1577501 8.16841622,13.975973 6.98669461,15.1576946 C6.87879109,15.2655981 6.77392448,15.376122 6.67224884,15.4891261 C7.62905189,15.2367809 8.6047401,15.3176717 9.61359153,15.7585061 C10.0195271,14.7668159 10.4979266,13.7992523 11.045169,12.8721641 Z M19.2336076,21.0336976 C18.2859749,21.5908504 17.3153067,22.0729551 16.3390769,22.4822957 C16.7818772,23.4932414 16.8639118,24.4699613 16.6117626,25.427313 C16.7248411,25.3254354 16.8354773,25.2203061 16.9435402,25.1120707 C18.1329401,23.9241178 18.9534315,22.4136694 19.2336076,21.0336976 Z M26.52264,5.56005915 C26.2870114,5.55031901 26.0542044,5.54545455 25.824,5.54545455 C18.7510828,5.54545455 13.4595192,10.264467 11.1713061,16.688968 L15.411385,20.9299437 C22.0106371,18.4558257 26.5435455,13.3923732 26.5435455,6.39 L26.5435516,6.33559737 C26.5423332,6.07973172 26.5353784,5.82104992 26.52264,5.56005915 Z M16.6167773,15.4840765 C16.2081348,15.0755617 16.2081348,14.4141258 16.6167773,14.005611 C17.0253256,13.5971903 17.6866744,13.5971903 18.0952227,14.005611 C18.5038652,14.4141258 18.5038652,15.0755617 18.0952227,15.4840765 C17.6867626,15.8924089 17.024914,15.8920857 16.6167773,15.4840765 Z M19.4449731,12.6562739 C18.6460696,11.8582597 18.6461107,10.5625884 19.4448496,9.76384959 C20.2436296,8.96506955 21.5393933,8.96506955 22.3371504,9.76384959 C23.1358893,10.5625884 23.1358893,11.8574116 22.3371504,12.6561504 C21.5384528,13.4548481 20.2437219,13.4548893 19.4449731,12.656274 Z"/>
    <use fill="#000" filter="url(#sync_launcher_32px-c)" xlink:href="#sync_launcher_32px-d"/>
    <use fill="#4663FF" xlink:href="#sync_launcher_32px-d"/>
  </g>
</svg>
