<svg xmlns="http://www.w3.org/2000/svg" width="32" height="32" viewBox="0 0 32 32">
  <path fill="#29B2DC" d="M24,8 L24,15 L20.8085543,11.8058879 C20.7595978,11.8442665 20.7097482,11.8835643 20.6591262,11.9236993 C18.9770145,13.2573436 17.1840521,14.8806124 16.2922388,15.9439011 C15.5064341,16.8807981 15.2622741,17.4140592 14.9206616,18.6145238 C14.8678025,18.8002766 14.8344656,18.9134846 14.7957766,19.0352826 C14.4973006,19.9749243 14.0616078,20.6810016 13.151289,21.5304078 C12.5497281,22.0917162 11.8323047,22.5955455 11.0949115,23.0020966 L24,23 L24,24 L8,24 L8,9 L9,9 L9,22.827 L9.05884895,22.8093633 C10.0966542,22.4742967 11.2882833,21.8194023 12.221323,21.0205642 L12.4690672,20.7992625 C13.250953,20.0696955 13.595136,19.5119176 13.8427041,18.7325403 C13.8775516,18.622836 13.9085672,18.5175107 13.9588467,18.3408231 C14.3355841,17.0169254 14.6343122,16.3644842 15.5260553,15.3012792 C16.471024,14.1746145 18.3070851,12.5123261 20.0378586,11.1401009 L20.095,11.095 L17,8 L24,8 Z"/>
</svg>
