<svg xmlns="http://www.w3.org/2000/svg" width="32" height="32" viewBox="0 0 32 32">
  <path fill="#29B2DC" fill-rule="evenodd" d="M26,17.3466667 L26,14.6533333 C24.6241667,14.1641667 23.7558333,14.0266667 23.3175,12.9708333 L23.3175,12.97 C22.8783333,11.9108333 23.4008333,11.1916667 24.0233333,9.88083333 L22.1191667,7.97666667 C20.8183333,8.595 20.0916667,9.1225 19.03,8.6825 L19.0291667,8.6825 C17.9716667,8.24416667 17.8333333,7.36916667 17.3466667,6 L14.6533333,6 C14.1683333,7.3625 14.0291667,8.24333333 12.9708333,8.6825 L12.97,8.6825 C11.9108333,9.1225 11.1933333,8.60083333 9.88083333,7.97666667 L7.97666667,9.88083333 C8.5975,11.1875 9.1225,11.9091667 8.6825,12.97 C8.24333333,14.0291667 7.3625,14.1683333 6,14.6533333 L6,17.3466667 C7.36,17.83 8.24333333,17.9708333 8.6825,19.0291667 C9.12416667,20.0975 8.5875,20.8341667 7.97666667,22.1183333 L9.88083333,24.0233333 C11.1825,23.4041667 11.9091667,22.8775 12.97,23.3175 L12.9708333,23.3175 C14.0291667,23.7558333 14.1675,24.6333333 14.6533333,26 L17.3466667,26 C17.8316667,24.6366667 17.9708333,23.7583333 19.0358333,23.315 L19.0366667,23.315 C20.0883333,22.8783333 20.8033333,23.3991667 22.1183333,24.0241667 L24.0225,22.1191667 C23.4033333,20.8166667 22.8766667,20.0916667 23.3158333,19.0308333 C23.755,17.9716667 24.6391667,17.8308333 26,17.3466667 L26,17.3466667 Z M16,20 C13.7904,20 12,18.2088 12,16 C12,13.7912 13.7904,12 16,12 C18.2096,12 20,13.7912 20,16 C20,18.2088 18.2096,20 16,20 Z M18,16 C18,17.1026667 17.1026667,18 16,18 C14.8973333,18 14,17.1026667 14,16 C14,14.8973333 14.8973333,14 16,14 C17.1026667,14 18,14.8973333 18,16 Z"/>
</svg>
