<svg xmlns="http://www.w3.org/2000/svg" width="32" height="32" viewBox="0 0 32 32">
  <path fill="#29B2DC" fill-rule="evenodd" d="M25.9935151,13.5758385 C25.7397131,12.5286533 25.3249635,11.5443279 24.7768844,10.6495299 C24.713553,10.5461924 24.5835568,10.5128577 24.4716553,10.55905 C23.6273946,10.9043021 22.6259956,10.742867 21.9403016,10.0576012 C21.2550837,9.37233546 21.0936599,8.37134267 21.4384116,7.52702288 C21.4841246,7.4151136 21.4507922,7.28510835 21.3479381,7.22177246 C20.4527265,6.67413131 19.4679936,6.25982887 18.4208817,6.00648531 C18.30279,5.97791273 18.1866029,6.04648693 18.1399376,6.15839621 C17.7880433,7.00128737 16.9647343,7.5970257 15.9938106,7.5970257 C15.0247916,7.5970257 14.2024349,7.00319221 13.8495882,6.16172967 C13.8024467,6.0498204 13.6862597,5.9812462 13.5681679,6.00981878 C12.5205798,6.26554339 11.5353709,6.68127445 10.6406354,7.23034424 C10.5382575,7.29320392 10.5058775,7.42130433 10.5511142,7.53226119 C10.8958659,8.37610477 10.733966,9.37709756 10.0487481,10.0623633 C9.36495879,10.7466766 8.36594069,10.9090642 7.52263227,10.5666694 C7.41168317,10.5214295 7.28359171,10.5542879 7.22073643,10.656673 C6.67360973,11.5524235 6.25933626,12.5377013 6.00648659,13.5848864 C5.977916,13.7025102 6.0464854,13.8187054 6.15791068,13.8658502 C6.99693351,14.2191978 7.58882079,15.0406595 7.58882079,16.00927 C7.58882079,16.9759757 6.99836204,17.796485 6.16172009,18.1512612 C6.05029482,18.198406 5.98220159,18.3146012 6.01077217,18.432225 C6.26552655,19.4798863 6.68170473,20.464688 7.23073613,21.359486 C7.29311524,21.4613949 7.42120669,21.4942533 7.5321558,21.4494896 C8.37451186,21.1085235 9.37162526,21.2718634 10.0549384,21.9547481 C10.7372992,22.6366804 10.9006277,23.6329111 10.5606378,24.475326 C10.5158772,24.5862829 10.5487333,24.7139071 10.6506351,24.7762906 C11.5463229,25.3248841 12.5315319,25.7396628 13.57912,25.9934826 C13.6967356,26.0220551 13.8129226,25.9539572 13.8600641,25.8425241 C14.2143393,25.0053474 15.0352675,24.4148474 16.0014294,24.4148474 C16.9680675,24.4148474 17.7885195,25.0053474 18.1427947,25.8425241 C18.1899362,25.9539572 18.3061232,26.0220551 18.4237388,25.9934826 C19.4713269,25.7396628 20.4560597,25.3248841 21.3517475,24.7767668 C21.4541254,24.7143833 21.4865054,24.5862829 21.4417449,24.475326 C21.099374,23.6324349 21.2617502,22.6333469 21.9455395,21.9495098 C22.629805,21.2656727 23.6292993,21.1037614 24.4721315,21.4466324 C24.5830806,21.4918723 24.7111721,21.4590138 24.7735512,21.3571049 C25.3225826,20.4618307 25.7382846,19.4765528 25.9925628,18.4288915 C26.0211334,18.3107915 25.952564,18.1945963 25.8406625,18.1479278 C24.999735,17.7950564 24.405943,16.972166 24.405943,16.0030793 C24.405943,15.0330401 25.0002112,14.210626 25.8416149,13.8582308 C25.9535163,13.8101336 26.0220857,13.6939385 25.9935151,13.5758385 L25.9935151,13.5758385 L25.9935151,13.5758385 Z M16,19 C17.6568542,19 19,17.6568542 19,16 C19,14.3431458 17.6568542,13 16,13 C14.3431458,13 13,14.3431458 13,16 C13,17.6568542 14.3431458,19 16,19 Z"/>
</svg>
