<svg xmlns="http://www.w3.org/2000/svg" width="32" height="32" viewBox="0 0 32 32">
  <g fill="none" fill-rule="evenodd">
    <path fill="#29B2DC" d="M17.3910236,7 C17.5806147,6.93749549 17.9783434,6.90644657 18.1038341,7.27599095 C18.2293248,7.64553533 17.911681,7.89845435 17.8023831,7.93448773 C13.828582,9.24457282 11.1923171,10.4667803 9.91660389,11.5707973 C8.79954971,12.5375088 8.08613688,13.285844 9.17065428,14.0903187 C10.1869467,14.8441854 12.4082731,15.2223344 15.0197188,15.5243281 C15.3340244,15.5606752 15.3924052,15.5670289 16.2013821,15.6540136 C19.0516359,15.9604851 20.2309842,16.1901312 21.2148328,16.8126402 C22.5995374,17.688782 22.7363023,19.1212878 21.5831941,21.1806375 L19.3878107,20.7445619 C20.32321,19.0740213 20.2362683,18.1633746 19.3773181,17.6198925 C18.6215987,17.1417275 17.5258665,16.9283633 14.9033888,16.6463832 C14.0895705,16.558878 14.0306544,16.552466 13.7111509,16.5155179 C10.8859206,16.1888016 9.30622833,15.7743853 8.35254639,14.9672439 C6.82455237,13.6740379 7.52036987,12.2303122 9.09952813,10.8636905 C10.5200273,9.6343741 13.2676803,8.33183757 17.3910236,7 Z"/>
    <path fill="#29B2DC" d="M19,20 L23,20 C23.5522847,20 24,20.4477153 24,21 L24,25 C24,25.5522847 23.5522847,26 23,26 L19,26 C18.4477153,26 18,25.5522847 18,25 L18,21 C18,20.4477153 18.4477153,20 19,20 Z"/>
  </g>
</svg>
