<svg xmlns="http://www.w3.org/2000/svg" width="32" height="32" viewBox="0 0 32 32">
  <path fill="#29B2DC" fill-rule="evenodd" d="M10.15,10.926 L7.73,17.328 L12.57,17.328 L10.15,10.926 Z M3.154,23.752 L4.936,23.752 L10.7828499,8.24702035 C10.8388999,8.09838409 10.9811468,8 11.14,8 C11.2989268,8 11.4413143,8.09822439 11.4977534,8.24679202 L17.388,23.752 L19.192,23.752 C19.2770519,23.752 19.346,23.8209481 19.346,23.906 C19.346,23.9910519 19.2770519,24.06 19.192,24.06 L12.724,24.06 C12.6389481,24.06 12.57,23.9910519 12.57,23.906 C12.57,23.8209481 12.6389481,23.752 12.724,23.752 L15.012,23.752 L12.702,17.636 L7.598,17.636 L5.288,23.752 L7.576,23.752 C7.66105185,23.752 7.73,23.8209481 7.73,23.906 C7.73,23.9910519 7.66105185,24.06 7.576,24.06 L3.154,24.06 C3.06894815,24.06 3,23.9910519 3,23.906 C3,23.8209481 3.06894815,23.752 3.154,23.752 Z M25.99,18.67 L25.946,18.67 C25.9166665,18.8606676 25.6746689,19.0513324 25.22,19.242 L23.57,19.902 C23.1006643,20.0926676 22.7413346,20.3603316 22.492,20.705 C22.2426654,21.0496684 22.118,21.4786641 22.118,21.992 C22.118,22.2120011 22.1399998,22.4393322 22.184,22.674 C22.2280002,22.9086678 22.3086661,23.1176658 22.426,23.301 C22.5433339,23.4843343 22.7083323,23.6346661 22.921,23.752 C23.1336677,23.8693339 23.408665,23.928 23.746,23.928 C24.2300024,23.928 24.6223318,23.8253344 24.923,23.62 C25.2236682,23.4146656 25.4509992,23.1580015 25.605,22.85 C25.7590008,22.5419985 25.8616664,22.2083351 25.913,21.849 C25.9643336,21.4896649 25.99,21.1633348 25.99,20.87 L25.99,18.67 Z M29.84,23.818 C29.6493324,23.9646674 29.4220013,24.0929995 29.158,24.203 C28.8939987,24.3130006 28.5713352,24.368 28.19,24.368 C27.4859965,24.368 26.9763349,24.2176682 26.661,23.917 C26.3456651,23.6163318 26.1293339,23.1946694 26.012,22.652 L25.968,22.652 C25.909333,22.7840007 25.8286672,22.948999 25.726,23.147 C25.6233328,23.345001 25.4656677,23.5356658 25.253,23.719 C25.0403323,23.9023343 24.7580018,24.0563327 24.406,24.181 C24.0539982,24.3056673 23.6066694,24.368 23.064,24.368 C22.4479969,24.368 21.9566685,24.298334 21.59,24.159 C21.2233315,24.019666 20.9373344,23.8473344 20.732,23.642 C20.5266656,23.4366656 20.3910003,23.205668 20.325,22.949 C20.2589997,22.6923321 20.226,22.4540011 20.226,22.234 C20.226,21.7206641 20.3286656,21.3100015 20.534,21.002 C20.7393344,20.6939985 21.0069983,20.4483343 21.337,20.265 C21.6670016,20.0816658 22.0336646,19.9313339 22.437,19.814 C22.8403353,19.6966661 23.2473313,19.5720007 23.658,19.44 C24.1420024,19.2786659 24.5416651,19.1393339 24.857,19.022 C25.1723349,18.9046661 25.4179991,18.7616675 25.594,18.593 C25.7700009,18.4243325 25.8909997,18.211668 25.957,17.955 C26.0230003,17.6983321 26.056,17.3500022 26.056,16.91 C26.056,16.5579982 26.0340002,16.2426681 25.99,15.964 C25.9459998,15.6853319 25.8653339,15.447001 25.748,15.249 C25.6306661,15.050999 25.4620011,14.9006672 25.242,14.798 C25.0219989,14.6953328 24.7286685,14.644 24.362,14.644 C23.8779976,14.644 23.4783349,14.7283325 23.163,14.897 C22.8476651,15.0656675 22.69,15.3406648 22.69,15.722 C22.69,15.9713346 22.7119998,16.2169988 22.756,16.459 C22.8000002,16.7010012 22.822,16.8806661 22.822,16.998 C22.822,17.2033344 22.7486674,17.375666 22.602,17.515 C22.4553326,17.654334 22.2426681,17.724 21.964,17.724 C21.4799976,17.724 21.1793339,17.6360009 21.062,17.46 C20.9446661,17.2839991 20.886,17.0566681 20.886,16.778 C20.886,16.4553317 20.9593326,16.1473348 21.106,15.854 C21.2526674,15.5606652 21.4689986,15.3003345 21.755,15.073 C22.0410014,14.8456655 22.4003312,14.6660007 22.833,14.534 C23.2656688,14.4019993 23.7606639,14.336 24.318,14.336 C24.99267,14.336 25.5573311,14.4203325 26.012,14.589 C26.4666689,14.7576675 26.8333319,14.9849986 27.112,15.271 C27.3906681,15.5570014 27.5886661,15.8796649 27.706,16.239 C27.8233339,16.5983351 27.882,16.975998 27.882,17.372 L27.882,22.85 C27.882,23.2753355 27.9479993,23.5613326 28.08,23.708 C28.2120007,23.8546674 28.4026654,23.928 28.652,23.928 C28.8133341,23.928 28.9819991,23.898667 29.158,23.84 C29.3340009,23.781333 29.5026659,23.6933339 29.664,23.576 C29.7603812,23.5328709 29.8274215,23.5457263 29.8651211,23.614566 C29.9028207,23.6834057 29.894447,23.751217 29.84,23.818 Z"/>
</svg>
