<svg xmlns="http://www.w3.org/2000/svg" width="32" height="32" viewBox="0 0 32 32">
  <path fill="#29B2DC" fill-rule="evenodd" d="M23,9 L9,9 C6.790861,9 5,10.790861 5,13 L5,20 C5,22.209139 6.790861,24 9,24 L23,24 C25.209139,24 27,22.209139 27,20 L27,13 C27,10.790861 25.209139,9 23,9 Z M10,13 L7,13 L7,15 L10,15 L10,13 Z M13,13 L11,13 L11,15 L13,15 L13,13 Z M16,13 L14,13 L14,15 L16,15 L16,13 Z M19,13 L17,13 L17,15 L19,15 L19,13 Z M22,13 L20,13 L20,15 L22,15 L22,13 Z M25,13 L23,13 L23,15 L25,15 L25,13 Z M21,19 L11,19 L11,21 L21,21 L21,19 Z M25,16 L21,16 L21,18 L25,18 L25,16 Z M11,16 L7,16 L7,18 L11,18 L11,16 Z M14,16 L12,16 L12,18 L14,18 L14,16 Z M17,16 L15,16 L15,18 L17,18 L17,16 Z M20,16 L18,16 L18,18 L20,18 L20,16 Z"/>
</svg>
