<svg xmlns="http://www.w3.org/2000/svg" width="32" height="32" viewBox="0 0 32 32">
  <path fill="#29B2DC" fill-rule="evenodd" d="M23.0998158,10.4684375 C22.7701564,10.480176 22.4191389,10.4830563 22.0601181,10.4712737 C22.0601181,10.4712737 19.4315128,10.5940253 17.9575454,11.32921 C17.9575454,11.32921 16.8583842,11.8193332 15.7596741,12.6503348 C15.7596741,12.6503348 15.5264914,12.7669046 15.5377671,13.1952105 C15.5476898,13.6221916 15.314056,14.7605137 14.5355775,15.4276994 C14.5355775,15.4276994 13.979908,15.7133838 14.2577428,16.1222613 C14.2577428,16.1222613 14.6330001,16.667137 15.1616078,16.0948851 C15.1616078,16.0948851 16.5246217,14.6925147 16.6080623,12.4326495 C16.6080623,12.4326495 17.0392474,12.0643948 17.7203034,11.9557729 C17.7203034,11.9557729 17.8456898,15.3460122 16.1633463,17.0481967 C16.1633463,17.0481967 14.5630904,18.7910041 14.0489157,16.2039485 C14.0489157,16.2039485 13.4228855,13.739203 16.6500082,10.8121522 C16.6500082,10.8121522 18.5326852,8.93196936 19.824631,7.85078581 C18.6638691,7.30503864 17.3675504,7 16,7 C15.6677244,7 15.339654,7.01800798 15.0167115,7.0531012 C13.7771566,9.09783778 13.1376422,12.229296 13.1908195,14.175797 C13.1908195,14.175797 13.1025146,17.1807077 14.9750412,18.2465355 C14.9750412,18.2465355 16.6578473,19.0581846 17.8046542,16.4336804 C17.8046542,16.4336804 18.5928429,14.9525502 18.2720146,11.6051443 C18.2720146,11.6051443 18.5789609,11.6645963 18.6136659,11.7180169 C18.6483709,11.7710068 19.2915699,14.2951318 18.8396339,16.4207561 C18.8396339,16.4207561 18.4235597,18.9186016 16.3778938,19.4898578 C14.332999,20.0611139 12.7392691,18.6790704 11.6572449,17.3771578 C10.8221045,16.3723519 9.56752394,13.6123087 9.00407833,10.3377833 C7.75083281,11.8843094 7,13.8545964 7,16.0002044 C7,17.554417 7.39397525,19.0166101 8.08750804,20.292368 C10.2408576,20.8907858 15.8414447,22.0960258 19.3957782,19.6647574 C21.7329748,18.0657354 21.4318352,15.5050182 21.4318352,15.5050182 C21.3931413,13.5571779 20.1225509,11.6223776 20.1225509,11.6223776 C25.0631749,15.7939343 22.1430461,20.4284086 22.1430461,20.4284086 C21.0129669,22.5827067 18.8912266,24.0915595 16.8031278,24.9646554 C21.3974653,24.5583861 25,20.7000116 25,16.0002044 C25,13.9145617 24.2905492,11.9945773 23.0998158,10.4684375 Z M16,26 C10.4771349,26 6,21.5229575 6,16.0002065 C6,10.4773828 10.4772076,6 16,6 C21.5227924,6 26,10.4773828 26,16.0002065 C26,21.5229575 21.5228651,26 16,26 Z"/>
</svg>
