<svg xmlns="http://www.w3.org/2000/svg" width="32" height="32" viewBox="0 0 32 32">
  <path fill="#29B2DC" fill-rule="evenodd" d="M11.9391667,24.8016667 L6.73787653,25.8511202 C6.46718908,25.9057362 6.20347848,25.7305757 6.14886244,25.4598883 C6.135694,25.394623 6.13569309,25.327385 6.14885975,25.2621194 L7.19833333,20.06 L17.0253652,10.2337455 C17.4158708,9.84320247 18.0490358,9.84322752 18.4395447,10.2337673 C18.439556,10.2337786 18.4395674,10.23379 18.4395446,10.2338356 L21.767122,13.5619978 C22.1576338,13.9525346 22.1575781,14.5856996 21.7670195,14.9761895 C21.7670123,14.9761968 21.767005,14.9762041 21.766976,14.9761895 L11.9391667,24.8016667 Z M25.292769,10.0338508 L21.964731,6.7069825 C21.5741394,6.31652559 20.9409744,6.31663687 20.5505188,6.70722978 C20.5505183,6.7072302 20.5505179,6.70723062 20.5505188,6.7072323 L19.6178146,7.6402677 C19.227707,8.03101353 19.2277076,8.66398589 19.6178159,9.05473102 L22.9455175,12.3836023 C23.3354727,12.7746955 23.9686376,12.7748068 24.3592305,12.3843511 C24.3593974,12.3841843 24.3595643,12.3840174 24.3592304,12.3833503 L25.2932696,11.4483163 C25.6832354,11.0574308 25.6830114,10.4244602 25.292769,10.0338508 Z"/>
</svg>
