<?xml version="1.0" encoding="UTF-8"?>
<svg width="32px" height="32px" viewBox="0 0 32 32" version="1.1" xmlns="http://www.w3.org/2000/svg" xmlns:xlink="http://www.w3.org/1999/xlink">
    <title>list2_icon/privacy_32px/normal</title>
    <g id="list2_icon/privacy_32px/normal" stroke="none" stroke-width="1" fill="none" fill-rule="evenodd">
        <g id="编组">
            <rect id="矩形" x="0" y="0" width="32" height="32"></rect>
            <path d="M21,15 C24.3137085,15 27,17.6862915 27,21 C27,24.3137085 24.3137085,27 21,27 C17.6862915,27 15,24.3137085 15,21 C15,17.6862915 17.6862915,15 21,15 Z M20,5 C22.209139,5 24,6.790861 24,9 L24.0007361,14.6739809 C23.0912936,14.2418215 22.073887,14 21,14 C17.1340068,14 14,17.1340068 14,21 C14,22.9595103 14.8051427,24.7309694 16.1026501,26.0015996 L11,26 C8.790861,26 7,24.209139 7,22 L7,9 C7,6.790861 8.790861,5 11,5 L20,5 Z M20.6387685,17.348317 L20.5964688,17.4176436 L19.6774832,19.2797118 L17.6225689,19.5783083 C17.5246323,19.5925393 17.4341182,19.6386585 17.3650393,19.7095262 C17.2132482,19.8652478 17.1970624,20.1028403 17.3146121,20.2760204 L17.3731729,20.3458703 L18.8601228,21.7952882 L18.5091016,23.8418992 C18.492372,23.9394401 18.5082636,24.0397758 18.5543162,24.127373 C18.6571165,24.3229108 18.8835173,24.4114627 19.0870585,24.3475019 L19.1620288,24.3162786 L21,23.35 L22.8379712,24.3162786 C22.9255684,24.3623312 23.025904,24.3782228 23.123445,24.3614932 C23.3411795,24.3241488 23.495359,24.1361929 23.4974264,23.9228488 L23.4908984,23.8418992 L23.1398772,21.7952882 L24.6268271,20.3458703 C24.6976947,20.2767914 24.7438139,20.1862773 24.758045,20.0883407 C24.789812,19.8697227 24.6586994,19.6650077 24.4564359,19.5971146 L24.3774311,19.5783083 L22.3225168,19.2797118 L21.4035312,17.4176436 C21.3597326,17.3288979 21.2879002,17.2570655 21.1991546,17.2132669 C21.0010531,17.115498 20.7658415,17.1769331 20.6387685,17.348317 Z M15,13 L11,13 C10.4477153,13 10,13.4477153 10,14 C10,14.5128358 10.3860402,14.9355072 10.8833789,14.9932723 L11,15 L15,15 C15.5522847,15 16,14.5522847 16,14 C16,13.4477153 15.5522847,13 15,13 Z M20,9 L11,9 C10.4477153,9 10,9.44771525 10,10 C10,10.5128358 10.3860402,10.9355072 10.8833789,10.9932723 L11,11 L20,11 C20.5522847,11 21,10.5522847 21,10 C21,9.44771525 20.5522847,9 20,9 Z" id="形状结合" fill="#29B2DC"></path>
        </g>
    </g>
</svg>