<?xml version="1.0" encoding="UTF-8"?>
<svg width="48px" height="48px" viewBox="0 0 48 48" version="1.1" xmlns="http://www.w3.org/2000/svg" xmlns:xlink="http://www.w3.org/1999/xlink">
    <title>icon/更新/安全</title>
    <defs>
        <filter x="-16.2%" y="-14.1%" width="132.5%" height="128.3%" filterUnits="objectBoundingBox" id="filter-1">
            <feOffset dx="0" dy="1" in="SourceAlpha" result="shadowOffsetOuter1"></feOffset>
            <feGaussianBlur stdDeviation="1" in="shadowOffsetOuter1" result="shadowBlurOuter1"></feGaussianBlur>
            <feColorMatrix values="0 0 0 0 0   0 0 0 0 0   0 0 0 0 0  0 0 0 0.2 0" type="matrix" in="shadowBlurOuter1" result="shadowMatrixOuter1"></feColorMatrix>
            <feMerge>
                <feMergeNode in="shadowMatrixOuter1"></feMergeNode>
                <feMergeNode in="SourceGraphic"></feMergeNode>
            </feMerge>
        </filter>
        <linearGradient x1="50%" y1="9.67196746%" x2="50%" y2="100%" id="linearGradient-2">
            <stop stop-color="#93E3FF" offset="0%"></stop>
            <stop stop-color="#0E74F9" offset="100%"></stop>
        </linearGradient>
        <linearGradient x1="50%" y1="0.663027777%" x2="50%" y2="99.885271%" id="linearGradient-3">
            <stop stop-color="#88D2FE" offset="0%"></stop>
            <stop stop-color="#006BE3" offset="100%"></stop>
        </linearGradient>
        <linearGradient x1="50%" y1="-11.211659%" x2="50%" y2="103.545515%" id="linearGradient-4">
            <stop stop-color="#FDFEFF" offset="0%"></stop>
            <stop stop-color="#DFEEFF" offset="100%"></stop>
        </linearGradient>
        <path d="M25,32 L25,34 L15,34 L15,32 L25,32 Z M24,28 L24,30 L16,30 L16,28 L24,28 Z M20,11 L28,18 L24,18 L24,25 L16,25 L16,18 L12,18 L20,11 Z" id="path-5"></path>
        <filter x="-31.2%" y="-17.4%" width="162.5%" height="143.5%" filterUnits="objectBoundingBox" id="filter-6">
            <feOffset dx="0" dy="1" in="SourceAlpha" result="shadowOffsetOuter1"></feOffset>
            <feGaussianBlur stdDeviation="1.5" in="shadowOffsetOuter1" result="shadowBlurOuter1"></feGaussianBlur>
            <feComposite in="shadowBlurOuter1" in2="SourceAlpha" operator="out" result="shadowBlurOuter1"></feComposite>
            <feColorMatrix values="0 0 0 0 0   0 0 0 0 0.207548652   0 0 0 0 0.4627774  0 0 0 0.123279065 0" type="matrix" in="shadowBlurOuter1"></feColorMatrix>
        </filter>
    </defs>
    <g id="icon/更新/安全" stroke="none" stroke-width="1" fill="none" fill-rule="evenodd">
        <g id="编组" filter="url(#filter-1)" transform="translate(4.000000, 1.000000)" fill-rule="nonzero">
            <path d="M20.0229866,1.59737929 C20.750567,1.59489641 21.4789197,1.81870061 22.0968084,2.2691715 C24.7507644,4.20403444 27.328166,5.63002588 29.8271331,6.55078404 C32.4936562,7.53327913 35.2481651,8.11060086 38.0906619,8.28270396 C38.486546,8.30667918 38.8388814,8.48269114 39.0922456,8.75186179 C39.3456077,9.02103028 39.5,9.38335621 39.5,9.77996254 L39.5,9.77996254 L39.5,23.3451458 C39.5000015,27.4022095 38.2345811,31.3582523 35.8800242,34.6621634 C34.9609638,35.9517877 33.8886231,37.2290505 32.6634665,38.4943353 C30.1210807,41.1199932 27.2734781,43.0551278 24.1241516,44.294606 L24.1241516,44.294606 L23.6187295,44.4867396 C21.4653884,45.2764094 19.0990627,45.2603887 16.9566111,44.4416351 C12.8797772,42.883643 9.67055803,40.9048074 7.33653351,38.4943353 C5.62501004,36.7267534 4.13047085,34.6612633 2.85157217,32.298863 C1.30823031,29.4479768 0.5,26.2572948 0.5,23.0154656 L0.5,23.0154656 L0.5,9.81714556 C0.500003475,9.41772159 0.656524878,9.05333721 0.912772907,8.78374294 C1.16901972,8.51414996 1.52499236,8.33934623 1.92390013,8.31908212 C4.5883028,8.1837332 7.33814403,7.59525325 10.1728669,6.55078404 C12.6517068,5.63744186 15.0657529,4.34588798 17.4180134,2.672052 L17.4180134,2.672052 L17.953798,2.28330961 C18.5685979,1.82863215 19.2954061,1.59986218 20.0229866,1.59737929 Z" id="矩形备份" stroke="url(#linearGradient-3)" fill="url(#linearGradient-2)"></path>
            <g id="形状结合">
                <use fill="black" fill-opacity="1" filter="url(#filter-6)" xlink:href="#path-5"></use>
                <use fill-opacity="0.99" fill="url(#linearGradient-4)" xlink:href="#path-5"></use>
            </g>
        </g>
    </g>
</svg>