<svg xmlns="http://www.w3.org/2000/svg" width="32" height="32" viewBox="0 0 32 32">
  <path fill="#29B2DC" fill-rule="evenodd" d="M11,7 L21,7 C21.5522847,7 22,7.44771525 22,8 L22,11 C22,13.209139 20.209139,15 18,15 L14,15 C11.790861,15 10,13.209139 10,11 L10,8 C10,7.44771525 10.4477153,7 11,7 Z M12.5,3 L13.5,3 C13.7761424,3 14,3.22385763 14,3.5 L14,5.5 C14,5.77614237 13.7761424,6 13.5,6 L12.5,6 C12.2238576,6 12,5.77614237 12,5.5 L12,3.5 C12,3.22385763 12.2238576,3 12.5,3 Z M18.5,3 L19.5,3 C19.7761424,3 20,3.22385763 20,3.5 L20,5.5 C20,5.77614237 19.7761424,6 19.5,6 L18.5,6 C18.2238576,6 18,5.77614237 18,5.5 L18,3.5 C18,3.22385763 18.2238576,3 18.5,3 Z M15.4812826,15.8837742 C15.5454723,15.4745645 15.9292384,15.1948706 16.338448,15.2590604 C16.7476577,15.3232501 17.0273516,15.7070162 16.9631619,16.1162258 C16.4154167,19.6081013 16.9277313,21.6253402 18.3354102,22.3291796 C20.0719419,23.1974455 20.8443326,25.0955336 20.7396188,27.9382349 C20.7148145,28.6116064 19.214322,28.5384919 19.2400511,27.9540598 C19.3422154,25.633414 18.7890774,24.2330642 17.6645898,23.6708204 C15.5167131,22.5968821 14.8438426,19.9474542 15.4812826,15.8837742 Z"/>
</svg>
