<?xml version="1.0" encoding="UTF-8"?>
<svg width="48px" height="48px" viewBox="0 0 48 48" version="1.1" xmlns="http://www.w3.org/2000/svg" xmlns:xlink="http://www.w3.org/1999/xlink">
    <title>icon/更新/未知</title>
    <defs>
        <filter x="-16.2%" y="-16.7%" width="132.5%" height="133.3%" filterUnits="objectBoundingBox" id="filter-1">
            <feOffset dx="0" dy="1" in="SourceAlpha" result="shadowOffsetOuter1"></feOffset>
            <feGaussianBlur stdDeviation="1" in="shadowOffsetOuter1" result="shadowBlurOuter1"></feGaussianBlur>
            <feColorMatrix values="0 0 0 0 0   0 0 0 0 0   0 0 0 0 0  0 0 0 0.2 0" type="matrix" in="shadowBlurOuter1" result="shadowMatrixOuter1"></feColorMatrix>
            <feMerge>
                <feMergeNode in="shadowMatrixOuter1"></feMergeNode>
                <feMergeNode in="SourceGraphic"></feMergeNode>
            </feMerge>
        </filter>
        <linearGradient x1="50%" y1="0%" x2="50%" y2="99.7678103%" id="linearGradient-2">
            <stop stop-color="#EFDAB2" offset="0%"></stop>
            <stop stop-color="#C8A56E" offset="12.9080202%"></stop>
            <stop stop-color="#DFC89F" offset="13.6776839%"></stop>
            <stop stop-color="#CEA159" offset="100%"></stop>
        </linearGradient>
        <path d="M0.19783471,4.58891619 L1.20312882,2.5 C1.93860975,0.971732793 3.48466349,3.11556474e-16 5.18069793,0 L34.8193021,0 C36.5153365,5.76621946e-16 38.0613903,0.971732793 38.7968712,2.5 L39.8021653,4.58891619 C39.9323827,4.85949697 40,5.1559269 40,5.45621099 L40,35 C40,37.209139 38.209139,39 36,39 L4,39 C1.790861,39 2.705415e-16,37.209139 0,35 L0,5.45621099 C4.09338162e-15,5.1559269 0.0676172966,4.85949697 0.19783471,4.58891619 Z" id="path-3"></path>
        <linearGradient x1="50%" y1="0%" x2="50%" y2="100%" id="linearGradient-5">
            <stop stop-color="#FFEDCC" offset="0%"></stop>
            <stop stop-color="#DDCDB0" offset="43.4671013%"></stop>
            <stop stop-color="#F8DFBB" offset="45.8842081%"></stop>
            <stop stop-color="#DECEB1" offset="49.0788075%"></stop>
            <stop stop-color="#F7E0B8" offset="100%"></stop>
        </linearGradient>
        <linearGradient x1="50%" y1="-17.3910753%" x2="50%" y2="99.8561171%" id="linearGradient-6">
            <stop stop-color="#B17F64" offset="0%"></stop>
            <stop stop-color="#7F4027" offset="100%"></stop>
        </linearGradient>
        <path d="M7.33624454,13.7802198 L7.33624454,13.4148352 C7.33624454,12.7884615 7.46724891,12.2403846 7.72925764,11.7184066 C7.9650655,11.2486264 8.30567686,10.8049451 8.77729258,10.4134615 C10.0349345,9.31730769 10.7947598,8.61263736 11.0305677,8.35164835 C11.6593886,7.51648352 12,6.44642857 12,5.14148352 C12,3.54945055 11.4759825,2.2967033 10.4279476,1.38324176 C9.37991266,0.443681319 7.99126638,0 6.28820961,0 C4.34934498,0 2.82969432,0.548076923 1.70305677,1.64423077 C0.550218341,2.74038462 0,4.25412088 0,6.18543956 L2.98689956,6.18543956 C2.98689956,5.08928571 3.19650655,4.22802198 3.6419214,3.62774725 C4.13973799,2.89697802 4.95196507,2.55769231 6.10480349,2.55769231 C6.99563319,2.55769231 7.70305677,2.79258242 8.20087336,3.28846154 C8.67248908,3.78434066 8.93449782,4.46291209 8.93449782,5.32417582 C8.93449782,5.97664835 8.69868996,6.60302198 8.22707424,7.1771978 L7.91266376,7.54258242 C6.20960699,9.05631868 5.18777293,10.1524725 4.84716157,10.8571429 C4.48034934,11.5618132 4.3231441,12.4230769 4.3231441,13.4148352 L4.3231441,13.7802198 L7.33624454,13.7802198 Z M5.81659389,19 C6.3930131,19 6.86462882,18.8173077 7.25764192,18.4519231 C7.65065502,18.0865385 7.86026201,17.5906593 7.86026201,17.0164835 C7.86026201,16.4423077 7.65065502,15.9725275 7.28384279,15.6071429 C6.89082969,15.2417582 6.3930131,15.0590659 5.81659389,15.0590659 C5.24017467,15.0590659 4.76855895,15.2417582 4.37554585,15.6071429 C3.98253275,15.9725275 3.79912664,16.4423077 3.79912664,17.0164835 C3.79912664,17.5906593 3.98253275,18.0604396 4.37554585,18.4258242 C4.76855895,18.7912088 5.24017467,19 5.81659389,19 Z" id="path-7"></path>
        <filter x="-75.0%" y="-31.6%" width="250.0%" height="194.7%" filterUnits="objectBoundingBox" id="filter-8">
            <feOffset dx="0" dy="3" in="SourceAlpha" result="shadowOffsetOuter1"></feOffset>
            <feGaussianBlur stdDeviation="2.5" in="shadowOffsetOuter1" result="shadowBlurOuter1"></feGaussianBlur>
            <feComposite in="shadowBlurOuter1" in2="SourceAlpha" operator="out" result="shadowBlurOuter1"></feComposite>
            <feColorMatrix values="0 0 0 0 0.520238462   0 0 0 0 0.260051728   0 0 0 0 0  0 0 0 0.269239306 0" type="matrix" in="shadowBlurOuter1"></feColorMatrix>
        </filter>
    </defs>
    <g id="icon/更新/未知" stroke="none" stroke-width="1" fill="none" fill-rule="evenodd">
        <g id="编组备份" filter="url(#filter-1)" transform="translate(4.000000, 5.000000)">
            <mask id="mask-4" fill="white">
                <use xlink:href="#path-3"></use>
            </mask>
            <use id="蒙版" fill="url(#linearGradient-2)" xlink:href="#path-3"></use>
            <path d="M14.8795099,-0.0423728814 L14.330886,5.00585937 L14.330886,9.60840175 C14.330886,9.90663665 14.5726532,10.1484038 14.8708881,10.1484038 C15.0340473,10.1484038 15.1884589,10.0746334 15.2909779,9.94770508 L15.3087629,9.92568551 C15.7190019,9.41777064 16.4633126,9.33858865 16.9712275,9.74882758 C17.0435619,9.80725154 17.108751,9.87400541 17.165443,9.94770508 C17.5635209,10.4652063 18.3057444,10.5620181 18.8232456,10.1639402 C18.8969452,10.1072481 18.9636991,10.0420591 19.0221231,9.96972465 L19.0576931,9.92568551 C19.4679321,9.41777064 20.2122428,9.33858865 20.7201577,9.74882758 C20.7924921,9.80725154 20.8576812,9.87400541 20.9143732,9.94770508 C21.3124511,10.4652063 22.0546746,10.5620181 22.5721758,10.1639402 C22.6458755,10.1072481 22.7126293,10.0420591 22.7710533,9.96972465 L22.7888383,9.94770508 C23.2171124,9.41746097 23.9941449,9.33479794 24.5243891,9.76307202 C24.5922891,9.81791437 24.6541798,9.87980503 24.7090221,9.94770508 C24.8964142,10.1797143 25.2364061,10.2158836 25.4684153,10.0284916 C25.5953436,9.92597255 25.669114,9.77156104 25.669114,9.60840175 L25.669114,5.00585937 L25.669114,5.00585937 L25.1204901,-0.0423728814 L14.8795099,-0.0423728814 Z" id="路径-10备份" fill="url(#linearGradient-5)" mask="url(#mask-4)"></path>
            <g id="更新" mask="url(#mask-4)">
                <g transform="translate(14.000000, 14.043232)" id="？">
                    <use fill="black" fill-opacity="1" filter="url(#filter-8)" xlink:href="#path-7"></use>
                    <use fill="url(#linearGradient-6)" fill-rule="evenodd" xlink:href="#path-7"></use>
                </g>
            </g>
        </g>
    </g>
</svg>