<?xml version="1.0" encoding="UTF-8"?>
<svg width="64px" height="64px" viewBox="0 0 64 64" version="1.1" xmlns="http://www.w3.org/2000/svg" xmlns:xlink="http://www.w3.org/1999/xlink">
    <title>ICON/Nav/privacy</title>
    <defs>
        <filter x="-41.1%" y="-36.1%" width="182.2%" height="172.2%" filterUnits="objectBoundingBox" id="filter-1">
            <feOffset dx="0" dy="3" in="SourceAlpha" result="shadowOffsetOuter1"></feOffset>
            <feGaussianBlur stdDeviation="3" in="shadowOffsetOuter1" result="shadowBlurOuter1"></feGaussianBlur>
            <feColorMatrix values="0 0 0 0 0   0 0 0 0 0.353354473   0 0 0 0 0.75611413  0 0 0 0.295072115 0" type="matrix" in="shadowBlurOuter1" result="shadowMatrixOuter1"></feColorMatrix>
            <feMerge>
                <feMergeNode in="shadowMatrixOuter1"></feMergeNode>
                <feMergeNode in="SourceGraphic"></feMergeNode>
            </feMerge>
        </filter>
        <linearGradient x1="50%" y1="-7.22999659%" x2="50%" y2="105.246241%" id="linearGradient-2">
            <stop stop-color="#FFFFFF" offset="0%"></stop>
            <stop stop-color="#D4EAFF" offset="99.9317089%"></stop>
        </linearGradient>
        <path d="M21.3051689,0 C22.5424352,-0.00389599829 23.7809321,0.373862932 24.8346623,1.13396866 C27.2018165,2.8415096 29.4681496,4.08079559 31.6230444,4.86968877 C33.9500642,5.72159585 36.3492176,6.22411461 38.829729,6.37889248 C39.8838889,6.44466187 40.8216172,6.9146155 41.4958059,7.63217878 C42.1699959,8.34974351 42.5806452,9.31491875 42.5806452,10.3711291 L42.5806452,10.3711291 L42.5806452,24.900497 C42.5806452,29.7446187 40.9818514,34.4533136 38.0323407,38.2959563 C37.2132237,39.3631075 36.2965039,40.4160684 35.283233,41.4558195 C32.6512841,44.1565498 29.6833895,46.1822047 26.3592366,47.5198089 L26.3592366,47.5198089 L25.8299633,47.7250587 C23.0855813,48.7510943 20.0605608,48.7376579 17.3253096,47.6871554 C13.1550118,46.085508 9.79948842,44.0232833 7.29741218,41.4558195 C5.6294671,39.7442855 4.16355223,37.7771678 2.8978682,35.5618521 C0.998858017,32.2380308 0,28.4762229 0,24.6481651 L0,24.6481651 L0,10.4074216 C0,9.34416787 0.415959667,8.37384233 1.09735719,7.65519807 C1.77875269,6.93655594 2.72558446,6.46959392 3.78733061,6.4130638 C6.07663677,6.29117519 8.46548856,5.7820351 10.9576008,4.86968877 C13.1020607,4.08461573 15.2049937,2.97304451 17.2506878,1.53796228 L17.2506878,1.53796228 L17.7830588,1.15669938 C18.8318668,0.389816156 20.0679026,0.00408061366 21.3051689,0 Z" id="path-3"></path>
        <filter x="-4.7%" y="-4.1%" width="109.4%" height="108.2%" filterUnits="objectBoundingBox" id="filter-4">
            <feGaussianBlur stdDeviation="1" in="SourceAlpha" result="shadowBlurInner1"></feGaussianBlur>
            <feOffset dx="0" dy="-2" in="shadowBlurInner1" result="shadowOffsetInner1"></feOffset>
            <feComposite in="shadowOffsetInner1" in2="SourceAlpha" operator="arithmetic" k2="-1" k3="1" result="shadowInnerInner1"></feComposite>
            <feColorMatrix values="0 0 0 0 0.44378811   0 0 0 0 0.621676244   0 0 0 0 1  0 0 0 0.5 0" type="matrix" in="shadowInnerInner1"></feColorMatrix>
        </filter>
        <linearGradient x1="50%" y1="0%" x2="50%" y2="100%" id="linearGradient-5">
            <stop stop-color="#46CEFB" offset="0%"></stop>
            <stop stop-color="#294CC3" offset="100%"></stop>
        </linearGradient>
        <path d="M23.6636833,2.755329 C26.1598217,4.55601624 28.5837553,5.88683625 30.9354839,6.74778903 C33.4140381,7.65517185 35.9105456,8.19326581 38.4250064,8.36207092 C39.4754406,8.43301629 40.2910514,9.30613714 40.2903226,10.3589641 L40.2903226,25.2635051 C40.2897482,29.8958031 38.6812087,34.384265 35.7368094,37.9603953 C35.1598941,38.6619678 34.531257,39.3618236 33.8508979,40.0599627 C31.2672777,42.7111014 28.3625209,44.6408005 25.1366275,45.8490599 L25.1370765,45.8502589 C22.84923,46.7069904 20.3269047,46.6965913 18.0462002,45.8210245 C14.1030505,44.3076301 10.9976293,42.3871119 8.7297473,40.0599627 C7.29828196,38.5910884 6.04523027,36.9260899 4.97059222,35.0649671 C3.21460438,32.0260223 2.29064997,28.578112 2.29032258,25.0683147 L2.29032258,10.3939983 C2.29050069,9.33363763 3.11820311,8.45771323 4.17686938,8.39779171 C6.52934243,8.25929383 9.01877307,7.70929294 11.6451613,6.74778903 C14.1556727,5.82870687 16.595729,4.5027305 18.9653301,2.76985993 L18.9649827,2.76938451 C20.3630695,1.74772078 22.2597895,1.74165879 23.6643783,2.75436507 Z" id="path-6"></path>
        <filter x="-7.9%" y="-6.5%" width="115.8%" height="113.0%" filterUnits="objectBoundingBox" id="filter-7">
            <feMorphology radius="2" operator="erode" in="SourceAlpha" result="shadowSpreadInner1"></feMorphology>
            <feGaussianBlur stdDeviation="1.5" in="shadowSpreadInner1" result="shadowBlurInner1"></feGaussianBlur>
            <feOffset dx="0" dy="-1" in="shadowBlurInner1" result="shadowOffsetInner1"></feOffset>
            <feComposite in="shadowOffsetInner1" in2="SourceAlpha" operator="arithmetic" k2="-1" k3="1" result="shadowInnerInner1"></feComposite>
            <feColorMatrix values="0 0 0 0 0   0 0 0 0 0.0856097028   0 0 0 0 1  0 0 0 0.5 0" type="matrix" in="shadowInnerInner1"></feColorMatrix>
        </filter>
        <linearGradient x1="50%" y1="-11.211659%" x2="50%" y2="103.545515%" id="linearGradient-8">
            <stop stop-color="#F3FFF9" offset="0%"></stop>
            <stop stop-color="#9ECDFF" offset="100%"></stop>
        </linearGradient>
        <path d="M15.2903226,25.419572 L15.2903226,14.419572 C15.2903226,13.5911449 15.9618955,12.919572 16.7903226,12.919572 C17.6187497,12.919572 18.2903226,13.5911449 18.2903226,14.419572 L18.2903226,23.419572 C18.2903226,23.6957144 18.5141802,23.919572 18.7903226,23.919572 C19.066465,23.919572 19.2903226,23.6957144 19.2903226,23.419572 L19.2903226,11.419572 C19.2903226,10.5911449 19.9618955,9.91957204 20.7903226,9.91957204 C21.6187497,9.91957204 22.2903226,10.5911449 22.2903226,11.419572 L22.2903226,23.419572 C22.2903226,23.6957144 22.5141802,23.919572 22.7903226,23.919572 C23.066465,23.919572 23.2903226,23.6957144 23.2903226,23.419572 L23.2903226,13.419572 C23.2903226,12.5911449 23.9618955,11.919572 24.7903226,11.919572 C25.6187497,11.919572 26.2903226,12.5911449 26.2903226,13.419572 L26.2903226,24.419572 C26.2903226,24.6957144 26.5141802,24.919572 26.7903226,24.919572 C27.066465,24.919572 27.2903226,24.6957144 27.2903226,24.419572 L27.2903226,16.419572 C27.2903226,15.5911449 27.9618955,14.919572 28.7903226,14.919572 C29.6187497,14.919572 30.2903226,15.5911449 30.2903226,16.419572 L30.2903226,30.419572 C30.2903226,34.5617077 26.9324582,37.919572 22.7903226,37.919572 L21.4756253,37.919572 C17.7964174,37.9194912 14.4877301,35.679981 13.119894,32.2644875 C12.4558775,30.6049662 11.8460203,29.1566611 11.2903226,27.919572 C10.4086594,25.9568218 9.59900308,24.0874062 8.86135366,22.3113251 C8.64824002,21.7982665 8.89142087,21.2095989 9.40448941,20.9965091 C9.52678278,20.9457177 9.65790116,20.919572 9.79032258,20.919572 C10.7209182,20.919572 11.5832787,21.4078323 12.0620662,22.2058114 L14.0330747,25.4908256 C14.1926705,25.7568186 14.480124,25.919572 14.7903226,25.919572 C15.066465,25.919572 15.2903226,25.6957144 15.2903226,25.419572 Z" id="path-9"></path>
        <filter x="-20.5%" y="-8.9%" width="140.9%" height="135.7%" filterUnits="objectBoundingBox" id="filter-10">
            <feOffset dx="0" dy="3" in="SourceAlpha" result="shadowOffsetOuter1"></feOffset>
            <feGaussianBlur stdDeviation="1" in="shadowOffsetOuter1" result="shadowBlurOuter1"></feGaussianBlur>
            <feColorMatrix values="0 0 0 0 0   0 0 0 0 0.127463782   0 0 0 0 0.859969429  0 0 0 0.5 0" type="matrix" in="shadowBlurOuter1"></feColorMatrix>
        </filter>
        <filter x="-13.6%" y="-3.6%" width="127.3%" height="125.0%" filterUnits="objectBoundingBox" id="filter-11">
            <feGaussianBlur stdDeviation="0.5" in="SourceAlpha" result="shadowBlurInner1"></feGaussianBlur>
            <feOffset dx="0" dy="1" in="shadowBlurInner1" result="shadowOffsetInner1"></feOffset>
            <feComposite in="shadowOffsetInner1" in2="SourceAlpha" operator="arithmetic" k2="-1" k3="1" result="shadowInnerInner1"></feComposite>
            <feColorMatrix values="0 0 0 0 0.899828506   0 0 0 0 0.953044612   0 0 0 0 1  0 0 0 1 0" type="matrix" in="shadowInnerInner1" result="shadowMatrixInner1"></feColorMatrix>
            <feGaussianBlur stdDeviation="0.5" in="SourceAlpha" result="shadowBlurInner2"></feGaussianBlur>
            <feOffset dx="0" dy="-1" in="shadowBlurInner2" result="shadowOffsetInner2"></feOffset>
            <feComposite in="shadowOffsetInner2" in2="SourceAlpha" operator="arithmetic" k2="-1" k3="1" result="shadowInnerInner2"></feComposite>
            <feColorMatrix values="0 0 0 0 0   0 0 0 0 0.371776661   0 0 0 0 1  0 0 0 0.714188156 0" type="matrix" in="shadowInnerInner2" result="shadowMatrixInner2"></feColorMatrix>
            <feMerge>
                <feMergeNode in="shadowMatrixInner1"></feMergeNode>
                <feMergeNode in="shadowMatrixInner2"></feMergeNode>
            </feMerge>
        </filter>
    </defs>
    <g id="ICON/Nav/privacy" stroke="none" stroke-width="1" fill="none" fill-rule="evenodd">
        <g id="编组" filter="url(#filter-1)" transform="translate(10.709677, 7.080428)" fill-rule="nonzero">
            <g id="路径">
                <use fill="url(#linearGradient-2)" xlink:href="#path-3"></use>
                <use fill="black" fill-opacity="1" filter="url(#filter-4)" xlink:href="#path-3"></use>
            </g>
            <g id="矩形">
                <use fill="url(#linearGradient-5)" xlink:href="#path-6"></use>
                <use fill="black" fill-opacity="1" filter="url(#filter-7)" xlink:href="#path-6"></use>
            </g>
            <g id="路径-2">
                <use fill="black" fill-opacity="1" filter="url(#filter-10)" xlink:href="#path-9"></use>
                <use fill="url(#linearGradient-8)" xlink:href="#path-9"></use>
                <use fill="black" fill-opacity="1" filter="url(#filter-11)" xlink:href="#path-9"></use>
            </g>
        </g>
    </g>
</svg>