<svg xmlns="http://www.w3.org/2000/svg" width="96" height="96" viewBox="0 0 96 96">
  <g fill="none" fill-rule="evenodd">
    <path fill="#EBEBEB" fill-opacity=".5" d="M0,48 C0,21.4902857 21.4902857,0 48,0 C74.5097143,0 96,21.4902857 96,48 C96,74.5097143 74.5097143,96 48,96 C21.4902857,96 0,74.5097143 0,48 Z"/>
    <path fill="#000" fill-opacity=".2" d="M77,37 L83,47 L77.9276549,47.0009658 C73.88535,63.6432369 58.8857133,76 41,76 C23.1142867,76 8.11464996,63.6432369 4.07234509,47.0009658 L6.13440491,47.0009617 C10.1311245,62.5275187 24.2257915,74 41,74 C57.7742085,74 71.8688755,62.5275187 75.8655951,47.0009617 L71,47 L77,37 Z M42.02,13 C42.35,14.0506567 42.68,15.6116323 42.95,17.5928705 C43.94,17.6829268 44.9,17.8630394 45.83,18.1031895 C46.79,16.3320826 47.63,14.9512195 48.32,14.0806754 L48.32,14.0806754 L50.24,14.7711069 C50.18,15.8818011 49.94,17.4727955 49.52,19.424015 C50.39,19.8442777 51.26,20.3245779 52.07,20.8649156 C53.54,19.5140713 54.83,18.4934334 55.76,17.9230769 L55.76,17.9230769 L57.32,19.2138837 C56.9,20.2645403 56.12,21.6754221 55.04,23.3564728 C55.73,24.0769231 56.36,24.8273921 56.93,25.6078799 C58.79,24.8574109 60.35,24.3470919 61.43,24.1069418 L61.43,24.1069418 L62.45,25.84803 C61.73,26.6885553 60.5,27.739212 58.91,28.9699812 C59.3,29.8405253 59.63,30.7711069 59.9,31.7016886 C61.91,31.641651 63.53,31.6716698 64.64,31.8217636 L64.64,31.8217636 L65,33.8030019 C64.04,34.3133208 62.51,34.9136961 60.59,35.5140713 C60.62,36.0243902 60.65,36.5046904 60.65,36.9849906 C60.65,37.4652908 60.62,37.945591 60.59,38.4559099 C62.51,39.0562852 64.01,39.6566604 65,40.1669794 L65,40.1669794 L64.64,42.1482176 C63.53,42.2983114 61.91,42.3283302 59.9,42.2682927 C59.66,43.1988743 59.3,44.1294559 58.91,45 C60.5,46.2307692 61.7,47.3114447 62.45,48.1219512 L62.45,48.1219512 L61.43,49.8630394 C60.35,49.6228893 58.79,49.1125704 56.93,48.3621013 C56.36,49.1726079 55.73,49.9230769 55.04,50.6135084 C56.12,52.3245779 56.9,53.7354597 57.32,54.7560976 L57.32,54.7560976 L55.76,56.0469043 C54.83,55.4765478 53.57,54.4859287 52.07,53.1350844 C51.26,53.6754221 50.42,54.1557223 49.52,54.575985 C49.97,56.5272045 50.21,58.1181989 50.24,59.2288931 L50.24,59.2288931 L48.32,59.9193246 C47.63,59.0487805 46.76,57.6679174 45.83,55.8968105 C44.9,56.1069418 43.94,56.3170732 42.95,56.4071295 C42.68,58.358349 42.38,59.9493433 42.02,61 L42.02,61 L39.98,61 C39.65,59.9493433 39.32,58.3883677 39.05,56.4071295 C38.06,56.3170732 37.1,56.1369606 36.17,55.8968105 C35.21,57.6679174 34.37,59.0487805 33.68,59.9193246 L33.68,59.9193246 L31.76,59.2288931 C31.82,58.1181989 32.06,56.5272045 32.48,54.575985 C31.61,54.1557223 30.74,53.6754221 29.93,53.1350844 C28.46,54.4559099 27.17,55.4765478 26.24,56.0469043 L26.24,56.0469043 L24.68,54.7560976 C25.1,53.7054409 25.88,52.2945591 26.96,50.6135084 C26.27,49.8930582 25.64,49.1425891 25.07,48.3621013 C23.21,49.1125704 21.65,49.6228893 20.57,49.8630394 L20.57,49.8630394 L19.55,48.1219512 C20.27,47.2814259 21.5,46.2307692 23.09,45 C22.7,44.1294559 22.37,43.1988743 22.1,42.2682927 C20.09,42.3283302 18.47,42.2983114 17.36,42.1482176 L17.36,42.1482176 L17,40.1669794 C17.96,39.6566604 19.49,39.0562852 21.41,38.4559099 C21.38,37.945591 21.35,37.4652908 21.35,36.9849906 C21.35,36.4746717 21.38,35.9943715 21.41,35.5140713 C19.49,34.9136961 17.99,34.3133208 17,33.8030019 L17,33.8030019 L17.36,31.8217636 C18.47,31.6716698 20.09,31.641651 22.1,31.7016886 C22.37,30.7711069 22.7,29.8405253 23.09,28.9699812 C21.5,27.739212 20.3,26.6585366 19.55,25.84803 L19.55,25.84803 L20.57,24.1069418 C21.65,24.3470919 23.21,24.8574109 25.07,25.6078799 C25.64,24.7973734 26.27,24.0469043 26.96,23.3564728 C25.88,21.6454034 25.1,20.2345216 24.68,19.2138837 L24.68,19.2138837 L26.24,17.9230769 C27.17,18.5234522 28.43,19.5140713 29.93,20.8649156 C30.74,20.3245779 31.58,19.8442777 32.48,19.424015 C32.03,17.4727955 31.79,15.8818011 31.76,14.7711069 L31.76,14.7711069 L33.68,14.0806754 C34.37,14.9512195 35.24,16.3320826 36.17,18.1031895 C37.1,17.8930582 38.06,17.6829268 39.05,17.5928705 C39.32,15.641651 39.62,14.0506567 39.98,13 L39.98,13 Z M30.83,45.8705441 C30.41,45.3902439 29.72,45.2701689 29.18,45.5703565 L29.18,45.5703565 L28.85,45.750469 C28.13,46.1707317 27.98,47.1613508 28.52,47.7917448 C30.89,50.5234522 34.16,52.4746717 37.88,53.195122 C38.72,53.3452158 39.5,52.7148218 39.5,51.8742964 L39.5,51.8742964 L39.5,51.5741088 C39.5,50.9136961 39.02,50.3733583 38.36,50.2532833 C35.39,49.6529081 32.75,48.0919325 30.83,45.8705441 Z M52.82,45.5103189 C52.25,45.1801126 51.59,45.3302064 51.17,45.8105066 C49.25,48.0318949 46.61,49.5928705 43.64,50.1932458 C42.98,50.3133208 42.5,50.8536585 42.5,51.5140713 L42.5,51.5140713 L42.5,51.8442777 C42.5,52.684803 43.28,53.315197 44.12,53.1651032 C47.84,52.4746717 51.11,50.5234522 53.48,47.7617261 C54.02,47.1313321 53.87,46.1407129 53.15,45.6904315 L53.15,45.6904315 Z M41,28.4296435 C36.29,28.4296435 32.45,32.272045 32.45,36.9849906 C32.45,41.6979362 36.29,45.5403377 41,45.5403377 C45.71,45.5403377 49.55,41.6979362 49.55,36.9849906 C49.55,32.272045 45.71,28.4296435 41,28.4296435 Z M56.57,31.6116323 C56.27,30.8311445 55.34,30.4709193 54.62,30.891182 L54.62,30.891182 L54.38,31.011257 C53.84,31.3414634 53.54,32.0318949 53.75,32.6322702 C54.23,34.0131332 54.5,35.4840525 54.5,37.0150094 C54.5,38.5459662 54.23,40.0168856 53.75,41.3977486 C53.54,42.0281426 53.81,42.6885553 54.38,43.0187617 L54.38,43.0187617 L54.62,43.1388368 C55.34,43.5590994 56.3,43.2288931 56.57,42.4183865 C57.17,40.7073171 57.5,38.8761726 57.5,37.0150094 C57.5,35.1238274 57.17,33.2926829 56.57,31.6116323 Z M27.35,30.8311445 C26.63,30.4108818 25.67,30.7410882 25.4,31.5515947 C24.8,33.2326454 24.47,35.0637899 24.47,36.9549719 C24.47,38.8761726 24.8,40.6772983 25.4,42.3883677 C25.67,43.1688555 26.63,43.5290807 27.35,43.108818 L27.35,43.108818 L27.59,42.988743 C28.16,42.6585366 28.46,41.9981238 28.22,41.3377111 C27.74,39.956848 27.47,38.4859287 27.47,36.9549719 C27.47,35.424015 27.74,33.9530957 28.22,32.5722326 C28.43,31.9418386 28.16,31.2814259 27.59,30.9512195 L27.59,30.9512195 Z M41,8.81002919e-15 C58.1618624,1.30134732e-14 72.6665253,11.3768235 77.3835619,27.0000436 L75.288469,27.0000615 C70.6398278,12.4978284 57.0458635,2 41,2 C24.9541365,2 11.3601722,12.4978284 6.71153095,27.0000615 L12,27 L6,37 L1.1736573e-13,27 L4.61643809,27.0000436 C9.33347472,11.3768235 23.8381376,4.60658522e-15 41,8.81002919e-15 Z M44.12,20.7748593 C43.28,20.6247655 42.5,21.2551595 42.5,22.0956848 L42.5,22.0956848 L42.5,22.4258912 C42.5,23.0863039 42.98,23.6266417 43.64,23.7467167 C46.61,24.3470919 49.25,25.9080675 51.17,28.1294559 C51.59,28.6097561 52.28,28.7598499 52.82,28.4296435 L52.82,28.4296435 L53.15,28.249531 C53.87,27.8292683 54.02,26.8386492 53.48,26.2082552 C51.11,23.4465291 47.84,21.4953096 44.12,20.7748593 Z M39.5,22.0956848 C39.5,21.2551595 38.72,20.6247655 37.88,20.7748593 C34.16,21.4953096 30.89,23.4465291 28.52,26.2082552 C27.98,26.8386492 28.13,27.8292683 28.85,28.249531 L28.85,28.249531 L29.18,28.4296435 C29.75,28.7598499 30.41,28.6097561 30.83,28.1294559 C32.75,25.9080675 35.39,24.3470919 38.36,23.7467167 C39.02,23.6266417 39.5,23.0863039 39.5,22.4258912 L39.5,22.4258912 Z" transform="translate(7 11)"/>
  </g>
</svg>
