<?xml version="1.0" encoding="iso-8859-1"?>
<!-- Generator: Adobe Illustrator 18.0.0, SVG Export Plug-In . SVG Version: 6.00 Build 0)  -->
<!DOCTYPE svg PUBLIC "-//W3C//DTD SVG 1.1//EN" "http://www.w3.org/Graphics/SVG/1.1/DTD/svg11.dtd">
<svg version="1.1" id="&#x56FE;&#x5C42;_1" xmlns="http://www.w3.org/2000/svg" xmlns:xlink="http://www.w3.org/1999/xlink" x="0px"
	 y="0px" viewBox="0 0 64 64" style="enable-background:new 0 0 64 64;" xml:space="preserve">
<path style="fill:#B4B4B4;" d="M32.008,7.001c-13.806,0-25,11.196-25,25c0,13.806,11.194,25.002,25,25.002
	c13.808,0,25-11.195,25-25.002C57.008,18.197,45.817,7.001,32.008,7.001z M34,46.001c0,1.105-0.896,2-2,2c-1.104,0-2-0.895-2-2v-22
	c0-1.105,0.896-2,2-2c1.104,0,2,0.895,2,2V46.001z M32.008,19.532c-1.381,0-2.5-1.118-2.5-2.5c0-1.384,1.119-2.5,2.5-2.5
	c1.38,0,2.5,1.116,2.5,2.5C34.508,18.414,33.389,19.532,32.008,19.532z"/>
</svg>
