<?xml version="1.0" encoding="iso-8859-1"?>
<!-- Generator: Adobe Illustrator 18.0.0, SVG Export Plug-In . SVG Version: 6.00 Build 0)  -->
<!DOCTYPE svg PUBLIC "-//W3C//DTD SVG 1.1//EN" "http://www.w3.org/Graphics/SVG/1.1/DTD/svg11.dtd">
<svg version="1.1" id="&#x56FE;&#x5C42;_1" xmlns="http://www.w3.org/2000/svg" xmlns:xlink="http://www.w3.org/1999/xlink" x="0px"
	 y="0px" viewBox="0 0 24 24" style="enable-background:new 0 0 24 24;" xml:space="preserve">
<g>
	<path style="fill:#B5B5B6;" d="M20.252,6.306c-0.404-0.27-0.818-0.502-1.234-0.729c-1.352,1.582-2.742,2.973-2.769,2.998
		c-0.649,0.61-1.072,0.901-1.352,1.093l-0.289,0.204c-0.071,0.494-0.311,0.95-0.692,1.309c-1.132,1.063-2.866,1.448-3.756,1.448
		c-1.004,0-1.417-0.464-1.587-0.854c-0.212-0.486-0.107-1.044,0.275-1.458c0.344-0.37,0.377-0.596,0.437-1.007
		c0.07-0.481,0.175-1.208,0.875-1.865c0.347-0.327,0.779-0.538,1.242-0.612l0.179-0.244l0.105-0.134
		c0.206-0.265,0.517-0.664,1.168-1.275c0.016-0.016,0.585-0.514,1.409-1.189c-1.879-0.246-3.88-0.107-6.046,0.517
		c-3.62,1.043-6.94,5.178-7.197,8.723c-0.304,4.187,2.944,7.774,8.663,7.768c6.166-0.007,8.476-2.981,8.526-3.884
		c0.05-0.904-2.406-2.575-0.825-4.293c1.981-2.151,3.745-0.318,4.813-0.577C23.265,11.989,23.807,8.682,20.252,6.306z M13.066,17.09
		c-1.122,0-2.037-0.917-2.037-2.045c0-1.127,0.914-2.044,2.037-2.044c1.123,0,2.038,0.917,2.038,2.044
		C15.104,16.172,14.189,17.09,13.066,17.09z"/>
	<path style="fill:#B5B5B6;" d="M10.981,8.322c-0.843,0.792-0.132,1.605-1.252,2.811c-0.504,0.544,2.083,0.377,3.365-0.827
		c0.543-0.51,0.39-1.257-0.194-1.804C12.318,7.955,11.526,7.81,10.981,8.322z M20.327,1.451c-0.433-0.405-5.224,3.263-6.652,4.606
		c-0.706,0.663-0.943,1.019-1.16,1.287c-0.094,0.116,0.03,0.153,0.086,0.179c0.281,0.136,0.476,0.263,0.73,0.501
		c0.254,0.239,0.389,0.423,0.534,0.685c0.03,0.054,0.067,0.171,0.19,0.083c0.284-0.204,0.663-0.425,1.371-1.091
		C16.853,6.36,20.759,1.858,20.327,1.451z"/>
</g>
</svg>
