<svg xmlns="http://www.w3.org/2000/svg" width="32" height="32" viewBox="0 0 32 32">
  <path fill="#29B2DC" fill-rule="evenodd" d="M16,5 C21.5228475,5 26,9.92486775 26,16 C26,22.0751322 21.5228475,27 16,27 C10.4771525,27 6,22.0751322 6,16 C6,9.92486775 10.4771525,5 16,5 Z M16,16.9 C14.840202,16.9 13.9,17.840202 13.9,19 L13.9,19 L13.9,22.5 L13.907853,22.5973231 C13.9543532,22.8824104 14.2017662,23.1 14.5,23.1 C14.8313708,23.1 15.1,22.8313708 15.1,22.5 L15.1,22.5 L15.1,19 L15.1070123,18.8871059 C15.1625482,18.4433367 15.5411788,18.1 16,18.1 C16.4970563,18.1 16.9,18.5029437 16.9,19 L16.9,19 L16.9,22.5 L16.907853,22.5973231 C16.9543532,22.8824104 17.2017662,23.1 17.5,23.1 C17.8313708,23.1 18.1,22.8313708 18.1,22.5 L18.1,22.5 L18.1,19 L18.0947273,18.8500266 C18.0178282,17.7602226 17.109372,16.9 16,16.9 Z M16,14.4 C13.4594902,14.4 11.4,16.4594902 11.4,19 L11.4,19 L11.4,22 L11.407853,22.0973231 C11.4543532,22.3824104 11.7017662,22.6 12,22.6 C12.3313708,22.6 12.6,22.3313708 12.6,22 L12.6,22 L12.6,19 L12.6050309,18.8134515 C12.7018772,17.0224411 14.1848241,15.6 16,15.6 C17.8777681,15.6 19.4,17.1222319 19.4,19 L19.4,19 L19.4,22 L19.407853,22.0973231 C19.4543532,22.3824104 19.7017662,22.6 20,22.6 C20.3313708,22.6 20.6,22.3313708 20.6,22 L20.6,22 L20.6,19 L20.5952665,18.7894381 C20.4852127,16.3466631 18.4699401,14.4 16,14.4 Z M16,11.9 C12.0787783,11.9 8.9,15.0787783 8.9,19 C8.9,19.3313708 9.16862915,19.6 9.5,19.6 C9.83137085,19.6 10.1,19.3313708 10.1,19 C10.1,15.74152 12.74152,13.1 16,13.1 C16.3930144,13.1 16.7807538,13.1383433 17.1595662,13.2137938 C17.4845534,13.2785236 17.8004815,13.0675433 17.8652113,12.7425561 C17.9299412,12.4175689 17.7189609,12.1016408 17.3939736,12.036911 C16.9380775,11.9461072 16.4718268,11.9 16,11.9 Z M19.8022791,13.0029653 C19.5225722,12.825284 19.1517857,12.9079921 18.9741044,13.1876991 C18.7964231,13.467406 18.8791312,13.8381925 19.1588382,14.0158738 C20.8528873,15.0920032 21.9,16.9559195 21.9,19 C21.9,19.3313708 22.1686292,19.6 22.5,19.6 C22.8313708,19.6 23.1,19.3313708 23.1,19 C23.1,16.5409655 21.8393978,14.2970265 19.8022791,13.0029653 Z M16,9.4 C13.049594,9.4 10.3181502,10.7401651 8.50746088,12.9976576 C8.30012749,13.2561523 8.34160192,13.6337806 8.60009661,13.841114 C8.8585913,14.0484474 9.23621957,14.0069729 9.44355296,13.7484782 C11.0288574,11.7719863 13.4175293,10.6 16,10.6 C18.565677,10.6 20.9404325,11.7566768 22.5264496,13.7112947 C22.7352422,13.9686121 23.1130991,14.0079492 23.3704166,13.7991566 C23.627734,13.5903639 23.6670711,13.212507 23.4582785,12.9551896 C21.6467721,10.7226771 18.9312038,9.4 16,9.4 Z"/>
</svg>
