<svg xmlns="http://www.w3.org/2000/svg" width="32" height="32" viewBox="0 0 32 32">
  <path fill="#29B2DC" fill-rule="evenodd" d="M24,8 C25.6568542,8 27,9.34314575 27,11 L27,20 C27,21.6568542 25.6568542,23 24,23 L9,23 C7.34314575,23 6,21.6568542 6,20 L6,11 C6,9.34314575 7.34314575,8 9,8 L24,8 Z M24,15 L9,15 C7.8954305,15 7,15.8954305 7,17 L7,17 L7,20 C7,21.1045695 7.8954305,22 9,22 L9,22 L24,22 C25.1045695,22 26,21.1045695 26,20 L26,20 L26,17 C26,15.8954305 25.1045695,15 24,15 L24,15 Z"/>
</svg>
