<svg xmlns="http://www.w3.org/2000/svg" width="32" height="32" viewBox="0 0 32 32">
  <path fill="#29B2DC" fill-rule="evenodd" d="M8.99212234,11.5005966 C9.3945033,11.5005966 9.95002328,11.5005966 10.6586823,11.5005966 C11.2049797,11.5005966 11.2472346,11.7606473 11.1249926,12.1451403 C10.4260657,14.3435051 10.452728,18.0063243 11.2049797,20.0923942 C11.3182012,20.406369 11.1427012,20.5005546 10.8946834,20.5005546 C10.1306186,20.5005546 9.54029882,20.5005546 9.12372414,20.5005546 C8.91581535,20.5005546 8.39891809,20.5005546 8.0272105,19.978062 C7.35181137,19.0286838 6.99999778,17.51676 6.99999778,16.0043256 C6.99999778,14.3816114 7.40476067,12.7588971 8.17502902,11.8309379 C8.44923445,11.5005966 8.82808082,11.5005966 8.99212234,11.5005966 Z M24.9999978,16.0043256 C25.0037433,22.0275474 22.6412439,25.6522805 20.4092445,24.902284 C19.8287446,24.7072849 13.2339962,20.7180536 13.2339962,20.7180536 C11.7392466,19.0530613 11.7392466,13.0020896 13.2339962,11.3370974 C13.2339962,11.3370974 20.1047445,7.23011655 20.3949945,7.1123671 C22.413244,6.2978709 24.9969933,9.97735372 24.9999978,16.0043256 Z M22.4627439,10.2346025 C21.6729941,8.53661045 20.2112445,8.56511031 19.4372447,10.2361025 C18.9962448,11.1893481 18.6924949,12.6098414 18.5297449,13.8338357 L18.9249948,13.8338357 C20.1152445,13.8338357 21.0797443,14.7990812 21.0797443,15.9900756 C21.0797443,17.1810701 20.1152445,18.1463156 18.9249948,18.1463156 L18.5387449,18.1463156 C18.7014949,19.34856 19.0007448,20.7998032 19.4432447,21.8137984 C20.1842445,23.5170405 21.7397441,23.4877906 22.4679939,21.8122985 C23.9274936,18.4545641 23.7969936,13.1055891 22.4627439,10.2346025 L22.4627439,10.2346025 Z"/>
</svg>
