<?xml version="1.0" encoding="UTF-8"?>
<svg width="32px" height="32px" viewBox="0 0 32 32" version="1.1" xmlns="http://www.w3.org/2000/svg" xmlns:xlink="http://www.w3.org/1999/xlink">
    <title>nav_time format_nor_32px</title>
    <g id="nav_time-format_nor_32px" stroke="none" stroke-width="1" fill="none" fill-rule="evenodd">
        <path d="M16,6 C21.5228475,6 26,10.4771525 26,16 C26,16.4060917 25.9757939,16.8065298 25.928746,17.1999502 C24.9878418,16.4484549 23.796292,16 22.5,16 C19.4624339,16 17,18.4624339 17,21.5 C17,23.1259884 17.7055828,24.5871791 18.8272698,25.5940935 C17.9312267,25.8584109 16.9821483,26 16,26 C10.4771525,26 6,21.5228475 6,16 C6,10.4771525 10.4771525,6 16,6 Z M22.5,17 C24.9852814,17 27,19.0147186 27,21.5 C27,23.9852814 24.9852814,26 22.5,26 C20.0147186,26 18,23.9852814 18,21.5 C18,19.0147186 20.0147186,17 22.5,17 Z M25,22 L20,22 L19.9101244,22.0080557 C19.7060313,22.0450996 19.5450996,22.2060313 19.5080557,22.4101244 L19.5,22.5 L19.5080557,22.5898756 C19.5450996,22.7939687 19.7060313,22.9549004 19.9101244,22.9919443 L20,23 L23.792,23 L23.1464466,23.6464466 L23.0885912,23.7156945 C22.9535951,23.9105626 22.9728803,24.179987 23.1464466,24.3535534 C23.320013,24.5271197 23.5894374,24.5464049 23.7843055,24.4114088 L23.8535534,24.3535534 L25.3535534,22.8535534 L25.4094692,22.7878015 C25.6378031,22.4691551 25.4157556,22 25,22 Z M21.2166969,18.5885912 L21.147449,18.6464466 L19.647449,20.1464466 L19.5915332,20.2121985 C19.3795089,20.5080844 19.5558236,20.9337457 19.9149704,20.9930449 L20.0010024,21 L25.0010024,21 L25.090878,20.9919443 C25.2949711,20.9549004 25.4559027,20.7939687 25.4929467,20.5898756 L25.5010024,20.5 L25.4929467,20.4101244 C25.4559027,20.2060313 25.2949711,20.0450996 25.090878,20.0080557 L25.0010024,20 L21.2090024,20 L21.8545558,19.3535534 L21.9124112,19.2843055 C22.0474073,19.0894374 22.0281221,18.820013 21.8545558,18.6464466 C21.6809894,18.4728803 21.411565,18.4535951 21.2166969,18.5885912 Z M15.5,10 C15.2545401,10 15.0503916,10.1768752 15.0080557,10.4101244 L15,10.5 L15,16.5 C15,16.7454599 15.1768752,16.9496084 15.4101244,16.9919443 L15.5,17 L18.5,17 C18.7761424,17 19,16.7761424 19,16.5 C19,16.2545401 18.8231248,16.0503916 18.5898756,16.0080557 L18.5,16 L16,16 L16,10.5 C16,10.2238576 15.7761424,10 15.5,10 Z" id="形状结合" fill="#29B2DC"></path>
    </g>
</svg>