<svg xmlns="http://www.w3.org/2000/svg" width="32" height="32" viewBox="0 0 32 32">
  <path fill="#29B2DC" fill-rule="evenodd" d="M25,8 C26.1045695,8 27,8.8954305 27,10 L27,22 C27,23.1045695 26.1045695,24 25,24 L7,24 C5.8954305,24 5,23.1045695 5,22 L5,10 C5,8.8954305 5.8954305,8 7,8 L25,8 Z M18.1664576,18.9995122 L13.4997909,19.0004878 C12.9475062,19.0006033 12.4998846,19.4484121 12.5,20.0006969 C12.5001155,20.5529816 12.9479243,21.0006032 13.5002091,21.0004878 L18.1668757,20.9995122 C18.7191605,20.9993967 19.1667821,20.5515879 19.1666667,19.9993031 C19.1665512,19.4470184 18.7187423,18.9993968 18.1664576,18.9995122 Z M9.18626653,11.4187618 C8.86525754,11.8681744 8.96934922,12.4927245 9.41876181,12.8137335 L11.7795349,14.5 L9.41876181,16.1862665 C8.96934922,16.5072755 8.86525754,17.1318256 9.18626653,17.5812382 C9.50727552,18.0306508 10.1318256,18.1347425 10.5812382,17.8137335 L14.0812382,15.3137335 C14.6395873,14.9149127 14.6395873,14.0850873 14.0812382,13.6862665 L10.5812382,11.1862665 C10.1318256,10.8652575 9.50727552,10.9693492 9.18626653,11.4187618 Z"/>
</svg>
