<?xml version="1.0" encoding="UTF-8"?>
<svg width="16px" height="16px" viewBox="0 0 16 16" version="1.1" xmlns="http://www.w3.org/2000/svg" xmlns:xlink="http://www.w3.org/1999/xlink">
    <title>识别</title>
    <g id="桌面版" stroke="none" stroke-width="1" fill="none" fill-rule="evenodd">
        <g id="显示-多屏拆分2" transform="translate(-424.000000, -442.000000)">
            <g id="控制中心备份-5" transform="translate(78.000000, 191.000000)">
                <g id="分辨率-+-亮度-+-色温-+-编组-+-编组-4-+-编组-蒙版" transform="translate(198.000000, 60.000000)">
                    <g id="编组-4" transform="translate(126.000000, 181.000000)">
                        <g id="识别" transform="translate(22.000000, 10.000000)">
                            <rect id="矩形" x="0" y="0" width="16" height="16"></rect>
                            <path d="M8,5.45454545 C6.6,5.45454545 5.45454545,6.6 5.45454545,8 C5.45454545,9.4 6.6,10.5454545 8,10.5454545 C9.4,10.5454545 10.5454545,9.4 10.5454545,8 C10.5454545,6.6 9.4,5.45454545 8,5.45454545 L8,5.45454545 Z M13.6636364,7.36363636 C13.3454545,4.69090909 11.2454545,2.59090909 8.63636364,2.33636364 L8.63636364,1 L7.36363636,1 L7.36363636,2.33636364 C4.69090909,2.59090909 2.59090909,4.69090909 2.33636364,7.36363636 L1,7.36363636 L1,8.63636364 L2.33636364,8.63636364 C2.65454545,11.3090909 4.75454545,13.4090909 7.36363636,13.6636364 L7.36363636,15 L8.63636364,15 L8.63636364,13.6636364 C11.3090909,13.3454545 13.4090909,11.2454545 13.6636364,8.63636364 L15,8.63636364 L15,7.36363636 L13.6636364,7.36363636 L13.6636364,7.36363636 Z M8,12.4545455 C5.51818182,12.4545455 3.54545455,10.4818182 3.54545455,8 C3.54545455,5.51818182 5.51818182,3.54545455 8,3.54545455 C10.4818182,3.54545455 12.4545455,5.51818182 12.4545455,8 C12.4545455,10.4818182 10.4818182,12.4545455 8,12.4545455 L8,12.4545455 Z" id="Shape" fill="#536076"></path>
                        </g>
                    </g>
                </g>
            </g>
        </g>
    </g>
</svg>