<svg xmlns="http://www.w3.org/2000/svg" width="32" height="32" viewBox="0 0 32 32">
  <path fill="#29B2DC" fill-rule="evenodd" d="M19,9 C20.1045695,9 21,9.8954305 21,11 L21,24 C21,25.1045695 20.1045695,26 19,26 L9,26 C7.8954305,26 7,25.1045695 7,24 L7,11 C7,9.8954305 7.8954305,9 9,9 L19,9 Z M20,6 C22.209139,6 24,7.790861 24,10 L24,21 C24,22.1045695 23.1045695,23 22,23 L22,11 C22,9.40231912 20.75108,8.09633912 19.1762728,8.00509269 L19,8 L10,8 C10,6.8954305 10.8954305,6 12,6 L20,6 Z M13,20 L10,20 C9.44771525,20 9,20.4477153 9,21 C9,21.5128358 9.38604019,21.9355072 9.88337887,21.9932723 L10,22 L13,22 C13.5522847,22 14,21.5522847 14,21 C14,20.4477153 13.5522847,20 13,20 Z M16,16 L10,16 C9.44771525,16 9,16.4477153 9,17 C9,17.5128358 9.38604019,17.9355072 9.88337887,17.9932723 L10,18 L16,18 C16.5522847,18 17,17.5522847 17,17 C17,16.4477153 16.5522847,16 16,16 Z M18,12 L10,12 C9.44771525,12 9,12.4477153 9,13 C9,13.5128358 9.38604019,13.9355072 9.88337887,13.9932723 L10,14 L18,14 C18.5522847,14 19,13.5522847 19,13 C19,12.4477153 18.5522847,12 18,12 Z"/>
</svg>
