<svg xmlns="http://www.w3.org/2000/svg" width="32" height="32" viewBox="0 0 32 32">
  <path fill="#29B2DC" d="M12.1568674,18.0426397 C10.838677,16.9420218 10,15.2863568 10,13.4348082 C10,11.5832597 10.838677,9.92759473 12.1568674,8.82697678 L12.9600528,10.8349402 C12.3615142,11.5341335 12,12.4422528 12,13.4348082 C12,14.4273637 12.3615142,15.335483 12.9600528,16.0346763 L12.1568674,18.0426397 Z M19.8431326,8.82697678 C21.161323,9.92759473 22,11.5832597 22,13.4348082 C22,15.2863568 21.161323,16.9420218 19.8431326,18.0426397 L19.0399472,16.0346763 C19.6384858,15.335483 20,14.4273637 20,13.4348082 C20,12.4422528 19.6384858,11.5341335 19.0399472,10.8349402 L19.8431326,8.82697678 Z M10.6260767,21.8696165 C7.84448509,20.0937354 6,16.9796731 6,13.4348082 C6,9.8899434 7.84448509,6.77588113 10.6260767,5 L11.3856355,6.89889689 C9.3373102,8.34765839 8,10.7350606 8,13.4348082 C8,16.1345559 9.3373102,18.5219581 11.3856355,19.9707196 L10.6260767,21.8696165 Z M21.3739233,5 C24.1555149,6.77588113 26,9.8899434 26,13.4348082 C26,16.9796731 24.1555149,20.0937354 21.3739233,21.8696165 L20.6143645,19.9707196 C22.6626898,18.5219581 24,16.1345559 24,13.4348082 C24,10.7350606 22.6626898,8.34765839 20.6143645,6.89889689 L21.3739233,5 Z M15,14.7324356 C14.4021986,14.3866262 14,13.7402824 14,13 C14,11.8954305 14.8954305,11 16,11 C17.1045695,11 18,11.8954305 18,13 C18,13.7402824 17.5978014,14.3866262 17,14.7324356 L17,26.0690478 C17,26.5831985 16.5522847,27 16,27 C15.4477153,27 15,26.5831985 15,26.0690478 L15,14.7324356 Z"/>
</svg>
