<?xml version="1.0" encoding="UTF-8"?>
<svg width="32px" height="32px" viewBox="0 0 32 32" version="1.1" xmlns="http://www.w3.org/2000/svg" xmlns:xlink="http://www.w3.org/1999/xlink">
    <title>list2_icon/iris/normal</title>
    <g id="list2_icon/iris/normal" stroke="none" stroke-width="1" fill="none" fill-rule="evenodd">
        <path d="M16,7.5 C20.3655507,7.5 24.7311014,9.97948897 29.0966521,14.9384669 L29.4160844,15.3057424 C29.7531662,15.6979842 29.7355486,16.2825378 29.375457,16.6537678 C24.3015805,21.8845893 19.8430949,24.5 16,24.5 C12.2462834,24.5 7.90546734,22.0048271 2.97755175,17.0144813 L2.62454304,16.6538003 C2.26444388,16.2825629 2.2468258,15.6979972 2.5839144,15.3057474 C7.05594294,10.1019158 11.5279715,7.5 16,7.5 Z M16,10 C12.6862915,10 10,12.6862915 10,16 C10,19.3137085 12.6862915,22 16,22 C19.3137085,22 22,19.3137085 22,16 C22,12.6862915 19.3137085,10 16,10 Z M16,12.5 C16.3558471,12.5 16.6992909,12.5531049 17.0228386,12.6518219 C16.6975456,13.0085134 16.5,13.4811871 16.5,14 C16.5,15.1045695 17.3954305,16 18.5,16 C18.8597527,16 19.1973206,15.9050152 19.488993,15.7387562 C19.4967555,15.8248449 19.5,15.9120435 19.5,16 C19.5,17.9329966 17.9329966,19.5 16,19.5 C14.0670034,19.5 12.5,17.9329966 12.5,16 C12.5,14.0670034 14.0670034,12.5 16,12.5 Z" id="形状结合" fill="#29B2DC"></path>
    </g>
</svg>