<svg xmlns="http://www.w3.org/2000/svg" width="32" height="32" viewBox="0 0 32 32">
  <path fill="#29B2DC" fill-rule="evenodd" d="M16,6 C10.4775,6 6,10.4775 6,16 C6,21.5225 10.4775,26 16,26 C21.5225,26 26,21.5225 26,16 C26,10.4775 21.5225,6 16,6 Z M16,19.1508333 C16.8265592,19.1508333 17.6248083,18.8388314 18.2672277,18.1741405 C18.3884282,18.0487382 19.1086617,17.7320493 19.569293,18.1741405 C20.0299242,18.6162317 19.8902452,19.1380751 19.7447484,19.3013595 C18.7202292,20.4511312 17.3725744,21 16,21 C13.2433333,21 11,18.7566667 11,16 C11,13.2433333 13.2425,11 16,11 C17.3845051,11 18.7611867,11.5624611 19.8023533,12.7634971 C19.8766194,12.8491667 20.0366107,13.5007221 19.569293,13.8760513 C19.1019752,14.2513804 18.3924087,13.9509758 18.2333862,13.7910532 C17.5933602,13.1474049 16.8072296,12.8491667 16,12.8491667 C14.2633333,12.8491667 12.8491667,14.2625 12.8491667,16 C12.8491667,17.7375 14.2625,19.1508333 16,19.1508333 Z"/>
</svg>
