<svg xmlns="http://www.w3.org/2000/svg" width="32" height="32" viewBox="0 0 32 32">
  <path fill="#29B2DC" fill-rule="evenodd" d="M16,26 C10.4771525,26 6,21.5228475 6,16 C6,10.4771525 10.4771525,6 16,6 C21.5228475,6 26,10.4771525 26,16 C26,21.5228475 21.5228475,26 16,26 Z M16,14 C15.4477153,14 15,14.4477153 15,15 L15,22 C15,22.5522847 15.4477153,23 16,23 C16.5522847,23 17,22.5522847 17,22 L17,15 C17,14.4477153 16.5522847,14 16,14 Z M16,12 C16.8284271,12 17.5,11.3284271 17.5,10.5 C17.5,9.67157288 16.8284271,9 16,9 C15.1715729,9 14.5,9.67157288 14.5,10.5 C14.5,11.3284271 15.1715729,12 16,12 Z"/>
</svg>
