<svg xmlns="http://www.w3.org/2000/svg" width="32" height="32" viewBox="0 0 32 32">
  <path fill="#29B2DC" fill-rule="evenodd" d="M16,26.25 C11,20.2575542 8.5,15.9242209 8.5,13.25 C8.5,9.23866866 11.5,5.75 16,5.75 C20.5,5.75 23.5,9.23866866 23.5,13.25 C23.5,15.9242209 21,20.2575542 16,26.25 Z M16,13.75 L16,8.25 C16,7.97385763 15.7761424,7.75 15.5,7.75 C15.2238576,7.75 15,7.97385763 15,8.25 L15,14.25 C15,14.5261424 15.2238576,14.75 15.5,14.75 L18.5,14.75 C18.7761424,14.75 19,14.5261424 19,14.25 C19,13.9738576 18.7761424,13.75 18.5,13.75 L16,13.75 Z"/>
</svg>
