<svg xmlns="http://www.w3.org/2000/svg" width="32" height="32" viewBox="0 0 32 32">
  <path fill="#29B2DC" fill-rule="evenodd" d="M16,5.5 C21.7989899,5.5 26.5,10.2010101 26.5,16 C26.5,21.7989899 21.7989899,26.5 16,26.5 C10.2010101,26.5 5.5,21.7989899 5.5,16 C5.5,10.2010101 10.2010101,5.5 16,5.5 Z M12.9242641,20.0757359 C12.6899495,19.8414214 12.3100505,19.8414214 12.0757359,20.0757359 C11.8414214,20.3100505 11.8414214,20.6899495 12.0757359,20.9242641 C13.1864537,22.0349818 14.5048294,22.6 16,22.6 C17.4951706,22.6 18.8135463,22.0349818 19.9242641,20.9242641 C20.1585786,20.6899495 20.1585786,20.3100505 19.9242641,20.0757359 C19.6899495,19.8414214 19.3100505,19.8414214 19.0757359,20.0757359 C18.1864537,20.9650182 17.1714961,21.4 16,21.4 C14.8285039,21.4 13.8135463,20.9650182 12.9242641,20.0757359 Z M15.9652465,11.9009156 C15.6768566,11.9172939 15.4345449,12.1405505 15.4033016,12.4371432 L15.4033016,12.4371432 L14.9033016,17.1836329 L14.9006652,17.2761372 C14.9139524,17.5499936 15.1139602,17.7855304 15.3914222,17.8365837 L15.3914222,17.8365837 L16.7691888,18.0900939 L16.8663262,18.0999825 C17.1551215,18.1058402 17.4138913,17.9018877 17.4678606,17.6085778 L17.4678606,17.6085778 L17.4777491,17.5114404 C17.4836068,17.2226451 17.2796543,16.9638753 16.9863444,16.9099061 L16.9863444,16.9099061 L16.155,16.757 L16.5966984,12.5628568 L16.5990844,12.4652465 C16.5827061,12.1768566 16.3594495,11.9345449 16.0628568,11.9033016 L16.0628568,11.9033016 Z M11,12 C10.4477153,12 10,12.6715729 10,13.5 C10,14.3284271 10.4477153,15 11,15 C11.5522847,15 12,14.3284271 12,13.5 C12,12.6715729 11.5522847,12 11,12 Z M21,12 C20.4477153,12 20,12.6715729 20,13.5 C20,14.3284271 20.4477153,15 21,15 C21.5522847,15 22,14.3284271 22,13.5 C22,12.6715729 21.5522847,12 21,12 Z"/>
</svg>
