<svg xmlns="http://www.w3.org/2000/svg" width="42" height="42" viewBox="0 0 42 42">
  <g fill="none" fill-rule="evenodd">
    <path fill="#B6DAE1" stroke="#4F89CA" d="M5.5,29.5 L20.5,29.5 L20.5,21 C20.5,20.1715729 19.8284271,19.5 19,19.5 L7,19.5 C6.17157288,19.5 5.5,20.1715729 5.5,21 L5.5,29.5 Z"/>
    <path fill="#722CC2" d="M7,27 C7.55133333,27 8,27.4486667 8,28 C8,28.5513333 7.55133333,29 7,29 C6.44866667,29 6,28.5513333 6,28 C6,27.4486667 6.44866667,27 7,27 Z M7.67333333,23 C7.91666667,23.6845833 7.98583333,24.1220833 8.51458333,24.34125 L8.51458333,24.34125 L8.64448182,24.3864255 C9.10838252,24.5169763 9.46336806,24.2717361 10.0595833,23.9883333 L10.0595833,23.9883333 L11.0116667,24.9404167 C10.7004167,25.5958333 10.4391667,25.9554167 10.65875,26.485 L10.65875,26.485 L10.7180433,26.6081973 C10.9520399,27.0260127 11.3694097,27.1024653 12,27.3266667 L12,27.3266667 L12,28.6733333 C11.6465437,28.7990885 11.3574015,28.8785194 11.1303539,29.0000557 L8.73170714,29.0012701 C8.9023336,28.7067932 9,28.3647867 9,28 C9,26.8956 8.1048,26 7,26 C6.63539068,26 6.29360997,26.0975444 5.99930141,26.2679465 L6.00061861,23.8684848 C6.12162291,23.6419233 6.20088396,23.3533586 6.32666667,23 L6.32666667,23 Z"/>
    <g transform="translate(16 11)">
      <rect width="23" height="15" x=".5" y=".5" fill="#B6DAE1" stroke="#4F89CA" rx="2"/>
      <path fill="#722CC2" d="M13.0787812,7 C13.4681145,8.09533333 13.5787812,8.79533333 14.4247812,9.146 L14.4247812,9.146 C15.2747812,9.498 15.8561145,9.076 16.8967812,8.58133333 L16.8967812,8.58133333 L18.4201145,10.1046667 C17.9221145,11.1533333 17.5041145,11.7286667 17.8554479,12.576 L17.8554479,12.576 L17.9301863,12.7361055 C18.3005412,13.4372504 18.974159,13.5574222 20.0014479,13.9226667 L19.9994479,13.921 L20,15 L15.2004479,15 C15.2014479,13.2938924 13.8662055,11.8992221 12.1830701,11.8050666 L12.0014479,11.8 C10.2337679,11.8 8.80144788,13.23296 8.80144788,15 C8.80144788,15.0003348 8.80144793,15.0006696 8.80144804,15.0010043 L4.00144788,15 L4.00144788,13.9226667 C5.01878122,13.5605333 5.7004464,13.4394074 6.07246062,12.7359534 L6.14744788,12.576 C6.49944788,11.7273333 6.07944788,11.15 5.58278122,10.1046667 L5.58278122,10.1046667 L7.10611455,8.58133333 C8.15611455,9.08066667 8.73011455,9.498 9.57744788,9.146 L9.57744788,9.146 L9.73794329,9.07101274 C10.4408553,8.69899852 10.5619812,8.01733333 10.9241145,7 L10.9241145,7 Z M12.0014479,13.4 C12.8835812,13.4 13.6014479,14.1178667 13.6014479,15 L13.6004479,15 L10.4014482,15.0010069 C10.401448,15.0006713 10.4014479,15.0003357 10.4014479,15 C10.4014479,14.1178667 11.1193145,13.4 12.0014479,13.4 Z"/>
    </g>
    <rect width="3" height="4" x="26.5" y="26.5" fill="#B6DAE1" stroke="#4F89CA"/>
    <rect width="7" height="1" x="24.5" y="30.5" fill="#B6DAE1" stroke="#4F89CA"/>
    <rect width="19" height="1" x="3.5" y="30.5" fill="#B6DAE1" stroke="#4F89CA"/>
  </g>
</svg>
