<svg xmlns="http://www.w3.org/2000/svg" width="32" height="32" viewBox="0 0 32 32">
  <path fill="#29B2DC" fill-rule="evenodd" d="M25.9935151,13.5758385 C26.0220857,13.6939385 25.9535163,13.8101336 25.8416149,13.8582308 C25.0002112,14.210626 24.405943,15.0330401 24.405943,16.0030793 C24.405943,16.972166 24.999735,17.7950564 25.8406625,18.1479278 C25.952564,18.1945963 26.0211334,18.3107915 25.9925628,18.4288915 C25.7382846,19.4765528 25.3225826,20.4618307 24.7735512,21.3571049 C24.7111721,21.4590138 24.5830806,21.4918723 24.4721315,21.4466324 C23.6292993,21.1037614 22.629805,21.2656727 21.9455395,21.9495098 C21.2617502,22.6333469 21.099374,23.6324349 21.4417449,24.475326 C21.4865054,24.5862829 21.4541254,24.7143833 21.3517475,24.7767668 C20.4560597,25.3248841 19.4713269,25.7396628 18.4237388,25.9934826 C18.3061232,26.0220551 18.1899362,25.9539572 18.1427947,25.8425241 C17.7885195,25.0053474 16.9680675,24.4148474 16.0014294,24.4148474 C15.0352675,24.4148474 14.2143393,25.0053474 13.8600641,25.8425241 C13.8129226,25.9539572 13.6967356,26.0220551 13.57912,25.9934826 C12.5315319,25.7396628 11.5463229,25.3248841 10.6506351,24.7762906 C10.5487333,24.7139071 10.5158772,24.5862829 10.5606378,24.475326 C10.9006277,23.6329111 10.7372992,22.6366804 10.0549384,21.9547481 C9.37162526,21.2718634 8.37451186,21.1085235 7.5321558,21.4494896 C7.42120669,21.4942533 7.29311524,21.4613949 7.23073613,21.359486 C6.68170473,20.464688 6.26552655,19.4798863 6.01077217,18.432225 C5.98220159,18.3146012 6.05029482,18.198406 6.16172009,18.1512612 C6.99836204,17.796485 7.58882079,16.9759757 7.58882079,16.00927 C7.58882079,15.0406595 6.99693351,14.2191978 6.15791068,13.8658502 C6.0464854,13.8187054 5.977916,13.7025102 6.00648659,13.5848864 C6.25933626,12.5377013 6.67360973,11.5524235 7.22073643,10.656673 C7.28359171,10.5542879 7.41168317,10.5214295 7.52263227,10.5666694 C8.36594069,10.9090642 9.36495879,10.7466766 10.0487481,10.0623633 C10.733966,9.37709756 10.8958659,8.37610477 10.5511142,7.53226119 C10.5058775,7.42130433 10.5382575,7.29320392 10.6406354,7.23034424 C11.5353709,6.68127445 12.5205798,6.26554339 13.5681679,6.00981878 C13.6862597,5.9812462 13.8024467,6.0498204 13.8495882,6.16172967 C14.2024349,7.00319221 15.0247916,7.5970257 15.9938106,7.5970257 C16.9647343,7.5970257 17.7880433,7.00128737 18.1399376,6.15839621 C18.1866029,6.04648693 18.30279,5.97791273 18.4208817,6.00648531 C19.4679936,6.25982887 20.4527265,6.67413131 21.3479381,7.22177246 C21.4507922,7.28510835 21.4841246,7.4151136 21.4384116,7.52702288 C21.0936599,8.37134267 21.2550837,9.37233546 21.9403016,10.0576012 C22.6259956,10.742867 23.6273946,10.9043021 24.4716553,10.55905 C24.5835568,10.5128577 24.713553,10.5461924 24.7768844,10.6495299 C25.3249635,11.5443279 25.7397131,12.5286533 25.9935151,13.5758385 Z M16,16 L16,10.5 C16,10.2238576 15.7761424,10 15.5,10 C15.2238576,10 15,10.2238576 15,10.5 L15,16.5 C15,16.7761424 15.2238576,17 15.5,17 L18.5,17 C18.7761424,17 19,16.7761424 19,16.5 C19,16.2238576 18.7761424,16 18.5,16 L16,16 Z"/>
</svg>
