<svg xmlns="http://www.w3.org/2000/svg" width="32" height="32" viewBox="0 0 32 32">
  <path fill="#29B2DC" fill-rule="evenodd" d="M15,16 L15,15 L12.5,15 C12.2238576,15 12,14.7761424 12,14.5 C12,14.2238576 12.2238576,14 12.5,14 L15,14 L15,13 L17,13 L17,14 L19.5,14 C19.7761424,14 20,14.2238576 20,14.5 C20,14.7761424 19.7761424,15 19.5,15 L17,15 L17,16 L19.5,16 C19.7761424,16 20,16.2238576 20,16.5 C20,16.7761424 19.7761424,17 19.5,17 L12.5,17 C12.2238576,17 12,16.7761424 12,16.5 C12,16.2238576 12.2238576,16 12.5,16 L15,16 Z M17,24.9170416 L17,26.0400072 C19.2822403,26.2253154 21,27.0324168 21,28 C17,28 14,28 12,28 C11.7777778,28 11.4444444,28 11,28 C11,27.7026327 11.1622453,27.4204233 11.4532587,27.1667624 C12.109154,26.5950534 13.4191604,26.1683646 15,26.0400072 L15,24.9170416 C12.1622867,24.4409635 10,21.9729963 10,19 L10,18.5 C10,18.2238576 10.2238576,18 10.5,18 C10.7761424,18 11,18.2238576 11,18.5 L11,19 C11,21.7614237 13.2385763,24 16,24 C18.7614237,24 21,21.7614237 21,19 L21,18.5 C21,18.2238576 21.2238576,18 21.5,18 C21.7761424,18 22,18.2238576 22,18.5 L22,19 C22,21.9729963 19.8377133,24.4409635 17,24.9170416 Z M20,18.5 L20,19 C20,21.209139 18.209139,23 16,23 C13.790861,23 12,21.209139 12,19 L12,18.5 C12,18.2238576 12.2238576,18 12.5,18 L19.5,18 C19.7761424,18 20,18.2238576 20,18.5 Z M19.5,13 L12.5,13 C12.2238576,13 12,12.7761424 12,12.5 L12,9 C12,6.790861 13.790861,5 16,5 C18.209139,5 20,6.790861 20,9 L20,12.5 C20,12.7761424 19.7761424,13 19.5,13 Z"/>
</svg>
