<svg xmlns="http://www.w3.org/2000/svg" width="32" height="32" viewBox="0 0 32 32">
  <g fill="none" fill-rule="evenodd">
    <circle cx="14" cy="10" r="6" fill="#29B2DC" opacity=".2"/>
    <path fill="#29B2DC" d="M21.3318878,18.0884956 L21.3318878,16.6725664 C21.3318878,14.5486726 18.6637756,14.5486726 18.6637756,16.6725664 L18.6637756,15.2566372 C18.6637756,13.1327434 15.9956635,13.1327434 15.9956635,15.2566372 L15.9956635,9.59292035 C15.9956635,7.46902655 13.3275513,7.46902655 13.3275513,9.59292035 L13.3275513,23.1589381 L10.2879045,19.9122124 C9.03989503,18.5876106 7.16287811,20.5897345 8.41088758,21.9150442 L13.7517811,27.5815929 C14.0019166,27.8470796 14.3567756,28 14.699628,28 L22.7039645,28 C23.4410305,28 24,27.359292 24,26.5769912 L24,18.0884956 C24,15.9646018 21.3318878,15.9646018 21.3318878,18.0884956"/>
  </g>
</svg>
