<svg xmlns="http://www.w3.org/2000/svg" width="16" height="16" viewBox="0 0 16 16">
  <path fill="#25618C" d="M12.3884918,7 L10.1715729,7 L13,4.17157288 L15.8284271,7 L13.9170416,7 C13.9716012,7.32520847 14,7.65928779 14,8 C14,11.3137085 11.3137085,14 8,14 C6.70416957,14 5.50428451,13.589209 4.52346564,12.8907479 L5.60426146,11.8099521 C6.29798602,12.2470915 7.11945804,12.5 8,12.5 C10.4852814,12.5 12.5,10.4852814 12.5,8 C12.5,7.65630602 12.4614693,7.32161137 12.3884918,7 Z M2.08295844,9 C2.0283988,8.67479153 2,8.34071221 2,8 C2,4.6862915 4.6862915,2 8,2 C9.29583043,2 10.4957155,2.41079097 11.4765344,3.10925208 L10.3957385,4.1900479 C9.70201398,3.75290847 8.88054196,3.5 8,3.5 C5.51471863,3.5 3.5,5.51471863 3.5,8 C3.5,8.34369398 3.53853072,8.67838863 3.61150821,9 L5.82842712,9 L3,11.8284271 L0.171572875,9 L2.08295844,9 Z" transform="matrix(-1 0 0 1 16 0)"/>
</svg>
