<svg xmlns="http://www.w3.org/2000/svg" width="16" height="12" viewBox="0 0 16 12">
  <path fill="#25618C" d="M12.3884918,5 L10.1715729,5 L13,2.17157288 L15.8284271,5 L13.9170416,5 C13.9716012,5.32520847 14,5.65928779 14,6 C14,9.3137085 11.3137085,12 8,12 C6.70416957,12 5.50428451,11.589209 4.52346564,10.8907479 L5.60426146,9.8099521 C6.29798602,10.2470915 7.11945804,10.5 8,10.5 C10.4852814,10.5 12.5,8.48528137 12.5,6 C12.5,5.65630602 12.4614693,5.32161137 12.3884918,5 Z M2.08295844,7 C2.0283988,6.67479153 2,6.34071221 2,6 C2,2.6862915 4.6862915,0 8,0 C9.29583043,0 10.4957155,0.410790965 11.4765344,1.10925208 L10.3957385,2.1900479 C9.70201398,1.75290847 8.88054196,1.5 8,1.5 C5.51471863,1.5 3.5,3.51471863 3.5,6 C3.5,6.34369398 3.53853072,6.67838863 3.61150821,7 L5.82842712,7 L3,9.82842712 L0.171572875,7 L2.08295844,7 Z"/>
</svg>
