<?xml version="1.0" encoding="UTF-8"?>
<svg width="24px" height="24px" viewBox="0 0 24 24" version="1.1" xmlns="http://www.w3.org/2000/svg" xmlns:xlink="http://www.w3.org/1999/xlink">
    <!-- Generator: Sketch 46.2 (44496) - http://www.bohemiancoding.com/sketch -->
    <title>nav_time</title>
    <desc>Created with Sketch.</desc>
    <defs></defs>
    <g id="UI" stroke="none" stroke-width="1" fill="none" fill-rule="evenodd">
        <g id="nav_time" fill="#FFFFFF">
            <path d="M20.5,13 L11.5,13 C11.224,13 11,12.776 11,12.5 L11,3.5 C11,3.224 11.224,3 11.5,3 C11.776,3 12,3.224 12,3.5 L12,12 L20.5,12 C20.776,12 21,12.224 21,12.5 C21,12.776 20.776,13 20.5,13 M12,1 C5.935,1 1,5.934 1,12 C1,18.066 5.935,23 12,23 C18.067,23 23,18.066 23,12 C23,5.934 18.067,1 12,1" id="Fill-219"></path>
        </g>
    </g>
</svg>