<?xml version="1.0" encoding="UTF-8"?>
<svg width="16px" height="16px" viewBox="0 0 16 16" version="1.1" xmlns="http://www.w3.org/2000/svg" xmlns:xlink="http://www.w3.org/1999/xlink">
    <title>居中-hover</title>
    <g id="桌面版" stroke="none" stroke-width="1" fill="none" fill-rule="evenodd">
        <g id="画板" transform="translate(-39.000000, -14.000000)">
            <g id="居中-hover" transform="translate(39.000000, 14.000000)">
                <rect id="矩形备份-17" x="0" y="0" width="16" height="16"></rect>
                <path d="M15,3 C15.5522847,3 16,3.44771525 16,4 L16,12 C16,12.5522847 15.5522847,13 15,13 L1,13 C0.44771525,13 0,12.5522847 0,12 L0,4 C0,3.44771525 0.44771525,3 1,3 L15,3 Z M15,4 L1,4 L1,12 L15,12 L15,4 Z M10.5,6 C10.7761424,6 11,6.22385763 11,6.5 L11,9.5 C11,9.77614237 10.7761424,10 10.5,10 L5.5,10 C5.22385763,10 5,9.77614237 5,9.5 L5,6.5 C5,6.22385763 5.22385763,6 5.5,6 L10.5,6 Z" id="形状结合" fill="#001A2E"></path>
            </g>
        </g>
    </g>
</svg>