<?xml version="1.0" encoding="UTF-8"?>
<svg width="16px" height="16px" viewBox="0 0 16 16" version="1.1" xmlns="http://www.w3.org/2000/svg" xmlns:xlink="http://www.w3.org/1999/xlink">
    <title>拉伸-hover</title>
    <g id="桌面版" stroke="none" stroke-width="1" fill="none" fill-rule="evenodd">
        <g id="画板" transform="translate(-16.000000, -14.000000)">
            <g id="拉伸-hover" transform="translate(16.000000, 14.000000)">
                <rect id="矩形备份-20" x="0" y="0" width="16" height="16"></rect>
                <path d="M1,13 C0.44771525,13 0,12.5522847 0,12 L0,4 C0,3.44771525 0.44771525,3 1,3 L15,3 C15.5522847,3 16,3.44771525 16,4 L16,12 C16,12.5522847 15.5522847,13 15,13 L1,13 Z M3,4 L1,4 L1,12 L3,12 L3,4 Z M15,4 L13,4 L13,12 L15,12 L15,4 Z" id="形状结合" fill="#001A2E"></path>
            </g>
        </g>
    </g>
</svg>