<svg xmlns="http://www.w3.org/2000/svg" xmlns:xlink="http://www.w3.org/1999/xlink" width="64" height="64" viewBox="0 0 64 64">
  <defs>
    <circle id="display_setting_icon-b" cx="27" cy="27" r="27"/>
    <filter id="display_setting_icon-a" width="113%" height="113%" x="-6.5%" y="-4.6%" filterUnits="objectBoundingBox">
      <feOffset dy="1" in="SourceAlpha" result="shadowOffsetOuter1"/>
      <feGaussianBlur in="shadowOffsetOuter1" result="shadowBlurOuter1" stdDeviation="1"/>
      <feColorMatrix in="shadowBlurOuter1" values="0 0 0 0 0   0 0 0 0 0   0 0 0 0 0  0 0 0 0.2 0"/>
    </filter>
  </defs>
  <g fill="none" fill-rule="evenodd" transform="translate(5 5)">
    <use fill="#000" filter="url(#display_setting_icon-a)" xlink:href="#display_setting_icon-b"/>
    <use fill="#3584D9" xlink:href="#display_setting_icon-b"/>
    <path fill="#FFF" d="M38.4495926,25.4996278 C37.94451,19.8818111 33.2303854,15.4865251 27.4799738,15.4865251 C25.9723724,15.4865251 24.5359998,15.7886332 23.22803,16.3356752 L26.2984277,21.6545964 C26.6789256,21.5544654 27.0794497,21.4943867 27.4799738,21.4943867 C29.9031446,21.4943867 31.9257914,23.2166404 32.3863941,25.4996278 L38.4495926,25.4996278 Z M38.4495926,27.5022484 L32.3863941,27.5022484 C31.9257914,29.7852358 29.9031446,31.5074894 27.4799738,31.5074894 C27.0794497,31.5074894 26.6789256,31.4474108 26.2984277,31.3472798 L23.22803,36.666201 C24.5359998,37.213243 25.9723724,37.515351 27.4799738,37.515351 C33.2303854,37.515351 37.94451,33.1200651 38.4495926,27.5022484 Z M21.4520322,35.723615 L24.476043,30.486153 C23.2544445,29.5649475 22.4734225,28.1230607 22.4734225,26.5009381 C22.4734225,24.8788155 23.2744707,23.4169025 24.476043,22.5157232 L21.4520322,17.2782612 C18.4480991,19.2442968 16.4655608,22.6389036 16.4655608,26.5009381 C16.4655608,30.3629726 18.4480991,33.7575794 21.4520322,35.723615 Z M40.5971383,26.5009381 C40.5971383,26.8213574 40.5771121,27.1417767 40.5570859,27.4822221 C41.838763,27.8827463 42.8600995,28.2832704 43.5009381,28.6237159 L43.2606236,29.9454454 C42.519654,30.0455764 41.4382389,30.0656026 40.0964832,30.0255502 C39.9162473,30.6463626 39.6959591,31.267175 39.4356184,31.8479349 C40.4970073,32.6690093 41.3180817,33.3699265 41.7987106,33.9306603 L41.1178196,35.0921802 C40.3968763,34.9319705 39.3555136,34.5915251 38.1138888,34.0908699 C37.7333909,34.6115513 37.3128406,35.1122064 36.8522379,35.5928353 C37.5731813,36.7143028 38.0938626,37.6555345 38.3742295,38.3564517 L37.3328668,39.2175785 C36.7120545,38.8370806 35.8509276,38.1561896 34.8696436,37.2750366 C34.328936,37.6355083 33.7481761,37.9559276 33.1674161,38.2362944 C33.447783,39.5379978 33.6079926,40.5993867 33.648045,41.3403563 L32.3863941,41.800959 C31.9257914,41.220199 31.3650576,40.2989936 30.7242191,39.1174475 C30.1034067,39.2776571 29.4625681,39.3978143 28.8017033,39.457893 C28.6214675,40.7796225 28.4011792,41.8209852 28.180891,42.5219024 L26.819109,42.5219024 C26.5787946,41.8209852 26.3785325,40.7595963 26.1982967,39.457893 C25.5374319,39.3978143 24.8965933,39.2576309 24.2757809,39.1174475 C23.6549686,40.2989936 23.0742086,41.220199 22.6136059,41.800959 L21.351955,41.3403563 C21.3719812,40.5993867 21.5321908,39.5379978 21.8325839,38.2362944 C21.2317977,37.9559276 20.671064,37.6355083 20.1303564,37.2750366 C19.1290462,38.1762158 18.2879455,38.8370806 17.6671332,39.2175785 L16.6257705,38.3564517 C16.9061374,37.6755607 17.4268187,36.734329 18.1477621,35.5928353 C17.6871594,35.1322326 17.2666091,34.6315775 16.8861112,34.0908699 C15.6444864,34.5915251 14.6031237,34.9319705 13.8821804,35.0921802 L13.2012894,33.9306603 C13.7019445,33.3899527 14.5029927,32.6690093 15.5643816,31.8479349 C15.3040409,31.267175 15.0837527,30.6463626 14.9035168,30.0255502 C13.5617611,30.0656026 12.480346,30.0455764 11.7393764,29.9454454 L11.4990619,28.6237159 C12.1599267,28.2832704 13.161237,27.8827463 14.4429141,27.4822221 C14.4228879,27.1618029 14.4028617,26.8413836 14.4028617,26.5009381 C14.4028617,26.1805188 14.4228879,25.8600995 14.4429141,25.519654 C13.161237,25.1191299 12.1399005,24.7186058 11.4990619,24.3781603 L11.7393764,23.0564308 C12.480346,22.9562997 13.5617611,22.9362735 14.9035168,22.9763259 C15.0837527,22.3555136 15.3040409,21.7347012 15.5643816,21.1539413 C14.5029927,20.3328668 13.6819183,19.6319496 13.2012894,19.0712159 L13.8821804,17.909696 C14.6031237,18.0699056 15.6444864,18.4103511 16.8861112,18.9110063 C17.2666091,18.3903249 17.6871594,17.8896698 18.1477621,17.4090409 C17.4268187,16.2875734 16.9061374,15.3463417 16.6257705,14.6454245 L17.6671332,13.7842977 C18.2879455,14.1647956 19.1490724,14.8456866 20.1303564,15.7468658 C20.671064,15.3863941 21.2518239,15.0659748 21.8325839,14.7856079 C21.552217,13.4839046 21.3920074,12.4225157 21.351955,11.6815461 L22.6136059,11.2209434 C23.0742086,11.8017033 23.6349424,12.7229088 24.2757809,13.9044549 C24.8965933,13.7442453 25.5374319,13.624088 26.1982967,13.5640094 C26.3785325,12.2422799 26.5988208,11.2009172 26.819109,10.5 L28.180891,10.5 C28.4212054,11.2009172 28.6214675,12.2623061 28.8017033,13.5640094 C29.4625681,13.624088 30.1034067,13.7642715 30.7242191,13.9044549 C31.3450314,12.7229088 31.9257914,11.8017033 32.3863941,11.2209434 L33.648045,11.6815461 C33.6280188,12.4225157 33.4678092,13.4839046 33.1674161,14.7856079 C33.7682023,15.0659748 34.328936,15.3863941 34.8696436,15.7468658 C35.8709538,14.8456866 36.7120545,14.1848218 37.3328668,13.7842977 L38.3742295,14.6454245 C38.0938626,15.3263155 37.5731813,16.2675471 36.8522379,17.4090409 C37.3128406,17.8696436 37.7333909,18.3702987 38.1138888,18.9110063 C39.3555136,18.4103511 40.3968763,18.0699056 41.1178196,17.909696 L41.7987106,19.0712159 C41.2980555,19.6119234 40.4970073,20.3328668 39.4356184,21.1539413 C39.6959591,21.7347012 39.9362735,22.3555136 40.0964832,22.9763259 C41.4382389,22.9362735 42.519654,22.9562997 43.2606236,23.0564308 L43.5009381,24.3781603 C42.8400733,24.7186058 41.838763,25.1191299 40.5570859,25.519654 C40.5771121,25.8600995 40.5971383,26.1805188 40.5971383,26.5009381 Z M27.4799738,24.4983175 C26.3785325,24.4983175 25.4773533,25.3994968 25.4773533,26.5009381 C25.4773533,27.6023794 26.3785325,28.5035586 27.4799738,28.5035586 C28.5814151,28.5035586 29.4825943,27.6023794 29.4825943,26.5009381 C29.4825943,25.3994968 28.5814151,24.4983175 27.4799738,24.4983175 L27.4799738,24.4983175 L27.4799738,24.4983175 Z"/>
  </g>
</svg>
