<?xml version="1.0" encoding="iso-8859-1"?>
<!-- Generator: Adobe Illustrator 18.0.0, SVG Export Plug-In . SVG Version: 6.00 Build 0)  -->
<!DOCTYPE svg PUBLIC "-//W3C//DTD SVG 1.1//EN" "http://www.w3.org/Graphics/SVG/1.1/DTD/svg11.dtd">
<svg version="1.1" id="&#x56FE;&#x5C42;_1" xmlns="http://www.w3.org/2000/svg" xmlns:xlink="http://www.w3.org/1999/xlink" x="0px"
	 y="0px" viewBox="0 0 16 16" style="enable-background:new 0 0 16 16;" xml:space="preserve">
<path id="gear-icon_2_" style="fill:#868687;" d="M14.985,8.926V7.041l-1.019-0.362c-0.388-0.139-0.701-0.435-0.859-0.816V5.862
	c-0.158-0.382-0.148-0.813,0.03-1.187L13.602,3.7l-1.333-1.333l-0.976,0.464c-0.374,0.177-0.805,0.188-1.187,0.03h-0.001
	c-0.38-0.158-0.677-0.47-0.816-0.859L8.928,0.983H7.042L6.68,2.063c-0.138,0.389-0.435,0.92-0.815,0.92H5.864
	c-0.382,0-0.812,0.086-1.186-0.091L3.702,2.398L2.368,3.715l0.464,0.968c0.177,0.374,0.188,0.801,0.03,1.183V5.865
	C2.705,6.245,2.393,6.541,2.004,6.68L0.985,7.041v1.884l1.019,0.363c0.389,0.138,0.701,0.435,0.859,0.815v0.001
	c0.158,0.382,0.148,0.813-0.03,1.187l-0.464,0.976L3.702,13.6l0.976-0.525c0.373-0.177,0.804-0.091,1.186-0.091h0.001
	c0.381,0,0.677,0.532,0.815,0.92l0.362,1.08h1.886l0.36-1.012c0.14-0.392,0.439-0.708,0.823-0.868l0,0
	c0.379-0.157,0.806-0.146,1.175,0.03l0.983,0.467l1.333-1.333l-0.464-0.976c-0.177-0.373-0.188-0.804-0.03-1.185v-0.001
	c0.158-0.381,0.471-0.677,0.86-0.816L14.985,8.926z M7.985,10.983c-1.657,0-3-1.342-3-3c0-1.657,1.343-3,3-3c1.656,0,3,1.343,3,3
	C10.985,9.641,9.642,10.983,7.985,10.983z"/>
</svg>
