<?xml version="1.0" encoding="iso-8859-1"?>
<!-- Generator: Adobe Illustrator 18.1.1, SVG Export Plug-In . SVG Version: 6.00 Build 0)  -->
<!DOCTYPE svg PUBLIC "-//W3C//DTD SVG 1.1//EN" "http://www.w3.org/Graphics/SVG/1.1/DTD/svg11.dtd" [
	<!ENTITY ns_extend "http://ns.adobe.com/Extensibility/1.0/">
	<!ENTITY ns_ai "http://ns.adobe.com/AdobeIllustrator/10.0/">
	<!ENTITY ns_graphs "http://ns.adobe.com/Graphs/1.0/">
	<!ENTITY ns_vars "http://ns.adobe.com/Variables/1.0/">
	<!ENTITY ns_imrep "http://ns.adobe.com/ImageReplacement/1.0/">
	<!ENTITY ns_sfw "http://ns.adobe.com/SaveForWeb/1.0/">
	<!ENTITY ns_custom "http://ns.adobe.com/GenericCustomNamespace/1.0/">
	<!ENTITY ns_adobe_xpath "http://ns.adobe.com/XPath/1.0/">
]>
<svg version="1.1" id="&#x56FE;&#x5C42;_1" xmlns:x="&ns_extend;" xmlns:i="&ns_ai;" xmlns:graph="&ns_graphs;"
	 xmlns="http://www.w3.org/2000/svg" xmlns:xlink="http://www.w3.org/1999/xlink" x="0px" y="0px" viewBox="0 0 24 24"
	 enable-background="new 0 0 24 24" xml:space="preserve">
<metadata>
	<sfw  xmlns="&ns_sfw;">
		<slices></slices>
		<sliceSourceBounds  width="921" height="16845" y="-8451" x="-57" bottomLeftOrigin="true"></sliceSourceBounds>
	</sfw>
</metadata>
<g>
	<g>
		<path fill="#B4B4B4" d="M12,7.031c-0.4-1.078-3.953-1.995-4.016,0.953L7.969,11L12,10.985v1.03l-3.984,0.007L7.984,19H7l0.016-7H4
			v-1h3V8.016c0-3.953,4.209-3.156,5-2.236V7.031z"/>
	</g>
	<g>
		<path fill="#B4B4B4" d="M20,19h-1v-4.899c0-1.429-2.228-3.436-4.188-0.96C14.219,13.891,14,14.67,14,15.695V19h-1v-8h1v1.658
			c0.189-0.279,0.512-0.647,0.969-0.986C16.922,10.219,20,11.047,20,14.569V19z"/>
	</g>
</g>
<path fill="none" stroke="#B4B4B4" stroke-linecap="round" stroke-linejoin="round" stroke-miterlimit="10" d="M20.5,21.5h-17
	c-0.552,0-1-0.448-1-1v-17c0-0.552,0.448-1,1-1h17c0.552,0,1,0.448,1,1v17C21.5,21.052,21.052,21.5,20.5,21.5z"/>
</svg>
