<?xml version="1.0" encoding="iso-8859-1"?>
<!-- Generator: Adobe Illustrator 18.0.0, SVG Export Plug-In . SVG Version: 6.00 Build 0)  -->
<!DOCTYPE svg PUBLIC "-//W3C//DTD SVG 1.1//EN" "http://www.w3.org/Graphics/SVG/1.1/DTD/svg11.dtd">
<svg version="1.1" id="&#x56FE;&#x5C42;_1" xmlns="http://www.w3.org/2000/svg" xmlns:xlink="http://www.w3.org/1999/xlink" x="0px"
	 y="0px" viewBox="0 0 36 20" style="enable-background:new 0 0 36 20;" xml:space="preserve">
<path style="fill:#0D68DA;" d="M18.708,0H2C0.895,0,0,0.895,0,2v16c0,1.105,0.895,2,2,2h16.708H34c1.105,0,2-0.895,2-2V2
	c0-1.105-0.895-2-2-2H18.708z"/>
<g>
	<path style="fill:#FFFFFF;" d="M6.101,14.958c1.935-0.089,3.437-0.571,4.508-1.447c-0.796-0.457-1.52-0.941-2.172-1.453
		l0.591-0.686c0.432,0.537,1.099,1.051,1.999,1.542c0.271-0.448,0.445-1.041,0.521-1.777H8.983c-0.364,0-0.758,0.025-1.182,0.076
		c0.06-0.479,0.085-0.872,0.076-1.181V7.741c0-0.284-0.025-0.686-0.076-1.207c0.487,0.051,0.887,0.076,1.2,0.076h2.608V5.373H7.39
		c-0.279,0-0.635,0.027-1.066,0.083V4.649C6.729,4.7,7.085,4.726,7.39,4.726h8.798c0.288,0,0.639-0.025,1.054-0.076v0.807
		c-0.406-0.064-0.758-0.092-1.054-0.083h-3.847V6.61h2.406c0.291,0.009,0.677-0.017,1.154-0.076
		c-0.051,0.449-0.076,0.83-0.076,1.143v2.381c0,0.309,0.025,0.694,0.076,1.155c-0.448-0.06-0.833-0.085-1.154-0.076h-2.47
		c-0.105,0.821-0.303,1.536-0.591,2.146c1.693,0.813,3.623,1.255,5.789,1.326c-0.271,0.318-0.452,0.65-0.545,0.997
		c-2.125-0.39-3.997-0.956-5.618-1.701c-0.918,0.851-2.431,1.521-4.538,2.013C6.617,15.582,6.394,15.263,6.101,14.958z M8.583,7.259
		v1.339h3.027V7.259H8.583z M8.583,9.251v1.232h3.002c0.009-0.212,0.014-0.324,0.014-0.337s0-0.017,0-0.013v0.013l-0.014,0.261
		c0.018-0.373,0.025-0.758,0.025-1.156H8.583z M12.303,10.483h2.818V9.251h-2.793c0,0.322,0,0.555,0,0.699
		C12.319,10.132,12.312,10.31,12.303,10.483z M12.341,7.259v1.339h2.78V7.259H12.341z"/>
	<path style="fill:#FFFFFF;" d="M19.006,14.228c0.766-0.77,1.295-1.614,1.587-2.532l0.818,0.482c0.081,0.042,0.117,0.08,0.108,0.114
		c-0.017,0.025-0.083,0.051-0.196,0.076c-0.132,0.017-0.265,0.156-0.4,0.419c-0.339,0.613-0.713,1.226-1.123,1.835
		C19.592,14.465,19.327,14.334,19.006,14.228z M20.192,8.509h1.244c-0.397-0.521-0.813-0.984-1.244-1.391l0.572-0.469
		c0.389,0.397,0.81,0.853,1.263,1.364L21.52,8.509h1.092c0.504-0.804,0.842-1.515,1.016-2.133l0.845,0.47
		c0.093,0.051,0.135,0.093,0.127,0.127c0,0.038-0.047,0.074-0.141,0.108c-0.113,0.051-0.22,0.113-0.316,0.189
		c-0.085,0.098-0.348,0.511-0.787,1.238h0.971c0.241-0.009,0.58-0.034,1.016-0.076v0.807c-0.415-0.047-0.758-0.074-1.028-0.083
		h-1.466v1.384h1.281c0.297-0.013,0.635-0.04,1.016-0.082v0.806c-0.439-0.042-0.787-0.067-1.041-0.076h-1.256v3.04
		c0.017,0.538-0.079,0.868-0.286,0.99c-0.165,0.157-0.647,0.261-1.447,0.312c-0.025-0.339-0.134-0.642-0.323-0.907
		c0.274,0.037,0.501,0.057,0.679,0.057c0.182,0,0.315-0.02,0.399-0.057c0.174-0.064,0.257-0.242,0.248-0.533v-2.901h-1.587
		c-0.33,0.009-0.689,0.034-1.079,0.076v-0.806c0.47,0.055,0.829,0.082,1.079,0.082h1.587V9.156h-1.924
		c-0.254,0.009-0.601,0.036-1.041,0.083V8.433C19.575,8.475,19.922,8.5,20.192,8.509z M19.425,6.338V5.532
		c0.521,0.051,0.885,0.076,1.092,0.076h1.936c-0.33-0.39-0.768-0.817-1.313-1.283l0.546-0.52c0.33,0.266,0.8,0.686,1.409,1.256
		l-0.521,0.547h1.504c0.237-0.009,0.58-0.034,1.029-0.076v0.806c-0.449-0.042-0.792-0.067-1.029-0.076h-3.561
		C20.343,6.262,19.979,6.287,19.425,6.338z M23.297,12.165l0.653-0.419c0.339,0.495,0.671,1.041,0.997,1.638l-0.711,0.432
		C23.957,13.172,23.644,12.622,23.297,12.165z M29.55,3.97l0.679,0.705c0.067,0.067,0.093,0.119,0.076,0.155
		s-0.076,0.05-0.178,0.042c-0.047-0.005-0.11-0.007-0.19-0.007c-0.254,0-0.504,0.044-0.749,0.134
		c-0.457,0.147-1.31,0.396-2.558,0.742v2.57h3.154c0.237,0,0.584-0.025,1.041-0.076v0.807C30.394,9,30.047,8.975,29.784,8.966
		h-0.647v5.548c0.017,0.355,0.042,0.74,0.076,1.155h-0.882c0.051-0.524,0.076-0.91,0.076-1.155V8.966h-1.766
		c0.018,1.938-0.078,3.267-0.285,3.986c-0.199,0.825-0.686,1.746-1.46,2.762c-0.182-0.221-0.45-0.406-0.806-0.559
		c0.744-0.644,1.23-1.378,1.459-2.203c0.242-0.787,0.358-2.124,0.35-4.012V6.274c0-0.009-0.004-0.087-0.013-0.234
		c-0.034-0.339-0.06-0.652-0.076-0.939c0.076,0.012,0.152,0.019,0.229,0.019c0.245,0,0.559-0.053,0.939-0.159
		C28.155,4.647,29.012,4.317,29.55,3.97z"/>
</g>
</svg>
