<?xml version="1.0" encoding="UTF-8"?>
<svg width="32px" height="32px" viewBox="0 0 32 32" version="1.1" xmlns="http://www.w3.org/2000/svg" xmlns:xlink="http://www.w3.org/1999/xlink">
    <title>nav_airplane_nor_32px</title>
    <g id="nav_airplane_nor_32px" stroke="none" stroke-width="1" fill="none" fill-rule="evenodd">
        <g id="Group-26" transform="translate(6.000000, 5.000000)" fill="#29B2DC">
            <path d="M11,1.82964754e-13 C12.1045695,1.82761848e-13 13,0.8954305 13,2 L13,7 L22,14.5 L22,17 L13,12 L13,18.667 L16.6605015,21.7170846 C16.7283858,21.7736548 16.7375577,21.8745452 16.6809874,21.9424295 C16.6505884,21.9789083 16.6055568,22 16.558072,22 L5.44192799,22 C5.35356243,22 5.28192799,21.9283656 5.28192799,21.84 C5.28192799,21.7925152 5.30301967,21.7474836 5.33949849,21.7170846 L9,18.665 L9,12 L3.25073302e-13,17 L3.25073302e-13,14.5 L9,7 L9,2 C9,0.8954305 9.8954305,1.83167661e-13 11,1.82964754e-13 Z" id="形状结合" transform="translate(11.000000, 11.000000) rotate(-270.000000) translate(-11.000000, -11.000000) "></path>
        </g>
    </g>
</svg>