<svg xmlns="http://www.w3.org/2000/svg" width="32" height="32" viewBox="0 0 32 32">
  <path fill="#29B2DC" fill-rule="evenodd" d="M18.9644196,12.9990501 C18.9878671,13.1626541 19,13.3299102 19,13.5 C19,14.0368117 18.8791486,14.5453971 18.6631686,15.0000333 L16.5,15 C14.0147186,15 12,17.0147186 12,19.5 C12,21.9852814 14.0147186,24 16.5,24 L21.5,24 C23.9852814,24 26,21.9852814 26,19.5 C26,17.4696825 24.655406,15.7534118 22.8081097,15.1930797 C22.9335982,14.6494555 23,14.0824822 23,13.5 C23,13.3903552 22.9976472,13.28126 22.9929892,13.172762 C25.8631393,13.8467993 28,16.4238544 28,19.5 C28,23.0898509 25.0898509,26 21.5,26 L16.5,26 C12.9101491,26 10,23.0898509 10,19.5 C10,15.9101491 12.9101491,13 16.5,13 L18.9644196,12.9990501 Z M15.5,7 C19.0898509,7 22,9.91014913 22,13.5 C22,17.0898509 19.0898509,20 15.5,20 L13.0355804,20.0009499 C13.0121329,19.8373459 13,19.6700898 13,19.5 C13,18.9631883 13.1208514,18.4546029 13.3368314,17.9999667 L15.5,18 C17.9852814,18 20,15.9852814 20,13.5 C20,11.0147186 17.9852814,9 15.5,9 L10.5,9 C8.01471863,9 6,11.0147186 6,13.5 C6,15.5303175 7.34459405,17.2465882 9.19189028,17.8069203 C9.06640181,18.3505445 9,18.9175178 9,19.5 C9,19.6095268 9.00234777,19.7185053 9.00699573,19.8268878 C6.13686073,19.1532007 4,16.5761456 4,13.5 C4,9.91014913 6.91014913,7 10.5,7 L15.5,7 Z"/>
</svg>
