<svg xmlns="http://www.w3.org/2000/svg" width="32" height="32" viewBox="0 0 32 32">
  <path fill="#29B2DC" fill-rule="evenodd" d="M10,6 L22,6 C24.209139,6 26,7.790861 26,10 L26,22 C26,24.209139 24.209139,26 22,26 L10,26 C7.790861,26 6,24.209139 6,22 L6,10 C6,7.790861 7.790861,6 10,6 Z M10.7501363,16.9864557 L9.47206543,13.3348248 C9.38084168,13.0741855 9.09560033,12.9368471 8.83496104,13.0280708 C8.57432175,13.1192946 8.43698332,13.4045359 8.52820707,13.6651752 L10.2782071,18.6651752 C10.4344586,19.1116083 11.0658139,19.1116083 11.2220654,18.6651752 L12.9720654,13.6651752 C13.0632892,13.4045359 12.9259508,13.1192946 12.6653115,13.0280708 C12.4046722,12.9368471 12.1194308,13.0741855 12.0282071,13.3348248 L10.7501363,16.9864557 Z M14.9891021,14.0054361 C15.1831786,14.0014078 15.2861283,13.9999434 15.4051875,13.9999981 C16.5788993,14.0005717 16.988873,14.2021937 16.988873,14.8912573 C16.988873,15.6357672 16.621295,15.9117438 15.7565069,15.9896575 C15.5442368,16.0087821 15.3657324,16.0129568 14.9919837,16.0129798 C14.9904726,15.1773785 14.9895121,14.5081865 14.9891021,14.0054361 Z M15.8462391,16.9856234 C17.1675305,16.8665807 17.988873,16.2499189 17.988873,14.8912573 C17.988873,13.4568077 17.0616494,13.0008063 15.4056735,12.9999979 C15.2682663,12.9999346 15.1538201,13.001709 14.9230593,13.0066023 C14.6911567,13.0115198 14.602036,13.0129798 14.488873,13.0129798 C14.2127306,13.0129798 13.988873,13.2368375 13.988873,13.5129798 C13.988873,14.3565811 13.9915982,16.0234946 13.9970487,18.5140741 C13.997653,18.7902158 14.222,19.013583 14.4981417,19.0129811 C14.7742834,19.0123743 14.9976506,18.7880273 14.9970463,18.5118856 C14.9958687,17.9737899 14.9948184,17.4741534 14.9938953,17.0129796 C15.3959061,17.0129412 15.5949971,17.0082592 15.8462391,16.9856234 Z M19.988873,15.3181386 L22.0601265,18.7702279 C22.3210333,19.2050724 22.988873,19.0200915 22.988873,18.51298 L22.988873,13.51298 C22.988873,13.2368376 22.7650154,13.01298 22.488873,13.01298 C22.2127306,13.01298 21.988873,13.2368376 21.988873,13.51298 L21.988873,16.7078214 L19.9176195,13.2557321 C19.6567127,12.8208876 18.988873,13.0058685 18.988873,13.51298 L18.988873,18.51298 C18.988873,18.7891224 19.2127306,19.01298 19.488873,19.01298 C19.7650154,19.01298 19.988873,18.7891224 19.988873,18.51298 L19.988873,15.3181386 Z"/>
</svg>
