<svg xmlns="http://www.w3.org/2000/svg" width="20" height="20" viewBox="0 0 20 20">
  <path fill="#FFF" fill-opacity=".8" fill-rule="evenodd" d="M10,20 C4.4771525,20 0,15.5228475 0,10 C0,4.4771525 4.4771525,0 10,0 C15.5228475,0 20,4.4771525 20,10 C20,15.5228475 15.5228475,20 10,20 Z M4.0086,8.0035 L4.0086,12.0035 L6.5086,12.0035 C6.64120824,12.0035 6.7683852,12.0561784 6.86215339,12.1499466 L9.0086,14.2963932 L9.0086,5.71060678 L6.86215339,7.85705339 C6.7683852,7.95082158 6.64120824,8.0035 6.5086,8.0035 L4.0086,8.0035 Z M10,8.5 L10,11.5 C10,11.7761424 10.2238576,12 10.5,12 C10.7761424,12 11,11.7761424 11,11.5 L11,8.5 C11,8.22385763 10.7761424,8 10.5,8 C10.2238576,8 10,8.22385763 10,8.5 Z M12,7.5 L12,12.5 C12,12.7761424 12,7.22385763 12,7.5 Z"/>
</svg>
