<svg xmlns="http://www.w3.org/2000/svg" width="128" height="128" viewBox="0 0 128 128">
  <g fill="none" fill-rule="evenodd">
    <rect width="128" height="128"/>
    <path fill="#FFF" fill-opacity=".15" fill-rule="nonzero" d="M64,8 C94.927946,8 120,33.072054 120,64 C120,94.927946 94.927946,120 64,120 C33.072054,120 8,94.927946 8,64 C8,33.072054 33.072054,8 64,8 Z M64,14.4424779 C36.6301363,14.4424779 14.4424779,36.6301363 14.4424779,64 C14.4424779,91.3698637 36.6301363,113.557522 64,113.557522 C91.3698637,113.557522 113.557522,91.3698637 113.557522,64 C113.557522,36.6301363 91.3698637,14.4424779 64,14.4424779 Z M45.4402535,82.5024434 C50.9595231,88.0378285 57.1927216,90.7477384 64.3014528,90.7477384 C71.4087069,90.7477384 77.6301243,88.039098 83.1287855,82.5062282 C84.3940476,81.2330946 86.4518239,81.2267135 87.7249575,82.4919756 C88.9980911,83.7572376 89.0044722,85.8150139 87.7392101,87.0881475 C81.0463174,93.8226784 73.1793715,97.2477384 64.3014528,97.2477384 C55.4250111,97.2477384 47.5497803,93.8239479 40.837364,87.0919323 C39.5700116,85.8208795 39.5730114,83.7630955 40.8440643,82.4957431 C42.1151171,81.2283907 44.1729011,81.2313906 45.4402535,82.5024434 Z M62.7927853,39.1346173 C64.5139723,39.336888 65.7621889,40.8493655 65.6576647,42.5579648 L65.6412492,42.7417288 L62.754,67.302 L68.9631888,68.1329087 C70.680916,68.3627158 71.9047524,69.8949878 71.7728808,71.6016942 L71.7535248,71.7851717 C71.5237176,73.5028989 69.9914457,74.7267353 68.2847393,74.5948637 L68.1012618,74.5755077 L58.7228826,73.3208155 C57.0245745,73.0936063 55.8054045,71.5916086 55.9097731,69.9019011 L55.9260585,69.7201922 L59.1856738,41.9830812 C59.3951686,40.2004232 61.0101274,38.9251225 62.7927853,39.1346173 Z M39.6634615,39.5961538 C42.7010277,39.5961538 45.1634615,42.7301606 45.1634615,46.5961538 C45.1634615,50.4621471 42.7010277,53.5961538 39.6634615,53.5961538 C36.6258954,53.5961538 34.1634615,50.4621471 34.1634615,46.5961538 C34.1634615,42.7301606 36.6258954,39.5961538 39.6634615,39.5961538 Z M87.4711538,39.5961538 C90.50872,39.5961538 92.9711538,42.7301606 92.9711538,46.5961538 C92.9711538,50.4621471 90.50872,53.5961538 87.4711538,53.5961538 C84.4335877,53.5961538 81.9711538,50.4621471 81.9711538,46.5961538 C81.9711538,42.7301606 84.4335877,39.5961538 87.4711538,39.5961538 Z"/>
  </g>
</svg>
