<?xml version="1.0" encoding="UTF-8"?>
<svg width="36px" height="36px" viewBox="0 0 36 36" version="1.1" xmlns="http://www.w3.org/2000/svg" xmlns:xlink="http://www.w3.org/1999/xlink">
    <title>暂停备份 2</title>
    <g id="桌面版" stroke="none" stroke-width="1" fill="none" fill-rule="evenodd">
        <g id="更新4" transform="translate(-1704.000000, -822.000000)">
            <g id="控制中心备份-5" transform="translate(960.000000, 130.000000)">
                <g id="更新" transform="translate(218.000000, 180.000000)">
                    <g id="Group-17备份-11" transform="translate(0.000000, 491.000000)">
                        <g id="编组-4" transform="translate(426.000000, 12.000000)">
                            <g id="暂停备份-2" transform="translate(100.000000, 9.000000)">
                                <rect id="矩形" opacity="0.0840919131" fill-rule="nonzero" x="0" y="0" width="36" height="36"></rect>
                                <path d="M15,23.0928367 L15,12.9071633 C15,12.6310209 15.2238576,12.4071633 15.5,12.4071633 C15.5945117,12.4071633 15.6870879,12.4339503 15.7669965,12.4844188 L23.8306546,17.5772555 C24.0641299,17.7247136 24.1338607,18.0335212 23.9864026,18.2669965 C23.9467092,18.3298443 23.8935024,18.3830511 23.8306546,18.4227445 L15.7669965,23.5155812 C15.5335212,23.6630393 15.2247136,23.5933085 15.0772555,23.3598332 C15.026787,23.2799246 15,23.1873484 15,23.0928367 Z" id="路径-3" fill="#536076"></path>
                            </g>
                        </g>
                    </g>
                </g>
            </g>
        </g>
    </g>
</svg>