<svg xmlns="http://www.w3.org/2000/svg" width="24" height="24" viewBox="0 0 24 24">
  <path fill="#536076" fill-rule="evenodd" d="M4.99212457,7.50059661 C5.39450553,7.50059661 5.9500255,7.50059661 6.65868449,7.50059661 C7.20498189,7.50059661 7.24723683,7.76064728 7.12499482,8.14514034 C6.42606791,10.3435051 6.45273026,14.0063243 7.20498189,16.0923942 C7.31820346,16.406369 7.14270338,16.5005546 6.89468563,16.5005546 C6.1306208,16.5005546 5.54030104,16.5005546 5.12372636,16.5005546 C4.91581758,16.5005546 4.39892031,16.5005546 4.02721272,15.978062 C3.3518136,15.0286838 3,13.51676 3,12.0043256 C3,10.3816114 3.4047629,8.75889713 4.17503124,7.83093792 C4.44923668,7.50059661 4.82808304,7.50059661 4.99212457,7.50059661 Z M21,12.0043256 C21.0037455,18.0275474 18.6412461,21.6522805 16.4092467,20.902284 C15.8287468,20.7072849 9.23399846,16.7180536 9.23399846,16.7180536 C7.73924883,15.0530613 7.73924883,9.00208959 9.23399846,7.33709737 C9.23399846,7.33709737 16.1047468,3.23011655 16.3949967,3.1123671 C18.4132462,2.2978709 20.9969955,5.97735372 21,12.0043256 Z M18.4627462,6.23460252 C17.6729964,4.53661045 16.2112467,4.56511031 15.4372469,6.23610251 C14.996247,7.18934806 14.6924971,8.60984143 14.5297471,9.83383571 L14.924997,9.83383571 C16.1152468,9.83383571 17.0797465,10.7990812 17.0797465,11.9900756 C17.0797465,13.1810701 16.1152468,14.1463156 14.924997,14.1463156 L14.5387471,14.1463156 C14.7014971,15.34856 15.000747,16.7998032 15.4432469,17.8137984 C16.1842467,19.5170405 17.7397463,19.4877906 18.4679962,17.8122985 C19.9274958,14.4545641 19.7969958,9.10558911 18.4627462,6.23460252 L18.4627462,6.23460252 Z"/>
</svg>
