<?xml version="1.0" encoding="UTF-8"?>
<svg width="36px" height="36px" viewBox="0 0 36 36" version="1.1" xmlns="http://www.w3.org/2000/svg" xmlns:xlink="http://www.w3.org/1999/xlink">
    <title>重新试样</title>
    <g id="桌面版" stroke="none" stroke-width="1" fill="none" fill-rule="evenodd">
        <g id="更新4" transform="translate(-1704.000000, -547.000000)">
            <g id="控制中心备份-5" transform="translate(960.000000, 130.000000)">
                <g id="更新" transform="translate(218.000000, 180.000000)">
                    <g id="Group-17备份-10" transform="translate(0.000000, 217.000000)">
                        <g id="编组-4" transform="translate(478.000000, 20.000000)">
                            <g id="重新试样" transform="translate(48.000000, 0.000000)">
                                <rect id="矩形" opacity="0.329069592" fill-rule="nonzero" x="0" y="0" width="36" height="36"></rect>
                                <path d="M18,11.6 C21.5346224,11.6 24.4,14.4653776 24.4,18 C24.4,21.5346224 21.5346224,24.4 18,24.4 C16.8566496,24.4 15.7551017,24.0989754 14.7870493,23.5361113 C14.3573488,23.2862664 14.2115471,22.7353861 14.4613919,22.3056857 C14.7112368,21.8759852 15.2621171,21.7301834 15.6918176,21.9800283 C16.386923,22.3841901 17.1766421,22.6 18,22.6 C20.5405098,22.6 22.6,20.5405098 22.6,18 C22.6,15.4594902 20.5405098,13.4 18,13.4 C15.8017533,13.4 13.9636487,14.9419519 13.50828,17.0032619 L15.1702126,17.0036658 L12.6675437,20.8956106 L9.67021256,17.0036658 L11.6771327,17.0034103 C12.1557808,13.9421094 14.8043759,11.6 18,11.6 Z" id="形状结合" fill="#536076"></path>
                            </g>
                        </g>
                    </g>
                </g>
            </g>
        </g>
    </g>
</svg>