<svg xmlns="http://www.w3.org/2000/svg" width="16" height="16" viewBox="0 0 16 16">
  <path fill="#536076" fill-rule="evenodd" d="M8,2 C11.3137085,2 14,4.6862915 14,8 C14,11.3137085 11.3137085,14 8,14 C5.35563875,14 3.04615376,12.2740229 2.27103416,9.78789742 L2.27103416,9.78789742 L3.22571013,9.49025032 C3.87146744,11.561458 5.79634295,13 8,13 C10.7614237,13 13,10.7614237 13,8 C13,5.23857625 10.7614237,3 8,3 C6.22247654,3 4.60731485,3.93472195 3.70922666,5.43142018 L3.76178644,5.347 L5.58578644,7.17157288 L1.58578644,7.17157288 L1.58578644,3.17157288 L3.03862183,4.62478492 C4.14422552,3.00112324 5.98574514,2 8,2 Z"/>
</svg>
