<svg xmlns="http://www.w3.org/2000/svg" width="16" height="16" viewBox="0 0 16 16">
  <path fill="#25618C" d="M13,4.17157288 L15.8284271,7 L13.9170595,7.00010699 C13.9716074,7.32528175 14,7.65932515 14,8 C14,11.3137085 11.3137085,14 8,14 C6.70410647,14 5.50416765,13.589169 4.52332235,12.8906459 L5.60416038,11.8098884 C6.29790622,12.247067 7.11941527,12.5 8,12.5 C10.4852814,12.5 12.5,10.4852814 12.5,8 C12.5,7.65625367 12.4614575,7.32150942 12.3884584,6.99985305 L10.1715729,7 L13,4.17157288 Z M8,2 C9.29589353,2 10.4958324,2.41083098 11.4766776,3.10935412 L10.3958396,4.1901116 C9.70209378,3.75293304 8.88058473,3.5 8,3.5 C5.51471863,3.5 3.5,5.51471863 3.5,8 C3.5,8.34409998 3.5386218,8.67917935 3.61176697,9.00113967 L5.82842712,9 L3,11.8284271 L0.171572875,9 L2.08310859,9.00089454 C2.0284509,8.67540416 2,8.34102461 2,8 C2,4.6862915 4.6862915,2 8,2 Z" transform="matrix(-1 0 0 1 16 0)"/>
</svg>
