<svg xmlns="http://www.w3.org/2000/svg" width="32" height="32" viewBox="0 0 32 32">
  <path fill="#536076" fill-rule="evenodd" d="M24.9941636,13.8182546 C24.7657418,12.875788 24.3924671,11.9898951 23.899196,11.1845769 C23.8421977,11.0915731 23.7252011,11.0615719 23.6244898,11.103145 C22.8646551,11.4138719 21.963396,11.2685803 21.3462714,10.6518411 C20.7295753,10.0351019 20.5842939,9.13420841 20.8945705,8.37432059 C20.9357121,8.27360224 20.905713,8.15659752 20.8131443,8.09959522 C20.0074538,7.60671818 19.1211943,7.23384598 18.1787935,7.00583678 C18.072511,6.98012146 17.9679426,7.04183823 17.9259439,7.14255659 C17.6092389,7.90115863 16.8682608,8.43732313 15.9944295,8.43732313 C15.1223124,8.43732313 14.3821914,7.90287299 14.0646294,7.14555671 C14.0222021,7.04483836 13.9176337,6.98312158 13.8113512,7.0088369 C12.8685219,7.23898905 11.9818338,7.61314701 11.1765719,8.10730981 C11.0844317,8.16388353 11.0552897,8.27917389 11.0960028,8.37903507 C11.4062793,9.13849429 11.2605694,10.0393878 10.6438733,10.656127 C10.0284629,11.272009 9.12934662,11.4181577 8.37036904,11.1100024 C8.27051485,11.0692865 8.15523254,11.0988591 8.09866278,11.1910057 C7.60624876,11.9971811 7.23340263,12.8839312 7.00583793,13.8263978 C6.9801244,13.9322592 7.04183686,14.0368349 7.14211962,14.0792652 C7.89724016,14.397278 8.42993871,15.1365935 8.42993871,16.008343 C8.42993871,16.8783781 7.89852584,17.6168365 7.14554809,17.9361351 C7.04526533,17.9785654 6.98398143,18.0831411 7.00969496,18.1890025 C7.2389739,19.1318977 7.61353426,20.0182192 8.10766252,20.8235374 C8.16380372,20.9152554 8.27908602,20.944828 8.37894022,20.9045407 C9.13706068,20.5976711 10.0344627,20.7446771 10.6494446,21.3592733 C11.2635693,21.9730124 11.4105649,22.86962 11.104574,23.6277934 C11.0642895,23.7276546 11.09386,23.8425164 11.1855716,23.8986615 C11.9916906,24.3923957 12.8783787,24.7656965 13.821208,24.9941343 C13.927062,25.0198496 14.0316304,24.9585614 14.0740577,24.8582717 C14.3929054,24.1048127 15.1317407,23.5733627 16.0012865,23.5733627 C16.8712608,23.5733627 17.6096675,24.1048127 17.9285152,24.8582717 C17.9709425,24.9585614 18.0755109,25.0198496 18.1813649,24.9941343 C19.1241942,24.7656965 20.0104537,24.3923957 20.8165728,23.8990901 C20.9087129,23.842945 20.9378549,23.7276546 20.8975704,23.6277934 C20.5894366,22.8691914 20.7355752,21.9700122 21.3509855,21.3545588 C21.9668245,20.7391054 22.8663693,20.5933852 23.6249184,20.9019691 C23.7247726,20.9426851 23.8400549,20.9131124 23.8961961,20.8213944 C24.3903243,20.0156476 24.7644561,19.1288976 24.9933065,18.1860023 C25.01902,18.0797123 24.9573076,17.9751367 24.8565963,17.933135 C24.0997615,17.6155508 23.5653487,16.8749494 23.5653487,16.0027714 C23.5653487,15.1297361 24.10019,14.3895634 24.8574534,14.0724077 C24.9581647,14.0291203 25.0198772,13.9245446 24.9941636,13.8182546 L24.9941636,13.8182546 L24.9941636,13.8182546 Z M16,18.7 C17.4911688,18.7 18.7,17.4911688 18.7,16 C18.7,14.5088312 17.4911688,13.3 16,13.3 C14.5088312,13.3 13.3,14.5088312 13.3,16 C13.3,17.4911688 14.5088312,18.7 16,18.7 Z"/>
</svg>
