<svg xmlns="http://www.w3.org/2000/svg" width="24" height="24" viewBox="0 0 24 24">
  <path fill="#536076" fill-rule="evenodd" d="M8.23529412,19.890625 L9.37254902,18.796875 L12.5490196,21.9609375 L12,22 C9.38560753,22 7.11765584,21.1145923 5.19607969,19.34375 C3.27450027,17.5729075 2.20915137,15.39845 2,12.8203125 L3.25490196,12.8203125 C3.41176546,14.38282 3.93463617,15.789055 4.82352941,17.0390625 C5.71242165,18.2890675 6.84966651,19.23958 8.23529412,19.890625 L8.23529412,19.890625 Z M14.3529412,19.65625 L19.6862745,14.34375 L9.64705882,4.34375 L4.31372549,9.65625 L14.3529412,19.65625 Z M10.5098039,3.4453125 L20.5882353,13.484375 C20.849674,13.71875 20.9803922,14.0052075 20.9803922,14.34375 C20.9803922,14.6822925 20.849674,14.98177 20.5882353,15.2421875 L15.254902,20.5546875 C15.0196078,20.8151055 14.732027,20.9453125 14.3921569,20.9453125 C14.0522867,20.9453125 13.7516348,20.8151055 13.4901961,20.5546875 L3.41176471,10.515625 C3.15032546,10.28125 3.01960784,9.9947925 3.01960784,9.65625 C3.01960784,9.3177075 3.15032546,9.01823 3.41176471,8.7578125 L8.74509804,3.4453125 C8.98039216,3.184895 9.26797302,3.0546875 9.60784314,3.0546875 C9.94771325,3.0546875 10.2483652,3.184895 10.5098039,3.4453125 L10.5098039,3.4453125 Z M15.7647059,4.109375 L14.627451,5.203125 L11.4509804,2.0390625 L12,2 C14.6143925,2 16.8823442,2.8854075 18.8039203,4.65625 C20.725499,6.4270925 21.790848,8.60155 22,11.1796875 L20.745098,11.1796875 C20.5882353,9.61718 20.0653628,8.210945 19.1764706,6.9609375 C18.2875784,5.7109325 17.1503335,4.76042 15.7647059,4.109375 L15.7647059,4.109375 Z"/>
</svg>
