<?xml version="1.0" encoding="utf-8" ?>
<svg xmlns="http://www.w3.org/2000/svg" xmlns:xlink="http://www.w3.org/1999/xlink" width="194" height="250">
	<path fill="#1F6EE7" transform="translate(0.0166016 0)" d="M124.97067 0C125.95696 0 126.75652 0.79972374 126.75652 1.7862329L126.75652 12.503631C126.75652 13.49014 125.95696 14.289864 124.97067 14.289864C123.98438 14.289864 123.18483 13.49014 123.18483 12.503631L123.18483 1.7862329C123.18483 0.79972374 123.98438 0 124.97067 0ZM192.01494 230.56943C191.17851 231.09207 190.07668 230.83757 189.55389 230.00096L183.87454 220.91209C183.35178 220.07549 183.60605 218.97359 184.44246 218.45093C185.27888 217.92827 186.38074 218.18279 186.9035 219.01939L192.58286 228.10826C193.10564 228.94487 192.85136 230.04677 192.01494 230.56943ZM180.91139 236.85481C180.03259 237.30258 178.95712 236.953 178.50926 236.07402L173.64366 226.52475C173.1958 225.64575 173.54514 224.57021 174.42393 224.12245C175.30272 223.67468 176.37819 224.02425 176.82607 224.90323L181.69165 234.4525C182.13953 235.3315 181.79019 236.40704 180.91139 236.85481ZM169.10854 242.01962C168.18774 242.37308 167.15471 241.91301 166.80118 240.99202L162.9604 230.98647C162.60687 230.06548 163.06671 229.03235 163.9875 228.67889C164.90828 228.32542 165.94133 228.78551 166.29486 229.7065L170.13564 239.71205C170.48917 240.63303 170.02931 241.66617 169.10854 242.01962ZM156.83688 245.94202C155.8842 246.19728 154.90491 245.63176 154.64958 244.67886L151.87572 234.32664C151.62039 233.37375 152.18571 232.39433 153.1384 232.13907C154.09108 231.88379 155.07037 232.44933 155.3257 233.40222L158.09956 243.75444C158.35489 244.70734 157.78957 245.68675 156.83688 245.94202ZM144.22679 248.58032C143.25264 248.7346 142.33783 248.06981 142.1835 247.09544L140.50694 236.50999C140.35262 235.53563 141.01721 234.62068 141.99136 234.46638C142.96552 234.3121 143.88033 234.9769 144.03465 235.95126L145.71123 246.53671C145.86554 247.51108 145.20094 248.42603 144.22679 248.58032ZM131.41219 249.90651C130.42725 249.95813 129.58693 249.20135 129.53531 248.2162L128.9744 237.51349C128.92278 236.52832 129.67937 235.68785 130.66431 235.63623C131.64925 235.58461 132.48956 236.3414 132.54118 237.32655L133.1021 248.02927C133.15372 249.01442 132.39713 249.8549 131.41219 249.90651ZM118.52916 249.90651C117.54422 249.8549 116.78762 249.01442 116.83925 248.02927L117.40015 237.32655C117.45178 236.3414 118.29209 235.58461 119.27703 235.63623C120.26197 235.68785 121.01857 236.52832 120.96694 237.51349L120.40604 248.2162C120.35441 249.20135 119.5141 249.95813 118.52916 249.90651ZM105.71455 248.58032C104.74039 248.42603 104.0758 247.51108 104.23012 246.53671L105.90669 235.95126C106.06101 234.9769 106.97582 234.3121 107.94997 234.46638C108.92413 234.62068 109.58873 235.53563 109.4344 236.50999L107.75784 247.09544C107.60351 248.06981 106.6887 248.7346 105.71455 248.58032ZM93.104454 245.94202C92.151772 245.68675 91.586449 244.70734 91.841774 243.75444L94.615639 233.40222C94.870972 232.44933 95.850258 231.88379 96.802948 232.13907C97.75563 232.39433 98.320953 233.37375 98.065628 234.32664L95.291756 244.67886C95.03643 245.63176 94.057144 246.19728 93.104454 245.94202ZM80.832809 242.01962C79.912025 241.66617 79.452179 240.63303 79.80571 239.71205L83.646484 229.7065C84.000015 228.78551 85.033058 228.32542 85.953842 228.67889C86.874626 229.03235 87.334473 230.06548 86.980942 230.98647L83.140167 240.99202C82.786636 241.91301 81.753593 242.37308 80.832809 242.01962ZM69.029953 236.85481C68.151154 236.40704 67.801819 235.3315 68.249687 234.4525L73.11528 224.90323C73.563148 224.02425 74.638618 223.67468 75.51741 224.12245C76.39621 224.57021 76.745544 225.64575 76.297676 226.52475L71.432083 236.07402C70.984215 236.953 69.908745 237.30258 69.029953 236.85481ZM57.926399 230.56943C57.089977 230.04677 56.835709 228.94487 57.358479 228.10826L63.037834 219.01939C63.560604 218.18279 64.662453 217.92827 65.498878 218.45093C66.335297 218.97359 66.589569 220.07549 66.066795 220.91209L60.38744 230.00096C59.86467 230.83757 58.762825 231.09207 57.926399 230.56943ZM56.221004 211.84698C56.998215 212.45421 57.13591 213.57666 56.528553 214.35403L49.930264 222.79947C49.32291 223.57684 48.200497 223.71478 47.423286 223.10756C46.646076 222.50034 46.508381 221.3779 47.115738 220.60051L53.714027 212.15509C54.321384 211.37772 55.443794 211.23978 56.221004 211.84698ZM47.670334 204.32484C48.379814 205.00998 48.399426 206.14067 47.714138 206.85031L40.269211 214.55975C39.583923 215.26939 38.453239 215.28925 37.743759 214.60411C37.034279 213.91898 37.014668 212.78828 37.699955 212.07866L45.144882 204.3692C45.83017 203.65956 46.960854 203.63971 47.670334 204.32484ZM39.937298 195.96405C40.571274 196.71959 40.472591 197.84613 39.716881 198.48026L31.506878 205.36926C30.751167 206.00337 29.624603 205.90494 28.990625 205.1494C28.356649 204.39386 28.455332 203.2673 29.211042 202.63319L37.421047 195.74419C38.176754 195.11006 39.303318 195.20851 39.937298 195.96405ZM33.103687 186.85304C33.655216 187.67072 33.439316 188.78076 32.621464 189.33241L23.736338 195.32552C22.918486 195.87715 21.808382 195.6615 21.256853 194.84383C20.705324 194.02615 20.921225 192.91609 21.739077 192.36444L30.624203 186.37135C31.442057 185.8197 32.552158 186.03537 33.103687 186.85304ZM14.624581 183.79686C14.161545 182.92601 14.492293 181.8446 15.363329 181.38147L24.826229 176.34996C25.697266 175.88681 26.778746 176.21733 27.241783 177.08818C27.704819 177.95901 27.374071 179.04042 26.503035 179.50357L17.040134 184.53508C16.169098 184.99821 15.087618 184.66771 14.624581 183.79686ZM9.1642513 172.12582C8.7947788 171.21135 9.2367535 170.17044 10.151429 169.80089L20.088427 165.78607C21.003103 165.41652 22.044109 165.85826 22.413582 166.77274C22.783054 167.68723 22.34108 168.72813 21.426405 169.09769L11.489406 173.11249C10.574731 173.48204 9.5337229 173.0403 9.1642513 172.12582ZM4.9338555 159.95467C4.6619964 159.00658 5.2103543 158.01758 6.158648 157.74565L16.460873 154.79153C17.409166 154.51962 18.398294 155.06776 18.670155 156.01585C18.942015 156.96393 18.393656 157.95294 17.445362 158.22487L7.1431379 161.17897C6.1948442 161.4509 5.2057152 160.90276 4.9338555 159.95467ZM1.9783252 147.41267C1.807057 146.44136 2.455791 145.51509 3.4273129 145.34378L13.98189 143.48273C14.953412 143.31142 15.879826 143.95995 16.051094 144.93126C16.222363 145.90257 15.573628 146.82884 14.602106 147.00015L4.0475297 148.86121C3.0760076 149.03252 2.1495934 148.38399 1.9783252 147.41267ZM0.32904884 134.63304C0.26024848 133.64914 1.0022504 132.79576 1.9863566 132.72694L12.677648 131.97934C13.661754 131.91052 14.515304 132.65233 14.584104 133.63623C14.652904 134.62012 13.910902 135.47351 12.926796 135.54233L2.2355049 136.28993C1.2513986 136.35875 0.39784923 135.61693 0.32904884 134.63304ZM0.00027753224 121.87616C0.017490732 120.89001 0.83104676 120.10455 1.8174057 120.12176L12.533172 120.30881C13.51953 120.32602 14.305179 121.1394 14.287965 122.12555C14.270752 123.11169 13.457196 123.89716 12.470837 123.87994L1.7550713 123.6929C0.76871222 123.67568 -0.016935667 122.8623 0.00027753224 121.87616ZM0.9889825 109.0285C1.1091814 108.04956 2.0003848 107.35343 2.9795406 107.47366L13.617053 108.77978C14.596209 108.90001 15.292531 109.79105 15.172332 110.77C15.052133 111.74894 14.16093 112.44507 13.181774 112.32484L2.5442617 111.01872C1.5651057 110.8985 0.86878347 110.00745 0.9889825 109.0285ZM3.2944486 96.350845C3.5163164 95.389832 4.4754028 94.790672 5.4366279 95.012589L15.879339 97.423477C16.840565 97.645393 17.439932 98.604347 17.218063 99.565369C16.996197 100.52638 16.037109 101.12554 15.075885 100.90363L4.6331735 98.492729C3.6719482 98.270813 3.0725806 97.311859 3.2944486 96.350845ZM6.8921909 83.977837C7.2132969 83.045273 8.2297583 82.549652 9.1625214 82.870827L19.296021 86.360069C20.228783 86.681244 20.724628 87.697601 20.403522 88.630157C20.082417 89.562721 19.065956 90.058342 18.133192 89.737167L7.9996939 86.247925C7.0669312 85.926743 6.571085 84.910393 6.8921909 83.977837ZM11.743999 72.040878C12.160825 71.146996 13.223525 70.760338 14.117606 71.177254L23.830868 75.706619C24.724949 76.123535 25.111839 77.18615 24.695015 78.08004C24.278189 78.973923 23.215488 79.36058 22.321407 78.943665L12.608147 74.414299C11.714066 73.997383 11.327173 72.934769 11.743999 72.040878ZM17.798344 60.666767C18.306322 59.821346 19.403618 59.547886 20.249222 60.055977L29.435823 65.575844C30.281427 66.083939 30.555126 67.181168 30.047148 68.026588C29.539169 68.872009 28.441874 69.14547 27.59627 68.637375L18.409668 63.117508C17.564064 62.609421 17.290365 61.512184 17.798344 60.666767ZM27.492218 49.625038L36.051514 56.074928C36.839375 56.668625 36.99688 57.78846 36.403313 58.576149C35.80975 59.363838 34.68988 59.521099 33.90202 58.927406L25.342724 52.477512C24.554863 51.883816 24.397354 50.763985 24.990921 49.976295C25.584488 49.188606 26.704355 49.031342 27.492218 49.625038ZM35.76965 39.995132L43.607861 47.304382C44.329346 47.97718 44.368935 49.107342 43.696285 49.828671C43.023636 50.550003 41.893463 50.589344 41.171974 49.916546L33.333767 42.6073C32.612278 41.934502 32.572689 40.804337 33.245342 40.083008C33.917992 39.361679 35.048164 39.322334 35.76965 39.995132ZM44.993599 31.268452L52.024845 39.356976C52.67205 40.101501 52.593292 41.229614 51.848927 41.876682C51.104561 42.523746 49.976467 42.44474 49.329258 41.700211L42.298012 33.611687C41.650803 32.867161 41.729565 31.73905 42.47393 31.091984C43.218296 30.444916 44.34639 30.523924 44.993599 31.268452ZM55.066093 23.53759L61.213341 32.316769C61.779179 33.12487 61.582932 34.238567 60.775005 34.804283C59.967079 35.369995 58.853424 35.173504 58.287586 34.365402L52.140339 25.586224C51.574501 24.778124 51.770752 23.664425 52.578674 23.098711C53.3866 22.532995 54.500256 22.729488 55.066093 23.53759ZM63.343719 16.249491C64.197876 15.756344 65.290169 16.04915 65.783417 16.903492L71.14212 26.185032C71.635376 27.039373 71.342804 28.131729 70.488647 28.624876C69.634499 29.118023 68.542206 28.825216 68.04895 27.970875L62.69025 18.689335C62.196995 17.834993 62.489563 16.742638 63.343719 16.249491ZM74.864815 10.483228C75.765839 10.082066 76.821541 10.487444 77.222794 11.388664L81.581947 21.179495C81.9832 22.080715 81.578049 23.136505 80.677025 23.537668C79.776001 23.938829 78.720299 23.533451 78.319054 22.632231L73.959892 12.8414C73.55864 11.940179 73.963791 10.884389 74.864815 10.483228ZM86.918083 5.933578C87.856102 5.6287966 88.863647 6.1423049 89.168495 7.0805306L92.480354 17.273382C92.785202 18.211609 92.271912 19.219265 91.333893 19.524046C90.395866 19.828829 89.388329 19.315319 89.083481 18.377094L85.771622 8.1842422C85.466774 7.2460165 85.980057 6.2383595 86.918083 5.933578ZM99.375496 2.6488664C100.34024 2.4438043 101.28859 3.0598166 101.4937 4.0247684L103.72197 14.507965C103.92707 15.472918 103.31127 16.4214 102.34653 16.626463C101.38179 16.831524 100.43344 16.215513 100.22833 15.250561L98.000061 4.7673635C97.794952 3.8024118 98.410759 2.8539283 99.375496 2.6488664ZM112.10476 0.66397965C113.08566 0.56088388 113.96442 1.2726511 114.06754 2.253756L115.18781 12.912443C115.29092 13.893548 114.57935 14.772467 113.59846 14.875563C112.61757 14.978658 111.73881 14.266891 111.63569 13.285786L110.51541 2.6270988C110.41229 1.6459938 111.12387 0.76707542 112.10476 0.66397965Z"/>
</svg>
