<?xml version="1.0" encoding="utf-8" ?>
<svg xmlns="http://www.w3.org/2000/svg" xmlns:xlink="http://www.w3.org/1999/xlink" width="236" height="236">
	<path fill="#0081FF" fill-opacity="0.15294118" transform="translate(116.073 -8.39233e-05)" d="M1.7858428 0C2.7721364 0 3.5716856 0.79972374 3.5716856 1.7862329L3.5716856 5.3586988C3.5716856 6.3452082 2.7721364 7.1449318 1.7858428 7.1449318C0.79954904 7.1449318 0 6.3452082 0 5.3586988L0 1.7862329C0 0.79972374 0.79954904 0 1.7858428 0Z"/>
	<path fill="#0081FF" fill-opacity="0.15294118" transform="matrix(0.994522 0.104528 -0.104528 0.994522 128.208 0.43872)" d="M1.7858428 0C2.7721364 0 3.5716856 0.79972374 3.5716856 1.7862329L3.5716856 5.3586988C3.5716856 6.3452082 2.7721364 7.1449318 1.7858428 7.1449318C0.79954904 7.1449318 0 6.3452082 0 5.3586988L0 1.7862329C0 0.79972374 0.79954904 0 1.7858428 0Z"/>
	<path fill="#0081FF" fill-opacity="0.15294118" transform="matrix(0.978148 0.207912 -0.207912 0.978148 140.234 2.12388)" d="M1.7858428 -3.6459724e-13C2.7721364 -3.6459724e-13 3.5716856 0.79972374 3.5716856 1.7862329L3.5716856 5.3586988C3.5716856 6.3452082 2.7721364 7.1449318 1.7858428 7.1449318C0.79954904 7.1449318 1.0822454e-12 6.3452082 1.0822454e-12 5.3586988L1.0822454e-12 1.7862329C1.0822454e-12 0.79972374 0.79954904 -3.6459724e-13 1.7858428 -3.6459724e-13Z"/>
	<path fill="#0081FF" fill-opacity="0.15294118" transform="matrix(0.951057 0.309017 -0.309017 0.951057 152.023 5.03758)" d="M1.7858428 2.3758773e-13C2.7721364 2.3758773e-13 3.5716856 0.79972374 3.5716856 1.7862329L3.5716856 5.3586988C3.5716856 6.3452082 2.7721364 7.1449318 1.7858428 7.1449318C0.79954904 7.1449318 -6.2838623e-13 6.3452082 -6.2838623e-13 5.3586988L-6.2838623e-13 1.7862329C-6.2838623e-13 0.79972374 0.79954904 2.3758773e-13 1.7858428 2.3758773e-13Z"/>
	<path fill="#0081FF" fill-opacity="0.15294118" transform="matrix(0.913545 0.406737 -0.406737 0.913545 163.45 9.14896)" d="M1.7858428 0C2.7721364 0 3.5716856 0.79972374 3.5716856 1.7862329L3.5716856 5.3586988C3.5716856 6.3452082 2.7721364 7.1449318 1.7858428 7.1449318C0.79954904 7.1449318 0 6.3452082 0 5.3586988L0 1.7862329C0 0.79972374 0.79954904 0 1.7858428 0Z"/>
	<path fill="#0081FF" fill-opacity="0.15294118" transform="matrix(0.866025 0.5 -0.5 0.866025 174.394 14.4145)" d="M1.7858428 0C2.7721364 0 3.5716856 0.79972374 3.5716856 1.7862329L3.5716856 5.3586988C3.5716856 6.3452082 2.7721364 7.1449318 1.7858428 7.1449318C0.79954904 7.1449318 0 6.3452082 0 5.3586988L0 1.7862329C0 0.79972374 0.79954904 0 1.7858428 0Z"/>
	<path fill="#0081FF" fill-opacity="0.15294118" transform="matrix(0.819152 0.573577 -0.573577 0.819152 184.67 20.7674)" d="M1.7858428 0C2.7721364 0 3.5716856 0.79972374 3.5716856 1.7862329L3.5716856 5.3586988C3.5716856 6.3452082 2.7721364 7.1449318 1.7858428 7.1449318C0.79954904 7.1449318 0 6.3452082 0 5.3586988L0 1.7862329C0 0.79972374 0.79954904 0 1.7858428 0Z"/>
	<path fill="#0081FF" fill-opacity="0.15294118" transform="matrix(0.75471 0.656059 -0.656059 0.75471 194.307 28.1549)" d="M1.7858428 0C2.7721364 0 3.5716856 0.79972374 3.5716856 1.7862329L3.5716856 5.3586988C3.5716856 6.3452082 2.7721364 7.1449318 1.7858428 7.1449318C0.79954904 7.1449318 0 6.3452082 0 5.3586988L0 1.7862329C0 0.79972374 0.79954904 0 1.7858428 0Z"/>
	<path fill="#0081FF" fill-opacity="0.15294118" transform="matrix(0.681998 0.731354 -0.731354 0.681998 203.133 36.495)" d="M1.7858428 0C2.7721364 0 3.5716856 0.79972374 3.5716856 1.7862329L3.5716856 5.3586988C3.5716856 6.3452082 2.7721364 7.1449318 1.7858428 7.1449318C0.79954904 7.1449318 0 6.3452082 0 5.3586988L0 1.7862329C0 0.79972374 0.79954904 0 1.7858428 0Z"/>
	<path fill="#0081FF" fill-opacity="0.15294118" transform="matrix(0.601815 0.798636 -0.798636 0.601815 211.054 45.6992)" d="M1.7858428 0C2.7721364 0 3.5716856 0.79972374 3.5716856 1.7862329L3.5716856 5.3586988C3.5716856 6.3452082 2.7721364 7.1449318 1.7858428 7.1449318C0.79954904 7.1449318 0 6.3452082 0 5.3586988L0 1.7862329C0 0.79972374 0.79954904 0 1.7858428 0Z"/>
	<path fill="#0081FF" fill-opacity="0.15294118" transform="matrix(0.515038 0.857167 -0.857167 0.515038 217.987 55.67)" d="M1.7858428 0C2.7721364 0 3.5716856 0.79972374 3.5716856 1.7862329L3.5716856 5.3586988C3.5716856 6.3452082 2.7721364 7.1449318 1.7858428 7.1449318C0.79954904 7.1449318 0 6.3452082 0 5.3586988L0 1.7862329C0 0.79972374 0.79954904 0 1.7858428 0Z"/>
	<path fill="#0081FF" fill-opacity="0.15294118" transform="matrix(0.422618 0.906308 -0.906308 0.422618 223.858 66.3016)" d="M1.7858428 0C2.7721364 0 3.5716856 0.79972374 3.5716856 1.7862329L3.5716856 5.3586988C3.5716856 6.3452082 2.7721364 7.1449318 1.7858428 7.1449318C0.79954904 7.1449318 0 6.3452082 0 5.3586988L0 1.7862329C0 0.79972374 0.79954904 0 1.7858428 0Z"/>
	<path fill="#0081FF" fill-opacity="0.15294118" transform="matrix(0.325568 0.945519 -0.945519 0.325568 228.605 77.4811)" d="M1.7858428 0C2.7721364 0 3.5716856 0.79972374 3.5716856 1.7862329L3.5716856 5.3586988C3.5716856 6.3452082 2.7721364 7.1449318 1.7858428 7.1449318C0.79954904 7.1449318 0 6.3452082 0 5.3586988L0 1.7862329C0 0.79972374 0.79954904 0 1.7858428 0Z"/>
	<path fill="#0081FF" fill-opacity="0.15294118" transform="matrix(0.224951 0.97437 -0.97437 0.224951 232.177 89.0899)" d="M1.7858428 0C2.7721364 0 3.5716856 0.79972374 3.5716856 1.7862329L3.5716856 5.3586988C3.5716856 6.3452082 2.7721364 7.1449318 1.7858428 7.1449318C0.79954904 7.1449318 0 6.3452082 0 5.3586988L0 1.7862329C0 0.79972374 0.79954904 0 1.7858428 0Z"/>
	<path fill="#0081FF" fill-opacity="0.15294118" transform="matrix(0.121869 0.992546 -0.992546 0.121869 234.535 101.005)" d="M1.7858428 0C2.7721364 0 3.5716856 0.79972374 3.5716856 1.7862329L3.5716856 5.3586988C3.5716856 6.3452082 2.7721364 7.1449318 1.7858428 7.1449318C0.79954904 7.1449318 0 6.3452082 0 5.3586988L0 1.7862329C0 0.79972374 0.79954904 0 1.7858428 0Z"/>
	<path fill="#0081FF" fill-opacity="0.15294118" transform="matrix(0.0174524 0.999848 -0.999848 0.0174524 235.656 113.1)" d="M1.7858428 0C2.7721364 0 3.5716856 0.79972374 3.5716856 1.7862329L3.5716856 5.3586988C3.5716856 6.3452082 2.7721364 7.1449318 1.7858428 7.1449318C0.79954904 7.1449318 0 6.3452082 0 5.3586988L0 1.7862329C0 0.79972374 0.79954904 0 1.7858428 0Z"/>
	<path fill="#0081FF" fill-opacity="0.15294118" transform="matrix(-0.0697566 0.997564 -0.997564 -0.0697566 235.501 125.182)" d="M1.7858428 0C2.7721364 0 3.5716856 0.79972374 3.5716856 1.7862329L3.5716856 5.3586988C3.5716856 6.3452082 2.7721364 7.1449318 1.7858428 7.1449318C0.79954904 7.1449318 0 6.3452082 0 5.3586988L0 1.7862329C0 0.79972374 0.79954904 0 1.7858428 0Z"/>
	<path fill="#0081FF" fill-opacity="0.15294118" transform="matrix(-0.173648 0.984808 -0.984808 -0.173648 234.13 137.248)" d="M1.7858428 0C2.7721364 0 3.5716856 0.79972374 3.5716856 1.7862329L3.5716856 5.3586988C3.5716856 6.3452082 2.7721364 7.1449318 1.7858428 7.1449318C0.79954904 7.1449318 0 6.3452082 0 5.3586988L0 1.7862329C0 0.79972374 0.79954904 0 1.7858428 0Z"/>
	<path fill="#0081FF" fill-opacity="0.15294118" transform="matrix(-0.275637 0.961262 -0.961262 -0.275637 231.525 149.11)" d="M1.7858428 0C2.7721364 0 3.5716856 0.79972374 3.5716856 1.7862329L3.5716856 5.3586988C3.5716856 6.3452082 2.7721364 7.1449318 1.7858428 7.1449318C0.79954904 7.1449318 0 6.3452082 0 5.3586988L0 1.7862329C0 0.79972374 0.79954904 0 1.7858428 0Z"/>
	<path fill="#0081FF" fill-opacity="0.15294118" transform="matrix(-0.374607 0.927184 -0.927184 -0.374607 227.714 160.641)" d="M1.7858428 0C2.7721364 0 3.5716856 0.79972374 3.5716856 1.7862329L3.5716856 5.3586988C3.5716856 6.3452082 2.7721364 7.1449318 1.7858428 7.1449318C0.79954904 7.1449318 0 6.3452082 0 5.3586988L0 1.7862329C0 0.79972374 0.79954904 0 1.7858428 0Z"/>
	<path fill="#0081FF" fill-opacity="0.15294118" transform="matrix(-0.469472 0.882948 -0.882948 -0.469472 222.737 171.719)" d="M1.7858428 0C2.7721364 0 3.5716856 0.79972374 3.5716856 1.7862329L3.5716856 5.3586988C3.5716856 6.3452082 2.7721364 7.1449318 1.7858428 7.1449318C0.79954904 7.1449318 0 6.3452082 0 5.3586988L0 1.7862329C0 0.79972374 0.79954904 0 1.7858428 0Z"/>
	<path fill="#0081FF" fill-opacity="0.15294118" transform="matrix(-0.559193 0.829037 -0.829037 -0.559193 216.647 182.226)" d="M1.7858428 0C2.7721364 0 3.5716856 0.79972374 3.5716856 1.7862329L3.5716856 5.3586988C3.5716856 6.3452082 2.7721364 7.1449318 1.7858428 7.1449318C0.79954904 7.1449318 0 6.3452082 0 5.3586988L0 1.7862329C0 0.79972374 0.79954904 0 1.7858428 0Z"/>
	<path fill="#0081FF" fill-opacity="0.15294118" transform="matrix(-0.642788 0.766044 -0.766044 -0.642788 209.508 192.052)" d="M1.7858428 0C2.7721364 0 3.5716856 0.79972374 3.5716856 1.7862329L3.5716856 5.3586988C3.5716856 6.3452082 2.7721364 7.1449318 1.7858428 7.1449318C0.79954904 7.1449318 0 6.3452082 0 5.3586988L0 1.7862329C0 0.79972374 0.79954904 0 1.7858428 0Z"/>
	<path fill="#0081FF" fill-opacity="0.15294118" transform="matrix(-0.71934 0.694658 -0.694658 -0.71934 201.396 201.09)" d="M1.7858428 0C2.7721364 0 3.5716856 0.79972374 3.5716856 1.7862329L3.5716856 5.3586988C3.5716856 6.3452082 2.7721364 7.1449318 1.7858428 7.1449318C0.79954904 7.1449318 0 6.3452082 0 5.3586988L0 1.7862329C0 0.79972374 0.79954904 0 1.7858428 0Z"/>
	<path fill="#0081FF" fill-opacity="0.15294118" transform="matrix(-0.788011 0.615661 -0.615661 -0.788011 192.398 209.247)" d="M1.7858428 0C2.7721364 0 3.5716856 0.79972374 3.5716856 1.7862329L3.5716856 5.3586988C3.5716856 6.3452082 2.7721364 7.1449318 1.7858428 7.1449318C0.79954904 7.1449318 0 6.3452082 0 5.3586988L0 1.7862329C0 0.79972374 0.79954904 0 1.7858428 0Z"/>
	<path fill="#0081FF" fill-opacity="0.15294118" transform="matrix(-0.848048 0.529919 -0.529919 -0.848048 182.608 216.434)" d="M1.7858428 0C2.7721364 0 3.5716856 0.79972374 3.5716856 1.7862329L3.5716856 5.3586988C3.5716856 6.3452082 2.7721364 7.1449318 1.7858428 7.1449318C0.79954904 7.1449318 0 6.3452082 0 5.3586988L0 1.7862329C0 0.79972374 0.79954904 0 1.7858428 0Z"/>
	<path fill="#0081FF" fill-opacity="0.15294118" transform="matrix(-0.891007 0.45399 -0.45399 -0.891007 172.172 222.52)" d="M1.7858428 0C2.7721364 0 3.5716856 0.79972374 3.5716856 1.7862329L3.5716856 5.3586988C3.5716856 6.3452082 2.7721364 7.1449318 1.7858428 7.1449318C0.79954904 7.1449318 0 6.3452082 0 5.3586988L0 1.7862329C0 0.79972374 0.79954904 0 1.7858428 0Z"/>
	<path fill="#0081FF" fill-opacity="0.15294118" transform="matrix(-0.93358 0.358368 -0.358368 -0.93358 161.124 227.557)" d="M1.7858428 0C2.7721364 0 3.5716856 0.79972374 3.5716856 1.7862329L3.5716856 5.3586988C3.5716856 6.3452082 2.7721364 7.1449318 1.7858428 7.1449318C0.79954904 7.1449318 0 6.3452082 0 5.3586988L0 1.7862329C0 0.79972374 0.79954904 0 1.7858428 0Z"/>
	<path fill="#0081FF" fill-opacity="0.15294118" transform="matrix(-0.965926 0.258819 -0.258819 -0.965926 149.616 231.429)" d="M1.7858428 0C2.7721364 0 3.5716856 0.79972374 3.5716856 1.7862329L3.5716856 5.3586988C3.5716856 6.3452082 2.7721364 7.1449318 1.7858428 7.1449318C0.79954904 7.1449318 0 6.3452082 0 5.3586988L0 1.7862329C0 0.79972374 0.79954904 0 1.7858428 0Z"/>
	<path fill="#0081FF" fill-opacity="0.15294118" transform="matrix(-0.987688 0.156434 -0.156434 -0.987688 137.771 234.098)" d="M1.7858428 0C2.7721364 0 3.5716856 0.79972374 3.5716856 1.7862329L3.5716856 5.3586988C3.5716856 6.3452082 2.7721364 7.1449318 1.7858428 7.1449318C0.79954904 7.1449318 0 6.3452082 0 5.3586988L0 1.7862329C0 0.79972374 0.79954904 0 1.7858428 0Z"/>
	<path fill="#0081FF" fill-opacity="0.15294118" transform="matrix(-0.99863 0.052336 -0.052336 -0.99863 125.713 235.533)" d="M1.7858428 0C2.7721364 0 3.5716856 0.79972374 3.5716856 1.7862329L3.5716856 5.3586988C3.5716856 6.3452082 2.7721364 7.1449318 1.7858428 7.1449318C0.79954904 7.1449318 0 6.3452082 0 5.3586988L0 1.7862329C0 0.79972374 0.79954904 0 1.7858428 0Z"/>
	<path fill="#0081FF" fill-opacity="0.15294118" transform="matrix(-0.99863 -0.0523362 0.0523362 -0.99863 113.572 235.72)" d="M1.7858428 0C2.7721364 0 3.5716856 0.79972374 3.5716856 1.7862329L3.5716856 5.3586988C3.5716856 6.3452082 2.7721364 7.1449318 1.7858428 7.1449318C0.79954904 7.1449318 0 6.3452082 0 5.3586988L0 1.7862329C0 0.79972374 0.79954904 0 1.7858428 0Z"/>
	<path fill="#0081FF" fill-opacity="0.15294118" transform="matrix(-0.987688 -0.156435 0.156435 -0.987688 101.475 234.656)" d="M1.7858428 0C2.7721364 0 3.5716856 0.79972374 3.5716856 1.7862329L3.5716856 5.3586988C3.5716856 6.3452082 2.7721364 7.1449318 1.7858428 7.1449318C0.79954904 7.1449318 0 6.3452082 0 5.3586988L0 1.7862329C0 0.79972374 0.79954904 0 1.7858428 0Z"/>
	<path fill="#0081FF" fill-opacity="0.15294118" transform="matrix(-0.965926 -0.258819 0.258819 -0.965926 89.5522 232.354)" d="M1.7858428 0C2.7721364 0 3.5716856 0.79972374 3.5716856 1.7862329L3.5716856 5.3586988C3.5716856 6.3452082 2.7721364 7.1449318 1.7858428 7.1449318C0.79954904 7.1449318 0 6.3452082 0 5.3586988L0 1.7862329C0 0.79972374 0.79954904 0 1.7858428 0Z"/>
	<path fill="#0081FF" fill-opacity="0.15294118" transform="matrix(-0.93358 -0.358368 0.358368 -0.93358 77.9287 228.837)" d="M1.7858428 0C2.7721364 0 3.5716856 0.79972374 3.5716856 1.7862329L3.5716856 5.3586988C3.5716856 6.3452082 2.7721364 7.1449318 1.7858428 7.1449318C0.79954904 7.1449318 0 6.3452082 0 5.3586988L0 1.7862329C0 0.79972374 0.79954904 0 1.7858428 0Z"/>
	<path fill="#0081FF" fill-opacity="0.15294118" transform="matrix(-0.891007 -0.453991 0.453991 -0.891007 66.7284 224.142)" d="M1.7858428 0C2.7721364 0 3.5716856 0.79972374 3.5716856 1.7862329L3.5716856 5.3586988C3.5716856 6.3452082 2.7721364 7.1449318 1.7858428 7.1449318C0.79954904 7.1449318 0 6.3452082 0 5.3586988L0 1.7862329C0 0.79972374 0.79954904 0 1.7858428 0Z"/>
	<path fill="#0081FF" fill-opacity="0.15294118" transform="matrix(-0.848048 -0.529919 0.529919 -0.848048 56.1394 218.327)" d="M1.7858428 0C2.7721364 0 3.5716856 0.79972374 3.5716856 1.7862329L3.5716856 5.3586988C3.5716856 6.3452082 2.7721364 7.1449318 1.7858428 7.1449318C0.79954904 7.1449318 0 6.3452082 0 5.3586988L0 1.7862329C0 0.79972374 0.79954904 0 1.7858428 0Z"/>
	<path fill="#0081FF" fill-opacity="0.15294118" transform="matrix(-0.788011 -0.615661 0.615661 -0.788011 46.1351 211.446)" d="M1.7858428 0C2.7721364 0 3.5716856 0.79972374 3.5716856 1.7862329L3.5716856 5.3586988C3.5716856 6.3452082 2.7721364 7.1449318 1.7858428 7.1449318C0.79954904 7.1449318 0 6.3452082 0 5.3586988L0 1.7862329C0 0.79972374 0.79954904 0 1.7858428 0Z"/>
	<path fill="#0081FF" fill-opacity="0.15294118" transform="matrix(-0.71934 -0.694659 0.694659 -0.71934 36.8914 203.571)" d="M1.7858428 0C2.7721364 0 3.5716856 0.79972374 3.5716856 1.7862329L3.5716856 5.3586988C3.5716856 6.3452082 2.7721364 7.1449318 1.7858428 7.1449318C0.79954904 7.1449318 0 6.3452082 0 5.3586988L0 1.7862329C0 0.79972374 0.79954904 0 1.7858428 0Z"/>
	<path fill="#0081FF" fill-opacity="0.15294118" transform="matrix(-0.642788 -0.766045 0.766045 -0.642788 28.5063 194.788)" d="M1.7858428 0C2.7721364 0 3.5716856 0.79972374 3.5716856 1.7862329L3.5716856 5.3586988C3.5716856 6.3452082 2.7721364 7.1449318 1.7858428 7.1449318C0.79954904 7.1449318 0 6.3452082 0 5.3586988L0 1.7862329C0 0.79972374 0.79954904 0 1.7858428 0Z"/>
	<path fill="#0081FF" fill-opacity="0.15294118" transform="matrix(-0.559193 -0.829038 0.829038 -0.559193 21.069 185.187)" d="M1.7858428 0C2.7721364 0 3.5716856 0.79972374 3.5716856 1.7862329L3.5716856 5.3586988C3.5716856 6.3452082 2.7721364 7.1449318 1.7858428 7.1449318C0.79954904 7.1449318 0 6.3452082 0 5.3586988L0 1.7862329C0 0.79972374 0.79954904 0 1.7858428 0Z"/>
	<path fill="#0081FF" fill-opacity="0.15294118" transform="matrix(-0.469472 -0.882948 0.882948 -0.469472 14.6584 174.872)" d="M1.7858428 0C2.7721364 0 3.5716856 0.79972374 3.5716856 1.7862329L3.5716856 5.3586988C3.5716856 6.3452082 2.7721364 7.1449318 1.7858428 7.1449318C0.79954904 7.1449318 0 6.3452082 0 5.3586988L0 1.7862329C0 0.79972374 0.79954904 0 1.7858428 0Z"/>
	<path fill="#0081FF" fill-opacity="0.15294118" transform="matrix(-0.374606 -0.927184 0.927184 -0.374606 9.34261 163.952)" d="M1.7858428 0C2.7721364 0 3.5716856 0.79972374 3.5716856 1.7862329L3.5716856 5.3586988C3.5716856 6.3452082 2.7721364 7.1449318 1.7858428 7.1449318C0.79954904 7.1449318 0 6.3452082 0 5.3586988L0 1.7862329C0 0.79972374 0.79954904 0 1.7858428 0Z"/>
	<path fill="#0081FF" fill-opacity="0.15294118" transform="matrix(-0.275637 -0.961262 0.961262 -0.275637 5.17803 152.543)" d="M1.7858428 0C2.7721364 0 3.5716856 0.79972374 3.5716856 1.7862329L3.5716856 5.3586988C3.5716856 6.3452082 2.7721364 7.1449318 1.7858428 7.1449318C0.79954904 7.1449318 0 6.3452082 0 5.3586988L0 1.7862329C0 0.79972374 0.79954904 0 1.7858428 0Z"/>
	<path fill="#0081FF" fill-opacity="0.15294118" transform="matrix(-0.173648 -0.984808 0.984808 -0.173648 2.20895 140.766)" d="M1.7858428 0C2.7721364 0 3.5716856 0.79972374 3.5716856 1.7862329L3.5716856 5.3586988C3.5716856 6.3452082 2.7721364 7.1449318 1.7858428 7.1449318C0.79954904 7.1449318 0 6.3452082 0 5.3586988L0 1.7862329C0 0.79972374 0.79954904 0 1.7858428 0Z"/>
	<path fill="#0081FF" fill-opacity="0.15294118" transform="matrix(-0.0697561 -0.997564 0.997564 -0.0697561 0.466923 128.745)" d="M1.7858428 0C2.7721364 0 3.5716856 0.79972374 3.5716856 1.7862329L3.5716856 5.3586988C3.5716856 6.3452082 2.7721364 7.1449318 1.7858428 7.1449318C0.79954904 7.1449318 0 6.3452082 0 5.3586988L0 1.7862329C0 0.79972374 0.79954904 0 1.7858428 0Z"/>
	<path fill="#0081FF" fill-opacity="0.15294118" transform="matrix(0.0174528 -0.999848 0.999848 0.0174528 3.74317e-05 116.671)" d="M1.7858428 0C2.7721364 0 3.5716856 0.79972374 3.5716856 1.7862329L3.5716856 5.3586988C3.5716856 6.3452082 2.7721364 7.1449318 1.7858428 7.1449318C0.79954904 7.1449318 0 6.3452082 0 5.3586988L0 1.7862329C0 0.79972374 0.79954904 0 1.7858428 0Z"/>
	<path fill="#0081FF" fill-opacity="0.15294118" transform="matrix(0.12187 -0.992546 0.992546 0.12187 0.747806 104.55)" d="M1.7858428 0C2.7721364 0 3.5716856 0.79972374 3.5716856 1.7862329L3.5716856 5.3586988C3.5716856 6.3452082 2.7721364 7.1449318 1.7858428 7.1449318C0.79954904 7.1449318 0 6.3452082 0 5.3586988L0 1.7862329C0 0.79972374 0.79954904 0 1.7858428 0Z"/>
	<path fill="#0081FF" fill-opacity="0.15294118" transform="matrix(0.224951 -0.97437 0.97437 0.224951 2.73832 92.5701)" d="M1.7858428 0C2.7721364 0 3.5716856 0.79972374 3.5716856 1.7862329L3.5716856 5.3586988C3.5716856 6.3452082 2.7721364 7.1449318 1.7858428 7.1449318C0.79954904 7.1449318 0 6.3452082 0 5.3586988L0 1.7862329C0 0.79972374 0.79954904 0 1.7858428 0Z"/>
	<path fill="#0081FF" fill-opacity="0.15294118" transform="matrix(0.325568 -0.945519 0.945519 0.325568 5.95053 80.8582)" d="M1.7858428 0C2.7721364 0 3.5716856 0.79972374 3.5716856 1.7862329L3.5716856 5.3586988C3.5716856 6.3452082 2.7721364 7.1449318 1.7858428 7.1449318C0.79954904 7.1449318 0 6.3452082 0 5.3586988L0 1.7862329C0 0.79972374 0.79954904 0 1.7858428 0Z"/>
	<path fill="#0081FF" fill-opacity="0.15294118" transform="matrix(0.422618 -0.906308 0.906308 0.422618 10.3504 69.5386)" d="M1.7858428 0C2.7721364 0 3.5716856 0.79972374 3.5716856 1.7862329L3.5716856 5.3586988C3.5716856 6.3452082 2.7721364 7.1449318 1.7858428 7.1449318C0.79954904 7.1449318 0 6.3452082 0 5.3586988L0 1.7862329C0 0.79972374 0.79954904 0 1.7858428 0Z"/>
	<path fill="#0081FF" fill-opacity="0.15294118" transform="matrix(0.515038 -0.857167 0.857167 0.515038 15.8913 58.7316)" d="M1.7858428 0C2.7721364 0 3.5716856 0.79972374 3.5716856 1.7862329L3.5716856 5.3586988C3.5716856 6.3452082 2.7721364 7.1449318 1.7858428 7.1449318C0.79954904 7.1449318 0 6.3452082 0 5.3586988L0 1.7862329C0 0.79972374 0.79954904 0 1.7858428 0Z"/>
	<path fill="#0081FF" fill-opacity="0.15294118" transform="matrix(0.601815 -0.798635 0.798635 0.601815 22.5146 48.5517)" d="M1.7858428 0C2.7721364 0 3.5716856 0.79972374 3.5716856 1.7862329L3.5716856 5.3586988C3.5716856 6.3452082 2.7721364 7.1449318 1.7858428 7.1449318C0.79954904 7.1449318 0 6.3452082 0 5.3586988L0 1.7862329C0 0.79972374 0.79954904 0 1.7858428 0Z"/>
	<path fill="#0081FF" fill-opacity="0.15294118" transform="matrix(0.681998 -0.731354 0.731354 0.681998 30.1498 39.1072)" d="M1.7858428 0C2.7721364 0 3.5716856 0.79972374 3.5716856 1.7862329L3.5716856 5.3586988C3.5716856 6.3452082 2.7721364 7.1449318 1.7858428 7.1449318C0.79954904 7.1449318 0 6.3452082 0 5.3586988L0 1.7862329C0 0.79972374 0.79954904 0 1.7858428 0Z"/>
	<path fill="#0081FF" fill-opacity="0.15294118" transform="matrix(0.75471 -0.656059 0.656059 0.75471 38.7162 30.4982)" d="M1.7858428 0C2.7721364 0 3.5716856 0.79972374 3.5716856 1.7862329L3.5716856 5.3586988C3.5716856 6.3452082 2.7721364 7.1449318 1.7858428 7.1449318C0.79954904 7.1449318 0 6.3452082 0 5.3586988L0 1.7862329C0 0.79972374 0.79954904 0 1.7858428 0Z"/>
	<path fill="#0081FF" fill-opacity="0.15294118" transform="matrix(0.819152 -0.573576 0.573576 0.819152 48.1229 22.8161)" d="M1.7858428 0C2.7721364 0 3.5716856 0.79972374 3.5716856 1.7862329L3.5716856 5.3586988C3.5716856 6.3452082 2.7721364 7.1449318 1.7858428 7.1449318C0.79954904 7.1449318 0 6.3452082 0 5.3586988L0 1.7862329C0 0.79972374 0.79954904 0 1.7858428 0Z"/>
	<path fill="#0081FF" fill-opacity="0.15294118" transform="matrix(0.866026 -0.5 0.5 0.866026 58.2311 16.2003)" d="M1.7858428 0C2.7721364 0 3.5716856 0.79972374 3.5716856 1.7862329L3.5716856 5.3586988C3.5716856 6.3452082 2.7721364 7.1449318 1.7858428 7.1449318C0.79954904 7.1449318 0 6.3452082 0 5.3586988L0 1.7862329C0 0.79972374 0.79954904 0 1.7858428 0Z"/>
	<path fill="#0081FF" fill-opacity="0.15294118" transform="matrix(0.913546 -0.406736 0.406736 0.913546 69.0052 10.6017)" d="M1.7858428 0C2.7721364 0 3.5716856 0.79972374 3.5716856 1.7862329L3.5716856 5.3586988C3.5716856 6.3452082 2.7721364 7.1449318 1.7858428 7.1449318C0.79954904 7.1449318 0 6.3452082 0 5.3586988L0 1.7862329C0 0.79972374 0.79954904 0 1.7858428 0Z"/>
	<path fill="#0081FF" fill-opacity="0.15294118" transform="matrix(0.951057 -0.309017 0.309017 0.951057 80.2983 6.14129)" d="M1.7858428 1.4344081e-13C2.7721364 1.4344081e-13 3.5716856 0.79972374 3.5716856 1.7862329L3.5716856 5.3586988C3.5716856 6.3452082 2.7721364 7.1449318 1.7858428 7.1449318C0.79954904 7.1449318 -5.1536553e-13 6.3452082 -5.1536553e-13 5.3586988L-5.1536553e-13 1.7862329C-5.1536553e-13 0.79972374 0.79954904 1.4344081e-13 1.7858428 1.4344081e-13Z"/>
	<path fill="#0081FF" fill-opacity="0.15294118" transform="matrix(0.978148 -0.207911 0.207911 0.978148 91.9905 2.86647)" d="M1.7858428 -3.415046e-13C2.7721364 -3.415046e-13 3.5716856 0.79972374 3.5716856 1.7862329L3.5716856 5.3586988C3.5716856 6.3452082 2.7721364 7.1449318 1.7858428 7.1449318C0.79954904 7.1449318 -3.126388e-13 6.3452082 -3.126388e-13 5.3586988L-3.126388e-13 1.7862329C-3.126388e-13 0.79972374 0.79954904 -3.415046e-13 1.7858428 -3.415046e-13Z"/>
	<path fill="#0081FF" fill-opacity="0.15294118" transform="matrix(0.994522 -0.104529 0.104529 0.994522 103.958 0.812063)" d="M1.7858428 0C2.7721364 0 3.5716856 0.79972374 3.5716856 1.7862329L3.5716856 5.3586988C3.5716856 6.3452082 2.7721364 7.1449318 1.7858428 7.1449318C0.79954904 7.1449318 0 6.3452082 0 5.3586988L0 1.7862329C0 0.79972374 0.79954904 0 1.7858428 0Z"/>
</svg>
