<?xml version="1.0" standalone="no"?><!DOCTYPE svg PUBLIC "-//W3C//DTD SVG 1.1//EN" "http://www.w3.org/Graphics/SVG/1.1/DTD/svg11.dtd"><svg t="1606724899026" class="icon" viewBox="0 0 1024 1024" version="1.1" xmlns="http://www.w3.org/2000/svg" p-id="3934" xmlns:xlink="http://www.w3.org/1999/xlink" width="32" height="32"><defs><style type="text/css"></style></defs><path d="M762.88 976.512H258.56c-114.56 0-207.36-92.8-207.36-207.36V264.704c0-114.56 92.8-207.36 207.36-207.36h504.32c114.56 0 207.36 92.8 207.36 207.36v504.448c0 114.56-92.8 207.36-207.36 207.36z" fill="#0079F5" p-id="3935"></path><path d="M671.488 385.024L512.896 228.736c-12.672-12.544-34.176-3.456-34.176 14.336V439.168l-100.096-93.952c-1.408-1.408-3.712-1.28-5.12 0.128l-28.544 30.336c-1.408 1.408-1.28 3.712 0.128 5.12l133.632 125.44v18.816l-133.504 124.16c-1.408 1.408-1.536 3.712-0.128 5.12l28.416 30.464c1.408 1.408 3.712 1.536 5.12 0.128l100.224-93.184v198.912c0 17.792 21.504 26.88 34.176 14.336L671.488 648.96c7.936-7.808 7.936-20.736 0-28.672L581.12 531.328c-7.936-7.808-7.936-20.736 0-28.672l90.368-89.088c8.064-7.808 8.064-20.736 0-28.544z m-143.872-73.088l87.552 86.272-87.04 80.896-0.512-0.512V311.936z m0 243.328l1.664-1.536 86.656 81.28-88.192 86.912V555.264z" fill="#FFFFFF" p-id="3936"></path></svg>