<?xml version="1.0" standalone="no"?><!DOCTYPE svg PUBLIC "-//W3C//DTD SVG 1.1//EN" "http://www.w3.org/Graphics/SVG/1.1/DTD/svg11.dtd"><svg t="1606715299921" class="icon" viewBox="0 0 1024 1024" version="1.1" xmlns="http://www.w3.org/2000/svg" p-id="4066" xmlns:xlink="http://www.w3.org/1999/xlink" width="32" height="32"><defs><style type="text/css"></style></defs><path d="M769.7 225.1c-18.1-23.1-39-43.6-62.5-61.1-54.9-41-123-65.3-196.6-65.3-19.9 0-39.2 1.8-58.1 5.2-39.8 7-77.4 21.5-110.8 41.6-95.9 57.5-160 162.6-160 282.2-0.2 135.9 184.3 375.1 277 486.7 27 32.5 76.7 32.5 103.7 0 92.7-111.6 277.2-350.7 277.2-486.7 0-76.3-26.1-146.7-69.9-202.6z" fill="#3378FE" p-id="4067"></path><path d="M510.7 557c60.5 0 109.8-49 109.8-109.8 0-60.5-49-109.8-109.8-109.8-60.5 0-109.8 49-109.8 109.8S450.2 557 510.7 557z" fill="#FEFEFF" p-id="4068"></path></svg>