<?xml version="1.0" standalone="no"?><!DOCTYPE svg PUBLIC "-//W3C//DTD SVG 1.1//EN" "http://www.w3.org/Graphics/SVG/1.1/DTD/svg11.dtd"><svg t="1606724927675" class="icon" viewBox="0 0 1024 1024" version="1.1" xmlns="http://www.w3.org/2000/svg" p-id="7203" xmlns:xlink="http://www.w3.org/1999/xlink" width="32" height="32"><defs><style type="text/css"></style></defs><path d="M512 512m-512 0a512 512 0 1 0 1024 0 512 512 0 1 0-1024 0Z" fill="#E94544" p-id="7204"></path><path d="M512 166.4c-91.9 0-166.4 74.5-166.4 166.4V512c0 91.9 74.5 166.4 166.4 166.4S678.4 603.9 678.4 512V332.8c0-91.9-74.5-166.4-166.4-166.4z m0 38.4c70.692 0 128 57.308 128 128V512c0 70.692-57.308 128-128 128-70.692 0-128-57.308-128-128V332.8c0-70.692 57.308-128 128-128z" fill="#FFFFFF" p-id="7205"></path><path d="M384 204.8m128 0l0 0q128 0 128 128l0 179.2q0 128-128 128l0 0q-128 0-128-128l0-179.2q0-128 128-128Z" fill="#FDD3D3" p-id="7206"></path><path d="M414.916 365.777c10.604 0 19.2 8.596 19.2 19.2 0 10.49-8.412 19.015-18.858 19.197l-0.342 0.003H265.95c-10.604 0-19.2-8.596-19.2-19.2 0-10.49 8.412-19.015 18.858-19.197l0.342-0.003h148.966zM414.916 467.2c10.604 0 19.2 8.596 19.2 19.2 0 10.49-8.412 19.015-18.858 19.197l-0.342 0.003H265.95c-10.604 0-19.2-8.596-19.2-19.2 0-10.49 8.412-19.015 18.858-19.197l0.342-0.003h148.966zM763.367 365.777c10.604 0 19.2 8.596 19.2 19.2 0 10.49-8.412 19.015-18.859 19.197l-0.341 0.003H614.4c-10.604 0-19.2-8.596-19.2-19.2 0-10.49 8.412-19.015 18.859-19.197l0.341-0.003h148.967zM763.367 467.2c10.604 0 19.2 8.596 19.2 19.2 0 10.49-8.412 19.015-18.859 19.197l-0.341 0.003H614.4c-10.604 0-19.2-8.596-19.2-19.2 0-10.49 8.412-19.015 18.859-19.197l0.341-0.003h148.967z" fill="#E94544" p-id="7207"></path><path d="M512 774.4c10.49 0 19.015 8.412 19.197 18.859l0.003 0.341V896c0 10.604-8.596 19.2-19.2 19.2-10.49 0-19.015-8.412-19.197-18.859L492.8 896V793.6c0-10.604 8.596-19.2 19.2-19.2z" fill="#FDD3D3" p-id="7208"></path><path d="M725.785 630.378c5.314-9.176 17.06-12.307 26.237-6.993 9.176 5.314 12.307 17.06 6.993 26.237C703.933 744.738 612.365 803.2 511.954 803.2c-100.35 0-191.87-58.39-246.964-153.41-5.319-9.173-2.194-20.921 6.98-26.24 9.07-5.26 20.657-2.263 26.058 6.672l0.182 0.307C346.74 714.226 426.009 764.8 511.954 764.8c85.998 0 165.312-50.638 213.83-134.422z" fill="#FFFFFF" p-id="7209"></path></svg>