<?xml version="1.0" standalone="no"?><!DOCTYPE svg PUBLIC "-//W3C//DTD SVG 1.1//EN" "http://www.w3.org/Graphics/SVG/1.1/DTD/svg11.dtd"><svg t="1606725429246" class="icon" viewBox="0 0 1024 1024" version="1.1" xmlns="http://www.w3.org/2000/svg" p-id="4579" xmlns:xlink="http://www.w3.org/1999/xlink" width="32" height="32"><defs><style type="text/css"></style></defs><path d="M752.512 948.736H257.536c-112.384 0-203.52-91.136-203.52-203.52V250.24c0-112.384 91.136-203.52 203.52-203.52h494.976c112.384 0 203.52 91.136 203.52 203.52v494.976c0 112.384-91.136 203.52-203.52 203.52z" fill="#ffffff" p-id="4580"></path><path d="M516.352 471.68c-3.968-4.992-7.552-10.24-10.624-15.744-3.2 5.376-7.04 10.496-11.136 15.488 4.224 0.512 8.32 1.28 12.544 1.28 3.072-0.128 6.144-0.768 9.216-1.024z" fill="#FFA943" p-id="4581"></path><path d="M488.704 319.744c7.68 7.68 13.568 16.512 18.56 25.6 4.736-8.064 10.112-15.744 17.024-22.656l81.792-81.792c3.712-3.712 7.808-6.656 11.776-9.728-6.656-55.552-53.504-98.816-110.848-98.816-56.832 0-103.168 42.24-110.72 97.024 3.456 2.816 7.168 5.248 10.368 8.576l82.048 81.792z" fill="#FF9A44" p-id="4582"></path><path d="M488.704 478.464c2.176-2.176 3.84-4.736 5.888-7.168-6.4-0.768-12.672-1.92-18.688-3.712 1.536 6.144 2.56 12.416 3.072 18.816 3.2-2.56 6.656-4.864 9.728-7.936zM367.616 383.36c10.88 0 21.248 2.048 31.232 4.992-2.304-8.96-3.968-18.304-3.968-28.032v-115.712c0-5.248 0.896-10.24 1.536-15.232-44.032-34.56-107.648-32.128-148.224 8.576-40.192 40.192-43.008 102.912-9.728 146.816 4.48-0.512 8.832-1.408 13.44-1.408h115.712z" fill="#FF7769" p-id="4583"></path><path d="M394.88 360.32c0 9.728 1.664 19.072 3.968 28.032 37.76 11.008 67.2 40.96 77.056 79.232 6.016 1.792 12.288 2.944 18.688 3.712 4.224-4.992 7.936-9.984 11.136-15.488-18.944-34.432-18.432-76.416 1.536-110.464-4.992-9.088-10.88-17.92-18.56-25.6l-81.792-81.792c-3.2-3.2-6.912-5.76-10.368-8.576-0.64 4.992-1.536 9.984-1.536 15.232v115.712z" fill="#FF5F1F" p-id="4584"></path><path d="M478.976 486.4c-4.992 3.968-10.24 7.552-15.744 10.624 5.376 3.2 10.496 7.04 15.488 11.136 0.512-4.224 1.28-8.32 1.28-12.544-0.128-3.2-0.896-6.144-1.024-9.216zM327.04 514.048c7.68-7.68 16.512-13.568 25.6-18.56-8.064-4.736-15.744-10.112-22.656-17.024l-81.792-81.792c-3.712-3.712-6.656-7.808-9.728-11.776-55.552 6.656-98.816 53.504-98.816 110.848 0 56.832 42.24 103.168 97.024 110.72 2.816-3.456 5.248-7.168 8.448-10.368l81.92-82.048z" fill="#D684A9" p-id="4585"></path><path d="M329.984 478.464c6.912 6.912 14.592 12.288 22.656 17.024 34.432-18.944 76.416-18.432 110.464 1.536 5.504-3.072 10.752-6.528 15.744-10.624-0.512-6.4-1.408-12.8-3.072-18.816-37.76-11.008-67.2-40.96-77.056-79.232-9.984-2.944-20.352-4.992-31.232-4.992h-115.712c-4.608 0-8.96 0.768-13.44 1.408 3.072 4.096 6.016 8.192 9.728 11.776l81.92 81.92z" fill="#DC2F1B" p-id="4586"></path><path d="M398.848 388.352c9.856 38.272 39.296 68.224 77.056 79.232-9.856-38.272-39.296-68.224-77.056-79.232z" fill="#B1190A" p-id="4587"></path><path d="M478.592 508.16c-0.768 6.4-1.92 12.672-3.712 18.688 6.144-1.536 12.416-2.56 18.816-3.072-2.56-3.328-4.992-6.784-7.936-9.728-2.304-2.176-4.864-3.84-7.168-5.888zM390.656 635.136c0-10.88 2.048-21.248 4.992-31.232-8.96 2.304-18.304 3.968-28.032 3.968h-115.712c-5.248 0-10.24-0.896-15.232-1.536-34.56 44.032-32.128 107.648 8.448 148.224 40.192 40.192 102.912 43.008 146.816 9.728-0.512-4.48-1.408-8.832-1.408-13.44v-115.712z" fill="#A48ABC" p-id="4588"></path><path d="M367.616 607.872c9.728 0 19.072-1.664 28.032-3.968 11.008-37.76 40.96-67.2 79.232-77.056 1.792-6.016 2.944-12.288 3.712-18.688-4.992-4.224-9.984-7.936-15.488-11.136-34.432 18.944-76.416 18.432-110.464-1.536-9.088 4.992-17.92 10.88-25.6 18.56l-81.792 81.792c-3.2 3.2-5.76 6.912-8.448 10.368 4.992 0.64 9.984 1.536 15.232 1.536h115.584z" fill="#A54569" p-id="4589"></path><path d="M352.64 495.488c34.048 20.096 76.032 20.48 110.464 1.536-34.048-20.096-76.032-20.48-110.464-1.536z" fill="#881309" p-id="4590"></path><path d="M493.696 523.776c3.968 4.992 7.552 10.24 10.624 15.744 3.2-5.376 7.04-10.496 11.136-15.488-4.224-0.512-8.32-1.28-12.544-1.28-3.2 0.128-6.144 0.768-9.216 1.024z" fill="#55A3D5" p-id="4591"></path><path d="M521.344 675.712c-7.68-7.68-13.568-16.512-18.56-25.6-4.736 8.064-10.112 15.744-17.024 22.656l-81.792 81.792c-3.712 3.712-7.808 6.656-11.776 9.728 6.656 55.552 53.504 98.816 110.848 98.816 56.832 0 103.168-42.24 110.72-97.024-3.456-2.816-7.168-5.248-10.368-8.448l-82.048-81.92z" fill="#5C9FD2" p-id="4592"></path><path d="M485.76 672.768c6.912-6.912 12.288-14.592 17.024-22.656-18.944-34.432-18.432-76.416 1.536-110.464-3.072-5.504-6.528-10.752-10.624-15.744-6.4 0.512-12.8 1.408-18.816 3.072-11.008 37.76-40.96 67.2-79.232 77.056-2.944 9.984-4.992 20.352-4.992 31.232v115.712c0 4.608 0.768 8.96 1.408 13.44 4.096-3.072 8.192-6.016 11.776-9.728l81.92-81.92z" fill="#5D5092" p-id="4593"></path><path d="M395.648 603.904c38.272-9.856 68.224-39.296 79.232-77.056-38.272 9.856-68.224 39.296-79.232 77.056z" fill="#4C0C2C" p-id="4594"></path><path d="M515.456 524.16c6.4 0.768 12.672 1.92 18.688 3.712-1.536-6.144-2.56-12.416-3.072-18.816-3.328 2.56-6.784 4.992-9.728 7.936-2.304 2.176-3.84 4.864-5.888 7.168zM642.432 612.096c-10.88 0-21.248-2.048-31.232-4.992 2.304 8.96 3.968 18.304 3.968 28.032v115.712c0 5.248-0.896 10.24-1.536 15.232 44.032 34.56 107.648 32.128 148.224-8.448 40.192-40.192 43.008-102.912 9.728-146.816-4.48 0.512-8.832 1.408-13.44 1.408h-115.712z" fill="#57BA98" p-id="4595"></path><path d="M615.168 635.136c0-9.728-1.664-19.072-3.968-28.032-37.76-11.008-67.2-40.96-77.056-79.232-6.016-1.792-12.288-2.944-18.688-3.712-4.224 4.992-7.936 9.984-11.136 15.488 18.944 34.432 18.432 76.416-1.536 110.464 4.992 9.088 10.88 17.92 18.56 25.6l81.792 81.792c3.2 3.2 6.912 5.76 10.368 8.448 0.64-4.992 1.536-9.984 1.536-15.232v-115.584z" fill="#236996" p-id="4596"></path><path d="M502.784 650.112c20.096-34.048 20.48-76.032 1.536-110.464-20.096 34.048-20.48 76.032-1.536 110.464z" fill="#1B175B" p-id="4597"></path><path d="M870.4 499.84c0-56.832-42.24-103.168-97.024-110.72-2.816 3.456-5.248 7.168-8.576 10.368L683.008 481.28c-7.68 7.68-16.512 13.568-25.6 18.56 8.064 4.736 15.744 10.112 22.656 17.024l81.792 81.792c3.712 3.712 6.656 7.808 9.728 11.776 55.552-6.4 98.816-53.248 98.816-110.592zM530.176 499.84c0 3.2 0.64 6.144 0.896 9.216 4.992-3.968 10.24-7.552 15.744-10.624-5.376-3.2-10.496-7.04-15.488-11.136-0.384 4.096-1.152 8.192-1.152 12.544z" fill="#ABCF61" p-id="4598"></path><path d="M680.064 516.992c-6.912-6.912-14.592-12.288-22.656-17.024-34.432 18.944-76.416 18.432-110.464-1.536-5.504 3.072-10.752 6.528-15.744 10.624 0.512 6.4 1.408 12.8 3.072 18.816 37.76 11.008 67.2 40.96 77.056 79.232 9.984 2.944 20.352 4.992 31.232 4.992h115.712c4.608 0 8.96-0.768 13.44-1.408-3.072-4.096-6.016-8.192-9.728-11.776l-81.92-81.92z" fill="#209151" p-id="4599"></path><path d="M611.2 607.104c-9.856-38.272-39.296-68.224-77.056-79.232 9.856 38.144 39.296 68.224 77.056 79.232z" fill="#003720" p-id="4600"></path><path d="M619.264 360.32c0 10.88-2.048 21.248-4.992 31.232 8.96-2.304 18.304-3.968 28.032-3.968h115.712c5.248 0 10.24 0.896 15.232 1.536 34.56-44.032 32.128-107.648-8.576-148.224-40.192-40.192-102.912-43.008-146.816-9.728 0.512 4.48 1.408 8.832 1.408 13.44v115.712zM531.456 487.296c0.768-6.4 1.92-12.672 3.712-18.688-6.144 1.536-12.416 2.56-18.816 3.072 2.56 3.328 4.992 6.784 7.936 9.728 2.176 2.176 4.736 3.84 7.168 5.888z" fill="#F2DF44" p-id="4601"></path><path d="M524.288 322.688c-6.912 6.912-12.288 14.592-17.024 22.656 18.944 34.432 18.432 76.416-1.536 110.464 3.072 5.504 6.528 10.752 10.624 15.744 6.4-0.512 12.8-1.408 18.816-3.072 11.008-37.76 40.96-67.2 79.232-77.056 2.944-9.984 4.992-20.352 4.992-31.232V244.48c0-4.608-0.768-8.96-1.408-13.44-4.096 3.072-8.192 6.016-11.776 9.728l-81.92 81.92z" fill="#D5B32C" p-id="4602"></path><path d="M507.264 345.344c-20.096 34.048-20.48 76.032-1.536 110.464 19.968-34.048 20.48-76.032 1.536-110.464z" fill="#AB520E" p-id="4603"></path><path d="M642.432 387.584c-9.728 0-19.072 1.664-28.032 3.968-11.008 37.76-40.96 67.2-79.232 77.056-1.792 6.016-2.944 12.288-3.712 18.688 4.992 4.224 9.984 7.936 15.488 11.136 34.432-18.944 76.416-18.432 110.464 1.536 9.088-4.992 17.92-10.88 25.6-18.56l81.792-81.792c3.2-3.2 5.76-6.912 8.576-10.368-4.992-0.64-9.984-1.536-15.232-1.536h-115.712z" fill="#81B028" p-id="4604"></path><path d="M614.4 391.552c-38.272 9.856-68.224 39.296-79.232 77.056 38.144-9.856 68.224-39.296 79.232-77.056z" fill="#51800F" p-id="4605"></path><path d="M546.944 498.432c34.048 20.096 76.032 20.48 110.464 1.536-34.048-19.968-76.032-20.48-110.464-1.536z" fill="#005007" p-id="4606"></path></svg>