<?xml version="1.0" standalone="no"?><!DOCTYPE svg PUBLIC "-//W3C//DTD SVG 1.1//EN" "http://www.w3.org/Graphics/SVG/1.1/DTD/svg11.dtd"><svg t="1606712332553" class="icon" viewBox="0 0 1024 1024" version="1.1" xmlns="http://www.w3.org/2000/svg" p-id="3128" width="32" height="32" xmlns:xlink="http://www.w3.org/1999/xlink"><defs><style type="text/css"></style></defs><path d="M767.36 953.088H273.792c-112 0-202.88-90.88-202.88-202.88V256.64C70.912 144.64 161.664 53.76 273.792 53.76h493.568C879.36 53.76 970.24 144.64 970.24 256.64v493.568c0 112.128-90.88 202.88-202.88 202.88z" fill="#0079F5" p-id="3129"></path><path d="M669.568 503.168l-34.56 45.184c-5.76 7.424-17.408 7.168-22.656-0.64l-3.2-4.736c-6.784-9.984-10.496-21.76-10.496-33.792V260.48c0-14.08-11.776-25.6-26.368-25.6s-26.368 11.392-26.368 25.6v214.144c0 9.856-8.32 17.92-18.432 17.92h-3.712c-10.24 0-18.432-8.064-18.432-17.92V226.816c0-14.08-11.776-25.6-26.368-25.6s-26.368 11.392-26.368 25.6v247.68c0 9.856-8.32 17.92-18.432 17.92-10.24 0-18.432-8.064-18.432-17.92v-227.84c0-14.08-11.776-25.6-26.368-25.6s-26.368 11.392-26.368 25.6v255.36c0 9.856-8.32 17.92-18.432 17.92H343.04c-10.24 0-18.432-8.064-18.432-17.92V342.272c0-11.648-9.728-21.248-21.888-21.248-12.032 0-21.888 9.472-21.888 21.248V624.64c0 94.592 79.616 178.176 177.152 180.864 92.032 2.432 163.2-51.456 195.456-123.52l62.592-128.384c6.912-14.336 15.36-27.776 25.216-40.448l17.536-22.528c3.328-4.224 1.792-10.88-3.328-12.672-30.976-10.624-65.92-0.768-85.888 25.216z" fill="#FFFFFF" p-id="3130"></path></svg>