<?xml version="1.0" encoding="UTF-8"?>
<!DOCTYPE svg PUBLIC "-//W3C//DTD SVG 1.1//EN" "http://www.w3.org/Graphics/SVG/1.1/DTD/svg11.dtd">
<svg version="1.1" xmlns="http://www.w3.org/2000/svg" xmlns:xlink="http://www.w3.org/1999/xlink" x="0px" y="0px" width="16" height="16" viewBox="0, 0, 16, 16">
  <g id="Calque 1">
    <path d="M24,-5 L29,-5 L29,0 L24,0 z" fill="#000000"/>
    <text transform="matrix(1, 0, 0, 1, 37, -2.374)">
      <tspan x="-7" y="0.44" font-family=".LucidaGrandeUI" font-size="2" fill="#000000">Opacity : 50%</tspan>
    </text>
    <g>
      <path d="M24,3 L29,3 L29,8 L24,8 z" fill="#FFFFFF"/>
      <path d="M24,3 L29,3 L29,8 L24,8 z" fill-opacity="0" stroke="#000000" stroke-width="0.1"/>
    </g>
    <text transform="matrix(1, 0, 0, 1, 37, 5.626)">
      <tspan x="-7" y="0.44" font-family=".LucidaGrandeUI" font-size="2" fill="#000000">Opacity : 30%</tspan>
    </text>
    <g>
      <path d="M24,11 L29,11 L29,16 L24,16 z" fill="#FFFFFF"/>
      <path d="M24,11 L29,11 L29,16 L24,16 z" fill-opacity="0" stroke="#000000" stroke-width="0.1"/>
    </g>
    <g>
      <text transform="matrix(1, 0, 0, 1, 34, 12.626)">
        <tspan x="-4" y="0.44" font-family=".LucidaGrandeUI" font-size="2" fill="#000000">Glow : 6</tspan>
      </text>
      <text transform="matrix(1, 0, 0, 1, 37, 15.126)">
        <tspan x="-7" y="0.44" font-family=".LucidaGrandeUI" font-size="2" fill="#000000">Opacity : 50%</tspan>
      </text>
    </g>
    <path d="M-20,-0 L-4,-0 L-4,16 L-20,16 z" fill="#FF00FF"/>
    <path d="M6.202,-12.889 C6.18,-12.88 6.16,-12.87 6.139,-12.858 L4.171,-10.889 C4.07,-10.79 4.014,-10.655 4.014,-10.514 L4.014,-8.983 L1.202,-6.202 C0.933,-5.933 0.933,-5.471 1.202,-5.202 C1.471,-4.933 1.933,-4.933 2.202,-5.202 L4.983,-8.014 L6.514,-8.014 C6.655,-8.014 6.79,-8.071 6.889,-8.171 L8.858,-10.139 C8.869,-10.149 8.879,-10.16 8.889,-10.171 C8.89,-10.181 8.89,-10.192 8.889,-10.202 L6.202,-12.889 z" fill="#000000" opacity="0.3"/>
    <path d="M5.905,-10.872 L1.202,-6.19 C0.933,-5.921 0.933,-5.471 1.202,-5.202 C1.471,-4.933 1.921,-4.933 2.19,-5.202 L6.979,-9.991 C6.594,-10.254 6.244,-10.554 5.905,-10.872 z" fill="#FF0000" opacity="0.2"/>
    <path d="M6.188,-12.875 C6.166,-12.866 6.145,-12.856 6.125,-12.844 L4.156,-10.875 C4.056,-10.776 4,-10.641 4,-10.5 L4,-8.531 C3.999,-8.39 4.054,-8.254 4.154,-8.155 C4.254,-8.055 4.39,-7.999 4.531,-8 L6.5,-8 C6.641,-8 6.776,-8.056 6.875,-8.156 L8.844,-10.125 C8.855,-10.135 8.865,-10.145 8.875,-10.156 C8.875,-10.167 8.875,-10.177 8.875,-10.188 L6.188,-12.875 z" fill="#FF0000" opacity="0.2"/>
    <path d="M9.785,-11.097 C9.807,-11.106 9.828,-11.117 9.848,-11.129 L11.816,-13.097 C11.917,-13.197 11.973,-13.332 11.973,-13.472 L11.973,-15.004 L14.785,-17.785 C15.054,-18.054 15.054,-18.516 14.785,-18.785 C14.516,-19.054 14.054,-19.054 13.785,-18.785 L11.004,-15.972 L9.473,-15.972 C9.332,-15.972 9.197,-15.916 9.098,-15.816 L7.129,-13.847 C7.118,-13.837 7.108,-13.827 7.098,-13.816 C7.097,-13.806 7.097,-13.795 7.098,-13.785 L9.785,-11.097 z" fill="#000000" opacity="0.3"/>
    <path d="M5.729,19.143 L0.236,24.61 C-0.079,24.925 -0.079,25.45 0.236,25.764 C0.55,26.079 1.075,26.079 1.39,25.764 L6.983,20.171 C6.533,19.865 6.125,19.514 5.729,19.143 z" fill="#FF0000" opacity="0.2"/>
    <path d="M5.615,17.513 C5.511,17.543 5.417,17.601 5.344,17.682 L3.17,19.85 C3.062,19.958 3.001,20.104 3,20.256 L3,22.424 C3.002,22.742 3.259,22.998 3.577,23 L5.751,23 C5.904,22.999 6.051,22.938 6.159,22.831 L8.333,20.663 C8.556,20.437 8.556,20.075 8.333,19.85 L6.159,17.682 C6.02,17.535 5.814,17.471 5.615,17.513 z" fill="#FF0000" opacity="0.2"/>
    <path d="M5.844,7 C5.735,7.036 5.637,7.101 5.562,7.188 L3.188,9.562 C3.07,9.678 3.003,9.835 3,10 L3,11.875 L0.25,14.625 C-0.064,14.939 -0.064,15.436 0.25,15.75 C0.564,16.064 1.061,16.064 1.375,15.75 L4.125,13 L6,13 C6.165,12.997 6.322,12.929 6.438,12.812 L8.812,10.438 C9.048,10.193 9.048,9.807 8.812,9.562 L6.438,7.188 C6.286,7.026 6.061,6.954 5.844,7 z" fill="#000000" opacity="0.3"/>
    <path d="M10.16,8.972 C10.269,8.936 10.366,8.872 10.441,8.785 L12.816,6.41 C12.933,6.294 13,6.137 13.003,5.972 L13.003,4.097 L15.753,1.347 C16.068,1.033 16.068,0.537 15.753,0.222 C15.439,-0.092 14.943,-0.092 14.628,0.222 L11.878,2.972 L10.003,2.972 C9.839,2.976 9.682,3.043 9.566,3.16 L7.191,5.535 C6.955,5.779 6.955,6.165 7.191,6.41 L9.566,8.785 C9.717,8.947 9.942,9.018 10.16,8.972 z" fill="#000000" opacity="0.3"/>
  </g>
  <defs/>
</svg>
