<?xml version="1.0" encoding="utf-8"?>
<!-- Generator: Adobe Illustrator 17.0.2, SVG Export Plug-In . SVG Version: 6.00 Build 0)  -->
<!DOCTYPE svg PUBLIC "-//W3C//DTD SVG 1.1//EN" "http://www.w3.org/Graphics/SVG/1.1/DTD/svg11.dtd">
<svg version="1.1" id="图层_1" xmlns="http://www.w3.org/2000/svg" xmlns:xlink="http://www.w3.org/1999/xlink" x="0px" y="0px"
	 width="16px" height="16px" viewBox="0 0 16 16" enable-background="new 0 0 16 16" xml:space="preserve">
<g>
	<path opacity="0.2" fill="#A0A0A0" d="M11.983,8h2.012c-0.001-1-0.278-2.086-0.803-2.998L11.45,6.008
		C11.799,6.616,11.983,7,11.983,8z"/>
	<path fill="#8C8C8C" d="M11.45,6.008l1.742-1.006C12.693,4.136,11.866,3.304,11,2.804l-1,1.732
		C10.866,5.036,10.95,5.142,11.45,6.008z"/>
	<path opacity="0.2" fill="#A0A0A0" d="M10,4.536l1-1.732c-0.947-0.547-2-0.8-3-0.799v2.012C9,4.016,9.369,4.171,10,4.536z"/>
	<path fill="#646464" d="M11.464,10l1.732,1c0.5-0.866,0.8-2,0.799-3h-2.012C11.984,9,11.964,9.134,11.464,10z"/>
	<path opacity="0.2" fill="#A0A0A0" d="M4.536,6C4.9,5.369,5.419,4.89,6.008,4.55L5.002,2.808C4.119,3.317,3.35,4.053,2.804,5
		L4.536,6z"/>
	<path fill="#B4B4B4" d="M8,4.017l0-2.012C7,2.006,5.869,2.309,5.002,2.808L6.008,4.55C6.875,4.051,7,4.017,8,4.017z"/>
	<path opacity="0.2" fill="#A0A0A0" d="M9.992,11.45l1.006,1.742c0.867-0.499,1.698-1.326,2.198-2.192l-1.732-1
		C10.964,10.866,10.858,10.95,9.992,11.45z"/>
	<path opacity="0.2" fill="#A0A0A0" d="M4.017,8H2.005c0.001,1,0.304,2.131,0.803,2.998L4.55,9.992C4.051,9.125,4.017,9,4.017,8z"/>
	<path fill="#DCDCDC" d="M4.536,6L2.804,5c-0.547,0.947-0.8,2-0.799,3h2.012C4.016,7,4.171,6.631,4.536,6z"/>
	<path fill="#F0F0F0" d="M4.55,9.992l-1.742,1.006C3.307,11.864,4.053,12.65,5,13.196l1-1.732C5.369,11.1,5.05,10.858,4.55,9.992z"
		/>
	<path opacity="0.2" fill="#A0A0A0" d="M6,11.464l-1,1.732c0.947,0.547,2,0.8,3,0.799v-2.012C7,11.984,6.631,11.829,6,11.464z"/>
	<path fill="#3C3C3C" d="M8,11.983v2.012c1-0.001,2.086-0.278,2.998-0.803L9.992,11.45C9.384,11.799,9,11.983,8,11.983z"/>
</g>
</svg>
