<?xml version="1.0" encoding="utf-8"?>
<!-- Generator: Adobe Illustrator 17.0.2, SVG Export Plug-In . SVG Version: 6.00 Build 0)  -->
<!DOCTYPE svg PUBLIC "-//W3C//DTD SVG 1.1//EN" "http://www.w3.org/Graphics/SVG/1.1/DTD/svg11.dtd">
<svg version="1.1" id="图层_1" xmlns="http://www.w3.org/2000/svg" xmlns:xlink="http://www.w3.org/1999/xlink" x="0px" y="0px"
	 width="16px" height="16px" viewBox="0 0 16 16" enable-background="new 0 0 16 16" xml:space="preserve">
<g>
	<path opacity="0.2" fill="#A0A0A0" d="M4.55,6.008L2.808,5.002C2.283,5.914,2.006,6.948,2.005,8l2.012,0
		C4.017,7.299,4.201,6.616,4.55,6.008z"/>
	<path fill="#8C8C8C" d="M4.017,8H2.005c-0.001,1,0.253,2.053,0.799,3l1.732-1C4.171,9.369,4.016,9,4.017,8z"/>
	<path opacity="0.2" fill="#A0A0A0" d="M4.536,10l-1.732,1c0.547,0.947,1.315,1.683,2.198,2.192l1.006-1.742
		C5.419,11.11,4.9,10.631,4.536,10z"/>
	<path fill="#646464" d="M6,4.536L5,2.804C4.053,3.35,3.307,4.136,2.808,5.002L4.55,6.008C5.05,5.142,5.369,4.9,6,4.536z"/>
	<path opacity="0.2" fill="#A0A0A0" d="M10,11.464c-0.631,0.364-1.32,0.52-2,0.519l0,2.012c1.02,0.001,2.053-0.253,3-0.799
		L10,11.464z"/>
	<path fill="#B4B4B4" d="M6.008,11.45l-1.006,1.742C5.869,13.691,7,13.994,8,13.995v-2.012C7,11.983,6.875,11.949,6.008,11.45z"/>
	<path opacity="0.2" fill="#A0A0A0" d="M8,4.017V2.005C7,2.004,5.947,2.257,5,2.804l1,1.732C6.631,4.171,7,4.016,8,4.017z"/>
	<path opacity="0.2" fill="#A0A0A0" d="M11.45,9.992l1.742,1.006C13.691,10.131,13.994,9,13.995,8h-2.012
		C11.983,9,11.949,9.125,11.45,9.992z"/>
	<path fill="#DCDCDC" d="M10,11.464l1,1.732c0.947-0.547,1.683-1.315,2.192-2.198L11.45,9.992C11.11,10.581,10.631,11.1,10,11.464z"
		/>
	<path fill="#F0F0F0" d="M11.983,8h2.012c0.001-1-0.253-2.053-0.799-3l-1.732,1C11.829,6.631,11.984,7,11.983,8z"/>
	<path opacity="0.2" fill="#A0A0A0" d="M11.464,6l1.732-1c-0.547-0.947-1.332-1.693-2.198-2.192L9.992,4.55
		C10.858,5.05,11.1,5.369,11.464,6z"/>
	<path fill="#3C3C3C" d="M9.992,4.55l1.006-1.742C10.086,2.283,9.052,2.006,8,2.005l0,2.012C8.701,4.017,9.384,4.201,9.992,4.55z"/>
</g>
</svg>
