<?xml version="1.0" encoding="utf-8"?>
<!-- Generator: Adobe Illustrator 17.0.2, SVG Export Plug-In . SVG Version: 6.00 Build 0)  -->
<!DOCTYPE svg PUBLIC "-//W3C//DTD SVG 1.1//EN" "http://www.w3.org/Graphics/SVG/1.1/DTD/svg11.dtd">
<svg version="1.1" id="图层_1" xmlns="http://www.w3.org/2000/svg" xmlns:xlink="http://www.w3.org/1999/xlink" x="0px" y="0px"
	 width="16px" height="16px" viewBox="0 0 16 16" enable-background="new 0 0 16 16" xml:space="preserve">
<g>
	<path opacity="0.2" fill="#A0A0A0" d="M11.45,6.008l1.742-1.006c-0.527-0.91-1.284-1.668-2.194-2.194L9.992,4.55
		C10.598,4.901,11.099,5.402,11.45,6.008z"/>
	<path fill="#8C8C8C" d="M9.992,4.55l1.006-1.742C10.132,2.307,9,2,8,2v2C9,4,9.126,4.05,9.992,4.55z"/>
	<path opacity="0.2" fill="#A0A0A0" d="M8,4V2C6.907,2,5.885,2.297,5.002,2.808L6.008,4.55C6.597,4.21,7.271,4,8,4z"/>
	<path fill="#646464" d="M12,8l2,0c0-1.093-0.307-2.132-0.808-2.998L11.45,6.008C11.95,6.874,12,7.271,12,8z"/>
	<path opacity="0.2" fill="#A0A0A0" d="M4,8c0-0.729,0.21-1.403,0.55-1.992L2.808,5.002C2.297,5.885,2,6.907,2,8H4z"/>
	<path fill="#B4B4B4" d="M6.008,4.55L5.002,2.808C4.137,3.309,3.309,4.137,2.808,5.002L4.55,6.008
		C5.051,5.143,5.143,5.051,6.008,4.55z"/>
	<path opacity="0.2" fill="#A0A0A0" d="M11.45,9.992l1.742,1.006C13.693,10.132,14,9.093,14,8l-2,0
		C12,8.729,11.95,9.126,11.45,9.992z"/>
	<path opacity="0.2" fill="#A0A0A0" d="M4.55,9.992l-1.742,1.006c0.501,0.866,1.329,1.694,2.194,2.194l1.006-1.742
		C5.143,10.949,5.051,10.857,4.55,9.992z"/>
	<path fill="#DCDCDC" d="M4,8H2c0,1.093,0.297,2.115,0.808,2.998L4.55,9.992C4.21,9.403,4,8.729,4,8z"/>
	<path fill="#F0F0F0" d="M6.008,11.45l-1.006,1.742C5.868,13.693,6.907,14,8,14l0-2C7.271,12,6.874,11.95,6.008,11.45z"/>
	<path opacity="0.2" fill="#A0A0A0" d="M8,12l0,2c1.093,0,2.132-0.307,2.998-0.808L9.992,11.45C9.126,11.95,8.729,12,8,12z"/>
	<path fill="#3C3C3C" d="M9.992,11.45l1.006,1.742c0.91-0.527,1.668-1.284,2.194-2.194L11.45,9.992
		C11.099,10.598,10.598,11.099,9.992,11.45z"/>
</g>
</svg>
