<svg xmlns="http://www.w3.org/2000/svg" width="32" height="32" viewBox="0 0 32 32">
  <path fill="#FFF" fill-rule="evenodd" d="M16,32 C7.163444,32 0,24.836556 0,16 C0,7.163444 7.163444,0 16,0 C24.836556,0 32,7.163444 32,16 C32,24.836556 24.836556,32 16,32 Z M15.6698026,8 C13.4675417,8 11.5737576,10.0673822 11.4399175,12.6176273 L11.4198527,12.999952 C11.2739006,15.7809831 10.4656671,18.5195476 9.0147968,20.9755256 L9,21 L23,21 L22.9852032,20.9755256 C21.5343329,18.5195476 20.7260994,15.7809831 20.5801473,12.999952 L20.5600825,12.6176273 C20.4262424,10.0673822 18.5324583,8 16.3301974,8 L15.6698026,8 Z M14,22 C14,23.1045695 14.8954305,24 16,24 C17.1045695,24 18,23.1045695 18,22 L14,22 Z"/>
</svg>
