<?xml version="1.0" standalone="no"?><!DOCTYPE svg PUBLIC "-//W3C//DTD SVG 1.1//EN" "http://www.w3.org/Graphics/SVG/1.1/DTD/svg11.dtd"><svg t="1606793125642" class="icon" viewBox="0 0 1024 1024" version="1.1" xmlns="http://www.w3.org/2000/svg" p-id="4087" xmlns:xlink="http://www.w3.org/1999/xlink" width="32" height="32"><defs><style type="text/css"></style></defs><path d="M512 512m-445.217391 0a445.217391 445.217391 0 1 0 890.434782 0 445.217391 445.217391 0 1 0-890.434782 0Z" fill="#007FFF" p-id="4088"></path><path d="M460.8 288.278261V317.217391H387.33913c-2.782609 0-4.452174 2.226087-4.452173 4.452174l1.113043 402.921739c0 2.782609 2.226087 4.452174 4.452174 4.452174l247.095652-1.113043c2.782609 0 4.452174-2.226087 4.452174-4.452174l-1.113043-402.365218c0-2.782609-2.226087-4.452174-4.452174-4.452173h-73.46087v-28.939131c0-2.782609-2.226087-4.452174-4.452174-4.452174l-91.269565 0.556522c-2.226087 0-4.452174 2.226087-4.452174 4.452174z m143.582609 58.991304c2.782609 0 4.452174 2.226087 4.452174 4.452174l1.113043 341.704348c0 2.782609-2.226087 4.452174-4.452174 4.452174l-185.878261 0.556522c-2.782609 0-4.452174-2.226087-4.452174-4.452174l-1.113043-341.704348c0-2.782609 2.226087-4.452174 4.452174-4.452174l185.878261-0.556522z m-146.365218 291.06087v43.408695c0 2.226087 2.226087 3.895652 4.452174 3.895653l98.504348-0.556522c2.782609 0 4.452174-1.669565 4.452174-3.895652v-43.408696c0-2.226087-2.226087-3.895652-4.452174-3.895652l-97.947826 0.556522c-2.782609 0-5.008696 1.669565-5.008696 3.895652z m0-66.782609v43.408696c0 2.226087 2.226087 3.895652 4.452174 3.895652l98.504348-0.556522c2.782609 0 4.452174-1.669565 4.452174-3.895652v-43.408696c0-2.226087-2.226087-3.895652-4.452174-3.895652l-97.947826 0.556522c-2.782609 0-5.008696 1.669565-5.008696 3.895652z m0-66.782609v43.408696c0 2.226087 2.226087 3.895652 4.452174 3.895652l98.504348-0.556522c2.782609 0 4.452174-1.669565 4.452174-3.895652v-43.408695c0-2.226087-2.226087-3.895652-4.452174-3.895653l-97.947826 0.556522c-2.782609 0-5.008696 1.669565-5.008696 3.895652z m-0.556521-66.782608v43.408695c0 2.226087 2.226087 3.895652 4.452173 3.895653l98.504348-0.556522c2.782609 0 4.452174-1.669565 4.452174-3.895652v-43.408696c0-2.226087-2.226087-3.895652-4.452174-3.895652l-97.947826 0.556522c-2.782609 0-5.008696 1.669565-5.008695 3.895652z m0-66.782609v43.408696c0 2.226087 2.226087 3.895652 4.452173 3.895652l98.504348-0.556522c2.782609 0 4.452174-1.669565 4.452174-3.895652v-43.408696c0-2.226087-2.226087-3.895652-4.452174-3.895652l-97.947826 0.556522c-2.782609 0-5.008696 1.669565-5.008695 3.895652z" fill="#FFFFFF" p-id="4089"></path></svg>