<?xml version="1.0" encoding="UTF-8"?>
<svg width="16px" height="16px" viewBox="0 0 16 16" version="1.1" xmlns="http://www.w3.org/2000/svg" xmlns:xlink="http://www.w3.org/1999/xlink">
    <title>ICON / Device / net-light</title>
    <g id="ICON-/-Device-/-net-light" stroke="none" stroke-width="1" fill="none" fill-rule="evenodd" fill-opacity="0.7">
        <path d="M8,1 C8.09975017,1 8.19901304,1.00208644 8.29774732,1.00621805 L8.3497338,1.00858465 C8.44021742,1.0130368 8.53024932,1.01920701 8.61979756,1.02706335 L8.29874799,1.00625999 C8.42920013,1.01173732 8.55872923,1.02078489 8.68724012,1.03330754 C8.79288463,1.04361011 8.89731403,1.05618542 9.00101007,1.07103341 C9.02531897,1.07451126 9.05037714,1.07823567 9.0753916,1.08209251 C9.16456142,1.09584933 9.2525583,1.11116901 9.33997477,1.12811525 C9.35803875,1.13161546 9.37665201,1.1353012 9.39523856,1.13906057 C9.49861193,1.15997822 9.60059264,1.18303185 9.70170268,1.20828418 C9.72642982,1.21446089 9.75082825,1.22069677 9.775175,1.22706046 C11.7153988,1.7341263 13.327616,3.05305965 14.2269737,4.79916217 C14.2345827,4.81398788 14.2423382,4.82917227 14.2500397,4.84438943 L14.2597741,4.8636637 C14.3056395,4.95502737 14.3495636,5.04753393 14.3914922,5.14112926 C14.3935085,5.14562974 14.3956179,5.15035201 14.3977222,5.15507704 L14.4499053,5.2752841 C14.8041246,6.11275253 15,7.03350169 15,8 C15,9.01528789 14.7838495,9.98009114 14.3950558,10.8509026 C14.2577509,11.166459 14.0949511,11.4690834 13.9115798,11.7563776 C13.0260894,13.1404749 11.6706055,14.1941957 10.0696796,14.6889854 L9.94812172,14.7253415 C9.9068927,14.7372632 9.86550711,14.7488162 9.82396875,14.7599964 L10.0711473,14.6894073 C9.93994205,14.7297975 9.80705613,14.7664823 9.67262195,14.7993229 C9.59709449,14.8174285 9.52119612,14.8346959 9.44483998,14.850719 C9.3959537,14.8611855 9.34702303,14.8708796 9.29790947,14.8800644 C9.22044826,14.8944292 9.14245472,14.9076899 9.06403323,14.9196492 C9.04504355,14.9226118 9.02600647,14.9254297 9.00694435,14.9281713 C8.89905205,14.9436587 8.79028742,14.95675 8.68078507,14.9673185 C8.66303357,14.9690392 8.6454052,14.970672 8.62775792,14.9722395 C8.53298152,14.9806578 8.4376148,14.9871953 8.3417423,14.991804 C8.32692256,14.992517 8.31184076,14.9931943 8.29674662,14.9938238 C8.19767162,14.9979417 8.09907619,15 8,15 C7.90024983,15 7.80098696,14.9979136 7.70225268,14.993782 L7.65126501,14.9914644 C7.55909642,14.9869424 7.46739639,14.9806378 7.37619865,14.9725842 L7.70193977,14.9935588 C7.57216538,14.9881543 7.44333307,14.9792163 7.31552975,14.9668401 C7.20706783,14.9564313 7.0996352,14.9434696 6.99297988,14.9281034 C6.97416424,14.9253315 6.95544321,14.9225591 6.93674686,14.9197127 C6.8555088,14.9073913 6.77451346,14.8935771 6.69400516,14.8783845 C6.66917644,14.8736734 6.64469841,14.8689188 6.62026675,14.8640369 L6.58925584,14.8577849 C6.4990047,14.8393168 6.40938623,14.8191119 6.32043688,14.7972066 C6.27786127,14.7867187 6.23544739,14.7758473 6.19319131,14.7645903 C6.12660723,14.7468508 6.06058655,14.7282047 5.99496973,14.7086222 C5.97341582,14.7021897 5.95190043,14.6956546 5.9304292,14.689019 C4.33034374,14.1947514 2.97475158,13.141273 2.09247841,11.7567987 C1.90557555,11.4690834 1.74277575,11.166459 1.6030678,10.8502443 L1.67017267,10.9927088 C1.65724514,10.9654142 1.64448896,10.9380226 1.63190552,10.9105355 L1.6030678,10.8502443 C1.21615046,9.98009114 1,9.01528789 1,8 C1,6.62308264 1.39755159,5.33901842 2.08413297,4.25632916 L2.19549006,4.08623344 C3.07833232,2.77945484 4.39084579,1.78681189 5.93032042,1.31101462 L6.0428794,1.27726721 C6.08477293,1.26509203 6.12682858,1.25329783 6.16904235,1.2418886 L5.92995208,1.31094765 C6.05093485,1.2735814 6.17335241,1.23939439 6.29709895,1.20848997 C6.36584309,1.19140377 6.4347949,1.17528282 6.50413032,1.16018933 C6.52569835,1.15544111 6.54710188,1.15089108 6.56854188,1.14643886 C6.65695789,1.12810925 6.74634243,1.11133984 6.83630831,1.0962864 C6.86596071,1.09130706 6.89593504,1.08649299 6.92597297,1.08186953 C7.0042063,1.06983581 7.08285986,1.05908552 7.16191801,1.04965288 C7.18113701,1.04735884 7.19983121,1.04520644 7.2185478,1.04312777 C7.31829514,1.03204205 7.41921929,1.02301343 7.52073703,1.01614919 L7.70193977,1.00644119 C7.80098696,1.00208644 7.90024983,1 8,1 Z M11.2571149,11.2305057 L11.2401215,11.2679104 C10.7631211,12.2549111 10.0859881,13.1359492 9.27954441,13.8624203 C10.7471543,13.5444714 12.0144251,12.6886884 12.8652993,11.5119979 C12.3352951,11.3992922 11.7991602,11.305655 11.2571149,11.2305057 Z M4.74296074,11.2327378 L4.39732238,11.2813179 C3.97309721,11.3466648 3.55263317,11.4233826 3.13625679,11.5111601 C3.98649004,12.6894424 5.25383751,13.5449494 6.72142231,13.8634766 C5.90507127,13.1283783 5.22103014,12.2345313 4.74296074,11.2327378 Z M7.50019834,11.0118621 C6.93155027,11.0237345 6.3678725,11.0558109 5.80986823,11.107421 C6.23965795,11.9046956 6.81909687,12.6214875 7.50017426,13.2168592 Z M8.5,11.013 L8.50053646,13.2161877 C9.18122977,12.6209965 9.76034177,11.9045525 10.1892095,11.1101323 C9.46821792,11.0406608 8.73821285,11.0066466 8.00026332,11.0066466 L8.5,11.013 Z M13.9793885,8.50090367 L11.9828032,8.50119569 C11.9406617,9.11440451 11.8220805,9.7089158 11.6382604,10.2770425 C12.2344527,10.363646 12.8236617,10.4738796 13.4050459,10.6047819 C13.7176931,9.9609905 13.9174356,9.25048874 13.9793885,8.50090367 Z M4.01719058,8.50110505 L2.02061151,8.50090367 C2.08253227,9.25010064 2.28210014,9.96025477 2.59396521,10.6060161 C3.17611307,10.4740173 3.76581056,10.3636792 4.36253201,10.2748583 C4.17773732,9.70802287 4.05929586,9.11389858 4.01719058,8.50110505 Z M7.5,8.5 L5.02055245,8.50055019 C5.06695013,9.06607336 5.1907523,9.61835557 5.38019842,10.1469392 C6.24161675,10.0535496 7.11546265,10.0066466 8.00026332,10.0066466 L7.5,10.012 L7.5,8.5 Z M10.9794577,8.50042538 L8.5,8.5 L8.5009942,10.0116617 C9.21479976,10.0259721 9.92111491,10.0708102 10.6186876,10.1449238 C10.8094136,9.61763202 10.9330965,9.06564127 10.9794577,8.50042538 Z M2.59198658,5.40113699 L2.55765512,5.47055139 C2.26646483,6.09601223 2.07992158,6.7800287 2.02052886,7.50009733 L4.01711296,7.50002604 C4.05900461,6.88895609 4.17680488,6.29644687 4.35943104,5.7301044 C3.7628803,5.64249438 3.17351795,5.53215558 2.59198658,5.40113699 Z M5.37821042,5.86136496 L5.33573071,5.98119609 C5.17121602,6.47097363 5.06307692,6.98010742 5.02047084,7.50044679 L7.5,7.5 L7.5,5.993 L7.3981261,5.99275171 C6.71758202,5.97634373 6.04391401,5.93218537 5.37821042,5.86136496 Z M10.6223958,5.860312 L10.5642623,5.8674165 C9.88429794,5.93813611 9.19606832,5.98104468 8.50073088,5.99498482 L8.5,7.5 L10.9795346,7.50051169 C10.9334165,6.93720353 10.8104963,6.38702553 10.6223958,5.860312 Z M13.4084558,5.39900289 L13.0523389,5.47848146 C12.5863752,5.57616849 12.1155427,5.6606161 11.6402531,5.73141271 C11.8230155,6.29558655 11.9409387,6.88840371 11.9828717,7.49980282 L13.9794711,7.50009733 C13.9178055,6.75247249 13.7190714,6.04371197 13.4084558,5.39900289 Z M5.85193591,4.81478621 L5.80722545,4.8990054 C6.36600673,4.9507444 6.93047865,4.98289521 7.49993502,4.99478449 L7.49959219,2.78408629 C6.84037467,3.36030254 6.27642295,4.05031577 5.85193591,4.81478621 Z M8.50114736,2.78429636 L8.5,4.993 L8.61065934,4.99222015 C9.14274112,4.97864802 9.67042595,4.94739026 10.1931479,4.89901281 C9.76387883,4.09985335 9.18356863,3.38111542 8.50114736,2.78429636 Z M6.72237811,2.13584831 L6.68461318,2.14463444 C5.23014629,2.46995463 3.97504304,3.32334223 3.13106451,4.49303616 C3.66098121,4.60627774 4.19743485,4.70018207 4.73983739,4.77553614 C5.21851256,3.76874878 5.90391048,2.87271398 6.72237811,2.13584831 Z M9.27957364,2.13673968 L9.45487427,2.29990293 C10.1950703,3.00416447 10.8163124,3.84196959 11.259699,4.77289464 C11.8023066,4.70044724 12.3388358,4.60665453 12.8687853,4.49500474 C12.0187601,3.314241 10.7496647,2.45607387 9.27957364,2.13673968 Z" id="形状结合" fill="#FFFFFF" fill-rule="nonzero"></path>
    </g>
</svg>