<?xml version="1.0" encoding="UTF-8"?>
<svg width="16px" height="16px" viewBox="0 0 16 16" version="1.1" xmlns="http://www.w3.org/2000/svg" xmlns:xlink="http://www.w3.org/1999/xlink">
    <title>ICON / Device /voice-light</title>
    <g id="ICON-/-Device-/voice-light" stroke="none" stroke-width="1" fill="none" fill-rule="evenodd" fill-opacity="0.7">
        <g id="ICON-/-MenuItem-/-Volume+" transform="translate(2.000000, 2.042182)" fill="#FFFFFF" fill-rule="nonzero">
            <path d="M3.83059677,2.77542808 L5.34311193,1.50818457 C5.51244689,1.36630921 5.76473272,1.38856961 5.90660808,1.55790458 C5.96693777,1.62991092 6,1.7208534 6,1.81479266 L6,10.043715 C6,10.2646289 5.8209139,10.443715 5.6,10.443715 C5.49938745,10.443715 5.40247012,10.405799 5.32856762,10.3375253 L3.85145723,8.97291806 C3.40804225,8.56327551 2.82653826,8.33577958 2.22286296,8.33577958 L1.2,8.33577958 C0.5372583,8.33577958 8.09053986e-14,7.79852128 0,7.13577958 L0,4.53577958 C-2.74649207e-14,3.87303788 0.5372583,3.33577958 1.2,3.33577958 L2.28926833,3.33577958 C2.85290388,3.33577958 3.39855873,3.13740621 3.83059677,2.77542808 Z" id="Path"></path>
            <path d="M11,0.5 C11,0.223857625 11.2238576,0 11.5,0 C11.7761424,0 12,0.223857625 12,0.5 L12,11.4341163 C12,11.7102587 11.7761424,11.9341163 11.5,11.9341163 C11.2238576,11.9341163 11,11.7102587 11,11.4341163 L11,0.5 Z M9,2.45781842 C9,2.18167604 9.22385763,1.95781842 9.5,1.95781842 C9.77614237,1.95781842 10,2.18167604 10,2.45781842 L10,9.45781842 C10,9.73396079 9.77614237,9.95781842 9.5,9.95781842 C9.22385763,9.95781842 9,9.73396079 9,9.45781842 L9,2.45781842 Z M7.014,4.45781593 C7.014,4.18167355 7.23785763,3.95781593 7.514,3.95781593 C7.79014237,3.95781593 8.014,4.18167355 8.014,4.45781593 L8.014,7.47192561 C8.014,7.74806798 7.79014237,7.97192561 7.514,7.97192561 C7.23785763,7.97192561 7.014,7.74806798 7.014,7.47192561 L7.014,4.45781593 Z" id="Stroke-2"></path>
        </g>
    </g>
</svg>