<?xml version="1.0" encoding="UTF-8"?>
<svg width="16px" height="16px" viewBox="0 0 16 16" version="1.1" xmlns="http://www.w3.org/2000/svg" xmlns:xlink="http://www.w3.org/1999/xlink">
    <title>ICON / Device /them-light</title>
    <g id="ICON-/-Device-/them-light" stroke="none" stroke-width="1" fill="none" fill-rule="evenodd" fill-opacity="0.7">
        <g id="编组" transform="translate(0.000000, 1.999850)" fill="#FFFFFF">
            <path d="M11.1756656,3.51299668e-05 C11.3440453,-0.00124555503 11.5102446,0.0341814868 11.6620154,0.105263513 L11.7729468,0.165241435 L14.4165397,1.71650185 C14.9372867,2.02111086 15.1385295,2.6710796 14.9011449,3.215985 L14.8435197,3.33097819 L14.2602542,4.85714883 C13.9596008,5.3847471 13.3180725,5.58863761 12.7802431,5.34812984 L12.6667432,5.28974646 L12,5.00015036 L12,11.8182717 C12,12.4274897 11.5107411,12.9290484 10.926275,12.9932153 L10.7991686,13.0001504 L4.06975465,12.9997204 C3.42549738,12.9997204 3,12.3115268 3,11.6587932 L3,4.97914693 L2.33325676,5.28974646 C1.7753136,5.61611325 1.06187443,5.4224327 0.739745796,4.85714883 L0.1564803,3.33097819 C-0.165648338,2.76569432 0.0255171093,2.04286864 0.583460278,1.71650185 L3.22705318,0.165241435 C3.40679206,0.0541990721 3.61385983,-0.00160505201 3.82433439,3.51299668e-05 L4.18168841,0.000571048655 C4.40900543,0.00075433243 4.56154958,0.11525359 4.66006877,0.21898871 L4.75368767,0.33029894 C5.39462839,1.15156496 6.3867565,1.67855888 7.50037226,1.67855888 L7.720663,1.67160125 C8.66525077,1.61195562 9.50829822,1.17266536 10.102918,0.502550403 L10.2871367,0.278937444 C10.367097,0.181813291 10.4998233,0.0468351885 10.7078934,0.0101136372 L10.8183116,0.000571048655 L11.1756656,3.51299668e-05 Z M3.837,1.20915036 L1.215,2.74815036 L1.28674979,2.89901653 L1.788,4.21015036 L1.82230481,4.19292008 L4,3.08062233 L4,12.0001504 L11,12.0001504 L11,3.1553858 L13.212,4.20915036 L13.7132502,2.89901653 L13.7617472,2.78888192 L13.783,2.74715036 L11.163,1.20915036 L11.087,1.20915036 L11.007979,1.30564721 C10.2433176,2.16739301 9.1938131,2.72277188 8.01368756,2.85840089 L7.75886042,2.88099819 L7.50037226,2.88855888 C6.12439985,2.88855888 4.84545262,2.28768136 3.98418452,1.29900718 L3.911,1.20915036 L3.837,1.20915036 Z" id="路径"></path>
            <path d="M10,5.00015036 L10,10.0001504 C10,10.5524351 9.55228475,11.0001504 9,11.0001504 L6,11.0001504 C5.44771525,11.0001504 5,10.5524351 5,10.0001504 L5,5.00015036 C5,4.59985994 5.23519396,4.25450201 5.5749302,4.09472828 C6.03395315,4.64831228 6.72588848,5.00015036 7.5,5.00015036 C8.27411152,5.00015036 8.96604685,4.64831228 9.42461705,4.09582508 C9.76480604,4.25450201 10,4.59985994 10,5.00015036 Z" id="形状结合"></path>
        </g>
    </g>
</svg>