<?xml version="1.0" encoding="UTF-8"?>
<svg width="16px" height="16px" viewBox="0 0 16 16" version="1.1" xmlns="http://www.w3.org/2000/svg" xmlns:xlink="http://www.w3.org/1999/xlink">
    <title>ICON / Device /mouse-light</title>
    <g id="ICON-/-Device-/mouse-light" stroke="none" stroke-width="1" fill="none" fill-rule="evenodd" fill-opacity="0.7">
        <path d="M4.80512463,3.67143786 L12.5832992,11.4496125 L11.9601551,12.0814755 C9.89034174,14.1512888 6.58125475,14.2265214 4.42135235,12.3071732 L3.36396103,13.363961 C3.16869888,13.5592232 2.8521164,13.5592232 2.65685425,13.363961 C2.4615921,13.1686989 2.4615921,12.8521164 2.65685425,12.6568542 L3.73557971,11.5776092 C2.09733696,9.4849092 2.18761195,6.47909437 4.00640468,4.48702828 L4.18198052,4.30330086 L4.80512463,3.67143786 Z M13.7227196,3.40038072 C15.4431726,5.49538476 15.3806448,8.56431648 13.5351389,10.5885613 L13.3568992,10.7752121 L9.82472109,7.24208973 L13.7227196,3.40038072 Z M13.544,4.979 L11.243,7.247 L13.277,9.281 L13.3360878,9.18736675 C14.0536158,7.98271883 14.1615372,6.51117702 13.6516603,5.22510809 L13.544,4.979 Z M9.37592482,1.3868525 C10.6717264,1.36533662 11.9736821,1.79900116 13.021407,2.68784612 L9.11772109,6.53508973 L5.57872109,2.99700243 C6.56749536,2.00822816 7.83908249,1.47463431 9.13309771,1.39622088 L9.37592482,1.3868525 Z M7.18948464,3.0045576 L7.072,3.076 L9.122,5.125 L11.441,2.84 L11.4216152,2.8304878 C10.0769375,2.1821646 8.48166724,2.24544921 7.18948464,3.0045576 Z" id="形状结合" fill="#FFFFFF" fill-rule="nonzero"></path>
    </g>
</svg>