<?xml version="1.0" encoding="UTF-8"?>
<svg width="16px" height="16px" viewBox="0 0 16 16" version="1.1" xmlns="http://www.w3.org/2000/svg" xmlns:xlink="http://www.w3.org/1999/xlink">
    <title>icon/user/animal</title>
    <g id="icon/user/animal" stroke="none" stroke-width="1" fill="none" fill-rule="evenodd" fill-opacity="0.7">
        <path d="M10,0 C10.5522847,0 11,1.56700338 11,3.5 C11,4.37765715 10.9077026,5.17986405 10.7552266,5.79420472 C11.8636196,6.50143206 12.6279191,7.62734654 12.7743939,8.9203454 C13.5435297,9.52490204 14,10.2805612 14,11.1001924 C14,13.0885237 11.3137085,15 8,15 C4.6862915,15 2,13.0885237 2,11.1001924 C2,10.2805612 2.45647034,9.52490204 3.22519317,8.91975027 C3.37191037,7.62710077 4.13630997,6.50133056 5.24483765,5.79196951 C5.0922974,5.17986405 5,4.37765715 5,3.5 C5,1.56700338 5.44771525,0 6,0 C6.55228475,0 7,1.56700338 7,3.5 C7,4.08443131 6.95907331,4.63540633 6.8867038,5.11973149 C7.24381725,5.0409579 7.61666086,5 8,5 C8.38333914,5 8.75618275,5.0409579 9.11355053,5.11833436 C9.04092669,4.63540633 9,4.08443131 9,3.5 C9,1.56700338 9.44771525,0 10,0 Z M10.5527864,11.7763932 C9.96801441,12.9459372 9.13692021,13.5 8,13.5 C6.86307979,13.5 6.03198559,12.9459372 5.4472136,11.7763932 C5.32371897,11.529404 5.02338245,11.4292918 4.7763932,11.5527864 C4.52940395,11.676281 4.42929178,11.9766175 4.5527864,12.2236068 C5.30134774,13.7207295 6.47025354,14.5 8,14.5 C9.52974646,14.5 10.6986523,13.7207295 11.4472136,12.2236068 C11.5707082,11.9766175 11.470596,11.676281 11.2236068,11.5527864 C10.9766175,11.4292918 10.676281,11.529404 10.5527864,11.7763932 Z M8,11 C7.44771525,11 7,11.2238576 7,11.5 C7,11.7761424 7.44771525,12 8,12 C8.55228475,12 9,11.7761424 9,11.5 C9,11.2238576 8.55228475,11 8,11 Z M6,7 C5.44771525,7 5,7.67157288 5,8.5 C5,9.32842712 5.44771525,10 6,10 C6.55228475,10 7,9.32842712 7,8.5 C7,7.67157288 6.55228475,7 6,7 Z M10,7 C9.44771525,7 9,7.67157288 9,8.5 C9,9.32842712 9.44771525,10 10,10 C10.5522847,10 11,9.32842712 11,8.5 C11,7.67157288 10.5522847,7 10,7 Z" id="形状结合" fill="#000000" fill-rule="nonzero"></path>
    </g>
</svg>