<?xml version="1.0" encoding="UTF-8"?>
<svg width="16px" height="16px" viewBox="0 0 16 16" version="1.1" xmlns="http://www.w3.org/2000/svg" xmlns:xlink="http://www.w3.org/1999/xlink">
    <title>icon/user/custom</title>
    <g id="icon/user/custom" stroke="none" stroke-width="1" fill="none" fill-rule="evenodd" fill-opacity="0.7">
        <path d="M14,6 L14,5 C14,4.48716416 13.6139598,4.06449284 13.1166211,4.00672773 L13,4 L3,4 C2.44771525,4 2,4.44771525 2,5 L2,6 L1,6 L1,4 C1,2.8954305 1.8954305,2 3,2 L6.29289322,2 C6.74564609,2 7.17985538,2.17985538 7.5,2.5 C7.82014462,2.82014462 8.25435391,3 8.70710678,3 L13,3 C14.1045695,3 15,3.8954305 15,5 L15,12 C15,13.1045695 14.1045695,14 13,14 L3,14 C1.8954305,14 1,13.1045695 1,12 L1,6 L14,6 Z" id="形状结合" fill="#000000" fill-rule="nonzero"></path>
    </g>
</svg>