<?xml version="1.0" encoding="UTF-8"?>
<svg width="16px" height="16px" viewBox="0 0 16 16" version="1.1" xmlns="http://www.w3.org/2000/svg" xmlns:xlink="http://www.w3.org/1999/xlink">
    <title>icon/user/human</title>
    <g id="icon/user/human" stroke="none" stroke-width="1" fill="none" fill-rule="evenodd" fill-opacity="0.7">
        <path d="M8.00023105,10 C9.00392025,10 9.92126838,9.63032992 10.6235492,9.01971605 C12.0557829,9.56702237 13.2774444,10.5475282 14.1325291,11.8036596 C14.4071459,12.2070755 14.6765894,12.7959365 14.9408596,13.5702426 C15.1335495,14.1358903 14.8306363,14.7503629 14.2648099,14.9425268 C14.1530644,14.9804774 14.0358628,14.9998909 13.9178488,14.9999985 L2.07963879,14.9999985 C1.48207337,14.9985687 0.998807469,14.5129896 1.0002342,13.9154242 C1.0005165,13.7971849 1.02017777,13.6797914 1.0586223,13.567976 C1.32645932,12.7852992 1.59967298,12.1907006 1.87826327,11.7841802 C2.72458849,10.5492179 3.92607027,9.58268149 5.33303266,9.03613357 L5.37593724,9.01886743 C6.07834394,9.6299874 6.99607695,10 8.00023105,10 Z M8.00023105,1 C10.20937,1 12.000231,2.790861 12.000231,5 C12.000231,7.209139 10.20937,9 8.00023105,9 C5.79109205,9 4.00023105,7.209139 4.00023105,5 C4.00023105,2.790861 5.79109205,1 8.00023105,1 Z M10.3271598,5.62189096 C10.118336,5.44120557 9.80257634,5.46401632 9.62189096,5.67284018 C9.13620534,6.23416253 8.60459182,6.49999198 8.00023105,6.49999198 C7.39583217,6.49999198 6.86402221,6.23412573 6.3780226,5.67274029 C6.19728205,5.46396418 5.88151641,5.44123686 5.67274029,5.6219774 C5.46396418,5.80271795 5.44123686,6.11848359 5.6219774,6.32725971 C6.29026402,7.0992076 7.09194142,7.49999198 8.00023105,7.49999198 C8.90855877,7.49999198 9.71012455,7.09917081 10.378109,6.32715982 C10.5587944,6.11833597 10.5359837,5.80257634 10.3271598,5.62189096 Z" id="形状结合" fill="#000000" fill-rule="nonzero"></path>
    </g>
</svg>