<?xml version="1.0" encoding="UTF-8"?>
<svg width="60px" height="60px" viewBox="0 0 60 60" version="1.1" xmlns="http://www.w3.org/2000/svg" xmlns:xlink="http://www.w3.org/1999/xlink">
    <title>icon-添加图片</title>
    <g id="icon-添加图片" stroke="none" stroke-width="1" fill="none" fill-rule="evenodd" fill-opacity="0.685121763">
        <path d="M35,11 C36.1045695,11 37,11.8954305 37,13 C37,14.1045695 36.1045695,15 35,15 L6,15 C4.8954557,15.0000645 4.00003563,15.8954557 3.99993548,17 L3.99873841,44.5497604 C5.53084739,39.4803214 10.6463722,24.4747671 17.527643,24.4747671 C21.8468264,24.4747671 26.3493213,34.94429 29.75242,41.8025429 L30.0633923,42.4249454 C30.781534,43.8513709 31.4468432,45.0901688 32.0465033,46.0006464 L32.2271653,46.0063812 L32.263441,45.8621236 C32.7328894,44.0193614 35.1829267,35.2629208 39.365913,35.1998457 C43.9900876,35.1315456 48.4471612,46 48.4471612,46 L49,46 L49,33 C49,31.8954305 49.8954305,31 51,31 C52.1045695,31 52.999989,31.8954305 52.999989,33 L52.999989,51 C52.999989,53.209139 51.209139,55 49,55 L4,55 C1.790861,55 -0.000324529676,53.209139 -0.000324529676,51 L-0.000324529676,15 C-0.000324529676,13.0205005 1.02169002,11 4,11 L35,11 Z M41.5,20 C43.4329966,20 45,21.5670034 45,23.5 C45,25.4329966 43.4329966,27 41.5,27 C39.5670034,27 38,25.4329966 38,23.5 C38,21.5670034 39.5670034,20 41.5,20 Z M51,4 C52.1045695,4 53,4.8954305 53,6 L52.999,10.999 L58,11 C59.1045695,11 60,11.8954305 60,13 C60,14.1045695 59.1045695,15 58,15 L52.999,14.999 L53,20 C53,21.1045695 52.1045695,22 51,22 C49.8954305,22 49,21.1045695 49,20 L48.999,14.999 L44,15 C42.8954305,15 42,14.1045695 42,13 C42,11.8954305 42.8954305,11 44,11 L48.999,10.999 L49,6 C49,4.8954305 49.8954305,4 51,4 Z" id="形状结合" fill="#000000" fill-rule="nonzero"></path>
    </g>
</svg>