<?xml version="1.0" encoding="UTF-8"?>
<svg width="16px" height="16px" viewBox="0 0 16 16" version="1.1" xmlns="http://www.w3.org/2000/svg" xmlns:xlink="http://www.w3.org/1999/xlink">
    <title>默认-白色</title>
    <g id="桌面版" stroke="none" stroke-width="1" fill="none" fill-rule="evenodd">
        <g id="显示-单屏2-深色" transform="translate(-1368.000000, -958.000000)">
            <g id="默认-白色" transform="translate(1368.000000, 958.000000)">
                <rect id="矩形备份-20" x="0" y="0" width="16" height="16"></rect>
                <path d="M15,3 C15.5522847,3 16,3.44771525 16,4 L16,12 C16,12.5522847 15.5522847,13 15,13 L1,13 C0.44771525,13 0,12.5522847 0,12 L0,4 C0,3.44771525 0.44771525,3 1,3 L15,3 Z M1,11 L1,12 L15,12 L15,11 L1,11 Z M1,5 L15,5 L15,4 L1,4 L1,5 Z" id="形状结合" fill="#FFFFFF"></path>
            </g>
        </g>
    </g>
</svg>