<?xml version="1.0" encoding="UTF-8"?>
<svg width="30px" height="20px" viewBox="0 0 30 20" version="1.1" xmlns="http://www.w3.org/2000/svg" xmlns:xlink="http://www.w3.org/1999/xlink">
    <!-- Generator: Sketch 64 (93537) - https://sketch.com -->
    <title>Backspace</title>
    <desc>Created with Sketch.</desc>
    <g id="页面-1" stroke="none" stroke-width="1" fill="none" fill-rule="evenodd">
        <g id="Backspace">
            <g id="g8">
                <path d="M25.667,19.5 L4.333,19.5 C2.225,19.5 0.5,17.775 0.5,15.667 L0.5,4.333 C0.5,2.225 2.225,0.5 4.333,0.5 L25.667,0.5 C27.775,0.5 29.5,2.225 29.5,4.333 L29.5,15.667 C29.5,17.775 27.775,19.5 25.667,19.5 Z" id="path2" fill="#FFFFFF" fill-rule="nonzero"></path>
                <g id="g6" stroke="#CBCBCB">
                    <path d="M25.5,19.5 L4.5,19.5 C2.291,19.5 0.5,17.709 0.5,15.5 L0.5,4.5 C0.5,2.291 2.291,0.5 4.5,0.5 L25.5,0.5 C27.709,0.5 29.5,2.291 29.5,4.5 L29.5,15.5 C29.5,17.709 27.709,19.5 25.5,19.5 Z" id="path4"></path>
                </g>
            </g>
            <line x1="7" y1="9.5" x2="26" y2="9.5" id="line10" stroke="#231815"></line>
            <polygon id="polygon12" stroke="#231815" fill="#231815" fill-rule="nonzero" stroke-linejoin="round" points="10.512 6.05 10.512 12.95 4.562 9.5"></polygon>
        </g>
    </g>
</svg>