<?xml version="1.0" encoding="UTF-8" standalone="no"?>
<svg width="24px" height="24px" viewBox="0 0 24 24" version="1.1" xmlns="http://www.w3.org/2000/svg" xmlns:xlink="http://www.w3.org/1999/xlink">
    <!-- Generator: Sketch 3.8.3 (29802) - http://www.bohemiancoding.com/sketch -->
    <title>previous</title>
    <desc>Created with Sketch.</desc>
    <defs></defs>
    <g id="Page-1" stroke="none" stroke-width="1" fill="none" fill-rule="evenodd">
        <rect id="rect34466" transform="translate(11.999999, 11.999999) scale(1, -1) translate(-11.999999, -11.999999) " x="0" y="0" width="23.999998" height="23.999998" rx="1.7382798e-05"></rect>
        <path d="M15.967741,5.00146694 C15.8551325,5.0100907 15.7487594,5.05658045 15.665941,5.13336694 L8.16594103,11.8833669 C8.06032805,11.9782097 8,12.1134689 8,12.2554169 C8,12.397365 8.06032805,12.5326242 8.16594103,12.6274669 L15.665941,19.3774669 C15.7983154,19.5004465 15.9867368,19.54245 16.1588116,19.4873391 C16.3308864,19.4322283 16.4598473,19.2885759 16.496146,19.1115749 C16.5324447,18.9345739 16.4704347,18.7517579 16.333941,18.6333669 L9.24704103,12.2553669 L16.333941,5.87746694 C16.4966903,5.73600445 16.5504253,5.50614572 16.4672562,5.30719384 C16.384087,5.10824196 16.1827486,4.98501329 15.967741,5.00146694 L15.967741,5.00146694 Z" id="polyline34474" fill="#595959"></path>
    </g>
</svg>