<?xml version="1.0" encoding="UTF-8" standalone="no"?>
<svg width="22px" height="22px" viewBox="0 0 22 22" version="1.1" xmlns="http://www.w3.org/2000/svg" xmlns:xlink="http://www.w3.org/1999/xlink">
    <!-- Generator: Sketch 3.8.1 (29687) - http://www.bohemiancoding.com/sketch -->
    <title>Slice 1</title>
    <desc>Created with Sketch.</desc>
    <defs></defs>
    <g id="Page-1" stroke="none" stroke-width="1" fill="none" fill-rule="evenodd">
        <g id="category_hover_22px">
            <g id="Page-1">
                <g id="category_hover_22px">
                    <rect id="Rectangle-46-Copy-88" opacity="0" x="0" y="0" width="22" height="22"></rect>
                    <g id="Group-2" opacity="0.7" transform="translate(3.000000, 3.000000)" fill="#515151">
                        <path d="M0,0 L4,0 L4,4 L0,4 L0,0 L0,0 Z M1,1 L3,1 L3,3 L1,3 L1,1 L1,1 Z M6,0 L16,0 L16,4 L6,4 L6,0 L6,0 Z M7,1 L15,1 L15,3 L7,3 L7,1 L7,1 Z M0,6 L4,6 L4,10 L0,10 L0,6 L0,6 Z M1,7 L3,7 L3,9 L1,9 L1,7 L1,7 Z M6,6 L16,6 L16,10 L6,10 L6,6 L6,6 Z M7,7 L15,7 L15,9 L7,9 L7,7 L7,7 Z M0,12 L4,12 L4,16 L0,16 L0,12 L0,12 Z M1,13 L3,13 L3,15 L1,15 L1,13 L1,13 Z M6,12 L16,12 L16,16 L6,16 L6,12 L6,12 Z M7,13 L15,13 L15,15 L7,15 L7,13 L7,13 Z" id="Combined-Shape"></path>
                    </g>
                </g>
            </g>
        </g>
    </g>
</svg>