<svg xmlns="http://www.w3.org/2000/svg" xmlns:xlink="http://www.w3.org/1999/xlink" width="24" height="24" viewBox="0 0 24 24">
  <defs>
    <filter id="preference-system-a" width="122.7%" height="122.7%" x="-11.4%" y="-11.4%" filterUnits="objectBoundingBox">
      <feOffset in="SourceAlpha" result="shadowOffsetOuter1"/>
      <feGaussianBlur in="shadowOffsetOuter1" result="shadowBlurOuter1" stdDeviation=".5"/>
      <feComposite in="shadowBlurOuter1" in2="SourceAlpha" operator="out" result="shadowBlurOuter1"/>
      <feColorMatrix in="shadowBlurOuter1" result="shadowMatrixOuter1" values="0 0 0 0 0   0 0 0 0 0   0 0 0 0 0  0 0 0 0.15 0"/>
      <feMerge>
        <feMergeNode in="shadowMatrixOuter1"/>
        <feMergeNode in="SourceGraphic"/>
      </feMerge>
    </filter>
    <linearGradient id="preference-system-b" x1="52.703%" x2="47.944%" y1="103.309%" y2="0%">
      <stop offset="1.926%" stop-color="#410DD9"/>
      <stop offset="100%" stop-color="#2F54F8"/>
    </linearGradient>
    <circle id="preference-system-c" cx="11.262" cy="11.262" r="7.071"/>
    <filter id="preference-system-d" width="114.1%" height="114.1%" x="-7.1%" y="-7.1%" filterUnits="objectBoundingBox">
      <feGaussianBlur in="SourceAlpha" result="shadowBlurInner1" stdDeviation=".5"/>
      <feOffset dy="1" in="shadowBlurInner1" result="shadowOffsetInner1"/>
      <feComposite in="shadowOffsetInner1" in2="SourceAlpha" k2="-1" k3="1" operator="arithmetic" result="shadowInnerInner1"/>
      <feColorMatrix in="shadowInnerInner1" values="0 0 0 0 0   0 0 0 0 0   0 0 0 0 0  0 0 0 0.5 0"/>
    </filter>
    <path id="preference-system-f" d="M10.6678597,3.9809491 C11.0374698,4.02508256 11.3967112,4.10297744 11.7424123,4.21146201 L11.6702076,5.02219481 C11.9486079,5.12531628 12.2154185,5.25278446 12.468123,5.40205233 L13.0718933,4.81714448 C13.3817789,5.00736484 13.6729724,5.22507567 13.9420782,5.4668814 L13.5012137,6.21192907 C13.7135488,6.42858587 13.9066555,6.66458086 14.0777274,6.91707323 L14.9438959,6.63112437 C15.1376187,6.92544127 15.3060106,7.23791219 15.4459692,7.56543468 L14.6657121,8.08591428 C14.7690783,8.38135941 14.8461025,8.68941481 14.8939268,9.00718756 L15.8748014,9.14134051 C15.9071371,9.39297885 15.9238095,9.64952033 15.9238095,9.90995586 C15.9238095,9.99706331 15.9219444,10.0837352 15.9182519,10.1699336 L14.9241906,10.3046772 C14.8899884,10.6378808 14.823843,10.9614769 14.7289082,11.2722729 L15.5999101,11.854897 C15.4906907,12.1721004 15.3554998,12.4772148 15.1968779,12.7676996 L14.2027941,12.4401237 C14.0245562,12.7308381 13.8180223,13.0019165 13.5870871,13.2494164 L14.1333589,14.1734525 C13.9004491,14.4018823 13.6489022,14.611378 13.38121,14.7994481 L12.6166489,14.0578205 C12.3267105,14.2430477 12.0166512,14.3989363 11.6905399,14.5213675 L11.7865036,15.5944241 C11.4828479,15.692326 11.1685699,15.7665724 10.8458409,15.8149921 L10.472939,14.8085425 C10.3018341,14.8264639 10.1281672,14.8356487 9.95238095,14.8356487 C9.77659475,14.8356487 9.6029278,14.8264639 9.4318229,14.8085425 L9.05791716,15.8148414 C8.73554027,15.7664184 8.42159916,15.6922244 8.11825835,15.5944241 L8.21422196,14.5213675 C7.88811072,14.3989363 7.57805143,14.2430477 7.28811301,14.0578205 L6.52254013,14.7987371 C6.25522583,14.6108501 6.00401939,14.4015945 5.771403,14.1734525 L6.31767476,13.2494164 C6.08673963,13.0019165 5.88020566,12.7308381 5.70196777,12.4401237 L4.70788396,12.7676996 C4.54909428,12.4769075 4.41378524,12.1714549 4.30450533,11.8538903 L5.17585367,11.2722729 C5.08091887,10.9614769 5.01477346,10.6378808 4.98057131,10.3046772 L3.98651,10.1699336 C3.98281751,10.0837352 3.98095238,9.99706331 3.98095238,9.90995586 C3.98095238,9.64952033 3.99762478,9.39297885 4.02996047,9.14134051 L5.0108351,9.00718756 C5.05865938,8.68941481 5.13568358,8.38135941 5.23904984,8.08591428 L4.45879269,7.56543468 C4.59875128,7.23791219 4.76714321,6.92544127 4.96086605,6.63112437 L5.82703448,6.91707323 C5.9981064,6.66458086 6.19121311,6.42858587 6.4035482,6.21192907 L5.96314489,5.46646702 C6.23219605,5.22476062 6.52331983,5.00713675 6.83312367,4.81698795 L7.43663886,5.40205233 C7.68934345,5.25278446 7.95615399,5.12531628 8.23455431,5.02219481 L8.16234956,4.21146201 C8.50805068,4.10297744 8.86729215,4.02508256 9.23690225,3.9809491 L9.51589626,4.73451926 C9.659735,4.72192453 9.80531633,4.71549594 9.95238095,4.71549594 C10.0994456,4.71549594 10.2450269,4.72192453 10.3888656,4.73451926 Z M9.95238095,5.7898154 C7.75376166,5.7898154 5.97142857,7.57214849 5.97142857,9.77076778 C5.97142857,11.9693871 7.75376166,13.7517202 9.95238095,13.7517202 C12.1510002,13.7517202 13.9333333,11.9693871 13.9333333,9.77076778 C13.9333333,7.57214849 12.1510002,5.7898154 9.95238095,5.7898154 Z"/>
    <filter id="preference-system-e" width="133.5%" height="133.8%" x="-16.7%" y="-8.5%" filterUnits="objectBoundingBox">
      <feOffset dy="1" in="SourceAlpha" result="shadowOffsetOuter1"/>
      <feGaussianBlur in="shadowOffsetOuter1" result="shadowBlurOuter1" stdDeviation=".5"/>
      <feColorMatrix in="shadowBlurOuter1" values="0 0 0 0 0   0 0 0 0 0   0 0 0 0 0  0 0 0 0.2 0"/>
    </filter>
    <radialGradient id="preference-system-g" cx="50%" cy="50%" r="50.393%" fx="50%" fy="50%" gradientTransform="matrix(0 1 -.95019 0 .975 0)">
      <stop offset="0%" stop-color="#E2E5ED"/>
      <stop offset="48.405%" stop-color="#9DA3B5"/>
      <stop offset="100%" stop-color="#E7ECFF"/>
    </radialGradient>
  </defs>
  <g fill="none" fill-rule="evenodd" filter="url(#preference-system-a)" transform="translate(1 1)">
    <circle cx="11" cy="11" r="11" fill="url(#preference-system-b)"/>
    <use fill="#000" fill-opacity=".5" xlink:href="#preference-system-c"/>
    <use fill="#000" filter="url(#preference-system-d)" xlink:href="#preference-system-c"/>
    <g transform="translate(1.048 1.048)">
      <use fill="#000" filter="url(#preference-system-e)" xlink:href="#preference-system-f"/>
      <use fill="#585F6C" xlink:href="#preference-system-f"/>
      <path fill="url(#preference-system-g)" d="M11.8288085,0.0176237878 L12.4075784,0.149019253 C12.6670647,0.207929239 12.8411542,0.452026451 12.8123407,0.71655117 L12.6786663,1.94376049 C12.6545947,2.16475166 12.7726333,2.37686769 12.9731203,2.47289617 L13.6587107,2.80127747 C13.8605681,2.89796228 14.1015548,2.8557105 14.25848,2.69612096 L15.1107264,1.82940481 C15.2985047,1.63843837 15.6000914,1.61987977 15.809867,1.78638213 L16.2772426,2.15734568 C16.4847827,2.32207362 16.5366256,2.61584174 16.3980072,2.84165829 L15.7586286,3.88323893 C15.6422704,4.07279249 15.6583071,4.31516075 15.798626,4.48773078 L16.3114924,5.1184755 C16.4513472,5.29047491 16.684332,5.35581121 16.8932286,5.28161273 L18.0373486,4.87522987 C18.2873689,4.78642453 18.5643035,4.89858564 18.6820621,5.13634486 L18.9461804,5.66961005 C19.0645502,5.90860313 18.9844508,6.19837812 18.7601399,6.34264766 L17.7544987,6.98944368 C17.5660693,7.1106354 17.4755764,7.33824707 17.5293548,7.55573486 L17.7410622,8.41190925 C17.7934911,8.62393901 17.9719812,8.78118174 18.1889289,8.80646212 L19.4180823,8.94969234 C19.6730717,8.97940562 19.868952,9.18953704 19.8807138,9.44598222 L19.9035986,9.94494591 C19.9041748,9.95750865 19.9042983,9.97008807 19.9039691,9.9826597 L19.8972356,10.239747 C19.8930881,10.3980979 19.7731583,10.5293141 19.6158178,10.5476486 L18.2555975,10.7061517 C18.0298377,10.7324589 17.8468042,10.9013567 17.8024751,11.1242793 L17.6185911,12.0489966 C17.5766214,12.2600541 17.6680031,12.4753077 17.8489907,12.5917131 L18.9000052,13.2676918 C19.1182371,13.4080515 19.2008223,13.687027 19.0941633,13.9235643 L18.8660928,14.4293556 C18.754041,14.6778525 18.4701311,14.7988738 18.2132617,14.7076357 L17.1140042,14.3171877 C16.898361,14.2405928 16.6579564,14.3128512 16.5202773,14.4956442 L15.9292629,15.2803188 C15.7997336,15.4522915 15.7886238,15.6860074 15.9012562,15.8694914 L16.5622207,16.9462366 C16.6982032,17.1677589 16.6511682,17.4554927 16.4517257,17.6221842 L16.049212,17.9586001 C15.8398179,18.1336091 15.5311395,18.1185288 15.3398017,17.9239424 L14.5082096,17.0782312 C14.3484302,16.915739 14.1019252,16.8751964 13.8985199,16.9779557 L13.0043022,17.42971 C12.8095033,17.5281214 12.6961357,17.7370017 12.7197685,17.9539646 L12.8556975,19.201872 C12.8843111,19.4645614 12.7127851,19.7074303 12.4556508,19.7683104 L11.965447,19.8843729 C11.7035403,19.9463829 11.4372637,19.799814 11.349551,19.54536 L10.9575987,18.4083094 C10.8812684,18.1868758 10.6672129,18.043028 10.4333527,18.0560098 L9.9811148,18.0811141 C9.96177461,18.0821877 9.94238976,18.0821877 9.92304957,18.0811141 L9.47081166,18.0560098 C9.23695147,18.043028 9.02289594,18.1868758 8.94656568,18.4083094 L8.55461339,19.54536 C8.46690065,19.799814 8.20062404,19.9463829 7.93871732,19.8843729 L7.4485136,19.7683104 C7.19137926,19.7074303 7.01985324,19.4645614 7.04846684,19.201872 L7.18439584,17.9539646 C7.20802865,17.7370017 7.09466107,17.5281214 6.89986216,17.42971 L6.00564444,16.9779557 C5.80223919,16.8751964 5.5557342,16.915739 5.3959548,17.0782312 L4.56436266,17.9239424 C4.37302485,18.1185288 4.0643465,18.1336091 3.85495238,17.9586001 L3.45243863,17.6221842 C3.25299612,17.4554927 3.20596121,17.1677589 3.34194363,16.9462366 L4.00290812,15.8694914 C4.11554055,15.6860074 4.10443072,15.4522915 3.97490143,15.2803188 L3.38388703,14.4956442 C3.24620796,14.3128512 3.00580341,14.2405928 2.79016014,14.3171877 L1.6909027,14.7076357 C1.43403331,14.7988738 1.15012336,14.6778525 1.0380716,14.4293556 L0.81000105,13.9235643 C0.703342074,13.687027 0.785927275,13.4080515 1.00415918,13.2676918 L2.05517368,12.5917131 C2.23616131,12.4753077 2.32754294,12.2600541 2.28557325,12.0489966 L2.10168929,11.1242793 C2.05736018,10.9013567 1.8743267,10.7324589 1.6485669,10.7061517 L0.288346596,10.5476486 C0.131006048,10.5293141 0.0110762562,10.3980979 0.00692880564,10.239747 L0.000195297819,9.9826597 L0.000565791923,9.94494591 L0.000565791923,9.94494591 L0.0234506071,9.44598222 C0.0352123864,9.18953704 0.231092667,8.97940562 0.486082066,8.94969234 L1.71523547,8.80646212 C1.93218317,8.78118174 2.11067327,8.62393901 2.16310215,8.41190925 L2.37480952,7.55573486 C2.42858802,7.33824707 2.33809504,7.1106354 2.14966565,6.98944368 L1.14402449,6.34264766 C0.919713594,6.19837812 0.839614203,5.90860313 0.957983925,5.66961005 L1.22210226,5.13634486 C1.33986087,4.89858564 1.6167955,4.78642453 1.8668158,4.87522987 L3.01093579,5.28161273 C3.21983233,5.35581121 3.45281714,5.29047491 3.592672,5.1184755 L4.10553841,4.48773078 C4.24585725,4.31516075 4.26189402,4.07279249 4.14553578,3.88323893 L3.50615717,2.84165829 C3.36753874,2.61584174 3.41938171,2.32207362 3.62692181,2.15734568 L4.09429734,1.78638213 C4.304073,1.61987977 4.60565971,1.63843837 4.79343799,1.82940481 L5.6456844,2.69612096 C5.8026096,2.8557105 6.04359631,2.89796228 6.24545365,2.80127747 L6.93104402,2.47289617 C7.13153109,2.37686769 7.24956968,2.16475166 7.2254981,1.94376049 L7.09182363,0.71655117 C7.06301012,0.452026451 7.23709965,0.207929239 7.49658599,0.149019253 L8.0753559,0.0176237878 C8.33601887,-0.0415533233 8.59942704,0.105026613 8.68653638,0.357730146 L9.07924161,1.49696509 C9.15527439,1.71740019 9.36784839,1.8610654 9.60073407,1.849366 C9.74254198,1.84224204 9.85965802,1.83868007 9.95208218,1.83868007 C10.0445174,1.83868007 10.1616503,1.84224289 10.3034811,1.84936855 C10.5363719,1.86103054 10.7489493,1.71736366 10.8249414,1.49691111 L11.217628,0.357730146 C11.3047373,0.105026613 11.5681455,-0.0415533233 11.8288085,0.0176237878 Z M8.44405337,11.0720238 C7.43182235,9.31878825 5.51381404,8.41454322 3.62284814,8.60973547 C3.5314213,9.04288636 3.48333333,9.49201788 3.48333333,9.95238095 C3.48333333,12.9691171 5.54828597,15.5035577 8.34194327,16.2191243 C9.29617065,14.7063878 9.40044765,12.7285473 8.44405337,11.0720238 Z M16.2818909,8.60906385 C14.390621,8.41469733 12.4728533,9.31893764 11.4607085,11.0720238 C10.5043143,12.7285473 10.6085913,14.7063878 11.5627629,16.219392 C14.3563974,15.5036542 16.4214286,12.9691745 16.4214286,9.95238095 C16.4214286,9.56403787 16.3872096,9.18368705 16.3216225,8.81417922 L16.3216225,8.81417922 Z M9.95239308,8.95643187 C9.40273826,8.95643187 8.95715499,9.40201514 8.95715499,9.95166996 C8.95715499,10.5013248 9.40273826,10.9469081 9.95239308,10.9469081 C10.5020479,10.9469081 10.9476312,10.5013248 10.9476312,9.95166996 C10.9476312,9.40201514 10.5020479,8.95643187 9.95239308,8.95643187 Z M9.95238095,3.48333333 C8.15598102,3.48333333 6.5306002,4.21555318 5.35799011,5.39826397 C6.10815296,7.1960084 7.88271204,8.45952381 9.95238095,8.45952381 C12.0220499,8.45952381 13.7966089,7.1960084 14.5463489,5.39781831 C13.3741617,4.21555318 11.7487809,3.48333333 9.95238095,3.48333333 Z"/>
    </g>
  </g>
</svg>
