<svg xmlns="http://www.w3.org/2000/svg" xmlns:xlink="http://www.w3.org/1999/xlink" width="24" height="24" viewBox="0 0 24 24">
  <defs>
    <filter id="dde-calendar24-a" width="130%" height="135%" x="-12.5%" y="-12.5%" filterUnits="objectBoundingBox">
      <feOffset in="SourceAlpha" result="shadowOffsetOuter1"/>
      <feGaussianBlur in="shadowOffsetOuter1" result="shadowBlurOuter1" stdDeviation=".5"/>
      <feComposite in="shadowBlurOuter1" in2="SourceAlpha" operator="out" result="shadowBlurOuter1"/>
      <feColorMatrix in="shadowBlurOuter1" result="shadowMatrixOuter1" values="0 0 0 0 0   0 0 0 0 0   0 0 0 0 0  0 0 0 0.15 0"/>
      <feMerge>
        <feMergeNode in="shadowMatrixOuter1"/>
        <feMergeNode in="SourceGraphic"/>
      </feMerge>
    </filter>
    <radialGradient id="dde-calendar24-b" cx="54.324%" cy="55.779%" r="59.616%" fx="54.324%" fy="55.779%" gradientTransform="matrix(-.85072 -.52562 .66476 -1.07591 .634 1.444)">
      <stop offset="0%"/>
      <stop offset="100%" stop-opacity=".148"/>
    </radialGradient>
    <path id="dde-calendar24-d" d="M9.60759494,14 L9.60759494,12.862585 L6.51923106,12.862585 L9.11966671,9.66258503 C9.4449522,9.25623583 9.60759494,8.79183673 9.60759494,8.26938776 C9.60020208,7.61632653 9.37656832,7.07755102 8.93669363,6.65306122 C8.50421179,6.22494331 7.94050684,6.00725624 7.24557876,6 C6.6245792,6.00725624 6.10153493,6.22131519 5.67644595,6.64217687 C5.25505339,7.0739229 5.02957141,7.61995465 5,8.28027211 L5,8.28027211 L6.15328489,8.28027211 C6.19394558,7.91746032 6.32332049,7.63628118 6.54140962,7.43673469 C6.7521059,7.23718821 7.01640035,7.13741497 7.33429298,7.13741497 C7.6928463,7.1446712 7.97007824,7.25895692 8.16598882,7.48027211 C8.35450654,7.7015873 8.4487654,7.96099773 8.4487654,8.2585034 C8.4487654,8.37097506 8.4339797,8.49070295 8.40440829,8.61768707 C8.36005118,8.75192744 8.2768816,8.89705215 8.15489954,9.05306122 L8.15489954,9.05306122 L5,12.9278912 L5,14 L9.60759494,14 Z M12.8652433,13.9493671 L15.6075949,7.13951833 L15.6075949,6 L11,6 L11,8.28994114 L12.1602257,8.28994114 L12.1602257,7.13951833 L14.3085862,7.13951833 L11.5717859,13.9493671 L12.8652433,13.9493671 Z"/>
    <filter id="dde-calendar24-c" width="137.7%" height="150%" x="-18.9%" y="-12.5%" filterUnits="objectBoundingBox">
      <feOffset dy="1" in="SourceAlpha" result="shadowOffsetOuter1"/>
      <feGaussianBlur in="shadowOffsetOuter1" result="shadowBlurOuter1" stdDeviation=".5"/>
      <feColorMatrix in="shadowBlurOuter1" values="0 0 0 0 0   0 0 0 0 0.423732517   0 0 0 0 1  0 0 0 0.2 0"/>
    </filter>
    <linearGradient id="dde-calendar24-g" x1="71.773%" x2="57.695%" y1="71.097%" y2="57.701%">
      <stop offset="0%" stop-color="#C6C6C6"/>
      <stop offset="53.052%" stop-color="#E7E7E7"/>
      <stop offset="100%" stop-color="#F4F4F4"/>
    </linearGradient>
    <path id="dde-calendar24-f" d="M20,13 C20,13 19.8404717,14.4522847 19.5,15 C18.9609375,15.8671875 18.25,15.5859375 17.5,16.5 C16.75,17.4140625 17.125,18.0390625 16,19 C15.3971089,19.5149695 13.5,20 13.5,20 C18.1640625,20 20,15.5078125 20,13 Z"/>
    <filter id="dde-calendar24-e" width="161.5%" height="157.1%" x="-30.8%" y="-14.3%" filterUnits="objectBoundingBox">
      <feOffset dy="1" in="SourceAlpha" result="shadowOffsetOuter1"/>
      <feGaussianBlur in="shadowOffsetOuter1" result="shadowBlurOuter1" stdDeviation=".5"/>
      <feColorMatrix in="shadowBlurOuter1" values="0 0 0 0 0   0 0 0 0 0   0 0 0 0 0  0 0 0 0.05 0"/>
    </filter>
  </defs>
  <g fill="none" fill-rule="evenodd" filter="url(#dde-calendar24-a)" transform="rotate(-8 25.3 -3.3)">
    <rect width="20" height="20" fill="#FFF" rx="3.656"/>
    <path fill="url(#dde-calendar24-b)" fill-opacity=".39" d="M20,13.5 L20,16.34375 C20,18.3630411 18.3630411,20 16.34375,20 L13.5,20 C15.4891796,19.7177472 17.0172515,18.9041859 18.0842157,17.559316 C19.1511798,16.2144461 19.7897746,14.8613408 20,13.5 Z"/>
    <path fill="#E06164" fill-rule="nonzero" d="M4.7035,4.7 L4.7035,3.426 C4.7035,3.195 4.672,2.8625 4.6545,2.628 L4.6685,2.628 L4.8715,3.223 L5.323,4.4515 L5.575,4.4515 L6.023,3.223 L6.2295,2.628 L6.2435,2.628 C6.2225,2.8625 6.191,3.195 6.191,3.426 L6.191,4.7 L6.569,4.7 L6.569,2.1205 L6.1,2.1205 L5.6345,3.426 L5.4665,3.944 L5.4665,3.944 L5.449,3.944 C5.3895,3.7725 5.337,3.5975 5.2775,3.426 L4.805,2.1205 L4.3395,2.1205 L4.3395,4.7 L4.7035,4.7 Z M7.318,4.7 L7.5385,3.965 L8.4345,3.965 L8.6515,4.7 L9.082,4.7 L8.228,2.1205 L7.759,2.1205 L6.905,4.7 L7.318,4.7 Z M8.3365,3.6465 L7.633,3.6465 L7.738,3.3 C7.822,3.02 7.9025,2.7365 7.976,2.4425 L7.9935,2.4425 C8.0705,2.733 8.1475,3.02 8.235,3.3 L8.3365,3.6465 Z M9.8275,4.7 L9.8275,3.6605 L10.244,3.6605 L10.8285,4.7 L11.287,4.7 L10.657,3.608 C10.9825,3.5065 11.196,3.2685 11.196,2.8695 C11.196,2.313 10.797,2.1205 10.265,2.1205 L9.4215,2.1205 L9.4215,4.7 L9.8275,4.7 Z M10.216,3.335 L9.8275,3.335 L9.8275,2.4495 L10.216,2.4495 C10.5905,2.4495 10.7935,2.558 10.7935,2.8695 C10.7935,3.181 10.5905,3.335 10.216,3.335 Z M12.722,4.7455 C13.0545,4.7455 13.317,4.6125 13.5235,4.3745 L13.3065,4.119 C13.1525,4.287 12.974,4.392 12.736,4.392 C12.281,4.392 11.994,4.0175 11.994,3.405 C11.994,2.7995 12.302,2.4285 12.7465,2.4285 C12.9565,2.4285 13.1175,2.523 13.2505,2.6595 L13.471,2.4005 C13.3135,2.229 13.0615,2.075 12.7395,2.075 C12.0885,2.075 11.5775,2.579 11.5775,3.419 C11.5775,4.2625 12.0745,4.7455 12.722,4.7455 Z M14.3845,4.7 L14.3845,3.5275 L15.487,3.5275 L15.487,4.7 L15.893,4.7 L15.893,2.1205 L15.487,2.1205 L15.487,3.174 L14.3845,3.174 L14.3845,2.1205 L13.9785,2.1205 L13.9785,4.7 L14.3845,4.7 Z"/>
    <g fill-rule="nonzero">
      <use fill="#000" filter="url(#dde-calendar24-c)" xlink:href="#dde-calendar24-d"/>
      <use fill="#2D394F" xlink:href="#dde-calendar24-d"/>
    </g>
    <path fill="#2D394F" fill-rule="nonzero" d="M6.402,17 L6.402,16.272 C6.402,16.14 6.384,15.95 6.374,15.816 L6.382,15.816 L6.498,16.156 L6.756,16.858 L6.9,16.858 L7.156,16.156 L7.274,15.816 L7.282,15.816 C7.27,15.95 7.252,16.14 7.252,16.272 L7.252,17 L7.468,17 L7.468,15.526 L7.2,15.526 L6.934,16.272 L6.838,16.568 L6.838,16.568 L6.828,16.568 L6.73,16.272 L6.73,16.272 L6.46,15.526 L6.194,15.526 L6.194,17 L6.402,17 Z M8.414,17.026 C8.792,17.026 9.056,16.732 9.056,16.258 C9.056,15.784 8.792,15.5 8.414,15.5 C8.036,15.5 7.774,15.784 7.774,16.258 C7.774,16.732 8.036,17.026 8.414,17.026 Z M8.414,16.824 C8.17,16.824 8.012,16.602 8.012,16.258 C8.012,15.912 8.17,15.702 8.414,15.702 C8.658,15.702 8.818,15.912 8.818,16.258 C8.818,16.602 8.658,16.824 8.414,16.824 Z M9.582,17 L9.582,16.306 C9.582,16.146 9.564,15.976 9.552,15.824 L9.562,15.824 L9.716,16.132 L10.204,17 L10.442,17 L10.442,15.526 L10.222,15.526 L10.222,16.214 C10.222,16.374 10.24,16.552 10.252,16.704 L10.242,16.704 L10.088,16.392 L9.6,15.526 L9.362,15.526 L9.362,17 L9.582,17 Z M11.224,17 C11.664,17 11.922,16.736 11.922,16.258 C11.922,15.778 11.664,15.526 11.212,15.526 L10.83,15.526 L10.83,17 L11.224,17 Z M11.196,16.81 L11.062,16.81 L11.062,15.716 L11.196,15.716 C11.512,15.716 11.682,15.89 11.682,16.258 C11.682,16.624 11.512,16.81 11.196,16.81 Z M12.27,17 L12.396,16.58 L12.908,16.58 L13.032,17 L13.278,17 L12.79,15.526 L12.522,15.526 L12.034,17 L12.27,17 Z M12.852,16.398 L12.45,16.398 L12.51,16.2 C12.558,16.04 12.604,15.878 12.646,15.71 L12.656,15.71 C12.7,15.876 12.744,16.04 12.794,16.2 L12.852,16.398 Z M13.946,17 L13.946,16.442 L14.39,15.526 L14.148,15.526 L13.976,15.918 C13.932,16.028 13.884,16.13 13.836,16.242 L13.828,16.242 C13.778,16.13 13.736,16.028 13.69,15.918 L13.52,15.526 L13.272,15.526 L13.714,16.442 L13.714,17 L13.946,17 Z"/>
    <use fill="#000" filter="url(#dde-calendar24-e)" xlink:href="#dde-calendar24-f"/>
    <use fill="url(#dde-calendar24-g)" xlink:href="#dde-calendar24-f"/>
  </g>
</svg>
