<?xml version="1.0" encoding="UTF-8"?>
<svg width="96px" height="96px" viewBox="0 0 96 96" version="1.1" xmlns="http://www.w3.org/2000/svg" xmlns:xlink="http://www.w3.org/1999/xlink">
    <!-- Generator: Sketch 56.2 (81672) - https://sketch.com -->
    <title>DDE</title>
    <desc>Created with Sketch.</desc>
    <defs>
        <filter x="-8.3%" y="-8.3%" width="116.7%" height="116.7%" filterUnits="objectBoundingBox" id="filter-1">
            <feOffset dx="0" dy="2" in="SourceAlpha" result="shadowOffsetOuter1"></feOffset>
            <feGaussianBlur stdDeviation="1" in="shadowOffsetOuter1" result="shadowBlurOuter1"></feGaussianBlur>
            <feColorMatrix values="0 0 0 0 0   0 0 0 0 0   0 0 0 0 0  0 0 0 0.2 0" type="matrix" in="shadowBlurOuter1" result="shadowMatrixOuter1"></feColorMatrix>
            <feMerge>
                <feMergeNode in="shadowMatrixOuter1"></feMergeNode>
                <feMergeNode in="SourceGraphic"></feMergeNode>
            </feMerge>
        </filter>
        <rect id="path-2" x="5" y="10" width="86" height="73.5777778" rx="8"></rect>
        <filter x="-6.0%" y="-9.2%" width="112.0%" height="118.4%" filterUnits="objectBoundingBox" id="filter-4">
            <feOffset dx="0" dy="2" in="SourceAlpha" result="shadowOffsetOuter1"></feOffset>
            <feGaussianBlur stdDeviation="1" in="shadowOffsetOuter1" result="shadowBlurOuter1"></feGaussianBlur>
            <feColorMatrix values="0 0 0 0 0   0 0 0 0 0   0 0 0 0 0  0 0 0 0.2 0" type="matrix" in="shadowBlurOuter1" result="shadowMatrixOuter1"></feColorMatrix>
            <feMerge>
                <feMergeNode in="shadowMatrixOuter1"></feMergeNode>
                <feMergeNode in="SourceGraphic"></feMergeNode>
            </feMerge>
        </filter>
        <linearGradient x1="50%" y1="3.4731832%" x2="50%" y2="93.693785%" id="linearGradient-5">
            <stop stop-color="#360094" offset="0%"></stop>
            <stop stop-color="#1A009E" offset="100%"></stop>
        </linearGradient>
        <linearGradient x1="50%" y1="0%" x2="50%" y2="97.5047832%" id="linearGradient-6">
            <stop stop-color="#0D0058" offset="0%"></stop>
            <stop stop-color="#2C29B1" offset="100%"></stop>
        </linearGradient>
    </defs>
    <g id="帮助手册" stroke="none" stroke-width="1" fill="none" fill-rule="evenodd">
        <g id="首页" transform="translate(-149.000000, -175.000000)">
            <g id="item">
                <g transform="translate(117.000000, 156.000000)">
                    <g id="DDE" filter="url(#filter-1)" transform="translate(32.000000, 19.000000)">
                        <mask id="mask-3" fill="white">
                            <use xlink:href="#path-2"></use>
                        </mask>
                        <use id="Mask" fill-opacity="0" fill="#D8D8D8" xlink:href="#path-2"></use>
                        <g id="Group-24" mask="url(#mask-3)">
                            <g transform="translate(-19.000000, 9.956173)" id="Group-3">
                                <g filter="url(#filter-4)" transform="translate(0.285714, 0.000000)">
                                    <path d="M23.7142857,8.04044108 C23.7142857,3.62403316 27.3001081,0.0438271605 31.7084708,0.0438271605 L101.720101,0.0438271605 C106.135167,0.0438271605 109.714286,3.6175017 109.714286,8.04044108 L109.714286,65.624991 C109.714286,70.0413989 106.128463,73.6216049 101.720101,73.6216049 L31.7084708,73.6216049 C27.2934043,73.6216049 23.7142857,70.0479304 23.7142857,65.624991 L23.7142857,8.04044108 Z" id="Rectangle-path" fill="url(#linearGradient-5)"></path>
                                    <g id="Group-2" transform="translate(0.142857, 32.745062)">
                                        <polygon id="Shape" fill="#5D40B4" points="0.0842083141 34.8178976 18.8590553 27.1859453 28.6437589 30.5983551 47.1730207 21.1398699 69.9568394 0.106676303 74.9598144 6.01016469 77.6641253 6.01016469 80.1994167 3.13906925 89.5630929 12.6556216 92.8092801 10.2861613 131.04046 32.0758402 131.04046 44.7215639 1.23354042 44.7215639"></polygon>
                                        <polygon id="Shape" fill="#745ECC" points="80.4360439 11.7846151 85.7391974 8.76931967 80.2159806 3.13906925"></polygon>
                                        <polygon id="Shape" fill="#654DC7" transform="translate(87.346741, 12.302896) scale(-1, 1) translate(-87.346741, -12.302896) " points="85.0617676 12.6879133 89.6317148 15.8364405 88.954285 8.76935193"></polygon>
                                        <polygon id="Shape" fill="#6546C2" transform="translate(83.087621, 12.302896) scale(-1, 1) translate(-83.087621, -12.302896) " points="85.7391974 11.7846473 81.1134737 15.8364405 80.4360439 8.76935193"></polygon>
                                        <polyline id="Shape" fill="#9793DF" points="69.9568394 26.8030573 92.8082659 10.2861936 95.1069301 30.8032352 85.5404306 25.3013776 69.9568394 26.8030573"></polyline>
                                        <polyline id="Shape" fill="#7B6EDF" points="69.9568394 26.8030573 92.8082659 10.2861936 95.1069301 30.8032352 85.5404306 25.3013776 69.9568394 26.8030573"></polyline>
                                        <polygon id="Shape" fill="#9683E4" points="28.6146876 30.5919032 18.8453647 27.1723963 47.1730207 21.1398699"></polygon>
                                        <polygon id="Shape" fill="#A995EA" points="37.6558748 25.9833111 18.8453647 27.1723963 47.1730207 21.1398699"></polygon>
                                        <polygon id="Shape" fill="#765BE1" points="28.6146876 30.5919032 18.8453647 27.1723963 1.25044236 34.2865837"></polygon>
                                        <polygon id="Shape" fill="#846AE4" points="28.6146876 30.5919032 18.8453647 27.1723963 10.0942825 30.7293287 13.8687567 32.5871533"></polygon>
                                        <polygon id="Shape" fill="#C998F3" points="55.9958347 25.3013453 47.1730207 21.1398699 69.9568394 0.106676303"></polygon>
                                        <polygon id="Shape" fill="#A995EA" points="55.9958347 25.3013453 47.1730207 21.1398699 62.3600922 13.8147054"></polygon>
                                        <polygon id="Shape" fill="#9B8FE6" points="55.9958347 25.3013453 69.9568394 0.106676303 71.3766026 6.39727868"></polygon>
                                        <polygon id="Shape" fill="#B097EE" points="62.3563738 13.8198669 69.9568394 0.106676303 71.3766026 6.39727868"></polygon>
                                        <polygon id="Shape" fill="#B4A1EA" points="80.1994167 3.13906925 75.1288339 8.81674114 77.3237202 12.6878811 80.4360439 11.7846151"></polygon>
                                        <polygon id="Shape" fill="#C8A0EB" points="80.1994167 3.13906925 75.1288339 8.81674114 77.3237202 12.6878811"></polygon>
                                        <polygon id="Shape" fill="#9C91E8" points="75.1289015 8.82132199 69.0756397 18.0797983 73.132106 18.0797983 77.3237878 12.6879456"></polygon>
                                        <polygon id="Shape" fill="#8B7DE4" points="75.1289015 8.82132199 69.0756397 18.0797983 73.132106 18.0797983"></polygon>
                                        <polygon id="Shape" fill="#9A8EEE" points="28.6146876 30.5919032 50.9938738 29.6525066 47.1730207 21.1398699"></polygon>
                                        <polygon id="Shape" fill="#6B44CD" points="28.6146876 30.5919032 50.9938738 29.6525066 57.9311072 31.5587204 25.7374361 44.7215639"></polygon>
                                        <polygon id="Shape" fill="#8D81EE" points="47.1730207 21.1398699 50.9938738 29.6525066 55.9958347 25.3013453"></polygon>
                                        <polygon id="Shape" fill="#8F77F1" points="95.1069977 30.8032029 85.5523295 25.3023131 69.956907 26.6562443 3.51300402 53.802613"></polygon>
                                        <polygon id="Shape" fill="#846AE4" points="69.956738 26.656212 72.6370481 26.4245888 55.9957333 40.613607 44.6874886 36.9573154"></polygon>
                                        <polygon id="Shape" fill="#A68BEA" points="92.8105646 10.2862581 69.9567718 26.6563411 85.5464477 25.3020873 92.9988522 12.0047216"></polygon>
                                        <polygon id="Shape" fill="#6244BD" points="131.04046 32.0730014 92.8105308 10.2861936 131.057362 44.7216285"></polygon>
                                        <polygon id="Shape" fill="#6A58BC" points="131.04046 44.7216285 95.1070316 30.8032675 115.860488 44.7216285"></polygon>
                                        <polygon id="Shape" fill="#7D6DDF" points="63.6524148 15.8815715 69.9568394 26.6562443 55.9958347 25.3013453"></polygon>
                                        <polygon id="Shape" fill="#735ED3" points="63.6524148 15.8815715 69.9568394 26.6562443 71.980678 19.753034 69.0755721 18.0797338"></polygon>
                                        <polyline id="Shape" fill="#6F5ACA" points="80.4360439 11.7846151 85.0617676 15.8364082 80.8514936 18.8517036 77.3429884 12.6878811"></polyline>
                                        <polyline id="Shape" fill="#6953C8" points="73.1273058 18.0797338 76.7095036 21.819255 80.8514936 18.8517036 77.3429884 12.6878811"></polyline>
                                        <polygon id="Shape" fill="#6F5ACA" points="69.4038078 8.82480601 72.9129892 12.190117 69.0755721 18.0797338 63.6534289 15.8815715"></polygon>
                                        <polygon id="Shape" fill="#7863D3" points="71.3766026 6.39727868 75.1288339 8.82125747 72.9129892 12.2362481 69.4038078 8.82125747"></polygon>
                                        <polygon id="Shape" fill="#7863D3" points="71.3766026 6.39727868 75.1288339 8.82125747 72.9129892 12.2362481 69.4038078 8.82125747"></polygon>
                                        <polygon id="Shape" fill="#7D69D8" points="71.3766026 6.39727868 75.1288339 8.82125747 72.9129892 12.2362481"></polygon>
                                        <polygon id="Shape" fill="#5745A9" points="74.9344615 6.01009372 77.5880665 6.01009372 76.2849268 7.77381306"></polygon>
                                        <polygon id="Shape" fill="#8677D9" points="69.0755721 18.0797015 73.120207 18.0797015 71.9789878 19.8434209"></polygon>
                                        <polygon id="Shape" fill="#7565D4" points="76.7098416 21.8192227 73.120207 18.0797015 71.9789878 19.7530018"></polygon>
                                        <polygon id="Shape" fill="#6E52D4" points="50.990561 29.6423126 55.9959024 25.3014744 57.9318509 31.5585269"></polygon>
                                        <polygon id="Shape" fill="#765DD7" points="50.990561 29.6423126 44.6874886 36.9571541 57.9318509 31.5585269"></polygon>
                                        <polygon id="Shape" fill="#7763D2" points="69.956907 26.6563733 55.9959024 25.3014744 57.9318509 31.5585269"></polygon>
                                        <polygon id="Shape" fill="#7E65D9" points="71.9828246 19.7530018 69.9569577 26.656212 76.7096219 21.8192227"></polygon>
                                        <polygon id="Shape" fill="#7E65D9" points="71.9828246 19.7530018 69.9569577 26.656212 76.7096219 21.8192227"></polygon>
                                        <polygon id="Shape" fill="#6E59CC" points="1.25092322 44.7211612 28.6149079 30.5920324 25.7372015 44.7211612"></polygon>
                                        <polygon id="Shape" fill="#6E49D3" points="1.25092322 44.7211612 26.9788287 38.6120746 25.7372015 44.7211612"></polygon>
                                        <polygon id="Shape" fill="#604BBD" points="1.25092322 44.7211612 28.6149079 30.5920324 13.9058837 32.5796254"></polygon>
                                        <polygon id="Shape" fill="#7260C5" points="39.7538089 44.7217266 95.1070743 30.8035992 115.860627 44.7217266"></polygon>
                                        <polygon id="Shape" fill="#7661D4" points="44.7621276 36.9573476 55.9958347 40.6217042 39.7534059 44.7215639 25.7374361 44.7215639"></polygon>
                                        <polygon id="Shape" fill="#887BE1" points="72.6364396 26.4239759 69.9568394 26.6562443 76.7096726 21.819255"></polygon>
                                        <polygon id="Shape" fill="#C096E3" points="92.8102942 10.2861613 92.9985818 12.0036571 76.7096726 21.819255"></polygon>
                                    </g>
                                    <rect id="Mask" fill="url(#linearGradient-6)" opacity="0.7" style="mix-blend-mode: soft-light;" x="24" y="0" width="86" height="73.5777778" rx="8"></rect>
                                    <g id="Group-8" transform="translate(34.000000, 59.000000)">
                                        <rect id="Rectangle" fill="#000000" opacity="0.5" x="0" y="0" width="65" height="13" rx="1"></rect>
                                        <circle id="Oval" stroke="#FFFFFF" fill="#9DB5FF" cx="8" cy="7" r="3.5"></circle>
                                        <circle id="Oval" stroke="#FFFFFF" fill="#9DB5FF" cx="56" cy="7" r="3.5"></circle>
                                        <rect id="Rectangle-2" stroke="#FFFFFF" fill="#9DB5FF" x="20.2142857" y="3.5" width="7" height="7"></rect>
                                        <path d="M43.8905607,3.79019628 L37.7600731,2.58572735 L36.3097328,9.47699197 L43.0518658,10.6823988 L43.8905607,3.79019628 Z" id="Rectangle-2" stroke="#FFFFFF" fill="#9DB5FF"></path>
                                    </g>
                                </g>
                            </g>
                        </g>
                    </g>
                </g>
            </g>
        </g>
    </g>
</svg>