<svg xmlns="http://www.w3.org/2000/svg" xmlns:xlink="http://www.w3.org/1999/xlink" width="24" height="24" viewBox="0 0 24 24">
  <defs>
    <filter id="deepin-contacts-a" width="127.8%" height="125%" x="-13.9%" y="-12.5%" filterUnits="objectBoundingBox">
      <feOffset in="SourceAlpha" result="shadowOffsetOuter1"/>
      <feGaussianBlur in="shadowOffsetOuter1" result="shadowBlurOuter1" stdDeviation=".5"/>
      <feComposite in="shadowBlurOuter1" in2="SourceAlpha" operator="out" result="shadowBlurOuter1"/>
      <feColorMatrix in="shadowBlurOuter1" result="shadowMatrixOuter1" values="0 0 0 0 0   0 0 0 0 0   0 0 0 0 0  0 0 0 0.15 0"/>
      <feMerge>
        <feMergeNode in="shadowMatrixOuter1"/>
        <feMergeNode in="SourceGraphic"/>
      </feMerge>
    </filter>
    <linearGradient id="deepin-contacts-b" x1="50%" x2="50%" y1="0%" y2="100%">
      <stop offset="0%" stop-color="#F66D6D"/>
      <stop offset="100%" stop-color="#F44343"/>
    </linearGradient>
    <rect id="deepin-contacts-c" width="3" height="5" x="15" y="12" rx=".469"/>
    <filter id="deepin-contacts-d" width="200%" height="160%" x="-50%" y="-30%" filterUnits="objectBoundingBox">
      <feGaussianBlur in="SourceAlpha" result="shadowBlurInner1" stdDeviation=".5"/>
      <feOffset dx="2" dy="1" in="shadowBlurInner1" result="shadowOffsetInner1"/>
      <feComposite in="shadowOffsetInner1" in2="SourceAlpha" k2="-1" k3="1" operator="arithmetic" result="shadowInnerInner1"/>
      <feColorMatrix in="shadowInnerInner1" result="shadowMatrixInner1" values="0 0 0 0 0   0 0 0 0 0   0 0 0 0 0  0 0 0 0.130272072 0"/>
      <feOffset dy="-1" in="SourceAlpha" result="shadowOffsetInner2"/>
      <feComposite in="shadowOffsetInner2" in2="SourceAlpha" k2="-1" k3="1" operator="arithmetic" result="shadowInnerInner2"/>
      <feColorMatrix in="shadowInnerInner2" result="shadowMatrixInner2" values="0 0 0 0 0   0 0 0 0 0   0 0 0 0 0  0 0 0 0.1 0"/>
      <feMerge>
        <feMergeNode in="shadowMatrixInner1"/>
        <feMergeNode in="shadowMatrixInner2"/>
      </feMerge>
    </filter>
    <linearGradient id="deepin-contacts-e" x1="50%" x2="50%" y1="7.679%" y2="99.016%">
      <stop offset="0%" stop-color="#C896E5"/>
      <stop offset="100%" stop-color="#BD80DF"/>
    </linearGradient>
    <rect id="deepin-contacts-f" width="3" height="5" x="15" y="7" rx=".469"/>
    <filter id="deepin-contacts-g" width="200%" height="160%" x="-50%" y="-30%" filterUnits="objectBoundingBox">
      <feGaussianBlur in="SourceAlpha" result="shadowBlurInner1" stdDeviation=".5"/>
      <feOffset dx="2" dy="1" in="shadowBlurInner1" result="shadowOffsetInner1"/>
      <feComposite in="shadowOffsetInner1" in2="SourceAlpha" k2="-1" k3="1" operator="arithmetic" result="shadowInnerInner1"/>
      <feColorMatrix in="shadowInnerInner1" result="shadowMatrixInner1" values="0 0 0 0 0   0 0 0 0 0   0 0 0 0 0  0 0 0 0.130272072 0"/>
      <feOffset dy="-1" in="SourceAlpha" result="shadowOffsetInner2"/>
      <feComposite in="shadowOffsetInner2" in2="SourceAlpha" k2="-1" k3="1" operator="arithmetic" result="shadowInnerInner2"/>
      <feColorMatrix in="shadowInnerInner2" result="shadowMatrixInner2" values="0 0 0 0 0   0 0 0 0 0   0 0 0 0 0  0 0 0 0.1 0"/>
      <feMerge>
        <feMergeNode in="shadowMatrixInner1"/>
        <feMergeNode in="shadowMatrixInner2"/>
      </feMerge>
    </filter>
    <linearGradient id="deepin-contacts-h" x1="50%" x2="50%" y1="0%" y2="100%">
      <stop offset="0%" stop-color="#7CBDF8"/>
      <stop offset="100%" stop-color="#469DF0"/>
    </linearGradient>
    <rect id="deepin-contacts-i" width="3" height="5" x="15" y="2" rx=".469"/>
    <filter id="deepin-contacts-j" width="200%" height="160%" x="-50%" y="-30%" filterUnits="objectBoundingBox">
      <feGaussianBlur in="SourceAlpha" result="shadowBlurInner1" stdDeviation=".5"/>
      <feOffset dx="2" in="shadowBlurInner1" result="shadowOffsetInner1"/>
      <feComposite in="shadowOffsetInner1" in2="SourceAlpha" k2="-1" k3="1" operator="arithmetic" result="shadowInnerInner1"/>
      <feColorMatrix in="shadowInnerInner1" result="shadowMatrixInner1" values="0 0 0 0 0   0 0 0 0 0   0 0 0 0 0  0 0 0 0.130272072 0"/>
      <feOffset dy="-1" in="SourceAlpha" result="shadowOffsetInner2"/>
      <feComposite in="shadowOffsetInner2" in2="SourceAlpha" k2="-1" k3="1" operator="arithmetic" result="shadowInnerInner2"/>
      <feColorMatrix in="shadowInnerInner2" result="shadowMatrixInner2" values="0 0 0 0 0   0 0 0 0 0   0 0 0 0 0  0 0 0 0.1 0"/>
      <feMerge>
        <feMergeNode in="shadowMatrixInner1"/>
        <feMergeNode in="shadowMatrixInner2"/>
      </feMerge>
    </filter>
    <radialGradient id="deepin-contacts-k" cx="55.444%" cy="0%" r="106.291%" fx="55.444%" fy="0%" gradientTransform="scale(1 .8) rotate(79.446 .554 0)">
      <stop offset="0%" stop-color="#FAFAFA"/>
      <stop offset="100%" stop-color="#DAE2FB"/>
    </radialGradient>
    <path id="deepin-contacts-l" d="M1.875,0 L13.1875,0 C14.7408009,-2.85336739e-16 16,1.25919914 16,2.8125 L16,17.1875 C16,18.7408009 14.7408009,20 13.1875,20 L1.875,20 C0.839466094,20 1.26816328e-16,19.1605339 0,18.125 L0,1.875 C-1.26816328e-16,0.839466094 0.839466094,1.90224492e-16 1.875,0 Z"/>
    <filter id="deepin-contacts-m" width="106.2%" height="105%" x="-3.1%" y="-2.5%" filterUnits="objectBoundingBox">
      <feOffset dy="-1" in="SourceAlpha" result="shadowOffsetInner1"/>
      <feComposite in="shadowOffsetInner1" in2="SourceAlpha" k2="-1" k3="1" operator="arithmetic" result="shadowInnerInner1"/>
      <feColorMatrix in="shadowInnerInner1" result="shadowMatrixInner1" values="0 0 0 0 0   0 0 0 0 0   0 0 0 0 0  0 0 0 0.1 0"/>
      <feOffset dy="1" in="SourceAlpha" result="shadowOffsetInner2"/>
      <feComposite in="shadowOffsetInner2" in2="SourceAlpha" k2="-1" k3="1" operator="arithmetic" result="shadowInnerInner2"/>
      <feColorMatrix in="shadowInnerInner2" result="shadowMatrixInner2" values="0 0 0 0 1   0 0 0 0 1   0 0 0 0 1  0 0 0 0.246640079 0"/>
      <feMerge>
        <feMergeNode in="shadowMatrixInner1"/>
        <feMergeNode in="shadowMatrixInner2"/>
      </feMerge>
    </filter>
    <linearGradient id="deepin-contacts-n" x1="50%" x2="50%" y1="0%" y2="100%">
      <stop offset="0%" stop-color="#3C88FB"/>
      <stop offset="100%" stop-color="#587ECE"/>
    </linearGradient>
    <linearGradient id="deepin-contacts-o" x1="50%" x2="50%" y1="0%" y2="100%">
      <stop offset="0%" stop-color="#3C88FB"/>
      <stop offset="100%" stop-color="#587ECE"/>
    </linearGradient>
  </defs>
  <g fill="none" fill-rule="evenodd" filter="url(#deepin-contacts-a)" transform="rotate(-8 24.8 -10.451)">
    <use fill="url(#deepin-contacts-b)" xlink:href="#deepin-contacts-c"/>
    <use fill="#000" filter="url(#deepin-contacts-d)" xlink:href="#deepin-contacts-c"/>
    <use fill="url(#deepin-contacts-e)" xlink:href="#deepin-contacts-f"/>
    <use fill="#000" filter="url(#deepin-contacts-g)" xlink:href="#deepin-contacts-f"/>
    <use fill="url(#deepin-contacts-h)" xlink:href="#deepin-contacts-i"/>
    <use fill="#000" filter="url(#deepin-contacts-j)" xlink:href="#deepin-contacts-i"/>
    <use fill="url(#deepin-contacts-k)" xlink:href="#deepin-contacts-l"/>
    <use fill="#000" filter="url(#deepin-contacts-m)" xlink:href="#deepin-contacts-l"/>
    <path fill="url(#deepin-contacts-n)" fill-opacity=".85" d="M6.41655277,3 C8.38302729,3 7.95921812,4.64573666 7.95921812,5.01899652 C8.19655125,5.22259281 8.07788469,5.69765081 7.84055156,5.83338167 C7.78969446,6.59686775 7.0607427,7.10585847 7.0607427,7.22462297 C7.0607427,7.34338747 7.04379033,7.47911833 7.1624569,7.6487819 C7.28112346,7.81844548 8.68816988,7.8863109 9.12893141,8.20867169 C9.37248744,8.38680184 9.58498558,8.89907988 9.76642583,9.74550584 C9.77334749,9.77779569 9.7768374,9.81072661 9.7768374,9.84375 C9.7768374,10.1026194 9.56698229,10.3124745 9.3081129,10.3125 L9.3081129,10.3125 L3.46883438,10.3125 C3.43311408,10.3125 3.39751086,10.3084166 3.36271811,10.3003293 C3.11058535,10.2417229 2.95370123,9.98981901 3.01225648,9.73767435 C3.21423729,8.86872519 3.42792414,8.35905763 3.65331703,8.20867169 C4.06017383,7.93720998 5.45026788,7.73361369 5.63674391,7.6487819 C5.82321994,7.56395012 5.73845811,7.37732019 5.73845811,7.19069026 C5.73845811,7.00406032 5.07731582,6.73259861 4.95864925,5.83338167 C4.68741139,5.62978538 4.68741139,5.23955916 4.85693505,5.01899652 C4.85693505,4.7475348 4.45007826,3 6.41655277,3 Z M9.76689968,3.09375 C11.3612665,3.09375 11.1407689,4.55773026 11.1407689,5.10246711 C11.1407689,5.64720395 11.6496094,5.93659539 11.6496094,6.22598684 C11.6496094,6.51537829 10.4962377,6.78774671 10.4114309,6.78774671 C10.3266242,6.78774671 10.3605469,6.975 10.4114309,7.16225329 C10.462315,7.34950658 11.5478413,7.2984375 12.0566818,7.57080592 C12.3328878,7.71865148 12.5753599,8.18625402 12.784098,8.97361353 C12.7944904,9.01281337 12.7997524,9.05319598 12.7997524,9.09375 C12.7997524,9.35266592 12.5898596,9.56255875 12.3309437,9.5625 L12.3309437,9.5625 L10.0891653,9.5625 C9.90259047,9.10287829 9.80082238,8.43898026 9.39375001,8.04745066 C8.98667764,7.65592105 7.88418998,7.60485197 7.76546054,7.53675987 C7.83330593,7.48569079 9.00363899,7.28141447 9.10540708,7.21332237 C9.20717518,7.14523026 9.24109787,6.92393092 9.17325248,6.83881579 C9.10540708,6.75370066 8.13861021,6.58347039 8.05380347,6.39621711 C7.96899672,6.20896382 8.42695314,5.78338816 8.42695314,5.10246711 C8.42695314,4.42154605 8.17253291,3.09375 9.76689968,3.09375 Z"/>
    <path fill="url(#deepin-contacts-o)" fill-opacity=".85" d="M12.5,15 C12.7761424,15 13,15.2238576 13,15.5 C13,15.7761424 12.7761424,16 12.5,16 L3.5,16 C3.22385763,16 3,15.7761424 3,15.5 C3,15.2238576 3.22385763,15 3.5,15 L12.5,15 Z M12.5,13 C12.7761424,13 13,13.2238576 13,13.5 C13,13.7761424 12.7761424,14 12.5,14 L3.5,14 C3.22385763,14 3,13.7761424 3,13.5 C3,13.2238576 3.22385763,13 3.5,13 L12.5,13 Z"/>
  </g>
</svg>
