<?xml version="1.0" encoding="UTF-8"?>
<svg width="24px" height="24px" viewBox="0 0 24 24" version="1.1" xmlns="http://www.w3.org/2000/svg" xmlns:xlink="http://www.w3.org/1999/xlink">
    <!-- Generator: Sketch 47.1 (45422) - http://www.bohemiancoding.com/sketch -->
    <title>deepin-system-monitor</title>
    <desc>Created with Sketch.</desc>
    <defs></defs>
    <g id="Page-1" stroke="none" stroke-width="1" fill="none" fill-rule="evenodd">
        <g id="deepin-system-monitor">
            <g>
                <rect id="Rectangle" fill="#000000" fill-rule="nonzero" opacity="0.5" x="10" y="23" width="4" height="1"></rect>
                <path d="M0.5,11.5 L23.5,11.5" id="Path-6" stroke="#000000" opacity="0.1"></path>
                <path d="M3.5,4.5 L20.5,4.5" id="Path-6" stroke="#000000" opacity="0.1"></path>
                <path d="M15.5,23 L15.5,1.33333333" id="Path-6" stroke="#000000" opacity="0.1"></path>
                <path d="M22.5,16.5 L22.5,7.5" id="Path-6" stroke="#000000" opacity="0.1"></path>
                <path d="M8.5,23 L8.5,1" id="Path-6" stroke="#000000" opacity="0.1"></path>
                <path d="M1.5,16.5 L1.5,7.5" id="Path-6" stroke="#000000" opacity="0.1"></path>
                <path d="M2.5,18.5 L21.5,18.5" id="Path-6" stroke="#000000" opacity="0.1"></path>
                <path d="M17.0481507,22.3356622 C20.8688496,20.4660476 23.5,16.5402929 23.5,12 C23.5,5.64872538 18.3512746,0.5 12,0.5 C5.64872538,0.5 0.5,5.64872538 0.5,12 C0.5,16.5502891 3.1427491,20.4833312 6.97710242,22.3479812" id="Oval-2" stroke="#000000" opacity="0.504359149" stroke-linecap="round"></path>
                <path d="M3,13.8421864 C3,13.8421864 3.66666667,15.4737834 5,15.4737834 C8,15.4737834 7,6.5 10,6.5 C13,6.5 11.3333333,15.4737834 14.3333333,15.4737834 C16.3333333,15.4737834 15.3333333,11.394791 17,11.394791 C18.6666667,11.394791 17.3333333,15.8816827 21,15.4737834" id="Path-5" stroke="#000000" stroke-linecap="round" stroke-linejoin="round"></path>
            </g>
        </g>
    </g>
</svg>