<svg xmlns="http://www.w3.org/2000/svg" xmlns:xlink="http://www.w3.org/1999/xlink" width="24" height="24" viewBox="0 0 24 24">
  <defs>
    <filter id="desktop-ai-assistant-a" width="122.7%" height="122.7%" x="-11.4%" y="-11.4%" filterUnits="objectBoundingBox">
      <feOffset in="SourceAlpha" result="shadowOffsetOuter1"/>
      <feGaussianBlur in="shadowOffsetOuter1" result="shadowBlurOuter1" stdDeviation=".5"/>
      <feComposite in="shadowBlurOuter1" in2="SourceAlpha" operator="out" result="shadowBlurOuter1"/>
      <feColorMatrix in="shadowBlurOuter1" result="shadowMatrixOuter1" values="0 0 0 0 0   0 0 0 0 0   0 0 0 0 0  0 0 0 0.15 0"/>
      <feMerge>
        <feMergeNode in="shadowMatrixOuter1"/>
        <feMergeNode in="SourceGraphic"/>
      </feMerge>
    </filter>
    <radialGradient id="desktop-ai-assistant-c" cx="41.862%" cy="21.344%" r="63.627%" fx="41.862%" fy="21.344%">
      <stop offset="0%" stop-color="#FFF"/>
      <stop offset="100%" stop-color="#B6E6FF"/>
    </radialGradient>
    <circle id="desktop-ai-assistant-b" cx="11" cy="11" r="11"/>
    <linearGradient id="desktop-ai-assistant-d" x1="0%" x2="50%" y1="24.583%" y2="85.799%">
      <stop offset="0%" stop-color="#0709B6"/>
      <stop offset="100%" stop-color="#0091A0"/>
    </linearGradient>
    <linearGradient id="desktop-ai-assistant-f" x1="100%" x2="37.123%" y1="100%" y2="100%">
      <stop offset="0%" stop-color="#D4FF00"/>
      <stop offset="100%" stop-color="#07F"/>
    </linearGradient>
    <linearGradient id="desktop-ai-assistant-g" x1="100%" x2="37.123%" y1="100%" y2="100%">
      <stop offset="0%" stop-color="#D4FF00"/>
      <stop offset="100%" stop-color="#07F"/>
    </linearGradient>
    <linearGradient id="desktop-ai-assistant-h" x1="100%" x2="37.123%" y1="100%" y2="100%">
      <stop offset="0%" stop-color="#D4FF00"/>
      <stop offset="100%" stop-color="#07F"/>
    </linearGradient>
  </defs>
  <g fill="none" fill-rule="evenodd" filter="url(#desktop-ai-assistant-a)" transform="translate(1 1)">
    <mask id="desktop-ai-assistant-e" fill="#fff">
      <use xlink:href="#desktop-ai-assistant-b"/>
    </mask>
    <use fill="url(#desktop-ai-assistant-c)" xlink:href="#desktop-ai-assistant-b"/>
    <path fill="url(#desktop-ai-assistant-d)" d="M11.5,5 C11.7761424,5 12,5.22385763 12,5.5 L12,15.5 C12,15.7761424 11.7761424,16 11.5,16 C11.2238576,16 11,15.7761424 11,15.5 L11,5.5 C11,5.22385763 11.2238576,5 11.5,5 Z M14.5,7 C14.7761424,7 15,7.22385763 15,7.5 L15,14.5 C15,14.7761424 14.7761424,15 14.5,15 C14.2238576,15 14,14.7761424 14,14.5 L14,7.5 C14,7.22385763 14.2238576,7 14.5,7 Z M8.5,7 C8.77614237,7 9,7.22385763 9,7.5 L9,13.5 C9,13.7761424 8.77614237,14 8.5,14 C8.22385763,14 8,13.7761424 8,13.5 L8,7.5 C8,7.22385763 8.22385763,7 8.5,7 Z M5.5,8 C5.77614237,8 6,8.22385763 6,8.5 L6,12.5 C6,12.7761424 5.77614237,13 5.5,13 C5.22385763,13 5,12.7761424 5,12.5 L5,8.5 C5,8.22385763 5.22385763,8 5.5,8 Z M17.5,9 C17.7761424,9 18,9.22385763 18,9.5 L18,12.5 C18,12.7761424 17.7761424,13 17.5,13 C17.2238576,13 17,12.7761424 17,12.5 L17,9.5 C17,9.22385763 17.2238576,9 17.5,9 Z" mask="url(#desktop-ai-assistant-e)"/>
    <path fill="url(#desktop-ai-assistant-f)" fill-opacity=".5" d="M21.2844262,14.9110084 C19.7075405,19.0552645 15.6976601,22 11,22 C8.67069293,22 6.51048436,21.2760033 4.73213151,20.0407671 C10.4984155,18.8059408 14.4024163,16.4715911 21.144676,14.9418763 Z" mask="url(#desktop-ai-assistant-e)"/>
    <path fill="url(#desktop-ai-assistant-g)" fill-opacity=".5" d="M2.54218461,15.3525673 C10.4407596,14.8698546 11.6951757,17.9789144 18.9891359,18.5594205 C16.9860936,20.6781206 14.1474176,22 11,22 C6.52608348,22 2.67599085,19.3290925 0.957258212,15.4948136 C1.4623813,15.4341108 1.98955187,15.3863198 2.54218461,15.3525673 Z" mask="url(#desktop-ai-assistant-e)"/>
    <path fill="url(#desktop-ai-assistant-h)" fill-opacity=".5" d="M1.04768836,10.0059435 C9.55443626,9.78566621 12.9037987,15.745579 19.1796396,18.3541014 C17.1680143,20.5918959 14.2484473,22 11,22 C4.92486775,22 0,17.0751322 0,11 C0,10.6836937 0.0133505366,10.3705056 0.0395188549,10.0609685 L0.510808579,10.0279383 L0.510808579,10.0279383 Z" mask="url(#desktop-ai-assistant-e)"/>
  </g>
</svg>
