<svg xmlns="http://www.w3.org/2000/svg" xmlns:xlink="http://www.w3.org/1999/xlink" width="42" height="42" viewBox="0 0 42 42">
  <defs>
    <linearGradient id="dcc_nav_wacom_42px-c" x1="50%" x2="50%" y1="0%" y2="100%">
      <stop offset="0%" stop-color="#034F9C"/>
      <stop offset="100%" stop-color="#013995"/>
    </linearGradient>
    <linearGradient id="dcc_nav_wacom_42px-d" x1="50%" x2="50%" y1="0%" y2="100%">
      <stop offset="0%" stop-color="#0155AD"/>
      <stop offset="100%" stop-color="#01317C"/>
    </linearGradient>
    <rect id="dcc_nav_wacom_42px-b" width="30" height="21" x="0" y="3" rx="2"/>
    <filter id="dcc_nav_wacom_42px-a" width="148.3%" height="169%" x="-24.2%" y="-25%" filterUnits="objectBoundingBox">
      <feMorphology in="SourceAlpha" operator="dilate" radius=".25" result="shadowSpreadOuter1"/>
      <feOffset dy="2" in="shadowSpreadOuter1" result="shadowOffsetOuter1"/>
      <feGaussianBlur in="shadowOffsetOuter1" result="shadowBlurOuter1" stdDeviation="2"/>
      <feComposite in="shadowBlurOuter1" in2="SourceAlpha" operator="out" result="shadowBlurOuter1"/>
      <feColorMatrix in="shadowBlurOuter1" values="0 0 0 0 0.171589587   0 0 0 0 0.419315141   0 0 0 0 0.672016531  0 0 0 0.5 0"/>
    </filter>
    <path id="dcc_nav_wacom_42px-e" d="M1.36352539,0.0140686035 L20.3635254,0.0140686035 C20.9158101,0.0140686035 21.3635254,0.461783854 21.3635254,1.0140686 L21.3635254,15.5140686 C21.3635254,16.0663534 20.9158101,16.5140686 20.3635254,16.5140686 L1.36352539,16.5140686 C0.811240641,16.5140686 0.363525391,16.0663534 0.363525391,15.5140686 L0.363525391,1.0140686 C0.363525391,0.461783854 0.811240641,0.0140686035 1.36352539,0.0140686035 Z"/>
    <linearGradient id="dcc_nav_wacom_42px-i" x1="53.087%" x2="62.346%" y1="19.064%" y2="29.373%">
      <stop offset="0%" stop-color="#164E5F"/>
      <stop offset="100%" stop-color="#092B3D"/>
    </linearGradient>
    <linearGradient id="dcc_nav_wacom_42px-j" x1="50%" x2="60.084%" y1="22.823%" y2="32.874%">
      <stop offset="0%" stop-color="#FFF" stop-opacity=".1"/>
      <stop offset="100%" stop-opacity=".2"/>
    </linearGradient>
    <path id="dcc_nav_wacom_42px-h" d="M26.4305603,2.04533217 L18.6877621,15.456252 L17.0681965,16.6211986 C16.775537,16.8317313 16.3709345,16.6012735 16.402844,16.242159 L16.5805345,14.2394474 L24.3231628,0.828821866 C24.6591264,0.246915763 25.4033577,0.0474995823 25.9852638,0.383463228 C26.5671699,0.719426873 26.7665239,1.46342607 26.4305603,2.04533217 Z"/>
    <filter id="dcc_nav_wacom_42px-g" width="168.7%" height="142.5%" x="-34.3%" y="-15.2%" filterUnits="objectBoundingBox">
      <feOffset dy="1" in="SourceAlpha" result="shadowOffsetOuter1"/>
      <feGaussianBlur in="shadowOffsetOuter1" result="shadowBlurOuter1" stdDeviation="1"/>
      <feComposite in="shadowBlurOuter1" in2="SourceAlpha" operator="out" result="shadowBlurOuter1"/>
      <feColorMatrix in="shadowBlurOuter1" values="0 0 0 0 0.0139779699   0 0 0 0 0.2181659   0 0 0 0 0.55321558  0 0 0 0.5 0"/>
    </filter>
  </defs>
  <g fill="none" fill-rule="evenodd" transform="translate(6 8.5)">
    <g fill-rule="nonzero">
      <use fill="#000" filter="url(#dcc_nav_wacom_42px-a)" xlink:href="#dcc_nav_wacom_42px-b"/>
      <use fill="url(#dcc_nav_wacom_42px-c)" stroke="url(#dcc_nav_wacom_42px-d)" stroke-width=".5" xlink:href="#dcc_nav_wacom_42px-b"/>
    </g>
    <g transform="translate(7.136 4.986)">
      <mask id="dcc_nav_wacom_42px-f" fill="#fff">
        <use xlink:href="#dcc_nav_wacom_42px-e"/>
      </mask>
      <use fill="#059CDB" fill-rule="nonzero" xlink:href="#dcc_nav_wacom_42px-e"/>
      <path fill="#FFBDAB" fill-rule="nonzero" d="M23.9421916,14.4624958 L17.9393306,8.56706045 C17.8674731,8.49640466 17.752357,8.49640466 17.6804996,8.56706045 L8.41905924,17.6660404 C8.30129957,17.7816372 8.38325069,17.982069 8.54835462,17.982069 L23.8128962,17.982069 C23.9147944,17.982069 23.9974666,17.8996372 23.9974666,17.7974987 L23.9974666,14.5941944 C23.9974666,14.5446873 23.9775195,14.4971027 23.9421916,14.4624958 L23.9421916,14.4624958 Z" mask="url(#dcc_nav_wacom_42px-f)"/>
      <path fill="#D5FFEC" fill-rule="nonzero" d="M0.5,16.6079635 L20.112278,16.6079635 L7.82417297,4.53591153 C7.75231551,4.46525574 7.63719937,4.46525574 7.56558228,4.53591153 L0.5,11.4772453 L0.5,16.6079635 Z" mask="url(#dcc_nav_wacom_42px-f)"/>
    </g>
    <path fill="#00132C" fill-opacity=".5" fill-rule="nonzero" stroke="#000" stroke-opacity=".1" stroke-width=".5" d="M4,10.25 C2.75735951,10.25 1.75,11.2573595 1.75,12.5 C1.75,13.7426405 2.75735951,14.75 4,14.75 C5.24264049,14.75 6.25,13.7426405 6.25,12.5 C6.25,11.2573595 5.24264049,10.25 4,10.25 Z M3.99999997,13.75 C3.30962526,13.75 2.74999997,13.1902966 2.74999997,12.5 C2.74999997,11.8095633 3.30956325,11.25 3.99999997,11.25 C4.69029658,11.25 5.24999997,11.8096253 5.24999997,12.5 C5.24999997,13.1902346 4.69023455,13.75 3.99999997,13.75 Z"/>
    <g fill-rule="nonzero">
      <use fill="#000" filter="url(#dcc_nav_wacom_42px-g)" xlink:href="#dcc_nav_wacom_42px-h"/>
      <path fill="url(#dcc_nav_wacom_42px-i)" fill-rule="evenodd" stroke="url(#dcc_nav_wacom_42px-j)" stroke-linejoin="square" stroke-width=".5" d="M16.8246723,14.3165884 L16.6518629,16.2642858 C16.6388974,16.4102011 16.8032528,16.5038257 16.9222145,16.4182473 L18.4981364,15.2846934 L26.2140539,1.92033217 C26.480982,1.45799922 26.3225968,0.86689763 25.8602638,0.599969579 C25.3979309,0.333041527 24.8065972,0.491488919 24.5396691,0.953821866 L16.8246723,14.3165884 Z"/>
    </g>
    <path fill="#00132C" fill-opacity=".5" fill-rule="nonzero" d="M6.52885363 8L1.47114637 8C1.21103431 8 1 7.77604167 1 7.5 1 7.22369793 1.21103431 7 1.47114637 7L6.52885363 7C6.78896569 7 7 7.22369793 7 7.5 7 7.77604167 6.78896569 8 6.52885363 8zM6.52885363 6.5L1.47114637 6.5C1.21103431 6.5 1 6.27630207 1 6 1 5.72395827 1.21103431 5.5 1.47114637 5.5L6.52885363 5.5C6.78896569 5.5 7 5.72395827 7 6 7 6.27630207 6.78896569 6.5 6.52885363 6.5zM6.52885363 19.5L1.47114637 19.5C1.21103431 19.5 1 19.2763021 1 19 1 18.7239583 1.21103431 18.5 1.47114637 18.5L6.52885363 18.5C6.78896569 18.5 7 18.7239583 7 19 7 19.2763021 6.78896569 19.5 6.52885363 19.5zM6.52885363 18L1.47114637 18C1.21103431 18 1 17.7760417 1 17.5 1 17.2236979 1.21103431 17 1.47114637 17L6.52885363 17C6.78896569 17 7 17.2236979 7 17.5 7 17.7760417 6.78896569 18 6.52885363 18zM6.52885363 21L1.47114637 21C1.21103431 21 1 20.7761 1 20.4998698 1 20.2239001 1.21103431 20 1.47114637 20L6.52885363 20C6.78896569 20 7 20.2239001 7 20.4998698 7 20.7761 6.78896569 21 6.52885363 21z"/>
  </g>
</svg>
