<?xml version="1.0" encoding="UTF-8"?>
<svg width="30px" height="20px" viewBox="0 0 30 20" version="1.1" xmlns="http://www.w3.org/2000/svg" xmlns:xlink="http://www.w3.org/1999/xlink">
    <!-- Generator: Sketch 64 (93537) - https://sketch.com -->
    <title>End</title>
    <desc>Created with Sketch.</desc>
    <g id="页面-1" stroke="none" stroke-width="1" fill="none" fill-rule="evenodd">
        <g id="End">
            <path d="M25.667,19.5 L4.333,19.5 C2.225,19.5 0.5,17.775 0.5,15.667 L0.5,4.333 C0.5,2.225 2.225,0.5 4.333,0.5 L25.667,0.5 C27.775,0.5 29.5,2.225 29.5,4.333 L29.5,15.667 C29.5,17.775 27.775,19.5 25.667,19.5 Z" id="path4" fill="#FFFFFF" fill-rule="nonzero"></path>
            <path d="M25.5,19.5 L4.5,19.5 C2.291,19.5 0.5,17.709 0.5,15.5 L0.5,4.5 C0.5,2.291 2.291,0.5 4.5,0.5 L25.5,0.5 C27.709,0.5 29.5,2.291 29.5,4.5 L29.5,15.5 C29.5,17.709 27.709,19.5 25.5,19.5 Z" id="path6" stroke="#CBCBCB"></path>
            <g id="g14" transform="translate(6.000000, 5.000000)" fill="#000000" fill-rule="nonzero">
                <polygon id="path8" points="5 9 0 9 0 0 5 0 5 1 1 1 1 4 4 4 4 5 1 5 1 8 5 8"></polygon>
                <path d="M11,9 L10,9 L10,5.64 C10,4.426 9.544,3.819 8.657,3.819 C8.198,3.819 7.78,3.99 7.484,4.332 C7.188,4.674 7,5.106 7,5.63 L7,9 L6,9 L6,3 L7,3 L7,4 L7.09,4 C7.535,3 8.181,2.919 9.029,2.919 C9.677,2.919 10.162,3.144 10.501,3.559 C10.839,3.974 11.001,4.596 11.001,5.39 L11.001,9 L11,9 Z" id="path10"></path>
                <path d="M17.969,9 L17.01,9 L17.01,7.936 L16.988,7.936 C16.546,8.663 15.86,9.027 14.928,9.027 C14.161,9.027 13.551,8.768 13.099,8.251 C12.646,7.733 12.42,7.035 12.42,6.156 C12.42,5.207 12.676,4.447 13.187,3.874 C13.698,3.301 14.366,3.015 15.192,3.015 C16.017,3.015 16.53,3.415 16.989,3.929 L17.011,3.929 L17.011,0 L17.97,0 L17.97,9 L17.969,9 Z M16.906,5.475 C16.906,5.015 16.746,4.629 16.427,4.319 C16.107,4.009 15.714,3.854 15.247,3.854 C14.677,3.854 14.228,4.056 13.9,4.459 C13.571,4.862 13.407,5.412 13.407,6.108 C13.407,6.749 13.565,7.255 13.881,7.627 C14.197,7.999 14.618,8.185 15.144,8.185 C15.663,8.185 16.086,8.002 16.415,7.637 C16.744,7.272 16.908,6.817 16.908,6.274 L16.908,5.475 L16.906,5.475 Z" id="path12"></path>
            </g>
        </g>
    </g>
</svg>