<?xml version="1.0" encoding="UTF-8"?>
<svg width="30px" height="20px" viewBox="0 0 30 20" version="1.1" xmlns="http://www.w3.org/2000/svg" xmlns:xlink="http://www.w3.org/1999/xlink">
    <!-- Generator: Sketch 64 (93537) - https://sketch.com -->
    <title>End</title>
    <desc>Created with Sketch.</desc>
    <g id="页面-1" stroke="none" stroke-width="1" fill="none" fill-rule="evenodd">
        <g id="End">
            <path d="M25.667,19.5 L4.333,19.5 C2.225,19.5 0.5,17.775 0.5,15.667 L0.5,4.333 C0.5,2.225 2.225,0.5 4.333,0.5 L25.667,0.5 C27.775,0.5 29.5,2.225 29.5,4.333 L29.5,15.667 C29.5,17.775 27.775,19.5 25.667,19.5 Z" id="path4" fill="#FFFFFF" fill-rule="nonzero"></path>
            <path d="M25.5,19.5 L4.5,19.5 C2.291,19.5 0.5,17.709 0.5,15.5 L0.5,4.5 C0.5,2.291 2.291,0.5 4.5,0.5 L25.5,0.5 C27.709,0.5 29.5,2.291 29.5,4.5 L29.5,15.5 C29.5,17.709 27.709,19.5 25.5,19.5 Z" id="path6" stroke="#CBCBCB"></path>
            <g id="g12" transform="translate(8.000000, 5.000000)" fill="#000000" fill-rule="nonzero">
                <polygon id="path10" points="5 9.108 0 9.108 0 0.108 5 0.108 5 1.108 1 1.108 1 4.108 4 4.108 4 5.108 1 5.108 1 8.108 5 8.108"></polygon>
                <path d="M5.981,7.627 C6.509,7.997 7.079,8.181 7.689,8.181 C8.506,8.181 8.915,7.922 8.915,7.404 C8.915,7.183 8.826,7.002 8.647,6.858 C8.468,6.714 8.106,6.544 7.56,6.347 C6.903,6.091 6.477,5.839 6.28,5.589 C6.084,5.339 5.985,5.035 5.985,4.679 C5.985,4.171 6.207,3.765 6.652,3.46 C7.098,3.154 7.645,3 8.295,3 C8.798,3 9.266,3.085 9.698,3.254 L9.698,4.233 C9.255,3.957 8.754,3.818 8.193,3.818 C7.857,3.818 7.584,3.889 7.374,4.03 C7.163,4.172 7.058,4.358 7.058,4.59 C7.058,4.818 7.134,4.996 7.286,5.124 C7.438,5.252 7.774,5.416 8.295,5.616 C8.955,5.854 9.402,6.101 9.634,6.357 C9.866,6.613 9.982,6.929 9.982,7.305 C9.982,7.83 9.76,8.245 9.315,8.547 C8.87,8.85 8.295,9 7.588,9 C6.974,9 6.439,8.888 5.982,8.663 L5.982,7.627 L5.981,7.627 Z" id="path4"></path>
                <path d="M15.012,8.587 C14.577,8.846 14.052,8.976 13.438,8.976 C12.615,8.976 11.953,8.713 11.453,8.187 C10.952,7.661 10.702,6.98 10.702,6.144 C10.702,5.215 10.972,4.468 11.512,3.899 C12.052,3.33 12.775,3.046 13.68,3.046 C14.201,3.046 14.647,3.138 15.017,3.323 L15.017,4.316 C14.616,4.022 14.17,3.876 13.68,3.876 C13.104,3.876 12.635,4.076 12.273,4.473 C11.911,4.871 11.73,5.4 11.73,6.062 C11.73,6.714 11.901,7.224 12.242,7.593 C12.583,7.962 13.043,8.146 13.623,8.146 C14.113,8.146 14.576,7.986 15.012,7.665 L15.012,8.587 Z" id="path6"></path>
            </g>
        </g>
    </g>
</svg>