<svg xmlns="http://www.w3.org/2000/svg" width="42" height="42" viewBox="0 0 42 42">
  <defs>
    <filter id="dcc_nav_keyboard_42px-a" width="188.9%" height="192.3%" x="-44.4%" y="-46.2%" filterUnits="objectBoundingBox">
      <feOffset dy="2" in="SourceAlpha" result="shadowOffsetOuter1"/>
      <feGaussianBlur in="shadowOffsetOuter1" result="shadowBlurOuter1" stdDeviation="2"/>
      <feColorMatrix in="shadowBlurOuter1" result="shadowMatrixOuter1" values="0 0 0 0 0   0 0 0 0 0   0 0 0 0 0  0 0 0 0.2 0"/>
      <feMerge>
        <feMergeNode in="shadowMatrixOuter1"/>
        <feMergeNode in="SourceGraphic"/>
      </feMerge>
    </filter>
    <linearGradient id="dcc_nav_keyboard_42px-b" x1="50%" x2="50%" y1="98.643%" y2="-.015%">
      <stop offset="0%" stop-color="#676767"/>
      <stop offset="100%" stop-color="#959494"/>
    </linearGradient>
    <linearGradient id="dcc_nav_keyboard_42px-c" x1="50%" x2="50%" y1="0%" y2="100%">
      <stop offset="0%" stop-color="#FFF"/>
      <stop offset="100%" stop-color="#DDD"/>
    </linearGradient>
    <linearGradient id="dcc_nav_keyboard_42px-d" x1="50%" x2="50%" y1="0%" y2="100%">
      <stop offset="0%" stop-color="#FBFBFB"/>
      <stop offset="14.407%" stop-color="#F5F5F5"/>
      <stop offset="15.155%" stop-color="#E6E6E6"/>
      <stop offset="89.344%" stop-color="#CACACA"/>
      <stop offset="89.64%" stop-color="#B7B7B7"/>
      <stop offset="100%" stop-color="#BEBEBE"/>
    </linearGradient>
    <linearGradient id="dcc_nav_keyboard_42px-e" x1="50%" x2="50%" y1="0%" y2="100%">
      <stop offset="0%" stop-color="#FFF"/>
      <stop offset="100%" stop-color="#DDD"/>
    </linearGradient>
    <linearGradient id="dcc_nav_keyboard_42px-f" x1="50%" x2="50%" y1="0%" y2="100%">
      <stop offset="0%" stop-color="#FBFBFB"/>
      <stop offset="14.407%" stop-color="#F5F5F5"/>
      <stop offset="15.155%" stop-color="#E6E6E6"/>
      <stop offset="89.344%" stop-color="#CACACA"/>
      <stop offset="89.64%" stop-color="#B7B7B7"/>
      <stop offset="100%" stop-color="#BEBEBE"/>
    </linearGradient>
  </defs>
  <g fill="none" fill-rule="evenodd">
    <g filter="url(#dcc_nav_keyboard_42px-a)" transform="translate(8 8)">
      <rect width="27" height="26" fill="url(#dcc_nav_keyboard_42px-b)" fill-rule="nonzero" rx="3"/>
      <path fill="#4C4C4C" d="M3,15 L3,10 C3,9.74388185 3.12731558,9.57721519 3.38194675,9.5 L3,9.5 C2.5,9.5 2,9.32842712 2,8.5 L2,3.5 C2,2.67157288 2.67157288,2 3.5,2 L22.5,2 C23.3284271,2 24,2.67157288 24,3.5 L24,8 C24,8.38417722 23.8555732,8.73462175 23.6180533,9 L23.5,9 C24.3284271,9 25,9.17157288 25,10 L25,15.5 C25,16.2900041 24.3892785,16.9373666 23.6142054,16.9957174 C23.8540125,17.2616024 24,17.6137526 24,18 L24,22.5 C24,23.3284271 23.3284271,24 22.5,24 L3.5,24 C2.67157288,24 2,23.3284271 2,22.5 L2,17.5 C2,16.6715729 2.5,16 3,16 L3.5,16 C3.26248004,15.7346218 3,15.3841772 3,15 Z"/>
      <g transform="translate(2.5 3)">
        <rect width="5" height="5" x="15" y="14.5" fill="url(#dcc_nav_keyboard_42px-c)" stroke="url(#dcc_nav_keyboard_42px-d)" rx="1"/>
        <rect width="12" height="5" x="1" y="14.5" fill="url(#dcc_nav_keyboard_42px-e)" stroke="url(#dcc_nav_keyboard_42px-f)" rx="1"/>
        <rect width="5" height="5" x="16" y="7.5" fill="url(#dcc_nav_keyboard_42px-c)" stroke="url(#dcc_nav_keyboard_42px-d)" rx="1"/>
        <rect width="5" height="5" x="9" y="7.5" fill="url(#dcc_nav_keyboard_42px-c)" stroke="url(#dcc_nav_keyboard_42px-d)" rx="1"/>
        <rect width="5" height="5" x="2" y="7.5" fill="url(#dcc_nav_keyboard_42px-c)" stroke="url(#dcc_nav_keyboard_42px-d)" rx="1"/>
        <rect width="5" height="5" x="15" y=".5" fill="url(#dcc_nav_keyboard_42px-c)" stroke="url(#dcc_nav_keyboard_42px-d)" rx="1"/>
        <rect width="5" height="5" x="8" y=".5" fill="url(#dcc_nav_keyboard_42px-c)" stroke="url(#dcc_nav_keyboard_42px-d)" rx="1"/>
        <rect width="5" height="5" x="1" y=".5" fill="url(#dcc_nav_keyboard_42px-c)" stroke="url(#dcc_nav_keyboard_42px-d)" rx="1"/>
      </g>
      <g fill="#4C4C4C" transform="translate(3 17)">
        <path fill-rule="nonzero" d="M1.33496094,3.61132812 C1.34863288,3.85546997 1.40624949,4.05371018 1.5078125,4.20605469 C1.70117284,4.49121236 2.04198975,4.63378906 2.53027344,4.63378906 C2.74902453,4.63378906 2.94824129,4.60253937 3.12792969,4.54003906 C3.47558768,4.41894471 3.64941406,4.20215 3.64941406,3.88964844 C3.64941406,3.65527227 3.57617261,3.48828175 3.4296875,3.38867188 C3.28124926,3.29101514 3.04882971,3.20605505 2.73242187,3.13378906 L2.14941406,3.00195312 C1.76855278,2.9160152 1.49902423,2.82128958 1.34082031,2.71777344 C1.06738145,2.53808504 0.930664062,2.26953304 0.930664062,1.91210938 C0.930664062,1.52538869 1.06445179,1.20800905 1.33203125,0.959960938 C1.59961071,0.711912822 1.97851317,0.587890625 2.46875,0.587890625 C2.91992413,0.587890625 3.30322108,0.696776255 3.61865234,0.914550781 C3.93408361,1.13232531 4.09179687,1.48046636 4.09179687,1.95898438 L3.54394531,1.95898438 C3.51464829,1.72851447 3.45214892,1.55175843 3.35644531,1.42871094 C3.17871005,1.20410044 2.87695525,1.09179688 2.45117187,1.09179688 C2.10742016,1.09179688 1.86035231,1.16406178 1.70996094,1.30859375 C1.55956956,1.45312572 1.484375,1.62109279 1.484375,1.8125 C1.484375,2.02343855 1.57226475,2.17773389 1.74804687,2.27539062 C1.86328183,2.33789094 2.12402141,2.41601516 2.53027344,2.50976562 L3.13378906,2.64746094 C3.42480614,2.71386752 3.64941327,2.80468692 3.80761719,2.91992188 C4.08105605,3.12109476 4.21777344,3.41308402 4.21777344,3.79589844 C4.21777344,4.27246332 4.04443533,4.61328022 3.69775391,4.81835938 C3.35107249,5.02343853 2.94824448,5.12597656 2.48925781,5.12597656 C1.95409889,5.12597656 1.53515776,4.98925918 1.23242187,4.71582031 C0.929685986,4.44433458 0.781249971,4.0761742 0.787109375,3.61132812 L1.33496094,3.61132812 Z M4.88574219,0.681640625 L5.41308594,0.681640625 L5.41308594,2.28710938 C5.53808656,2.12890546 5.65039013,2.01757845 5.75,1.953125 C5.91992272,1.84179632 6.13183467,1.78613281 6.38574219,1.78613281 C6.84082259,1.78613281 7.14941325,1.94531091 7.31152344,2.26367188 C7.3994145,2.43750087 7.44335937,2.67870939 7.44335937,2.98730469 L7.44335937,5 L6.90136719,5 L6.90136719,3.02246094 C6.90136719,2.79199104 6.87207061,2.62304741 6.81347656,2.515625 C6.71777296,2.34374914 6.53808726,2.2578125 6.27441406,2.2578125 C6.05566297,2.2578125 5.85742276,2.33300706 5.6796875,2.48339844 C5.50195224,2.63378981 5.41308594,2.91796666 5.41308594,3.3359375 L5.41308594,5 L4.88574219,5 L4.88574219,0.681640625 Z M8.22265625,1.87695312 L8.75878906,1.87695312 L8.75878906,5 L8.22265625,5 L8.22265625,1.87695312 Z M8.22265625,0.696289062 L8.75878906,0.696289062 L8.75878906,1.29394531 L8.22265625,1.29394531 L8.22265625,0.696289062 Z M9.6875,1.38476562 C9.69531254,1.16601453 9.7333981,1.00585988 9.80175781,0.904296875 C9.9248053,0.724608477 10.1621076,0.634765625 10.5136719,0.634765625 C10.5468752,0.634765625 10.5810545,0.635742178 10.6162109,0.637695312 C10.6513674,0.639648447 10.691406,0.642578105 10.7363281,0.646484375 L10.7363281,1.12695312 C10.6816404,1.12304686 10.64209,1.12060547 10.6176758,1.11962891 C10.5932616,1.11865234 10.5703126,1.11816406 10.5488281,1.11816406 C10.3886711,1.11816406 10.2929689,1.15966755 10.2617187,1.24267578 C10.2304686,1.32568401 10.2148437,1.53710768 10.2148437,1.87695312 L10.7363281,1.87695312 L10.7363281,2.29296875 L10.2089844,2.29296875 L10.2089844,5 L9.6875,5 L9.6875,2.29296875 L9.25097656,2.29296875 L9.25097656,1.87695312 L9.6875,1.87695312 L9.6875,1.38476562 Z M11.328125,0.986328125 L11.8613281,0.986328125 L11.8613281,1.86230469 L12.3623047,1.86230469 L12.3623047,2.29296875 L11.8613281,2.29296875 L11.8613281,4.34082031 C11.8613281,4.45019586 11.8984371,4.52343731 11.9726562,4.56054688 C12.0136721,4.58203136 12.0820308,4.59277344 12.1777344,4.59277344 C12.2031251,4.59277344 12.2304686,4.59228516 12.2597656,4.59130859 C12.2890626,4.59033203 12.323242,4.58789064 12.3623047,4.58398438 L12.3623047,5 C12.3017575,5.01757821 12.2387699,5.0302734 12.1733398,5.03808594 C12.1079098,5.04589848 12.0371098,5.04980469 11.9609375,5.04980469 C11.7148425,5.04980469 11.547852,4.98681704 11.4599609,4.86083984 C11.3720699,4.73486265 11.328125,4.57129007 11.328125,4.37011719 L11.328125,2.29296875 L10.9033203,2.29296875 L10.9033203,1.86230469 L11.328125,1.86230469 L11.328125,0.986328125 Z"/>
        <polygon points="19.021 2.75 18 3.5 18 3 15 3 15 2.5 18 2.5 18 2"/>
      </g>
    </g>
    <g fill="#4C4C4C" fill-rule="nonzero" transform="translate(11 11)">
      <path d="M4.94677734 5.33398438L5.11376953 4.93847656C4.89111328 4.85449219 4.64794922 4.72167969 4.38427734 4.54003906 4.60107422 4.33105469 4.76318359 4.08544922 4.87060547 3.80322266 4.97802734 3.52099609 5.03173828 3.203125 5.03173828 2.84960938 5.03173828 2.42382812 4.94824219 2.04150391 4.78125 1.70263672 4.61425781 1.36376953 4.37158203 1.10009766 4.05322266.911621094 3.73486328.723144531 3.37744141.62890625 2.98095703.62890625 2.58837891.62890625 2.23339844.719726562 1.91601562.901367188 1.59863281 1.08300781 1.35400391 1.34765625 1.18212891 1.6953125 1.01025391 2.04296875.924316406 2.42871094.924316406 2.85253906.924316406 3.27832031 1.00976562 3.66113281 1.18066406 4.00097656 1.3515625 4.34082031 1.59521484 4.60449219 1.91162109 4.79199219 2.22802734 4.97949219 2.58056641 5.07324219 2.96923828 5.07324219 3.35400391 5.07324219 3.70556641 4.984375 4.02392578 4.80664062 4.33056641 5.046875 4.63818359 5.22265625 4.94677734 5.33398438L4.94677734 5.33398438zM2.98388672 4.58691406C2.55419922 4.58691406 2.20117188 4.4375 1.92480469 4.13867188 1.6484375 3.83984375 1.51025391 3.41113281 1.51025391 2.85253906 1.51025391 2.27636719 1.64990234 1.84326172 1.92919922 1.55322266 2.20849609 1.26318359 2.56005859 1.11816406 2.98388672 1.11816406 3.26708984 1.11816406 3.52246094 1.18994141 3.75 1.33349609 3.97753906 1.47705078 4.15039062 1.67871094 4.26855469 1.93847656 4.38671875 2.19824219 4.44580078 2.50195312 4.44580078 2.84960938 4.44580078 3.4609375 4.27880859 3.91894531 3.94482422 4.22363281 3.73193359 4.04199219 3.46142578 3.90527344 3.13330078 3.81347656L3.13330078 3.81347656 2.99560547 4.2265625C3.19287109 4.27539062 3.38037109 4.35742188 3.55810547 4.47265625 3.37841797 4.54882812 3.18701172 4.58691406 2.98388672 4.58691406zM8.96142578 5L9.87255859 1.72753906C9.91162109 1.58886719 9.95361328 1.42089844 9.99853516 1.22363281 10.012207 1.28613281 10.0571289 1.45410156 10.1333008 1.72753906L10.1333008 1.72753906 11.0385742 5 11.5864258 5 12.7641602.705078125 12.1928711.705078125 11.519043 3.46484375C11.4311523 3.81640625 11.3598633 4.12792969 11.3051758 4.39941406 11.2368164 3.92480469 11.1254883 3.41796875 10.9711914 2.87890625L10.9711914 2.87890625 10.355957.705078125 9.67041016.705078125 8.85302734 3.60546875C8.83349609 3.67578125 8.76904297 3.94042969 8.65966797 4.39941406 8.60888672 4.10839844 8.54833984 3.81542969 8.47802734 3.52050781L8.47802734 3.52050781 7.82470703.705078125 7.24169922.705078125 8.38134766 5 8.96142578 5z"/>
      <polygon points="18.679 5 18.679 4.493 16.042 4.493 16.042 3.031 18.418 3.031 18.418 2.527 16.042 2.527 16.042 1.212 18.579 1.212 18.579 .705 15.474 .705 15.474 5"/>
      <path d="M2.59375 12L3.06542969 10.6992188 4.86132812 10.6992188 5.36230469 12 6.00976562 12 4.25195312 7.70507812 3.63964844 7.70507812 1.99023438 12 2.59375 12zM4.68554688 10.2363281L3.22949219 10.2363281 3.70117188 8.9765625C3.80078125 8.70507812 3.87792969 8.43164062 3.93261719 8.15625 3.99902344 8.38867188 4.10058594 8.68554688 4.23730469 9.046875L4.23730469 9.046875 4.68554688 10.2363281zM11.0996094 12.0732422C11.40625 12.0732422 11.6821289 12.0170898 11.9272461 11.9047852 12.1723633 11.7924805 12.3603516 11.6352539 12.4912109 11.4331055 12.6220703 11.230957 12.6875 11.015625 12.6875 10.7871094 12.6875 10.5566406 12.6279297 10.3530273 12.5087891 10.1762695 12.3896484 9.99951172 12.2050781 9.85351562 11.9550781 9.73828125 11.7832031 9.66015625 11.4663086 9.56884766 11.0043945 9.46435547 10.5424805 9.35986328 10.2568359 9.2578125 10.1474609 9.15820312 10.0361328 9.05859375 9.98046875 8.93164062 9.98046875 8.77734375 9.98046875 8.59960938 10.059082 8.44775391 10.2163086 8.32177734 10.3735352 8.19580078 10.6240234 8.1328125 10.9677734 8.1328125 11.2978516 8.1328125 11.5473633 8.20214844 11.7163086 8.34082031 11.8852539 8.47949219 11.984375 8.68457031 12.0136719 8.95605469L12.0136719 8.95605469 12.5585938 8.91503906C12.5488281 8.66308594 12.4785156 8.4375 12.3476562 8.23828125 12.2167969 8.0390625 12.0297852 7.88818359 11.7866211 7.78564453 11.543457 7.68310547 11.2626953 7.63183594 10.9443359 7.63183594 10.6552734 7.63183594 10.3925781 7.68066406 10.15625 7.77832031 9.91992188 7.87597656 9.74023438 8.01904297 9.6171875 8.20751953 9.49414062 8.39599609 9.43261719 8.59863281 9.43261719 8.81542969 9.43261719 9.01269531 9.48291016 9.19091797 9.58349609 9.35009766 9.68408203 9.50927734 9.83691406 9.64257812 10.0419922 9.75 10.2001953 9.83398438 10.4765625 9.92333984 10.8710938 10.0180664 11.265625 10.112793 11.5205078 10.1826172 11.6357422 10.2275391 11.8154297 10.2958984 11.9443359 10.3803711 12.0224609 10.480957 12.1005859 10.581543 12.1396484 10.6992188 12.1396484 10.8339844 12.1396484 10.9667969 12.0991211 11.0893555 12.0180664 11.2016602 11.9370117 11.3139648 11.8134766 11.4023438 11.6474609 11.4667969 11.4814453 11.53125 11.2900391 11.5634766 11.0732422 11.5634766 10.8291016 11.5634766 10.609375 11.5209961 10.4140625 11.4360352 10.21875 11.3510742 10.074707 11.2397461 9.98193359 11.1020508 9.88916016 10.9643555 9.83007812 10.7880859 9.8046875 10.5732422L9.8046875 10.5732422 9.26855469 10.6201172C9.27636719 10.9072266 9.35498047 11.1645508 9.50439453 11.3920898 9.65380859 11.6196289 9.85986328 11.7900391 10.1225586 11.9033203 10.3852539 12.0166016 10.7109375 12.0732422 11.0996094 12.0732422zM17.8461914 12C18.105957 12 18.3359375 11.9755859 18.5361328 11.9267578 18.7363281 11.8779297 18.9072266 11.8061523 19.0488281 11.7114258 19.1904297 11.6166992 19.3208008 11.4868164 19.4399414 11.3217773 19.559082 11.1567383 19.6567383 10.9482422 19.7329102 10.6962891 19.809082 10.4443359 19.847168 10.1552734 19.847168 9.82910156 19.847168 9.44628906 19.7910156 9.10595703 19.6787109 8.80810547 19.5664062 8.51025391 19.3969727 8.265625 19.1704102 8.07421875 18.996582 7.92578125 18.7866211 7.82324219 18.5405273 7.76660156 18.3647461 7.72558594 18.1098633 7.70507812 17.7758789 7.70507812L17.7758789 7.70507812 16.2963867 7.70507812 16.2963867 12 17.8461914 12zM17.7817383 11.4931641L16.8647461 11.4931641 16.8647461 8.21191406 17.7670898 8.21191406C18.1049805 8.21191406 18.3500977 8.24121094 18.5024414 8.29980469 18.7133789 8.38183594 18.8925781 8.54345703 19.0400391 8.78466797 19.1875 9.02587891 19.2612305 9.37109375 19.2612305 9.8203125 19.2612305 10.1445312 19.2236328 10.4204102 19.1484375 10.6479492 19.0732422 10.8754883 18.9682617 11.0566406 18.8334961 11.1914062 18.737793 11.2871094 18.609375 11.3613281 18.4482422 11.4140625 18.2871094 11.4667969 18.0649414 11.4931641 17.7817383 11.4931641L17.7817383 11.4931641z"/>
    </g>
  </g>
</svg>
