<svg xmlns="http://www.w3.org/2000/svg" xmlns:xlink="http://www.w3.org/1999/xlink" width="48" height="48" viewBox="0 0 48 48">
  <defs>
    <rect id="loadfile-b" width="36" height="36" x="0" y="0" rx="8"/>
    <filter id="loadfile-a" width="161.1%" height="161.1%" x="-30.6%" y="-19.4%" filterUnits="objectBoundingBox">
      <feOffset dy="4" in="SourceAlpha" result="shadowOffsetOuter1"/>
      <feGaussianBlur in="shadowOffsetOuter1" result="shadowBlurOuter1" stdDeviation="3"/>
      <feColorMatrix in="shadowBlurOuter1" values="0 0 0 0 0.17254902   0 0 0 0 0.654901961   0 0 0 0 0.97254902  0 0 0 0.4 0"/>
    </filter>
  </defs>
  <g fill="none" fill-rule="evenodd" transform="translate(6 2)">
    <use fill="#000" filter="url(#loadfile-a)" xlink:href="#loadfile-b"/>
    <use fill="#0081FF" xlink:href="#loadfile-b"/>
    <path fill="#FFF" d="M12,16 C13.1045695,16 14,16.8954305 14,18 C14,19.1045695 13.1045695,20 12,20 C10.8954305,20 10,19.1045695 10,18 C10,16.8954305 10.8954305,16 12,16 Z M18,16 C19.1045695,16 20,16.8954305 20,18 C20,19.1045695 19.1045695,20 18,20 C16.8954305,20 16,19.1045695 16,18 C16,16.8954305 16.8954305,16 18,16 Z M24,16 C25.1045695,16 26,16.8954305 26,18 C26,19.1045695 25.1045695,20 24,20 C22.8954305,20 22,19.1045695 22,18 C22,16.8954305 22.8954305,16 24,16 Z"/>
  </g>
</svg>
