<?xml version="1.0" encoding="UTF-8"?>
<svg width="16px" height="16px" viewBox="0 0 16 16" version="1.1" xmlns="http://www.w3.org/2000/svg" xmlns:xlink="http://www.w3.org/1999/xlink">
    <!-- Generator: Sketch 42 (36781) - http://www.bohemiancoding.com/sketch -->
    <title>lock_normal</title>
    <desc>Created with Sketch.</desc>
    <defs></defs>
    <g id="Page-1" stroke="none" stroke-width="1" fill="none" fill-rule="evenodd">
        <g id="lock_normal" fill="#000000">
            <path d="M12.25725,6.33333333 L11.5,6.33333333 L11.5,4.9374902 C11.5,3.37264706 10.17,2 8.6535,2 L8.2395,2 C6.7545,2 5.5,3.34511765 5.5,4.9374902 L5.5,6.33333333 L4.74275,6.33333333 C3.78175,6.33333333 3,7.13041176 3,8.1102549 L3,13.2230784 C3,14.2029216 3.78175,15 4.74275,15 L12.25725,15 C13.21825,15 14,14.2029216 14,13.2230784 L14,8.1102549 C14,7.13041176 13.21825,6.33333333 12.25725,6.33333333 L12.25725,6.33333333 Z M6.5,5.00631579 C6.5,3.93289474 7.2965,3.02631579 8.2395,3.02631579 L8.6535,3.02631579 C9.62,3.02631579 10.5,3.97 10.5,5.00631579 L10.5,6.44736842 L6.5,6.44736842 L6.5,5.00631579 L6.5,5.00631579 Z M13,13.2309342 C13,13.6404342 12.66675,13.9736842 12.25725,13.9736842 L4.74275,13.9736842 C4.33325,13.9736842 4,13.6404342 4,13.2309342 L4,8.21643421 C4,7.80693421 4.33325,7.47368421 4.74275,7.47368421 L12.25725,7.47368421 C12.66675,7.47368421 13,7.80693421 13,8.21643421 L13,13.2309342 L13,13.2309342 Z" id="Fill-1"></path>
        </g>
    </g>
</svg>