<?xml version="1.0" encoding="UTF-8"?>
<svg width="16px" height="16px" viewBox="0 0 16 16" version="1.1" xmlns="http://www.w3.org/2000/svg" xmlns:xlink="http://www.w3.org/1999/xlink">
    <!-- Generator: Sketch 42 (36781) - http://www.bohemiancoding.com/sketch -->
    <title>logout_normal</title>
    <desc>Created with Sketch.</desc>
    <defs></defs>
    <g id="Page-1" stroke="none" stroke-width="1" fill="none" fill-rule="evenodd">
        <g id="logout_normal" fill="#000000">
            <path d="M13.3748193,10.5211464 C13.6293494,10.6346423 13.7419398,10.929582 13.6265663,11.1802186 C12.5575904,13.5004116 10.1947108,15 7.60740964,15 C3.96403614,15 1,12.0842029 1,8.49987555 C1,4.91579713 3.96403614,2 7.60740964,2 C10.1947108,2 12.5575904,3.49958837 13.6265663,5.81978136 C13.7419398,6.07041795 13.6293494,6.36510884 13.3748193,6.47860466 C13.1200361,6.59284716 12.8202169,6.4813425 12.7050964,6.2309548 C11.7993133,4.26568513 9.79849398,2.99557734 7.60740964,2.99557734 C4.52218072,2.99557734 2.01204819,5.46485803 2.01204819,8.49987555 C2.01204819,11.535142 4.52218072,14.0044227 7.60740964,14.0044227 C9.79849398,14.0044227 11.7993133,12.7343149 12.7050964,10.7690452 C12.8202169,10.5189064 13.1197831,10.4074017 13.3748193,10.5211464 Z M14.4939759,7.97346403 C14.7735542,7.97346403 15,8.19622446 15,8.4712527 C15,8.74603205 14.7735542,8.96904137 14.4939759,8.96904137 L7.40963855,8.96904137 C7.13031325,8.96904137 6.90361446,8.74603205 6.90361446,8.4712527 C6.90361446,8.19622446 7.13031325,7.97346403 7.40963855,7.97346403 L14.4939759,7.97346403 Z" id="Fill-2"></path>
        </g>
    </g>
</svg>