<svg xmlns="http://www.w3.org/2000/svg" width="24" height="24" viewBox="0 0 24 24">
  <defs>
    <filter id="deepin-virtualkeyboard-a" width="122.7%" height="125%" x="-11.4%" y="-12.5%" filterUnits="objectBoundingBox">
      <feOffset in="SourceAlpha" result="shadowOffsetOuter1"/>
      <feGaussianBlur in="shadowOffsetOuter1" result="shadowBlurOuter1" stdDeviation=".5"/>
      <feComposite in="shadowBlurOuter1" in2="SourceAlpha" operator="out" result="shadowBlurOuter1"/>
      <feColorMatrix in="shadowBlurOuter1" result="shadowMatrixOuter1" values="0 0 0 0 0   0 0 0 0 0   0 0 0 0 0  0 0 0 0.15 0"/>
      <feMerge>
        <feMergeNode in="shadowMatrixOuter1"/>
        <feMergeNode in="SourceGraphic"/>
      </feMerge>
    </filter>
    <linearGradient id="deepin-virtualkeyboard-b" x1="50%" x2="50%" y1="0%" y2="98.139%">
      <stop offset="0%" stop-color="#FFF"/>
      <stop offset="100%" stop-color="#EDEDED"/>
    </linearGradient>
    <linearGradient id="deepin-virtualkeyboard-c" x1="50%" x2="50%" y1="0%" y2="100%">
      <stop offset="0%" stop-color="#4A4A4A"/>
      <stop offset="97.645%" stop-color="#363636"/>
    </linearGradient>
  </defs>
  <g fill="none" fill-rule="evenodd" filter="url(#deepin-virtualkeyboard-a)" transform="translate(1 2)">
    <rect width="22" height="20" fill="url(#deepin-virtualkeyboard-b)" rx="3.786"/>
    <path fill="url(#deepin-virtualkeyboard-c)" fill-rule="nonzero" d="M15,12 L15,14 L7,14 L7,12 L15,12 Z M6,12 L6,14 L4,14 L4,12 L6,12 Z M18,12 L18,14 L16,14 L16,12 L18,12 Z M14,9 L14,11 L12,11 L12,9 L14,9 Z M11,9 L11,11 L9,11 L9,9 L11,9 Z M8,9 L8,11 L4,11 L4,9 L8,9 Z M18,9 L18,11 L15,11 L15,9 L18,9 Z M15,6 L15,8 L13,8 L13,6 L15,6 Z M18,6 L18,8 L16,8 L16,6 L18,6 Z M12,6 L12,8 L10,8 L10,6 L12,6 Z M9,6 L9,8 L7,8 L7,6 L9,6 Z M6,6 L6,8 L4,8 L4,6 L6,6 Z"/>
  </g>
</svg>
