<svg xmlns="http://www.w3.org/2000/svg" width="24" height="24" viewBox="0 0 24 24">
  <defs>
    <filter id="org.deepin.browser-a" width="122.7%" height="122.7%" x="-11.4%" y="-11.4%" filterUnits="objectBoundingBox">
      <feOffset in="SourceAlpha" result="shadowOffsetOuter1"/>
      <feGaussianBlur in="shadowOffsetOuter1" result="shadowBlurOuter1" stdDeviation=".5"/>
      <feColorMatrix in="shadowBlurOuter1" result="shadowMatrixOuter1" values="0 0 0 0 0   0 0 0 0 0   0 0 0 0 0  0 0 0 0.15 0"/>
      <feMerge>
        <feMergeNode in="shadowMatrixOuter1"/>
        <feMergeNode in="SourceGraphic"/>
      </feMerge>
    </filter>
    <linearGradient id="org.deepin.browser-b" x1="50%" x2="50%" y1="0%" y2="98.139%">
      <stop offset="0%" stop-color="#FFF"/>
      <stop offset="100%" stop-color="#EDEDED"/>
    </linearGradient>
    <linearGradient id="org.deepin.browser-c" x1="11.162%" x2="100%" y1="-15.854%" y2="43.447%">
      <stop offset="0%" stop-color="#4BFFE4"/>
      <stop offset="100%" stop-color="#2976FF"/>
    </linearGradient>
    <linearGradient id="org.deepin.browser-d" x1="3.368%" x2="105.703%" y1="-15.331%" y2="82.046%">
      <stop offset="0%" stop-color="#22E3FF"/>
      <stop offset="100%" stop-color="#33F"/>
    </linearGradient>
    <linearGradient id="org.deepin.browser-e" x1="-20.874%" x2="72.178%" y1="-72.352%" y2="115.66%">
      <stop offset="0%" stop-color="#00FFF9"/>
      <stop offset="100%" stop-color="#392AFF"/>
    </linearGradient>
  </defs>
  <g fill="none" fill-rule="evenodd">
    <g filter="url(#org.deepin.browser-a)" transform="translate(1 1)">
      <rect width="21.876" height="21.876" fill="url(#org.deepin.browser-b)" rx="10.938"/>
      <path fill="url(#org.deepin.browser-c)" d="M20.2413851,6.52581739 C20.5735086,6.72242124 20.8947016,6.93333482 21.2050364,7.157121 C21.6393827,8.33553557 21.8764045,9.60918921 21.8764045,10.9382022 C21.8764045,16.9792045 16.9792045,21.8764045 10.9382022,21.8764045 C9.21691744,21.8764045 7.58849472,21.4788146 6.13976129,20.7704621 C8.72320156,21.058011 11.3051452,19.6690892 12.4187812,17.1678217 C13.7967477,14.0728582 12.4048466,10.4468319 9.30988309,9.06886531 C7.85649126,8.42177357 6.28598776,8.385502 4.88617155,8.84957493 L4.62713284,8.94157338 L4.70815864,8.82509504 C6.9674958,5.66346359 13.5950565,2.59145646 20.2413851,6.52581739 Z"/>
      <path fill="url(#org.deepin.browser-d)" d="M13.2450295,7.57216465 C17.1629196,8.6523892 19.2706477,11.34738 20.1842544,14.0305253 C20.3593215,14.5446748 20.5330961,15.2064075 20.655519,15.9645432 C18.8351423,19.4767765 15.1669039,21.8764045 10.9382022,21.8764045 C9.21691744,21.8764045 7.58849472,21.4788146 6.13976129,20.7704621 C8.72320156,21.058011 11.3051452,19.6690892 12.4187812,17.1678217 C13.7967477,14.0728582 12.4048466,10.4468319 9.30988309,9.06886531 C7.85649126,8.42177357 6.28598776,8.385502 4.88617155,8.84957493 L4.62713284,8.94157338 L4.66108282,8.89283999 C6.19345547,7.5837282 9.4479376,6.52524609 13.2450295,7.57216465 Z"/>
      <path fill="url(#org.deepin.browser-e)" d="M11.4508652,8.96944384 C14.8670754,10.766658 16.3528468,13.7621625 16.1755367,16.7774775 C16.0972249,18.1092407 15.6472269,19.671606 14.718206,21.204893 C13.5407684,21.6394014 12.2671628,21.8764045 10.9382022,21.8764045 C9.21691744,21.8764045 7.58849472,21.4788146 6.13976129,20.7704621 C8.72320156,21.058011 11.3051452,19.6690892 12.4187812,17.1678217 C13.7967477,14.0728582 12.4048466,10.4468319 9.30988309,9.06886531 C7.85649126,8.42177357 6.28598776,8.385502 4.88617155,8.84957493 L4.62713284,8.94157338 L4.69853723,8.83787525 C6.35857327,7.96531223 8.81753647,7.58409126 11.4508652,8.96944384 Z"/>
    </g>
    <path fill="#000" fill-opacity=".08" fill-rule="nonzero" d="M11.9382022,-7.99360578e-14 C5.34491521,-7.99360578e-14 -7.99360578e-14,5.34491521 -7.99360578e-14,11.9382022 C-7.99360578e-14,18.5314893 5.34491521,23.8764045 11.9382022,23.8764045 C18.5314893,23.8764045 23.8764045,18.5314893 23.8764045,11.9382022 C23.8764045,5.34491521 18.5314893,-7.99360578e-14 11.9382022,-7.99360578e-14 Z M11.9382022,1 C17.9792045,1 22.8764045,5.89719996 22.8764045,11.9382022 C22.8764045,17.9792045 17.9792045,22.8764045 11.9382022,22.8764045 C5.89719996,22.8764045 1,17.9792045 1,11.9382022 C1,5.89719996 5.89719996,1 11.9382022,1 Z"/>
  </g>
</svg>
