<?xml version="1.0" encoding="UTF-8"?>
<svg width="16px" height="16px" viewBox="0 0 16 16" version="1.1" xmlns="http://www.w3.org/2000/svg" xmlns:xlink="http://www.w3.org/1999/xlink">
    <!-- Generator: Sketch 42 (36781) - http://www.bohemiancoding.com/sketch -->
    <title>poweroff_normal</title>
    <desc>Created with Sketch.</desc>
    <defs></defs>
    <g id="Page-1" stroke="none" stroke-width="1" fill="none" fill-rule="evenodd">
        <g id="poweroff_normal" fill="#000000">
            <path d="M11.1802167,2.44556026 C13.5005571,3.50896962 15,5.85791039 15,8.43048769 C15,12.0528441 12.0840281,15 8.5,15 C4.91597188,15 2,12.0528441 2,8.43048769 C2,5.85791039 3.49944289,3.50896962 5.8197833,2.44556026 C6.07177162,2.33020824 6.36746456,2.44328856 6.48109655,2.69696205 C6.59497829,2.95088795 6.48359396,3.24999549 6.2326046,3.36509511 C4.26814462,4.26494186 2.99896262,6.25318669 2.99896262,8.43048769 C2.99896262,11.4960245 5.46665002,13.9903543 8.5,13.9903543 C11.5331002,13.9903543 14.0010374,11.4960245 14.0010374,8.43048769 C14.0010374,6.25318669 12.7318554,4.26494186 10.7676451,3.36509511 C10.516406,3.24999549 10.4052714,2.95088795 10.5191532,2.69696205 C10.6327852,2.44328856 10.9284781,2.33020824 11.1802167,2.44556026 Z M8.47527568,8.82475435 C8.19956199,8.82475435 7.97579437,8.59859371 7.97579437,8.31993149 L7.97579437,1.50482286 C7.97579437,1.22616064 8.19956199,1 8.47527568,1 C8.75098936,1 8.97475698,1.22616064 8.97475698,1.50482286 L8.97475698,8.31993149 C8.97475698,8.59859371 8.75098936,8.82475435 8.47527568,8.82475435 Z" id="Fill-4"></path>
        </g>
    </g>
</svg>