<?xml version="1.0" encoding="UTF-8"?>
<svg width="20px" height="20px" viewBox="0 0 20 20" version="1.1" xmlns="http://www.w3.org/2000/svg" xmlns:xlink="http://www.w3.org/1999/xlink">
    <!-- Generator: Sketch 64 (93537) - https://sketch.com -->
    <title>Q</title>
    <desc>Created with Sketch.</desc>
    <g id="页面-1" stroke="none" stroke-width="1" fill="none" fill-rule="evenodd">
        <g id="Q">
            <path d="M15.7,19.5 L4.3,19.5 C2.21,19.5 0.5,17.79 0.5,15.7 L0.5,4.3 C0.5,2.21 2.21,0.5 4.3,0.5 L15.7,0.5 C17.79,0.5 19.5,2.21 19.5,4.3 L19.5,15.7 C19.5,17.79 17.79,19.5 15.7,19.5 Z" id="路径" fill="#FFFFFF" fill-rule="nonzero"></path>
            <path d="M15.5,19.5 L4.5,19.5 C2.291,19.5 0.5,17.709 0.5,15.5 L0.5,4.5 C0.5,2.291 2.291,0.5 4.5,0.5 L15.5,0.5 C17.709,0.5 19.5,2.291 19.5,4.5 L19.5,15.5 C19.5,17.709 17.709,19.5 15.5,19.5 Z" id="路径" stroke="#CBCBCB"></path>
            <path d="M13,9.5 C13,7.015 11.433,5 9.5,5 C7.567,5 6,7.015 6,9.5 C6,11.985 7.567,14 9.5,14 C10.248,14 10.938,13.692 11.507,13.178 L12.34,13.99 L12.983,13.274 L12.128,12.442 C12.664,11.651 13,10.631 13,9.5 Z M9.5,13 C8.145,13 7,11.397 7,9.5 C7,7.603 8.145,6 9.5,6 C10.855,6 12,7.603 12,9.5 C12,10.342 11.766,11.117 11.396,11.728 L10.648,11 L10.005,11.716 L10.783,12.473 C10.404,12.8 9.967,13 9.5,13 Z" id="形状" fill="#000000" fill-rule="nonzero"></path>
        </g>
    </g>
</svg>