<?xml version="1.0" encoding="UTF-8"?>
<svg width="16px" height="16px" viewBox="0 0 16 16" version="1.1" xmlns="http://www.w3.org/2000/svg" xmlns:xlink="http://www.w3.org/1999/xlink">
    <!-- Generator: Sketch 42 (36781) - http://www.bohemiancoding.com/sketch -->
    <title>reboot_normal</title>
    <desc>Created with Sketch.</desc>
    <defs></defs>
    <g id="Page-1" stroke="none" stroke-width="1" fill="none" fill-rule="evenodd">
        <g id="reboot_normal" fill="#000000">
            <path d="M14.610765,3.00647417 C14.3445754,2.94928246 14.0850098,3.12210631 14.0290732,3.3918314 L13.7111176,4.92077306 C12.5411099,3.1203581 10.5450555,2 8.38536206,2 C4.86454403,2 2,4.91602789 2,8.49987513 C2,12.0839721 4.86454403,15 8.38536206,15 C10.885582,15 13.1689249,13.5005283 14.2022804,11.1801433 C14.3141537,10.9286496 14.2047338,10.6327013 13.958171,10.5188174 C13.7106269,10.4039345 13.420149,10.5163199 13.3085211,10.7673141 C12.433898,12.7318118 10.5013857,14.0010182 8.38536206,14.0010182 C5.40551007,14.0010182 2.98134431,11.5332834 2.98134431,8.49987513 C2.98134431,5.46671662 5.40551007,2.99898181 8.38536206,2.99898181 C10.2177772,2.99898181 11.9110868,3.95201045 12.9005272,5.48270032 L11.3703661,5.15303633 C11.1041765,5.09559487 10.8446109,5.26841873 10.7886743,5.53839356 C10.7324923,5.80836839 10.9020195,6.07334832 11.1672278,6.13054003 L13.8416364,6.70670278 C13.8759834,6.7139454 13.9100852,6.71744184 13.9436962,6.71744184 C14.1706321,6.71744184 14.3745064,6.55635602 14.4233282,6.32134555 L14.9893186,3.59862064 C15.0452552,3.3286458 14.8759733,3.06391562 14.610765,3.00647417" id="Fill-6"></path>
        </g>
    </g>
</svg>