<svg xmlns="http://www.w3.org/2000/svg" xmlns:xlink="http://www.w3.org/1999/xlink" width="57" height="56" viewBox="0 0 57 56">
  <defs>
    <circle id="circlebutton_rotate-b" cx="23.5" cy="23.5" r="23.5"/>
    <filter id="circlebutton_rotate-a" width="146.8%" height="146.8%" x="-23.4%" y="-14.9%" filterUnits="objectBoundingBox">
      <feOffset dy="4" in="SourceAlpha" result="shadowOffsetOuter1"/>
      <feGaussianBlur in="shadowOffsetOuter1" result="shadowBlurOuter1" stdDeviation="3"/>
      <feColorMatrix in="shadowBlurOuter1" values="0 0 0 0 0.17254902   0 0 0 0 0.654901961   0 0 0 0 0.97254902  0 0 0 0.4 0"/>
    </filter>
  </defs>
  <g fill="none" fill-rule="evenodd" transform="translate(5 5)">
    <use fill="#000" filter="url(#circlebutton_rotate-a)" xlink:href="#circlebutton_rotate-b"/>
    <use fill="#0081FF" xlink:href="#circlebutton_rotate-b"/>
    <path fill="#FFF" d="M20.2109375,31.890625 L21.34375,30.796875 L24.5078125,33.9609375 L23.9609375,34 C21.3567575,34 19.097665,33.1145923 17.183595,31.34375 C15.2695217,29.5729075 14.2083344,27.39845 14,24.8203125 L15.25,24.8203125 C15.4062507,26.38282 15.927079,27.789055 16.8125,29.0390625 C17.69792,30.2890675 18.8307225,31.23958 20.2109375,31.890625 L20.2109375,31.890625 Z M26.3046875,31.65625 L31.6171875,26.34375 L21.6171875,16.34375 L16.3046875,21.65625 L26.3046875,31.65625 Z M22.4765625,15.4453125 L32.515625,25.484375 C32.7760425,25.71875 32.90625,26.0052075 32.90625,26.34375 C32.90625,26.6822925 32.7760425,26.98177 32.515625,27.2421875 L27.203125,32.5546875 C26.96875,32.8151055 26.6822925,32.9453125 26.34375,32.9453125 C26.0052075,32.9453125 25.70573,32.8151055 25.4453125,32.5546875 L15.40625,22.515625 C15.145832,22.28125 15.015625,21.9947925 15.015625,21.65625 C15.015625,21.3177075 15.145832,21.01823 15.40625,20.7578125 L20.71875,15.4453125 C20.953125,15.184895 21.2395825,15.0546875 21.578125,15.0546875 C21.9166675,15.0546875 22.216145,15.184895 22.4765625,15.4453125 L22.4765625,15.4453125 Z M27.7109375,16.109375 L26.578125,17.203125 L23.4140625,14.0390625 L23.9609375,14 C26.5651175,14 28.82421,14.8854075 30.73828,16.65625 C32.6523525,18.4270925 33.71354,20.60155 33.921875,23.1796875 L32.671875,23.1796875 C32.515625,21.61718 31.994795,20.210945 31.109375,18.9609375 C30.223955,17.7109325 29.0911525,16.76042 27.7109375,16.109375 L27.7109375,16.109375 Z"/>
  </g>
</svg>
