<?xml version="1.0" encoding="UTF-8"?>
<svg width="20px" height="20px" viewBox="0 0 20 20" version="1.1" xmlns="http://www.w3.org/2000/svg" xmlns:xlink="http://www.w3.org/1999/xlink">
    <!-- Generator: Sketch 64 (93537) - https://sketch.com -->
    <title>S</title>
    <desc>Created with Sketch.</desc>
    <g id="页面-1" stroke="none" stroke-width="1" fill="none" fill-rule="evenodd">
        <g id="S">
            <path d="M15.7,19.5 L4.3,19.5 C2.21,19.5 0.5,17.79 0.5,15.7 L0.5,4.3 C0.5,2.21 2.21,0.5 4.3,0.5 L15.7,0.5 C17.79,0.5 19.5,2.21 19.5,4.3 L19.5,15.7 C19.5,17.79 17.79,19.5 15.7,19.5 Z" id="path2" fill="#FFFFFF" fill-rule="nonzero"></path>
            <path d="M15.5,19.5 L4.5,19.5 C2.291,19.5 0.5,17.709 0.5,15.5 L0.5,4.5 C0.5,2.291 2.291,0.5 4.5,0.5 L15.5,0.5 C17.709,0.5 19.5,2.291 19.5,4.5 L19.5,15.5 C19.5,17.709 17.709,19.5 15.5,19.5 Z" id="path4" stroke="#CBCBCB"></path>
            <g id="g8" transform="translate(7.000000, 4.000000)" fill="#000000" fill-rule="nonzero">
                <path d="M2.451,9.992 C2.068,9.992 1.614,9.943 1.102,9.847 C0.597,9.752 0.225,9.634 -0.002,9.495 L0.033,8.218 C0.323,8.412 0.687,8.577 1.12,8.708 C1.631,8.864 2.126,8.943 2.589,8.943 C3.975,8.943 4.776,8.748 4.776,7.754 C4.776,7.483 4.694,7.236 4.533,7.019 C4.378,6.811 4.162,6.624 3.892,6.463 C3.628,6.307 3.147,6.074 2.422,5.751 C1.451,5.315 0.805,4.907 0.502,4.54 C0.203,4.181 0.052,3.763 0.052,3.299 C0.052,2.59 0.361,2.042 0.995,1.625 C1.633,1.205 2.678,0.992 3.657,0.992 C4.367,0.992 4.989,1.151 6,1.477 L6,2.486 C4.989,2.203 4.533,1.906 3.587,1.906 C2.968,1.906 2.342,2.026 1.947,2.263 C1.548,2.502 1.246,2.743 1.246,3.202 C1.246,3.592 1.362,3.915 1.648,4.16 C1.92,4.394 2.476,4.702 3.374,5.102 C4.327,5.513 4.992,5.927 5.367,6.332 C5.734,6.728 5.917,7.179 5.917,7.671 C5.917,8.423 5.621,8.983 5.017,9.385 C4.409,9.787 3.544,9.992 2.451,9.992 Z" id="path6"></path>
            </g>
        </g>
    </g>
</svg>