<?xml version="1.0" encoding="iso-8859-1"?>
<!-- Generator: Adobe Illustrator 16.0.0, SVG Export Plug-In . SVG Version: 6.00 Build 0)  -->
<!DOCTYPE svg PUBLIC "-//W3C//DTD SVG 1.1//EN" "http://www.w3.org/Graphics/SVG/1.1/DTD/svg11.dtd">
<svg version="1.1" id="&#x56FE;&#x5C42;_1" xmlns="http://www.w3.org/2000/svg" xmlns:xlink="http://www.w3.org/1999/xlink" x="0px"
	 y="0px" width="24px" height="24px" viewBox="29 29 24 24" style="enable-background:new 29 29 24 24;" xml:space="preserve">
<path style="fill:#536076;" d="M41,29c6.627,0,12,5.373,12,12s-5.373,12-12,12s-12-5.373-12-12S34.373,29,41,29z M42.464,33.683
	h-2.927v2.56c-0.769,0.236-1.458,0.654-2.019,1.203l0,0l-2.25-1.298l-1.463,2.535l2.316,1.337c-0.063,0.317-0.097,0.645-0.097,0.98
	c0,0.428,0.054,0.843,0.155,1.239l0,0l-2.375,1.37l1.463,2.535l2.444-1.41c0.522,0.459,1.142,0.813,1.824,1.021l0,0v2.854h2.927
	l-0.001-2.854c0.684-0.209,1.303-0.563,1.825-1.021l0,0l2.442,1.41l1.465-2.535l-2.375-1.37c0.102-0.396,0.154-0.813,0.154-1.239
	c0-0.336-0.033-0.664-0.097-0.98l0,0l2.315-1.337l-1.463-2.535l-2.25,1.298c-0.561-0.549-1.25-0.967-2.02-1.203l0,0L42.464,33.683z
	 M41.146,38.951c1.211,0,2.195,0.983,2.195,2.195c0,1.211-0.983,2.195-2.195,2.195c-1.212,0-2.195-0.983-2.195-2.195
	C38.951,39.934,39.934,38.951,41.146,38.951z"/>
</svg>
