<svg xmlns="http://www.w3.org/2000/svg" width="75" height="75" viewBox="0 0 75 75">
  <path fill-rule="evenodd" d="M18.89125,0.75 C19.98325,0.75 21.04975,0.85425 22.09,1.035 C13.3345,2.565 6.67825,10.1985 6.67825,19.39125 C6.67825,28.58475 13.3345,36.21825 22.09,37.74825 C21.04975,37.929 19.98325,38.03325 18.89125,38.03325 C8.596,38.03325 0.25,29.68725 0.25,19.39125 C0.25,9.096 8.596,0.75 18.89125,0.75 Z M24.59,22.64 L24.59,23.33 L20.91,29.02 L24.63,29.02 L24.63,30 L19.47,30 L19.47,29.3 L23.16,23.61 L19.81,23.61 L19.81,22.64 L24.59,22.64 Z M36.242,12.68 L36.242,14.264 L30.05,23.768 L36.314,23.768 L36.314,26 L26.774,26 L26.774,24.398 L32.984,14.894 L27.368,14.894 L27.368,12.68 L36.242,12.68 Z M27.826,7.696 L27.826,8.662 L22.674,16.628 L27.882,16.628 L27.882,18 L20.658,18 L20.658,17.02 L25.824,9.054 L21.134,9.054 L21.134,7.696 L27.826,7.696 Z" transform="translate(19 18)"/>
</svg>
