<?xml version="1.0" encoding="UTF-8" standalone="no"?>
<!-- Generator: Adobe Illustrator 18.0.0, SVG Export Plug-In . SVG Version: 6.00 Build 0)  -->

<svg
   xmlns:dc="http://purl.org/dc/elements/1.1/"
   xmlns:cc="http://creativecommons.org/ns#"
   xmlns:rdf="http://www.w3.org/1999/02/22-rdf-syntax-ns#"
   xmlns:svg="http://www.w3.org/2000/svg"
   xmlns="http://www.w3.org/2000/svg"
   xmlns:sodipodi="http://sodipodi.sourceforge.net/DTD/sodipodi-0.dtd"
   xmlns:inkscape="http://www.inkscape.org/namespaces/inkscape"
   version="1.1"
   id="图层_1"
   x="0px"
   y="0px"
   viewBox="0 0 20 20"
   enable-background="new 0 0 20 20"
   xml:space="preserve"
   sodipodi:docname="Super.svg"
   width="20"
   height="20"
   inkscape:version="0.92.1 r15371"><metadata
     id="metadata23"><rdf:RDF><cc:Work
         rdf:about=""><dc:format>image/svg+xml</dc:format><dc:type
           rdf:resource="http://purl.org/dc/dcmitype/StillImage" /><dc:title></dc:title></cc:Work></rdf:RDF></metadata><defs
     id="defs21" /><sodipodi:namedview
     pagecolor="#ffffff"
     bordercolor="#666666"
     borderopacity="1"
     objecttolerance="10"
     gridtolerance="10"
     guidetolerance="10"
     inkscape:pageopacity="0"
     inkscape:pageshadow="2"
     inkscape:window-width="836"
     inkscape:window-height="480"
     id="namedview19"
     showgrid="false"
     fit-margin-top="0"
     fit-margin-left="0"
     fit-margin-right="0"
     fit-margin-bottom="0"
     inkscape:zoom="11.8"
     inkscape:cx="10"
     inkscape:cy="10"
     inkscape:window-x="0"
     inkscape:window-y="0"
     inkscape:window-maximized="0"
     inkscape:current-layer="图层_1" /><g
     id="g16"><path
       d="M 15.7,19.5 H 4.3 C 2.21,19.5 0.5,17.79 0.5,15.7 V 4.3 C 0.5,2.21 2.21,0.5 4.3,0.5 h 11.4 c 2.09,0 3.8,1.71 3.8,3.8 v 11.4 c 0,2.09 -1.71,3.8 -3.8,3.8 z"
       id="path2"
       inkscape:connector-curvature="0"
       style="opacity:0.1;fill:#ffffff" /><path
       stroke-miterlimit="10"
       d="m 15.5,19.5 h -11 c -2.209,0 -4,-1.791 -4,-4 v -11 c 0,-2.209 1.791,-4 4,-4 h 11 c 2.209,0 4,1.791 4,4 v 11 c 0,2.209 -1.791,4 -4,4 z"
       id="path4"
       inkscape:connector-curvature="0"
       style="fill:none;stroke:#cbcbcb;stroke-miterlimit:10" /><g
       id="g14"><path
         d="m 9.732,9.224 1.178,-3.9 C 10.183,4.846 8.399,3.943 6.472,4.998 l -1.1,3.875 C 6.316,8.497 7.933,8.174 9.732,9.224 Z"
         id="path6"
         inkscape:connector-curvature="0"
         style="fill:#0f0f0f" /><path
         d="m 10.457,9.718 c 0,0 2.18,1.606 4.463,-0.071 l 1.079,-3.732 c 0,0 -2.421,1.484 -4.385,-0.025 z"
         id="path8"
         inkscape:connector-curvature="0"
         style="fill:#0f0f0f" /><path
         d="m 12.63,11.262 c -1.211,0 -2.124,-0.5 -2.43,-0.692 l -1.18,3.906 c 0.687,0.423 2.649,1.401 4.468,0.129 l 1.097,-3.797 c -0.699,0.333 -1.362,0.454 -1.955,0.454 z"
         id="path10"
         inkscape:connector-curvature="0"
         style="fill:#0f0f0f" /><path
         d="M 9.481,10.054 C 7.274,8.655 5.406,9.736 5.065,9.959 l -1.064,3.748 c 0,0 2.314,-1.095 4.303,0.24 z"
         id="path12"
         inkscape:connector-curvature="0"
         style="fill:#0f0f0f" /></g></g></svg>