<?xml version="1.0" encoding="UTF-8"?>
<svg width="30px" height="20px" viewBox="0 0 30 20" version="1.1" xmlns="http://www.w3.org/2000/svg" xmlns:xlink="http://www.w3.org/1999/xlink">
    <!-- Generator: Sketch 64 (93537) - https://sketch.com -->
    <title>Tab</title>
    <desc>Created with Sketch.</desc>
    <g id="页面-1" stroke="none" stroke-width="1" fill="none" fill-rule="evenodd">
        <g id="Tab">
            <path d="M25.667,19.5 L4.333,19.5 C2.225,19.5 0.5,17.775 0.5,15.667 L0.5,4.333 C0.5,2.225 2.225,0.5 4.333,0.5 L25.667,0.5 C27.775,0.5 29.5,2.225 29.5,4.333 L29.5,15.667 C29.5,17.775 27.775,19.5 25.667,19.5 Z" id="path2" fill="#FFFFFF" fill-rule="nonzero"></path>
            <g id="g8" transform="translate(12.000000, 4.000000)" fill="#000000" fill-rule="nonzero">
                <path d="M0.919,4.542 C1.502,4.179 2.175,3.996 2.938,3.996 C4.351,3.996 5.058,4.738 5.058,6.222 L5.058,9.995 L4.03,9.995 L4.03,9.089 L4.004,9.089 C3.598,9.785 2.999,10.133 2.207,10.133 C1.639,10.133 1.186,9.98 0.851,9.672 C0.516,9.364 0.348,8.949 0.348,8.427 C0.348,7.331 0.995,6.694 2.292,6.514 L4.03,6.27 C4.03,5.313 3.634,4.834 2.842,4.834 C2.14,4.834 1.498,5.07 0.919,5.544 L0.919,4.542 Z M2.657,7.239 C2.176,7.302 1.844,7.423 1.663,7.599 C1.482,7.775 1.391,8.023 1.391,8.341 C1.391,8.62 1.49,8.848 1.687,9.025 C1.885,9.202 2.147,9.29 2.472,9.29 C2.924,9.29 3.296,9.132 3.59,8.813 C3.883,8.495 4.029,8.096 4.029,7.616 L4.029,7.053 L2.657,7.239 Z" id="path4"></path>
                <path d="M7.03,9.035 L7.03,10 L5.992,10 L5.992,0.956 L7.03,0.956 L7.03,5.013 L7.051,5.013 C7.51,4.246 8.181,3.863 9.065,3.863 C9.799,3.863 10.383,4.122 10.816,4.639 C11.249,5.156 11.465,5.865 11.465,6.762 C11.465,7.751 11.222,8.537 10.736,9.122 C10.251,9.708 9.603,10 8.795,10 C8.032,10 7.451,9.679 7.052,9.035 L7.03,9.035 Z M7.025,7.451 C7.025,7.925 7.178,8.325 7.486,8.651 C7.794,8.978 8.178,9.141 8.641,9.141 C9.192,9.141 9.622,8.929 9.934,8.505 C10.245,8.081 10.4,7.494 10.4,6.745 C10.4,6.127 10.255,5.636 9.965,5.269 C9.676,4.904 9.279,4.72 8.778,4.72 C8.269,4.72 7.849,4.903 7.519,5.266 C7.189,5.63 7.024,6.093 7.024,6.655 L7.024,7.451 L7.025,7.451 Z" id="path6"></path>
            </g>
            <path d="M25.5,19.5 L4.5,19.5 C2.291,19.5 0.5,17.709 0.5,15.5 L0.5,4.5 C0.5,2.291 2.291,0.5 4.5,0.5 L25.5,0.5 C27.709,0.5 29.5,2.291 29.5,4.5 L29.5,15.5 C29.5,17.709 27.709,19.5 25.5,19.5 Z" id="path10" stroke="#CBCBCB"></path>
            <polygon id="polygon12" fill="#000000" fill-rule="nonzero" points="9 5 6 5 6 6 9 6 9 14 10 14 10 6 13 6 13 5 10 5"></polygon>
        </g>
    </g>
</svg>