<svg xmlns="http://www.w3.org/2000/svg" xmlns:xlink="http://www.w3.org/1999/xlink" width="24" height="24" viewBox="0 0 24 24">
  <defs>
    <filter id="user-trash-full-24px-a" width="125%" height="125%" x="-12.5%" y="-12.5%" filterUnits="objectBoundingBox">
      <feOffset in="SourceAlpha" result="shadowOffsetOuter1"/>
      <feGaussianBlur in="shadowOffsetOuter1" result="shadowBlurOuter1" stdDeviation=".5"/>
      <feComposite in="shadowBlurOuter1" in2="SourceAlpha" operator="out" result="shadowBlurOuter1"/>
      <feColorMatrix in="shadowBlurOuter1" result="shadowMatrixOuter1" values="0 0 0 0 0   0 0 0 0 0   0 0 0 0 0  0 0 0 0.15 0"/>
      <feMerge>
        <feMergeNode in="shadowMatrixOuter1"/>
        <feMergeNode in="SourceGraphic"/>
      </feMerge>
    </filter>
    <path id="user-trash-full-24px-b" d="M0.877568008,0 L19.122432,3.33066907e-16 C19.5366456,2.5697711e-16 19.872432,0.335786438 19.872432,0.75 C19.872432,0.789129758 19.8693697,0.828199511 19.8632732,0.866851429 L17.2449005,17.4674057 C17.0148737,18.9257818 15.7579411,20 14.2815356,20 L5.71846444,20 C4.24205892,20 2.98512627,18.9257818 2.75509948,17.4674057 L0.136726768,0.866851429 C0.0721915054,0.45769611 0.35156126,0.0736940217 0.760716579,0.00915875953 C0.799368497,0.00306226873 0.83843825,8.9536644e-16 0.877568008,8.8817842e-16 Z"/>
    <filter id="user-trash-full-24px-c" width="153.7%" height="155%" x="-26.9%" y="-27.5%" filterUnits="objectBoundingBox">
      <feMorphology in="SourceAlpha" radius="3" result="shadowSpreadInner1"/>
      <feGaussianBlur in="shadowSpreadInner1" result="shadowBlurInner1" stdDeviation="2.5"/>
      <feOffset dy="-3" in="shadowBlurInner1" result="shadowOffsetInner1"/>
      <feComposite in="shadowOffsetInner1" in2="SourceAlpha" k2="-1" k3="1" operator="arithmetic" result="shadowInnerInner1"/>
      <feColorMatrix in="shadowInnerInner1" result="shadowMatrixInner1" values="0 0 0 0 1   0 0 0 0 1   0 0 0 0 1  0 0 0 0.6 0"/>
      <feGaussianBlur in="SourceAlpha" result="shadowBlurInner2" stdDeviation=".5"/>
      <feOffset dy="1" in="shadowBlurInner2" result="shadowOffsetInner2"/>
      <feComposite in="shadowOffsetInner2" in2="SourceAlpha" k2="-1" k3="1" operator="arithmetic" result="shadowInnerInner2"/>
      <feColorMatrix in="shadowInnerInner2" result="shadowMatrixInner2" values="0 0 0 0 1   0 0 0 0 1   0 0 0 0 1  0 0 0 0.6 0"/>
      <feMerge>
        <feMergeNode in="shadowMatrixInner1"/>
        <feMergeNode in="shadowMatrixInner2"/>
      </feMerge>
    </filter>
    <radialGradient id="user-trash-full-24px-d" cx="50%" cy="52.514%" r="292.128%" fx="50%" fy="52.514%" gradientTransform="matrix(0 1 -.16133 0 .585 .025)">
      <stop offset="0%" stop-color="#FFF" stop-opacity="0"/>
      <stop offset="100%" stop-color="#FFF" stop-opacity=".576"/>
    </radialGradient>
    <path id="user-trash-full-24px-e" d="M0.877568008,0 L19.122432,3.33066907e-16 C19.5366456,2.5697711e-16 19.872432,0.335786438 19.872432,0.75 C19.872432,0.789129758 19.8693697,0.828199511 19.8632732,0.866851429 L17.2449005,17.4674057 C17.0148737,18.9257818 15.7579411,20 14.2815356,20 L5.71846444,20 C4.24205892,20 2.98512627,18.9257818 2.75509948,17.4674057 L0.136726768,0.866851429 C0.0721915054,0.45769611 0.35156126,0.0736940217 0.760716579,0.00915875953 C0.799368497,0.00306226873 0.83843825,8.9536644e-16 0.877568008,8.8817842e-16 Z"/>
    <filter id="user-trash-full-24px-f" width="133.7%" height="135%" x="-16.9%" y="-17.5%" filterUnits="objectBoundingBox">
      <feMorphology in="SourceAlpha" radius="1" result="shadowSpreadInner1"/>
      <feGaussianBlur in="shadowSpreadInner1" result="shadowBlurInner1" stdDeviation="1.5"/>
      <feOffset dy="-3" in="shadowBlurInner1" result="shadowOffsetInner1"/>
      <feComposite in="shadowOffsetInner1" in2="SourceAlpha" k2="-1" k3="1" operator="arithmetic" result="shadowInnerInner1"/>
      <feColorMatrix in="shadowInnerInner1" values="0 0 0 0 1   0 0 0 0 1   0 0 0 0 1  0 0 0 0.5 0"/>
    </filter>
    <linearGradient id="user-trash-full-24px-g" x1="98.965%" x2="0%" y1="50%" y2="50%">
      <stop offset="0%" stop-color="#9BAF03"/>
      <stop offset="45.365%" stop-color="#4F6A00"/>
      <stop offset="100%" stop-color="#A7BB00"/>
    </linearGradient>
  </defs>
  <g fill="none" fill-rule="evenodd">
    <g filter="url(#user-trash-full-24px-a)" transform="translate(2 2)">
      <use fill="#BFC7DC" fill-opacity=".8" xlink:href="#user-trash-full-24px-b"/>
      <use fill="#000" filter="url(#user-trash-full-24px-c)" xlink:href="#user-trash-full-24px-b"/>
    </g>
    <g opacity=".5" transform="translate(3.1 2.1)">
      <path d="M0.0700907727,0.900000095 L2.6428879,17.2116039 C2.79623909,18.1838547 3.63419419,18.9000001 4.61846454,18.9000001 L13.1815357,18.9000001 C14.165806,18.9000001 15.0037611,18.1838547 15.1571123,17.2116039 L17.7299094,0.900000095 L0.0700907727,0.900000095 Z"/>
      <path fill="#617B13" d="M2.77447772,16.9688123 C2.81856012,17.5225437 2.94513122,18.4029634 3.29247203,18.8356669 C3.29247203,18.8356669 2.85429597,18.9752425 3.83063428,18.9752425 C4.5297855,18.9752425 9.53105804,18.9752425 9.53105804,18.9752425 C10.0853067,18.9752425 10.492006,18.5340214 10.4383718,17.9786216 L10.2717189,16.252874 C10.2185658,15.7024555 9.72774044,15.2711523 9.17722127,15.2894718 L3.65631154,15.4731896 C3.10499031,15.4915357 2.69404955,15.9585315 2.73787439,16.5090277 L2.77447772,16.9688123 Z"/>
      <path fill="#6D8700" d="M6.93108019,11.188131 C6.84996013,10.6423824 7.21921553,10.073895 7.74413574,9.92176934 L13.9154285,8.13328466 C14.4455867,7.97964102 14.9905572,8.29225405 15.1304679,8.82322804 L15.5912017,10.571756 C15.7320912,11.1064448 15.4174442,11.6935471 14.9136213,11.8740558 L8.364176,14.2205783 C7.84906917,14.4051298 7.36706116,14.1212653 7.28461172,13.566573 L6.93108019,11.188131 Z" transform="rotate(-20 11.315 11.205)"/>
      <path fill="#839928" d="M2.82098848,11.9880797 C2.606476,12.5020549 2.4701557,13.3639763 2.51693664,13.9183075 L2.6757917,15.8006621 C2.72238099,16.3527222 3.17702546,16.9486761 3.69601769,17.1334532 L5.45837102,17.7609046 C5.97523699,17.9449247 6.5594235,17.6796444 6.76694306,17.1589632 L9.98319687,9.08915553 C10.1890353,8.57269243 9.94318391,7.97923333 9.43087692,7.76227422 L6.23759958,6.4099394 C5.72672329,6.19358618 5.14104411,6.42919081 4.92416702,6.94883166 L2.82098848,11.9880797 Z"/>
      <path fill="#758D10" d="M4.76448208,18.0662834 C4.99233288,18.5651302 5.63412593,18.9746166 6.01294554,18.978836 L5.17704245,18.9695254 C5.63869898,18.9746675 6.24826027,18.5930512 6.53362041,18.1252199 L10.1094579,12.2628424 C10.3970187,11.7914032 10.243164,11.1784524 9.77320584,10.8981868 L7.87112126,9.76385407 C7.39785358,9.48161478 6.7769425,9.63483274 6.48840582,10.0994287 L3.92404436,14.228512 C3.63365939,14.696084 3.58191753,15.477227 3.81081623,15.9783681 L4.76448208,18.0662834 Z"/>
      <path fill="#6D8700" d="M2.50596147,9.71705383 C2.7638176,9.22247095 3.3639735,9.03565653 3.84316722,9.29799648 L12.7376483,14.1673794 C13.2183105,14.4305233 13.3993125,15.0404712 13.1429896,15.527717 L12.3713209,16.9945876 C12.1145225,17.4827374 11.5108003,17.6716613 11.0138779,17.4118601 L3.312299,13.3853152 C2.81940234,13.1276187 2.37907665,12.4679724 2.33004191,11.9256449 L2.27565208,11.3240898 C2.22606313,10.7756327 2.39263516,9.9344202 2.65275317,9.43549891 L2.50596147,9.71705383 Z"/>
      <path fill="#869D29" d="M10.2570483,17.4579304 C10.026906,17.9637012 9.98055782,18.065558 9.98055782,18.065558 C9.75194709,18.5679629 10.0087581,18.9752426 10.5635665,18.9752426 C10.5635665,18.9752426 12.8617631,18.9752425 13.8381013,18.9752425 C14.8144396,18.9752425 14.4314081,18.8094835 14.4314081,18.8094835 C14.6968755,18.3466401 14.9562981,17.5278189 15.0122062,16.9669362 L15.5543781,11.5277429 C15.6096766,10.9729755 15.215774,10.4425311 14.6685953,10.3418627 L14.5716537,10.3240276 C14.0271509,10.2238515 13.3981167,10.5549807 13.1728592,11.0500166 C13.1728592,11.0500166 11.3666135,15.0195012 10.2570483,17.4579304 Z"/>
      <path fill="#90A72F" d="M2.90774894,12.8590824 C2.68527086,13.3683975 2.53914842,14.2374018 2.57960404,14.7764561 L2.50576504,13.7925822 C2.5470137,14.3422034 2.97274573,15.0043517 3.45205861,15.2689892 L8.8170577,18.2311042 C9.29843255,18.4968801 9.87804134,18.301732 10.1110125,17.7966112 L10.9749069,15.9235427 C11.2081636,15.417803 11.0112675,14.7914473 10.5284678,14.5208051 L4.69244804,11.2493175 C4.21262986,10.9803467 3.64580875,11.1694553 3.42082818,11.6844993 L2.90774894,12.8590824 Z"/>
    </g>
    <g fill-rule="nonzero" transform="translate(2 2)">
      <use fill="url(#user-trash-full-24px-d)" xlink:href="#user-trash-full-24px-e"/>
      <use fill="#000" filter="url(#user-trash-full-24px-f)" xlink:href="#user-trash-full-24px-e"/>
    </g>
    <path fill="url(#user-trash-full-24px-g)" d="M11.9444737,9.27101988 C10.8952632,7.1589388 9.79157895,8.85969555 9.79157895,8.85969555 L8.95473684,10.3070334 L10.6773684,11.289128 L11.9444737,9.27101988 Z M15.67,8.62399285 L14.7415789,9.13699285 L14.4013158,8.55081717 C14.4013158,8.55081717 14.1384211,7.94076312 12.8413158,8.00469555 C12.8413158,8.00469555 11.2339474,8.04860096 11.0665789,8.01856042 C11.0665789,8.01856042 11.5221053,8.10637123 11.7486842,8.45068204 L12.775,10.2223037 L12.025,10.6351685 L14.5418421,10.6883172 L15.67,8.62399285 Z M9.50105263,13.7324253 C8.19921053,15.7035469 10.2628947,15.7412901 10.2628947,15.7412901 L11.9626316,15.686601 L11.9286842,13.740128 L9.50105263,13.7324253 Z M7,10.9640739 L7.93157895,11.4709118 L7.59368421,12.058628 C7.59368421,12.058628 7.19736842,12.5962766 7.92763158,13.6423037 C7.92763158,13.6423037 8.80315789,14.9610064 8.86157895,15.1158307 C8.86157895,15.1158307 8.70131579,14.6906415 8.88526316,14.3224523 L9.90368421,12.5462091 L10.6560526,12.9552226 L9.39368421,10.8308172 L7,10.9640739 Z M14.8528947,13.4374118 C17.2521053,13.5853037 16.2786842,11.810601 16.2786842,11.810601 L15.4,10.3879118 L13.6757895,11.3676956 L14.8528947,13.4374118 Z M12.3084211,14.9448307 L13.5952632,12.8335199 L13.5952632,13.6754253 L15.6802632,13.6754253 C16.0994737,13.6523172 16.4018421,13.3080064 16.4018421,13.3080064 C16.2921053,13.4327901 15.5389474,14.8223577 15.5389474,14.8223577 C14.9594737,15.954655 14.2852632,15.8791685 14.2852632,15.8791685 L13.5952632,15.8791685 L13.5952632,16.9190334 L12.3084211,14.9448307 Z"/>
  </g>
</svg>
