<svg xmlns="http://www.w3.org/2000/svg" width="20" height="20" viewBox="0 0 20 20">
  <defs>
    <linearGradient id="uos-托盘1-a" x1="15.968%" x2="100%" y1="14.224%" y2="60.554%">
      <stop offset="0%" stop-color="#0071FF"/>
      <stop offset="48.72%" stop-color="#00E8FC"/>
      <stop offset="100%" stop-color="#00A2FF"/>
    </linearGradient>
  </defs>
  <g fill="none" transform="translate(1 1)">
    <circle cx="9" cy="9" r="9" fill="url(#uos-托盘1-a)"/>
    <path fill="#FFF" d="M13,4.5 C13.5128358,4.5 13.9355072,4.88604019 13.9932723,5.38337887 L14,5.5 L14,9.5 C14,12.5 12,14.5 9,14.5 C6,14.5 4,12.5 4.0043492,9.70016408 L4,9.5 L4,5.5 C4,4.94771525 4.44771525,4.5 5,4.5 C5.51283584,4.5 5.93550716,4.88604019 5.99327227,5.38337887 L6,5.5 L6,9.5 C6,11.5 7.5,12.5 9,12.5 C10.5,12.5 12,11.5 12,9.5 L12,5.5 C12,4.94771525 12.4477153,4.5 13,4.5 Z"/>
  </g>
</svg>
