<?xml version="1.0" encoding="UTF-8"?>
<svg width="16px" height="16px" viewBox="0 0 16 16" version="1.1" xmlns="http://www.w3.org/2000/svg" xmlns:xlink="http://www.w3.org/1999/xlink">
    <!-- Generator: Sketch 42 (36781) - http://www.bohemiancoding.com/sketch -->
    <title>userswitch_normal</title>
    <desc>Created with Sketch.</desc>
    <defs></defs>
    <g id="Page-1" stroke="none" stroke-width="1" fill="none" fill-rule="evenodd">
        <g id="userswitch_normal" fill="#000000">
            <path d="M11.1762707,8.47912472 C12.1222261,7.91224405 12.7642321,6.82817308 12.7642321,5.58477377 C12.7642321,3.75739847 11.3792903,2.27101774 9.67694194,2.27101774 C7.97482557,2.27101774 6.5896518,3.75739847 6.5896518,5.58477377 C6.5896518,6.81404095 7.21796848,7.88671504 8.14652215,8.45883828 C5.87270256,9.0751814 4.24808167,11.0883258 4.24808167,13.5441249 C4.24808167,13.795768 4.45574173,14 4.71212649,14 L14.5359552,14 C14.7921079,14 15,13.795768 15,13.5441249 C15,11.1152224 13.4108785,9.11894541 11.1762707,8.47912472 L11.1762707,8.47912472 Z M9.67694194,3.18276792 C10.8674489,3.18276792 11.8361425,4.2602287 11.8361425,5.58477377 C11.8361425,6.90931885 10.8674489,7.98677962 9.67694194,7.98677962 C8.48643498,7.98677962 7.51774143,6.90931885 7.51774143,5.58477377 C7.51774143,4.2602287 8.48643498,3.18276792 9.67694194,3.18276792 L9.67694194,3.18276792 Z M5.19914152,13.0882498 C5.42420325,10.8601603 7.28687913,9.17456217 9.62404084,9.17456217 C11.9612025,9.17456217 13.8236464,10.8601603 14.0489402,13.0882498 L5.19914152,13.0882498 Z M5.08359436,8.34692094 C3.43530718,8.66990845 2.1587199,10.0790183 1.95616434,11.7206245 L2.6526956,11.7206245 C2.90908036,11.7206245 3.11674042,11.9246287 3.11674042,12.1764996 C3.11674042,12.4281427 2.90908036,12.6323747 2.6526956,12.6323747 L1.46404481,12.6323747 C1.20789208,12.6323747 1,12.4281427 1,12.1764996 C1,10.138738 2.29630919,8.34623713 4.17035417,7.66037306 C3.51442682,7.065684 3.11604435,6.1616837 3.11604435,5.18314782 C3.11604435,3.42802872 4.38752714,2 5.95089411,2 C6.14880923,2 6.3462603,2.02302169 6.53698271,2.06815333 C6.78617478,2.12718915 6.93977361,2.3733617 6.87967981,2.61793868 C6.81958601,2.86319948 6.56946585,3.0138662 6.31980974,2.95460244 C6.19985416,2.92633818 6.07572217,2.91175018 5.95089411,2.91175018 C4.89960059,2.91175018 4.04413398,3.93063101 4.04413398,5.18314782 C4.04413398,6.10994188 4.51119508,6.93621548 5.23394488,7.28792311 C5.45506223,7.39528169 5.54833524,7.65216731 5.4536701,7.87258291 C5.46782346,8.09664552 5.31376059,8.30201725 5.08359436,8.34692094 Z" id="Fill-8"></path>
        </g>
    </g>
</svg>