<?xml version="1.0" encoding="UTF-8"?>
<svg width="20px" height="20px" viewBox="0 0 20 20" version="1.1" xmlns="http://www.w3.org/2000/svg" xmlns:xlink="http://www.w3.org/1999/xlink">
    <!-- Generator: Sketch 64 (93537) - https://sketch.com -->
    <title>~</title>
    <desc>Created with Sketch.</desc>
    <g id="页面-1" stroke="none" stroke-width="1" fill="none" fill-rule="evenodd">
        <g id="~">
            <path d="M15.7,19.5 L4.3,19.5 C2.21,19.5 0.5,17.79 0.5,15.7 L0.5,4.3 C0.5,2.21 2.21,0.5 4.3,0.5 L15.7,0.5 C17.79,0.5 19.5,2.21 19.5,4.3 L19.5,15.7 C19.5,17.79 17.79,19.5 15.7,19.5 Z" id="path4" fill="#FFFFFF" fill-rule="nonzero"></path>
            <path d="M15.5,19.5 L4.5,19.5 C2.291,19.5 0.5,17.709 0.5,15.5 L0.5,4.5 C0.5,2.291 2.291,0.5 4.5,0.5 L15.5,0.5 C17.709,0.5 19.5,2.291 19.5,4.5 L19.5,15.5 C19.5,17.709 17.709,19.5 15.5,19.5 Z" id="path6" stroke="#CBCBCB"></path>
            <g id="g10" transform="translate(4.000000, 8.000000)" fill="#000000" fill-rule="nonzero">
                <path d="M0.368,3.57 C1.256,1.434 2.553,1.122 3.465,1.122 C4.425,1.122 5.193,1.362 6.393,1.914 C7.521,2.37 8.289,2.73 9.129,2.73 C10.233,2.73 10.761,2.154 11.265,0.81 L11.986,1.146 C11.53,2.753 10.498,3.69 9.009,3.69 C7.833,3.69 6.729,3.186 5.696,2.73 C4.808,2.346 4.208,2.082 3.368,2.082 C2.288,2.082 1.616,2.73 1.136,4.003 L0.368,3.57 Z" id="path8"></path>
            </g>
        </g>
    </g>
</svg>