<svg xmlns="http://www.w3.org/2000/svg" xmlns:xlink="http://www.w3.org/1999/xlink" width="224" height="224" viewBox="0 0 224 224">
  <defs>
    <linearGradient id="clock_1-c" x1="50%" x2="50%" y1="0%" y2="100%">
      <stop offset="0%" stop-color="#EAEDEE"/>
      <stop offset="100%" stop-color="#ADB9C5"/>
    </linearGradient>
    <path id="clock_1-b" d="M82,164 C127.287352,164 164,127.287352 164,82 C164,36.7126483 127.287352,0 82,0 C36.7126483,0 0,36.7126483 0,82 C0,127.287352 36.7126483,164 82,164 Z"/>
    <filter id="clock_1-a" width="136.6%" height="137.2%" x="-18.3%" y="-9.8%" filterUnits="objectBoundingBox">
      <feOffset dy="3" in="SourceAlpha" result="shadowOffsetOuter1"/>
      <feGaussianBlur in="shadowOffsetOuter1" result="shadowBlurOuter1" stdDeviation="2"/>
      <feColorMatrix in="shadowBlurOuter1" result="shadowMatrixOuter1" values="0 0 0 0 0   0 0 0 0 0   0 0 0 0 0  0 0 0 0.1 0"/>
      <feOffset dy="15" in="SourceAlpha" result="shadowOffsetOuter2"/>
      <feGaussianBlur in="shadowOffsetOuter2" result="shadowBlurOuter2" stdDeviation="7.5"/>
      <feColorMatrix in="shadowBlurOuter2" result="shadowMatrixOuter2" values="0 0 0 0 0.22745098   0 0 0 0 0.298039216   0 0 0 0 0.341176471  0 0 0 0.1 0"/>
      <feMerge>
        <feMergeNode in="shadowMatrixOuter1"/>
        <feMergeNode in="shadowMatrixOuter2"/>
      </feMerge>
    </filter>
    <radialGradient id="clock_1-d" cx="48.025%" cy="48.161%" r="52.475%" fx="48.025%" fy="48.161%">
      <stop offset="0%" stop-color="#55677B"/>
      <stop offset="100%" stop-color="#334557"/>
    </radialGradient>
    <path id="clock_1-f" d="M56.6083984,102.792969 C56.9469418,102.792969 57.2791325,102.822591 57.6049805,102.881836 C57.9308285,102.941081 58.233397,103.025716 58.5126953,103.135742 L58.1318359,104.100586 C58.0218093,104.049804 57.8980313,104.000082 57.760498,103.951416 C57.6229648,103.90275 57.4780281,103.861491 57.3256836,103.827637 C57.1733391,103.793782 57.018881,103.766276 56.8623047,103.745117 C56.7057284,103.723958 56.5512703,103.713379 56.3989258,103.713379 C55.9926738,103.713379 55.6393244,103.79484 55.3388672,103.957764 C55.03841,104.120688 54.7823904,104.355549 54.5708008,104.662354 C54.3592112,104.969158 54.1878262,105.344724 54.0566406,105.789062 C53.9254551,106.233401 53.8260095,106.758135 53.7583008,107.363281 C53.9741222,107.143228 54.2618797,106.957032 54.621582,106.804688 C54.9812844,106.652343 55.3896462,106.576172 55.8466797,106.576172 C56.633793,106.576172 57.2484516,106.728514 57.6906738,107.033203 C58.1328961,107.337892 58.461913,107.709226 58.6777344,108.147217 C58.8935558,108.585207 59.0014648,109.127926 59.0014648,109.775391 C59.0014648,110.824875 58.7084176,111.65112 58.1223145,112.25415 C57.5362113,112.857181 56.6930394,113.158691 55.5927734,113.158691 C54.6067659,113.158691 53.8556341,112.800052 53.3393555,112.082764 C52.8230768,111.365475 52.5649414,110.29379 52.5649414,108.867676 C52.5649414,107.898595 52.6400546,107.035323 52.7902832,106.277832 C52.9405118,105.520341 53.1774886,104.884524 53.5012207,104.370361 C53.8249528,103.856199 54.242836,103.464764 54.7548828,103.196045 C55.2669296,102.927326 55.884762,102.792969 56.6083984,102.792969 Z M55.7705078,107.496582 C55.3007789,107.496582 54.9040544,107.559 54.5803223,107.683838 C54.2565902,107.808676 53.9741223,108.029784 53.7329102,108.347168 C53.7075194,108.419108 53.6895346,108.493164 53.6789551,108.569336 C53.6683756,108.645508 53.6609701,108.721679 53.6567383,108.797852 L53.652771,108.911316 L53.652771,108.911316 L53.6567383,109.223145 C53.6482747,109.769046 53.7011713,110.234536 53.8154297,110.619629 C53.9296881,111.004722 54.0830882,111.31787 54.2756348,111.559082 C54.4681813,111.800294 54.6924629,111.975911 54.9484863,112.085938 C55.2045097,112.195964 55.4700507,112.250977 55.7451172,112.250977 C56.0413426,112.250977 56.3576643,112.182211 56.6940918,112.044678 C57.0305193,111.907144 57.3235665,111.655357 57.5732422,111.289307 C57.8229179,110.923257 57.9477539,110.429202 57.9477539,109.807129 C57.9477539,109.447427 57.8885097,109.091961 57.7700195,108.740723 C57.6515294,108.389484 57.4251319,108.094321 57.0908203,107.855225 C56.7565087,107.616128 56.316409,107.496582 55.7705078,107.496582 Z M32.8808594,97.0532227 L32.8808594,97.7705078 L28.9262695,107 L27.8662109,107 L31.8271484,97.9672852 L26.6220703,97.9672852 L26.6220703,97.0532227 L32.8808594,97.0532227 Z M84.2143555,96.5532227 L84.2143555,97.4990234 L80.3359375,97.4990234 L80.3359375,100.241211 C80.5686861,100.118489 80.8204739,100.034912 81.0913086,99.9904785 C81.3621433,99.9460447 81.6139311,99.9238281 81.8466797,99.9238281 C82.3460311,99.9238281 82.800942,100.011636 83.2114258,100.187256 C83.6219096,100.362875 83.9943017,100.700356 84.3286133,101.199707 C84.6629248,101.699058 84.8300781,102.393062 84.8300781,103.281738 C84.8300781,104.216964 84.5211619,105.013587 83.9033203,105.671631 C83.2854787,106.329675 82.4941454,106.658691 81.5292969,106.658691 C81.2246079,106.658691 80.9336765,106.632243 80.6564941,106.579346 C80.3793118,106.526448 80.1296398,106.465088 79.9074707,106.395264 C79.6853016,106.325439 79.4969897,106.2535 79.3425293,106.179443 L79.1481321,106.080261 C79.0957641,106.051168 79.055827,106.026042 79.0283203,106.004883 L79.4980469,105.109863 C80.3824914,105.516115 81.0976535,105.719238 81.6435547,105.719238 C82.2402374,105.719238 82.7342917,105.482261 83.1257324,105.008301 C83.5171732,104.53434 83.7128906,103.948246 83.7128906,103.25 C83.7128906,102.649086 83.6060395,102.162437 83.392334,101.790039 C83.1786285,101.417641 82.9353041,101.159506 82.6623535,101.015625 C82.3894029,100.871744 82.0815447,100.799805 81.7387695,100.799805 C81.3579083,100.799805 81.0109065,100.851643 80.6977539,100.955322 C80.3846013,101.059001 80.1201183,101.222981 79.9042969,101.447266 L79.3266602,101.447266 L79.3203125,96.5532227 L84.2143555,96.5532227 Z M10.8212891,77.2929688 C11.2063821,77.2929688 11.5808901,77.3416336 11.9448242,77.4389648 C12.3087583,77.5362961 12.6303697,77.6854645 12.909668,77.8864746 C13.1889662,78.0874847 13.4132479,78.3445622 13.5825195,78.6577148 C13.7517912,78.9708675 13.8364258,79.3432596 13.8364258,79.7749023 C13.8364258,80.066896 13.785645,80.3345528 13.684082,80.5778809 C13.582519,80.8212089 13.4418141,81.0402008 13.2619629,81.2348633 C13.0821117,81.4295257 12.8705253,81.5998528 12.6271973,81.7458496 C12.3838692,81.8918464 12.12256,82.0135086 11.8432617,82.1108398 C12.1987322,82.2589526 12.5203436,82.4155265 12.8081055,82.5805664 C13.0958673,82.7456063 13.3413076,82.9328603 13.5444336,83.142334 C13.7475596,83.3518077 13.9041336,83.5887845 14.0141602,83.8532715 C14.1241867,84.1177585 14.1791992,84.4340802 14.1791992,84.8022461 C14.1791992,85.170412 14.135824,85.4962551 14.0490723,85.7797852 C13.9623205,86.0633152 13.8406583,86.3108713 13.684082,86.5224609 C13.5275057,86.7340505 13.3434255,86.9117831 13.1318359,87.0556641 C12.9202463,87.199545 12.6906751,87.3169755 12.4431152,87.407959 C12.1955554,87.4989425 11.9342462,87.5634764 11.6591797,87.6015625 C11.3841132,87.6396486 11.106935,87.6586914 10.8276367,87.6586914 C10.3832986,87.6586914 9.96224157,87.6079107 9.56445312,87.5063477 C9.16666468,87.4047846 8.81754708,87.2408052 8.51708984,87.0144043 C8.21663261,86.7880034 7.97859788,86.4928404 7.80297852,86.1289062 C7.62735915,85.7649721 7.53955078,85.3185248 7.53955078,84.7895508 C7.53955078,84.4467756 7.59033152,84.1431491 7.69189453,83.8786621 C7.79345754,83.6141751 7.93416251,83.3708507 8.11401367,83.1486816 C8.29386483,82.9265126 8.50862505,82.7223317 8.75830078,82.5361328 C9.00797651,82.349934 9.28303886,82.1764331 9.58349609,82.015625 C9.30419782,81.8717441 9.05558377,81.7268074 8.83764648,81.5808105 C8.6197092,81.4348137 8.43668694,81.2718922 8.28857422,81.092041 C8.1404615,80.9121899 8.02726276,80.7111828 7.94897461,80.4890137 C7.87068646,80.2668446 7.83154297,80.0076512 7.83154297,79.7114258 C7.83154297,79.2882466 7.91723547,78.92326 8.08862305,78.6164551 C8.26001062,78.3096502 8.48535017,78.0589202 8.76464844,77.8642578 C9.04394671,77.6695954 9.36238428,77.5257166 9.7199707,77.4326172 C10.0775571,77.3395178 10.4446596,77.2929688 10.8212891,77.2929688 Z M102.055664,77.0532227 L102.055664,83.2993164 L103.058594,83.2993164 L103.064941,84.2197266 L102.062012,84.2197266 L102.055664,87 L100.98291,87 L100.98291,84.2197266 L96.6157227,84.2197266 L96.609375,83.5849609 L101.128906,77.0532227 L102.055664,77.0532227 Z M10.3007812,82.4663086 C10.0638009,82.6017259 9.84163515,82.7371413 9.63427734,82.8725586 C9.42691954,83.0079759 9.24707107,83.162434 9.09472656,83.3359375 C8.94238205,83.509441 8.82177779,83.7093901 8.73291016,83.935791 C8.64404252,84.1621919 8.59960938,84.4467756 8.59960938,84.7895508 C8.59960938,85.1027034 8.65673771,85.3830554 8.77099609,85.6306152 C8.88525448,85.8781751 9.0439443,86.0865877 9.24707031,86.2558594 C9.45019633,86.4251311 9.69034692,86.5541988 9.9675293,86.6430664 C10.2447117,86.731934 10.5441065,86.7763672 10.8657227,86.7763672 C11.1831071,86.7763672 11.4793281,86.7372237 11.7543945,86.6589355 C12.029461,86.5806474 12.2685537,86.4600431 12.4716797,86.2971191 C12.6748057,86.1341951 12.8334955,85.9300142 12.9477539,85.6845703 C13.0620123,85.4391264 13.1191406,85.1513688 13.1191406,84.8212891 C13.1191406,84.5462226 13.0747075,84.3103037 12.9858398,84.1135254 C12.8969722,83.9167471 12.7774259,83.7411303 12.6271973,83.5866699 C12.4769686,83.4322095 12.3045257,83.2967942 12.1098633,83.1804199 C11.9152008,83.0640456 11.7131358,82.9614262 11.5036621,82.8725586 C11.364013,82.8133135 11.2248354,82.7597113 11.0861276,82.7117513 L10.3007812,82.4663086 L10.3007812,82.4663086 Z M100.98291,78.5957031 L97.7138672,83.3056641 L100.98291,83.3056641 L100.98291,78.5957031 Z M10.8212891,78.1625977 C10.5758451,78.1625977 10.3356945,78.1922198 10.1008301,78.2514648 C9.86596562,78.3107099 9.65649506,78.4048659 9.47241211,78.5339355 C9.28832916,78.6630052 9.14021866,78.8291005 9.02807617,79.0322266 C8.91593368,79.2353526 8.85986328,79.478677 8.85986328,79.762207 C8.85986328,80.0457371 8.92757094,80.2911773 9.06298828,80.4985352 C9.19840562,80.705893 9.36979063,80.8857414 9.57714844,81.0380859 C9.78450625,81.1904304 10.0119617,81.321614 10.2595215,81.4316406 C10.5070813,81.5416672 10.7430002,81.6411128 10.9672852,81.7299805 C11.2508152,81.6030267 11.5057769,81.4644376 11.7321777,81.314209 C11.9585786,81.1639804 12.1511223,81.0084643 12.3098145,80.8476562 C12.4685067,80.6868482 12.5912268,80.5218107 12.6779785,80.3525391 C12.7647303,80.1832674 12.8081055,80.0139982 12.8081055,79.8447266 C12.8081055,79.5527329 12.753093,79.3009451 12.6430664,79.0893555 C12.5330398,78.8777659 12.3870452,78.7032071 12.2050781,78.5656738 C12.0231111,78.4281406 11.8125826,78.3265791 11.5734863,78.2609863 C11.3343901,78.1953936 11.0836602,78.1625977 10.8212891,78.1625977 Z M106.934082,51.7929688 C107.327639,51.7929688 107.704263,51.8384598 108.063965,51.9294434 C108.423667,52.0204269 108.741047,52.1600739 109.016113,52.3483887 C109.29118,52.5367034 109.510172,52.7757961 109.673096,53.0656738 C109.83602,53.3555516 109.91748,53.6993795 109.91748,54.097168 C109.91748,54.4314795 109.862468,54.7287585 109.752441,54.9890137 C109.642415,55.2492689 109.497478,55.4735505 109.317627,55.6618652 C109.137776,55.85018 108.933595,56.005696 108.705078,56.128418 C108.476561,56.2511399 108.243816,56.3421221 108.006836,56.4013672 C108.349611,56.4521487 108.665933,56.5378412 108.955811,56.6584473 C109.245688,56.7790533 109.497476,56.9451487 109.711182,57.1567383 C109.924887,57.3683279 110.090982,57.630695 110.209473,57.9438477 C110.327963,58.2570003 110.387207,58.6336241 110.387207,59.0737305 C110.387207,59.6153998 110.295167,60.08089 110.111084,60.4702148 C109.927001,60.8595397 109.66675,61.1790352 109.330322,61.4287109 C108.993895,61.6783867 108.589765,61.8624669 108.11792,61.980957 C107.646075,62.0994472 107.122399,62.1586914 106.546875,62.1586914 C106.339517,62.1586914 106.126873,62.1428224 105.908936,62.111084 C105.690998,62.0793455 105.48047,62.0349124 105.277344,61.9777832 C105.074218,61.920654 104.882732,61.8508305 104.702881,61.7683105 C104.52303,61.6857906 104.367514,61.5937505 104.236328,61.4921875 L104.731445,60.6289062 C105.057293,60.8489594 105.370441,61.0139968 105.670898,61.1240234 C105.971356,61.23405 106.284504,61.2890625 106.610352,61.2890625 C107.50326,61.2890625 108.167641,61.109214 108.603516,60.7495117 C109.03939,60.3898094 109.257324,59.8312212 109.257324,59.0737305 C109.257324,58.6886374 109.199138,58.3596205 109.082764,58.0866699 C108.966389,57.8137193 108.795004,57.5904957 108.568604,57.4169922 C108.342203,57.2434887 108.065024,57.1165369 107.737061,57.0361328 C107.409097,56.9557288 107.033531,56.9155273 106.610352,56.9155273 L106.051758,56.9155273 L106.051758,56.1474609 L106.216797,56.1474609 C106.614585,56.1474609 106.973224,56.1062016 107.292725,56.0236816 C107.612225,55.9411617 107.884113,55.8173836 108.108398,55.6523438 C108.332683,55.4873039 108.505126,55.2799492 108.625732,55.0302734 C108.746338,54.7805977 108.806641,54.4907243 108.806641,54.1606445 C108.806641,53.9405913 108.766439,53.7385263 108.686035,53.5544434 C108.605631,53.3703604 108.483969,53.2116706 108.321045,53.0783691 C108.158121,52.9450677 107.954998,52.8424483 107.71167,52.7705078 C107.468342,52.6985673 107.185874,52.6625977 106.864258,52.6625977 C106.678059,52.6625977 106.489747,52.6848142 106.299316,52.729248 C106.108886,52.7736819 105.929037,52.8286943 105.759766,52.8942871 C105.590494,52.9598799 105.437094,53.0328772 105.299561,53.1132812 C105.162027,53.1936853 105.05306,53.2698564 104.972656,53.3417969 L104.458496,52.5991211 C104.581218,52.5144853 104.727213,52.424561 104.896484,52.3293457 C105.065756,52.2341304 105.255126,52.1473799 105.4646,52.0690918 C105.674073,51.9908036 105.901529,51.9252119 106.146973,51.8723145 C106.392417,51.8194171 106.654784,51.7929688 106.934082,51.7929688 Z M3.97363281,51.7929688 C4.96387214,51.7929688 5.71606188,52.1516077 6.23022461,52.8688965 C6.74438734,53.5861852 7.00146484,54.6599863 7.00146484,56.090332 C7.00146484,57.0636442 6.92740959,57.9269168 6.77929688,58.6801758 C6.63118416,59.4334348 6.39526529,60.0671361 6.0715332,60.5812988 C5.74780112,61.0954616 5.32991792,61.4868964 4.81787109,61.7556152 C4.30582426,62.024334 3.68587604,62.1586914 2.95800781,62.1586914 C2.61946445,62.1586914 2.2883317,62.1290693 1.96459961,62.0698242 C1.64086752,62.0105791 1.33935687,61.9259446 1.06005859,61.815918 L1.43457031,60.8510742 C1.8662131,61.0372731 2.22591002,61.1483559 2.51367188,61.1843262 L2.82546916,61.2188575 C2.96460954,61.2318067 3.07861284,61.2382812 3.16748047,61.2382812 C3.5737325,61.2382812 3.92813976,61.1568205 4.23071289,60.9938965 C4.53328602,60.8309725 4.79036353,60.5961116 5.00195312,60.2893066 C5.21354272,59.9825017 5.38492773,59.6079937 5.51611328,59.1657715 C5.64729883,58.7235492 5.74462859,58.2231473 5.80810547,57.6645508 C5.70654246,57.7661138 5.57747474,57.8602697 5.42089844,57.9470215 C5.26432213,58.0337732 5.0918792,58.1088864 4.90356445,58.1723633 C4.71524971,58.2358402 4.51953227,58.2866209 4.31640625,58.324707 C4.11328023,58.3627932 3.91650486,58.3818359 3.72607422,58.3818359 C3.23095456,58.3818359 2.78768099,58.3088386 2.39624023,58.1628418 C2.00479948,58.016845 1.67366672,57.8063165 1.40283203,57.53125 C1.13199734,57.2561835 0.924642646,56.920819 0.780761719,56.5251465 C0.636880791,56.1294739 0.564941406,55.6819686 0.564941406,55.1826172 C0.564941406,54.6621068 0.662271162,54.144778 0.856933594,53.6306152 C1.05159603,53.1164525 1.40811915,52.6816424 1.92651367,52.3261719 C2.44490819,51.9707013 3.12727441,51.7929688 3.97363281,51.7929688 Z M3.82128906,52.7006836 C3.52506362,52.7006836 3.21508951,52.7609857 2.89135742,52.8815918 C2.56762533,53.0021979 2.27563607,53.2550436 2.01538086,53.6401367 C1.75512565,54.0252298 1.625,54.5288055 1.625,55.1508789 C1.625,55.7348662 1.73819874,56.2045881 1.96459961,56.5600586 C2.19100048,56.9155291 2.46394697,57.1546218 2.78344727,57.2773438 C3.10294756,57.4000657 3.44042791,57.4614258 3.79589844,57.4614258 C4.12597821,57.4656576 4.41796748,57.4370934 4.671875,57.3757324 C4.92578252,57.3143714 5.15323793,57.211752 5.35424805,57.0678711 C5.55525817,56.9239902 5.71712178,56.7716479 5.83984375,56.6108398 C5.89062525,56.3569323 5.91389976,56.0649431 5.90966797,55.7348633 C5.91813155,55.1847303 5.86523495,54.7171243 5.75097656,54.3320312 C5.63671818,53.9469382 5.48331802,53.6337903 5.29077148,53.3925781 C5.09822495,53.151366 4.87394334,52.9757492 4.61791992,52.8657227 C4.36189651,52.7556961 4.09635554,52.7006836 3.82128906,52.7006836 Z M12.3876953,27.2929688 C13.3990936,27.2929688 14.1766737,27.7055623 14.720459,28.5307617 C15.2642443,29.3559612 15.5361328,30.6847239 15.5361328,32.5170898 C15.5361328,34.2732835 15.2568387,35.5692504 14.6982422,36.4050293 C14.1396456,37.2408082 13.3525441,37.6586914 12.3369141,37.6586914 C11.2620389,37.6586914 10.4675319,37.2090703 9.95336914,36.3098145 C9.43920641,35.4105587 9.18212891,34.0849697 9.18212891,32.3330078 C9.18212891,30.8095627 9.44661194,29.588709 9.97558594,28.6704102 C10.5045599,27.7521113 11.3085884,27.2929688 12.3876953,27.2929688 Z M99.9291992,27.2929688 C100.348147,27.2929688 100.73535,27.351155 101.09082,27.4675293 C101.446291,27.5839036 101.754149,27.7605782 102.014404,27.9975586 C102.27466,28.2345389 102.477782,28.5328758 102.623779,28.8925781 C102.769776,29.2522804 102.842773,29.6712216 102.842773,30.1494141 C102.842773,30.5556661 102.775066,30.9291161 102.639648,31.2697754 C102.504231,31.6104346 102.324383,31.9278143 102.100098,32.2219238 C101.875813,32.5160334 101.621909,32.7889799 101.338379,33.0407715 C101.054849,33.2925631 100.764975,33.5348296 100.46875,33.7675781 L99.5959473,34.4467773 L99.5959473,34.4467773 C99.3103013,34.6668305 99.0553397,34.8889963 98.8310547,35.1132812 C98.6067697,35.3375662 98.4258633,35.5692534 98.2883301,35.8083496 C98.1507968,36.0474459 98.0820312,36.3024075 98.0820312,36.5732422 L102.703125,36.5732422 L102.703125,37.5 L96.9140625,37.5 L96.9140625,36.9160156 C96.9140625,36.5309226 96.9828281,36.1796891 97.1203613,35.8623047 C97.2578946,35.5449203 97.4398589,35.2486993 97.6662598,34.9736328 C97.8926606,34.6985663 98.1507961,34.439373 98.4406738,34.1960449 C98.7305516,33.9527169 99.0257146,33.7146822 99.3261719,33.4819336 C99.6266291,33.249185 99.9217922,33.015382 100.21167,32.7805176 C100.501548,32.5456531 100.759683,32.2991549 100.986084,32.0410156 C101.212485,31.7828763 101.394449,31.507814 101.531982,31.2158203 C101.669516,30.9238267 101.738281,30.6022153 101.738281,30.2509766 C101.738281,29.5696581 101.583823,29.0607927 101.274902,28.7243652 C100.965982,28.3879378 100.475101,28.2197266 99.8022461,28.2197266 C99.6541334,28.2197266 99.4996753,28.2345376 99.3388672,28.2641602 C99.1780591,28.2937827 99.0183113,28.3382158 98.8596191,28.3974609 C98.7009269,28.456706 98.5475268,28.5297033 98.3994141,28.6164551 C98.2513013,28.7032068 98.1137702,28.8037104 97.9868164,28.9179688 L97.4091797,28.175293 C97.7265641,27.9044583 98.0915507,27.6896981 98.5041504,27.5310059 C98.9167501,27.3723137 99.3917616,27.2929688 99.9291992,27.2929688 Z M7.95605469,27.5532227 L7.95605469,36.6303711 L9.62548828,36.6303711 L9.62548828,37.5 L5.07421875,37.5 L5.07421875,36.6303711 L6.87695312,36.6303711 L6.87695312,28.6640625 L5.00439453,29.6479492 L5.01074219,28.6132812 L7.06738281,27.5532227 L7.95605469,27.5532227 Z M12.3813477,28.2070312 C11.5646118,28.2070312 11.016603,28.584713 10.7373047,29.3400879 C10.4580064,30.0954628 10.3204752,31.0952086 10.324707,32.3393555 C10.324707,34.0870856 10.4929182,35.2582164 10.8293457,35.8527832 C11.1657732,36.44735 11.6852178,36.7446289 12.3876953,36.7446289 C13.0732456,36.7446289 13.5789372,36.4177279 13.9047852,35.763916 C14.2306331,35.1101042 14.3935547,33.9305098 14.3935547,32.2250977 C14.3935547,31.0444277 14.2676608,30.0795936 14.0158691,29.3305664 C13.7640775,28.5815392 13.2192425,28.2070312 12.3813477,28.2070312 Z M82.4560547,9.55322266 L82.4560547,18.6303711 L84.1254883,18.6303711 L84.1254883,19.5 L79.5742188,19.5 L79.5742188,18.6303711 L81.3769531,18.6303711 L81.3769531,10.6640625 L79.5043945,11.6479492 L79.5107422,10.6132812 L81.5673828,9.55322266 L82.4560547,9.55322266 Z M26.9560547,7.55322266 L26.9560547,16.6303711 L28.6254883,16.6303711 L28.6254883,17.5 L24.0742188,17.5 L24.0742188,16.6303711 L25.8769531,16.6303711 L25.8769531,8.6640625 L24.0043945,9.64794922 L24.0107422,8.61328125 L26.0673828,7.55322266 L26.9560547,7.55322266 Z M32.0288086,7.55322266 L32.0288086,16.6303711 L33.6982422,16.6303711 L33.6982422,17.5 L29.1469727,17.5 L29.1469727,16.6303711 L30.949707,16.6303711 L30.949707,8.6640625 L29.0771484,9.64794922 L29.0834961,8.61328125 L31.1401367,7.55322266 L32.0288086,7.55322266 Z M52.9560547,1.05322266 L52.9560547,10.1303711 L54.5009414,10.1299687 L54.4950683,10.1890229 L54.4868164,10.4160156 L54.4868164,11 L50.0742188,11 L50.0742188,10.1303711 L51.8769531,10.1303711 L51.8769531,2.1640625 L50.0043945,3.14794922 L50.0107422,2.11328125 L52.0673828,1.05322266 L52.9560547,1.05322266 Z M57.5019531,0.79296875 C57.9209005,0.79296875 58.3081037,0.851155017 58.6635742,0.967529297 C59.0190447,1.08390358 59.326903,1.26057824 59.5871582,1.49755859 C59.8474134,1.73453895 60.0505364,2.03287581 60.1965332,2.39257812 C60.34253,2.75228044 60.4155273,3.17122157 60.4155273,3.64941406 C60.4155273,4.05566609 60.3478197,4.42911614 60.2124023,4.76977539 C60.076985,5.11043465 59.8971365,5.42781428 59.6728516,5.72192383 C59.4485666,6.01603337 59.1946629,6.28897986 58.9111328,6.54077148 C58.6276027,6.79256311 58.3377293,7.03482957 58.0415039,7.26757813 L57.1687012,7.94677734 L57.1687012,7.94677734 C56.8830552,8.16683053 56.6280936,8.38899627 56.4038086,8.61328125 C56.1795236,8.83756623 55.9986172,9.06925336 55.861084,9.30834961 C55.7235507,9.54744586 55.6547852,9.8024075 55.6547852,10.0732422 L60.2758789,10.0732422 L60.2758789,11 L54.6254883,11 L54.6254883,10.1303711 L54.5009414,10.1299687 L54.519824,9.97015588 C54.5528317,9.75535163 54.6105953,9.55273533 54.6931152,9.36230469 C54.8306485,9.04492029 55.0126128,8.74869929 55.2390137,8.47363281 C55.4654145,8.19856633 55.72355,7.93937296 56.0134277,7.69604492 C56.3033055,7.45271688 56.5984685,7.21468215 56.8989258,6.98193359 C57.199383,6.74918503 57.4945461,6.51538203 57.7844238,6.28051758 C58.0743016,6.04565312 58.332437,5.79915494 58.5588379,5.54101562 C58.7852388,5.28287631 58.9672031,5.00781396 59.1047363,4.71582031 C59.2422696,4.42382667 59.3110352,4.1022153 59.3110352,3.75097656 C59.3110352,3.06965805 59.1565771,2.5607927 58.8476563,2.22436523 C58.5387354,1.88793777 58.0478549,1.71972656 57.375,1.71972656 C57.2268873,1.71972656 57.0724292,1.73453761 56.9116211,1.76416016 C56.750813,1.7937827 56.5910652,1.83821585 56.432373,1.89746094 C56.2736808,1.95670603 56.1202807,2.02970334 55.972168,2.11645508 C55.8240552,2.20320681 55.6865241,2.30371037 55.5595703,2.41796875 L54.9819336,1.67529297 C55.299318,1.40445828 55.6643046,1.18969806 56.0769043,1.03100586 C56.489504,0.87231366 56.9645155,0.79296875 57.5019531,0.79296875 Z"/>
    <filter id="clock_1-e" width="113.7%" height="113.3%" x="-6.8%" y="-6.7%" filterUnits="objectBoundingBox">
      <feOffset in="SourceAlpha" result="shadowOffsetOuter1"/>
      <feGaussianBlur in="shadowOffsetOuter1" result="shadowBlurOuter1" stdDeviation="2.5"/>
      <feColorMatrix in="shadowBlurOuter1" values="0 0 0 0 1   0 0 0 0 1   0 0 0 0 1  0 0 0 0.15 0"/>
    </filter>
    <path id="clock_1-h" d="M83,142 L83,151 L81,151 L81,142 L83,142 Z M112.616025,133.528512 L117.116025,141.32274 L115.383975,142.32274 L110.883975,134.528512 L112.616025,133.528512 Z M51.3839746,133.528512 L53.1160254,134.528512 L48.6160254,142.32274 L46.8839746,141.32274 L51.3839746,133.528512 Z M134.028512,111.383975 L141.82274,115.883975 L140.82274,117.616025 L133.028512,113.116025 L134.028512,111.383975 Z M29.9714885,111.383975 L30.9714885,113.116025 L23.1772598,117.616025 L22.1772598,115.883975 L29.9714885,111.383975 Z M150.5,81.5 L150.5,83.5 L141.5,83.5 L141.5,81.5 L150.5,81.5 Z M22.5,81.5 L22.5,83.5 L13.5,83.5 L13.5,81.5 L22.5,81.5 Z M140.82274,47.3839746 L141.82274,49.1160254 L134.028512,53.6160254 L133.028512,51.8839746 L140.82274,47.3839746 Z M23.1772598,47.3839746 L30.9714885,51.8839746 L29.9714885,53.6160254 L22.1772598,49.1160254 L23.1772598,47.3839746 Z M115.383975,22.6772598 L117.116025,23.6772598 L112.616025,31.4714885 L110.883975,30.4714885 L115.383975,22.6772598 Z M48.6160254,22.6772598 L53.1160254,30.4714885 L51.3839746,31.4714885 L46.8839746,23.6772598 L48.6160254,22.6772598 Z M83,14 L83,23 L81,23 L81,14 L83,14 Z"/>
    <filter id="clock_1-g" width="110.9%" height="110.9%" x="-5.5%" y="-5.5%" filterUnits="objectBoundingBox">
      <feOffset in="SourceAlpha" result="shadowOffsetOuter1"/>
      <feGaussianBlur in="shadowOffsetOuter1" result="shadowBlurOuter1" stdDeviation="2.5"/>
      <feColorMatrix in="shadowBlurOuter1" values="0 0 0 0 0.382949375   0 0 0 0 0.481637884   0 0 0 0 0.527692522  0 0 0 1 0"/>
    </filter>
  </defs>
  <g fill="none" fill-rule="evenodd" transform="translate(30 30)">
    <use fill="#000" filter="url(#clock_1-a)" xlink:href="#clock_1-b"/>
    <use fill="url(#clock_1-c)" xlink:href="#clock_1-b"/>
    <circle cx="82" cy="82" r="76" fill="url(#clock_1-d)"/>
    <g fill-rule="nonzero" transform="translate(27 27)">
      <use fill="#000" filter="url(#clock_1-e)" xlink:href="#clock_1-f"/>
      <use fill="#9AA4B9" xlink:href="#clock_1-f"/>
    </g>
    <path fill="#FFF" d="M82,144.231464 C82.2577211,144.231464 82.4807038,144.442814 82.4807038,144.703527 L82.4807038,144.703527 L82.4807038,149.527936 C82.4807038,149.780911 82.2654854,150 82,150 L82,150 L81.9156378,149.992394 C81.69548,149.952424 81.5192962,149.759682 81.5192962,149.527936 L81.5192962,149.527936 L81.5192962,144.703527 C81.5192962,144.450553 81.7345146,144.231464 82,144.231464 Z M75.4084974,143.889342 L75.4952531,143.890553 C75.7515624,143.917483 75.9512237,144.150975 75.9239621,144.41026 L75.9239621,144.41026 L75.4194965,149.208241 C75.3930441,149.459829 75.1560955,149.65523 74.8920645,149.627489 L74.8920645,149.627489 L74.8089597,149.61111 C74.5941875,149.548354 74.4391229,149.338258 74.4633555,149.107782 L74.4633555,149.107782 L74.9678211,144.309801 C74.9942734,144.058213 75.231222,143.862812 75.4952531,143.890553 Z M88.5047469,143.890553 C88.7610562,143.863624 89.0049173,144.050516 89.0321789,144.309801 L89.0321789,144.309801 L89.5366445,149.107782 C89.5630969,149.35937 89.3719665,149.599748 89.1079355,149.627489 L89.1079355,149.627489 L89.0232402,149.62874 C88.8001089,149.611993 88.6047361,149.438717 88.5805035,149.208241 L88.5805035,149.208241 L88.0760379,144.41026 C88.0495856,144.158672 88.2407159,143.918294 88.5047469,143.890553 Z M68.9756198,142.861287 L69.0617735,142.871557 C69.3138628,142.925121 69.4880152,143.178197 69.4337908,143.433214 L69.4337908,143.433214 L68.4303864,148.152198 C68.3777716,148.399644 68.1216889,148.569215 67.862005,148.514037 L67.862005,148.514037 L67.7810682,148.489064 C67.5740347,148.404209 67.4417883,148.179061 67.4899878,147.95238 L67.4899878,147.95238 L68.4933921,143.233396 C68.5460069,142.98595 68.8020896,142.816379 69.0617735,142.871557 Z M94.9382265,142.871557 C95.1903157,142.817993 95.4523834,142.97838 95.5066079,143.233396 L95.5066079,143.233396 L96.5100122,147.95238 C96.562627,148.199826 96.3976789,148.458859 96.137995,148.514037 L96.137995,148.514037 L96.0538944,148.524131 C95.8302344,148.530791 95.6178131,148.378879 95.5696136,148.152198 L95.5696136,148.152198 L94.5662092,143.433214 C94.5135945,143.185768 94.6785426,142.926735 94.9382265,142.871557 Z M62.1669444,141.486105 C62.2451452,141.245512 62.5175563,141.103629 62.7700479,141.185639 C63.0151552,141.265251 63.1618907,141.535138 63.0812974,141.783092 L63.0812974,141.783092 L61.5899479,146.371377 C61.5117471,146.61197 61.239336,146.753854 60.9868444,146.671843 L60.9868444,146.671843 L60.9089622,146.63855 C60.7119357,146.532527 60.6039564,146.294794 60.6755949,146.074391 L60.6755949,146.074391 Z M101.229952,141.185639 C101.475059,141.106027 101.752462,141.238152 101.833056,141.486105 L101.833056,141.486105 L103.324405,146.074391 C103.402606,146.314983 103.265647,146.589832 103.013156,146.671843 L103.013156,146.671843 L102.930571,146.69067 C102.708833,146.720664 102.481691,146.59178 102.410052,146.371377 L102.410052,146.371377 L100.918703,141.783092 C100.840502,141.542499 100.97746,141.26765 101.229952,141.185639 Z M56.0577917,139.087072 C56.1607217,138.855968 56.4464767,138.743326 56.6890097,138.851271 C56.9244496,138.956059 57.0421604,139.2398 56.9360813,139.477974 L56.9360813,139.477974 L54.9731262,143.885291 C54.8701962,144.116394 54.5844413,144.229036 54.3419083,144.121091 L54.3419083,144.121091 L54.2679341,144.079842 C54.0830732,143.953812 54.0005441,143.706098 54.0948366,143.494389 L54.0948366,143.494389 Z M107.31099,138.851271 C107.54643,138.746483 107.836129,138.848898 107.942208,139.087072 L107.942208,139.087072 L109.905163,143.494389 C110.008093,143.725492 109.900625,144.013146 109.658092,144.121091 L109.658092,144.121091 L109.577928,144.148444 C109.360541,144.201444 109.121166,144.097001 109.026874,143.885291 L109.026874,143.885291 L107.063919,139.477974 C106.960989,139.24687 107.068457,138.959216 107.31099,138.851271 Z M50.2328673,136.06258 C50.3593989,135.843498 50.6553668,135.761333 50.8852839,135.894029 C51.1084769,136.022844 51.1958734,136.31733 51.0654708,136.543115 L51.0654708,136.543115 L48.6524166,140.721176 C48.5258851,140.940258 48.2299171,141.022423 48,140.889727 L48,140.889727 L47.9307443,140.840975 C47.7600744,140.696319 47.7038997,140.441338 47.8198131,140.240641 L47.8198131,140.240641 Z M113.114716,135.894029 C113.337909,135.765213 113.63673,135.836796 113.767133,136.06258 L113.767133,136.06258 L116.180187,140.240641 C116.306718,140.459723 116.229917,140.757031 116,140.889727 L116,140.889727 L115.923136,140.925307 C115.712482,141.000732 115.463497,140.921873 115.347583,140.721176 L115.347583,140.721176 L112.934529,136.543115 C112.807998,136.324033 112.884799,136.026725 113.114716,135.894029 Z M44.7559902,132.445768 C44.904737,132.241108 45.2076753,132.190318 45.4224575,132.346312 C45.6309583,132.497743 45.6870829,132.799749 45.5337854,133.01067 L45.5337854,133.01067 L42.6970701,136.913699 C42.5483233,137.11836 42.245385,137.169149 42.0306028,137.013156 L42.0306028,137.013156 L41.9668244,136.957433 C41.8122154,136.795736 41.7830105,136.536283 41.919275,136.348797 L41.919275,136.348797 Z M118.577542,132.346312 C118.786043,132.19488 119.090712,132.234846 119.24401,132.445768 L119.24401,132.445768 L122.080725,136.348797 C122.229472,136.553457 122.184179,136.857162 121.969397,137.013156 L121.969397,137.013156 L121.896675,137.056572 C121.695061,137.153595 121.439194,137.101185 121.30293,136.913699 L121.30293,136.913699 L118.466215,133.01067 C118.317468,132.80601 118.36276,132.502305 118.577542,132.346312 Z M39.6871663,128.276261 C39.8564986,128.088265 40.1630882,128.069408 40.3603823,128.24699 C40.5519064,128.419379 40.5761443,128.725594 40.4016315,128.919342 L40.4016315,128.919342 L37.1723347,132.504577 C37.0030024,132.692573 36.6964129,132.71143 36.4991188,132.533848 L36.4991188,132.533848 L36.4352002,132.46341 C36.3046407,132.286663 36.3051709,132.031026 36.4578696,131.861496 L36.4578696,131.861496 Z M123.639618,128.24699 C123.831142,128.074602 124.138321,128.082514 124.312834,128.276261 L124.312834,128.276261 L127.54213,131.861496 C127.711463,132.049493 127.698175,132.356266 127.500881,132.533848 L127.500881,132.533848 L127.424123,132.590031 C127.234635,132.701355 126.980364,132.674106 126.827665,132.504577 L126.827665,132.504577 L123.598369,128.919342 C123.429036,128.731346 123.442324,128.424572 123.639618,128.24699 Z M35.0819307,123.599742 C35.2699933,123.43047 35.5768751,123.443752 35.7545195,123.640977 C35.9269686,123.832434 35.9190541,124.139505 35.725238,124.313956 L35.725238,124.313956 L32.1387406,127.542116 C31.9506781,127.711389 31.6437963,127.698106 31.4661519,127.500881 L31.4661519,127.500881 L31.4099488,127.42415 C31.2985861,127.234729 31.3258442,126.980547 31.4954333,126.827902 L31.4954333,126.827902 Z M128.245481,123.640977 C128.41793,123.44952 128.724253,123.425291 128.918069,123.599742 L128.918069,123.599742 L132.504567,126.827902 C132.692629,126.997175 132.711493,127.303657 132.533848,127.500881 L132.533848,127.500881 L132.463386,127.564777 C132.286576,127.695291 132.030848,127.694761 131.861259,127.542116 L131.861259,127.542116 L128.274762,124.313956 C128.086699,124.144683 128.067836,123.838202 128.245481,123.640977 Z M30.9907393,118.467448 C31.1954717,118.318754 31.4992834,118.36403 31.6553318,118.578737 C31.8068165,118.787164 31.7668365,119.091726 31.5558405,119.244969 L31.5558405,119.244969 L27.6514369,122.080686 C27.4467045,122.22938 27.1428928,122.184104 26.9868444,121.969397 L26.9868444,121.969397 L26.9434127,121.8967 C26.8463555,121.695158 26.8987837,121.439381 27.0863357,121.303165 L27.0863357,121.303165 Z M132.344668,118.578737 C132.496153,118.370309 132.798265,118.314204 133.009261,118.467448 L133.009261,118.467448 L136.913664,121.303165 C137.118397,121.451859 137.169204,121.754691 137.013156,121.969397 L137.013156,121.969397 L136.957414,122.033153 C136.79566,122.187708 136.536115,122.216902 136.348563,122.080686 L136.348563,122.080686 L132.444159,119.244969 C132.239427,119.096275 132.18862,118.793443 132.344668,118.578737 Z M27.458416,112.935609 C27.6775751,112.809121 27.9749882,112.885896 28.1077309,113.115732 C28.2365914,113.338846 28.1649838,113.637562 27.9391198,113.767919 L27.9391198,113.767919 L23.7595875,116.180123 C23.5404283,116.30661 23.2430152,116.229836 23.1102725,116 L23.1102725,116 L23.0746804,115.923163 C22.9992292,115.712583 23.0781156,115.463686 23.2788836,115.347813 L23.2788836,115.347813 Z M135.892269,113.115732 C136.02113,112.892617 136.31572,112.805252 136.541584,112.935609 L136.541584,112.935609 L140.721116,115.347813 C140.940276,115.4743 141.02247,115.770164 140.889727,116 L140.889727,116 L140.840957,116.069231 C140.696251,116.239841 140.441181,116.295996 140.240413,116.180123 L140.240413,116.180123 L136.06088,113.767919 C135.841721,113.641432 135.759526,113.345568 135.892269,113.115732 Z M24.5236617,107.064832 C24.7548464,106.961938 25.0426023,107.069369 25.1505849,107.311817 C25.2554095,107.547174 25.1529589,107.836771 24.9147014,107.942812 L24.9147014,107.942812 L20.5058321,109.905076 C20.2746474,110.00797 19.9868915,109.900539 19.8789089,109.658092 L19.8789089,109.658092 L19.8515462,109.577957 C19.7985277,109.360646 19.9030079,109.121355 20.1147924,109.027096 L20.1147924,109.027096 Z M138.849415,107.311817 C138.95424,107.07646 139.238081,106.95879 139.476338,107.064832 L139.476338,107.064832 L143.885208,109.027096 C144.116392,109.12999 144.229074,109.415644 144.121091,109.658092 L144.121091,109.658092 L144.079827,109.73204 C143.953753,109.916836 143.705952,109.999336 143.494168,109.905076 L143.494168,109.905076 L139.085299,107.942812 C138.854114,107.839919 138.741432,107.554264 138.849415,107.311817 Z M22.2186302,100.91944 C22.4593075,100.841267 22.7342535,100.978177 22.816293,101.23058 C22.8959332,101.475601 22.7637621,101.752906 22.5157215,101.833471 L22.5157215,101.833471 L17.9258198,103.324296 C17.6851424,103.402469 17.4101964,103.265558 17.3281569,103.013156 L17.3281569,103.013156 L17.3093234,102.9306 C17.2793185,102.70894 17.4082479,102.481878 17.6287284,102.410264 L17.6287284,102.410264 Z M141.183707,101.23058 C141.263347,100.985559 141.533329,100.838875 141.78137,100.91944 L141.78137,100.91944 L146.371272,102.410264 C146.611949,102.488438 146.753883,102.760753 146.671843,103.013156 L146.671843,103.013156 L146.638538,103.09101 C146.532478,103.287968 146.294661,103.395909 146.07418,103.324296 L146.07418,103.324296 L141.484279,101.833471 C141.243601,101.755298 141.101667,101.482983 141.183707,101.23058 Z M20.5685758,94.5667626 C20.816109,94.5141664 21.0752327,94.6790564 21.1304302,94.9386489 C21.1840135,95.1906494 21.0235698,95.4526248 20.7684637,95.5068302 L20.7684637,95.5068302 L16.0478175,96.5098812 C15.8002844,96.5624775 15.5411607,96.3975875 15.4859632,96.137995 L15.4859632,96.137995 L15.4758653,96.0539241 C15.4692027,95.8303428 15.6211687,95.6179962 15.8479296,95.5698137 L15.8479296,95.5698137 Z M143.346732,94.5569433 L143.431424,94.5667626 L148.15207,95.5698137 C148.399603,95.6224099 148.569234,95.8784025 148.514037,96.137995 L148.514037,96.137995 L148.489055,96.2189033 C148.404171,96.4258639 148.178943,96.5580638 147.952182,96.5098812 L147.952182,96.5098812 L143.231536,95.5068302 C142.984003,95.4542339 142.814372,95.1982414 142.86957,94.9386489 C142.923153,94.6866483 143.176318,94.5125572 143.431424,94.5667626 Z M19.5915771,88.0764012 C19.8432539,88.0499582 20.0837164,88.2410212 20.1114672,88.5049593 C20.1384064,88.7611783 19.9514481,89.0049536 19.6920715,89.0322055 L19.6920715,89.0322055 L14.8924012,89.5364936 C14.6407244,89.5629366 14.4002619,89.3718736 14.3725111,89.1079355 L14.3725111,89.1079355 L14.3712594,89.02327 C14.3880123,88.8002173 14.5613498,88.6049132 14.7919067,88.5806892 L14.7919067,88.5806892 Z M144.323168,88.0754853 L144.408423,88.0764012 L149.208093,88.5806892 C149.45977,88.6071322 149.65524,88.8439974 149.627489,89.1079355 L149.627489,89.1079355 L149.611104,89.191011 C149.548326,89.4057076 149.338156,89.5607176 149.107599,89.5364936 L149.107599,89.5364936 L144.307928,89.0322055 C144.056252,89.0057626 143.860782,88.7688974 143.888533,88.5049593 C143.915472,88.2487402 144.149046,88.0491492 144.408423,88.0764012 Z M19.298338,81.5194654 C19.5514012,81.5194654 19.7705678,81.7346081 19.7705678,82 C19.7705678,82.2576304 19.5591434,82.4805346 19.298338,82.4805346 L19.298338,82.4805346 L14.4722298,82.4805346 C14.2191666,82.4805346 14,82.2653919 14,82 L14,82 L14.0076083,81.9156675 C14.0475929,81.6955873 14.2404028,81.5194654 14.4722298,81.5194654 L14.4722298,81.5194654 Z M149.52777,81.5194654 C149.780833,81.5194654 150,81.7346081 150,82 L150,82 L149.992392,82.0843325 C149.952407,82.3044127 149.759597,82.4805346 149.52777,82.4805346 L149.52777,82.4805346 L144.701662,82.4805346 C144.448599,82.4805346 144.229432,82.2653919 144.229432,82 C144.229432,81.7423696 144.440857,81.5194654 144.701662,81.5194654 L144.701662,81.5194654 Z M14.807146,74.4625905 L14.8924012,74.4635064 L19.6920715,74.9677945 C19.9437484,74.9942374 20.139218,75.2311026 20.1114672,75.4950407 C20.084528,75.7512598 19.8509537,75.9508508 19.5915771,75.9235988 L19.5915771,75.9235988 L14.7919067,75.4193108 C14.5402299,75.3928678 14.3447603,75.1560026 14.3725111,74.8920645 L14.3725111,74.8920645 L14.3888959,74.808989 C14.4516743,74.5942924 14.6618442,74.4392824 14.8924012,74.4635064 Z M149.107599,74.4635064 C149.359276,74.4370634 149.599738,74.6281264 149.627489,74.8920645 L149.627489,74.8920645 L149.628741,74.97673 C149.611988,75.1997827 149.43865,75.3950868 149.208093,75.4193108 L149.208093,75.4193108 L144.408423,75.9235988 C144.156746,75.9500418 143.916284,75.7589788 143.888533,75.4950407 C143.861594,75.2388217 144.048552,74.9950464 144.307928,74.9677945 L144.307928,74.9677945 Z M15.9631252,67.4802995 L16.0478175,67.4901188 L20.7684637,68.4931698 C21.0159969,68.5457661 21.1856277,68.8017586 21.1304302,69.0613511 C21.076847,69.3133517 20.8236819,69.4874428 20.5685758,69.4332374 L20.5685758,69.4332374 L15.8479296,68.4301863 C15.6003965,68.3775901 15.4307656,68.1215975 15.4859632,67.862005 L15.4859632,67.862005 L15.510945,67.7810967 C15.5958292,67.5741361 15.8210566,67.4419362 16.0478175,67.4901188 Z M147.952182,67.4901188 C148.199716,67.4375225 148.458839,67.6024125 148.514037,67.862005 L148.514037,67.862005 L148.524135,67.9460759 C148.530797,68.1696572 148.378831,68.3820038 148.15207,68.4301863 L148.15207,68.4301863 L143.431424,69.4332374 C143.183891,69.4858336 142.924767,69.3209436 142.86957,69.0613511 C142.815987,68.8093506 142.97643,68.5473752 143.231536,68.4931698 L143.231536,68.4931698 Z M17.3614621,60.9089897 C17.4675222,60.7120325 17.7053392,60.6040912 17.9258198,60.6757045 L17.9258198,60.6757045 L22.5157215,62.1665289 C22.7563988,62.2447022 22.8983325,62.5170174 22.816293,62.7694201 C22.7366528,63.0144411 22.4666707,63.1611249 22.2186302,63.08056 L22.2186302,63.08056 L17.6287284,61.5897356 C17.3880511,61.5115623 17.2461174,61.2392471 17.3281569,60.9868444 L17.3281569,60.9868444 Z M146.07418,60.6757045 C146.314858,60.5975312 146.589804,60.7344417 146.671843,60.9868444 L146.671843,60.9868444 L146.690677,61.0693996 C146.720681,61.2910599 146.591752,61.5181224 146.371272,61.5897356 L146.371272,61.5897356 L141.78137,63.08056 C141.540692,63.1587333 141.265746,63.0218228 141.183707,62.7694201 C141.104067,62.524399 141.236238,62.2470938 141.484279,62.1665289 L141.484279,62.1665289 Z M19.9201726,54.2679602 C20.0462465,54.0831643 20.2940477,54.0006643 20.5058321,54.0949236 L20.5058321,54.0949236 L24.9147014,56.0571876 C25.1458861,56.1600814 25.2585676,56.4457357 25.1505849,56.6881833 C25.0457603,56.9235404 24.7619192,57.0412097 24.5236617,56.935168 L24.5236617,56.935168 L20.1147924,54.972904 C19.8836077,54.8700102 19.7709262,54.5843559 19.8789089,54.3419083 L19.8789089,54.3419083 Z M143.494168,54.0949236 C143.725353,53.9920298 144.013108,54.0994607 144.121091,54.3419083 L144.121091,54.3419083 L144.148454,54.4220433 C144.201472,54.6393541 144.096992,54.8786447 143.885208,54.972904 L143.885208,54.972904 L139.476338,56.935168 C139.245154,57.0380618 138.957398,56.9306309 138.849415,56.6881833 C138.74459,56.4528263 138.847041,56.1632293 139.085299,56.0571876 L139.085299,56.0571876 Z M23.1590426,47.9307687 C23.3037491,47.7601589 23.5588194,47.7040039 23.7595875,47.8198766 L23.7595875,47.8198766 L27.9391198,50.2320811 C28.1582789,50.3585682 28.2404736,50.6544319 28.1077309,50.8842681 C27.9788703,51.1073825 27.68428,51.1947482 27.458416,51.0643915 L27.458416,51.0643915 L23.2788836,48.6521869 C23.0597245,48.5256999 22.9775298,48.2298362 23.1102725,48 L23.1102725,48 Z M140.240413,47.8198766 C140.459572,47.6933896 140.756985,47.7701638 140.889727,48 L140.889727,48 L140.92532,48.0768369 C141.000771,48.2874172 140.921884,48.5363143 140.721116,48.6521869 L140.721116,48.6521869 L136.541584,51.0643915 C136.322425,51.1908785 136.025012,51.1141042 135.892269,50.8842681 C135.763409,50.6611536 135.835016,50.3624379 136.06088,50.2320811 L136.06088,50.2320811 Z M136.348563,41.9193142 C136.553295,41.7706197 136.857107,41.8158963 137.013156,42.0306028 L137.013156,42.0306028 L137.056587,42.1032997 C137.153645,42.3048425 137.101216,42.560619 136.913664,42.6968355 L136.913664,42.6968355 L133.009261,45.532552 C132.804528,45.6812464 132.500717,45.6359699 132.344668,45.4212633 C132.193184,45.212836 132.233164,44.9082742 132.444159,44.7550307 L132.444159,44.7550307 Z M27.0425865,41.9668469 C27.2043401,41.8122923 27.463885,41.7830977 27.6514369,41.9193142 L27.6514369,41.9193142 L31.5558405,44.7550307 C31.7605729,44.9037251 31.8113802,45.2065567 31.6553318,45.4212633 C31.5038472,45.6296907 31.2017352,45.6857956 30.9907393,45.532552 L30.9907393,45.532552 L27.0863357,42.6968355 C26.8816033,42.5481411 26.830796,42.2453094 26.9868444,42.0306028 L26.9868444,42.0306028 Z M131.861259,36.4578841 C132.049322,36.2886114 132.356204,36.3018941 132.533848,36.4991188 L132.533848,36.4991188 L132.590051,36.5758496 C132.701414,36.765271 132.674156,37.0194528 132.504567,37.1720977 L132.504567,37.1720977 L128.918069,40.4002575 C128.730007,40.5695302 128.423125,40.5562475 128.245481,40.3590229 C128.073031,40.1675662 128.080946,39.8604953 128.274762,39.6860439 L128.274762,39.6860439 Z M31.5366144,36.4352227 C31.7134239,36.3047091 31.9691515,36.3052392 32.1387406,36.4578841 L32.1387406,36.4578841 L35.725238,39.6860439 C35.9133006,39.8553166 35.9321639,40.1617982 35.7545195,40.3590229 C35.5820704,40.5504795 35.2757468,40.5747089 35.0819307,40.4002575 L35.0819307,40.4002575 L31.4954333,37.1720977 C31.3073708,37.002825 31.2885075,36.6963434 31.4661519,36.4991188 L31.4661519,36.4991188 Z M126.827665,31.495423 C126.996998,31.3074267 127.303587,31.28857 127.500881,31.4661519 L127.500881,31.4661519 L127.5648,31.5365896 C127.695359,31.7133369 127.694829,31.9689745 127.54213,32.1385038 L127.54213,32.1385038 L124.312834,35.7237385 C124.143501,35.9117349 123.836912,35.9305915 123.639618,35.7530097 C123.448094,35.5806213 123.423856,35.2744056 123.598369,35.0806577 L123.598369,35.0806577 Z M36.5758766,31.4099686 C36.7653647,31.2986451 37.019636,31.3258936 37.1723347,31.495423 L37.1723347,31.495423 L40.4016315,35.0806577 C40.5709638,35.2686541 40.5576764,35.5754278 40.3603823,35.7530097 C40.1688582,35.925398 39.8616792,35.9174864 39.6871663,35.7237385 L39.6871663,35.7237385 L36.4578696,32.1385038 C36.2885373,31.9505075 36.3018247,31.6437337 36.4991188,31.4661519 L36.4991188,31.4661519 Z M42.1033253,26.943428 C42.304939,26.8464049 42.5608057,26.8988147 42.6970701,27.0863006 L42.6970701,27.0863006 L45.5337854,30.9893296 C45.6825322,31.1939899 45.6372397,31.4976947 45.4224575,31.6536882 C45.2139568,31.8051195 44.9092877,31.7651535 44.7559902,31.5542319 L44.7559902,31.5542319 L41.919275,27.651203 C41.7705282,27.4465426 41.8158206,27.1428378 42.0306028,26.9868444 L42.0306028,26.9868444 Z M121.30293,27.0863006 C121.451677,26.8816403 121.754615,26.8308509 121.969397,26.9868444 L121.969397,26.9868444 L122.033176,27.0425668 C122.187785,27.2042636 122.216989,27.463717 122.080725,27.651203 L122.080725,27.651203 L119.24401,31.5542319 C119.095263,31.7588922 118.792325,31.8096816 118.577542,31.6536882 C118.369042,31.5022568 118.312917,31.2002512 118.466215,30.9893296 L118.466215,30.9893296 Z M48.0768639,23.0746929 C48.2875184,22.9992683 48.5365032,23.0781269 48.6524166,23.2788242 L48.6524166,23.2788242 L51.0654708,27.4568851 C51.1920023,27.6759671 51.115201,27.9732754 50.8852839,28.1059714 C50.6620909,28.2347866 50.3632699,28.1632042 50.2328673,27.9374197 L50.2328673,27.9374197 L47.8198131,23.7593588 C47.6932816,23.5402769 47.7700829,23.2429685 48,23.1102725 L48,23.1102725 Z M115.347583,23.2788242 C115.474115,23.0597423 115.770083,22.9775766 116,23.1102725 L116,23.1102725 L116.069256,23.1590254 C116.239926,23.303681 116.2961,23.5586615 116.180187,23.7593588 L116.180187,23.7593588 L113.767133,27.9374197 C113.640601,28.1565017 113.344633,28.2386674 113.114716,28.1059714 C112.891523,27.9771562 112.804127,27.6826696 112.934529,27.4568851 L112.934529,27.4568851 Z M109.026874,20.1147093 C109.129804,19.883606 109.415559,19.7709643 109.658092,19.8789089 L109.658092,19.8789089 L109.732066,19.920158 C109.916927,20.0461876 109.999456,20.2939015 109.905163,20.5056114 L109.905163,20.5056114 L107.942208,24.9129284 C107.839278,25.1440317 107.553523,25.2566735 107.31099,25.1487289 C107.07555,25.0439412 106.95784,24.7602 107.063919,24.5220264 L107.063919,24.5220264 Z M54.4220715,19.8515558 C54.6394588,19.798556 54.8788337,19.9029995 54.9731262,20.1147093 L54.9731262,20.1147093 L56.9360813,24.5220264 C57.0390114,24.7531297 56.9315426,25.0407843 56.6890097,25.1487289 C56.4535697,25.2535166 56.1638708,25.1511021 56.0577917,24.9129284 L56.0577917,24.9129284 L54.0948366,20.5056114 C53.9919066,20.2745081 54.0993753,19.9868535 54.3419083,19.8789089 L54.3419083,19.8789089 Z M61.0694287,17.30933 C61.2911671,17.2793357 61.5183095,17.4082197 61.5899479,17.6286226 L61.5899479,17.6286226 L63.0812974,22.2169083 C63.1594982,22.457501 63.0225395,22.7323502 62.7700479,22.8143608 C62.5249406,22.893973 62.2475376,22.7618483 62.1669444,22.5138951 L62.1669444,22.5138951 L60.6755949,17.9256093 C60.5973941,17.6850167 60.7343528,17.4101675 60.9868444,17.3281569 L60.9868444,17.3281569 Z M102.410052,17.6286226 C102.488253,17.38803 102.760664,17.2461463 103.013156,17.3281569 L103.013156,17.3281569 L103.091038,17.3614504 C103.288064,17.4674732 103.396044,17.7052064 103.324405,17.9256093 L103.324405,17.9256093 L101.833056,22.5138951 C101.754855,22.7544877 101.482444,22.8963714 101.229952,22.8143608 C100.984845,22.7347486 100.838109,22.4648616 100.918703,22.2169083 L100.918703,22.2169083 Z M67.9461056,15.4758688 C68.1697656,15.4692086 68.3821869,15.6211211 68.4303864,15.8478022 L68.4303864,15.8478022 L69.4337908,20.5667864 C69.4864055,20.8142324 69.3214574,21.0732649 69.0617735,21.128443 C68.8096843,21.1820073 68.5476166,21.0216202 68.4933921,20.7666039 L68.4933921,20.7666039 L67.4899878,16.0476197 C67.437373,15.8001737 67.6023211,15.5411412 67.862005,15.4859632 L67.862005,15.4859632 Z M96.0518412,15.475693 L96.137995,15.4859632 L96.2189318,15.5109362 C96.4259653,15.5957906 96.5582117,15.8209386 96.5100122,16.0476197 L96.5100122,16.0476197 L95.5066079,20.7666039 C95.4539931,21.0140499 95.1979104,21.183621 94.9382265,21.128443 C94.6861372,21.0748786 94.5119848,20.8218027 94.5662092,20.5667864 L94.5662092,20.5667864 L95.5696136,15.8478022 C95.6222284,15.6003562 95.8783111,15.4307851 96.137995,15.4859632 Z M74.9767598,14.3712599 C75.1998911,14.3880068 75.3952639,14.5612833 75.4194965,14.7917591 L75.4194965,14.7917591 L75.9239621,19.5897396 C75.9504144,19.8413278 75.7592841,20.0817056 75.4952531,20.1094466 C75.2389438,20.1363763 74.9950827,19.9494839 74.9678211,19.6901987 L74.9678211,19.6901987 L74.4633555,14.8922182 C74.4369031,14.6406299 74.6280335,14.4002521 74.8920645,14.3725111 L74.8920645,14.3725111 Z M89.0211798,14.3712996 L89.1079355,14.3725111 L89.1910403,14.3888902 C89.4058125,14.4516464 89.5608771,14.6617424 89.5366445,14.8922182 L89.5366445,14.8922182 L89.0321789,19.6901987 C89.0057266,19.9417869 88.768778,20.1371876 88.5047469,20.1094466 C88.2484376,20.0825169 88.0487763,19.8490248 88.0760379,19.5897396 L88.0760379,19.5897396 L88.5805035,14.7917591 C88.6069559,14.5401708 88.8439045,14.3447701 89.1079355,14.3725111 Z M82,14 L82.0843622,14.0076056 C82.30452,14.0475761 82.4807038,14.2403182 82.4807038,14.4720635 L82.4807038,14.4720635 L82.4807038,19.2964726 C82.4807038,19.5494467 82.2654854,19.7685362 82,19.7685362 C81.7422789,19.7685362 81.5192962,19.5571861 81.5192962,19.2964726 L81.5192962,19.2964726 L81.5192962,14.4720635 C81.5192962,14.2190895 81.7345146,14 82,14 L82,14 Z" style="mix-blend-mode:soft-light"/>
    <path fill="#000" fill-opacity=".1" fill-rule="nonzero" d="M82,78.5 C84.4852815,78.5 86.5,80.5147185 86.5,83 C86.5,85.4852815 84.4852815,87.5 82,87.5 C79.5147185,87.5 77.5,85.4852815 77.5,83 C77.5,80.5147185 79.5147185,78.5 82,78.5 Z M82,79.5 C80.0670033,79.5 78.5,81.0670033 78.5,83 C78.5,84.9329967 80.0670033,86.5 82,86.5 C83.9329967,86.5 85.5,84.9329967 85.5,83 C85.5,81.0670033 83.9329967,79.5 82,79.5 Z"/>
    <use fill="#000" filter="url(#clock_1-g)" xlink:href="#clock_1-h"/>
    <use fill="#FFF" xlink:href="#clock_1-h"/>
  </g>
</svg>
