<svg xmlns="http://www.w3.org/2000/svg" width="145" height="15" viewBox="0 0 145 15">
  <path fill="#F6FAFF" fill-rule="evenodd" stroke="#000" stroke-opacity=".1" d="M133,5.5 C133.828427,5.5 134.5,6.17157288 134.5,7 L134.5,8 C134.5,8.82842712 133.828427,9.5 133,9.5 L71,9.5 C70.1715729,9.5 69.5,8.82842712 69.5,8 L69.5,7 C69.5,6.17157288 70.1715729,5.5 71,5.5 L133,5.5 Z M126.5,7.5 L120,7.5 L120.5,8 L120.5,7 L120,7.5 L126.5,7.5 Z M126.5,7.5 L133,7.5 L132.5,7 L132.5,8 L133,7.5 L126.5,7.5 Z"/>
</svg>
