<svg xmlns="http://www.w3.org/2000/svg" width="145" height="15" viewBox="0 0 145 15">
  <path fill="#F6FAFF" fill-rule="evenodd" stroke="#000" stroke-opacity=".1" d="M117,4.5 C118.380712,4.5 119.5,5.61928813 119.5,7 L119.5,8 C119.5,9.38071187 118.380712,10.5 117,10.5 L72,10.5 C70.6192881,10.5 69.5,9.38071187 69.5,8 L69.5,7 C69.5,5.61928813 70.6192881,4.5 72,4.5 L117,4.5 Z M116.5,6.5 C115.947715,6.5 115.5,6.94771525 115.5,7.5 C115.5,8.05228475 115.947715,8.5 116.5,8.5 C117.052285,8.5 117.5,8.05228475 117.5,7.5 C117.5,6.94771525 117.052285,6.5 116.5,6.5 Z"/>
</svg>
