<?xml version="1.0" encoding="utf-8"?>
<!-- Generator: Adobe Illustrator 17.0.2, SVG Export Plug-In . SVG Version: 6.00 Build 0)  -->
<!DOCTYPE svg PUBLIC "-//W3C//DTD SVG 1.1//EN" "http://www.w3.org/Graphics/SVG/1.1/DTD/svg11.dtd">
<svg version="1.1"
	 id="svg3167" xmlns:inkscape="http://www.inkscape.org/namespaces/inkscape" xmlns:cc="http://creativecommons.org/ns#" xmlns:rdf="http://www.w3.org/1999/02/22-rdf-syntax-ns#" xmlns:svg="http://www.w3.org/2000/svg" xmlns:dc="http://purl.org/dc/elements/1.1/"
	 xmlns="http://www.w3.org/2000/svg" xmlns:xlink="http://www.w3.org/1999/xlink" x="0px" y="0px" width="22px" height="16px"
	 viewBox="0 0 22 16" enable-background="new 0 0 22 16" xml:space="preserve">
<g id="path3375" inkscape:connector-curvature="0">
	<g opacity="0.4">
		<path d="M13.147,13.709C13.053,13.79,10.972,16,10.972,16s-2.06-2.228-2.138-2.291c0.138-0.104,0.702-0.512,2.142-0.506
			C12.394,13.209,13.039,13.608,13.147,13.709L13.147,13.709z"/>
	</g>
	<g>
		<path fill="#C8C8C8" d="M13.147,12.709C13.053,12.79,10.972,15,10.972,15s-2.06-2.228-2.138-2.291
			c0.138-0.104,0.702-0.512,2.142-0.506C12.394,12.209,13.039,12.608,13.147,12.709L13.147,12.709z"/>
	</g>
</g>
<path id="path3209" inkscape:connector-curvature="0" fill="none" stroke="#3C3C3C" stroke-width="1.7" stroke-linecap="round" stroke-linejoin="round" enable-background="new    " d="
	M6.771,10.449c0,0,1.019-1.291,4.139-1.324c3.082-0.033,4.261,1.324,4.261,1.324 M4.056,7.453c0,0,2.235-2.422,6.924-2.336
	c4.728,0.087,6.924,2.375,6.924,2.375 M1.199,4.414c0,0,3.104-3.431,9.782-3.431c6.645,0,9.82,3.437,9.82,3.437"/>
</svg>
