<?xml version="1.0" encoding="utf-8"?>
<!-- Generator: Adobe Illustrator 17.0.2, SVG Export Plug-In . SVG Version: 6.00 Build 0)  -->
<!DOCTYPE svg PUBLIC "-//W3C//DTD SVG 1.1//EN" "http://www.w3.org/Graphics/SVG/1.1/DTD/svg11.dtd">
<svg version="1.1" id="图层_1" xmlns="http://www.w3.org/2000/svg" xmlns:xlink="http://www.w3.org/1999/xlink" x="0px" y="0px"
	 width="16px" height="16px" viewBox="0 0 16 16" enable-background="new 0 0 16 16" xml:space="preserve">
<path opacity="0.15" fill="#FFFFFF" enable-background="new    " d="M10.406,8.062c-0.214,0.026-0.413,0.126-0.562,0.282l-1.5,1.5
	c-0.36,0.363-0.36,0.949,0,1.312L9.188,12l-0.844,0.844c-0.36,0.363-0.36,0.949,0,1.312l1.5,1.5c0.363,0.36,0.949,0.36,1.312,0
	L12,14.812l0.844,0.844c0.363,0.36,0.949,0.36,1.312,0l1.5-1.5c0.36-0.363,0.36-0.949,0-1.312L14.812,12l0.844-0.844
	c0.36-0.363,0.36-0.949,0-1.312l-1.5-1.5c-0.363-0.36-0.949-0.36-1.312,0L12,9.188l-0.844-0.844
	C10.961,8.142,10.686,8.039,10.406,8.062z M10.5,9l1.5,1.5L13.5,9l1.5,1.5L13.5,12l1.5,1.5L13.5,15L12,13.5L10.5,15L9,13.5l1.5-1.5
	L9,10.5L10.5,9z"/>
<linearGradient id="SVGID_1_" gradientUnits="userSpaceOnUse" x1="524.8578" y1="-388.6976" x2="532.8605" y2="-388.6976" gradientTransform="matrix(0 0.749 -0.749 0 -279.1315 -384.1125)">
	<stop  offset="0" style="stop-color:#AD0707"/>
	<stop  offset="1" style="stop-color:#F75535"/>
</linearGradient>
<path fill="url(#SVGID_1_)" d="M9.006,10.505l1.499-1.499l1.498,1.499l1.499-1.499L15,10.505l-1.498,1.498L15,13.502L13.502,15
	l-1.499-1.498L10.505,15l-1.499-1.498l1.499-1.499L9.006,10.505z"/>
<path opacity="0.4" enable-background="new    " d="M9.5,11L9,11.5l1,1l0.5-0.5L9.5,11z M14.5,11l-1,1l0.5,0.5l1-1L14.5,11z
	 M12,13.5L10.5,15l-1-1L9,14.5l1.5,1.5l1.5-1.5l1.5,1.5l1.5-1.5L14.5,14l-1,1L12,13.5z"/>
<path fill="#505050" enable-background="new    " d="M4.844,8C4.735,8.036,4.637,8.101,4.562,8.188l-2.374,2.374
	C2.072,10.677,2.003,10.837,2,11v1.875l-1.75,1.75c-0.314,0.314-0.314,0.811,0,1.125c0.314,0.314,0.811,0.314,1.125,0L3.125,14H5
	c0.163-0.003,0.323-0.072,0.438-0.188l2.374-2.374c0.224-0.233,0.224-0.643,0-0.876L5.438,8.188C5.29,8.029,5.056,7.955,4.844,8z"/>
<path fill="#505050" enable-background="new    " d="M11.16,7.972c0.108-0.035,0.206-0.101,0.281-0.187l2.375-2.375
	C13.932,5.295,14,5.135,14.003,4.972V3.097l1.75-1.75c0.315-0.314,0.315-0.81,0-1.125c-0.314-0.314-0.81-0.314-1.125,0l-1.75,1.75
	h-1.875c-0.162,0.004-0.323,0.072-0.437,0.188L8.191,4.535c-0.224,0.232-0.224,0.642,0,0.875l2.375,2.375
	C10.714,7.943,10.947,8.017,11.16,7.972z"/>
</svg>
