<?xml version="1.0" encoding="UTF-8"?>
<svg width="72px" height="72px" viewBox="0 0 72 72" version="1.1" xmlns="http://www.w3.org/2000/svg" xmlns:xlink="http://www.w3.org/1999/xlink">
    <title>icon-无访问应用</title>
    <g id="桌面版" stroke="none" stroke-width="1" fill="none" fill-rule="evenodd">
        <g id="控制中心-安全隐私" transform="translate(-604.000000, -951.000000)">
            <g id="控制中心" transform="translate(10.000000, 663.000000)">
                <g id="分组-4" transform="translate(450.000000, 60.000000)">
                    <g id="icon-无访问应用" transform="translate(144.000000, 228.000000)">
                        <rect id="矩形" x="0" y="0" width="72" height="72"></rect>
                        <path d="M59,31 L59,53 C59,55.209139 57.209139,57 55,57 L13,57 C10.790861,57 9,55.209139 9,53 L9,31 L59,31 Z M56,15 C60.418278,15 64,18.581722 64,23 L64,44 C64,46.5261044 62.8291847,48.7787503 61.0006084,50.2448832 L61,24 C61,20.6862915 58.3137085,18 55,18 L15.7543194,18.0003863 C17.2204328,16.1712399 19.4734375,15 22,15 L56,15 Z M55,20 C57.209139,20 59,21.790861 59,24 L59,29 L9,29 L9,24 C9,21.790861 10.790861,20 13,20 L55,20 Z M13.5,22 C12.1192881,22 11,23.1192881 11,24.5 C11,25.8807119 12.1192881,27 13.5,27 C14.8807119,27 16,25.8807119 16,24.5 C16,23.1192881 14.8807119,22 13.5,22 Z M56,23 L53,23 L53,26 L56,26 L56,23 Z M52,23 L49,23 L49,26 L52,26 L52,23 Z M48,23 L45,23 L45,26 L48,26 L48,23 Z" id="形状结合" fill-opacity="0.2" fill="#000000"></path>
                    </g>
                </g>
            </g>
        </g>
    </g>
</svg>