<?xml version="1.0" encoding="UTF-8"?>
<svg width="24px" height="24px" viewBox="0 0 24 24" version="1.1" xmlns="http://www.w3.org/2000/svg" xmlns:xlink="http://www.w3.org/1999/xlink">
    <!-- Generator: Sketch 46.2 (44496) - http://www.bohemiancoding.com/sketch -->
    <title>nav_wacom</title>
    <desc>Created with Sketch.</desc>
    <defs></defs>
    <g id="UI" stroke="none" stroke-width="1" fill="none" fill-rule="evenodd">
        <g id="nav_wacom" fill="#FFFFFF">
            <path d="M22.5,5.061 C22.776,5.061 23,5.285 23,5.561 L23,19.5 C23,20.328 22.327,21 21.5,21 L2.5,21 C1.673,21 1,20.328 1,19.5 L1,5.5 C1,4.673 1.673,4 2.5,4 L14.813,4 C15.089,4 15.313,4.224 15.313,4.5 C15.313,4.777 15.089,5 14.813,5 L2.5,5 C2.225,5 2,5.225 2,5.5 L2,19.5 C2,19.776 2.225,20 2.5,20 L21.5,20 C21.775,20 22,19.776 22,19.5 L22,5.561 C22,5.285 22.224,5.061 22.5,5.061 Z M2.8735,12.9698277 C2.8735,12.4178277 3.3215,11.9698277 3.8735,11.9698277 C4.4255,11.9698277 4.8735,12.4178277 4.8735,12.9698277 C4.8735,13.5218277 4.4255,13.9698277 3.8735,13.9698277 C3.3215,13.9698277 2.8735,13.5218277 2.8735,12.9698277 Z M6,6 L14.298,6 L9.789,10.509 L7.257,16.2 C7.071,16.619 7.5,17.047 7.918,16.859 L13.637,14.301 L21,6.938 L21,19 L6,19 L6,6 Z M21.9748,4.00232766 L19.2898,6.68732766 L17.6028,4.97632766 L20.2758,2.30332766 C20.6068,1.97232766 21.5078,1.83232766 21.9768,2.30132766 C22.4458,2.77032766 22.3058,3.67132766 21.9748,4.00232766 Z M12.642,13.3352277 L9.5,14.7782277 L10.936,11.6522277 L12.642,13.3352277 Z M13.3501,12.6271277 L11.6391,10.9401277 L16.8961,5.68412766 L18.5831,7.39412766 L13.3501,12.6271277 Z" id="Combined-Shape"></path>
        </g>
    </g>
</svg>