<?xml version="1.0" encoding="UTF-8"?>
<svg width="24px" height="24px" viewBox="0 0 24 24" version="1.1" xmlns="http://www.w3.org/2000/svg" xmlns:xlink="http://www.w3.org/1999/xlink">
    <!-- Generator: Sketch 47.1 (45422) - http://www.bohemiancoding.com/sketch -->
    <title>nav_icon_press</title>
    <desc>Created with Sketch.</desc>
    <defs></defs>
    <g id="UI" stroke="none" stroke-width="1" fill="none" fill-rule="evenodd">
        <g id="nav_icon_press">
            <rect id="Rectangle-598" fill-opacity="0.1" fill="#FFFFFF" x="0" y="0" width="24" height="24" rx="4"></rect>
            <g id="按分类50" transform="translate(7.000000, 7.000000)" stroke="#2CA7F8">
                <path d="M3.42857143,3.5 C3.46785763,3.5 3.5,3.46785763 3.5,3.42857143 L3.5,0.571428571 C3.5,0.532142375 3.46785763,0.5 3.42857143,0.5 L0.571428571,0.5 C0.532142375,0.5 0.5,0.532142375 0.5,0.571428571 L0.5,3.42857143 C0.5,3.46785763 0.532142375,3.5 0.571428571,3.5 L3.42857143,3.5 Z M3.42857143,9.5 C3.46785763,9.5 3.5,9.46785763 3.5,9.42857143 L3.5,6.57142857 C3.5,6.53214237 3.46785763,6.5 3.42857143,6.5 L0.571428571,6.5 C0.532142375,6.5 0.5,6.53214237 0.5,6.57142857 L0.5,9.42857143 C0.5,9.46785763 0.532142375,9.5 0.571428571,9.5 L3.42857143,9.5 Z M9.42857143,9.5 C9.46785763,9.5 9.5,9.46785763 9.5,9.42857143 L9.5,6.57142857 C9.5,6.53214237 9.46785763,6.5 9.42857143,6.5 L6.57142857,6.5 C6.53214237,6.5 6.5,6.53214237 6.5,6.57142857 L6.5,9.42857143 C6.5,9.46785763 6.53214237,9.5 6.57142857,9.5 L9.42857143,9.5 Z M9.42857143,3.5 C9.46785763,3.5 9.5,3.46785763 9.5,3.42857143 L9.5,0.571428571 C9.5,0.532142375 9.46785763,0.5 9.42857143,0.5 L6.57142857,0.5 C6.53214237,0.5 6.5,0.532142375 6.5,0.571428571 L6.5,3.42857143 C6.5,3.46785763 6.53214237,3.5 6.57142857,3.5 L9.42857143,3.5 Z" id="Combined-Shape"></path>
            </g>
        </g>
    </g>
</svg>