<svg xmlns="http://www.w3.org/2000/svg" width="32" height="32" viewBox="0 0 32 32">
  <g fill="none" fill-rule="evenodd">
    <circle cx="16" cy="16" r="16" fill="#FFF"/>
    <path fill="#2CA7F8" d="M12,11 L21,11 C21.5522847,11 22,11.4477153 22,12 C22,12.5522847 21.5522847,13 21,13 L12,13 C11.4477153,13 11,12.5522847 11,12 C11,11.4477153 11.4477153,11 12,11 Z M11,15 L20,15 C20.5522847,15 21,15.4477153 21,16 C21,16.5522847 20.5522847,17 20,17 L11,17 C10.4477153,17 10,16.5522847 10,16 C10,15.4477153 10.4477153,15 11,15 Z M12,19 L21,19 C21.5522847,19 22,19.4477153 22,20 C22,20.5522847 21.5522847,21 21,21 L12,21 C11.4477153,21 11,20.5522847 11,20 C11,19.4477153 11.4477153,19 12,19 Z"/>
  </g>
</svg>
