<?xml version="1.0" encoding="UTF-8"?>
<svg width="16px" height="16px" viewBox="0 0 16 16" version="1.1" xmlns="http://www.w3.org/2000/svg" xmlns:xlink="http://www.w3.org/1999/xlink">
    <title>help</title>
    <g id="个性化" stroke="none" stroke-width="1" fill="none" fill-rule="evenodd">
        <g id="控制中心_个性化-主题1" transform="translate(-793.000000, -323.000000)">
            <g id="控制中心" transform="translate(500.000000, 193.000000)">
                <g id="编组-22" transform="translate(240.000000, 126.000000)">
                    <g id="help" transform="translate(53.000000, 4.000000)">
                        <rect id="矩形" x="0" y="0" width="16" height="16"></rect>
                        <path d="M8,1 C9.85651543,1 11.6369928,1.73749788 12.9497475,3.05025253 C14.2625021,4.36300718 15,6.14348457 15,8 C15,11.8659932 11.8659932,15 8,15 C4.13400675,15 1,11.8659932 1,8 C1,4.13400675 4.13400675,1 8,1 Z M8,2 C4.6862915,2 2,4.6862915 2,8 C2,11.3137085 4.68629152,14 8,14 C11.3137085,14 14,11.3137085 14,8 C14,6.40870108 13.367859,4.88257759 12.2426407,3.75735933 C11.1174224,2.63214104 9.59129893,2 8,2 Z M8,10.75 C8.4418278,10.75 8.8,11.1081722 8.8,11.55 C8.8,11.9918278 8.4418278,12.35 8,12.35 C7.5581722,12.35 7.2,11.9918278 7.2,11.55 C7.2,11.1081722 7.5581722,10.75 8,10.75 Z M8,3.70639559 C9.78377188,3.70639559 10.7843927,5.15370798 10.4583535,6.58303992 C10.3296348,7.14733312 10.0813996,7.50970585 9.57847651,7.99314492 L9.29938433,8.25243645 L9.19233325,8.35174137 C9.0624075,8.47398285 8.98050932,8.55897854 8.90813634,8.64770272 C8.68251074,8.92430386 8.57917677,9.20208877 8.58234523,9.50087404 C8.58585905,9.83222626 8.32009351,10.1036888 7.98874129,10.1072709 C7.65738907,10.1107165 7.38592651,9.84495091 7.3824127,9.5135987 C7.3761756,8.92544221 7.58005476,8.37736927 7.97826095,7.88919645 C8.08778821,7.75492373 8.19771171,7.64027663 8.35786791,7.48918472 L8.59042745,7.27456015 L8.73192832,7.14230115 C9.08238137,6.80693238 9.22334025,6.60140728 9.28840513,6.31616765 C9.45140277,5.60159801 8.97076429,4.90639559 8,4.90639559 C7.10000033,4.90639559 6.61101731,5.54875687 6.61101731,6.12965696 C6.61101731,6.46102781 6.34238816,6.72965696 6.01101731,6.72965696 C5.67964646,6.72965696 5.41101731,6.46102781 5.41101731,6.12965696 C5.41101731,4.94632955 6.35488904,3.70639559 8,3.70639559 Z" id="形状结合" fill-opacity="0.7" fill="#000000" fill-rule="nonzero"></path>
                    </g>
                </g>
            </g>
        </g>
    </g>
</svg>