<?xml version="1.0" encoding="utf-8"?>
<!-- Generator: Adobe Illustrator 17.0.2, SVG Export Plug-In . SVG Version: 6.00 Build 0)  -->
<!DOCTYPE svg PUBLIC "-//W3C//DTD SVG 1.1//EN" "http://www.w3.org/Graphics/SVG/1.1/DTD/svg11.dtd">
<svg version="1.1"
	 id="svg3923" xmlns:inkscape="http://www.inkscape.org/namespaces/inkscape" xmlns:cc="http://creativecommons.org/ns#" xmlns:rdf="http://www.w3.org/1999/02/22-rdf-syntax-ns#" xmlns:svg="http://www.w3.org/2000/svg" xmlns:dc="http://purl.org/dc/elements/1.1/"
	 xmlns="http://www.w3.org/2000/svg" xmlns:xlink="http://www.w3.org/1999/xlink" x="0px" y="0px" width="22px" height="22px"
	 viewBox="0 0 22 22" enable-background="new 0 0 22 22" xml:space="preserve">
<g id="path3074" inkscape:connector-curvature="0">
	<g opacity="0.4">
		<path d="M11,5C7.03,5,3.391,6.45,0.594,8.844L11,20.156L21.344,8.812C18.554,6.445,14.946,5,11,5z M11,6.031
			c3.305,0,6.273,1.185,8.75,3L11,18.656L2.188,9.062C4.674,7.227,7.669,6.031,11,6.031z"/>
	</g>
	<g>
		<path fill="#DCDCDC" d="M11,4C7.03,4,3.391,5.45,0.594,7.844L11,19.156L21.344,7.812C18.554,5.445,14.946,4,11,4z M11,5.031
			c3.305,0,6.273,1.185,8.75,3L11,17.656L2.188,8.062C4.674,6.227,7.669,5.031,11,5.031z"/>
	</g>
</g>
</svg>
