<?xml version="1.0" encoding="UTF-8"?>
<svg width="144px" height="70px" viewBox="0 0 144 70" version="1.1" xmlns="http://www.w3.org/2000/svg" xmlns:xlink="http://www.w3.org/1999/xlink">
    <title>时尚模式</title>
    <defs>
        <linearGradient x1="50%" y1="0%" x2="50%" y2="100%" id="linearGradient-1">
            <stop stop-color="#8EBCFA" offset="0%"></stop>
            <stop stop-color="#BAD1F3" offset="100%"></stop>
        </linearGradient>
        <rect id="path-2" x="0" y="0" width="144" height="70" rx="6"></rect>
        <path d="M3.84,0 L115.16,0 C117.280773,-3.89579761e-16 119,1.71922656 119,3.84 L119,14 L119,14 C100.074074,14 83.1574074,14 68.25,14 C53.3425926,14 30.5925926,14 0,14 L-4.4408921e-16,3.84 C-7.0380905e-16,1.71922656 1.71922656,-1.84369369e-16 3.84,-4.4408921e-16 Z" id="path-4"></path>
    </defs>
    <g id="个性化" stroke="none" stroke-width="1" fill="none" fill-rule="evenodd">
        <g id="控制中心-个性化-任务栏" transform="translate(-468, -410)">
            <g id="控制中心" transform="translate(224, 275)">
                <g id="编组-5" transform="translate(180, 0)">
                    <g id="时尚模式" transform="translate(64, 135)">
                        <g id="编组-4">
                            <mask id="mask-3" fill="white">
                                <use xlink:href="#path-2"></use>
                            </mask>
                            <use id="矩形" fill-opacity="0.89" fill="url(#linearGradient-1)" xlink:href="#path-2"></use>
                            <g id="编组-10" mask="url(#mask-3)">
                                <g transform="translate(13, 56)" id="编组">
                                    <g id="矩形" stroke-width="0.32">
                                        <path stroke-opacity="0.3" stroke="#FFFFFF" d="M3.84,0.16 L115.16,0.16 C116.176204,0.16 117.096204,0.57189803 117.762153,1.23784705 C118.428102,1.90379606 118.84,2.82379606 118.84,3.84 L118.84,13.84 L0.16,13.84 L0.16,3.84 C0.16,2.82379606 0.57189803,1.90379606 1.23784705,1.23784705 C1.90379606,0.57189803 2.82379606,0.16 3.84,0.16 Z" stroke-linejoin="square" fill-opacity="0.503107" fill="#FFFFFF" fill-rule="evenodd"></path>
                                        <path stroke-opacity="0.05" stroke="#000000" d="M115.16,-0.16 C116.264569,-0.16 117.264569,0.28771525 117.988427,1.01157288 C118.712285,1.7354305 119.16,2.7354305 119.16,3.84 L119.16,14.16 L-0.16,14.16 L-0.16,3.84 C-0.16,2.7354305 0.28771525,1.7354305 1.01157288,1.01157288 C1.7354305,0.28771525 2.7354305,-0.16 3.84,-0.16 Z"></path>
                                    </g>
                                    <rect id="矩形" fill="#ADC7EB" x="104" y="5" width="12" height="4" rx="0.639999986"></rect>
                                    <rect id="矩形" fill="#ECB980" x="3" y="3" width="8" height="8" rx="1.27999997"></rect>
                                    <g id="编组-11" transform="translate(26, 3)">
                                        <rect id="矩形" fill="#8CBCED" x="0" y="0" width="8" height="8" rx="1.27999997"></rect>
                                        <rect id="矩形" fill="#B7E08F" x="10" y="0" width="8" height="8" rx="1.27999997"></rect>
                                        <rect id="矩形" fill="#DAC2EA" x="20" y="0" width="8" height="8" rx="1.27999997"></rect>
                                        <rect id="矩形" fill="#F9B29F" x="30" y="0" width="8" height="8" rx="1.27999997"></rect>
                                        <rect id="矩形" fill="#D7DA89" x="40" y="0" width="8" height="8" rx="1.27999997"></rect>
                                        <rect id="矩形" fill="#CECBC9" x="50" y="0" width="8" height="8" rx="1.27999997"></rect>
                                        <rect id="矩形" fill="#E0BBBB" x="60" y="0" width="8" height="8" rx="1.27999997"></rect>
                                    </g>
                                </g>
                            </g>
                        </g>
                        <rect id="矩形" stroke-opacity="0.1" stroke="#000000" x="0.5" y="0.5" width="143" height="69" rx="6"></rect>
                    </g>
                </g>
            </g>
        </g>
    </g>
</svg>