<?xml version="1.0" encoding="UTF-8"?>
<svg width="16px" height="16px" viewBox="0 0 16 16" version="1.1" xmlns="http://www.w3.org/2000/svg" xmlns:xlink="http://www.w3.org/1999/xlink">
    <title>ICON / Device /power-dark</title>
    <g id="ICON-/-Device-/power-dark" stroke="none" stroke-width="1" fill="none" fill-rule="evenodd" fill-opacity="0.7">
        <path d="M11,3 C12.6568542,3 14,4.34314575 14,6 L14,10 C14,11.6568542 12.6568542,13 11,13 L3,13 C1.34314575,13 0,11.6568542 0,10 L0,6 C0,4.34314575 1.34314575,3 3,3 L11,3 Z M11,4 L3,4 C1.8954305,4 1,4.8954305 1,6 L1,10 C1,11.1045695 1.8954305,12 3,12 L11,12 C12.1045695,12 13,11.1045695 13,10 L13,6 C13,4.8954305 12.1045695,4 11,4 Z M7,5 C7.55228475,5 8,5.44771525 8,6 L8,10 C8,10.5522847 7.55228475,11 7,11 L3,11 C2.44771525,11 2,10.5522847 2,10 L2,6 C2,5.44771525 2.44771525,5 3,5 L7,5 Z M16,6 L16,10 L15,10 L15,6 L16,6 Z" id="形状结合" fill="#000000" fill-rule="nonzero"></path>
    </g>
</svg>