<?xml version="1.0" encoding="UTF-8"?>
<svg width="16px" height="16px" viewBox="0 0 16 16" version="1.1" xmlns="http://www.w3.org/2000/svg" xmlns:xlink="http://www.w3.org/1999/xlink">
    <title>ICON / Device /them-dark</title>
    <g id="ICON-/-Device-/them-dark" stroke="none" stroke-width="1" fill="none" fill-rule="evenodd" fill-opacity="0.7">
        <path d="M4.18168841,2.00042069 C4.40900543,2.00060398 4.56154958,2.11510323 4.66006877,2.21883835 L4.75368767,2.33014858 C5.39462839,3.1514146 6.3867565,3.67840853 7.50037226,3.67840853 L7.720663,3.6714509 C8.66525077,3.61180526 9.50829822,3.172515 10.102918,2.50240005 L10.2871367,2.27878709 C10.367097,2.18166294 10.4998233,2.04668483 10.7078934,2.00996328 L10.8183116,2.00042069 L11.1756656,1.99988477 C11.3440453,1.99860409 11.5102446,2.03403113 11.6620154,2.10511316 L11.7729468,2.16509108 L14.4165397,3.7163515 C14.9372867,4.0209605 15.1385295,4.67092925 14.9011449,5.21583465 L14.8435197,5.33082783 L14.2602542,6.85699847 C13.9596008,7.38459675 13.3180725,7.58848725 12.7802431,7.34797948 L12.6667432,7.2895961 L12,7 L12,13.8181213 C12,14.4273393 11.5107411,14.928898 10.926275,14.9930649 L10.7991686,15 L4.06975465,14.9995701 C3.42549738,14.9995701 3,14.3113765 3,13.6586429 L3,6.97899657 L2.33325676,7.2895961 C1.7753136,7.6159629 1.06187443,7.42228234 0.739745796,6.85699847 L0.1564803,5.33082783 C-0.165648338,4.76554396 0.0255171093,4.04271829 0.583460278,3.7163515 L3.22705318,2.16509108 C3.40679206,2.05404872 3.61385983,1.99824459 3.82433439,1.99988477 L4.18168841,2.00042069 Z M3.911,3.209 L3.837,3.209 L1.215,4.748 L1.28674979,4.89886618 L1.788,6.21 L1.82230481,6.19276973 L4,5.08047197 L4,14 L11,14 L11,5.15523545 L13.212,6.209 L13.7132502,4.89886618 L13.7617472,4.78873157 L13.783,4.747 L11.163,3.209 L11.087,3.209 L11.007979,3.30549686 C10.2433176,4.16724265 9.1938131,4.72262153 8.01368756,4.85825054 L7.75886042,4.88084784 L7.50037226,4.88840853 C6.12439985,4.88840853 4.84545262,4.287531 3.98418452,3.29885682 L3.911,3.209 Z M5.5749302,6.09457793 C6.03395315,6.64816193 6.72588848,7 7.5,7 C8.27411152,7 8.96604685,6.64816193 9.42461705,6.09567473 C9.76480604,6.25435166 10,6.59970958 10,7 L10,12 C10,12.5522847 9.55228475,13 9,13 L6,13 C5.44771525,13 5,12.5522847 5,12 L5,7 C5,6.59970958 5.23519396,6.25435166 5.5749302,6.09457793 Z" id="形状结合" fill="#000000" fill-rule="nonzero"></path>
    </g>
</svg>