<?xml version="1.0" encoding="UTF-8"?>
<svg width="16px" height="16px" viewBox="0 0 16 16" version="1.1" xmlns="http://www.w3.org/2000/svg" xmlns:xlink="http://www.w3.org/1999/xlink">
    <title>ICON / Device /voice-dark</title>
    <g id="ICON-/-Device-/voice-dark" stroke="none" stroke-width="1" fill="none" fill-rule="evenodd" fill-opacity="0.7">
        <path d="M5.83059677,4.81760966 L7.34311193,3.55036615 C7.51244689,3.40849079 7.76473272,3.4307512 7.90660808,3.60008616 C7.96693777,3.6720925 8,3.76303498 8,3.85697424 L8,12.0858966 C8,12.3068105 7.8209139,12.4858966 7.6,12.4858966 C7.49938745,12.4858966 7.40247012,12.4479806 7.32856762,12.3797068 L5.85145723,11.0150996 C5.40804225,10.6054571 4.82653826,10.3779612 4.22286296,10.3779612 L3.2,10.3779612 C2.5372583,10.3779612 2,9.84070286 2,9.17796116 L2,6.57796116 C2,5.91521946 2.5372583,5.37796116 3.2,5.37796116 L4.28926833,5.37796116 C4.85290388,5.37796116 5.39855873,5.17958779 5.83059677,4.81760966 Z M13,2.54218158 C13,2.26603921 13.2238576,2.04218158 13.5,2.04218158 C13.7761424,2.04218158 14,2.26603921 14,2.54218158 L14,13.4762979 C14,13.7524402 13.7761424,13.9762979 13.5,13.9762979 C13.2238576,13.9762979 13,13.7524402 13,13.4762979 L13,2.54218158 Z M11,4.5 C11,4.22385763 11.2238576,4 11.5,4 C11.7761424,4 12,4.22385763 12,4.5 L12,11.5 C12,11.7761424 11.7761424,12 11.5,12 C11.2238576,12 11,11.7761424 11,11.5 L11,4.5 Z M9.014,6.49999751 C9.014,6.22385513 9.23785763,5.99999751 9.514,5.99999751 C9.79014237,5.99999751 10.014,6.22385513 10.014,6.49999751 L10.014,9.51410719 C10.014,9.79024956 9.79014237,10.0141072 9.514,10.0141072 C9.23785763,10.0141072 9.014,9.79024956 9.014,9.51410719 L9.014,6.49999751 Z" id="形状结合" fill="#000000" fill-rule="nonzero"></path>
    </g>
</svg>