<?xml version="1.0" encoding="UTF-8"?>
<svg width="16px" height="16px" viewBox="0 0 16 16" version="1.1" xmlns="http://www.w3.org/2000/svg" xmlns:xlink="http://www.w3.org/1999/xlink">
    <title>ICON / Device /wallpaper-dark</title>
    <g id="ICON-/-Device-/wallpaper-dark" stroke="none" stroke-width="1" fill="none" fill-rule="evenodd" fill-opacity="0.7">
        <path d="M12.9941413,2 C14.1019465,2 15,2.90195036 15,4.0085302 L15,11.9914698 C15,13.1007504 14.1029399,14 12.9941413,14 L3.00585866,14 C1.89805351,14 1,13.0980496 1,11.9914698 L1,4.0085302 C1,2.8992496 1.89706013,2 3.00585866,2 L12.9941413,2 Z M12.9941413,3 L3.00585866,3 C2.48711591,3 2.0604783,3.39271126 2.00589881,3.89851466 L2,4.0085302 L2,11.9914698 C2,12.5101539 2.39354651,12.9391695 2.89650965,12.9940664 L3.00585866,13 L12.9941413,13 C13.5128841,13 13.9395217,12.6072887 13.9941012,12.1014853 L14,11.9914698 L14,4.0085302 C14,3.48984607 13.6064535,3.06083045 13.1034904,3.00593363 L12.9941413,3 Z M9.08397485,6.2226499 C9.28758145,5.91724 9.73989719,5.92800333 9.92874646,6.24275212 L12.9287465,11.2427521 C13.1287038,11.5760144 12.8886472,12 12.5,12 L3.5,12 C3.09331372,12 2.85675167,11.5403151 3.09313326,11.2093809 L5.59313326,7.7093809 C5.77271827,7.4579619 6.13507881,7.42797203 6.35355339,7.64644661 L7.23410064,9.07009862 C7.37731028,9.30163722 7.59860716,9.29597539 7.72024506,9.04429842 Z M4.5,4 C5.32842712,4 6,4.67157288 6,5.5 C6,6.32842712 5.32842712,7 4.5,7 C3.67157288,7 3,6.32842712 3,5.5 C3,4.67157288 3.67157288,4 4.5,4 Z" id="形状结合" fill="#000000" fill-rule="nonzero"></path>
    </g>
</svg>