<?xml version="1.0" encoding="UTF-8"?>
<svg width="16px" height="16px" viewBox="0 0 16 16" version="1.1" xmlns="http://www.w3.org/2000/svg" xmlns:xlink="http://www.w3.org/1999/xlink">
    <title>ICON / Device /luncher-dark</title>
    <g id="ICON-/-Device-/luncher-dark" stroke="none" stroke-width="1" fill="none" fill-rule="evenodd" fill-opacity="0.7">
        <path d="M8,1 C11.8659932,1 15,4.13400675 15,8 C15,11.8659932 11.8659932,15 8,15 C4.13400675,15 1,11.8659932 1,8 C1,4.13400675 4.13400675,1 8,1 Z M8,2 C4.6862915,2 2,4.6862915 2,8 C2,11.3137085 4.6862915,14 8,14 C11.3137085,14 14,11.3137085 14,8 C14,4.6862915 11.3137085,2 8,2 Z M8.82842712,9.70710678 L9.53553391,10.4142136 C9.9260582,10.8047379 9.9260582,11.4379028 9.53553391,11.8284271 L8.82842712,12.5355339 C8.43790283,12.9260582 7.80473785,12.9260582 7.41421356,12.5355339 L6.70710678,11.8284271 C6.31658249,11.4379028 6.31658249,10.8047379 6.70710678,10.4142136 L7.41421356,9.70710678 C7.80473785,9.31658249 8.43790283,9.31658249 8.82842712,9.70710678 Z M5.82842712,6.70710678 L6.53553391,7.41421356 C6.9260582,7.80473785 6.9260582,8.43790283 6.53553391,8.82842712 L5.82842712,9.53553391 C5.43790283,9.9260582 4.80473785,9.9260582 4.41421356,9.53553391 L3.70710678,8.82842712 C3.31658249,8.43790283 3.31658249,7.80473785 3.70710678,7.41421356 L4.41421356,6.70710678 C4.80473785,6.31658249 5.43790283,6.31658249 5.82842712,6.70710678 Z M11.8284271,6.70710678 L12.5355339,7.41421356 C12.9260582,7.80473785 12.9260582,8.43790283 12.5355339,8.82842712 L11.8284271,9.53553391 C11.4379028,9.9260582 10.8047379,9.9260582 10.4142136,9.53553391 L9.70710678,8.82842712 C9.31658249,8.43790283 9.31658249,7.80473785 9.70710678,7.41421356 L10.4142136,6.70710678 C10.8047379,6.31658249 11.4379028,6.31658249 11.8284271,6.70710678 Z M8.82842712,3.70710678 L9.53553391,4.41421356 C9.9260582,4.80473785 9.9260582,5.43790283 9.53553391,5.82842712 L8.82842712,6.53553391 C8.43790283,6.9260582 7.80473785,6.9260582 7.41421356,6.53553391 L6.70710678,5.82842712 C6.31658249,5.43790283 6.31658249,4.80473785 6.70710678,4.41421356 L7.41421356,3.70710678 C7.80473785,3.31658249 8.43790283,3.31658249 8.82842712,3.70710678 Z" id="形状结合" fill="#000000" fill-rule="nonzero"></path>
    </g>
</svg>