<?xml version="1.0" encoding="UTF-8"?>
<svg width="16px" height="16px" viewBox="0 0 16 16" version="1.1" xmlns="http://www.w3.org/2000/svg" xmlns:xlink="http://www.w3.org/1999/xlink">
    <title>ICON / Device /update-dark</title>
    <g id="ICON-/-Device-/update-dark" stroke="none" stroke-width="1" fill="none" fill-rule="evenodd" fill-opacity="0.7">
        <path d="M8,1 C11.8659932,1 15,4.13400675 15,8 C15,11.8659932 11.8659932,15 8,15 C4.13400675,15 1,11.8659932 1,8 C1,4.13400675 4.13400675,1 8,1 Z M8,2 C4.6862915,2 2,4.6862915 2,8 C2,11.3137085 4.6862915,14 8,14 C11.3137085,14 14,11.3137085 14,8 C14,4.6862915 11.3137085,2 8,2 Z M8.5547002,2.97072534 C8.66455248,3.0439602 8.75881544,3.13822315 8.83205029,3.24807544 L11.4817666,7.2226499 C11.6349428,7.45241425 11.5728559,7.76284892 11.3430916,7.91602515 C11.2609578,7.97078099 11.1644539,8 11.0657415,8 L8.99925855,7.99966936 L9,12 C9,12.5522847 8.55228475,13 8,13 C7.44771525,13 7,12.5522847 7,12 L6.99925855,7.99966936 L4.93425855,8 C4.65811617,8 4.43425855,7.77614237 4.43425855,7.5 C4.43425855,7.40128751 4.46347756,7.30478366 4.5182334,7.2226499 L7.16794971,3.24807544 C7.47430216,2.78854675 8.09517151,2.66437288 8.5547002,2.97072534 Z" id="形状结合" fill="#000000" fill-rule="nonzero"></path>
    </g>
</svg>