<?xml version="1.0" encoding="UTF-8"?>
<svg width="20px" height="20px" viewBox="0 0 20 20" version="1.1" xmlns="http://www.w3.org/2000/svg" xmlns:xlink="http://www.w3.org/1999/xlink">
    <title>network-wireless-6-warning-symbolic-dark</title>
    <g id="network-wireless-6-warning-symbolic-dark" stroke="none" stroke-width="1" fill="none" fill-rule="evenodd">
        <g id="编组" transform="translate(1.069210, 2.850000)" fill="#000000">
            <path d="M14.2606103,9.84934557 L13.1922343,10.9177215 C12.9625075,9.56255114 12.1060458,8.42063897 10.9314542,7.80059001 L10.9316761,6.37490346 C12.49575,6.97661444 13.7245542,8.25392131 14.2606103,9.84934557 Z M6.93051296,6.3540839 L6.93098475,7.77194182 C5.72805322,8.38504803 4.84829111,9.54140145 4.61497899,10.9177215 L3.54660303,9.84934557 C4.08892407,8.23527525 5.34028049,6.94680159 6.93051296,6.3540839 Z M16.5353318,7.57462408 L15.5666792,8.5432766 C14.6752482,6.6346669 12.9878944,5.17236592 10.9315847,4.58334056 L10.9312386,3.23896142 C13.3578547,3.82182872 15.386383,5.4275469 16.5353318,7.57462408 Z M8.90360665,0 C13.03089,0 16.6568921,2.14624077 18.7264231,5.38353274 L17.7821706,6.32778525 C15.9726013,3.31552849 12.6734799,1.3 8.90360665,1.3 C7.61515943,1.3 6.3817007,1.53543374 5.2439037,1.96562799 C5.04118866,1.56763857 4.79067959,1.19710536 4.50072774,0.861607788 L4.56617284,0.834210869 C5.90678107,0.296093625 7.37061567,0 8.90360665,0 Z M6.9304299,3.22612765 L6.93042813,4.56787459 C6.55048524,4.67350559 6.18293053,4.8088905 5.83043188,4.97136146 C5.8455699,4.81568793 5.85240583,4.65636795 5.85240583,4.49545134 C5.85240583,4.18445935 5.82687328,3.87943081 5.77779006,3.5823476 C6.15015132,3.43784199 6.53506117,3.31841568 6.9304299,3.22612765 Z" id="形状结合"></path>
            <path d="M2.30047668,8.66159358 C3.39882458,8.66159358 4.31555589,7.86593999 4.31555589,6.58597552 C4.31555589,5.28006582 3.54584752,4.66602881 2.47344486,4.66602881 C2.05832124,4.66602881 1.5134715,4.92548107 1.15888675,5.36654991 C1.2107772,3.75794591 1.8161658,3.21309617 2.55128053,3.21309617 C2.9231621,3.21309617 3.31234049,3.42065797 3.53719911,3.67146182 L4.21177498,2.91040187 C3.831245,2.51257507 3.26045004,2.18393555 2.48209326,2.18393555 C1.18483198,2.18393555 0,3.21309617 0,5.59140853 C0,7.72756545 1.08969948,8.66159358 2.30047668,8.66159358 Z M2.27453146,7.70162023 C1.74697853,7.70162023 1.31455811,7.30379343 1.19348039,6.24868758 C1.5134715,5.74707989 1.90264989,5.5654633 2.23128942,5.5654633 C2.78478757,5.5654633 3.14802073,5.88545442 3.14802073,6.58597552 C3.14802073,7.32973866 2.75884234,7.70162023 2.27453146,7.70162023 Z" id="形状结合"></path>
            <path d="M8.93079026,11.15 C9.75921739,11.15 10.4307903,11.8215729 10.4307903,12.65 C10.4307903,13.4784271 9.75921739,14.15 8.93079026,14.15 C8.10236314,14.15 7.43079026,13.4784271 7.43079026,12.65 C7.43079026,11.8215729 8.10236314,11.15 8.93079026,11.15 Z M8.93079026,2.15 C9.48307501,2.15 9.93079026,2.59771525 9.93079026,3.15 L9.93079026,9.15 C9.93079026,9.70228475 9.48307501,10.15 8.93079026,10.15 C8.37850551,10.15 7.93079026,9.70228475 7.93079026,9.15 L7.93079026,3.15 C7.93079026,2.59771525 8.37850551,2.15 8.93079026,2.15 Z" id="形状结合"></path>
        </g>
    </g>
</svg>