<svg xmlns="http://www.w3.org/2000/svg" width="20" height="20" viewBox="0 0 20 20">
  <path fill-rule="evenodd" d="M10,14.0235707 C10.8284271,14.0235707 11.5,14.6951435 11.5,15.5235707 C11.5,16.3519978 10.8284271,17.0235707 10,17.0235707 C9.17157288,17.0235707 8.5,16.3519978 8.5,15.5235707 C8.5,14.6951435 9.17157288,14.0235707 10,14.0235707 Z M12.0002383,9.21428134 C13.5777049,9.81154711 14.8179989,11.094705 15.3571516,12.699786 L14.28887,13.7691526 C14.057685,12.4026049 13.1892282,11.2527528 11.9998376,10.6359343 L12.0002383,9.21428134 Z M7.99903947,9.21455485 L7.99944414,10.6363068 C6.81071259,11.253065 5.94269257,12.4023183 5.71129948,13.7681514 L4.64318369,12.6987882 C5.18243276,11.0944182 6.42224343,9.81181498 7.99903947,9.21455485 Z M10,4.9983572 C10.5522847,4.9983572 11,5.44607245 11,5.9983572 L11,11.9953785 C11,12.5476632 10.5522847,12.9953785 10,12.9953785 C9.44771525,12.9953785 9,12.5476632 9,11.9953785 L9,5.9983572 C9,5.44607245 9.44771525,4.9983572 10,4.9983572 Z M11.9996011,6.08227819 C14.4383988,6.65942586 16.4779798,8.26898858 17.6314067,10.4240291 L16.6634803,11.3941497 C15.7681379,9.47650656 14.0693695,8.00927695 12.0001406,7.42542634 L11.9996011,6.08227819 Z M7.99940228,6.0825141 L7.99911017,7.42563777 C5.93058019,8.00952957 4.2323447,9.47622786 3.33698673,11.3931496 L2.36859333,10.4240291 C3.52186312,8.26928214 5.56104553,6.65986439 7.99940228,6.0825141 Z M9.98281644,2.9 C14.1100998,2.9 17.7361019,5.04624077 19.8056329,8.28353274 L18.8613804,9.22778525 C17.0518111,6.21552849 13.7526897,4.2 9.98281644,4.2 C6.21294316,4.2 2.91382177,6.21552849 1.10425251,9.22778525 L0.16,8.28353274 C2.22953104,5.04624077 5.85553305,2.9 9.98281644,2.9 Z"/>
</svg>
