<?xml version="1.0" encoding="UTF-8"?>
<svg width="20px" height="20px" viewBox="0 0 20 20" version="1.1" xmlns="http://www.w3.org/2000/svg" xmlns:xlink="http://www.w3.org/1999/xlink">
    <title>network-wirelss-6-no-route-symbolic-dark</title>
    <g id="network-wirelss-6-no-route-symbolic-dark" stroke="none" stroke-width="1" fill="none" fill-rule="evenodd">
        <path d="M10,3 C13.8876569,3 17.0751959,4.67215512 19.5123376,7.98082249 L19.5123376,7.98082249 L19.8197773,8.39820314 L11.8254837,16.3154104 C10.8142789,17.3168645 9.18583451,17.3192199 8.17173688,16.3206953 L8.17173688,16.3206953 L4.01863283,12.2307334 C4.37817547,12.0347654 4.71368986,11.8002624 5.01962757,11.5327729 L9.0136742,15.4656271 C9.55972677,16.0032942 10.4365814,16.0020259 10.9810763,15.4627814 L10.9810763,15.4627814 L18.2321552,8.28162236 C16.0656325,5.5502462 13.3361028,4.2 10,4.2 C8.68305273,4.2 7.45807451,4.41043978 6.32246743,4.83320205 C6.13697082,4.46634739 5.91086051,4.12221547 5.65072131,3.80722432 C6.98740572,3.26970041 8.43860047,3 10,3 Z" id="形状结合" fill="#000000"></path>
        <path d="M3.36968642,11.5115936 C4.46803431,11.5115936 5.38476562,10.71594 5.38476562,9.43597552 C5.38476562,8.13006582 4.61505726,7.51602881 3.5426546,7.51602881 C3.12753098,7.51602881 2.58268124,7.77548107 2.22809649,8.21654991 C2.27998694,6.60794591 2.88537554,6.06309617 3.62049027,6.06309617 C3.99237184,6.06309617 4.38155023,6.27065797 4.60640885,6.52146182 L5.28098472,5.76040187 C4.90045474,5.36257507 4.32965978,5.03393555 3.551303,5.03393555 C2.25404172,5.03393555 1.06920974,6.06309617 1.06920974,8.44140853 C1.06920974,10.5775655 2.15890922,11.5115936 3.36968642,11.5115936 Z M3.3437412,10.5516202 C2.81618827,10.5516202 2.38376785,10.1537934 2.26269012,9.09868758 C2.58268124,8.59707989 2.97185963,8.4154633 3.30049916,8.4154633 C3.8539973,8.4154633 4.21723047,8.73545442 4.21723047,9.43597552 C4.21723047,10.1797387 3.82805208,10.5516202 3.3437412,10.5516202 Z" id="形状结合" fill="#000000"></path>
    </g>
</svg>