<?xml version="1.0" encoding="UTF-8"?>
<svg width="24px" height="24px" viewBox="0 0 24 24" version="1.1" xmlns="http://www.w3.org/2000/svg" xmlns:xlink="http://www.w3.org/1999/xlink">
    <!-- Generator: Sketch 46.2 (44496) - http://www.bohemiancoding.com/sketch -->
    <title>nav_personalization</title>
    <desc>Created with Sketch.</desc>
    <defs></defs>
    <g id="UI" stroke="none" stroke-width="1" fill="none" fill-rule="evenodd">
        <g id="nav_personalization" fill="#FFFFFF">
            <path d="M21.877,13.8668465 C20.985,18.5798465 16.842,22.0008465 12.025,22.0008465 C11.936,22.0008465 11.833,21.9958465 11.735,21.9928465 C13.072,21.1408465 14.075,19.6208465 14.041,16.9608465 L10.193,14.4348465 C10.193,14.4348465 6.446,14.8058465 7.56,19.4188465 C7.56,19.4188465 7.654,20.0998465 7.402,20.8648465 C4.069,19.1338465 2,15.7578465 2,12.0008465 C2,6.48684652 6.497,2.00084652 12.044,2.00084652 C12.066,2.00384652 13.411,1.96184652 14.192,2.73684652 C14.592,3.13384652 14.777,3.67184652 14.758,4.38084652 C14.732,5.31484652 14.378,5.95384652 14.035,6.57184652 C13.785,7.02084652 13.527,7.48584652 13.433,8.02184652 C13.308,8.72684652 13.392,9.36284652 13.685,9.91384652 C13.72,9.98084652 13.77,10.0328465 13.827,10.0758465 L12.535,11.5428465 L15.832,13.4648465 L16.992,11.5838465 C16.996,11.5848465 16.999,11.5868465 17.003,11.5878465 C17.715,11.6528465 18.588,11.3168465 19.226,11.0698465 C19.432,10.9908465 19.61,10.9208465 19.746,10.8818465 C20.565,10.6448465 21.16,10.6908465 21.509,11.0198465 C22.188,11.6568465 22.007,13.2788465 21.877,13.8668465 M22.195,10.2928465 C23.405,11.4318465 22.916,13.8028465 22.856,14.0688465 C21.879,19.2368465 17.322,23.0008465 12.025,23.0008465 C11.522,23.0008465 10.562,22.9418465 9.862,22.7588465 C7.614,23.2938465 5.298,22.7738465 5.298,22.7738465 C6.079,22.5608465 6.591,22.1768465 6.932,21.7458465 C3.272,19.8408465 1,16.1288465 1,12.0008465 C1,5.93484652 5.945,1.00084652 12.025,1.00084652 C12.078,0.999846524 13.797,0.940846524 14.891,2.02184652 C15.492,2.61484652 15.784,3.41784652 15.758,4.40784652 C15.726,5.58684652 15.273,6.40184652 14.909,7.05684652 C14.681,7.46984652 14.483,7.82484652 14.417,8.19684652 C14.344,8.61184652 14.391,8.97084652 14.52,9.28884652 L20.353,2.66584652 C20.353,2.66584652 21.256,1.52184652 21.893,1.93184652 C22.404,2.22484652 22.404,2.65284652 21.838,3.72684652 L17.635,10.5418465 C18.043,10.4568465 18.496,10.2808465 18.865,10.1378465 C19.104,10.0458465 19.313,9.96584652 19.47,9.92084652 C20.654,9.57984652 21.571,9.70484652 22.195,10.2928465 Z M10.7761,13.5637465 L14.5191,15.9947465 L15.2991,14.5177465 L11.8521,12.3607465 L10.7761,13.5637465 Z M9.297,4.68614652 C8.333,4.68614652 7.547,5.47114652 7.547,6.43614652 C7.547,7.40114652 8.333,8.18614652 9.297,8.18614652 C10.262,8.18614652 11.047,7.40114652 11.047,6.43614652 C11.047,5.47114652 10.262,4.68614652 9.297,4.68614652 Z M5.9025,8.91854652 C4.9385,8.91854652 4.1525,9.70354652 4.1525,10.6685465 C4.1525,11.6335465 4.9385,12.4185465 5.9025,12.4185465 C6.8675,12.4185465 7.6525,11.6335465 7.6525,10.6685465 C7.6525,9.70354652 6.8675,8.91854652 5.9025,8.91854652 Z" id="Combined-Shape"></path>
        </g>
    </g>
</svg>