<svg xmlns="http://www.w3.org/2000/svg" xmlns:xlink="http://www.w3.org/1999/xlink" width="156" height="156" viewBox="0 0 156 156">
  <defs>
    <linearGradient id="1-a" x1="25.52%" x2="2.165%" y1="17.78%" y2="91.903%">
      <stop offset="0%" stop-color="#202E6D"/>
      <stop offset="100%" stop-color="#0B1346"/>
    </linearGradient>
    <linearGradient id="1-b" x1="67.998%" x2="37.231%" y1="63.874%" y2="12.804%">
      <stop offset="0%" stop-color="#242773"/>
      <stop offset="100%" stop-color="#4679CA"/>
    </linearGradient>
    <linearGradient id="1-c" x1="36.534%" x2="62.235%" y1="79.596%" y2="52.995%">
      <stop offset="0%" stop-color="#A75EA6" stop-opacity=".528"/>
      <stop offset="100%" stop-color="#BA5B8D"/>
    </linearGradient>
    <rect id="1-e" width="116" height="86" x="0" y="0" rx="19.2"/>
    <filter id="1-d" width="127.6%" height="137.2%" x="-13.8%" y="-16.3%" filterUnits="objectBoundingBox">
      <feOffset dy="2" in="SourceAlpha" result="shadowOffsetOuter1"/>
      <feGaussianBlur in="shadowOffsetOuter1" result="shadowBlurOuter1" stdDeviation="5"/>
      <feColorMatrix in="shadowBlurOuter1" values="0 0 0 0 0   0 0 0 0 0   0 0 0 0 0  0 0 0 0.5 0"/>
    </filter>
    <linearGradient id="1-h" x1="50%" x2="50%" y1="0%" y2="100%">
      <stop offset="0%" stop-color="#232323" stop-opacity=".5"/>
      <stop offset="100%" stop-color="#1C1C1C" stop-opacity=".5"/>
    </linearGradient>
    <path id="1-g" d="M19.2,4.26325641e-14 L96.8,4.26325641e-14 C107.403867,4.06846653e-14 116,8.5961328 116,19.2 L116,40 L116,40 L0,40 L0,19.2 C-1.2985992e-15,8.5961328 8.5961328,4.45804629e-14 19.2,4.26325641e-14 Z"/>
    <filter id="1-f" width="142.2%" height="222.5%" x="-21.1%" y="-43.8%" filterUnits="objectBoundingBox">
      <feOffset dy="7" in="SourceAlpha" result="shadowOffsetOuter1"/>
      <feGaussianBlur in="shadowOffsetOuter1" result="shadowBlurOuter1" stdDeviation="7"/>
      <feComposite in="shadowBlurOuter1" in2="SourceAlpha" operator="out" result="shadowBlurOuter1"/>
      <feColorMatrix in="shadowBlurOuter1" values="0 0 0 0 0   0 0 0 0 0   0 0 0 0 0  0 0 0 0.1 0"/>
    </filter>
    <filter id="1-i" width="125.9%" height="175%" x="-12.9%" y="-20%" filterUnits="objectBoundingBox">
      <feOffset dy="-2" in="SourceAlpha" result="shadowOffsetInner1"/>
      <feComposite in="shadowOffsetInner1" in2="SourceAlpha" k2="-1" k3="1" operator="arithmetic" result="shadowInnerInner1"/>
      <feColorMatrix in="shadowInnerInner1" values="0 0 0 0 0   0 0 0 0 0   0 0 0 0 0  0 0 0 0.2 0"/>
    </filter>
    <path id="1-j" d="M18,0 L58,0 L58,0 L58,86 L18,86 C8.0588745,86 1.21743675e-15,77.9411255 0,68 L0,18 C-1.21743675e-15,8.0588745 8.0588745,5.37886881e-15 18,0 Z"/>
    <path id="1-m" d="M-3,0 L69,0 C78.9411255,-1.82615513e-15 87,8.0588745 87,18 L87,40 L87,40 L-21,40 L-21,18 C-21,8.0588745 -12.9411255,1.82615513e-15 -3,0 Z"/>
    <filter id="1-l" width="175.9%" height="305%" x="-38%" y="-77.5%" filterUnits="objectBoundingBox">
      <feOffset dy="10" in="SourceAlpha" result="shadowOffsetOuter1"/>
      <feGaussianBlur in="shadowOffsetOuter1" result="shadowBlurOuter1" stdDeviation="12"/>
      <feComposite in="shadowBlurOuter1" in2="SourceAlpha" operator="out" result="shadowBlurOuter1"/>
      <feColorMatrix in="shadowBlurOuter1" values="0 0 0 0 0   0 0 0 0 0   0 0 0 0 0  0 0 0 0.03 0"/>
    </filter>
    <filter id="1-n" width="146.3%" height="225%" x="-23.1%" y="-37.5%" filterUnits="objectBoundingBox">
      <feOffset dy="-2" in="SourceAlpha" result="shadowOffsetInner1"/>
      <feComposite in="shadowOffsetInner1" in2="SourceAlpha" k2="-1" k3="1" operator="arithmetic" result="shadowInnerInner1"/>
      <feColorMatrix in="shadowInnerInner1" values="0 0 0 0 0.833408522   0 0 0 0 0.833408522   0 0 0 0 0.833408522  0 0 0 0.6 0"/>
    </filter>
  </defs>
  <g fill="none" fill-rule="evenodd">
    <rect width="156" height="156" fill="url(#1-a)" rx="12"/>
    <path fill="url(#1-b)" d="M69,0 L144,0 C150.627417,-1.21743675e-15 156,5.372583 156,12 L156,144 C156,150.627417 150.627417,156 144,156 L125.053333,156 L125.053333,156 L69,0 Z"/>
    <path fill="url(#1-c)" d="M14.1717791,0 C27.6133376,30.3333333 34.3341168,57.7121212 34.3341168,82.1363636 C34.3341168,106.560606 38.8146363,131.181818 47.7756752,156 L120.957493,156 C107.018099,104.787879 96.0657185,68.5454545 88.1003506,47.2727273 C80.1349826,26 72.6674501,10.2424242 65.6977532,0 L14.1717791,0 Z"/>
    <path fill="#DF9CCD" d="M70.1652856,0 C82.1133376,24.030303 91.8211298,47.0757576 99.2886623,69.1363636 C106.756195,91.1969697 115.717234,120.151515 126.171779,156 L114.97048,156 C104.515935,119.757576 95.3059783,90.8030303 87.3406103,69.1363636 C79.3752423,47.469697 69.6674501,24.4242424 58.2172337,0 L70.1652856,0 Z"/>
    <g transform="translate(20 20)">
      <use fill="#000" filter="url(#1-d)" xlink:href="#1-e"/>
      <use fill="#343434" xlink:href="#1-e"/>
      <use fill="#000" filter="url(#1-f)" xlink:href="#1-g"/>
      <use fill="url(#1-h)" xlink:href="#1-g"/>
      <use fill="#000" filter="url(#1-i)" xlink:href="#1-g"/>
      <g transform="translate(80 4)">
        <rect width="32" height="32"/>
        <circle cx="16" cy="16" r="9.375" stroke="#C5CFE0" stroke-width="1.25"/>
        <path fill="#C5CFE0" d="M1,2 C1.55228475,2 2,2.44771525 2,3 C2,3.55228475 1.55228475,4 1,4 C0.44771525,4 0,3.55228475 0,3 C0,2.44771525 0.44771525,2 1,2 Z M5,2 C5.55228475,2 6,2.44771525 6,3 C6,3.55228475 5.55228475,4 5,4 C4.44771525,4 4,3.55228475 4,3 C4,2.44771525 4.44771525,2 5,2 Z M9,2 C9.55228475,2 10,2.44771525 10,3 C10,3.55228475 9.55228475,4 9,4 C8.44771525,4 8,3.55228475 8,3 C8,2.44771525 8.44771525,2 9,2 Z" transform="translate(11 13)"/>
      </g>
      <mask id="1-k" fill="#fff">
        <use xlink:href="#1-j"/>
      </mask>
      <use fill="#F4F4F4" xlink:href="#1-j"/>
      <g mask="url(#1-k)">
        <use fill="#000" filter="url(#1-l)" xlink:href="#1-m"/>
        <use fill="#FFF" fill-opacity=".8" xlink:href="#1-m"/>
        <use fill="#000" filter="url(#1-n)" xlink:href="#1-m"/>
      </g>
    </g>
    <g transform="translate(28 118)">
      <path fill="#FFF" fill-opacity=".6" d="M6,0 L50,0 L50,0 L50,20 L6,20 C2.6862915,20 4.05812251e-16,17.3137085 0,14 L0,6 C-4.05812251e-16,2.6862915 2.6862915,6.08718376e-16 6,0 Z"/>
      <path fill="#000" fill-opacity=".6" d="M50,0 L94,0 C97.3137085,-6.08718376e-16 100,2.6862915 100,6 L100,14 C100,17.3137085 97.3137085,20 94,20 L50,20 L50,20 L50,0 Z"/>
      <circle cx="10" cy="10" r="6" fill="#2876E8"/>
      <rect width="12" height="12" x="84" y="4" fill="#FFF" fill-opacity=".352" rx="3"/>
      <rect width="12" height="12" x="36" y="4" fill="#11B46F" rx="3"/>
      <rect width="12" height="12" x="68" y="4" fill="#FFF" fill-opacity=".352" rx="3"/>
      <rect width="12" height="12" x="52" y="4" fill="#FFF" fill-opacity=".352" rx="3"/>
      <rect width="12" height="12" x="20" y="4" fill="#E0704A" rx="3"/>
    </g>
  </g>
</svg>
