<svg xmlns="http://www.w3.org/2000/svg" xmlns:xlink="http://www.w3.org/1999/xlink" width="240" height="132" viewBox="0 0 240 132">
  <defs>
    <linearGradient id="主题-浅色-a" x1="25.52%" x2="2.165%" y1="40.253%" y2="62.676%">
      <stop offset="0%" stop-color="#202E6D"/>
      <stop offset="100%" stop-color="#0B1346"/>
    </linearGradient>
    <linearGradient id="主题-浅色-b" x1="107.866%" x2="8.945%" y1="60.744%" y2="21.196%">
      <stop offset="0%" stop-color="#242773"/>
      <stop offset="100%" stop-color="#4679CA"/>
    </linearGradient>
    <linearGradient id="主题-浅色-c" x1="21.263%" x2="76.11%" y1="75.218%" y2="52.552%">
      <stop offset="0%" stop-color="#A75E89"/>
      <stop offset="100%" stop-color="#BA5B8D"/>
    </linearGradient>
    <rect id="主题-浅色-e" width="182" height="82" x="0" y="0" rx="18"/>
    <filter id="主题-浅色-d" width="117.6%" height="139%" x="-8.8%" y="-17.1%" filterUnits="objectBoundingBox">
      <feOffset dy="2" in="SourceAlpha" result="shadowOffsetOuter1"/>
      <feGaussianBlur in="shadowOffsetOuter1" result="shadowBlurOuter1" stdDeviation="5"/>
      <feColorMatrix in="shadowBlurOuter1" values="0 0 0 0 0   0 0 0 0 0   0 0 0 0 0  0 0 0 0.5 0"/>
    </filter>
    <path id="主题-浅色-g" d="M18,0 L164,0 C173.941125,-1.82615513e-15 182,8.0588745 182,18 L182,41 L182,41 L0,41 L0,18 C-1.21743675e-15,8.0588745 8.0588745,-1.72655855e-15 18,0 Z"/>
    <filter id="主题-浅色-f" width="145.1%" height="300%" x="-22.5%" y="-75.6%" filterUnits="objectBoundingBox">
      <feOffset dy="10" in="SourceAlpha" result="shadowOffsetOuter1"/>
      <feGaussianBlur in="shadowOffsetOuter1" result="shadowBlurOuter1" stdDeviation="12"/>
      <feComposite in="shadowBlurOuter1" in2="SourceAlpha" operator="out" result="shadowBlurOuter1"/>
      <feColorMatrix in="shadowBlurOuter1" values="0 0 0 0 0   0 0 0 0 0   0 0 0 0 0  0 0 0 0.03 0"/>
    </filter>
    <filter id="主题-浅色-h" width="127.5%" height="222%" x="-13.7%" y="-36.6%" filterUnits="objectBoundingBox">
      <feOffset dy="-2" in="SourceAlpha" result="shadowOffsetInner1"/>
      <feComposite in="shadowOffsetInner1" in2="SourceAlpha" k2="-1" k3="1" operator="arithmetic" result="shadowInnerInner1"/>
      <feColorMatrix in="shadowInnerInner1" values="0 0 0 0 0.833408522   0 0 0 0 0.833408522   0 0 0 0 0.833408522  0 0 0 0.6 0"/>
    </filter>
  </defs>
  <g fill="none" fill-rule="evenodd">
    <rect width="240" height="132" fill="url(#主题-浅色-a)" rx="12"/>
    <path fill="url(#主题-浅色-b)" d="M90,0 L228,0 C234.627417,-1.21743675e-15 240,5.372583 240,12 L240,120 C240,126.627417 234.627417,132 228,132 L143,132 L143,132 L90,0 Z"/>
    <path fill="url(#主题-浅色-c)" d="M35,0 C53,25.6666667 62,48.8333333 62,69.5 C62,90.1666667 68,111 80,132 L178,132 C159.333333,88.6666667 144.666667,58 134,40 C123.333333,22 113.333333,8.66666667 104,0 L35,0 Z"/>
    <path fill="#DF9CCD" d="M114,0 C130,20.3333333 143,39.8333333 153,58.5 C163,77.1666667 175,101.666667 189,132 L174,132 C160,101.333333 147.666667,76.8333333 137,58.5 C126.333333,40.1666667 113.333333,20.6666667 98,0 L114,0 Z"/>
    <g transform="translate(46 104)">
      <rect width="148" height="20" fill="#FFF" fill-opacity=".6" rx="6"/>
      <circle cx="10" cy="10" r="6" fill="#2876E8"/>
      <rect width="12" height="12" x="20" y="4" fill="#11B46F" rx="3"/>
      <rect width="12" height="12" x="68" y="4" fill="#11B46F" rx="3"/>
      <rect width="12" height="12" x="116" y="4" fill="#000" fill-opacity=".352" rx="3"/>
      <rect width="12" height="12" x="52" y="4" fill="#11B46F" rx="3"/>
      <rect width="12" height="12" x="100" y="4" fill="#000" fill-opacity=".352" rx="3"/>
      <rect width="12" height="12" x="36" y="4" fill="#E0704A" rx="3"/>
      <rect width="12" height="12" x="84" y="4" fill="#E0704A" rx="3"/>
      <rect width="12" height="12" x="132" y="4" fill="#000" fill-opacity=".352" rx="3"/>
    </g>
    <g transform="translate(29 12)">
      <use fill="#000" filter="url(#主题-浅色-d)" xlink:href="#主题-浅色-e"/>
      <use fill="#F4F4F4" xlink:href="#主题-浅色-e"/>
      <use fill="#000" filter="url(#主题-浅色-f)" xlink:href="#主题-浅色-g"/>
      <use fill="#FFF" fill-opacity=".8" xlink:href="#主题-浅色-g"/>
      <use fill="#000" filter="url(#主题-浅色-h)" xlink:href="#主题-浅色-g"/>
      <g transform="translate(142 4)">
        <rect width="32" height="32"/>
        <circle cx="16" cy="16" r="9.375" stroke="#626E88" stroke-width="1.25"/>
        <path fill="#626E88" stroke="#626E88" stroke-width=".2" d="M1,2 C1.55228475,2 2,2.44771525 2,3 C2,3.55228475 1.55228475,4 1,4 C0.44771525,4 0,3.55228475 0,3 C0,2.44771525 0.44771525,2 1,2 Z M5,2 C5.55228475,2 6,2.44771525 6,3 C6,3.55228475 5.55228475,4 5,4 C4.44771525,4 4,3.55228475 4,3 C4,2.44771525 4.44771525,2 5,2 Z M9,2 C9.55228475,2 10,2.44771525 10,3 C10,3.55228475 9.55228475,4 9,4 C8.44771525,4 8,3.55228475 8,3 C8,2.44771525 8.44771525,2 9,2 Z" transform="translate(11 13)"/>
      </g>
    </g>
  </g>
</svg>
