<?xml version="1.0" encoding="UTF-8"?>
<svg width="24px" height="24px" viewBox="0 0 24 24" version="1.1" xmlns="http://www.w3.org/2000/svg" xmlns:xlink="http://www.w3.org/1999/xlink">
    <!-- Generator: Sketch 46.2 (44496) - http://www.bohemiancoding.com/sketch -->
    <title>nav_display</title>
    <desc>Created with Sketch.</desc>
    <defs></defs>
    <g id="UI" stroke="none" stroke-width="1" fill="none" fill-rule="evenodd">
        <g id="nav_display" fill="#FFFFFF">
            <path d="M2.5,4 L21.5,4 C21.775,4 22,4.225 22,4.5 L22,15 L2,15 L2,4.5 C2,4.225 2.225,4 2.5,4 M21.5,3 L2.5,3 C1.673,3 1,3.673 1,4.5 L1,17.46 L1,17.5 C1,17.855 1.129,18.177 1.336,18.434 C1.577,18.763 1.928,19 2.34,19 L2.34,19 L2.5,19 L8,19 L8,21 L5.5,21 C5.224,21 5,21.224 5,21.5 C5,21.776 5.224,22 5.5,22 L18.5,22 C18.776,22 19,21.776 19,21.5 C19,21.224 18.776,21 18.5,21 L16,21 L16,19 L21.5,19 L21.66,19 L21.66,19 C22.071,19 22.422,18.763 22.663,18.435 C22.871,18.178 23,17.855 23,17.5 L23,17.46 L23,4.5 C23,3.673 22.327,3 21.5,3" id="Fill-187"></path>
        </g>
    </g>
</svg>