<?xml version="1.0" encoding="UTF-8"?>
<svg width="16px" height="16px" viewBox="0 0 16 16" version="1.1" xmlns="http://www.w3.org/2000/svg" xmlns:xlink="http://www.w3.org/1999/xlink">
    <title>icon/操作/多选/已选</title>
    <g id="icon/操作/多选/已选" stroke="none" stroke-width="1" fill="none" fill-rule="evenodd">
        <g id="icon/操作框/勾选" transform="translate(1.000000, 1.000000)" fill="#0080FF">
            <path d="M12,0 C13.1045695,5.56104062e-16 14,0.8954305 14,2 L14,12 C14,13.1045695 13.1045695,14 12,14 L2,14 C0.8954305,14 8.94280938e-16,13.1045695 0,12 L0,2 C-3.57315355e-16,0.8954305 0.8954305,-1.91384796e-17 2,0 L12,0 Z M10.5269462,4.58859116 C10.332078,4.45359511 10.0626536,4.47288026 9.8890873,4.64644661 L9.8890873,4.64644661 L5.99906638,8.53553391 L4.23223305,6.76776695 L4.16298516,6.7099115 C3.96811702,6.57491545 3.69869262,6.5942006 3.52512627,6.76776695 C3.32986412,6.9630291 3.32986412,7.27961159 3.52512627,7.47487373 L3.52512627,7.47487373 L5.64644661,9.59619408 L5.7156945,9.65404953 C5.91056264,9.78904558 6.17998704,9.76976043 6.35355339,9.59619408 L6.35355339,9.59619408 L10.5961941,5.35355339 L10.6540495,5.2843055 C10.7890456,5.08943736 10.7697604,4.82001296 10.5961941,4.64644661 L10.5961941,4.64644661 Z" id="形状结合"></path>
        </g>
    </g>
</svg>