<?xml version="1.0" encoding="UTF-8"?>
<svg width="16px" height="16px" viewBox="0 0 16 16" version="1.1" xmlns="http://www.w3.org/2000/svg" xmlns:xlink="http://www.w3.org/1999/xlink">
    <title>icon/操作/多选/灰态</title>
    <g id="icon/操作/多选/灰态" stroke="none" stroke-width="1" fill="none" fill-rule="evenodd">
        <rect id="矩形" fill-opacity="0.08" fill="#000000" x="1" y="1" width="14" height="14" rx="2"></rect>
        <path d="M13,1 C14.1045695,1 15,1.8954305 15,3 L15,13 C15,14.1045695 14.1045695,15 13,15 L3,15 C1.8954305,15 1,14.1045695 1,13 L1,3 C1,1.8954305 1.8954305,1 3,1 L13,1 Z M13,2 L3,2 C2.48716416,2 2.06449284,2.38604019 2.00672773,2.88337887 L2,3 L2,13 C2,13.5128358 2.38604019,13.9355072 2.88337887,13.9932723 L3,14 L13,14 C13.5128358,14 13.9355072,13.6139598 13.9932723,13.1166211 L14,13 L14,3 C14,2.48716416 13.6139598,2.06449284 13.1166211,2.00672773 L13,2 Z" id="矩形" fill-opacity="0.15" fill="#000000" fill-rule="nonzero"></path>
    </g>
</svg>