<?xml version="1.0" encoding="UTF-8"?>
<svg width="48px" height="48px" viewBox="0 0 48 48" version="1.1" xmlns="http://www.w3.org/2000/svg" xmlns:xlink="http://www.w3.org/1999/xlink">
    <title>加载icon</title>
    <g id="控件" stroke="none" stroke-width="1" fill="none" fill-rule="evenodd">
        <g id="帐户/扫码注册/微信二维码/加载" transform="translate(-64.000000, -64.000000)">
            <g id="加载icon" transform="translate(64.000000, 64.000000)">
                <g id="编组" transform="translate(8.000000, 8.000000)">
                    <rect id="矩形" fill="#C7C7C7" x="15.3333333" y="0" width="2" height="8" rx="1"></rect>
                    <rect id="矩形备份-5" fill="#DCDCDC" transform="translate(24.333333, 7.333333) rotate(50.000000) translate(-24.333333, -7.333333) " x="23.3333333" y="3.33333333" width="2" height="8" rx="1"></rect>
                    <rect id="矩形备份-7" fill="#EBEBEB" transform="translate(25.000000, 24.000000) scale(1, -1) rotate(50.000000) translate(-25.000000, -24.000000) " x="24" y="20" width="2" height="8" rx="1"></rect>
                    <rect id="矩形备份-6" fill="#C4C4C4" transform="translate(8.333333, 7.333333) scale(-1, 1) rotate(50.000000) translate(-8.333333, -7.333333) " x="7.33333333" y="3.33333333" width="2" height="8" rx="1"></rect>
                    <rect id="矩形备份-8" fill="#CDCDCD" transform="translate(7.861929, 23.804738) scale(-1, -1) rotate(50.000000) translate(-7.861929, -23.804738) " x="6.86192881" y="19.8047379" width="2" height="8" rx="1"></rect>
                    <rect id="矩形备份-3" fill="#F1F1F1" transform="translate(28.333333, 15.333333) rotate(90.000000) translate(-28.333333, -15.333333) " x="27.3333333" y="11.3333333" width="2" height="8" rx="1"></rect>
                    <rect id="矩形备份-4" fill="#C9C9C9" transform="translate(4.333333, 15.333333) rotate(90.000000) translate(-4.333333, -15.333333) " x="3.33333333" y="11.3333333" width="2" height="8" rx="1"></rect>
                    <rect id="矩形备份-2" fill="#E2E2E2" x="15.3333333" y="24" width="2" height="8" rx="1"></rect>
                </g>
            </g>
        </g>
    </g>
</svg>