<?xml version="1.0" encoding="utf-8"?>
<!-- Generator: Adobe Illustrator 23.1.1, SVG Export Plug-In . SVG Version: 6.00 Build 0)  -->
<svg version="1.1" id="图层_1" xmlns="http://www.w3.org/2000/svg" xmlns:xlink="http://www.w3.org/1999/xlink" x="0px" y="0px"
	 viewBox="0 0 24 24" style="enable-background:new 0 0 24 24;" xml:space="preserve">
<style type="text/css">
	.st0{fill-rule:evenodd;clip-rule:evenodd;}
</style>
<g id="蒙版">
</g>
<path class="st0" d="M10.1,5.5H9.7c-0.3,0-0.6,0.1-0.8,0.4L6,9.4l-2,0c-0.6,0-1,0.4-1,1v3.5c0,0.6,0.4,1,1,1l2,0l2.9,3.3
	c0.2,0.2,0.5,0.3,0.7,0.3h0.4c0.5,0,0.9-0.4,0.9-0.9V6.4C11,5.9,10.6,5.5,10.1,5.5z M13.2,9.9c0.5,0.5,0.8,1.3,0.8,2.1
	c0,0.7-0.3,1.4-0.7,1.9l0.8,0.6c0.6-0.7,1-1.6,1-2.6c0-1.1-0.4-2.1-1.1-2.8L13.2,9.9z M16,7.1l-0.7,0.7C16.3,8.9,17,10.4,17,12
	c0,1.5-0.5,2.8-1.4,3.9l0.8,0.6c1-1.2,1.6-2.8,1.6-4.5C18,10.1,17.2,8.4,16,7.1z M18.1,5l-0.7,0.7C19,7.3,20,9.5,20,12
	c0,2.2-0.8,4.2-2.1,5.8l0.8,0.6c1.4-1.7,2.3-4,2.3-6.4C21,9.3,19.9,6.8,18.1,5z"/>
</svg>
