<?xml version="1.0" encoding="utf-8"?>
<!-- Generator: Adobe Illustrator 23.1.1, SVG Export Plug-In . SVG Version: 6.00 Build 0)  -->
<svg version="1.1" id="图层_1" xmlns="http://www.w3.org/2000/svg" xmlns:xlink="http://www.w3.org/1999/xlink" x="0px" y="0px"
	 viewBox="0 0 24 24" style="enable-background:new 0 0 24 24;" xml:space="preserve">
<style type="text/css">
	.st0{fill-rule:evenodd;clip-rule:evenodd;fill-opacity:0.85;}
</style>
<title>电源</title>
<g id="电源">
	<path class="st0" d="M12,4c-4.4,0-8,3.6-8,8s3.6,8,8,8s8-3.6,8-8S16.4,4,12,4z M11.5,7c0-0.3,0.2-0.5,0.5-0.5s0.5,0.2,0.5,0.5v4
		c0,0.3-0.2,0.5-0.5,0.5s-0.5-0.2-0.5-0.5V7z M12,17.9c-3.3,0-5.9-2.5-5.9-5.7c0-1.6,0.7-3.1,2-4.2c0.2-0.2,0.5-0.2,0.7,0.1
		c0.2,0.2,0.2,0.5-0.1,0.7c-1,0.9-1.6,2.1-1.6,3.5c0,2.6,2.2,4.7,4.9,4.7c2.7,0,4.9-2.1,4.9-4.7c0-1.3-0.5-2.5-1.5-3.4
		c-0.2-0.2-0.2-0.5,0-0.7c0.2-0.2,0.5-0.2,0.7,0c1.2,1.1,1.8,2.5,1.8,4.1C17.9,15.4,15.3,17.9,12,17.9z"/>
</g>
</svg>
