<?xml version="1.0" encoding="UTF-8"?>
<svg width="24px" height="24px" viewBox="0 0 24 24" version="1.1" xmlns="http://www.w3.org/2000/svg" xmlns:xlink="http://www.w3.org/1999/xlink">
    <title>壁纸</title>
    <g id="壁纸" stroke="none" stroke-width="1" fill="none" fill-rule="evenodd" fill-opacity="0.85">
        <g transform="translate(4.000000, 5.000000)" fill="#000000" fill-rule="nonzero" id="编组">
            <g>
                <path d="M4.92886652,7.62162892 L8.18915937,8.93621529 C8.37912917,9.01281323 8.59660442,8.96579756 8.73796927,8.81756885 L14.2385423,3.04991972 C14.4291229,2.85008565 14.7456165,2.84258422 14.9454506,3.03316479 C15.044389,3.12752183 15.1003739,3.25827743 15.1003739,3.39499638 L15.1003739,11.7693419 C15.1003739,12.0438432 14.8790714,12.2670152 14.6045799,12.2693242 L2.47090128,12.3713955 C2.19476868,12.3737184 1.9690359,12.1517518 1.96671301,11.8756192 C1.9659377,11.7834549 1.99065219,11.6928697 2.03812655,11.6138694 L4.31331944,7.82780821 C4.43992935,7.61712152 4.70089778,7.52970939 4.92886652,7.62162892 Z M4.58412765,2.28732424 C5.36615936,2.28732424 6.03728474,2.97361631 6.03728474,3.77365844 C6.03728474,4.57370056 5.47801358,5.25999263 4.58412765,5.25999263 C3.80114803,5.25999263 3.13002264,4.57370056 3.13002264,3.77365844 C3.13002264,2.97361631 3.80114803,2.28732424 4.58412765,2.28732424 Z M15.4349887,0 L1.45315709,0 C0.559271164,0 0,0.571594075 0,1.37258413 L0,13.0651956 C0,13.7514877 0.559271164,14.4377798 1.45315709,14.4377798 L15.5468429,14.4377798 C16.3288746,14.4377798 17,13.7514877 17,13.0651956 L17,1.37258413 C16.8871979,0.686292065 16.3279267,0 15.4349887,0 Z" id="形状"></path>
            </g>
        </g>
    </g>
</svg>