<?xml version="1.0" encoding="UTF-8"?>
<svg width="24px" height="24px" viewBox="0 0 24 24" version="1.1" xmlns="http://www.w3.org/2000/svg" xmlns:xlink="http://www.w3.org/1999/xlink">
    <title>鼠标</title>
    <g id="鼠标" stroke="none" stroke-width="1" fill="none" fill-rule="evenodd" fill-opacity="0.85">
        <g transform="translate(5.000000, 3.000000)" fill="#000000" fill-rule="nonzero" id="编组">
            <g>
                <path d="M12.2520892,7.66237104 L9.30429533,4.70251805 C7.3513905,2.74221598 4.23871272,2.55852957 2.06880137,4.27553459 L1.84235721,4.04819715 C1.36400046,3.57121715 1.25674454,2.83624142 1.5788423,2.2424501 L2.20636508,1.07047874 C2.34552112,0.850391012 2.35052719,0.571123925 2.21934848,0.346190245 C2.08816978,0.121256565 1.84264185,-0.011902009 1.58256363,0.000839044845 C1.32248542,0.0135800987 1.09114864,0.170099948 0.982584,0.406778491 L0.352828046,1.57874986 C-0.263700994,2.71737199 -0.0579946871,4.12587866 0.858419362,5.04062107 L1.09647604,5.27957102 C-0.53642027,7.46254299 -0.324773282,10.5120456 1.5940279,12.4485163 L4.54182174,15.4083693 C6.6808201,17.5375009 10.140823,17.5295022 12.2699546,15.3905039 C14.3990861,13.2515055 14.3910875,9.79150259 12.2520892,7.66237104 Z M5.54898463,8.67444693 C5.41829053,8.8058841 5.24058471,8.87978753 5.05522917,8.87978753 C4.86987362,8.87978753 4.6921678,8.8058841 4.5614737,8.67444693 L3.53421221,7.64093255 C3.26065854,7.36685107 3.26065854,6.92303674 3.53421221,6.64895526 C3.664729,6.51718588 3.84250123,6.4430524 4.02796768,6.4430524 C4.21343412,6.4430524 4.39120635,6.51718588 4.52172314,6.64895526 L5.54898463,7.68246964 C5.82058831,7.95735486 5.82058831,8.39956171 5.54898463,8.67444693 Z" id="形状"></path>
            </g>
        </g>
    </g>
</svg>