<?xml version="1.0" encoding="UTF-8"?>
<svg width="24px" height="24px" viewBox="0 0 24 24" version="1.1" xmlns="http://www.w3.org/2000/svg" xmlns:xlink="http://www.w3.org/1999/xlink">
    <title>启动器</title>
    <g id="启动器" stroke="none" stroke-width="1" fill="none" fill-rule="evenodd" fill-opacity="0.85">
        <g transform="translate(4.000000, 3.000000)" fill="#000000" fill-rule="nonzero" id="编组">
            <g>
                <path d="M14.8466258,5.6196319 L9.39877301,8.57668712 C8.89570552,8.84662577 8.58895706,9.38650307 8.58895706,9.98773006 L8.58895706,15.7055215 C8.58895706,16.3190184 9.19018405,16.7239264 9.69325153,16.4417178 L15.1411043,13.4846626 C15.6319018,13.2147239 15.9509202,12.6748466 15.9509202,12.0736196 L15.9509202,6.36809816 C15.9509202,5.74233129 15.3496933,5.34969325 14.8466258,5.6196319 Z M6.55214724,8.56441718 L1.10429448,5.6196319 C0.601226994,5.34969325 0,5.74233129 0,6.35582822 L0,12.0981595 C0,12.6993865 0.306748466,13.2392638 0.809815951,13.5092025 L6.25766871,16.4539877 C6.7607362,16.7239264 7.36196319,16.3190184 7.36196319,15.7055215 L7.36196319,9.97546012 C7.36196319,9.37423313 7.05521472,8.83435583 6.55214724,8.56441718 Z M14.3435583,4.28220859 C14.601227,4.14723926 14.7239264,3.91411043 14.6993865,3.69325153 C14.7239264,3.4601227 14.601227,3.2392638 14.3435583,3.10429448 L8.79754601,0.208588957 C8.55214724,0.0736196319 8.25766871,0.0122699387 7.96319018,0.0122699387 C7.66871166,0.0122699387 7.37423313,0.0736196319 7.12883436,0.208588957 L1.58282209,3.09202454 C1.32515337,3.22699387 1.21472393,3.4601227 1.22699387,3.6809816 C1.21472393,3.91411043 1.32515337,4.14723926 1.58282209,4.28220859 L7.12883436,7.16564417 C7.37423313,7.3006135 7.66871166,7.36196319 7.96319018,7.36196319 C8.25766871,7.36196319 8.55214724,7.3006135 8.79754601,7.16564417 L14.3435583,4.28220859 Z" id="形状"></path>
            </g>
        </g>
    </g>
</svg>