<?xml version="1.0" encoding="UTF-8"?>
<svg width="24px" height="24px" viewBox="0 0 24 24" version="1.1" xmlns="http://www.w3.org/2000/svg" xmlns:xlink="http://www.w3.org/1999/xlink">
    <title>主图</title>
    <g id="主图" stroke="none" stroke-width="1" fill="none" fill-rule="evenodd" fill-opacity="0.85">
        <g transform="translate(4.000000, 4.000000)" fill="#000000" fill-rule="nonzero" id="形状">
            <path d="M0,8.54207114 L4.47614017,5.06028244 L11.4407566,12.0269769 L7.96000692,16.5031171 C7.96000692,16.5031171 8.00572423,15.4079797 6.46692117,15.0100313 C5.02266982,14.6370197 4.77122462,12.6327313 3.51295959,12.2171194 C2.25469456,11.8015075 2.03130316,10.9266444 1.4494465,9.98840055 C0.867589842,9.05015668 0,8.54207114 0,8.54207114 Z M13.4294595,8.04749297 L12.2387314,6.85676488 C14.1515852,5.19120019 15.64571,3.84150054 15.9137797,3.57135281 C16.7077452,2.74201598 16.6934552,1.4302325 15.8816113,0.618388672 C15.0697675,-0.193455153 13.757984,-0.207745166 12.9286472,0.586220332 C12.6605775,0.856368068 11.3087998,2.34945382 9.64531318,4.26438565 L8.45458508,3.07365756 C7.90508942,2.52373674 7.01387348,2.52327159 6.46380408,3.07261853 L5.46945261,4.06697 L12.4351081,11.0336645 L13.4304986,10.0372349 C13.9791533,9.48728493 13.9786883,8.59686968 13.4294595,8.04749297 L13.4294595,8.04749297 Z M13.7048024,2.79727564 C13.3079919,2.40046508 13.3079919,1.75710805 13.7048024,1.3602975 C14.101613,0.963486939 14.74497,0.963486939 15.1417806,1.3602975 C15.3328282,1.55059086 15.4402214,1.8091372 15.4402214,2.07878657 C15.4402214,2.34843594 15.3328282,2.60698228 15.1417806,2.79727564 C14.9514872,2.98832332 14.6929409,3.09571643 14.4232915,3.09571643 C14.1536421,3.09571643 13.8950958,2.98832332 13.7048024,2.79727564 L13.7048024,2.79727564 Z"></path>
        </g>
    </g>
</svg>