<?xml version="1.0" encoding="utf-8"?>
<!-- Generator: Adobe Illustrator 23.1.1, SVG Export Plug-In . SVG Version: 6.00 Build 0)  -->
<svg version="1.1" id="图层_1" xmlns="http://www.w3.org/2000/svg" xmlns:xlink="http://www.w3.org/1999/xlink" x="0px" y="0px"
	 viewBox="0 0 24 24" style="enable-background:new 0 0 24 24;" xml:space="preserve">
<style type="text/css">
	.st0{fill-opacity:0.85;}
</style>
<title>更新</title>
<g transform="translate(4.000000, 4.000000)">
	<g id="编组">
		<path id="路径" class="st0" d="M2.3,8.6C1.9,6.2,3.3,3.8,5.6,2.8c1.7-0.7,3.6-0.4,5,0.6L9.4,5.3l5.1,0L12.7,0l-0.9,1.5
			c-2-1.3-4.6-1.7-7-0.8C1.6,2-0.3,5.3,0.1,8.6H2.3z"/>
		<path class="st0" d="M13,7.3c0.4,2.4-0.9,4.8-3.3,5.7c-1.6,0.6-3.4,0.4-4.7-0.5c0.3-0.4,1-1.7,1-1.7l-5.5-0.3L2.8,16l1-1.6
			c2,1.3,4.4,1.6,6.7,0.7c3.2-1.3,5.1-4.5,4.7-7.8L13,7.3L13,7.3z"/>
	</g>
</g>
</svg>
