<?xml version="1.0" encoding="UTF-8"?>
<svg width="20px" height="20px" viewBox="0 0 20 20" version="1.1" xmlns="http://www.w3.org/2000/svg" xmlns:xlink="http://www.w3.org/1999/xlink">
    <title>network-wireless-6-signal-high-symbolic</title>
    <g id="network-wireless-6-signal-high-symbolic" stroke="none" stroke-width="1" fill="none" fill-rule="evenodd">
        <g id="编组" transform="translate(1.069210, 2.850000)" fill="#FFFFFF">
            <path d="M3.54660303,9.84934557 C4.29840283,7.61181898 6.41277449,6 8.90360665,6 C11.3944388,6 13.5088105,7.61181898 14.2606103,9.84934557 L13.1922343,10.9177215 C12.8440834,8.86396159 11.0564864,7.3 8.90360665,7.3 C6.75072688,7.3 4.96312991,8.86396159 4.61497899,10.9177215 L3.54660303,9.84934557 L3.54660303,9.84934557 Z" id="路径"></path>
            <path d="M8.90360665,3 C12.2073167,3 15.0784465,4.85209616 16.5353318,7.57462408 L15.5666792,8.5432766 C14.3959978,6.03677423 11.8526249,4.3 8.90360665,4.3 C7.80647123,4.3 6.76548093,4.54038586 5.83043188,4.97136146 C5.8455699,4.81568793 5.85240583,4.65636795 5.85240583,4.49545134 C5.85240583,4.18445935 5.82687328,3.87943081 5.77779006,3.5823476 C6.74699681,3.20621876 7.80121924,3 8.90360665,3 Z" id="形状结合"></path>
            <path d="M8.90360665,0 C13.03089,0 16.6568921,2.14624077 18.7264231,5.38353274 L17.7821706,6.32778525 C15.9726013,3.31552849 12.6734799,1.3 8.90360665,1.3 C7.61515943,1.3 6.3817007,1.53543374 5.2439037,1.96562799 C5.04118866,1.56763857 4.79067959,1.19710536 4.50072774,0.861607788 L4.56617284,0.834210869 C5.90678107,0.296093625 7.37061567,0 8.90360665,0 Z" id="形状结合" opacity="0.3"></path>
            <path d="M8.90360665,14.15 C7.52289477,14.15 6.40360665,13.0307119 6.40360665,11.65 C6.40360665,10.2692881 7.52289477,9.15 8.90360665,9.15 C10.2843185,9.15 11.4036066,10.2692881 11.4036066,11.65 C11.4036066,13.0307119 10.2843185,14.15 8.90360665,14.15 Z" id="路径"></path>
            <path d="M2.30047668,8.66159358 C3.39882458,8.66159358 4.31555589,7.86593999 4.31555589,6.58597552 C4.31555589,5.28006582 3.54584752,4.66602881 2.47344486,4.66602881 C2.05832124,4.66602881 1.5134715,4.92548107 1.15888675,5.36654991 C1.2107772,3.75794591 1.8161658,3.21309617 2.55128053,3.21309617 C2.9231621,3.21309617 3.31234049,3.42065797 3.53719911,3.67146182 L4.21177498,2.91040187 C3.831245,2.51257507 3.26045004,2.18393555 2.48209326,2.18393555 C1.18483198,2.18393555 0,3.21309617 0,5.59140853 C0,7.72756545 1.08969948,8.66159358 2.30047668,8.66159358 Z M2.27453146,7.70162023 C1.74697853,7.70162023 1.31455811,7.30379343 1.19348039,6.24868758 C1.5134715,5.74707989 1.90264989,5.5654633 2.23128942,5.5654633 C2.78478757,5.5654633 3.14802073,5.88545442 3.14802073,6.58597552 C3.14802073,7.32973866 2.75884234,7.70162023 2.27453146,7.70162023 Z" id="形状结合"></path>
        </g>
    </g>
</svg>