<?xml version="1.0" encoding="iso-8859-1"?>
<!-- Generator: Adobe Illustrator 18.1.1, SVG Export Plug-In . SVG Version: 6.00 Build 0)  -->
<!DOCTYPE svg PUBLIC "-//W3C//DTD SVG 1.1//EN" "http://www.w3.org/Graphics/SVG/1.1/DTD/svg11.dtd" [
	<!ENTITY ns_extend "http://ns.adobe.com/Extensibility/1.0/">
	<!ENTITY ns_ai "http://ns.adobe.com/AdobeIllustrator/10.0/">
	<!ENTITY ns_graphs "http://ns.adobe.com/Graphs/1.0/">
	<!ENTITY ns_vars "http://ns.adobe.com/Variables/1.0/">
	<!ENTITY ns_imrep "http://ns.adobe.com/ImageReplacement/1.0/">
	<!ENTITY ns_sfw "http://ns.adobe.com/SaveForWeb/1.0/">
	<!ENTITY ns_custom "http://ns.adobe.com/GenericCustomNamespace/1.0/">
	<!ENTITY ns_adobe_xpath "http://ns.adobe.com/XPath/1.0/">
]>
<svg version="1.1" id="&#x56FE;&#x5C42;_1" xmlns:x="&ns_extend;" xmlns:i="&ns_ai;" xmlns:graph="&ns_graphs;"
	 xmlns="http://www.w3.org/2000/svg" xmlns:xlink="http://www.w3.org/1999/xlink" x="0px" y="0px" viewBox="0 0 32 32"
	 enable-background="new 0 0 32 32" xml:space="preserve">
<metadata>
	<sfw  xmlns="&ns_sfw;">
		<slices></slices>
		<sliceSourceBounds  width="1546.667" height="16845" y="-8451" x="-7" bottomLeftOrigin="true"></sliceSourceBounds>
	</sfw>
</metadata>
<g>
	<polygon fill="#00BDFF" points="16,22.563 20.47,20.036 16,16.594 	"/>
	<polygon fill="#00BDFF" points="16,14.719 20.809,11.172 16,8.476 	"/>
	<path fill="#00BDFF" d="M16,1.987c-5.434,0-10,4.446-10,9.88v7.24c0,5.434,4.566,9.88,10,9.88c5.434,0,10-4.446,10-9.88v-7.24
		C26,6.433,21.434,1.987,16,1.987z M22.506,11.417l-5.774,4.182l5.46,4.025c0.134,0.099,0.209,0.257,0.203,0.423
		c-0.007,0.166-0.096,0.317-0.236,0.404l-6.395,3.959c-0.081,0.05-0.172,0.075-0.264,0.075c-0.084,0-0.168-0.021-0.243-0.063
		C15.099,24.334,15,24.167,15,23.985v-6.944l-4.954,3.588c-0.22,0.159-0.546,0.277-0.871-0.101c-0.289-0.335-0.143-0.74,0.08-0.903
		l5.524-4.081l-5.641-4.168c-0.222-0.164-0.417-0.583-0.153-0.924c0.266-0.344,0.698-0.348,0.919-0.184l5.065,3.856L15,7.036
		c0-0.18,0.097-0.346,0.252-0.435c0.157-0.089,0.348-0.086,0.503,0.004l6.713,3.976c0.145,0.086,0.237,0.239,0.244,0.407
		C22.72,11.157,22.643,11.317,22.506,11.417z"/>
</g>
</svg>
