<?xml version="1.0" encoding="iso-8859-1"?>
<!-- Generator: Adobe Illustrator 18.1.1, SVG Export Plug-In . SVG Version: 6.00 Build 0)  -->
<!DOCTYPE svg PUBLIC "-//W3C//DTD SVG 1.1//EN" "http://www.w3.org/Graphics/SVG/1.1/DTD/svg11.dtd" [
	<!ENTITY ns_extend "http://ns.adobe.com/Extensibility/1.0/">
	<!ENTITY ns_ai "http://ns.adobe.com/AdobeIllustrator/10.0/">
	<!ENTITY ns_graphs "http://ns.adobe.com/Graphs/1.0/">
	<!ENTITY ns_vars "http://ns.adobe.com/Variables/1.0/">
	<!ENTITY ns_imrep "http://ns.adobe.com/ImageReplacement/1.0/">
	<!ENTITY ns_sfw "http://ns.adobe.com/SaveForWeb/1.0/">
	<!ENTITY ns_custom "http://ns.adobe.com/GenericCustomNamespace/1.0/">
	<!ENTITY ns_adobe_xpath "http://ns.adobe.com/XPath/1.0/">
]>
<svg version="1.1" id="&#x56FE;&#x5C42;_1" xmlns:x="&ns_extend;" xmlns:i="&ns_ai;" xmlns:graph="&ns_graphs;"
	 xmlns="http://www.w3.org/2000/svg" xmlns:xlink="http://www.w3.org/1999/xlink" x="0px" y="0px" viewBox="0 0 32 32"
	 enable-background="new 0 0 32 32" xml:space="preserve">
<metadata>
	<sfw  xmlns="&ns_sfw;">
		<slices></slices>
		<sliceSourceBounds  width="1546.667" height="16845" y="-8451" x="-7" bottomLeftOrigin="true"></sliceSourceBounds>
	</sfw>
</metadata>
<path fill="#00BDFF" d="M23.525,15.472c-3.866,0-7,3.134-7,7c0,3.866,3.134,7,7,7c3.866,0,7-3.134,7-7
	C30.525,18.606,27.391,15.472,23.525,15.472z M23.977,24.687l-3.267,2.179c-0.128,0.085-0.272,0.126-0.415,0.126
	c-0.242,0-0.48-0.117-0.625-0.334c-0.229-0.345-0.137-0.811,0.208-1.04l2.316-1.545l-2.308-1.492
	c-0.348-0.225-0.447-0.689-0.223-1.037s0.689-0.446,1.037-0.223l3.267,2.112c0.212,0.138,0.341,0.372,0.343,0.625
	C24.312,24.31,24.187,24.546,23.977,24.687z M27.421,23.417c-0.144,0.222-0.385,0.343-0.631,0.343c-0.14,0-0.28-0.039-0.406-0.12
	l-3.266-2.112c-0.212-0.138-0.341-0.372-0.343-0.625c-0.002-0.252,0.124-0.488,0.334-0.629l3.266-2.178
	c0.346-0.229,0.811-0.137,1.04,0.208s0.137,0.811-0.208,1.04l-2.315,1.544l2.307,1.492C27.546,22.605,27.646,23.069,27.421,23.417z"
	/>
<path fill="#00BDFF" d="M15.025,22.472c0-0.86,0.131-1.689,0.369-2.472H3V6.5C3,6.224,3.224,6,3.5,6h21C24.776,6,25,6.224,25,6.5
	v7.609c0.34,0.06,0.675,0.134,1,0.233V6.5C26,5.672,25.328,5,24.5,5h-21C2.672,5,2,5.672,2,6.5v14v2C2,23.328,2.672,24,3.5,24H10v2
	H7.5C7.224,26,7,26.224,7,26.5S7.224,27,7.5,27H10h0.5h5.845C15.514,25.687,15.025,24.137,15.025,22.472z"/>
</svg>
