<?xml version="1.0" encoding="iso-8859-1"?>
<!-- Generator: Adobe Illustrator 18.1.1, SVG Export Plug-In . SVG Version: 6.00 Build 0)  -->
<!DOCTYPE svg PUBLIC "-//W3C//DTD SVG 1.1//EN" "http://www.w3.org/Graphics/SVG/1.1/DTD/svg11.dtd" [
	<!ENTITY ns_extend "http://ns.adobe.com/Extensibility/1.0/">
	<!ENTITY ns_ai "http://ns.adobe.com/AdobeIllustrator/10.0/">
	<!ENTITY ns_graphs "http://ns.adobe.com/Graphs/1.0/">
	<!ENTITY ns_vars "http://ns.adobe.com/Variables/1.0/">
	<!ENTITY ns_imrep "http://ns.adobe.com/ImageReplacement/1.0/">
	<!ENTITY ns_sfw "http://ns.adobe.com/SaveForWeb/1.0/">
	<!ENTITY ns_custom "http://ns.adobe.com/GenericCustomNamespace/1.0/">
	<!ENTITY ns_adobe_xpath "http://ns.adobe.com/XPath/1.0/">
]>
<svg version="1.1" id="&#x56FE;&#x5C42;_1" xmlns:x="&ns_extend;" xmlns:i="&ns_ai;" xmlns:graph="&ns_graphs;"
	 xmlns="http://www.w3.org/2000/svg" xmlns:xlink="http://www.w3.org/1999/xlink" x="0px" y="0px" viewBox="0 0 32 32"
	 enable-background="new 0 0 32 32" xml:space="preserve">
<metadata>
	<sfw  xmlns="&ns_sfw;">
		<slices></slices>
		<sliceSourceBounds  width="1546.667" height="16845" y="-8451" x="-7" bottomLeftOrigin="true"></sliceSourceBounds>
	</sfw>
</metadata>
<g>
	<circle fill="#00BDFF" stroke="#00BDFF" stroke-linejoin="round" stroke-miterlimit="10" cx="5.491" cy="17.5" r="1"/>
	<path fill="none" stroke="#00BDFF" stroke-linecap="round" stroke-linejoin="round" stroke-miterlimit="10" d="M29.5,8.5v18
		c0,0.552-0.448,1-1,1h-25c-0.552,0-1-0.448-1-1v-18c0-0.552,0.448-1,1-1h17.021"/>
	<polygon fill="#00BDFF" points="14.988,15.77 14.979,15.778 13.045,19.933 17.172,17.972 17.181,17.963 	"/>
	<polygon fill="#00BDFF" points="22.588,8.17 16.048,14.709 18.242,16.902 24.771,10.373 	"/>
	<path fill="#00BDFF" d="M18.273,19.344l-7.84,3.338c-0.169,0.072-0.343-0.103-0.265-0.269l3.616-7.756L19.531,9H8v17l20-0.032
		V9.312L18.273,19.344z"/>
	<path fill="#00BDFF" d="M29.225,3.725c-0.606-0.606-1.769-0.424-2.196,0.003l-3.381,3.381l2.184,2.203l3.391-3.391
		C29.65,5.494,29.831,4.331,29.225,3.725z"/>
</g>
</svg>
