<?xml version="1.0" encoding="UTF-8"?>
<svg width="48px" height="48px" viewBox="0 0 48 48" version="1.1" xmlns="http://www.w3.org/2000/svg" xmlns:xlink="http://www.w3.org/1999/xlink">
    <!-- Generator: Sketch 62 (91390) - https://sketch.com -->
    <title>系统更新-48</title>
    <desc>Created with Sketch.</desc>
    <defs>
        <filter x="-14.4%" y="-14.4%" width="128.9%" height="128.9%" filterUnits="objectBoundingBox" id="filter-1">
            <feOffset dx="0" dy="1" in="SourceAlpha" result="shadowOffsetOuter1"></feOffset>
            <feGaussianBlur stdDeviation="1" in="shadowOffsetOuter1" result="shadowBlurOuter1"></feGaussianBlur>
            <feComposite in="shadowBlurOuter1" in2="SourceAlpha" operator="out" result="shadowBlurOuter1"></feComposite>
            <feColorMatrix values="0 0 0 0 0   0 0 0 0 0   0 0 0 0 0  0 0 0 0.2 0" type="matrix" in="shadowBlurOuter1" result="shadowMatrixOuter1"></feColorMatrix>
            <feMerge>
                <feMergeNode in="shadowMatrixOuter1"></feMergeNode>
                <feMergeNode in="SourceGraphic"></feMergeNode>
            </feMerge>
        </filter>
        <linearGradient x1="50%" y1="2.86790497%" x2="50%" y2="97.4517182%" id="linearGradient-2">
            <stop stop-color="#7F8284" offset="0%"></stop>
            <stop stop-color="#5D6468" offset="100%"></stop>
        </linearGradient>
        <circle id="path-3" cx="22.5" cy="22.5" r="22.5"></circle>
        <linearGradient x1="50%" y1="19.7042628%" x2="50%" y2="87.5095116%" id="linearGradient-5">
            <stop stop-color="#A4A4A4" offset="0%"></stop>
            <stop stop-color="#878787" offset="100%"></stop>
        </linearGradient>
        <path d="M10.9029049,1.54598556e-14 C11.4404995,0.0693687691 11.9632666,0.186598804 12.4668772,0.347321628 L12.3390689,1.78602545 C12.7586674,1.94286334 13.1607981,2.13673021 13.5416687,2.36375233 L14.5828744,1.34532731 C15.0315137,1.63405885 15.4530969,1.96180942 15.8429285,2.32384067 L15.0987192,3.59549723 C15.4187458,3.92501146 15.7097918,4.28393721 15.9676275,4.6679539 L17.3848394,4.19703316 C17.6613105,4.64285553 17.9004988,5.11463034 18.0979974,5.60791054 L16.8538244,6.4456491 C17.0096157,6.89499283 17.1257048,7.36351556 17.1977844,7.84681746 L18.7008222,8.05301194 C18.7333336,8.36691044 18.75,8.68556605 18.75,9.00814978 C18.75,9.21239301 18.7433188,9.41506156 18.730165,9.61594501 L17.2433973,9.82017479 C17.1918486,10.3269456 17.0921558,10.8191043 16.9490722,11.2917952 L18.202147,12.1356144 C18.0251964,12.6224393 17.8081204,13.0897262 17.5549623,13.533395 L16.1561251,13.0679842 C15.8874891,13.510133 15.5762058,13.9224173 15.2281457,14.2988409 L15.9726447,15.5695964 C15.6074776,15.9223416 15.2129174,16.2443523 14.7930445,16.531511 L13.7655235,15.528346 C13.3285349,15.8100589 12.8612207,16.0471505 12.3697133,16.2333566 L12.4968628,17.6593496 C12.0214906,17.8129222 11.5289212,17.9277026 11.0228123,18 L10.5345731,16.6701223 C10.2766878,16.6973789 10.0149409,16.7113481 9.75,16.7113481 C9.48505908,16.7113481 9.22331224,16.6973789 8.96542686,16.6701223 L8.47718774,18 C7.97107877,17.9277026 7.47850942,17.8129222 7.0031372,17.6593496 L7.13028668,16.2333566 C6.63877931,16.0471505 6.17146507,15.8100589 5.73447655,15.528346 L4.70695548,16.531511 C4.28708264,16.2443523 3.89252241,15.9223416 3.52735526,15.5695964 L4.2718543,14.2988409 C3.92379418,13.9224173 3.61251092,13.510133 3.34387487,13.0679842 L1.94503767,13.533395 C1.69205401,13.0900318 1.47510267,12.6230829 1.29821869,12.1366203 L2.55092778,11.2917952 C2.40784423,10.8191043 2.30815139,10.3269456 2.2566027,9.82017479 L0.76983504,9.61594501 C0.756681185,9.41506156 0.75,9.21239301 0.75,9.00814978 C0.75,8.68590923 0.766631006,8.36758843 0.799074114,8.05401376 L2.30221559,7.84681746 C2.37429523,7.36351556 2.49038434,6.89499283 2.64617559,6.4456491 L1.40200264,5.60791054 C1.59950118,5.11463034 1.83868947,4.64285553 2.11516059,4.19703316 L3.53237253,4.6679539 C3.7902082,4.28393721 4.0812542,3.92501146 4.40128078,3.59549723 L3.65707154,2.32384067 C4.04690311,1.96180942 4.46848633,1.63405885 4.91712561,1.34532731 L5.95833129,2.36375233 C6.33920185,2.13673021 6.74133257,1.94286334 7.16093114,1.78602545 L7.03312283,0.347321628 C7.53673342,0.186598804 8.05950054,0.0693687691 8.59709513,1.53661806e-14 L9.09214029,1.34849852 C9.30893074,1.32934315 9.52834757,1.31956587 9.75,1.31956587 C9.97165243,1.31956587 10.1910693,1.32934315 10.4078597,1.34849852 Z M9.75,4.01306602 C7.01619049,4.01306602 4.8,6.2494412 4.8,9.00814978 C4.8,11.7668584 7.01619049,14.0032335 9.75,14.0032335 C12.4838095,14.0032335 14.7,11.7668584 14.7,9.00814978 C14.7,6.2494412 12.4838095,4.01306602 9.75,4.01306602 Z" id="path-6"></path>
        <filter x="-11.1%" y="-5.6%" width="122.2%" height="122.2%" filterUnits="objectBoundingBox" id="filter-7">
            <feOffset dx="0" dy="1" in="SourceAlpha" result="shadowOffsetOuter1"></feOffset>
            <feGaussianBlur stdDeviation="0.5" in="shadowOffsetOuter1" result="shadowBlurOuter1"></feGaussianBlur>
            <feComposite in="shadowBlurOuter1" in2="SourceAlpha" operator="out" result="shadowBlurOuter1"></feComposite>
            <feColorMatrix values="0 0 0 0 0   0 0 0 0 0   0 0 0 0 0  0 0 0 0.2 0" type="matrix" in="shadowBlurOuter1"></feColorMatrix>
        </filter>
        <linearGradient x1="39.9923383%" y1="9.02968989%" x2="50%" y2="93.8552598%" id="linearGradient-8">
            <stop stop-color="#FFFFFF" offset="0%"></stop>
            <stop stop-color="#EDEDED" offset="100%"></stop>
        </linearGradient>
        <linearGradient x1="50%" y1="0%" x2="50%" y2="98.6750422%" id="linearGradient-9">
            <stop stop-color="#ECECEC" offset="0%"></stop>
            <stop stop-color="#D2D2D2" offset="100%"></stop>
        </linearGradient>
    </defs>
    <g id="系统更新-48" stroke="none" stroke-width="1" fill="none" fill-rule="evenodd">
        <g id="编组" filter="url(#filter-1)" transform="translate(2.000000, 2.000000)">
            <mask id="mask-4" fill="white">
                <use xlink:href="#path-3"></use>
            </mask>
            <use id="Oval" fill="url(#linearGradient-2)" xlink:href="#path-3"></use>
            <g id="Group-12" mask="url(#mask-4)" opacity="0.803943452">
                <g transform="translate(12.500000, 13.500000)" id="Combined-Shape">
                    <g>
                        <use fill="black" fill-opacity="1" filter="url(#filter-7)" xlink:href="#path-6"></use>
                        <path stroke-opacity="0.35041521" stroke="#656565" stroke-width="0.75" d="M17.3764128,13.0787782 L15.9850004,12.6158377 C15.6526785,13.2162785 15.2397637,13.7640265 14.7612336,14.2437213 L15.4974563,15.5003504 C15.2845848,15.6925396 15.0622024,15.8742228 14.8311078,16.0445897 L13.8090448,15.0467534 C13.2488165,15.4418141 12.630752,15.7574292 11.9704129,15.9775101 L12.0962849,17.3891763 C11.8254813,17.4662751 11.5492675,17.5303547 11.2683496,17.5807047 L10.7837138,16.2606418 C10.4461946,16.3105377 10.101049,16.3363481 9.75,16.3363481 C9.39895097,16.3363481 9.05380541,16.3105377 8.71628617,16.2606418 L8.23165039,17.5807047 C7.95073245,17.5303547 7.6745187,17.4662751 7.40371513,17.3891763 L7.52958715,15.9775101 C6.86924799,15.7574292 6.25118347,15.4418141 5.69095515,15.0467534 L4.66889216,16.0445897 C4.43779757,15.8742228 4.21541524,15.6925396 4.00254368,15.5003504 L4.73876644,14.2437213 C4.26023627,13.7640265 3.84732153,13.2162785 3.51499964,12.6158377 L2.1235872,13.0787782 C1.98790315,12.8202764 1.86474217,12.5540527 1.75492099,12.2809296 L2.99446346,11.4449841 C2.78189843,10.8269064 2.64822532,10.1709089 2.60567165,9.4896032 L1.1293298,9.28680556 C1.125,8.79849979 1.1323335,8.5905787 1.14675942,8.38463388 L2.63707295,8.17920582 C2.7100892,7.52219413 2.86816409,6.89153607 3.09983373,6.2990259 L1.86718476,5.46904679 C1.99159242,5.18709782 2.13041331,4.91305335 2.28270176,4.64786564 L3.69013714,5.11553776 C4.02149974,4.5783125 4.41932714,4.0881567 4.87185673,3.65714601 L4.13528336,2.39853714 C4.37034334,2.19484868 4.61639482,2.00371166 4.87241947,1.82615989 L5.90670861,2.83781971 C6.41740811,2.50484137 6.97223478,2.2362235 7.56025955,2.04325985 L7.43370285,0.61864514 C7.73291743,0.534643404 8.03868583,0.466521491 8.35005986,0.415232702 L8.8411509,1.75296023 C9.1387854,1.7144181 9.4421224,1.69456587 9.75,1.69456587 C10.0578776,1.69456587 10.3612146,1.7144181 10.6588491,1.75296023 L11.1499401,0.415232702 C11.4613142,0.466521491 11.7670826,0.534643404 12.0662971,0.61864514 L11.9397405,2.04325985 C12.5277652,2.2362235 13.0825919,2.50484137 13.5932914,2.83781971 L14.6275805,1.82615989 C14.8836052,2.00371166 15.1296567,2.19484868 15.3647166,2.39853714 L14.6281433,3.65714601 C15.0806729,4.0881567 15.4785003,4.5783125 15.8098629,5.11553776 L17.2172982,4.64786564 C17.3695867,4.91305335 17.5084076,5.18709782 17.6328152,5.46904679 L16.4001663,6.2990259 C16.6318582,6.89159298 16.7899412,7.52231529 16.8629481,8.17939515 L18.3531845,8.38383346 C18.3676475,8.59003997 18.375,8.79822818 18.375,9.00814978 L16.8943283,9.4896032 C16.8517703,10.1709787 16.7180742,10.8270408 16.5054712,11.445174 L17.745397,12.2801386 C17.6354956,12.5535387 17.5122278,12.8200269 17.3764128,13.0787782 Z M15.075,9.00814978 C15.075,7.52563377 14.4792604,6.18361761 13.5165429,5.21213192 C12.5526005,4.23941009 11.2208442,3.63806602 9.75,3.63806602 C8.27915577,3.63806602 6.94739946,4.23941009 5.98345706,5.21213192 C5.02073964,6.18361761 4.425,7.52563377 4.425,9.00814978 C4.425,10.4906658 5.02073964,11.832682 5.98345706,12.8041676 C6.94739946,13.7768895 8.27915577,14.3782335 9.75,14.3782335 C11.2208442,14.3782335 12.5526005,13.7768895 13.5165429,12.8041676 C14.4792604,11.832682 15.075,10.4906658 15.075,9.00814978 Z" stroke-linejoin="square" fill="url(#linearGradient-5)" fill-rule="evenodd"></path>
                    </g>
                </g>
            </g>
            <path d="M22.2500071,27.1274476 C20.9728486,27.1274476 19.8165986,26.6097769 18.9796382,25.7728165 C18.1426778,24.9358561 17.6250071,23.7796061 17.6250071,22.5024476 C17.6250071,21.2252892 18.1426778,20.0690392 18.9796382,19.2320788 C19.8165986,18.3951184 20.9728486,17.8774476 22.2500071,17.8774476 C23.5271656,17.8774476 24.6834156,18.3951184 25.520376,19.2320788 C26.3573363,20.0690392 26.8750071,21.2252892 26.8750071,22.5024476 C26.8750071,23.7796061 26.3573363,24.9358561 25.520376,25.7728165 C24.6834156,26.6097769 23.5271656,27.1274476 22.2500071,27.1274476 Z M18.8750071,22.5024476 C18.8750071,23.4344282 19.2527668,24.2781782 19.8635217,24.888933 C20.4742766,25.4996879 21.3180266,25.8774476 22.2500071,25.8774476 C23.1819876,25.8774476 24.0257376,25.4996879 24.6364925,24.888933 C25.2472473,24.2781782 25.6250071,23.4344282 25.6250071,22.5024476 C25.6250071,21.5704671 25.2472473,20.7267171 24.6364925,20.1159622 C24.0257376,19.5052074 23.1819876,19.1274476 22.2500071,19.1274476 C21.3180266,19.1274476 20.4742766,19.5052074 19.8635217,20.1159622 C19.2527668,20.7267171 18.8750071,21.5704671 18.8750071,22.5024476 Z M17.5762481,40.8665942 C17.4172641,40.8289538 17.2847454,40.7350518 17.1963957,40.6099554 L17.3371869,37.8194056 C17.3687192,37.5299305 17.3088561,37.2458474 17.1761336,37.0013085 C17.043411,36.7567696 16.8378291,36.5517748 16.5779236,36.4204765 L14.8995419,35.572596 C14.6281651,35.4355026 14.3280389,35.3940006 14.0424633,35.4409687 C13.7568876,35.4879367 13.4858624,35.6233748 13.2726876,35.8401615 L11.7113225,37.4279808 C11.5930221,37.5482855 11.4384492,37.6130997 11.2810854,37.6207876 C11.1237217,37.6284754 10.9635671,37.579037 10.8341032,37.4708365 L10.0967617,36.8545972 C9.97344447,36.7515338 9.89724489,36.6110488 9.87289463,36.4620881 C9.84854437,36.3131273 9.87604344,36.1556909 9.96012357,36.0187248 L11.2036149,33.9930838 C11.3538966,33.7482758 11.4216257,33.4699556 11.4085779,33.1954751 C11.3955302,32.9209947 11.3017055,32.6503541 11.1288795,32.4209054 L10.0198847,30.9485727 C9.83619431,30.7047001 9.58398014,30.5345623 9.30576248,30.4509392 C9.02754481,30.3673162 8.72332365,30.3702081 8.43561925,30.472395 L6.37231873,31.2052384 C6.2135024,31.2616468 6.04632741,31.2524391 5.90153633,31.1907196 C5.75674525,31.1290002 5.63433808,31.0147691 5.56505737,30.8611309 L5.14628863,29.932461 C5.08033961,29.7862112 5.07289649,29.6268408 5.1156741,29.4823374 C5.15845171,29.337834 5.25145005,29.2081975 5.38638395,29.1214153 L7.36343969,27.849881 C7.60491962,27.6945742 7.78662206,27.4733229 7.89395484,27.220499 C8.00128762,26.967675 8.03425074,26.6832785 7.97825203,26.4016815 L7.63343615,24.6677286 C7.57429067,24.3703076 7.42261654,24.1089269 7.21042707,23.913127 C6.99823759,23.7173271 6.72553276,23.587108 6.42432588,23.5520103 L4.10315434,23.2815393 L3.67237359,21.5095229 C3.68907047,21.3697703 3.75019234,21.2432814 3.84169952,21.1451173 C3.94348699,21.0359249 4.0828705,20.9617791 4.24052702,20.9434084 L6.55238985,20.6740221 C6.84183931,20.6402944 7.10563441,20.5185356 7.31455524,20.3344868 C7.52347606,20.150438 7.6775226,19.9040994 7.74747495,19.6212121 L8.14397074,18.0177831 C8.21572552,17.7276068 8.19123329,17.4306761 8.08595009,17.1658664 C7.98066688,16.9010567 7.7945927,16.668368 7.54318357,16.5066753 L5.65402307,15.2916704 C5.51533048,15.2024709 5.42122131,15.068287 5.38008276,14.9194609 C5.33894421,14.7706349 5.35077628,14.6071667 5.42396619,14.4593985 L5.91023685,13.4776333 C5.98304593,13.330634 6.10506088,13.2224615 6.24751895,13.1647649 C6.38997703,13.1070683 6.55287822,13.0998476 6.70745977,13.1547519 L8.85771746,13.9184808 C9.13642034,14.0174705 9.43119106,14.0233814 9.70293428,13.9471769 C9.97467751,13.8709724 10.2233933,13.7126525 10.4099862,13.4831806 L11.3688536,12.3039661 C11.5560754,12.0737208 11.6603848,11.7969098 11.6790756,11.5144336 C11.6977664,11.2319574 11.6308386,10.9438161 11.4755858,10.6909101 L10.2738987,8.73336804 C10.1881887,8.59374694 10.1613611,8.43311752 10.188042,8.28193108 C10.2147228,8.13074464 10.2949121,7.98900119 10.423236,7.88715204 L11.2837756,7.2041515 C11.4134752,7.10121041 11.5715554,7.05547692 11.7262356,7.06499537 C11.8809158,7.07451382 12.0321961,7.13928421 12.1482956,7.25735087 L13.7497159,8.88590396 C13.9590827,9.09881808 14.2245228,9.23346001 14.504949,9.2826261 C14.7853752,9.33179219 15.0807876,9.29548245 15.3500991,9.16649321 L16.6298845,8.55352812 C16.8973789,8.42540918 17.1098714,8.21984566 17.2474608,7.97259953 C17.3850502,7.72535339 17.4477366,7.43642463 17.4156188,7.14157521 L17.1643528,4.83488717 C17.1465371,4.67133416 17.1914484,4.51409615 17.2809232,4.38864083 C17.3703979,4.26318551 17.5044362,4.16951288 17.6648744,4.1330906 L18.7302695,3.89122728 C18.8914316,3.85464066 19.0534421,3.88166057 19.1886268,3.95688718 C19.3238116,4.03211378 19.4321707,4.15554707 19.4860301,4.3117872 L20.2235374,6.45121613 C20.324876,6.74520009 20.5172413,6.98802322 20.7619167,7.15350165 C21.0065921,7.31898007 21.3035776,7.40711374 21.6141563,7.39171837 C21.8700942,7.37903154 22.0820565,7.37259237 22.2500467,7.37259237 C22.4180353,7.37259237 22.6299951,7.37903142 22.8859253,7.39171779 C23.1965036,7.40711693 23.4934891,7.31898572 23.7381656,7.15350908 C23.9828422,6.98803244 24.1752098,6.74521026 24.276552,6.45122754 L25.0140632,4.3117872 C25.0679226,4.15554707 25.1762817,4.03211378 25.3114665,3.95688718 C25.4466513,3.88166057 25.6086617,3.85464066 25.7698238,3.89122728 L26.8352189,4.1330906 C26.9956571,4.16951288 27.1296954,4.26318551 27.2191702,4.38864083 C27.3086449,4.51409615 27.3535562,4.67133416 27.3357405,4.83488717 L27.0844745,7.14157521 C27.0523567,7.43642463 27.1150431,7.72535339 27.2526325,7.97259953 C27.3902219,8.21984566 27.6027144,8.42540918 27.8702088,8.55352812 L29.1499942,9.16649321 C29.4193057,9.29548245 29.7147181,9.33179219 29.9951443,9.2826261 C30.2755705,9.23346001 30.5410106,9.09881808 30.7503774,8.88590396 L32.3517977,7.25735087 C32.4678973,7.13928421 32.6191775,7.07451382 32.7738577,7.06499537 C32.9285379,7.05547692 33.0866181,7.10121041 33.2163177,7.2041515 L34.0768574,7.88715204 C34.2051812,7.98900119 34.2853705,8.13074464 34.3120513,8.28193108 C34.3387322,8.43311752 34.3119046,8.59374694 34.2261946,8.73336804 L33.0245075,10.6909101 C32.8692548,10.9438161 32.8023269,11.2319574 32.8210177,11.5144336 C32.8397085,11.7969098 32.9440179,12.0737208 33.1312397,12.3039661 L34.0901071,13.4831806 C34.2767001,13.7126525 34.5254158,13.8709724 34.797159,13.9471769 C35.0689023,14.0233814 35.363673,14.0174705 35.6423758,13.9184808 L37.7926335,13.1547519 C37.9472151,13.0998476 38.1101163,13.1070683 38.2525744,13.1647649 C38.3950324,13.2224615 38.5170474,13.330634 38.5898565,13.4776333 L39.0761271,14.4593985 C39.149317,14.6071667 39.1611491,14.7706349 39.1200106,14.9194609 C39.078872,15.068287 38.9847628,15.2024709 38.8460702,15.2916704 L36.9569097,16.5066753 C36.7055006,16.668368 36.5194264,16.9010567 36.4141432,17.1658664 C36.30886,17.4306761 36.2843678,17.7276068 36.3561226,18.0177831 L36.7526184,19.6212121 C36.8225707,19.9040994 36.9766173,20.150438 37.1855381,20.3344868 C37.3944589,20.5185356 37.658254,20.6402944 37.9477035,20.6740221 L40.2595663,20.9434084 C40.4172228,20.9617791 40.5566063,21.0359249 40.6583938,21.1451173 C40.7601813,21.2543096 40.8243727,21.3985484 40.8316451,21.5571049 L40.8738105,22.4764151 C40.865717,22.7938791 40.8316459,23.0116856 40.7634995,23.1545163 C40.7367488,23.2105839 40.7042519,23.2457301 40.6562533,23.2513231 L38.0757674,23.5520103 C37.7745606,23.587108 37.5018557,23.7173271 37.2896662,23.913127 C37.0774768,24.1089269 36.9258026,24.3703076 36.8666572,24.6677286 L36.5218413,26.4016815 C36.4658426,26.6832785 36.4988057,26.967675 36.6061385,27.220499 C36.7134713,27.4733229 36.8951737,27.6945742 37.1366536,27.849881 L39.1137094,29.1214153 C39.2486433,29.2081975 39.3416416,29.337834 39.3844192,29.4823374 C39.4271968,29.6268408 39.4197537,29.7862112 39.3538047,29.932461 L38.9350359,30.8611309 C38.8657552,31.0147691 38.7433481,31.1290002 38.598557,31.1907196 C38.4537659,31.2524391 38.2865909,31.2616468 38.1277746,31.2052384 L36.0644741,30.472395 C35.7767697,30.3702081 35.4725485,30.3673162 35.1943308,30.4509392 C34.9161132,30.5345623 34.663899,30.7047001 34.4802086,30.9485727 L33.3712138,32.4209054 C33.1983878,32.6503541 33.1045631,32.9209947 33.0915154,33.1954751 C33.0784676,33.4699556 33.1461967,33.7482758 33.2964784,33.9930838 L34.5399697,36.0187248 C34.6240499,36.1556909 34.6515489,36.3131273 34.6271987,36.4620881 C34.6028484,36.6110488 34.5266488,36.7515338 34.4033317,36.8545972 L33.6659901,37.4708365 C33.5365262,37.579037 33.3763716,37.6284754 33.2190079,37.6207876 C33.0616441,37.6130997 32.9070712,37.5482855 32.7887708,37.4279808 L31.2274057,35.8401615 C31.0142309,35.6233748 30.7432057,35.4879367 30.45763,35.4409687 C30.1720544,35.3940006 29.8719282,35.4355026 29.6005514,35.572596 L27.9221697,36.4204765 C27.6622643,36.5517748 27.4566823,36.7567696 27.3239597,37.0013085 C27.1912372,37.2458474 27.1313741,37.5299305 27.1629064,37.8194056 L27.4185358,40.1661497 C27.4362279,40.328568 27.3920472,40.4848589 27.3036976,40.6099554 C27.2153479,40.7350518 27.0828292,40.8289538 26.9238452,40.8665942 L26.0274547,41.0788196 C25.8655236,41.1171577 25.7022419,41.0910169 25.5658849,41.015961 C25.4295279,40.9409052 25.3200955,40.8169342 25.2658631,40.6596118 L24.5298555,38.5245335 C24.428014,38.2291023 24.2342988,37.9854281 23.988041,37.8199415 C23.7417832,37.6544549 23.4429828,37.567156 23.1309712,37.5844755 L22.3054992,37.6302969 L21.3691222,37.5844755 C21.0571105,37.567156 20.7583101,37.6544549 20.5120523,37.8199415 C20.2657945,37.9854281 20.0720793,38.2291023 19.9702378,38.5245335 L19.2342302,40.6596118 C19.1799978,40.8169342 19.0705654,40.9409052 18.9342084,41.015961 C18.7978514,41.0910169 18.6345697,41.1171577 18.4726386,41.0788196 L17.5762481,40.8665942 Z M10.8750071,22.5024476 C10.8750071,25.6435294 12.1470869,28.4872303 14.2037161,30.5456705 C16.2604646,32.6042303 19.1018442,33.8774476 22.2403288,33.8774476 C25.3788135,33.8774476 28.220193,32.6042303 30.2769416,30.5456705 C32.3335707,28.4872303 33.6056506,25.6435294 33.6056506,22.5024476 C33.6056506,19.3613659 32.3335707,16.517665 30.2769416,14.4592247 C28.220193,12.400665 25.3788135,11.1274476 22.2403288,11.1274476 C19.1018442,11.1274476 16.2604646,12.400665 14.2037161,14.4592247 C12.1470869,16.517665 10.8750071,19.3613659 10.8750071,22.5024476 Z" id="Combined-Shape" stroke="url(#linearGradient-9)" stroke-width="0.75" fill="url(#linearGradient-8)" mask="url(#mask-4)"></path>
        </g>
    </g>
</svg>