<?xml version="1.0" encoding="UTF-8"?>
<svg width="24px" height="24px" viewBox="0 0 24 24" version="1.1" xmlns="http://www.w3.org/2000/svg" xmlns:xlink="http://www.w3.org/1999/xlink">
    <!-- Generator: Sketch 46.2 (44496) - http://www.bohemiancoding.com/sketch -->
    <title>nav_network</title>
    <desc>Created with Sketch.</desc>
    <defs></defs>
    <g id="UI" stroke="none" stroke-width="1" fill="none" fill-rule="evenodd">
        <g id="nav_network" fill="#FFFFFF">
            <path d="M19.154,15.795 C19.013,16.158 18.754,16.459 18.423,16.656 C18.525,17.567 18.563,18.533 18.548,19.54 C18.13,19.904 17.681,20.23 17.206,20.521 C17.28,19.221 17.258,17.993 17.132,16.854 C16.886,16.795 16.664,16.682 16.471,16.531 C14.829,17.536 12.046,19.432 9.982,21.795 C9.513,21.698 9.061,21.558 8.619,21.399 C10.701,18.844 13.565,16.806 15.416,15.647 C11.695,15.181 8.826,13.777 6.703,12.172 C6.494,12.261 6.264,12.311 6.023,12.311 C5.909,12.311 5.798,12.298 5.691,12.278 C4.475,14.324 3.886,16.219 3.608,17.421 C3.264,16.89 2.969,16.325 2.729,15.731 C3.104,14.545 3.683,13.097 4.598,11.564 C4.402,11.283 4.285,10.943 4.285,10.574 C4.285,10.397 4.32,10.23 4.369,10.069 C3.715,9.371 3.193,8.706 2.782,8.124 C2.975,7.666 3.21,7.232 3.467,6.812 C3.863,7.426 4.428,8.208 5.203,9.051 C5.448,8.919 5.724,8.837 6.023,8.837 C6.189,8.837 6.347,8.868 6.5,8.912 C7.511,7.73 8.751,6.575 10.269,5.538 C10.25,5.434 10.237,5.328 10.237,5.218 C10.237,4.988 10.284,4.769 10.365,4.568 C9.415,3.81 8.551,3.266 7.889,2.894 C8.397,2.664 8.928,2.478 9.477,2.335 C10.026,2.687 10.631,3.107 11.277,3.628 C11.491,3.535 11.726,3.481 11.974,3.481 C12.414,3.481 12.81,3.649 13.116,3.918 C13.985,3.506 14.931,3.139 15.942,2.812 C16.508,3.056 17.047,3.35 17.554,3.69 C16.134,4.07 14.85,4.541 13.698,5.086 C13.702,5.13 13.712,5.173 13.712,5.218 C13.712,5.431 13.668,5.633 13.598,5.821 C15.295,7.7 16.902,10.208 17.806,13.459 C18.406,13.553 18.905,13.947 19.136,14.488 C19.967,14.448 20.841,14.348 21.747,14.204 C21.64,14.68 21.496,15.14 21.323,15.588 C20.577,15.689 19.851,15.761 19.154,15.795 M12,1 C5.935,1 1,5.934 1,12 C1,18.065 5.935,23 12,23 C18.065,23 23,18.065 23,12 C23,5.934 18.065,1 12,1" id="Fill-35"></path>
            <path d="M11.9744,6.9551 C11.6034,6.9551 11.2604,6.8361 10.9784,6.6381 C9.5934,7.5891 8.4574,8.6421 7.5274,9.7211 C7.6714,9.9741 7.7594,10.2621 7.7594,10.5741 C7.7594,10.8071 7.7124,11.0281 7.6294,11.2311 C9.6624,12.7291 12.4054,14.0341 15.9844,14.4061 C16.1114,14.1481 16.2974,13.9241 16.5304,13.7581 C15.6974,10.8081 14.2494,8.5161 12.7104,6.7861 C12.4864,6.8911 12.2384,6.9551 11.9744,6.9551" id="Fill-36"></path>
        </g>
    </g>
</svg>